<svg width="40" height="40" viewBox="0 0 40 40" fill="none" xmlns="http://www.w3.org/2000/svg">
<g clip-path="url(#clip0_1696_1729)">
<path d="M20 0C31.0457 0 40 8.9543 40 20C40 31.0457 31.0457 40 20 40C8.95431 40 7.90517e-06 31.0457 0 20C6.58765e-07 8.95431 8.95431 1.97595e-06 20 0Z" fill="#D9D9D9"/>
<path d="M26 6C30.4183 6 34 9.58172 34 14V26C34 30.4183 30.4183 34 26 34H14C9.58172 34 6 30.4183 6 26V14C6 9.58172 9.58172 6 14 6H26Z" fill="black"/>
<g clip-path="url(#clip1_1696_1729)">
<path fill-rule="evenodd" clip-rule="evenodd" d="M19.5677 29.731L19.1473 29.3214V11.4063L19.0815 11.4613C19.0427 11.4775 18.8185 11.6683 18.5834 11.8817L18.1738 12.2644V20.2711C18.1738 24.6782 18.163 28.2821 18.1414 28.2821C18.1296 28.2821 17.7415 27.9048 17.2822 27.451L16.4403 26.6144L16.4295 14.3095L16.0791 14.8291C14.6906 16.9346 13.8055 19.3138 13.4994 21.7308C13.3894 22.5458 13.357 23.3382 13.357 25.0286V26.5917H11.6667V24.8259C11.6667 23.0762 11.6893 22.4639 11.7928 21.6597C12.1863 18.3619 13.4994 15.2237 15.5714 12.6094C16.2268 11.7944 17.2219 10.7713 17.9603 10.1482L18.3215 9.85285H21.6731L22.0235 10.1482C22.5097 10.5482 23.4832 11.499 23.9424 12.0294C26.2441 14.6933 27.7587 18.0665 28.1856 21.5227C28.2999 22.4412 28.3333 23.032 28.3333 24.8475V26.5917H26.6376L26.6268 24.6405C26.616 23.5678 26.5837 22.5232 26.5664 22.3324C26.354 20.2431 25.8118 18.3845 24.9267 16.5853C24.5979 15.9287 24.0901 15.076 23.7505 14.5887L23.5489 14.3041V26.6144L22.7124 27.451C22.2585 27.9048 21.865 28.2821 21.8532 28.2821C21.8316 28.2821 21.8262 24.6782 21.8262 20.2711V12.2644L21.4112 11.8817C21.1815 11.6801 20.9573 11.4775 20.9131 11.4613L20.842 11.4063V29.3214L20.4269 29.731C20.2027 29.9553 20.0054 30.1472 19.9946 30.1472C19.9838 30.1472 19.7919 29.9553 19.5677 29.731Z" fill="white"/>
</g>
</g>
<defs>
<clipPath id="clip0_1696_1729">
<rect width="40" height="40" fill="white"/>
</clipPath>
<clipPath id="clip1_1696_1729">
<rect width="20" height="20" fill="white" transform="translate(10 10)"/>
</clipPath>
</defs>
</svg>
