<svg width="40" height="40" viewBox="0 0 40 40" fill="none" xmlns="http://www.w3.org/2000/svg">
<g clip-path="url(#clip0_1691_131)">
<path d="M20 0C31.0457 0 40 8.9543 40 20C40 31.0457 31.0457 40 20 40C8.95431 40 7.90517e-06 31.0457 0 20C6.58765e-07 8.95431 8.95431 1.97595e-06 20 0Z" fill="#D9D9D9"/>
<path d="M26 6C30.4183 6 34 9.58172 34 14V26C34 30.4183 30.4183 34 26 34H14C9.58172 34 6 30.4183 6 26V14C6 9.58172 9.58172 6 14 6H26Z" fill="black"/>
<g clip-path="url(#clip1_1691_131)">
<path d="M20.8087 28.0276C21.9527 29.8619 23.7081 29.8619 24.2012 29.8619H30L23.1558 21.5976C19.9803 21.7357 18.3432 23.7278 18.6982 24.5759L20.8087 28.0276Z" fill="white"/>
<path d="M21.3807 18.4024C18.4813 18.4024 16.3708 18.8955 16.3708 20.0197C16.3708 20.4536 16.5089 20.789 16.8639 21.4398L18.7771 24.6154C18.7771 24.6154 18.5602 24.1815 18.5602 23.6884C18.5602 21.7751 20.2564 20.7101 22.1696 20.2959C22.7416 20.1578 23.2939 20.1578 23.8659 20.1578C24.359 20.1578 24.7929 20.1578 25.1479 20.2959C24.8521 19.4675 24.359 18.4024 21.3807 18.4024Z" fill="white"/>
<path d="M13.8264 16.43C14.5957 17.712 14.8915 18.0473 16.8047 18.0473C18.2249 18.0473 20.4142 18.0473 20.4142 18.0473L15.4438 11.7554C14.3195 10.4142 13.7475 10.1381 12.6824 10.1381H10L13.8264 16.43Z" fill="white"/>
</g>
</g>
<defs>
<clipPath id="clip0_1691_131">
<rect width="40" height="40" fill="white"/>
</clipPath>
<clipPath id="clip1_1691_131">
<rect width="20" height="20" fill="white" transform="translate(10 10)"/>
</clipPath>
</defs>
</svg>
