<svg width="40" height="40" viewBox="0 0 40 40" fill="none" xmlns="http://www.w3.org/2000/svg">
<g clip-path="url(#clip0_1812_930)">
<path d="M20 0C31.0457 0 40 8.9543 40 20C40 31.0457 31.0457 40 20 40C8.95431 40 7.90517e-06 31.0457 0 20C6.58765e-07 8.95431 8.95431 1.97595e-06 20 0Z" fill="#CCE0F3"/>
<path d="M26 6C30.4183 6 34 9.58172 34 14V26C34 30.4183 30.4183 34 26 34H14C9.58172 34 6 30.4183 6 26V14C6 9.58172 9.58172 6 14 6H26Z" fill="#0063C3"/>
<path d="M23.9726 19.4774H21.3607V20.619H22.7854C22.4475 21.3039 21.6164 21.587 20.9224 21.2491C20.2374 20.9112 19.9543 20.0801 20.2922 19.3861C20.5205 18.9112 21.0046 18.6098 21.5342 18.6098C21.9543 18.6007 22.347 18.8107 22.5753 19.1578H23.8174C23.6256 18.2902 22.6484 17.45 21.5434 17.45C20.4658 17.45 19.4155 18.1532 19.1963 19.1943V17.6327C17.8813 17.6327 17.0046 19.1121 16.8037 19.9888C16.5936 19.1121 15.726 17.6327 14.411 17.6327V22.3359H15.5525V19.6235C15.5525 19.6235 16.21 20.208 16.21 22.3267H17.3881C17.3881 20.208 18.0457 19.6235 18.0457 19.6235V22.3267H19.1872V20.692C19.4612 21.8792 20.4018 22.5459 21.5342 22.5459C22.6758 22.5459 23.6895 21.8975 23.9726 20.6281V22.3267C23.9726 22.3267 26.3379 22.3267 26.3014 22.3267V21.2126H25.0868V20.619H26.3014V19.4774H25.0868V18.8473H26.3014V17.6966H23.9726V19.4774ZM28.8128 19.6509C27.8174 18.2263 26.8493 17.7057 26.5845 17.7057V22.3359H27.7991V20.1441C27.7991 20.1441 28.6393 21.0573 28.8128 22.3359H30V17.6966H28.8128V19.6509ZM12.1553 18.1989C11.4977 18.692 11.0959 19.4226 10.7854 20.0893C10.4658 20.7559 10.1553 21.7514 10 22.3359H11.1872C11.2694 22.0071 11.4703 21.2948 11.5068 21.1669H12.9954V22.3359H14.1461V17.6235C13.0502 17.5139 12.4658 17.9706 12.1553 18.1989ZM12.9863 20.0893H11.9817C12.2192 19.724 12.6119 19.2491 12.9863 18.9934V20.0893Z" fill="white"/>
</g>
<defs>
<clipPath id="clip0_1812_930">
<rect width="40" height="40" fill="white"/>
</clipPath>
</defs>
</svg>
