<svg width="40" height="40" viewBox="0 0 40 40" fill="none" xmlns="http://www.w3.org/2000/svg">
<g clip-path="url(#clip0_1784_4218)">
<path d="M20 0C31.0457 0 40 8.9543 40 20C40 31.0457 31.0457 40 20 40C8.95431 40 7.90517e-06 31.0457 0 20C6.58765e-07 8.95431 8.95431 1.97595e-06 20 0Z" fill="#DDEBF2"/>
<path d="M26 6C30.4183 6 34 9.58172 34 14V26C34 30.4183 30.4183 34 26 34H14C9.58172 34 6 30.4183 6 26V14C6 9.58172 9.58172 6 14 6H26Z" fill="#569BBE"/>
<g clip-path="url(#clip1_1784_4218)">
<path d="M22.9348 15.5758C23.715 15.5759 24.3463 16.1929 24.3508 16.9559L24.3512 29.8894H22.9343V16.9559L17.0648 16.9546V22.981L22.93 22.9823L21.5676 24.3581H17.0648C16.2842 24.358 15.6537 23.7426 15.6492 22.981L15.6475 16.9538H14.2458V22.981C14.2458 24.5034 15.5052 25.7394 17.0652 25.7395H20.2043L18.8402 27.1188H17.0652C14.724 27.1187 12.8264 25.2651 12.8263 22.981L12.8302 16.9538H11.4138V22.981C11.4138 26.0277 13.9438 28.5092 17.0652 28.5093L17.4648 28.5114L16.1594 29.8371C12.6783 29.4041 10.0005 26.4948 10.0004 22.981L10 16.9559L10.0186 16.9533H10L11.3702 15.5732L22.9348 15.5758ZM22.9348 12.8164C25.2747 12.8165 27.1724 14.6696 27.1724 16.9559L27.1676 29.8894H25.7538V16.9559C25.7538 15.4321 24.494 14.1953 22.9348 14.1953L12.7343 14.1901L14.1011 12.8091L22.9348 12.8164ZM22.9343 10.0454C26.8357 10.0454 29.9987 13.1466 29.9987 16.9559L30 29.8894H28.584V16.9559C28.584 13.9079 26.0549 11.4273 22.9348 11.4272L15.4674 11.4255L16.8333 10.0445L22.9343 10.0454Z" fill="white"/>
</g>
</g>
<defs>
<clipPath id="clip0_1784_4218">
<rect width="40" height="40" fill="white"/>
</clipPath>
<clipPath id="clip1_1784_4218">
<rect width="20" height="20" fill="white" transform="translate(10 10)"/>
</clipPath>
</defs>
</svg>
