<svg width="40" height="40" viewBox="0 0 40 40" fill="none" xmlns="http://www.w3.org/2000/svg">
<g clip-path="url(#clip0_1812_942)">
<path d="M20 0C31.0457 0 40 8.9543 40 20C40 31.0457 31.0457 40 20 40C8.95431 40 7.90517e-06 31.0457 0 20C6.58765e-07 8.95431 8.95431 1.97595e-06 20 0Z" fill="#D0D6DE"/>
<path d="M26 6C30.4183 6 34 9.58172 34 14V26C34 30.4183 30.4183 34 26 34H14C9.58172 34 6 30.4183 6 26V14C6 9.58172 9.58172 6 14 6H26Z" fill="#16325B"/>
<path d="M18.547 13.3772C19.3163 12.2661 20.6836 12.1808 21.4526 13.2917C22.1365 14.4027 29.9981 26.7926 30 26.7956H27.1795L19.9999 15.3429L16.923 20.3002H22.5642L21.1112 22.6079H15.4702L12.8204 26.8814H10C10 26.8814 17.9488 14.3171 18.547 13.3772Z" fill="white"/>
</g>
<defs>
<clipPath id="clip0_1812_942">
<rect width="40" height="40" fill="white"/>
</clipPath>
</defs>
</svg>
