<svg width="40" height="40" viewBox="0 0 40 40" fill="none" xmlns="http://www.w3.org/2000/svg">
<g clip-path="url(#clip0_1782_3224)">
<path d="M20 0C31.0457 0 40 8.9543 40 20C40 31.0457 31.0457 40 20 40C8.95431 40 7.90517e-06 31.0457 0 20C6.58765e-07 8.95431 8.95431 1.97595e-06 20 0Z" fill="#F7E0DF"/>
<path d="M26 6C30.4183 6 34 9.58172 34 14V26C34 30.4183 30.4183 34 26 34H14C9.58172 34 6 30.4183 6 26V14C6 9.58172 9.58172 6 14 6H26Z" fill="#C9302C"/>
<path d="M27.4629 17.3599C28.6473 17.3599 29.6489 17.9382 29.9841 19.0105C29.9841 19.0105 30.1443 19.6581 29.4486 19.7383C28.9345 19.7383 28.8557 19.3176 28.8557 19.3176C28.6567 18.7421 28.1092 18.5311 27.4655 18.5311C26.6536 18.5311 25.9953 19.1881 25.9953 20C25.9953 20.8119 26.6536 21.4703 27.4655 21.4703C28.1012 21.4703 28.642 21.1885 28.8477 20.6223C28.8481 20.6209 28.974 20.2577 29.4299 20.2671C30.058 20.3324 29.9803 20.9213 29.9801 20.9227C29.6409 21.9884 28.642 22.6401 27.4629 22.6401C26.0046 22.6401 24.8228 21.4582 24.8228 20C24.8228 18.5418 26.0046 17.3599 27.4629 17.3599Z" fill="white"/>
<path d="M13.5868 17.6884C14.2839 17.4855 15.0117 17.416 15.7689 17.4788C15.9131 17.5002 16.0413 17.5896 16.1361 17.6764C16.263 17.8407 16.303 18.0477 16.2937 18.2613L16.2963 21.7867C16.2963 21.7867 16.3471 22.4037 15.7115 22.4037C15.0945 22.4037 15.0624 21.7667 15.0624 21.7667V18.9584C15.0624 18.7501 15.0624 18.6887 14.9289 18.678C14.2946 18.6366 13.683 18.9197 13.1502 19.1921C12.5052 19.5219 11.9029 20.2778 11.6305 20.9535C11.5985 21.071 11.6145 21.1711 11.7467 21.1711H13.9714C13.9735 21.1711 14.5897 21.1749 14.5897 21.7961C14.5897 22.439 13.9836 22.4171 13.9821 22.4171L10.3926 22.3984C10.1108 22.3984 10.008 22.1099 10 21.8629C10.008 21.3487 10.2083 20.7905 10.4247 20.3646C11.0576 19.1146 12.2942 18.065 13.5868 17.6884Z" fill="white"/>
<path d="M17.8881 17.6364C18.4049 17.4334 19.0112 17.4374 19.5547 17.5602C19.9166 17.6925 20.2291 17.8701 20.5349 18.1331L20.5923 18.1839L20.6524 18.1331C21.6085 17.3239 22.6114 17.3399 23.4634 17.7606C24.2566 18.1785 24.5397 18.7795 24.553 19.6568V21.8095C24.553 21.8109 24.5443 22.4171 23.9214 22.4171C23.3298 22.4171 23.3018 21.8135 23.3018 21.8135L23.2938 19.6862C23.2938 19.6862 23.2577 18.698 22.2695 18.698C21.2782 18.698 21.1987 19.6792 21.1985 19.6808V21.7747C21.1985 21.7747 21.1986 22.409 20.5696 22.409C19.9553 22.409 19.942 21.7747 19.942 21.7747V19.6875C19.9419 19.6856 19.9223 18.698 18.8723 18.698C17.828 18.698 17.8547 19.7022 17.8547 19.7022V21.8495C17.8546 21.8508 17.7807 22.4144 17.2311 22.4144C16.6596 22.4144 16.6022 21.8442 16.6022 21.8442L16.5982 19.6768C16.5982 18.8783 16.7517 18.0864 17.8881 17.6364Z" fill="white"/>
</g>
<defs>
<clipPath id="clip0_1782_3224">
<rect width="40" height="40" fill="white"/>
</clipPath>
</defs>
</svg>
