<svg width="40" height="40" viewBox="0 0 40 40" fill="none" xmlns="http://www.w3.org/2000/svg">
<g clip-path="url(#clip0_1782_884)">
<path d="M20 0C31.0457 0 40 8.9543 40 20C40 31.0457 31.0457 40 20 40C8.95431 40 7.90517e-06 31.0457 0 20C6.58765e-07 8.95431 8.95431 1.97595e-06 20 0Z" fill="#CDD2DB"/>
<path d="M26 6C30.4183 6 34 9.58172 34 14V26C34 30.4183 30.4183 34 26 34H14C9.58172 34 6 30.4183 6 26V14C6 9.58172 9.58172 6 14 6H26Z" fill="#071D49"/>
<path d="M29.3217 26.8084C28.0442 26.8084 27.5383 26.2984 27.3658 25.2768L27.0275 23.8267C26.6833 24.4267 24.9833 26.8092 21.24 26.8092H17.4083C11.6167 26.8084 10 22.8893 10 20.0001C10 16.7626 11.9558 13.1917 17.4033 13.1917H21.4908C25.6617 13.1917 27.9567 15.5692 28.4675 18.5509C28.8942 21.0176 30 26.8092 30 26.8092L29.3217 26.8084ZM20.8967 15.3151H17.6633C13.7483 15.3151 12.4708 17.7859 12.4708 20.0009C12.4708 22.2118 13.7483 24.6826 17.6675 24.6826H20.8967C24.9833 24.6826 26.0933 22.1284 26.0933 20.0009C26.0933 18.1293 25.0675 15.3192 20.8967 15.3192V15.3151Z" fill="white"/>
</g>
<defs>
<clipPath id="clip0_1782_884">
<rect width="40" height="40" fill="white"/>
</clipPath>
</defs>
</svg>
