<svg width="40" height="40" viewBox="0 0 40 40" fill="none" xmlns="http://www.w3.org/2000/svg">
<g clip-path="url(#clip0_1696_1732)">
<path d="M20 0C31.0457 0 40 8.9543 40 20C40 31.0457 31.0457 40 20 40C8.95431 40 7.90517e-06 31.0457 0 20C6.58765e-07 8.95431 8.95431 1.97595e-06 20 0Z" fill="#D9D9D9"/>
<path d="M26 6C30.4183 6 34 9.58172 34 14V26C34 30.4183 30.4183 34 26 34H14C9.58172 34 6 30.4183 6 26V14C6 9.58172 9.58172 6 14 6H26Z" fill="black"/>
<path d="M23.2457 24.5922H16.75V22.4269H23.2457V24.5922Z" fill="white"/>
<path d="M23.2457 17.1942H16.75V15.029H23.2457V17.1942Z" fill="white"/>
<path fill-rule="evenodd" clip-rule="evenodd" d="M22.6224 10.7165C23.6149 10.7165 24.499 10.906 25.2749 11.2849C26.0688 11.6638 26.6913 12.1961 27.1423 12.8817C27.5934 13.5674 27.819 14.3704 27.819 15.2907C27.819 15.9943 27.6836 16.6348 27.413 17.2122C27.1423 17.7896 26.7725 18.2769 26.3034 18.6739C25.8523 19.0528 25.3381 19.3414 24.7607 19.5399V19.6481C25.4463 19.7925 26.0597 20.0722 26.601 20.4872C27.1423 20.8842 27.5665 21.3984 27.8733 22.0299C28.18 22.6434 28.3333 23.3562 28.3333 24.1682C28.3333 25.323 28.0716 26.2792 27.5483 27.037C27.0431 27.7949 26.3575 28.3633 25.4915 28.7422C24.6434 29.1031 23.687 29.2835 22.6224 29.2835H12.5V10.7165H22.6224ZM16.0185 18.2948H16.0282V21.2451H16.0185V26.2792H22.1624C22.9021 26.2792 23.5066 26.0807 23.9757 25.6838C24.4629 25.2688 24.7064 24.6283 24.7064 23.7622C24.7064 23.257 24.6073 22.8148 24.4088 22.4359C24.2104 22.057 23.9035 21.7683 23.4885 21.5698C23.0915 21.3533 22.5773 21.2451 21.9458 21.2451H17.8326V18.2948H21.7023C22.2436 18.2948 22.6947 18.1957 23.0556 17.9972C23.4345 17.7988 23.714 17.5281 23.8945 17.1853C24.093 16.8424 24.1923 16.4635 24.1923 16.0485C24.1923 15.2547 23.9758 14.6682 23.5428 14.2893C23.1278 13.9104 22.5773 13.7208 21.8917 13.7208H16.0185V18.2948Z" fill="white"/>
</g>
<defs>
<clipPath id="clip0_1696_1732">
<rect width="40" height="40" fill="white"/>
</clipPath>
</defs>
</svg>
