<svg width="40" height="40" viewBox="0 0 40 40" fill="none" xmlns="http://www.w3.org/2000/svg">
<g clip-path="url(#clip0_1767_690)">
<path d="M20 0C31.0457 0 40 8.9543 40 20C40 31.0457 31.0457 40 20 40C8.95431 40 7.90517e-06 31.0457 0 20C6.58765e-07 8.95431 8.95431 1.97595e-06 20 0Z" fill="#D9F1F9"/>
<path d="M26 6C30.4183 6 34 9.58172 34 14V26C34 30.4183 30.4183 34 26 34H14C9.58172 34 6 30.4183 6 26V14C6 9.58172 9.58172 6 14 6H26Z" fill="#00A1D6"/>
<g clip-path="url(#clip1_1767_690)">
<path fill-rule="evenodd" clip-rule="evenodd" d="M20.7746 16.6607C20.8804 16.6786 21.711 16.4913 21.7467 16.5537C21.799 16.6314 22.1723 19.3031 22.0741 19.3222C21.9786 19.3401 21.2881 19.498 21.2881 19.498C21.2333 19.1349 20.7823 16.8888 20.7746 16.6607ZM23.1787 16.4034C23.1787 16.4034 23.366 18.1182 23.4731 19.2076C23.403 19.2152 22.65 19.27 22.4627 19.2776L22.0996 16.4034C22.4551 16.3333 22.8258 16.3333 23.1787 16.4034ZM21.3836 20.3924C21.3836 20.3924 23.0208 19.9758 23.6119 20.1797C23.9139 21.2664 24.463 27.3704 24.5152 27.6163C24.1445 27.6609 22.9227 27.7666 22.8258 27.7959C22.7456 27.3334 21.3836 20.6829 21.3836 20.3924ZM27.4443 16.7308C27.5398 16.7563 28.4074 16.6416 28.4176 16.704C28.4355 16.9168 28.5234 19.4802 28.4253 19.4904C28.3284 19.498 27.6392 19.5605 27.6392 19.5605C27.6214 19.2076 27.4264 16.9691 27.4443 16.7308ZM29.8599 16.7308C29.8599 16.7308 29.842 18.4444 29.8599 19.5337C29.7796 19.5426 29.0368 19.498 28.8508 19.498L28.7807 16.6607C29.1413 16.6416 29.5044 16.6684 29.8599 16.7308ZM27.6392 20.4701C27.6392 20.4701 29.3095 20.2497 29.8751 20.5147C30 21.7888 29.9822 27.7233 30 27.9717C29.6203 27.9717 28.4074 27.9896 28.3106 28.0061C28.2928 27.5462 27.6124 20.7632 27.6392 20.4701ZM25.9842 13.0679C25.9766 13.3431 26.5932 21.8066 27.099 27.1054C26.2403 27.0506 25.481 27.0328 25.481 27.0328C25.4542 26.4938 24.7203 18.0928 23.7546 13.1749C23.7546 13.1749 25.7714 12.8297 25.9842 13.0679ZM16.2887 28.6699C13.7228 29.1655 12.2283 29.0063 12.2283 29.0063C11.2919 17.6672 10 12.2016 10 12.2016C11.0791 11.8053 13.0768 10.8473 13.2641 10.9823C13.2374 11.3874 13.1393 13.8464 13.2565 16.3779C13.389 19.3222 13.733 22.3646 13.733 22.3646C16.5091 21.8614 21.446 23.4247 21.6333 24.8044C21.8869 26.6289 18.8546 28.1743 16.2887 28.6699ZM18.2163 25.2822C17.9335 25.1064 15.272 24.1152 15.165 24.17L15.5982 27.2901C15.5982 27.2901 18.1717 25.4771 18.2163 25.2822Z" fill="white"/>
</g>
</g>
<defs>
<clipPath id="clip0_1767_690">
<rect width="40" height="40" fill="white"/>
</clipPath>
<clipPath id="clip1_1767_690">
<rect width="20" height="20" fill="white" transform="translate(10 10)"/>
</clipPath>
</defs>
</svg>
