<svg width="40" height="40" viewBox="0 0 40 40" fill="none" xmlns="http://www.w3.org/2000/svg">
<g clip-path="url(#clip0_1691_60)">
<path d="M20 0C31.0457 0 40 8.9543 40 20C40 31.0457 31.0457 40 20 40C8.95431 40 7.90517e-06 31.0457 0 20C6.58765e-07 8.95431 8.95431 1.97595e-06 20 0Z" fill="#D9E1FF"/>
<path d="M26 6C30.4183 6 34 9.58172 34 14V26C34 30.4183 30.4183 34 26 34H14C9.58172 34 6 30.4183 6 26V14C6 9.58172 9.58172 6 14 6H26Z" fill="#0037FF"/>
<g clip-path="url(#clip1_1691_60)">
<path d="M29.9834 19.9878L23.6156 18.6496C23.5542 18.6367 23.5186 18.5736 23.538 18.5137L24.5778 15.4553C24.5842 15.4375 24.5664 15.423 24.5503 15.4278L21.5006 16.5071C21.4407 16.5282 21.3761 16.4926 21.3631 16.4295L20.0243 10.0182C20.0194 9.99393 19.9838 9.99393 19.979 10.0182L18.611 16.444C18.598 16.5055 18.5334 16.5411 18.4735 16.5201L15.3867 15.4278C15.3705 15.4213 15.3543 15.4375 15.3592 15.4553L16.4119 18.5477C16.4313 18.6075 16.3957 18.6707 16.3342 18.6836L10.0182 19.9878C9.99394 19.9927 9.99394 20.0283 10.0182 20.0332L13.1342 20.682L15.2525 19.8665L15.7246 19.6545L16.8193 19.2273C17.0862 19.5235 17.5211 19.5671 17.6586 19.5736C17.5502 19.4571 17.4759 19.3681 17.45 19.2839C17.3772 19.1286 17.3853 19.004 17.3853 18.9571C17.3917 18.7726 17.4872 18.3842 17.8898 18.2499C18.425 18.0703 18.8131 18.7176 18.8131 18.7176L21.1836 18.8859L21.1254 19.2338C21.119 19.2661 21.1432 19.2985 21.1772 19.3001L22.8734 19.4474C22.8702 19.682 22.8265 19.915 22.7441 20.1351L22.7409 20.1448L22.6907 20.7468C22.6761 20.9118 22.6357 21.0737 22.5662 21.2258C22.466 21.4491 22.3107 21.6432 22.115 21.7921C21.2694 22.4362 18.9037 24.3958 19.1672 26.0285L19.979 29.9818C19.9838 30.0061 20.0194 30.0061 20.0243 29.9818L21.3211 23.6385C21.334 23.577 21.3987 23.5398 21.4585 23.5608L24.5454 24.6531C24.5616 24.6596 24.5778 24.6434 24.5729 24.6256L23.517 21.5219C23.4976 21.462 23.5332 21.3989 23.5946 21.386L29.9818 20.0316C30.0061 20.0267 30.0061 19.9911 29.9818 19.9862" fill="white"/>
</g>
</g>
<defs>
<clipPath id="clip0_1691_60">
<rect width="40" height="40" fill="white"/>
</clipPath>
<clipPath id="clip1_1691_60">
<rect width="20" height="20" fill="white" transform="translate(10 10)"/>
</clipPath>
</defs>
</svg>
