<svg width="40" height="40" viewBox="0 0 40 40" fill="none" xmlns="http://www.w3.org/2000/svg">
<g clip-path="url(#clip0_1779_654)">
<path d="M20 0C31.0457 0 40 8.9543 40 20C40 31.0457 31.0457 40 20 40C8.95431 40 7.90517e-06 31.0457 0 20C6.58765e-07 8.95431 8.95431 1.97595e-06 20 0Z" fill="#D9D9D9"/>
<path d="M26 6C30.4183 6 34 9.58172 34 14V26C34 30.4183 30.4183 34 26 34H14C9.58172 34 6 30.4183 6 26V14C6 9.58172 9.58172 6 14 6H26Z" fill="black"/>
<path d="M19.106 18.1154C17.8119 17.0734 16.4476 16.5931 14.7085 16.3461C13.1386 16.1329 12.1994 15.8257 10.8276 14.8727L10 16.1041C11.2263 17.0132 12.3799 17.4646 13.9335 17.7317C15.0433 17.9172 15.9072 17.9335 17.0483 18.5392C16.8226 18.8339 16.6169 19.2577 16.4966 19.5436C15.9185 19.2088 15.0759 18.9505 13.9498 18.9379V20.3962C14.4991 20.4238 14.9906 20.489 15.6527 20.7712C16.4552 21.1223 17.0245 21.6476 17.0245 21.6476C17.6665 19.3981 19.106 18.1154 19.106 18.1154ZM25.8884 17.7643C27.5636 17.526 28.7661 17.0132 30 16.1041L29.1687 14.8727C27.7969 15.8257 26.8539 16.1329 25.2915 16.3461C23.5524 16.5931 22.1241 17.1135 20.8213 18.1467C18.8075 19.7342 17.8596 22.0589 17.8596 24.405V25.1273H21.9912V24.405C21.9712 22.2445 23.605 21.1987 23.605 21.1987C24.1906 20.8075 25.0696 20.3674 26.0502 20.4038V18.9429C24.9492 18.9379 23.8069 19.2853 22.7298 20.0251C21.5436 20.9003 20.8088 22.2169 20.6119 23.6702H19.3931C20.0627 18.3737 24.9567 17.8972 25.8884 17.7643Z" fill="white"/>
</g>
<defs>
<clipPath id="clip0_1779_654">
<rect width="40" height="40" fill="white"/>
</clipPath>
</defs>
</svg>
