<svg width="40" height="40" viewBox="0 0 40 40" fill="none" xmlns="http://www.w3.org/2000/svg">
<g clip-path="url(#clip0_821_4069)">
<path d="M20 0C31.0457 0 40 8.9543 40 20C40 31.0457 31.0457 40 20 40C8.95431 40 7.90517e-06 31.0457 0 20C6.58765e-07 8.95431 8.95431 1.97595e-06 20 0Z" fill="#D5D6E9"/>
<path d="M26 6C30.4183 6 34 9.58172 34 14V26C34 30.4183 30.4183 34 26 34H14C9.58172 34 6 30.4183 6 26V14C6 9.58172 9.58172 6 14 6H26Z" fill="#2E3192"/>
<path d="M24.3689 15.2749V15.4652H24.0829C23.7969 15.4652 23.6057 15.5603 23.4148 15.6565C23.3191 15.7517 23.224 15.8478 23.1283 16.0393C23.0331 16.1345 23.0332 16.4201 23.0332 16.8982V19.5719H26.3733V16.8988C26.3733 16.4214 26.3733 16.1351 26.2776 15.9436C26.2776 15.8484 26.1821 15.7523 25.9911 15.6571C25.8003 15.5608 25.6095 15.4657 25.3235 15.4657H25.037V15.2749H30V15.4652H29.6178C29.3323 15.4652 29.1411 15.5602 28.9502 15.6565C28.8545 15.7517 28.7589 15.8478 28.6637 16.0393V23.9635C28.7589 24.1544 28.8545 24.2505 29.0459 24.3457C29.1405 24.4414 29.4269 24.4414 29.6178 24.4414H30V24.7279H25.037V24.4414H25.3235C25.6094 24.4414 25.8958 24.4412 25.9911 24.3457C26.0869 24.2505 26.2776 24.1544 26.2776 23.9635C26.3732 23.8676 26.3733 23.5822 26.3733 23.1045V20.1444H23.0332V23.1051C23.0332 23.5824 23.0332 23.8683 23.1283 23.964C23.1283 24.155 23.3191 24.251 23.4148 24.3462C23.6057 24.442 23.7969 24.4419 24.0829 24.4419H24.3689V24.7284H19.4059V24.4419H19.7876C20.074 24.4419 20.2649 24.4419 20.4557 24.3462C20.5509 24.251 20.6465 24.155 20.7417 23.964V15.9436C20.6465 15.8484 20.5509 15.7523 20.36 15.6571C20.2648 15.5609 19.9784 15.4658 19.7876 15.4657H19.4059V15.2749H24.3689ZM14.4845 15.2771C15.5341 15.2771 16.2968 15.3722 16.7744 15.563C17.2519 15.7539 17.6332 16.0408 17.8242 16.422C18.1102 16.8044 18.2063 17.1857 18.2063 17.6632C18.2063 18.045 18.1103 18.5225 17.7285 18.8097C17.4423 19.1914 16.8702 19.4772 16.0116 19.6692C16.8698 19.9547 17.5374 20.1459 17.9193 20.4331C18.3963 20.9095 18.6831 21.3874 18.6831 22.0553C18.6831 22.8189 18.3963 23.3914 17.8242 23.8689C17.1563 24.4411 16.1068 24.7278 14.771 24.7279H10V24.4414C10.3818 24.4414 10.6686 24.4414 10.859 24.3457C11.0497 24.2506 11.1453 24.1548 11.1455 24.0597C11.2406 23.8688 11.3363 23.582 11.3363 23.0094V16.9004C11.3363 16.4229 11.2406 16.0416 11.1455 15.9458C11.1455 15.85 11.0499 15.7539 10.859 15.6587C10.6686 15.563 10.3818 15.4679 10 15.4679V15.2771H14.4845ZM13.4348 23.3916C13.4348 23.6769 13.5299 23.8682 13.6256 23.964C13.8165 24.1544 14.0071 24.1549 14.198 24.1549C14.5799 24.1549 14.8665 24.0592 15.2478 23.964C15.5344 23.7731 15.7256 23.4868 15.9165 23.2008C16.1074 22.9141 16.2024 22.5328 16.2025 22.1504C16.2025 21.7687 16.1073 21.3862 15.9165 21.005C15.7256 20.6237 15.4388 20.4326 15.057 20.2417C14.6763 20.1454 14.1984 20.0503 13.4348 20.0503V23.3916ZM13.4353 19.4773C14.1032 19.4773 14.58 19.4774 14.9619 19.2865C15.2479 19.0956 15.4385 18.9044 15.63 18.6178C15.8209 18.4269 15.9171 18.045 15.9171 17.6632C15.917 17.1857 15.8209 16.9 15.63 16.6128C15.5348 16.3275 15.2484 16.1366 14.9624 16.0415C14.6763 15.85 14.1032 15.7544 13.4353 15.7544V19.4773Z" fill="white"/>
</g>
<defs>
<clipPath id="clip0_821_4069">
<rect width="40" height="40" fill="white"/>
</clipPath>
</defs>
</svg>
