<svg width="40" height="40" viewBox="0 0 40 40" fill="none" xmlns="http://www.w3.org/2000/svg">
<g clip-path="url(#clip0_1696_1730)">
<path d="M20 0C31.0457 0 40 8.9543 40 20C40 31.0457 31.0457 40 20 40C8.95431 40 7.90517e-06 31.0457 0 20C6.58765e-07 8.95431 8.95431 1.97595e-06 20 0Z" fill="#FAF4DA"/>
<path d="M26 6C30.4183 6 34 9.58172 34 14V26C34 30.4183 30.4183 34 26 34H14C9.58172 34 6 30.4183 6 26V14C6 9.58172 9.58172 6 14 6H26Z" fill="#DEB406"/>
<path fill-rule="evenodd" clip-rule="evenodd" d="M28.8905 19.1828C29.1526 19.1828 29.374 19.2127 29.5532 19.3091C29.9864 19.5386 30 20.098 30 20.2909V20.7879C30 21.1124 29.9837 21.3596 29.7678 21.5932C29.5111 21.8675 28.9326 21.8281 28.7249 21.8281L26.7939 21.8308V19.1828H28.8905ZM27.1442 21.5212H28.6475C28.9652 21.5212 29.2762 21.5497 29.4582 21.403C29.617 21.274 29.6157 21.0337 29.6157 20.7879V20.3303C29.6157 20.2053 29.6306 19.7368 29.4039 19.5956C29.2762 19.5114 29.1309 19.491 28.877 19.491H27.1442V21.5212Z" fill="white"/>
<path d="M18.7398 19.1828C19.2124 19.1828 19.6483 19.1719 19.9402 19.3919C20.1168 19.525 20.1752 19.7871 20.1752 19.8971V20.0396H19.799V19.8971C19.799 19.7952 19.7637 19.7232 19.6809 19.6621C19.5546 19.5684 19.2477 19.5168 18.9666 19.5168H18.2605C18.1097 19.5168 17.663 19.525 17.5489 19.6431C17.4104 19.7898 17.4036 20.0953 17.4036 20.208V20.686C17.4036 20.9427 17.4036 21.2401 17.519 21.3392C17.6562 21.456 17.8911 21.4913 18.1369 21.4913H19.1241C19.3577 21.4913 19.6008 21.4886 19.7243 21.3976C19.8303 21.3175 19.8493 21.1437 19.8493 20.9726V20.8123H18.5144V20.4864H20.2105V21.0391C20.2105 21.2482 20.1684 21.4193 20.0584 21.5578C19.8058 21.877 19.2708 21.8281 19.1377 21.8281H18.2985C18.1342 21.8281 17.5136 21.8199 17.3099 21.6176C17.0967 21.4003 17.0695 21.1912 17.0695 20.9006V20.1143C17.0695 19.9079 17.0885 19.563 17.3452 19.3593C17.572 19.1801 18.107 19.1828 18.4479 19.1828H18.7398Z" fill="white"/>
<path fill-rule="evenodd" clip-rule="evenodd" d="M20.7129 19.3838C20.9275 19.1665 21.5019 19.1828 21.874 19.1828H22.4701C22.9142 19.1828 23.3487 19.1964 23.5375 19.3403C23.7167 19.4747 23.7819 19.7925 23.7819 20.0519V20.8707C23.7819 21.2021 23.7276 21.5307 23.5212 21.6868C23.3188 21.8389 22.7458 21.8281 22.5557 21.8281H21.8251C21.3661 21.8281 20.8813 21.8335 20.6993 21.6217C20.5187 21.4139 20.5147 21.0961 20.5147 20.7499V20.189C20.5147 19.9256 20.5282 19.5684 20.7129 19.3838ZM21.8713 19.491C21.6092 19.491 21.0714 19.491 20.9723 19.6214C20.8256 19.8088 20.8447 20.1089 20.8447 20.4131V20.8069C20.8447 21.0282 20.8677 21.2645 20.9628 21.3677C21.0551 21.475 21.1814 21.5212 21.6255 21.5212H22.6602C22.8938 21.5212 23.126 21.5103 23.2618 21.4302C23.4356 21.3284 23.4397 21.0391 23.4397 20.7797V20.1727C23.4397 19.9514 23.4438 19.7368 23.3026 19.5983C23.1926 19.491 22.8178 19.491 22.6657 19.491H21.8713Z" fill="white"/>
<path fill-rule="evenodd" clip-rule="evenodd" d="M12.2026 19.1828C12.2882 19.1828 12.7241 19.1896 12.8952 19.3091C13.1152 19.468 13.1926 19.6825 13.1898 19.8224V19.9677C13.1898 20.0845 13.1871 20.1999 13.0758 20.3194C12.9848 20.4185 12.8897 20.4783 12.8612 20.4837C12.8734 20.4837 13.0296 20.5489 13.1097 20.6236C13.2374 20.7431 13.2931 20.8952 13.2931 21.0405V21.1749C13.2971 21.2835 13.2673 21.4737 13.1274 21.623C12.9386 21.8254 12.5652 21.8281 12.443 21.8281H10V19.1828H12.2026ZM10.8066 21.217H12.2936C12.3669 21.217 12.4212 21.2048 12.4824 21.1654C12.5435 21.1315 12.5611 21.0961 12.5584 21.0418V20.9861C12.5611 20.906 12.5217 20.8205 12.447 20.792C12.4049 20.7743 12.3506 20.7607 12.2936 20.7607H10.8066V21.217ZM10.8053 20.2488H12.1877C12.2596 20.2488 12.3303 20.2352 12.3873 20.1931C12.4362 20.1578 12.4538 20.1089 12.4511 20.0464V20.0043C12.4538 19.9351 12.4131 19.859 12.3533 19.8251C12.3085 19.7993 12.2447 19.7952 12.1877 19.7952H10.8053V20.2488Z" fill="white"/>
<path d="M15.7998 19.1692C15.994 19.1692 16.2928 19.1896 16.4666 19.343C16.673 19.5223 16.7015 19.7504 16.7015 20.0329C16.7042 20.2814 16.6988 20.4674 16.5331 20.6494C16.3498 20.8517 15.9967 20.849 15.9003 20.8544L14.6619 20.9427C14.5356 20.9522 14.4134 20.9699 14.3848 21.1152C14.359 21.2428 14.4269 21.2224 14.4921 21.2224H16.7355V21.8281H13.6176V20.9957C13.6176 20.8639 13.6651 20.7091 13.7751 20.5815C13.9055 20.4348 14.2219 20.4036 14.5179 20.3791L15.6858 20.2787C15.7632 20.2705 15.8487 20.2556 15.8827 20.2121C15.9112 20.17 15.9288 20.0926 15.9275 20.0084C15.9275 19.9256 15.9193 19.8536 15.8542 19.8074C15.8053 19.7708 15.7197 19.7599 15.6342 19.7599H14.7189C14.6157 19.7599 14.5274 19.7681 14.4595 19.8278C14.4052 19.8767 14.3821 19.9283 14.3821 20.0016V20.1768H13.6285V19.7966C13.6285 19.6649 13.6746 19.4802 13.8118 19.358C14.0087 19.1801 14.5709 19.1692 14.613 19.1692H15.7998Z" fill="white"/>
<path d="M24.5003 21.5198H26.5318V21.8281H24.1228V19.1828H24.5003V21.5198Z" fill="white"/>
</g>
<defs>
<clipPath id="clip0_1696_1730">
<rect width="40" height="40" fill="white"/>
</clipPath>
</defs>
</svg>
