<svg width="40" height="40" viewBox="0 0 40 40" fill="none" xmlns="http://www.w3.org/2000/svg">
<g clip-path="url(#clip0_1767_697)">
<path d="M20 0C31.0457 0 40 8.9543 40 20C40 31.0457 31.0457 40 20 40C8.95431 40 7.90517e-06 31.0457 0 20C6.58765e-07 8.95431 8.95431 1.97595e-06 20 0Z" fill="#E5F7F6"/>
<path d="M26 6C30.4183 6 34 9.58172 34 14V26C34 30.4183 30.4183 34 26 34H14C9.58172 34 6 30.4183 6 26V14C6 9.58172 9.58172 6 14 6H26Z" fill="#53CAC4"/>
<g clip-path="url(#clip1_1767_697)">
<path fill-rule="evenodd" clip-rule="evenodd" d="M23.9315 20.8353C24.0339 20.8392 24.2028 20.8307 24.2175 20.9696C24.2468 21.2731 24.2594 21.5893 24.1623 21.8826C24.0537 21.8799 23.9467 21.8773 23.8389 21.8746C23.8316 23.519 23.841 25.1624 23.8342 26.8066C24.0372 26.7774 24.248 26.6861 24.4517 26.758C24.5275 26.9897 24.473 27.2378 24.4651 27.4754C24.4411 27.5719 24.473 27.7176 24.3632 27.7682C24.1962 27.8388 24.0133 27.8541 23.8369 27.888C23.8362 28.3883 23.8342 28.8894 23.8396 29.3905C23.4636 29.3852 23.0875 29.3865 22.711 29.3911C22.7011 28.9606 22.7083 28.5301 22.7037 28.099C22.1294 28.2035 21.5578 28.3231 20.9856 28.4377C20.8486 28.4556 20.7022 28.4982 20.5691 28.4423C20.46 28.1522 20.4406 27.8381 20.3721 27.538C20.3961 27.5001 20.4433 27.4241 20.4665 27.3863C20.5106 27.3803 20.5989 27.367 20.6436 27.3602C20.6403 25.5517 20.647 23.7438 20.6403 21.9351C20.3535 21.7468 20.4552 21.3715 20.4486 21.0828C20.436 20.9517 20.5205 20.8227 20.6635 20.8406C21.7528 20.8312 22.8421 20.8419 23.9315 20.8353ZM22.5201 25.9963C22.327 25.9963 22.1349 25.9962 21.9418 25.9969C21.9411 26.3776 21.9379 26.7587 21.9471 27.1393C22.1428 27.1074 22.3384 27.0747 22.5346 27.043C22.5393 26.6943 22.5407 26.3449 22.5201 25.9963ZM22.5354 23.9553C22.3377 23.956 22.14 23.956 21.9432 23.9581C21.9404 24.2921 21.9404 24.6255 21.9418 24.9594C22.1327 24.9609 22.3244 24.9667 22.5148 24.9429C22.5579 24.6156 22.5327 24.2848 22.5354 23.9553ZM22.5307 21.8767C22.3364 21.8773 22.1414 21.878 21.9471 21.8792C21.9384 22.222 21.9404 22.5654 21.9425 22.9087C22.14 22.9107 22.3372 22.9121 22.5354 22.9126C22.538 22.5673 22.5387 22.222 22.5307 21.8767Z" fill="white"/>
<path d="M24.527 25.1651C26.3136 25.1764 28.1002 25.1591 29.8868 25.1743C29.9088 25.2024 29.9527 25.2597 29.9754 25.2875C29.964 25.5784 30.016 25.8791 29.9401 26.1639C29.8316 26.2225 29.7046 26.2172 29.5861 26.2211C28.6213 26.2157 27.6564 26.2198 26.6916 26.2184C26.6723 26.3469 26.6529 26.4753 26.6336 26.6038C27.3728 26.5898 28.1122 26.6038 28.8507 26.5944C28.9985 26.5985 29.1522 26.5857 29.2947 26.6329C29.4304 26.6723 29.3804 26.834 29.393 26.9397C29.3666 27.4295 29.3499 27.9192 29.3107 28.4082C29.2841 28.7564 29.0717 29.0923 28.7384 29.2188C28.1168 29.4603 27.4362 29.3632 26.786 29.3838C26.5186 29.3698 26.2384 29.4257 25.9795 29.3478C25.8471 29.0944 25.8077 28.8016 25.738 28.5268C25.7047 28.4276 25.7293 28.2533 25.861 28.256C26.3248 28.2352 26.7899 28.2739 27.2552 28.264C27.4674 28.2533 27.7009 28.2979 27.8947 28.188C28.0762 28.0769 28.0609 27.8388 28.1042 27.6564C27.2005 27.6498 26.297 27.6544 25.3925 27.6557C25.2834 27.6525 25.1431 27.6591 25.092 27.5373C25.1285 27.0914 25.2589 26.6583 25.334 26.2177C24.9615 26.2072 24.5848 26.2477 24.2141 26.1971C24.1955 26.1779 24.1575 26.1393 24.1391 26.1206C24.0985 25.8271 24.0931 25.5218 24.1457 25.2304C24.256 25.1518 24.3992 25.1718 24.527 25.1651Z" fill="white"/>
<path fill-rule="evenodd" clip-rule="evenodd" d="M14.1604 20.2157C14.5417 20.1757 14.9303 20.1592 15.3116 20.2025C15.4341 20.1938 15.4288 20.3282 15.4414 20.4148C15.452 20.5544 15.4493 20.6955 15.4515 20.8366C16.6139 20.8358 17.7763 20.8412 18.9388 20.8339C19.0725 20.852 19.2695 20.7908 19.3508 20.9318C19.3934 21.2138 19.3866 21.5066 19.3561 21.7901C19.2596 21.9191 19.0779 21.8833 18.9382 21.8959C17.7749 21.8867 16.6112 21.9026 15.4474 21.8874C15.4467 22.0982 15.444 22.3099 15.4401 22.5214C16.4801 22.5288 17.5208 22.5228 18.5615 22.5247C18.5608 24.4551 18.5628 26.3856 18.5608 28.3158C18.8417 28.3158 19.1238 28.2986 19.404 28.3286C19.5083 28.3305 19.5609 28.4457 19.5557 28.5374C19.5676 28.7789 19.5809 29.0252 19.5343 29.2633C19.4771 29.3932 19.3188 29.3659 19.2049 29.3744C16.1767 29.3678 13.1484 29.3758 10.1202 29.3705C10.0929 29.3439 10.0382 29.2906 10.0109 29.264C10.0409 28.9592 9.9257 28.6047 10.0941 28.3339C10.4028 28.2945 10.7157 28.3231 11.0257 28.3152C11.0218 26.3848 11.0305 24.4544 11.0211 22.5247C12.0611 22.5221 13.1018 22.5308 14.1418 22.5201C14.1412 22.3065 14.1398 22.0936 14.1371 21.8806C13.0553 21.9106 11.972 21.8826 10.8899 21.8959C10.6804 21.8913 10.4614 21.9159 10.2611 21.84C10.158 21.5414 10.2279 21.2159 10.2054 20.9057C10.3377 20.86 10.4754 20.83 10.6165 20.8346C11.789 20.8412 12.9621 20.8346 14.1352 20.8387C14.1393 20.6304 14.1465 20.4227 14.1604 20.2157ZM17.2653 27.7536C15.619 27.7435 13.9721 27.7508 12.3253 27.7496C12.3246 27.9378 12.324 28.1263 12.3219 28.3152C13.9709 28.3218 15.6197 28.3184 17.2692 28.3165C17.266 28.1289 17.2653 27.9412 17.2653 27.7536ZM12.3286 26.3462C12.326 26.5366 12.3245 26.7268 12.324 26.9172C13.9721 26.9165 15.6204 26.9158 17.2687 26.9172C17.266 26.7282 17.266 26.5392 17.2692 26.3508C15.6223 26.3495 13.9755 26.3582 12.3286 26.3462ZM12.3272 24.9483C12.3246 25.1385 12.324 25.3282 12.3214 25.5191C13.9702 25.5164 15.619 25.5258 17.2679 25.5145C17.2653 25.3255 17.264 25.1371 17.264 24.9495C15.6184 24.9509 13.9728 24.9534 12.3272 24.9483ZM17.2687 23.5821C15.6197 23.5848 13.9709 23.5802 12.3219 23.5848C12.324 23.7624 12.326 23.94 12.3286 24.1184C13.9741 24.1191 15.6197 24.1191 17.2653 24.1178C17.2653 23.9395 17.266 23.7605 17.2687 23.5821Z" fill="white"/>
<path fill-rule="evenodd" clip-rule="evenodd" d="M26.7149 20.2244C26.9982 20.2277 27.2857 20.2004 27.5659 20.2517C27.6863 20.4307 27.6072 20.6696 27.6537 20.8718C27.6484 20.9689 27.7701 21.0016 27.8473 21.0035C28.2985 21.0296 28.751 20.9824 29.2021 21.0182C29.3431 21.0269 29.4816 21.1281 29.5036 21.2731C29.5442 21.4961 29.5261 21.7243 29.5282 21.9491C29.5261 22.7483 29.5248 23.5468 29.5302 24.3453C29.5268 24.4578 29.5302 24.573 29.5009 24.6833C29.4728 24.7925 29.3431 24.7678 29.2587 24.7806C27.8127 24.7831 26.3674 24.7758 24.9214 24.7838C24.7944 24.7792 24.6593 24.7891 24.5422 24.7298C24.4917 24.5616 24.5011 24.3833 24.4997 24.2096C24.5076 23.278 24.4977 22.3464 24.503 21.4148C24.4917 21.2566 24.5781 21.0855 24.7346 21.0335C25.2829 20.9297 25.8663 21.1187 26.3994 20.927C26.3994 20.7242 26.3747 20.5166 26.418 20.3163C26.4792 20.2125 26.6137 20.2345 26.7149 20.2244ZM25.5357 23.3619C25.535 23.5388 25.5343 23.7157 25.5343 23.8935C25.8218 23.8996 26.1092 23.8989 26.3967 23.8982C26.3954 23.7205 26.3947 23.5427 26.3928 23.3658C26.1073 23.3639 25.8211 23.3644 25.5357 23.3619ZM27.639 23.3624C27.6365 23.5408 27.6351 23.7186 27.6344 23.8967C27.9211 23.8989 28.2086 23.8989 28.4955 23.8967C28.4994 23.7191 28.5001 23.5415 28.5015 23.3632C28.2141 23.3624 27.9266 23.3651 27.639 23.3624ZM28.5015 22.0551C28.2126 22.0517 27.9238 22.0517 27.6358 22.0529C27.6351 22.2281 27.6351 22.4035 27.6358 22.5787C27.9238 22.5787 28.2134 22.5806 28.5021 22.5794C28.5008 22.4043 28.5001 22.23 28.5015 22.0551ZM26.3967 22.059C26.1085 22.0503 25.8211 22.051 25.5331 22.0556C25.535 22.2179 25.5357 22.3803 25.5396 22.5427C25.8251 22.5388 26.1107 22.538 26.3962 22.538C26.3962 22.3783 26.3962 22.2186 26.3967 22.059Z" fill="white"/>
<path fill-rule="evenodd" clip-rule="evenodd" d="M17.1654 11.6805C17.8443 11.5462 18.5789 11.5887 19.2003 11.9128C19.9521 12.3006 20.4632 13.0793 20.601 13.9056C20.7022 14.5118 20.6795 15.1452 20.4972 15.7336C20.2456 16.5348 19.6274 17.2361 18.8243 17.5095C18.2654 17.7052 17.6505 17.7231 17.0736 17.6041C16.1181 17.417 15.329 16.6345 15.0733 15.7036C14.8797 14.9956 14.8957 14.2277 15.1234 13.5296C15.4208 12.6142 16.2093 11.8588 17.1654 11.6805ZM18.7219 12.9827C18.3658 12.6919 17.8707 12.636 17.4337 12.7398C16.7927 12.8869 16.3916 13.5177 16.2977 14.1359C16.1893 14.7987 16.2645 15.5353 16.6891 16.0797C17.222 16.7855 18.4398 16.7669 18.9588 16.055C19.324 15.5778 19.3859 14.9424 19.3407 14.3615C19.3034 13.8519 19.1272 13.3181 18.7219 12.9827Z" fill="white"/>
<path d="M28.0542 11.6185C28.6199 11.5839 29.1895 11.6539 29.7312 11.8196C29.7445 12.1883 29.7458 12.5576 29.7312 12.9261C29.292 12.7911 28.8614 12.5881 28.3903 12.6041C28.0396 12.6067 27.6051 12.6568 27.4101 12.992C27.2518 13.2462 27.3929 13.5729 27.6278 13.7234C28.2293 14.1446 28.9998 14.2869 29.5348 14.8106C30.0132 15.2584 30.1097 16.0049 29.8834 16.6013C29.7378 16.9984 29.3937 17.2939 29.0092 17.4523C28.4297 17.6972 27.7834 17.6965 27.1666 17.6546C26.7913 17.608 26.3962 17.5508 26.0693 17.3471C26.0274 16.9793 26.0287 16.6019 26.072 16.234C26.213 16.2007 26.3268 16.3098 26.446 16.3664C26.8965 16.6398 27.4441 16.7264 27.9639 16.6664C28.2245 16.6318 28.5187 16.5293 28.6378 16.2732C28.767 16.0136 28.6199 15.7042 28.4023 15.5445C27.7994 15.0987 26.9883 14.9923 26.4673 14.4246C25.8677 13.8311 25.8697 12.7238 26.5213 12.1695C26.9404 11.8017 27.5059 11.6446 28.0542 11.6185Z" fill="white"/>
<path d="M22.9951 11.6619C23.6878 11.5549 24.4031 11.6146 25.0733 11.8189C25.0772 12.1803 25.1138 12.5462 25.0533 12.9048C24.8171 12.8922 24.6121 12.7526 24.3852 12.696C23.9932 12.5902 23.5681 12.5641 23.1749 12.6766C22.9273 12.7492 22.6778 12.9522 22.6856 13.2322C22.6778 13.4739 22.8608 13.6615 23.051 13.7812C23.63 14.1471 24.3327 14.3056 24.845 14.7786C25.5549 15.4162 25.5018 16.725 24.6979 17.2634C24.0731 17.6866 23.2813 17.7038 22.5552 17.6585C22.1634 17.6147 21.7502 17.5588 21.4109 17.3459C21.3696 16.9786 21.3722 16.6026 21.4128 16.2353C21.5379 16.2026 21.641 16.2965 21.7463 16.3478C22.2072 16.6333 22.7703 16.7277 23.3046 16.6664C23.5635 16.6272 23.8601 16.53 23.9792 16.2738C24.1091 16.0151 23.9627 15.7049 23.745 15.5445C23.149 15.1101 22.3611 14.9942 21.8339 14.4539C21.2304 13.8857 21.2033 12.8158 21.7954 12.2302C22.1141 11.9094 22.5567 11.7405 22.9951 11.6619Z" fill="white"/>
<path fill-rule="evenodd" clip-rule="evenodd" d="M10.0082 11.7371C10.4529 11.6851 10.9013 11.7158 11.3477 11.709C11.9587 11.7151 12.5907 11.6611 13.177 11.8742C13.5404 11.9999 13.8751 12.2627 14.0087 12.6328C14.1891 13.0771 14.0647 13.6123 13.7333 13.9516C13.5237 14.1824 13.2363 14.3182 12.95 14.428C13.3507 14.4832 13.7512 14.6429 14.0147 14.9618C14.3462 15.3323 14.376 15.8786 14.2542 16.3398C14.1166 16.8494 13.6921 17.246 13.1997 17.4144C12.6766 17.6186 12.1051 17.5714 11.5553 17.5753C11.0663 17.5641 10.5753 17.5954 10.0868 17.5661C9.991 17.5088 10.0183 17.3885 10.0082 17.2966C10.0109 15.4433 10.0123 13.5903 10.0082 11.7371ZM11.2594 15.0356C11.2485 15.5711 11.256 16.1075 11.2546 16.6437C11.6478 16.6338 12.0518 16.6884 12.4378 16.5866C12.7951 16.4949 13.0499 16.1281 13.0166 15.7622C12.9907 15.4128 12.7093 15.0881 12.3545 15.0508C11.9906 15.0215 11.6245 15.0482 11.2594 15.0356ZM12.3872 12.7246C12.0286 12.5801 11.6279 12.6653 11.2519 12.644C11.2565 13.125 11.2507 13.6056 11.2572 14.0866C11.7051 14.0713 12.2587 14.1851 12.598 13.8132C12.9094 13.4931 12.7918 12.907 12.3872 12.7246Z" fill="white"/>
</g>
</g>
<defs>
<clipPath id="clip0_1767_697">
<rect width="40" height="40" fill="white"/>
</clipPath>
<clipPath id="clip1_1767_697">
<rect width="20" height="20" fill="white" transform="translate(10 10)"/>
</clipPath>
</defs>
</svg>
