<svg width="40" height="40" viewBox="0 0 40 40" fill="none" xmlns="http://www.w3.org/2000/svg">
<g clip-path="url(#clip0_1782_3001)">
<path d="M20 0C31.0457 0 40 8.9543 40 20C40 31.0457 31.0457 40 20 40C8.95431 40 7.90517e-06 31.0457 0 20C6.58765e-07 8.95431 8.95431 1.97595e-06 20 0Z" fill="#CCD3E1"/>
<path d="M26 6C30.4183 6 34 9.58172 34 14V26C34 30.4183 30.4183 34 26 34H14C9.58172 34 6 30.4183 6 26V14C6 9.58172 9.58172 6 14 6H26Z" fill="#012169"/>
<path d="M22.6617 16.3083C23.0675 16.1725 23.5342 16.0525 23.94 15.9325C22.7667 15.4358 21.2933 14.91 19.97 14.5783C19.7592 14.6392 19.1283 14.8042 18.6917 14.94C19.1425 15.075 20.6317 15.4208 22.6617 16.3083ZM15.2483 21.9625C15.7292 22.2483 16.24 22.6392 16.7367 22.97C20.03 20.4133 23.2783 18.4433 26.8425 17.3308C26.3458 17.075 25.91 16.8492 25.3533 16.5792C23.2183 17.1208 19.5642 18.5792 15.2483 21.9625ZM14.6167 16.5792C12.8567 17.3908 11.0075 18.5042 10 19.15C10.3608 19.3158 10.7217 19.4508 11.2175 19.6917C13.4433 18.1875 15.1875 17.2708 15.8792 16.97C15.3833 16.7892 14.9175 16.67 14.6167 16.5792ZM21.3383 16.7742C20.7667 16.4583 18.7817 15.7217 17.4133 15.4058C17.0075 15.5558 16.4358 15.7817 16.045 15.9475C16.5408 16.0825 18.3908 16.5792 19.97 17.3758C20.3758 17.18 20.9475 16.94 21.3383 16.7742ZM18.5267 18.0675C18.06 17.8425 17.5492 17.6317 17.1575 17.4508C15.97 18.0375 14.4208 18.925 12.4658 20.3233C12.8867 20.5483 13.3383 20.8192 13.8192 21.09C15.3233 19.9775 16.8417 18.925 18.5267 18.0675ZM19.97 25.4217C23.1283 22.7142 27.5642 20.0825 30 19.135C29.4663 18.8014 28.9247 18.4805 28.3758 18.1725C25.2333 19.2108 21.5642 21.5117 18.2858 24.1133C18.8417 24.5342 19.4292 24.97 19.97 25.4217ZM22.3458 25.2258H22.2558L22.1058 25.0008H22.015V25.2258H21.955V24.7292H22.18C22.2258 24.7292 22.2708 24.7292 22.3008 24.7592C22.3458 24.775 22.3608 24.82 22.3608 24.865C22.3608 24.955 22.2858 25 22.1958 25L22.3458 25.2258ZM22.105 24.94C22.18 24.94 22.2708 24.955 22.2708 24.865C22.2708 24.805 22.2108 24.79 22.1508 24.79H22.015V24.94H22.105ZM21.6692 24.97C21.6692 24.7292 21.865 24.5342 22.12 24.5342C22.3758 24.5342 22.5717 24.7292 22.5717 24.97C22.5714 25.0897 22.5238 25.2045 22.4391 25.2891C22.3545 25.3738 22.2397 25.4215 22.12 25.4217C22.0605 25.4226 22.0015 25.4115 21.9463 25.3891C21.8912 25.3667 21.8412 25.3334 21.7992 25.2913C21.7572 25.2491 21.7241 25.199 21.7019 25.1438C21.6797 25.0886 21.668 25.0295 21.6692 24.97ZM21.7592 24.97C21.7592 25.1658 21.925 25.3308 22.135 25.3308C22.1814 25.3308 22.2273 25.3217 22.2702 25.3039C22.3131 25.2862 22.352 25.2602 22.3848 25.2274C22.4177 25.1945 22.4437 25.1556 22.4614 25.1127C22.4792 25.0699 22.4883 25.0239 22.4883 24.9775C22.4883 24.9311 22.4792 24.8852 22.4614 24.8423C22.4437 24.7994 22.4177 24.7605 22.3848 24.7277C22.352 24.6949 22.3131 24.6688 22.2702 24.6511C22.2273 24.6333 22.1814 24.6242 22.135 24.6242C21.91 24.6242 21.76 24.79 21.76 24.97" fill="white"/>
</g>
<defs>
<clipPath id="clip0_1782_3001">
<rect width="40" height="40" fill="white"/>
</clipPath>
</defs>
</svg>
