<svg width="40" height="40" viewBox="0 0 40 40" fill="none" xmlns="http://www.w3.org/2000/svg">
<g clip-path="url(#clip0_1812_2895)">
<path d="M20 0C31.0457 0 40 8.9543 40 20C40 31.0457 31.0457 40 20 40C8.95431 40 7.90517e-06 31.0457 0 20C6.58765e-07 8.95431 8.95431 1.97595e-06 20 0Z" fill="#F6D6D4"/>
<path d="M26 6C30.4183 6 34 9.58172 34 14V26C34 30.4183 30.4183 34 26 34H14C9.58172 34 6 30.4183 6 26V14C6 9.58172 9.58172 6 14 6H26Z" fill="#D03027"/>
<path d="M10.1616 16.897C15.4401 15.7441 27.8536 13.83 29.7823 15.9609L29.7854 15.9578C30.6434 16.9075 28.8287 18.6192 26.1245 20.4133L26.1242 20.4142C26.1242 20.4142 23.1488 22.2771 21.9568 22.9153C21.9572 22.9159 21.9576 22.9165 21.958 22.9171C21.9496 22.9205 21.9413 22.9247 21.9336 22.9296L17.5593 25.2794L17.5075 25.3068C17.4866 25.3215 17.4575 25.3164 17.4428 25.2955C17.4281 25.2746 17.4331 25.2455 17.4541 25.2309L17.5154 25.1952C19.0751 24.2397 20.5244 23.3293 21.7524 22.4597H21.753C21.8743 22.3644 24.8264 20.0408 25.3653 19.3258C26.0587 18.4253 26.2013 17.6642 25.6036 17.0715C23.6471 15.1315 14.5517 16.2102 10.179 16.9891L10.0539 17.0136C10.0299 17.0182 10.0058 17.0019 10.0008 16.976C9.99612 16.952 10.0124 16.928 10.0383 16.9229L10.1616 16.897Z" fill="white"/>
</g>
<defs>
<clipPath id="clip0_1812_2895">
<rect width="40" height="40" fill="white"/>
</clipPath>
</defs>
</svg>
