<svg width="40" height="40" viewBox="0 0 40 40" fill="none" xmlns="http://www.w3.org/2000/svg">
<g clip-path="url(#clip0_1782_2856)">
<path d="M20 0C31.0457 0 40 8.9543 40 20C40 31.0457 31.0457 40 20 40C8.95431 40 7.90517e-06 31.0457 0 20C6.58765e-07 8.95431 8.95431 1.97595e-06 20 0Z" fill="#CCDAE7"/>
<path d="M26 6C30.4183 6 34 9.58172 34 14V26C34 30.4183 30.4183 34 26 34H14C9.58172 34 6 30.4183 6 26V14C6 9.58172 9.58172 6 14 6H26Z" fill="#004685"/>
<path d="M14.1723 16.9316C15.3064 16.9316 16.2291 17.3734 16.9979 18.2818L17.0225 18.3117L16.0981 19.4297L16.0614 19.3947C15.4839 18.804 14.8157 18.4915 14.1274 18.4915C12.69 18.4915 11.6472 19.5716 11.6472 21.0568C11.6472 22.5443 12.69 23.6226 14.1274 23.6227C14.8157 23.6227 15.4839 23.3119 16.0614 22.7236L16.0981 22.6879L17.0225 23.8066L16.9979 23.8341C16.2291 24.743 15.3064 25.1854 14.1723 25.1854C13.0353 25.1854 11.9942 24.805 11.245 24.111C10.4292 23.363 10 22.3058 10 21.0568C10 19.8078 10.4291 18.7529 11.245 18.0048C11.9942 17.3148 13.0353 16.9316 14.1723 16.9316ZM24.0138 17.0685H25.6782V18.5691H24.0138V22.7994C24.0138 23.4199 24.2528 23.6991 24.7808 23.6991C25.1451 23.6991 25.5501 23.5653 25.9862 23.2999L26.0827 23.2407L25.6903 24.7781L25.673 24.7891C25.4042 24.9499 24.9606 25.1694 24.2247 25.155C23.14 25.1332 22.4138 24.2943 22.4138 23.0689V18.5691H21.0326V17.0685H22.4138V15.4448L24.0138 14.5876V17.0685ZM19.5891 25.0329H17.9562V17.0607H19.5891V25.0329ZM28.9729 25.0329H27.3378V17.0607H28.9729V25.0329ZM23.4354 12.2896C25.9559 12.2896 28.4332 13.5501 29.9253 15.6633L30 15.7718H28.1224L28.1017 15.7494C26.8205 14.4292 25.1521 13.7317 23.4354 13.7317C21.7187 13.7317 20.0491 14.4292 18.7707 15.7494L18.7501 15.7718H16.8713L16.9483 15.6633C18.4375 13.5501 20.9155 12.2896 23.4354 12.2896Z" fill="white"/>
</g>
<defs>
<clipPath id="clip0_1782_2856">
<rect width="40" height="40" fill="white"/>
</clipPath>
</defs>
</svg>
