<svg width="40" height="40" viewBox="0 0 40 40" fill="none" xmlns="http://www.w3.org/2000/svg">
<g clip-path="url(#clip0_819_3523)">
<path d="M20 0C31.0457 0 40 8.9543 40 20C40 31.0457 31.0457 40 20 40C8.95431 40 7.90517e-06 31.0457 0 20C6.58765e-07 8.95431 8.95431 1.97595e-06 20 0Z" fill="#D2DAE6"/>
<path d="M26 6C30.4183 6 34 9.58172 34 14V26C34 30.4183 30.4183 34 26 34H14C9.58172 34 6 30.4183 6 26V14C6 9.58172 9.58172 6 14 6H26Z" fill="#1C4882"/>
<g clip-path="url(#clip1_819_3523)">
<path fill-rule="evenodd" clip-rule="evenodd" d="M11.8155 17.7031C11.837 17.4418 11.6993 17.2917 11.4408 17.2917C11.1508 17.2917 10.9325 17.5394 10.847 18.0239C10.785 18.376 10.8034 18.7072 11.2228 18.7072C11.4882 18.7072 11.6466 18.5225 11.7204 18.2818H12.5133C12.3255 18.9308 11.7919 19.3219 11.1281 19.3219C10.2963 19.3219 9.88272 18.812 10.0267 17.9959C10.17 17.1832 10.8118 16.6768 11.5142 16.6768C12.2826 16.6768 12.6452 17.0575 12.5978 17.703L11.8155 17.7031ZM13.8626 18.4017H13.3421L13.7563 17.4993L13.8626 18.4017ZM12.9399 19.2569L13.0926 18.9257H13.9135L13.953 19.2569H14.774L14.316 16.7425H13.4776L12.1327 19.2569H12.9399ZM24.1551 19.1262L23.9783 18.814C23.8377 18.5885 23.6755 18.3772 23.4941 18.1829C23.3774 18.0586 23.2526 17.942 23.1207 17.8339L23.0957 17.8132C23.0337 17.7627 22.9699 17.7144 22.9045 17.6685C22.729 17.5445 22.5406 17.44 22.3426 17.3566L22.0037 19.278H22.8373L22.9934 18.3919H23.2477C23.6358 18.3919 23.6729 18.5015 23.6144 18.8334C23.5744 19.0595 23.5669 19.2218 23.5784 19.278H24.2276C24.2045 19.2269 24.1803 19.1763 24.1551 19.1262Z" fill="white"/>
<path fill-rule="evenodd" clip-rule="evenodd" d="M23.6519 16.7385H22.4513L22.4084 16.9816C22.5567 17.0523 22.7032 17.1383 22.8446 17.2372C22.9521 17.3126 23.0554 17.3939 23.1541 17.4806L23.1806 17.3301H23.5688C23.7627 17.3301 23.8889 17.4147 23.8575 17.5943C23.8298 17.75 23.7101 17.8175 23.5051 17.8309C23.6579 18.003 23.7962 18.1875 23.9185 18.3825L24.0953 18.6949C24.1908 18.882 24.27 19.0771 24.3319 19.278H24.4213C24.4213 19.278 24.3667 19.0877 24.425 18.7557C24.5154 18.2435 24.3643 18.18 24.1136 18.0812C24.4241 18 24.5984 17.753 24.65 17.4605C24.7371 16.9674 24.4987 16.7385 23.6519 16.7385ZM21.5215 17.2751C21.3452 17.2824 21.1852 17.3209 21.0431 17.3867C21.306 17.4528 21.3584 17.7721 21.3049 18.0752C21.2311 18.4941 21.0355 18.8041 20.6764 18.8041C20.4462 18.8041 20.3406 18.6685 20.303 18.4914C20.2995 18.4788 20.297 18.466 20.2954 18.453L20.2952 18.4503C20.2867 18.3897 20.284 18.3285 20.287 18.2674C20.2852 18.0494 20.3147 17.8485 20.3733 17.6706C20.4583 17.4133 20.6024 17.2077 20.7954 17.0656C20.9778 16.9312 21.2028 16.8545 21.4618 16.8438C21.4927 16.8424 21.5237 16.8423 21.5549 16.8429C21.4106 16.7857 21.239 16.7534 21.0381 16.7534C20.2485 16.7534 19.6166 17.272 19.4761 18.0681C19.324 18.9311 19.7702 19.4251 20.567 19.4251C21.3178 19.4251 21.9865 18.9382 22.1387 18.0753C22.1842 17.8172 22.1653 17.5616 22.0732 17.3448C21.8882 17.2931 21.7023 17.2676 21.5215 17.2751Z" fill="white"/>
<path fill-rule="evenodd" clip-rule="evenodd" d="M16.1427 18.4257C16.0857 18.4369 16.0304 18.4485 15.9749 18.4635L16.356 19.2591H16.416C16.4373 19.1991 16.4547 19.1394 16.4676 19.0804C16.4996 18.9242 16.5003 18.9146 16.4703 18.7566C16.4636 18.7265 16.4804 18.6966 16.5077 18.69C16.53 18.6845 16.5572 18.6963 16.5683 18.7365C16.5937 18.8608 16.5965 18.9288 16.5965 19.0411C16.5965 19.1136 16.5934 19.1861 16.5857 19.2591H17.1283L17.244 18.6023C16.8059 18.413 16.4723 18.3601 16.1427 18.4257Z" fill="white"/>
<path fill-rule="evenodd" clip-rule="evenodd" d="M15.6055 18.5091L15.7003 17.8911L15.9297 18.3697C16.314 18.2554 16.747 18.2659 17.217 18.4008L17.2761 18.4186L17.5712 16.745H16.7817L16.5712 18.1169L15.9161 16.7451H15.1442L14.7008 19.2593H14.9443C15.0099 19.1313 15.0831 19.0159 15.1532 18.9264C15.2908 18.7454 15.4385 18.6083 15.6055 18.5091Z" fill="white"/>
<path fill-rule="evenodd" clip-rule="evenodd" d="M15.5844 18.6471C15.4706 18.7235 15.3597 18.8296 15.2626 18.9555C15.1904 19.046 15.1234 19.1502 15.0651 19.2594H15.4903L15.5844 18.6471ZM17.6841 16.7413L17.568 17.3998H18.3085L18.1143 18.5015C18.2182 18.4746 18.3265 18.4316 18.4506 18.3709C18.4605 18.3664 18.4715 18.365 18.4822 18.3668C18.4929 18.3685 18.5029 18.3735 18.5108 18.3809C18.5156 18.3853 18.5195 18.3906 18.5221 18.3966C18.5248 18.4026 18.5262 18.409 18.5262 18.4155C18.5263 18.421 18.5253 18.4264 18.5233 18.4315C18.4424 18.6705 18.3184 18.783 18.0972 18.8191C18.084 18.8219 18.0706 18.824 18.0569 18.8258L17.9811 19.2556H18.8065L19.1338 17.3998H19.8744L19.9906 16.7413H17.6841Z" fill="white"/>
<path fill-rule="evenodd" clip-rule="evenodd" d="M15.6057 18.5092L15.5845 18.6473C15.5876 18.6451 15.5907 18.6427 15.5939 18.6407C15.7095 18.5598 15.8384 18.4999 15.9747 18.4638L15.9296 18.3698L15.9287 18.3699C15.8155 18.4023 15.707 18.4491 15.6057 18.5092ZM17.4091 18.4583L17.2763 18.4187L17.2438 18.6026C17.2732 18.6153 17.3028 18.6286 17.3329 18.6423L17.5279 18.7302C17.7453 18.8128 17.9185 18.8439 18.0571 18.826L18.1143 18.5015C17.8952 18.5578 17.6955 18.5406 17.4091 18.4583ZM15.3559 20.4461C15.2164 20.4871 15.0861 20.4719 14.9998 20.4036C14.8438 20.2714 14.8364 20.0665 14.8407 19.9846C14.8434 19.7829 14.932 19.508 15.0652 19.2593H14.9448C14.7882 19.5647 14.6771 19.9422 14.7664 20.2127C14.8272 20.4027 14.9283 20.5092 15.0941 20.5581C15.4614 20.6601 15.9781 20.3737 16.2464 20.05C16.4711 19.7777 16.5583 19.5163 16.5857 19.2592H16.4162C16.2354 19.7732 15.7753 20.3003 15.3559 20.4461Z" fill="white"/>
<path fill-rule="evenodd" clip-rule="evenodd" d="M16.9483 20.2344L16.9794 20.1517L17.0158 20.0727L17.166 19.9923L17.3366 19.8987C17.3195 19.9503 17.2989 20.0008 17.2751 20.0497C17.2306 20.134 17.2005 20.2111 17.174 20.279C17.1026 20.4618 17.051 20.594 16.7893 20.7267C16.7685 20.7371 16.7636 20.7492 16.7636 20.7585C16.7636 20.7629 16.7648 20.7666 16.7658 20.7691C16.7767 20.7942 16.8143 20.788 16.835 20.7805C16.937 20.741 17.2539 20.5971 17.3714 20.4577C17.4741 20.3403 17.4695 20.2379 17.4648 20.1293L17.4644 20.0158L17.4667 19.9323C17.4723 19.8271 17.512 19.7913 17.5721 19.737C17.6209 19.6929 17.6816 19.6381 17.7399 19.5299C17.7553 19.5077 17.7615 19.4803 17.7571 19.4536C17.7544 19.4407 17.7491 19.4286 17.7416 19.4178C17.734 19.407 17.7244 19.3979 17.7133 19.3909C17.6526 19.3563 17.5926 19.4046 17.5745 19.4261C17.5323 19.4813 17.4681 19.5817 17.3966 19.7492L17.3417 19.778L17.0847 19.9098C17.2465 19.524 17.5421 19.17 17.8932 18.9558L17.8859 18.9587C17.894 18.9571 17.9014 18.9532 17.9072 18.9474C17.9131 18.9417 17.9171 18.9343 17.9188 18.9263C17.9204 18.9194 17.92 18.9123 17.9176 18.9057C17.9152 18.899 17.911 18.8933 17.9054 18.889C17.8997 18.8847 17.8839 18.8763 17.8609 18.8891C17.4918 19.0616 17.1831 19.3038 16.8621 19.6735C16.7484 19.8028 16.6125 19.9857 16.5623 20.0684L16.5023 20.1008L16.2506 20.2416C15.9501 20.4246 15.5306 20.7187 15.355 21.1562C15.3028 21.2825 15.2732 21.4329 15.267 21.6028C15.2701 21.6418 15.2916 21.6572 15.3114 21.6566C15.3311 21.6561 15.3528 21.6387 15.3541 21.6015C15.3757 20.9325 16.0521 20.4653 16.4863 20.2336C16.4389 20.3305 16.3459 20.5163 16.2719 20.6363L16.2263 20.7085C15.8872 21.2475 15.5941 21.713 15.0455 21.7712C14.8925 21.79 14.6465 21.7507 14.4727 21.6798C14.4298 21.6578 14.3253 21.604 14.3427 21.5486C14.3508 21.5131 14.3626 21.5109 14.4203 21.5156L14.4355 21.5168C14.5219 21.5305 14.5916 21.4756 14.6068 21.3801C14.6124 21.353 14.6121 21.325 14.6058 21.298C14.5995 21.2711 14.5873 21.2458 14.5702 21.224C14.5302 21.1718 14.4778 21.1513 14.4105 21.1609C14.3089 21.1754 14.2404 21.2592 14.2174 21.336C14.1993 21.3919 14.1959 21.4514 14.2074 21.5089C14.2188 21.5664 14.2449 21.62 14.283 21.6646C14.4544 21.857 14.8942 21.8811 15.035 21.8744C15.9141 21.8206 16.5578 21.2684 16.9483 20.2344ZM28.8684 20.9755C28.8608 20.9772 28.8538 20.9809 28.8481 20.9863C28.8425 20.9917 28.8384 20.9985 28.8364 21.006C28.6936 21.4684 28.2813 21.7703 28.1006 21.8023C28.0787 21.806 28.0401 21.8094 28.0245 21.7887C28.0112 21.7715 28.04 21.7231 28.0734 21.667L28.0961 21.6291L29.9985 18.7653H29.5963L28.3681 20.6189C28.3557 20.566 28.3237 20.4964 28.225 20.4549C28.0434 20.389 27.7523 20.4926 27.4647 20.7249C27.2865 20.8692 27.1082 21.0667 26.9361 21.2581C26.6715 21.5511 26.4219 21.8278 26.2468 21.8203L26.2465 21.8166C26.2465 21.7951 26.2695 21.7337 26.3269 21.6569L27.2276 20.4233C27.53 20.2031 27.7957 19.9841 27.9327 19.8427C28.2139 19.5575 28.5986 19.0567 28.5986 18.8107C28.5986 18.8045 28.5984 18.7982 28.5981 18.792C28.5883 18.6815 28.5451 18.629 28.4537 18.616C28.2242 18.5743 27.6255 19.3457 27.6001 19.3785L26.7372 20.4877C26.166 21.1633 25.4314 21.8039 25.3415 21.7816L25.3385 21.778C25.3382 21.7769 25.3382 21.7759 25.3382 21.7749C25.3382 21.7482 25.3835 21.6857 25.4168 21.6393L26.2366 20.4699H25.835L25.6846 20.6443C25.6746 20.5911 25.6438 20.5165 25.5375 20.4765C25.3052 20.3899 24.9724 20.6054 24.7945 20.7419C24.6347 20.8642 24.5201 20.9998 24.4277 21.1087C24.306 21.2531 24.2253 21.3481 24.132 21.3156C24.065 21.292 24.0505 21.2516 24.0356 21.2085C24.0356 21.2085 24.0316 21.1988 24.0281 21.1891L24.0489 21.1676C24.1108 21.1084 24.163 21.0398 24.2035 20.9643C24.2458 20.8968 24.2594 20.8207 24.2682 20.7709L24.2757 20.7335C24.2781 20.7228 24.2794 20.7091 24.2794 20.6937C24.2794 20.6306 24.2573 20.5392 24.1916 20.5177C24.0847 20.4746 24.03 20.5787 24.0122 20.6129C23.9989 20.641 23.9831 20.6895 23.9538 20.792C23.9385 20.8599 23.9158 20.9625 23.9133 21.1503L23.6602 21.3184L23.5686 21.389L23.649 21.2598L23.7438 21.1039C23.8189 20.9762 23.8604 20.8406 23.8604 20.7318C23.8604 20.695 23.8555 20.6614 23.8456 20.6319C23.8175 20.5609 23.7791 20.529 23.7082 20.5171C23.6541 20.5112 23.5974 20.5224 23.5384 20.5508C23.401 20.6247 23.2946 20.7476 23.1472 20.9177C23.0474 21.0351 22.9437 21.1492 22.8363 21.2597C22.5325 21.5698 22.1063 21.8116 21.9889 21.8051L21.9743 21.8012C21.9689 21.793 21.9663 21.7831 21.967 21.7732C21.967 21.7196 22.015 21.6252 22.033 21.5902C22.0331 21.5896 22.0787 21.5094 22.0872 21.4944L22.3794 21.3436L22.4171 21.3229C22.6459 21.1979 22.956 21.0287 22.956 20.7108C22.956 20.6987 22.9557 20.6863 22.9546 20.6738C22.9485 20.602 22.9289 20.5025 22.8319 20.4667C22.6021 20.3946 22.1147 20.8266 21.8888 21.0653C21.8653 21.0906 21.8418 21.1159 21.8184 21.1413C21.7012 21.2728 21.4664 21.5337 21.1306 21.7528L21.9755 20.4755H21.6038L21.4272 20.6951L21.4275 20.6904C21.4282 20.6485 21.4189 20.607 21.4005 20.5694C21.3747 20.5193 21.3324 20.4864 21.2749 20.4712C20.9584 20.3935 20.397 20.8529 20.091 21.3136C19.9331 21.5513 19.8371 21.6226 19.6804 21.6179L19.6081 21.6102C19.527 21.5964 19.4445 21.5937 19.3628 21.6024C19.4915 21.5163 19.6722 21.381 19.7609 21.1832L19.8452 21.005C19.8953 20.9114 19.9578 20.8086 20.0401 20.757L20.0632 20.7438L20.1424 20.7112L20.1536 20.7083C20.1928 20.6968 20.26 20.6716 20.2801 20.6285L20.2807 20.5784C20.2802 20.5784 20.2534 20.5342 20.2534 20.5342C20.1986 20.4879 20.1232 20.5682 20.0911 20.6026C20.0674 20.6304 20.0152 20.6659 19.9825 20.6621C19.963 20.6599 19.9469 20.646 19.925 20.6266L19.8433 20.567C19.7891 20.5277 19.7438 20.5184 19.6894 20.5166C19.4633 20.5093 19.351 20.6605 19.1473 20.9342L18.8796 21.2794C18.6825 21.5174 18.3386 21.8132 18.2211 21.8192C18.2226 21.7952 18.2494 21.7273 18.2969 21.6562L19.264 20.1807C19.2876 20.1813 19.5243 20.1853 19.5243 20.1853C19.5697 20.1853 19.6588 20.125 19.6588 20.0861C19.6588 20.0809 19.6575 20.0758 19.655 20.0712C19.6524 20.0667 19.6488 20.0629 19.6443 20.0603L19.6215 20.0545H19.3413L19.8205 19.332H19.5094C19.5094 19.332 19.0487 20.034 19.035 20.0545H18.8389C18.79 20.0545 18.6965 20.1141 18.6965 20.1545C18.6965 20.1648 18.7017 20.1742 18.7107 20.1797L18.7326 20.1853C18.7328 20.1853 18.8758 20.1826 18.9533 20.1814L18.8761 20.2812C18.8299 20.3415 18.3492 20.8682 17.948 21.2808C17.6373 21.6006 17.326 21.8486 17.2683 21.8225C17.2667 21.8217 17.2664 21.8217 17.2664 21.8219C17.2656 21.82 17.2652 21.8179 17.2652 21.8158C17.2652 21.7976 17.282 21.7461 17.3423 21.6561L18.1156 20.4995H17.7262L17.7195 20.5057C17.6931 20.5302 17.6252 20.6114 17.5391 20.7143L17.3425 20.9462L17.3207 20.9709C16.7027 21.6791 16.3975 21.8074 16.2502 21.7903C16.2107 21.7858 16.1924 21.789 16.1828 21.8024L16.1747 21.8138L16.1806 21.83C16.1924 21.8546 16.2514 21.8711 16.2876 21.8733C16.6013 21.8906 17.1146 21.3632 17.4016 21.0358C17.2618 21.262 17.105 21.5344 17.105 21.7206C17.105 21.7382 17.1063 21.755 17.1094 21.771C17.1217 21.845 17.1696 21.8957 17.248 21.9173C17.4117 21.9743 17.9221 21.4581 18.0157 21.3542C18.1845 21.1692 18.3563 20.9869 18.531 20.8075L18.4344 20.9484C18.2363 21.2352 18.0559 21.5256 18.0559 21.7249C18.0559 21.7408 18.0571 21.756 18.0593 21.7706C18.0779 21.8469 18.1241 21.8957 18.1976 21.9174C18.3606 21.9721 18.7534 21.5806 18.9598 21.3408C19.0549 21.2292 19.1443 21.1129 19.2275 20.9922C19.2852 20.9103 19.3268 20.8512 19.3613 20.8285C19.4486 20.7705 19.4779 20.7812 19.5308 20.8005L19.6017 20.8218C19.6583 20.8322 19.7039 20.8309 19.7594 20.8225C19.6209 20.919 19.4539 21.0492 19.3533 21.2668L19.3535 21.2663C19.3535 21.2668 19.3231 21.3191 19.3231 21.3191L19.309 21.3464C19.2628 21.4354 19.1555 21.6148 19.1213 21.6522L18.9596 21.7118L18.9306 21.7242C18.8843 21.7426 18.8029 21.7753 18.8029 21.8375C18.803 21.847 18.8048 21.8564 18.8081 21.8652C18.8111 21.8763 18.8169 21.8865 18.8251 21.8946C18.8332 21.9027 18.8433 21.9086 18.8544 21.9117C18.9011 21.9246 18.9633 21.8887 19.0024 21.8537C19.0578 21.8077 19.1244 21.7606 19.1378 21.7561C19.1974 21.7382 19.225 21.7662 19.2664 21.8086C19.3032 21.8464 19.3491 21.8932 19.4287 21.9066C19.5535 21.9232 19.8141 21.8758 20.1647 21.3758C20.1888 21.3416 20.2118 21.3105 20.2338 21.2819C20.1894 21.3999 20.1638 21.5247 20.1638 21.6329C20.1638 21.6745 20.1675 21.7137 20.1751 21.7489C20.1947 21.845 20.2519 21.9102 20.332 21.927C20.4561 21.9578 20.5766 21.8953 20.6882 21.8063L20.5225 22.0218C20.5217 22.0213 20.1474 22.2911 20.1474 22.2911L20.0716 22.3472C19.7553 22.5807 19.3219 22.9006 19.3688 23.1709C19.3821 23.2567 19.4352 23.2919 19.5108 23.3183C19.7475 23.3889 20.4351 22.6776 20.5699 22.4886C20.5827 22.4733 20.9102 22.0859 20.9826 21.9831C21.2922 21.7845 21.5766 21.549 21.8293 21.2817C21.7846 21.4102 21.7618 21.5196 21.7618 21.6127C21.7618 21.6674 21.7694 21.7166 21.7845 21.7614C21.8131 21.8505 21.8843 21.9044 21.9846 21.9122C22.144 21.9248 22.5715 21.6798 22.905 21.3335L23.1757 21.0324C23.3814 20.7952 23.5595 20.5902 23.6798 20.6208H23.6804C23.6804 20.6213 23.681 20.6223 23.681 20.6262C23.681 20.6388 23.674 20.6755 23.6191 20.7653C23.6188 20.7653 22.8533 21.9227 22.8533 21.9227H23.2215L23.3136 21.7875C23.3968 21.6627 23.6507 21.4572 23.7115 21.4133L23.8301 21.3312L23.9419 21.2545L23.9433 21.2578C23.9705 21.317 23.9957 21.3729 24.1017 21.4158C24.201 21.4559 24.308 21.3739 24.3798 21.2999C24.3556 21.3811 24.3303 21.491 24.3303 21.5965C24.3303 21.6307 24.3329 21.6646 24.3393 21.6966C24.3598 21.8069 24.4106 21.8561 24.4918 21.9035C24.6441 21.9843 24.9193 21.775 25.1304 21.5897C25.1273 21.6183 25.1223 21.6503 25.1223 21.6736C25.1223 21.8313 25.1888 21.8735 25.2591 21.9015L25.2678 21.9049C25.469 21.9716 25.9884 21.4643 26.3883 21.0274C26.2251 21.2709 26.0838 21.5159 26.0838 21.7078C26.0838 21.7295 26.0856 21.7505 26.0892 21.7707C26.101 21.8427 26.152 21.8948 26.2327 21.917C26.3795 21.9681 26.7452 21.6547 27.0388 21.3039C27.0141 21.3884 26.9936 21.4904 26.9936 21.5875C26.9936 21.6244 26.9965 21.6602 27.003 21.6936C27.0235 21.8066 27.0764 21.8565 27.161 21.9047C27.309 21.9827 27.5779 21.7831 27.8056 21.5878C27.8019 21.6163 27.7998 21.645 27.7993 21.6737C27.7993 21.8499 27.8833 21.882 27.9375 21.9028L27.9465 21.9062C28.1374 21.9691 28.7029 21.7041 28.9243 21.0343C28.9268 21.0269 28.9273 21.0189 28.9257 21.0112C28.9241 21.0035 28.9204 20.9963 28.9151 20.9905C28.9092 20.9843 28.9018 20.9797 28.8937 20.977C28.8855 20.9744 28.8768 20.9739 28.8684 20.9755ZM27.287 21.8161C27.2583 21.8234 27.2288 21.8185 27.2151 21.8038C27.2004 21.7883 27.2051 21.7622 27.2111 21.7432C27.2938 21.5088 27.4244 21.34 27.5627 21.1612L27.6416 21.0586C27.7077 20.9799 27.8373 20.8321 27.9194 20.7516C27.9641 20.7038 28.0478 20.6368 28.1112 20.6063L28.1129 20.6054C28.1653 20.5743 28.2163 20.5722 28.2376 20.5864C28.2434 20.5899 28.2506 20.5968 28.2486 20.6132C28.2413 20.734 28.1582 20.9728 27.8027 21.4327C27.6486 21.6207 27.3656 21.7937 27.287 21.8161ZM27.3466 20.2081L27.9193 19.3178L27.9196 19.3175C28.035 19.1313 28.305 18.6958 28.466 18.7345C28.4666 18.7345 28.4705 18.7388 28.4705 18.7388C28.4735 18.744 28.4757 18.7527 28.4757 18.7643C28.4753 18.779 28.4727 18.7935 28.4679 18.8073C28.2745 19.2793 28.0502 19.6543 27.5303 20.0609L27.3466 20.2081ZM24.6182 21.8138C24.5891 21.8213 24.5599 21.8164 24.5462 21.8017C24.5315 21.7859 24.5359 21.76 24.5419 21.7408C24.6248 21.5128 24.7533 21.3478 24.8889 21.1732L24.9687 21.0695C25.0321 20.9892 25.1798 20.8347 25.243 20.7687C25.2862 20.7175 25.3743 20.6531 25.4302 20.6244L25.4317 20.6236C25.4843 20.5915 25.5313 20.5906 25.5523 20.6033C25.5626 20.6095 25.5673 20.6191 25.5667 20.6331C25.5474 20.8929 25.229 21.3021 25.1245 21.4366C24.9786 21.6199 24.6976 21.7906 24.6182 21.8138ZM22.6191 20.669L22.636 20.6542C22.7197 20.5793 22.7737 20.5505 22.7958 20.569C22.8061 20.5747 22.8103 20.585 22.8103 20.598C22.8103 20.6129 22.8051 20.6309 22.799 20.6496C22.6462 21.1139 22.3955 21.2505 22.162 21.3502C22.2461 21.1976 22.4858 20.7756 22.6191 20.669ZM21.3112 20.7766C21.2964 20.835 21.2858 20.8689 21.242 20.9597C21.1801 21.0818 21.111 21.1823 20.9468 21.3887C20.8207 21.5433 20.7298 21.6394 20.6428 21.7104C20.6016 21.7488 20.5531 21.7771 20.4879 21.811C20.4359 21.8353 20.3638 21.8374 20.3429 21.8265L20.3427 21.8263C20.3045 21.8071 20.3194 21.7169 20.3827 21.5852C20.5853 21.1621 21.1526 20.5216 21.2752 20.5775C21.3402 20.6116 21.3272 20.7286 21.3112 20.7766ZM20.0118 22.567L20.0787 22.5023C20.1978 22.3829 20.3346 22.2777 20.4292 22.2087C20.2915 22.4688 20.1219 22.7109 19.9244 22.9292C19.7479 23.1236 19.5576 23.2551 19.509 23.2159C19.5049 23.2126 19.5016 23.2085 19.4994 23.2038C19.4971 23.1991 19.496 23.194 19.496 23.1888L19.4959 23.1857C19.4957 23.0654 19.8059 22.7659 20.0118 22.567Z" fill="white"/>
<path fill-rule="evenodd" clip-rule="evenodd" d="M18.0996 20.2829C18.2133 20.2869 18.3337 20.2238 18.3735 20.1389C18.3918 20.1005 18.391 20.0617 18.3714 20.0296C18.3468 19.989 18.2952 19.9645 18.2304 19.9623C18.1166 19.9584 17.9963 20.0216 17.9563 20.1062C17.9381 20.1447 17.9388 20.1836 17.9584 20.2156C17.9832 20.2561 18.0346 20.2806 18.0996 20.2829Z" fill="white"/>
</g>
</g>
<defs>
<clipPath id="clip0_819_3523">
<rect width="40" height="40" fill="white"/>
</clipPath>
<clipPath id="clip1_819_3523">
<rect width="20" height="20" fill="white" transform="translate(10 10)"/>
</clipPath>
</defs>
</svg>
