<svg width="40" height="40" viewBox="0 0 40 40" fill="none" xmlns="http://www.w3.org/2000/svg">
<g clip-path="url(#clip0_1782_2844)">
<path d="M20 0C31.0457 0 40 8.9543 40 20C40 31.0457 31.0457 40 20 40C8.95431 40 7.90517e-06 31.0457 0 20C6.58765e-07 8.95431 8.95431 1.97595e-06 20 0Z" fill="#FFCCCC"/>
<path d="M26 6C30.4183 6 34 9.58172 34 14V26C34 30.4183 30.4183 34 26 34H14C9.58172 34 6 30.4183 6 26V14C6 9.58172 9.58172 6 14 6H26Z" fill="#FF0000"/>
<g clip-path="url(#clip1_1782_2844)">
<path d="M30.0001 14.9567C26.5751 16.1461 25.6766 17.3245 23.8277 18.8091C18.5888 20.1882 13.9968 17.9763 10.0001 16.1499C11.889 17.5142 13.7571 20.4139 14.5465 24.5237C17.5664 23.6175 21.2035 21.1735 24.4056 18.8905C26.2006 18.0947 28.1694 16.9202 30.0001 14.9567Z" fill="white"/>
</g>
</g>
<defs>
<clipPath id="clip0_1782_2844">
<rect width="40" height="40" fill="white"/>
</clipPath>
<clipPath id="clip1_1782_2844">
<rect width="20" height="20" fill="white" transform="translate(10 10)"/>
</clipPath>
</defs>
</svg>
