<svg width="40" height="40" viewBox="0 0 40 40" fill="none" xmlns="http://www.w3.org/2000/svg">
<g clip-path="url(#clip0_1782_3302)">
<path d="M20 0C31.0457 0 40 8.9543 40 20C40 31.0457 31.0457 40 20 40C8.95431 40 7.90517e-06 31.0457 0 20C6.58765e-07 8.95431 8.95431 1.97595e-06 20 0Z" fill="#F2F7E2"/>
<path d="M26 6C30.4183 6 34 9.58172 34 14V26C34 30.4183 30.4183 34 26 34H14C9.58172 34 6 30.4183 6 26V14C6 9.58172 9.58172 6 14 6H26Z" fill="#A9CC3D"/>
<path d="M17.25 22.625C18.625 22.625 19.75 23.75 19.75 25.125C19.75 26.5 18.625 27.625 17.25 27.625C15.875 27.625 14.75 26.5 14.75 25.125C14.75 23.75 15.875 22.625 17.25 22.625Z" fill="white"/>
<path d="M22.375 22.625C23.75 22.625 24.875 23.75 24.875 25.125C24.875 26.5 23.75 27.625 22.375 27.625C21 27.625 19.875 26.5 19.875 25.125C19.875 23.75 21 22.625 22.375 22.625Z" fill="white"/>
<path d="M27.5 22.625C28.875 22.625 30 23.75 30 25.125C30 26.5 28.875 27.625 27.5 27.625C26.125 27.625 25 26.5 25 25.125C25 23.75 26.125 22.625 27.5 22.625Z" fill="white"/>
<path d="M17.25 17.5C18.625 17.5 19.75 18.625 19.75 20C19.75 21.375 18.625 22.5 17.25 22.5C15.875 22.5 14.75 21.375 14.75 20C14.75 18.625 15.875 17.5 17.25 17.5Z" fill="white"/>
<path d="M22.375 17.5C23.75 17.5 24.875 18.625 24.875 20C24.875 21.375 23.75 22.5 22.375 22.5C21 22.5 19.875 21.375 19.875 20C19.875 18.625 21 17.5 22.375 17.5Z" fill="white"/>
<path d="M27.5 17.5C28.875 17.5 30 18.625 30 20C30 21.375 28.875 22.5 27.5 22.5C26.125 22.5 25 21.375 25 20C25 18.625 26.125 17.5 27.5 17.5Z" fill="white"/>
<path d="M12.5 12.375C13.875 12.375 15 13.5 15 14.875C15 16.25 13.875 17.375 12.5 17.375C11.125 17.375 10 16.25 10 14.875C10 13.5 11.125 12.375 12.5 12.375Z" fill="white"/>
<path d="M22.375 12.375C23.75 12.375 24.875 13.5 24.875 14.875C24.875 16.25 23.75 17.375 22.375 17.375C21 17.375 19.875 16.25 19.875 14.875C19.875 13.5 21 12.375 22.375 12.375Z" fill="white"/>
<path d="M27.5 12.375C28.875 12.375 30 13.5 30 14.875C30 16.25 28.875 17.375 27.5 17.375C26.125 17.375 25 16.25 25 14.875C25 13.5 26.125 12.375 27.5 12.375Z" fill="white"/>
</g>
<defs>
<clipPath id="clip0_1782_3302">
<rect width="40" height="40" fill="white"/>
</clipPath>
</defs>
</svg>
