<svg width="40" height="40" viewBox="0 0 40 40" fill="none" xmlns="http://www.w3.org/2000/svg">
<g clip-path="url(#clip0_1782_3147)">
<path d="M20 0C31.0457 0 40 8.9543 40 20C40 31.0457 31.0457 40 20 40C8.95431 40 7.90517e-06 31.0457 0 20C6.58765e-07 8.95431 8.95431 1.97595e-06 20 0Z" fill="#D9F3F9"/>
<path d="M26 6C30.4183 6 34 9.58172 34 14V26C34 30.4183 30.4183 34 26 34H14C9.58172 34 6 30.4183 6 26V14C6 9.58172 9.58172 6 14 6H26Z" fill="#00AED9"/>
<g clip-path="url(#clip1_1782_3147)">
<path d="M20 10C25.5077 10 30 14.4615 30 20C30 25.5077 25.5077 30 20 30C14.4923 30 10 25.5077 10 20C10 14.4923 14.4923 10 20 10ZM20 17.1385C19.8769 17.1385 18.1538 17.1386 17.9384 17.2001C17.8153 17.2001 17.6922 17.2615 17.5691 17.323C17.0768 17.6922 16.7077 18.1846 16.4615 18.7692C16.4615 18.5231 16.3691 18.4922 16.3383 18.4922H16.2461C15.4769 18.4922 15.2614 18.9231 15.2614 18.9231C15.0769 19.2923 16.1538 19.354 16.1538 19.354H16.2154C16.0308 19.6616 15.8461 19.9385 15.6307 20.2154C15.5077 20.3385 15.4153 20.4922 15.323 20.646C15.2615 20.8306 15.2308 20.9846 15.2308 21.1692C15.2308 21.4461 15.2614 22.677 15.2614 22.677V24.2154C15.2614 24.277 15.2923 24.3693 15.3846 24.3693H16.6154C16.6769 24.3693 16.7386 24.3077 16.7386 24.2154V24.0306H23.2614V24.2154C23.2614 24.277 23.2923 24.3693 23.3846 24.3693H24.6154C24.6769 24.3693 24.7386 24.3077 24.7386 24.2154V22.677C24.7386 22.677 24.7692 21.4461 24.7692 21.1692C24.7692 20.9846 24.7385 20.7999 24.677 20.646C24.5847 20.4922 24.4923 20.3385 24.3693 20.2154C24.1539 19.9385 23.9692 19.6616 23.7846 19.354H23.8462C23.8462 19.354 24.9231 19.2923 24.7386 18.9231C24.7386 18.9231 24.5539 18.4922 23.7539 18.4922H23.6307C23.6 18.4922 23.5692 18.4925 23.5385 18.7692C23.2923 18.2154 22.9232 17.723 22.4309 17.323C22.3078 17.2615 22.1846 17.2309 22.0616 17.2001C21.8462 17.1694 20.1231 17.1385 20 17.1385ZM20.0309 21.323C21.3527 21.323 22.2753 21.3539 22.3077 21.354C22.5845 21.3848 22.3999 21.8154 22.3999 21.8462V21.8155C21.6615 21.877 20.6154 21.8768 20 21.8768C19.3539 21.8768 18.3077 21.877 17.6001 21.8155C17.6001 21.8155 17.4156 21.354 17.7233 21.354C17.7577 21.3538 18.68 21.323 20.0309 21.323ZM24 20.5231C24.1846 20.4924 24.3694 20.5848 24.4309 20.7386C24.4924 20.9232 24.5232 21.1385 24.4925 21.3846C24.4925 21.4154 24.4306 21.5076 24.2461 21.5691C23.7846 21.6614 23.2923 21.7538 22.8308 21.7846C22.8315 21.7765 22.8947 21.0756 23.2924 20.8615C23.5077 20.7077 23.7539 20.6154 24 20.5231ZM15.5694 20.7076C15.631 20.5539 15.8155 20.4615 16 20.4922C16.2461 20.5845 16.4926 20.677 16.7079 20.8308C17.138 21.0461 17.1691 21.7521 17.1385 21.7539C16.677 21.6924 16.2154 21.6308 15.7539 21.5385C15.5401 21.4773 15.5082 21.3251 15.5078 21.323C15.4771 21.1076 15.5079 20.8922 15.5694 20.7076ZM20.6463 17.4462C21.5693 17.4462 22.277 17.4769 22.277 17.4769C22.6155 17.9692 22.8924 18.4616 23.1385 18.9847C23.1989 19.1659 23.0515 19.1691 23.0463 19.1692H16.9847C16.9821 19.1692 16.8314 19.1677 16.8924 18.9847C17.1386 18.4616 17.4156 17.9384 17.7233 17.4769C17.737 17.4763 18.44 17.4462 19.354 17.4462V17.6617C19.354 17.7232 19.4157 17.7846 19.4772 17.7846H20.5541C20.6155 17.7845 20.677 17.7538 20.677 17.6923V17.5078L20.6463 17.4462ZM20.0306 14.7076C19.3846 14.7076 18.7693 14.7384 18.1232 14.8615C17.9078 14.923 17.6924 14.954 17.5078 15.0463C17.4155 15.1078 17.3539 15.1386 17.2924 15.2001C17.2308 15.2616 17.1999 15.3232 17.1692 15.4462C17.1999 15.5385 17.2308 15.6308 17.2924 15.6923C17.6 15.8769 17.9385 15.9999 18.3077 16.0306C18.8615 16.123 19.4461 16.1538 20.0306 16.1538C20.6768 16.1538 21.323 16.0923 21.9384 16C22.1537 15.9692 22.3692 15.9078 22.5538 15.8155C22.6461 15.7847 22.7077 15.7538 22.7692 15.6923C22.8308 15.6308 22.8924 15.5385 22.8924 15.4462C22.8924 15.3539 22.8307 15.2617 22.7692 15.2001C22.4616 14.9847 22.1231 14.8616 21.7539 14.8308C21.2001 14.7385 20.6153 14.7076 20.0306 14.7076ZM20.0309 15.1076C20.6463 15.1076 21.2618 15.1691 21.8771 15.2614C22.0617 15.2922 22.2464 15.3537 22.4002 15.4153H22.4615C22.2155 15.5075 21.9693 15.5693 21.7233 15.6001C21.1694 15.6924 20.6154 15.723 20.0616 15.723C19.4463 15.723 18.8308 15.6614 18.2154 15.5691C18.0309 15.5383 17.8461 15.477 17.6923 15.4462H17.631C17.8464 15.3232 18.1232 15.2615 18.3693 15.2308C18.9231 15.1385 19.4771 15.1076 20.0309 15.1076Z" fill="white"/>
</g>
</g>
<defs>
<clipPath id="clip0_1782_3147">
<rect width="40" height="40" fill="white"/>
</clipPath>
<clipPath id="clip1_1782_3147">
<rect width="20" height="20" fill="white" transform="translate(10 10)"/>
</clipPath>
</defs>
</svg>
