<svg width="40" height="40" viewBox="0 0 40 40" fill="none" xmlns="http://www.w3.org/2000/svg">
<g clip-path="url(#clip0_1782_872)">
<path d="M20 0C31.0457 0 40 8.9543 40 20C40 31.0457 31.0457 40 20 40C8.95431 40 7.90517e-06 31.0457 0 20C6.58765e-07 8.95431 8.95431 1.97595e-06 20 0Z" fill="#D9D9D9"/>
<path d="M26 6C30.4183 6 34 9.58172 34 14V26C34 30.4183 30.4183 34 26 34H14C9.58172 34 6 30.4183 6 26V14C6 9.58172 9.58172 6 14 6H26Z" fill="black"/>
<path d="M19.9175 19.6283L20.5858 16.2117L21.2508 19.6283H19.9175ZM22.3083 14.195H18.85L16.8333 23.2367L20.5858 20.2075L24.4983 23.4858L22.3083 14.195ZM20.5858 20.9917L14.3283 26.0517H26.625L20.5858 20.9917ZM30 14.1833V16.4917H28.2783V26.0333H27.5433L25.5133 24.3333V16.4917H23.7992V14.1833H30ZM15.7267 24.0533C16.1833 23.6717 16.2617 23.2 16.2617 22.7767V21H13.7783V23.4117C13.7786 23.5773 13.713 23.7362 13.5962 23.8536C13.4793 23.9709 13.3206 24.0371 13.155 24.0375C12.81 24.0375 12.5533 23.7575 12.5533 23.4125V16.5775C12.5533 16.2325 12.81 15.9525 13.155 15.9525C13.3206 15.9527 13.4794 16.0187 13.5964 16.1359C13.7134 16.253 13.7792 16.4119 13.7792 16.5775V19.005H16.2583V16.4875C16.2583 15.0958 15.3483 13.9508 13.1333 13.9483C10.86 13.9483 10 15.0983 10 16.49V23.6258C10 25.005 11.095 26.0483 12.4958 26.0483H13.2642L15.7267 24.0533Z" fill="white"/>
</g>
<defs>
<clipPath id="clip0_1782_872">
<rect width="40" height="40" fill="white"/>
</clipPath>
</defs>
</svg>
