<svg width="40" height="40" viewBox="0 0 40 40" fill="none" xmlns="http://www.w3.org/2000/svg">
<g clip-path="url(#clip0_1782_3103)">
<path d="M20 0C31.0457 0 40 8.9543 40 20C40 31.0457 31.0457 40 20 40C8.95431 40 7.90517e-06 31.0457 0 20C6.58765e-07 8.95431 8.95431 1.97595e-06 20 0Z" fill="#E6D9D9"/>
<path d="M26 6C30.4183 6 34 9.58172 34 14V26C34 30.4183 30.4183 34 26 34H14C9.58172 34 6 30.4183 6 26V14C6 9.58172 9.58172 6 14 6H26Z" fill="#560000"/>
<path fill-rule="evenodd" clip-rule="evenodd" d="M20.1112 18.7949C20.1137 18.5844 20.1289 18.3743 20.1569 18.1655C20.1848 17.9566 20.2256 17.7498 20.2786 17.5461C20.3318 17.3424 20.3972 17.142 20.4746 16.946C20.5521 16.7504 20.6413 16.5594 20.7419 16.3745C21.319 15.3602 22.5433 14.2013 25.0413 14.2013H25.0661C27.568 14.2013 28.7757 15.3602 29.3694 16.3745C29.4718 16.5586 29.5625 16.7491 29.641 16.9446C29.7194 17.1403 29.7855 17.3406 29.8387 17.5445C29.8919 17.7485 29.9319 17.9557 29.9588 18.1646C29.9859 18.3736 29.9996 18.5843 30 18.7949V22.2175C29.9968 22.4279 29.9811 22.6381 29.9531 22.8467C29.9247 23.0553 29.8839 23.262 29.8309 23.4658C29.7778 23.6695 29.7125 23.8698 29.6353 24.0656C29.5582 24.2616 29.4694 24.4528 29.3694 24.6378C28.7881 25.6483 27.568 26.8068 25.0661 26.8068H25.0413C22.5433 26.8068 21.3315 25.6483 20.7419 24.6378C20.6412 24.4532 20.5517 24.2621 20.4743 24.0664C20.3967 23.8706 20.331 23.6702 20.2781 23.4663C20.225 23.2625 20.1842 23.0557 20.1565 22.8471C20.1286 22.6383 20.1135 22.428 20.1112 22.2175V18.7949ZM22.5846 22.333C22.6502 22.9393 22.9377 23.4999 23.3915 23.9074C23.8452 24.3148 24.4334 24.5401 25.0432 24.5401C25.653 24.5401 26.2412 24.3148 26.6951 23.9074C27.1488 23.4999 27.4363 22.9393 27.5019 22.333V18.6877C27.4363 18.0814 27.1488 17.5205 26.6951 17.1132C26.2412 16.7059 25.653 16.4806 25.0432 16.4806C24.4334 16.4806 23.8452 16.7059 23.3915 17.1132C22.9377 17.5205 22.6502 18.0814 22.5846 18.6877V22.333ZM19.3775 24.3328C19.3775 24.374 19.3775 24.3864 19.3775 24.411C19.3365 24.4936 19.2993 24.5596 19.2581 24.6378C18.6685 25.6483 17.4567 26.8068 14.9588 26.8068H14.9301C12.432 26.8068 11.2078 25.6483 10.6308 24.6378C10.5301 24.4529 10.4409 24.262 10.3635 24.066C10.2862 23.8704 10.2208 23.6699 10.1677 23.4662C10.1145 23.2624 10.074 23.0556 10.0459 22.8468C10.018 22.6381 10.0027 22.428 10 22.2175V18.7868C10.0004 18.576 10.0142 18.3654 10.0412 18.1564C10.0681 17.9474 10.1081 17.7402 10.1613 17.5364C10.2145 17.3324 10.2806 17.132 10.359 16.9363C10.4375 16.7407 10.5283 16.5503 10.6308 16.3662C11.2202 15.3519 12.432 14.1932 14.9301 14.1932H14.9588C17.4567 14.1932 18.681 15.3519 19.2581 16.3662C19.2993 16.4322 19.3611 16.5642 19.3611 16.5766C19.3611 16.5888 19.3611 16.6135 19.3611 16.6424C19.361 16.6578 19.3585 16.6728 19.3539 16.6874C19.3497 16.7019 19.343 16.7156 19.3347 16.7284C19.3265 16.7411 19.3162 16.7527 19.3047 16.7624C19.293 16.7724 19.2802 16.7806 19.2662 16.7868L17.399 17.7599C17.3933 17.7635 17.387 17.7667 17.3808 17.7697C17.3744 17.7725 17.368 17.7749 17.3613 17.777C17.3548 17.779 17.3481 17.7807 17.3413 17.7821C17.3345 17.7834 17.3276 17.7843 17.3208 17.7847C17.3041 17.785 17.2876 17.783 17.2716 17.7782C17.2555 17.7738 17.2402 17.7667 17.2263 17.7575C17.2125 17.7485 17.2 17.7371 17.1895 17.7243C17.1789 17.7114 17.1704 17.6971 17.1642 17.6817C17.0699 17.4706 16.9442 17.2753 16.7916 17.1021C16.6388 16.9288 16.4609 16.7796 16.2636 16.6596C16.0663 16.5394 15.8521 16.4499 15.6282 16.3939C15.404 16.3378 15.1728 16.3159 14.9424 16.3291C14.625 16.3113 14.3073 16.3581 14.0086 16.467C13.71 16.5758 13.4368 16.7443 13.2054 16.9623C12.9741 17.1804 12.7894 17.4432 12.6627 17.7349C12.5361 18.0264 12.4704 18.3408 12.4692 18.6588V22.3041C12.4704 22.6219 12.5361 22.9363 12.6627 23.228C12.7894 23.5198 12.9741 23.7824 13.2054 24.0004C13.4368 24.2185 13.71 24.3871 14.0086 24.496C14.3073 24.6049 14.625 24.6517 14.9424 24.6337C15.171 24.6474 15.4004 24.6269 15.623 24.5732C15.8456 24.5193 16.059 24.4329 16.2561 24.3163C16.4533 24.1999 16.6322 24.0546 16.7867 23.8855C16.9413 23.7163 17.0699 23.5253 17.1681 23.3184C17.1749 23.305 17.1835 23.2928 17.1935 23.2816C17.2036 23.2705 17.2152 23.2609 17.2277 23.2529C17.2404 23.245 17.254 23.2388 17.2684 23.2345C17.2827 23.2302 17.2976 23.228 17.3125 23.2277C17.3194 23.2284 17.3262 23.2293 17.333 23.2306C17.3397 23.232 17.3465 23.2337 17.353 23.2357C17.3597 23.2378 17.3661 23.2402 17.3722 23.2432C17.3786 23.246 17.3849 23.2489 17.3908 23.2524L19.2704 24.1884C19.284 24.1964 19.2965 24.2063 19.3075 24.2175C19.3186 24.2288 19.3283 24.2413 19.3362 24.2549C19.3442 24.2685 19.3502 24.2833 19.3543 24.2984C19.3587 24.3136 19.361 24.3293 19.3611 24.3452L19.3775 24.3328Z" fill="white"/>
</g>
<defs>
<clipPath id="clip0_1782_3103">
<rect width="40" height="40" fill="white"/>
</clipPath>
</defs>
</svg>
