<svg width="40" height="40" viewBox="0 0 40 40" fill="none" xmlns="http://www.w3.org/2000/svg">
<g clip-path="url(#clip0_1696_1733)">
<path d="M20 0C31.0457 0 40 8.9543 40 20C40 31.0457 31.0457 40 20 40C8.95431 40 7.90517e-06 31.0457 0 20C6.58765e-07 8.95431 8.95431 1.97595e-06 20 0Z" fill="#FFD9D9"/>
<path d="M26 6C30.4183 6 34 9.58172 34 14V26C34 30.4183 30.4183 34 26 34H14C9.58172 34 6 30.4183 6 26V14C6 9.58172 9.58172 6 14 6H26Z" fill="#FC0000"/>
<path fill-rule="evenodd" clip-rule="evenodd" d="M13.1614 12.9116C14.6217 14.6812 16.5116 16.3822 21.2535 17.7395C27.2153 19.3889 26.7514 20.2995 26.3219 21.3475C26.0127 22.1035 26.3735 22.1894 26.5281 22.241C27.3013 22.5159 29.294 22.8938 29.1739 23.7356C29.4144 23.9761 30.2735 24.9039 29.9128 25.5396C29.7886 25.3395 29.4841 25.0094 29.052 24.6679C28.6011 24.6471 27.9865 24.6768 27.2497 25.007C26.2704 25.4709 25.8751 25.4881 25.3941 25.4366C25.5315 25.6771 25.8236 26.0036 26.717 26.0723C27.6104 26.1238 28.0571 26.1581 27.5761 27.2062C27.5932 26.8969 27.5073 26.2784 26.614 26.3815C25.7206 26.4846 25.5145 27.2405 26.4766 27.6013C26.1673 27.6528 25.4972 27.6873 25.0333 26.5533C24.7069 26.6908 24.2086 26.9485 23.2808 26.2956C23.6073 26.3987 24.0025 26.4159 24.0025 26.4159C23.195 26.0551 22.4047 25.385 21.9236 24.7493C22.3188 25.0242 22.7482 25.2991 23.1949 25.3506C22.6795 24.7665 21.4769 23.581 19.9993 22.3784C20.9443 22.9454 22.0954 23.8558 23.951 23.6497C24.91 23.5441 25.7068 23.389 26.5768 23.4842C26.5321 23.4757 26.4873 23.4679 26.4422 23.4607C24.7069 23.1859 23.1262 23.77 21.8205 22.9109C20.7037 22.1206 20.5318 21.8286 19.4151 20.0074C18.9169 19.1828 18.8139 18.4439 17.113 17.0694C15.4121 15.6949 13.8314 14.9561 13.1614 12.9116ZM27.8853 23.4264C27.8853 23.4264 28.4695 23.6154 28.9334 23.9591C28.9334 23.6842 28.9849 23.5294 27.8853 23.4264Z" fill="white"/>
<path d="M14.2093 21.3302C14.9481 21.8113 16.4772 22.7563 18.0406 22.6532C17.8001 22.344 17.3706 22.1206 16.838 21.8801C17.4221 22.0003 19.209 22.3956 21.58 24.4745C20.3258 24.0106 20.068 23.9074 18.4531 23.5638C16.8552 23.203 15.2745 22.4814 14.2093 21.3302Z" fill="white"/>
<path d="M11.048 15.5404C12.7317 17.3616 14.5872 18.3237 15.6868 18.9422C18.0405 20.2307 18.6591 21.1413 18.9512 21.8457C17.8173 20.4541 16.2538 19.9729 15.3261 19.4403C11.9759 17.6364 11.2026 16.1933 11.048 15.5404Z" fill="white"/>
<path d="M10 12.379C12.4225 14.9562 14.2609 15.9527 15.5323 16.7602C18.1094 18.358 18.6419 19.4233 18.9512 20.2652C17.7142 18.5815 16.0649 18.0659 14.7935 17.2241C10.945 14.8703 10.1718 13.0663 10 12.379Z" fill="white"/>
</g>
<defs>
<clipPath id="clip0_1696_1733">
<rect width="40" height="40" fill="white"/>
</clipPath>
</defs>
</svg>
