<svg width="40" height="40" viewBox="0 0 40 40" fill="none" xmlns="http://www.w3.org/2000/svg">
<g clip-path="url(#clip0_1784_4112)">
<path d="M20 0C31.0457 0 40 8.9543 40 20C40 31.0457 31.0457 40 20 40C8.95431 40 7.90517e-06 31.0457 0 20C6.58765e-07 8.95431 8.95431 1.97595e-06 20 0Z" fill="#D9D9D9"/>
<path d="M26 6C30.4183 6 34 9.58172 34 14V26C34 30.4183 30.4183 34 26 34H14C9.58172 34 6 30.4183 6 26V14C6 9.58172 9.58172 6 14 6H26Z" fill="black"/>
<path fill-rule="evenodd" clip-rule="evenodd" d="M19.721 22.1922C15.2939 21.8185 13.3035 21.7238 11.6167 22.5425C11.5466 22.5671 11.5025 22.5866 11.4325 22.6372C11.4325 22.6372 11.173 23.0109 10.868 23.5001C10.5891 23.9244 10.2842 24.4382 10.0947 24.8119C10.0701 24.8573 10 24.9974 10 24.9974C10.519 24.6224 11.1275 24.4382 11.9463 24.3435C12.9298 24.2033 14.0963 24.2293 15.2939 24.2734C16.3228 24.3188 17.4452 24.3928 18.5727 24.4628C20.4697 24.5524 22.9039 23.5948 24.2364 22.283C24.2364 22.283 23.7226 22.3323 22.9739 22.3323C22.2253 22.3531 20.654 22.283 19.721 22.1922ZM28.0784 15.6604C27.0702 15.7759 25.9232 15.7552 24.7308 15.7059C23.6772 15.6604 22.5743 15.5904 21.4519 15.5411C19.5562 15.4515 17.0961 16.4091 15.7831 17.7222C15.7831 17.7222 16.3021 17.6716 17.0507 17.6716C17.7994 17.6521 19.346 17.7222 20.3049 17.791C24.7308 18.166 26.7212 18.2801 28.4028 17.4627C28.4534 17.4173 28.4975 17.3926 28.5675 17.368C28.5675 17.368 28.8517 16.9683 29.1566 16.5038C29.4109 16.0601 29.7158 15.5411 29.9053 15.1674C29.9247 15.122 30 15.0026 30 15.0026C29.5056 15.3568 28.8971 15.5657 28.0784 15.6604ZM14.566 18.89C13.7875 19.6849 13.0622 20.505 12.39 21.3501C15.7831 20.107 21.1483 21.7238 25.434 21.1152C25.8985 20.6702 27.2804 19.0989 27.61 18.6344C24.2169 19.8722 18.8776 18.2555 14.566 18.89Z" fill="white"/>
</g>
<defs>
<clipPath id="clip0_1784_4112">
<rect width="40" height="40" fill="white"/>
</clipPath>
</defs>
</svg>
