<svg width="40" height="40" viewBox="0 0 40 40" fill="none" xmlns="http://www.w3.org/2000/svg">
<g clip-path="url(#clip0_1691_91)">
<path d="M20 0C31.0457 0 40 8.9543 40 20C40 31.0457 31.0457 40 20 40C8.95431 40 7.90517e-06 31.0457 0 20C6.58765e-07 8.95431 8.95431 1.97595e-06 20 0Z" fill="#D9E9E1"/>
<path d="M26 6C30.4183 6 34 9.58172 34 14V26C34 30.4183 30.4183 34 26 34H14C9.58172 34 6 30.4183 6 26V14C6 9.58172 9.58172 6 14 6H26Z" fill="#006937"/>
<path d="M20.6099 11.1356C19.756 10.9411 18.8556 10.8366 17.9039 10.8333H12.5V29.1667H17.9039C20.9486 29.1618 23.3288 28.376 25.0444 26.8089C25.8101 26.1081 26.3991 25.2483 26.8277 24.2487C26.1759 24.4528 25.229 24.4029 24.5726 24.4078C23.21 24.3966 22.2069 23.9931 21.5649 23.1992C20.9212 22.4068 20.6034 21.2914 20.6099 19.8562V11.1356ZM27.4038 22.3667C27.5611 21.5887 27.651 20.753 27.6606 19.8418C27.6414 17.9533 27.2 16.338 26.3365 14.9976C25.4746 13.6556 24.3111 12.6286 22.8456 11.9134C22.7542 11.8684 22.6546 11.8379 22.56 11.7961V19.0461C22.5471 20.2789 22.7076 21.2063 23.0431 21.8266C23.3769 22.4453 23.9644 22.7796 24.8021 22.8279C25.8438 22.8086 26.8533 23.0031 27.4038 22.3667Z" fill="white"/>
<mask id="mask0_1691_91" style="mask-type:luminance" maskUnits="userSpaceOnUse" x="12" y="10" width="16" height="20">
<path d="M12.5 10.8333V29.1651H17.9039C20.9486 29.1618 23.3288 28.376 25.0444 26.8089C25.8101 26.1098 26.3991 25.2483 26.8277 24.2471C26.29 24.4174 25.5484 24.4126 24.9386 24.4093C24.8102 24.4078 24.6865 24.4062 24.5726 24.4078C23.21 24.3966 22.2069 23.9931 21.5649 23.1992C20.9212 22.4068 20.6034 21.2914 20.6099 19.8562V11.1356C19.756 10.9411 18.8556 10.8366 17.9039 10.8333H12.5ZM22.56 19.0461C22.5471 20.2789 22.7076 21.2046 23.0431 21.8266C23.3769 22.4453 23.9627 22.7796 24.8021 22.8279C25.0155 22.8247 25.2275 22.8295 25.4345 22.8343C26.2386 22.8536 26.9657 22.8713 27.4038 22.365C27.5611 21.5872 27.651 20.753 27.6606 19.8418C27.6414 17.9533 27.2 16.338 26.3382 14.996C25.4746 13.6556 24.3126 12.6286 22.8456 11.9134C22.7542 11.8684 22.6531 11.8379 22.56 11.7961" fill="white"/>
</mask>
<g mask="url(#mask0_1691_91)">
<path d="M21.7366 10.4557L22.3144 21.4424L24.0991 23.1541L27.017 23.5897L27.6767 23.3342L28.171 15.8254L25.4489 12.7684" fill="white"/>
</g>
</g>
<defs>
<clipPath id="clip0_1691_91">
<rect width="40" height="40" fill="white"/>
</clipPath>
</defs>
</svg>
