<svg width="40" height="40" viewBox="0 0 40 40" fill="none" xmlns="http://www.w3.org/2000/svg">
<g clip-path="url(#clip0_1782_3037)">
<path d="M20 0C31.0457 0 40 8.9543 40 20C40 31.0457 31.0457 40 20 40C8.95431 40 7.90517e-06 31.0457 0 20C6.58765e-07 8.95431 8.95431 1.97595e-06 20 0Z" fill="#D7E5D5"/>
<path d="M26 6C30.4183 6 34 9.58172 34 14V26C34 30.4183 30.4183 34 26 34H14C9.58172 34 6 30.4183 6 26V14C6 9.58172 9.58172 6 14 6H26Z" fill="#367C2B"/>
<g clip-path="url(#clip1_1782_3037)">
<path d="M19.9987 10.9674C17.1179 10.9676 14.1797 11.5886 11.419 12.9237C10.4442 15.2577 10 17.6607 10 20.0057C10 22.3441 10.4382 24.7201 11.413 27.0758C14.1873 28.4175 17.1142 29.0326 19.9997 29.0326C22.8867 29.0326 25.8143 28.4176 28.5855 27.0759C29.5603 24.7197 30 22.3439 30 20.0057C30 17.6607 29.5546 15.2577 28.5805 12.9236C25.8202 11.5886 22.8828 10.9675 19.9997 10.9673L19.9987 10.9674ZM19.9987 11.7307C22.8475 11.7307 25.5793 12.3614 27.9761 13.4852C28.7854 15.51 29.2282 17.7078 29.2282 20.0057C29.2282 22.2981 28.7883 24.4937 27.9816 26.5137C25.5833 27.6392 22.8501 28.2698 19.9987 28.2698C17.149 28.2698 14.4157 27.6392 12.0175 26.5137C11.2117 24.4937 10.7702 22.2982 10.7702 20.0057C10.7702 17.7079 11.2123 15.5102 12.0219 13.4852C14.4205 12.3613 17.1511 11.7307 19.9987 11.7307ZM19.9982 12.3032C17.3917 12.3032 14.7988 12.8597 12.48 13.9065C11.7303 15.8563 11.3478 17.9062 11.3478 20.0057C11.3478 22.1002 11.7296 24.1457 12.4755 26.0945C14.7947 27.1428 17.3904 27.6967 19.9982 27.6967C22.6074 27.6967 25.2027 27.1428 27.5215 26.0945L27.5249 26.092C27.0208 25.2622 26.3433 24.5917 26.336 24.5854C26.3277 24.5812 26.1951 24.5401 26.1951 24.5401C24.7579 24.0984 23.8158 23.7665 23.3994 23.5507C22.8264 23.2532 22.2244 22.5307 22.1582 22.4494C21.4864 22.3987 20.9307 22.4096 20.3961 22.4743L20.0555 22.5186C19.4061 22.6024 18.7355 22.6913 18.0783 22.5858C17.6408 22.5142 17.2162 22.3744 16.7659 22.2278C16.0722 22.0007 15.3617 21.7675 14.5497 21.7687H14.5175L14.5314 21.7977C14.7159 22.1565 15.4446 23.2451 16.3572 23.5443C16.5586 23.5927 16.7043 23.6462 16.7675 23.6957C16.7675 23.6978 17.1168 24.4087 17.2121 24.6008C16.6442 24.343 14.8879 23.4497 13.4709 21.7255V21.723C13.4709 21.7 13.4342 21.3647 13.4266 21.2913C14.2704 20.9765 16.1705 20.7938 16.3846 20.7735L16.4001 20.772L16.407 20.7551C16.5204 19.7554 16.7571 18.9553 17.2007 18.0793C17.2134 18.0529 17.2211 18.0287 17.2211 18.0077C17.2208 17.9926 17.217 17.9777 17.2101 17.9643C17.1852 17.9172 17.1246 17.9081 17.122 17.9081L15.8288 17.6825C15.7824 17.5401 15.7358 17.3977 15.689 17.2553C16.621 16.9087 17.7702 16.5841 18.4279 16.4412C18.5391 16.2637 18.5702 16.1674 18.5702 16.0514C18.5702 15.953 18.5228 15.8689 18.4279 15.8045C17.9617 15.4883 16.4933 15.6788 15.0079 16.2487C15.0046 16.2426 15.0048 16.241 15.0004 16.2347C15.3088 16.0039 15.8602 15.6613 16.269 15.4713L16.2849 15.4624L16.2799 15.447C16.1691 15.0712 15.4434 14.7837 15.3618 14.7544C15.3635 14.7417 15.3651 14.7334 15.3663 14.7236C16.104 14.6732 16.5936 15.0182 16.743 15.2642L16.7505 15.2762L16.7649 15.2717C16.8596 15.2412 17.1928 15.1352 17.5536 15.0925L17.575 15.0915L17.569 15.0696C17.4505 14.4377 16.8475 14.0157 16.6419 13.8886C16.6478 13.8783 16.6497 13.8744 16.6554 13.8672C17.3676 13.9222 18.0253 14.5357 18.1735 15.0542L18.1774 15.0681L18.1924 15.0696C18.3836 15.0762 18.6152 15.0972 18.7704 15.1233L18.7864 15.1263L18.7923 15.1129C18.8499 14.9765 18.8792 14.8298 18.8785 14.6817C18.8785 14.2149 18.6148 13.7146 18.2905 13.3982C18.2968 13.3892 18.2997 13.3809 18.3079 13.3732C19.2435 13.7282 19.4814 14.4025 19.4814 15.0302C19.4814 15.4697 19.3649 15.8883 19.2898 16.155L19.2584 16.2655L20.7292 16.0877C20.589 16.2652 20.2868 16.5812 19.6836 16.9142C19.6836 16.9111 19.0617 16.8351 19.0617 16.8351L19.0458 16.8326L19.0403 16.8486C18.9986 16.9769 18.6345 18.1265 18.6325 18.9716C18.6325 19.2849 18.7215 19.5279 18.8964 19.6955C19.2081 19.9954 19.7242 20.0122 20.0849 19.9982C21.6186 19.9422 22.8153 20.0363 23.6458 20.2821L23.6952 20.2955L23.7027 20.2841C23.7542 20.2047 23.7947 20.0574 23.7947 19.8623C23.7947 19.4921 23.6463 18.9401 23.1479 18.3158C23.1533 18.3114 23.1535 18.3082 23.1599 18.3034C23.2424 18.349 24.5879 19.1131 24.7676 20.2666C24.7361 20.2787 24.1228 20.5291 24.1228 20.5291L24.1427 20.5489C24.7112 21.1442 24.9074 21.8636 25.0648 22.4394C25.1901 22.8957 25.3397 23.1869 25.5378 23.3581C25.7676 23.5562 26.6378 23.9719 26.8991 24.0939C27.1163 24.4027 27.4901 24.9808 27.761 25.4288C28.3508 23.6816 28.6511 21.8498 28.6502 20.0057C28.6502 17.9062 28.2668 15.8562 27.518 13.9065C25.1998 12.8597 22.6047 12.3032 19.9982 12.3032Z" fill="white"/>
</g>
</g>
<defs>
<clipPath id="clip0_1782_3037">
<rect width="40" height="40" fill="white"/>
</clipPath>
<clipPath id="clip1_1782_3037">
<rect width="20" height="20" fill="white" transform="translate(10 10)"/>
</clipPath>
</defs>
</svg>
