<svg width="40" height="40" viewBox="0 0 40 40" fill="none" xmlns="http://www.w3.org/2000/svg">
<g clip-path="url(#clip0_819_3551)">
<path d="M20 0C31.0457 0 40 8.9543 40 20C40 31.0457 31.0457 40 20 40C8.95431 40 7.90517e-06 31.0457 0 20C6.58765e-07 8.95431 8.95431 1.97595e-06 20 0Z" fill="#FBD3D3"/>
<path d="M26 6C30.4183 6 34 9.58172 34 14V26C34 30.4183 30.4183 34 26 34H14C9.58172 34 6 30.4183 6 26V14C6 9.58172 9.58172 6 14 6H26Z" fill="#ED2224"/>
<g clip-path="url(#clip1_819_3551)">
<path d="M28.666 16.4908V22.3283L27.3335 22.795V16.0258L23.3335 14.6308V24.1908L21.9993 24.655V14.1633L20.0002 13.4667L18.0002 14.1633V24.655L16.6677 24.1908V14.6308L12.6668 16.0267V22.7942L11.3343 22.3275V16.4917L10.0002 16.9575V23.2758L14.001 24.6725V16.9725L15.3343 16.5075V25.1375L19.3335 26.5333V15.1108L20.0002 14.8775L20.6668 15.1108V26.5342L24.6677 25.1375V16.5075L26.0002 16.9725V24.6725L30.0002 23.275V16.9575L28.666 16.4908Z" fill="white"/>
</g>
</g>
<defs>
<clipPath id="clip0_819_3551">
<rect width="40" height="40" fill="white"/>
</clipPath>
<clipPath id="clip1_819_3551">
<rect width="20" height="20" fill="white" transform="translate(10 10)"/>
</clipPath>
</defs>
</svg>
