<svg width="40" height="40" viewBox="0 0 40 40" fill="none" xmlns="http://www.w3.org/2000/svg">
<g clip-path="url(#clip0_1779_694)">
<path d="M20 0C31.0457 0 40 8.9543 40 20C40 31.0457 31.0457 40 20 40C8.95431 40 7.90517e-06 31.0457 0 20C6.58765e-07 8.95431 8.95431 1.97595e-06 20 0Z" fill="#E7E6FE"/>
<path d="M26 6C30.4183 6 34 9.58172 34 14V26C34 30.4183 30.4183 34 26 34H14C9.58172 34 6 30.4183 6 26V14C6 9.58172 9.58172 6 14 6H26Z" fill="#5D57F8"/>
<path d="M17.1739 18.3824C17.4719 18.3824 17.7543 18.466 18 18.6333C18.0052 18.6438 18.0209 18.649 18.0261 18.6543H18.0314C18.0418 18.6595 18.0523 18.6699 18.0628 18.6751C18.1203 18.717 18.183 18.7693 18.2353 18.8216L18.2614 18.8425L17.7176 19.4176L17.6915 19.3968C17.6601 19.3706 17.6235 19.3392 17.5922 19.3183C17.4667 19.2347 17.3255 19.1928 17.1791 19.1928C16.7765 19.1928 16.4471 19.5275 16.447 19.9405V21.049C16.447 21.4621 16.7765 21.7967 17.1791 21.7967C17.5817 21.7967 17.9111 21.4621 17.9111 21.049V20.8817H17.4196V20.0765H18.7007V21.0595C18.7007 21.9222 18.0157 22.6176 17.1739 22.6176C16.332 22.6176 15.6471 21.917 15.6471 21.0595V19.9405C15.6471 19.0778 16.332 18.3824 17.1739 18.3824Z" fill="white"/>
<path d="M20.2327 21.07C20.2327 21.4673 20.5516 21.7915 20.9438 21.7915C21.3359 21.7915 21.6549 21.4673 21.6549 21.07V18.3824H22.4654V21.1065C22.4497 21.9431 21.7699 22.6176 20.9386 22.6176C20.0967 22.6176 19.4118 21.9222 19.4118 21.07V18.3824H20.2327V21.07Z" fill="white"/>
<path d="M12.4104 20.8608H10.8V22.4608H10V20.0608H12.4104V20.8608Z" fill="white"/>
<path d="M14.4706 22.3824H13.5294V18.3824H14.4706V22.3824Z" fill="white"/>
<path fill-rule="evenodd" clip-rule="evenodd" d="M25.132 18.3824C25.8431 18.3824 26.4235 18.9732 26.4235 19.7C26.4235 20.1915 26.1569 20.6203 25.7647 20.8503L26.4706 22.3771H25.6131L24.9752 21.0177H24.4262V22.3824H23.6471V18.3824H25.132ZM24.4314 20.2281H25.1268C25.4091 20.2281 25.634 19.9928 25.634 19.7052C25.634 19.4124 25.4039 19.1823 25.1268 19.1823H24.4314V20.2281Z" fill="white"/>
<path d="M30 18.3824V19.1823H28.4314V19.9823H30V20.7824H28.4314V21.5824H30V22.3824H27.6471V18.3824H30Z" fill="white"/>
<path d="M12.4104 19.2608H10V18.4608H12.4104V19.2608Z" fill="white"/>
</g>
<defs>
<clipPath id="clip0_1779_694">
<rect width="40" height="40" fill="white"/>
</clipPath>
</defs>
</svg>
