<svg width="40" height="40" viewBox="0 0 40 40" fill="none" xmlns="http://www.w3.org/2000/svg">
<g clip-path="url(#clip0_1691_82)">
<path d="M20 0C31.0457 0 40 8.9543 40 20C40 31.0457 31.0457 40 20 40C8.95431 40 7.90517e-06 31.0457 0 20C6.58765e-07 8.95431 8.95431 1.97595e-06 20 0Z" fill="#D9DAE6"/>
<path d="M26 6C30.4183 6 34 9.58172 34 14V26C34 30.4183 30.4183 34 26 34H14C9.58172 34 6 30.4183 6 26V14C6 9.58172 9.58172 6 14 6H26Z" fill="#00095B"/>
<g clip-path="url(#clip1_1691_82)">
<path fill-rule="evenodd" clip-rule="evenodd" d="M29.9526 18.455C29.9999 18.455 30.0158 18.485 30.0001 18.515C29.8738 18.725 27.3638 22.34 27.2691 22.715C27.2218 22.835 27.2218 22.925 27.2691 22.985C27.3954 23.165 27.6954 23.06 27.8691 22.94C28.4057 22.595 28.7845 22.16 29.1949 21.785C29.2265 21.77 29.2582 21.755 29.2897 21.785C29.3529 21.83 29.4475 21.905 29.5106 21.965C29.5422 21.995 29.5264 22.025 29.5106 22.04C29.116 22.505 28.6583 22.9551 28.2321 23.2701C27.5533 23.7651 26.8902 23.8851 26.5587 23.5701C26.4325 23.4651 26.3694 23.2849 26.3536 23.1499C26.3535 23.075 26.3062 23.075 26.2746 23.105C25.88 23.48 25.2013 23.8849 24.5699 23.5999C24.0648 23.3599 23.9384 22.76 24.0331 22.265C24.0331 22.25 24.0173 22.1751 23.9542 22.2201C23.8437 22.2951 23.7017 22.3851 23.5281 22.4451C23.3071 22.5201 23.2123 22.5499 23.007 22.5499C22.7545 22.5499 22.5178 22.445 22.3599 22.205C22.2652 22.085 22.2336 21.89 22.2178 21.74C22.2178 21.71 22.202 21.695 22.1705 21.7249C21.7443 22.3399 21.3497 22.9401 20.9235 23.5701C20.9077 23.6 20.8919 23.615 20.8446 23.615H20.0078C19.9605 23.615 19.929 23.5699 19.9605 23.5249C20.1026 23.2399 20.9077 22.13 21.4601 21.1701C21.618 20.9151 21.5864 20.7801 21.4917 20.7201C21.3654 20.6451 21.1444 20.75 20.9392 20.8999C20.4025 21.2899 19.9605 21.89 19.7237 22.16C19.5975 22.325 19.4554 22.565 19.1082 22.9249C18.5557 23.4949 17.8138 23.8249 17.1034 23.5999C16.7088 23.48 16.4404 23.18 16.3299 22.8201C16.2983 22.7451 16.2667 22.73 16.2194 22.7749C16.0931 22.9099 15.8563 23.12 15.6669 23.24C15.6353 23.2551 15.588 23.3 15.5406 23.2701C15.4933 23.255 15.3513 23.0599 15.3197 22.9999C15.304 22.955 15.3196 22.925 15.3512 22.8951C15.6195 22.6701 15.7774 22.535 15.9037 22.385C15.9826 22.28 16.0615 22.16 16.1404 21.965C16.3141 21.56 16.7087 20.795 17.4822 20.405C17.7821 20.255 18.0821 20.135 18.4136 20.105C18.5556 20.09 18.6662 20.105 18.7136 20.21C18.7294 20.255 18.7609 20.3451 18.7925 20.4201C18.8082 20.4501 18.7923 20.495 18.745 20.51C18.2873 20.675 17.8295 20.93 17.5138 21.335C17.1507 21.785 17.0561 22.34 17.2929 22.655C17.4665 22.88 17.7506 22.91 18.0189 22.835C18.4294 22.715 18.7924 22.34 18.9661 21.935C19.1555 21.5 19.1871 20.975 19.045 20.51C19.0134 20.435 19.045 20.375 19.0923 20.33C19.2028 20.255 19.3449 20.195 19.3923 20.165C19.4712 20.1201 19.5975 20.1501 19.6448 20.2251C19.7868 20.4351 19.8658 20.735 19.8816 21.0499C19.8974 21.1099 19.9289 21.11 19.9605 21.08C20.2289 20.81 20.4815 20.5251 20.7657 20.3001C21.034 20.0901 21.3655 19.925 21.6812 19.94C22.0916 19.9401 22.2968 20.2101 22.281 20.6751C22.281 20.735 22.3284 20.735 22.3599 20.69C22.4862 20.525 22.5652 20.435 22.7072 20.33C22.9913 20.105 23.2755 20.015 23.5754 20.03C23.9385 20.045 24.2384 20.375 24.1752 20.735C24.1437 20.975 24.0174 21.185 23.7806 21.29C23.5754 21.38 23.3544 21.365 23.1965 21.23C23.0703 21.11 23.023 20.96 23.0545 20.7951C23.0545 20.7651 23.0072 20.7351 22.9756 20.765C22.6125 21.125 22.581 21.5899 22.8177 21.7999C23.0703 22.0249 23.4649 21.8751 23.749 21.6951C24.2699 21.3801 24.6645 20.9451 25.1381 20.6001C25.4538 20.3751 25.8011 20.1651 26.1957 20.1201C26.4167 20.0901 26.622 20.1201 26.843 20.1951C27.1271 20.3151 27.3007 20.54 27.3323 20.735C27.3481 20.795 27.3954 20.795 27.4269 20.7501C27.6479 20.4201 28.8634 18.6951 28.9581 18.515C28.9897 18.47 29.0213 18.455 29.0844 18.455H29.9526ZM26.6377 20.735C26.3378 20.6001 25.88 20.8551 25.4697 21.335C25.1382 21.725 24.9488 22.1301 24.9488 22.5201C24.933 22.6551 24.9961 22.8351 25.1223 22.8951C25.4065 23.045 25.7537 22.8199 26.0063 22.6249C26.1641 22.505 26.3062 22.37 26.4325 22.19C26.5588 22.01 26.6536 21.89 26.7641 21.665C26.7798 21.6351 26.7798 21.6201 26.7641 21.6201C26.7325 21.6051 26.6852 21.5751 26.6852 21.5451C26.6852 21.5301 26.6851 21.5 26.7166 21.485C26.8429 21.215 26.9534 20.87 26.6377 20.735Z" fill="white"/>
<path fill-rule="evenodd" clip-rule="evenodd" d="M15.0829 16.2951C16.9298 16.1451 18.682 16.61 20.5289 16.835C21.9337 17 23.2912 17 24.6961 16.685C24.8697 16.655 24.9803 16.76 24.9645 16.91C24.9487 17.135 24.7592 17.36 24.3015 17.615C23.7648 17.885 23.2123 17.9749 22.644 17.9749C21.2233 17.9749 19.929 17.45 18.5714 17.18C18.5714 17.24 18.5872 17.3001 18.5398 17.3451C17.7979 17.8701 17.1192 18.3951 16.6615 19.1451C16.6457 19.1601 16.6456 19.1749 16.6772 19.1749C17.0718 19.1599 17.4191 19.145 17.7979 19.115C17.861 19.115 17.8611 19.1 17.8611 19.055C17.8295 18.8 17.9084 18.5 18.1452 18.305C18.382 18.095 18.6977 18.08 18.9029 18.23C19.1396 18.395 19.1081 18.71 18.9818 18.935C18.8555 19.175 18.6504 19.295 18.4452 19.355C18.4452 19.355 18.3979 19.37 18.4136 19.3999C18.4294 19.4599 18.6977 19.61 18.7293 19.64C18.7608 19.67 18.745 19.73 18.6977 19.7749C18.6661 19.8049 18.6188 19.835 18.5714 19.835C18.5241 19.835 18.4924 19.82 18.4293 19.79C18.303 19.73 18.1453 19.625 18.0506 19.49C18.019 19.445 18.0031 19.4451 17.9084 19.4451C17.5138 19.4751 16.8982 19.52 16.472 19.565C16.3773 19.58 16.3614 19.595 16.3299 19.6249C15.6669 20.6749 14.9408 21.8 14.1673 22.565C13.2991 23.375 12.6046 23.5999 11.8627 23.5999C10.9313 23.5999 10.1105 23.06 10.0158 22.115C9.96841 21.59 10.1264 21.125 10.4263 20.735C10.7104 20.39 11.1682 20.105 11.5786 20.03C11.7048 20 11.8784 20.015 11.9573 20.105C12.0678 20.225 12.0363 20.375 11.9259 20.4201C11.626 20.5701 11.2628 20.8251 11.0734 21.1701C10.9314 21.4551 10.8997 21.785 11.1207 22.115C11.4996 22.655 12.5415 22.67 13.5044 21.815C13.7412 21.605 13.9622 21.4101 14.1831 21.1701C14.6094 20.7051 14.7515 20.54 15.3197 19.79C15.3197 19.775 15.3355 19.775 15.3197 19.76C15.3197 19.745 15.3039 19.7451 15.2881 19.7451C14.9093 19.7451 14.5778 19.85 14.2621 20.0749C14.1674 20.1349 14.0411 20.135 13.978 20.0451C13.9148 19.9551 13.9621 19.82 14.0726 19.76C14.5935 19.415 15.1618 19.355 15.7301 19.265C15.7307 19.265 15.7621 19.2646 15.809 19.2201C16.0458 18.9351 16.2195 18.665 16.472 18.38C16.7246 18.08 17.0561 17.8099 17.3086 17.5999C17.6559 17.315 17.8768 17.225 18.1136 17.105C18.1766 17.075 18.0981 17.0452 18.0822 17.0451C16.8036 16.8201 15.4776 16.5201 14.2147 16.9701C13.3308 17.2851 12.9519 17.945 13.1412 18.38C13.2675 18.695 13.7095 18.74 14.1199 18.56C14.4514 18.395 14.7671 18.1549 14.9881 17.8249C15.1144 17.645 15.367 17.7801 15.2249 18.0951C14.8461 18.92 14.1515 19.58 13.2834 19.61C12.5414 19.64 12.0837 19.115 12.0837 18.485C12.0837 17.24 13.5518 16.4151 15.0829 16.2951ZM18.682 18.455C18.6188 18.395 18.5082 18.41 18.4293 18.485C18.2557 18.605 18.2085 18.8 18.24 18.9499C18.2558 19.0099 18.2715 19.01 18.3031 19.01C18.4293 18.98 18.5714 18.8901 18.6504 18.7701C18.7293 18.6651 18.7609 18.515 18.682 18.455Z" fill="white"/>
</g>
</g>
<defs>
<clipPath id="clip0_1691_82">
<rect width="40" height="40" fill="white"/>
</clipPath>
<clipPath id="clip1_1691_82">
<rect width="20" height="7.5" fill="white" transform="translate(10 16.25)"/>
</clipPath>
</defs>
</svg>
