<svg width="40" height="40" viewBox="0 0 40 40" fill="none" xmlns="http://www.w3.org/2000/svg">
<g clip-path="url(#clip0_1779_579)">
<path d="M20 0C31.0457 0 40 8.9543 40 20C40 31.0457 31.0457 40 20 40C8.95431 40 7.90517e-06 31.0457 0 20C6.58765e-07 8.95431 8.95431 1.97595e-06 20 0Z" fill="#D9D9D9"/>
<path d="M26 6C30.4183 6 34 9.58172 34 14V26C34 30.4183 30.4183 34 26 34H14C9.58172 34 6 30.4183 6 26V14C6 9.58172 9.58172 6 14 6H26Z" fill="black"/>
<g clip-path="url(#clip1_1779_579)">
<path d="M23.0705 9.99536C19.5529 9.99536 16.5646 12.7025 16.1882 16.1864C12.7058 16.5631 10 19.5527 10 23.072C10 26.8973 13.1059 30.0046 16.9294 30.0046C20.447 30.0046 23.447 27.2974 23.8117 23.8134C27.2941 23.4369 30 20.4472 30 16.928C30 13.1027 26.8941 9.99536 23.0705 9.99536ZM28.3765 17.7048C28.0353 20.0235 26.1765 21.8832 23.8588 22.2245V17.7048H28.3765ZM11.6236 22.2951C11.9647 19.9647 13.8235 18.105 16.1412 17.7636V22.2833H11.6236V22.2951ZM22.2354 23.8605C21.8471 26.4854 19.6001 28.4392 16.9295 28.4392C14.2589 28.4392 12.0118 26.4854 11.6236 23.8605H22.2354ZM22.2941 17.7048V22.2833H17.7059V17.7048H22.2941ZM28.3765 16.1393H17.7647C18.1529 13.5147 20.4 11.5608 23.0706 11.5608C25.7412 11.5608 27.9883 13.5147 28.3765 16.1393Z" fill="white"/>
</g>
</g>
<defs>
<clipPath id="clip0_1779_579">
<rect width="40" height="40" fill="white"/>
</clipPath>
<clipPath id="clip1_1779_579">
<rect width="20" height="20" fill="white" transform="translate(10 10)"/>
</clipPath>
</defs>
</svg>
