<svg width="40" height="40" viewBox="0 0 40 40" fill="none" xmlns="http://www.w3.org/2000/svg">
<g clip-path="url(#clip0_1691_152)">
<path d="M20 0C31.0457 0 40 8.9543 40 20C40 31.0457 31.0457 40 20 40C8.95431 40 7.90517e-06 31.0457 0 20C6.58765e-07 8.95431 8.95431 1.97595e-06 20 0Z" fill="#DDF3E4"/>
<path d="M26 6C30.4183 6 34 9.58172 34 14V26C34 30.4183 30.4183 34 26 34H14C9.58172 34 6 30.4183 6 26V14C6 9.58172 9.58172 6 14 6H26Z" fill="#1AAE48"/>
<path d="M29.2742 18.5524C28.8054 18.0838 28.1902 17.8258 27.5417 17.8258C27.0674 17.8258 26.5909 18.0024 26.3289 18.1768C25.7867 18.538 25.341 18.9301 24.5387 19.9667V20.7118C25.2194 19.825 25.8636 19.1262 26.3526 18.7418C26.674 18.4837 27.13 18.3238 27.5417 18.3238C28.6041 18.3238 29.5021 19.2214 29.5021 20.2844V20.7328C29.5021 21.258 29.2958 21.7515 28.92 22.1229C28.5481 22.4909 28.0581 22.6935 27.5417 22.6935C26.6686 22.6935 25.9 22.0942 25.6911 21.2757L25.3402 21.7012C25.5962 22.5587 26.5206 23.1914 27.5417 23.1914C28.1902 23.1914 28.8054 22.9329 29.2742 22.4653C29.7423 21.9968 30 21.3816 30 20.7328V20.2844C30 19.6358 29.7423 19.0204 29.2742 18.5524ZM18.6073 18.3238C18.9456 18.3238 19.2382 18.3965 19.5023 18.546C19.6264 18.3909 19.7517 18.2649 19.8451 18.1716C19.5657 17.9583 19.0926 17.8258 18.6073 17.8258C17.9157 17.8258 17.2876 18.0752 16.8392 18.5284C16.394 18.9776 16.1482 19.6011 16.1482 20.2844V23.1914H16.6461V20.2844C16.6461 19.13 17.4526 18.3238 18.6073 18.3238ZM23.3394 23.1914V20.2844C23.3394 19.3906 22.6392 18.6903 21.7453 18.6903C21.3291 18.6903 20.9317 18.8589 20.6255 19.1647C20.3199 19.4703 20.1515 19.8684 20.1515 20.2844V20.7328C20.1515 21.5966 20.8817 22.327 21.7453 22.327C21.9821 22.327 22.3045 22.2687 22.5018 22.1068V21.5805C22.3079 21.7363 22.0266 21.829 21.7453 21.829C21.131 21.829 20.6494 21.3472 20.6494 20.7328V20.2844C20.6494 19.6699 21.131 19.1888 21.7453 19.1888C22.3602 19.1888 22.8414 19.6699 22.8414 20.2844V23.1914H23.3394ZM10 19.9958V20.1566C10 21.02 10.3275 21.8257 10.9226 22.4249C11.5162 23.0227 12.3119 23.3515 13.163 23.3515C13.8474 23.3515 14.4533 23.1966 14.9648 22.8924C15.3866 22.6409 15.5735 22.3868 15.5896 22.3636V19.6829H13.0421V20.1811H15.0916V22.2088L15.0896 22.2106C14.8496 22.451 14.28 22.8531 13.163 22.8531C12.4352 22.8531 11.7614 22.5757 11.2645 22.0709C10.7701 21.5684 10.4979 20.8885 10.4979 20.1566V19.9958C10.4979 19.3048 10.8096 18.6154 11.3527 18.1054C11.9072 17.5856 12.6296 17.2991 13.3872 17.2991C14.0937 17.2991 14.586 17.4063 14.9813 17.6458V17.0869C14.5697 16.9118 14.0778 16.8332 13.3872 16.8332C11.5513 16.8332 10 18.2818 10 19.9958ZM18.6073 19.1888C18.7962 19.1888 18.9563 19.2201 19.0837 19.2821C19.1457 19.1275 19.2093 19 19.302 18.8453C19.1666 18.7485 18.8443 18.6903 18.6073 18.6903C17.6987 18.6903 17.0133 19.3756 17.0133 20.2844V23.1914H17.5113V20.2844C17.5113 19.639 17.9621 19.1888 18.6073 19.1888ZM14.9813 18.6041V18.0153C14.5308 17.7736 14.0391 17.6658 13.3872 17.6658C12.722 17.6658 12.0914 17.91 11.6109 18.3522C11.13 18.796 10.8649 19.3797 10.8649 19.9958V20.1566C10.8649 21.4416 11.8956 22.4869 13.163 22.4869C14.1939 22.4869 14.6171 22.1495 14.7249 22.0428V20.5478H13.0421V21.0456H14.259V21.7947L14.2546 21.7962C14.098 21.8586 13.7729 21.9887 13.163 21.9887C12.6796 21.9887 12.2273 21.8007 11.8891 21.4584C11.5493 21.1149 11.3628 20.6523 11.3628 20.1566V19.9958C11.3628 19.0028 12.2899 18.1641 13.3872 18.1641C14.1463 18.1641 14.5951 18.287 14.9813 18.6041ZM26.7361 19.5423C26.9608 19.3181 27.255 19.1888 27.5417 19.1888C28.156 19.1888 28.6379 19.6699 28.6379 20.2844V20.7328C28.6379 21.3472 28.156 21.829 27.5417 21.829C27.2442 21.829 26.9568 21.6655 26.7317 21.3701C26.5322 21.1088 26.4029 20.7553 26.3829 20.4376L25.9797 20.93C26.0589 21.3066 26.2557 21.6675 26.5339 21.9212C26.821 22.1825 27.1789 22.327 27.5417 22.327C28.4209 22.327 29.1355 21.6118 29.1355 20.7328V20.2844C29.1355 19.8684 28.9671 19.4703 28.6615 19.1647C28.3554 18.8589 27.9579 18.6903 27.5417 18.6903C27.2785 18.6903 26.86 18.7847 26.3612 19.2331L26.3595 19.2349C26.2261 19.3684 25.9126 19.6818 25.722 19.9053C25.4014 20.2551 24.9355 20.7831 24.5387 21.3114V22.089C24.9791 21.523 25.2327 21.206 25.6467 20.7279C26.0175 20.2953 26.4764 19.7695 26.7361 19.5423ZM19.287 20.7328C19.287 21.3816 19.545 21.9968 20.0131 22.4653C20.4817 22.9329 21.0969 23.1914 21.7453 23.1914C22.0201 23.1914 22.3022 23.1328 22.5018 23.0344V22.5369C22.2687 22.6345 21.9871 22.6935 21.7453 22.6935C20.6829 22.6935 19.7847 21.7958 19.7847 20.7328V20.2844C19.7847 19.2214 20.6829 18.3238 21.7453 18.3238C22.2736 18.3238 22.7674 18.526 23.1358 18.8944C23.5038 19.2624 23.706 19.7561 23.706 20.2844V23.1914H24.204V20.1886C24.173 19.5541 23.9021 18.9605 23.4414 18.5167C22.98 18.0712 22.377 17.8258 21.7453 17.8258C21.0969 17.8258 20.4817 18.0838 20.0131 18.5524C19.545 19.0204 19.287 19.6358 19.287 20.2844V20.7328ZM25.0514 18.805C25.2038 18.622 25.3616 18.436 25.5487 18.279V15.6485H25.0514V18.805ZM25.9156 18.0752V15.6485H26.4133V17.7337C26.2781 17.8019 26.0892 17.9318 25.9156 18.0752Z" fill="white"/>
</g>
<defs>
<clipPath id="clip0_1691_152">
<rect width="40" height="40" fill="white"/>
</clipPath>
</defs>
</svg>
