<svg width="40" height="40" viewBox="0 0 40 40" fill="none" xmlns="http://www.w3.org/2000/svg">
<g clip-path="url(#clip0_1782_2977)">
<path d="M20 0C31.0457 0 40 8.9543 40 20C40 31.0457 31.0457 40 20 40C8.95431 40 7.90517e-06 31.0457 0 20C6.58765e-07 8.95431 8.95431 1.97595e-06 20 0Z" fill="#FEE0CC"/>
<path d="M26 6C30.4183 6 34 9.58172 34 14V26C34 30.4183 30.4183 34 26 34H14C9.58172 34 6 30.4183 6 26V14C6 9.58172 9.58172 6 14 6H26Z" fill="#F96302"/>
<g clip-path="url(#clip1_1782_2977)">
<path d="M13.7519 29.9948C13.7519 29.9912 13.7629 29.9684 13.7756 29.9438C13.8066 29.8846 13.8275 29.8172 13.8275 29.7726C13.8275 29.7307 13.8075 29.6615 13.7929 29.6524C13.7875 29.6488 13.7829 29.6424 13.7829 29.6369C13.7829 29.6251 10.3779 26.2219 10.3597 26.2156C10.3524 26.2128 10.347 26.2074 10.347 26.2037C10.347 26.2001 10.3351 26.1937 10.3206 26.191C10.306 26.1882 10.2923 26.1828 10.2896 26.1791C10.2841 26.17 10.1985 26.1709 10.1621 26.18C10.1257 26.1901 10.0401 26.2238 10.0173 26.2383L10 26.2493V25.5972L10.7203 24.8769C11.1165 24.4807 11.4443 24.1566 11.4489 24.1566C11.4534 24.1566 11.4589 24.152 11.4616 24.1456C11.4662 24.1347 11.4807 24.1256 11.549 24.0919C11.6073 24.0637 11.6884 24.0618 11.7366 24.0883C11.7758 24.1092 11.8341 24.162 11.8341 24.1766C11.8341 24.182 11.8386 24.1884 11.8441 24.1921C11.8705 24.2075 11.8769 24.325 11.8532 24.3633C11.8486 24.3715 11.8395 24.3924 11.8341 24.4106C11.8286 24.4279 11.8213 24.4425 11.8186 24.4425C11.8159 24.4425 11.8086 24.4562 11.8031 24.4726C11.7977 24.4889 11.7904 24.5026 11.7876 24.5026C11.7849 24.5026 11.7776 24.5217 11.7722 24.5445C11.7667 24.5673 11.7603 24.5882 11.7567 24.59C11.7485 24.5955 11.7485 24.7057 11.7567 24.7057C11.7603 24.7057 11.7658 24.7175 11.7685 24.7321C11.7712 24.7467 11.7785 24.7603 11.784 24.7631C11.7904 24.7658 11.7949 24.7731 11.7949 24.7794C11.7949 24.7958 15.1935 28.1944 15.2099 28.1944C15.2172 28.1944 15.2254 28.199 15.2281 28.2045C15.2372 28.2199 15.3119 28.2473 15.3447 28.2473C15.3738 28.2473 15.4867 28.2181 15.494 28.209C15.4959 28.2063 15.5104 28.1999 15.5259 28.1944C15.5414 28.189 15.5541 28.1826 15.5541 28.1799C15.5541 28.1771 15.5678 28.1708 15.5842 28.1653C15.6006 28.1598 15.6142 28.1525 15.6142 28.1498C15.6142 28.1471 15.637 28.1398 15.6652 28.1352C15.7044 28.128 15.7253 28.128 15.759 28.1352C15.7827 28.1398 15.8018 28.1471 15.8018 28.1516C15.8018 28.1562 15.8064 28.1589 15.8119 28.1589C15.8264 28.1589 15.8865 28.2254 15.9075 28.2646C15.923 28.2928 15.9257 28.3083 15.9257 28.3547C15.9248 28.4057 15.922 28.4166 15.8929 28.474C15.8756 28.5086 15.8556 28.5387 15.8501 28.5405C15.8446 28.5423 15.8401 28.5487 15.8401 28.5532C15.8401 28.5578 15.5159 28.8856 15.1198 29.2818L14.3994 30.0021H14.0743C13.8986 30.0003 13.7519 29.9975 13.7519 29.9948ZM20.1275 29.9921C20.1275 29.9875 20.1348 29.9721 20.143 29.9575C20.1557 29.9365 20.1585 29.9229 20.1557 29.8828C20.1539 29.8555 20.1493 29.8318 20.1457 29.8291C20.1421 29.8263 20.1339 29.8154 20.1284 29.8045C20.1229 29.7936 19.6913 29.3583 19.1695 28.8374C18.4592 28.128 18.2124 27.8857 18.1878 27.8739C18.1368 27.8502 18.094 27.8529 18.0321 27.8857C17.9947 27.9058 17.9674 27.914 17.9328 27.9167L17.8854 27.9203L17.8481 27.883C17.8007 27.8356 17.7944 27.8074 17.818 27.7555C17.8317 27.7254 17.9228 27.6298 18.2825 27.2692C18.5293 27.0224 18.7333 26.8212 18.7369 26.8221C18.7406 26.823 19.2961 27.3776 19.9718 28.0533L21.2012 29.2818L20.8424 29.6415L20.4836 30.0012H20.3051C20.1785 30.0003 20.1275 29.9985 20.1275 29.9921ZM21.2849 29.0259L21.2003 28.9412L21.2103 28.9184C21.2157 28.9057 21.2221 28.8956 21.2258 28.8956C21.2294 28.8956 21.2358 28.8793 21.2412 28.8601C21.2467 28.8401 21.254 28.821 21.2576 28.8173C21.2658 28.8082 21.2658 28.6725 21.2576 28.6671C21.254 28.6652 21.2485 28.6507 21.2458 28.6352C21.2403 28.6061 21.2148 28.5523 21.1993 28.5387C21.1948 28.5341 21.1893 28.5268 21.1884 28.5214C21.1811 28.4959 21.0054 28.3156 20.3379 27.6471C19.9381 27.2464 19.6084 26.9186 19.6057 26.9186C19.603 26.9186 19.5802 26.8995 19.5538 26.8758C19.5274 26.8521 19.4782 26.8175 19.4436 26.7984L19.3807 26.7647H19.2797C19.1868 26.7647 19.1749 26.7665 19.144 26.7829C19.1258 26.7929 19.1039 26.8066 19.0966 26.813C19.0839 26.8239 19.0766 26.8184 18.9964 26.7374C18.9473 26.6882 18.9118 26.6463 18.9145 26.6418C18.9172 26.6372 18.9509 26.6062 18.9892 26.5725C19.0274 26.5388 19.0657 26.5052 19.0748 26.497C19.0839 26.4888 19.093 26.4824 19.0957 26.4824C19.0984 26.4824 19.1121 26.4742 19.1258 26.4633C19.1394 26.4532 19.154 26.4441 19.1595 26.4441C19.1649 26.4441 19.1686 26.4405 19.1686 26.4369C19.1686 26.4296 19.1768 26.4241 19.2405 26.3913C19.2605 26.3804 19.2842 26.3686 19.2924 26.364C19.3279 26.344 19.4217 26.3021 19.4427 26.2975C19.4554 26.2948 19.4682 26.2902 19.4727 26.2866C19.4882 26.2757 19.633 26.2429 19.7204 26.2301C19.7696 26.2228 19.8415 26.2174 19.878 26.2174C19.9545 26.2165 20.1393 26.2383 20.1903 26.2529C20.2085 26.2584 20.2422 26.2666 20.265 26.2711C20.2878 26.2757 20.3096 26.282 20.3142 26.2857C20.3187 26.2893 20.3388 26.2957 20.3597 26.3012C20.3807 26.3066 20.4007 26.313 20.4052 26.3157C20.4098 26.3185 20.4271 26.3258 20.4444 26.3312C20.4617 26.3367 20.4763 26.344 20.4763 26.3476C20.4763 26.3513 20.4827 26.354 20.489 26.354C20.5027 26.354 20.7085 26.4542 20.7158 26.4651C20.7185 26.4687 20.7285 26.4751 20.7385 26.4806C20.7613 26.4915 20.7777 26.5015 20.8187 26.5288C20.836 26.5407 20.8524 26.5498 20.8551 26.5498C20.8578 26.5498 20.8833 26.568 20.9116 26.5908C20.9398 26.6135 20.9662 26.6317 20.9708 26.6317C20.9753 26.6317 20.9817 26.6381 20.9862 26.6472C20.9908 26.6554 20.9981 26.6627 21.0026 26.6627C21.0099 26.6627 21.0627 26.7037 21.152 26.7802C21.203 26.8239 21.4079 27.0315 21.4079 27.0406C21.4079 27.0443 21.4215 27.0643 21.4379 27.0834C21.4543 27.1035 21.468 27.1226 21.468 27.1262C21.468 27.1299 21.4744 27.1372 21.4835 27.1426C21.4926 27.1481 21.499 27.1554 21.499 27.159C21.499 27.1627 21.5108 27.1827 21.5254 27.2027C21.5399 27.2228 21.5518 27.2419 21.5518 27.2446C21.5518 27.2473 21.5618 27.2637 21.5727 27.281C21.5918 27.3093 21.641 27.4067 21.6683 27.4723C21.6738 27.4859 21.6838 27.5078 21.6893 27.5215C21.6957 27.5351 21.7039 27.5615 21.7084 27.5797C21.713 27.598 21.7193 27.6171 21.723 27.6207C21.7339 27.6344 21.7612 27.771 21.784 27.9176C21.7958 27.9968 21.7967 28.1607 21.7849 28.2263C21.7803 28.2536 21.7722 28.3037 21.7676 28.3392C21.763 28.3747 21.7567 28.4066 21.753 28.4103C21.7503 28.4148 21.743 28.4394 21.7385 28.4667C21.733 28.494 21.7266 28.5186 21.723 28.5232C21.7202 28.5277 21.7148 28.5405 21.712 28.5532C21.7093 28.566 21.7002 28.5897 21.692 28.607C21.6838 28.6243 21.6774 28.6407 21.6774 28.6434C21.6774 28.6461 21.6692 28.6662 21.6583 28.6889C21.6474 28.7117 21.6392 28.7326 21.6392 28.7363C21.6392 28.7399 21.6365 28.7445 21.6337 28.7454C21.631 28.7472 21.6219 28.76 21.6146 28.7745C21.6073 28.7891 21.5928 28.8146 21.5827 28.831C21.5727 28.8474 21.56 28.8692 21.5545 28.8802C21.5427 28.9029 21.4944 28.9676 21.4735 28.9894C21.4653 28.9976 21.458 29.0077 21.458 29.0113C21.458 29.0149 21.4379 29.0386 21.4134 29.0641L21.3687 29.1106L21.2849 29.0259ZM16.1087 28.1143C16.0423 28.0888 15.9694 28.0314 15.9694 28.0041C15.9694 27.9977 15.9667 27.9923 15.9621 27.9923C15.9585 27.9923 15.9512 27.9731 15.9457 27.9504C15.9384 27.9176 15.9384 27.8966 15.9448 27.8593C15.9494 27.832 15.9557 27.8083 15.9594 27.8056C15.963 27.8028 15.9703 27.7892 15.9767 27.7746C15.9822 27.76 15.9894 27.7464 15.9913 27.7446C16.0086 27.73 16.0586 27.5734 16.0586 27.5351C16.0586 27.5087 16.0322 27.434 16.0149 27.4113C16.0086 27.4022 15.6525 27.0443 15.2245 26.6153C14.7072 26.0963 14.4413 25.8349 14.4313 25.8349C14.4213 25.8349 14.3284 25.9223 14.1654 26.0853L13.9149 26.3358L13.7528 26.1746L13.5907 26.0134L13.843 25.7602C13.9823 25.6209 14.0953 25.5025 14.0953 25.4961C14.0953 25.4861 12.6282 24.0154 12.5872 23.9835C12.5626 23.9653 12.4888 23.9398 12.4597 23.9398C12.4333 23.9398 12.3204 23.969 12.3131 23.9781C12.3113 23.9808 12.2967 23.9872 12.2812 23.9926C12.2657 23.9981 12.253 24.0054 12.253 24.009C12.253 24.0127 12.2493 24.0154 12.2457 24.0154C12.2421 24.0154 12.2193 24.0245 12.1947 24.0354C12.1601 24.0518 12.1401 24.0555 12.0945 24.0564C12.0454 24.0564 12.0326 24.0536 11.998 24.0345C11.9561 24.0108 11.9206 23.9726 11.8951 23.9225C11.8778 23.8879 11.8741 23.7968 11.8887 23.7668C11.8933 23.7568 11.9033 23.7367 11.9097 23.7222C11.916 23.7076 11.927 23.6857 11.9333 23.673C11.9397 23.6602 12.3386 23.2577 12.8185 22.7778L13.6918 21.9054L13.7565 21.8744C13.8129 21.8471 13.8275 21.8435 13.8721 21.8435C13.9122 21.8435 13.9322 21.848 13.9641 21.8635C14.016 21.889 14.0743 21.9527 14.0871 21.9983C14.0998 22.0447 14.0925 22.1176 14.0688 22.164C14.0579 22.185 14.0497 22.2059 14.0497 22.2096C14.0497 22.2132 14.047 22.2187 14.0443 22.2196C14.0361 22.2232 14.0005 22.3106 13.986 22.3644C13.9705 22.4199 13.9741 22.4527 14.0051 22.5174C14.0279 22.5656 14.118 22.6567 15.7253 24.264C17.0622 25.6009 17.431 25.9651 17.4647 25.9843C17.553 26.0334 17.6122 26.0298 17.747 25.9651C17.7853 25.9469 17.8217 25.9323 17.8281 25.9323C17.8344 25.9323 17.8399 25.9296 17.8399 25.926C17.8399 25.9169 17.9009 25.9023 17.9419 25.9023C18.002 25.9023 18.0348 25.9169 18.0858 25.967C18.1122 25.9925 18.1331 26.0189 18.1331 26.0252C18.1331 26.0325 18.1386 26.0462 18.145 26.0562C18.1541 26.0708 18.1568 26.0872 18.1541 26.129C18.1523 26.1591 18.1468 26.1901 18.1422 26.1983C18.1377 26.2065 18.1286 26.2256 18.1222 26.2392C18.1158 26.2538 18.1049 26.2757 18.0985 26.2884C18.084 26.3148 16.3746 28.0287 16.3619 28.0287C16.3573 28.0287 16.351 28.0332 16.3491 28.0396C16.3464 28.046 16.3337 28.056 16.32 28.0624C16.3063 28.0688 16.29 28.077 16.2836 28.0806C16.2399 28.1052 16.2144 28.1134 16.1707 28.1161C16.1461 28.1189 16.1169 28.1179 16.1087 28.1143ZM22.4233 27.9203C22.3859 27.8976 22.3604 27.8584 22.3604 27.8238C22.3604 27.7992 22.3796 27.7464 22.4042 27.7027C22.4224 27.6699 22.4224 27.5579 22.4042 27.5479C22.3969 27.5442 22.3914 27.536 22.3914 27.5315C22.3914 27.5215 20.4963 25.6236 20.4863 25.6236C20.4827 25.6236 20.4717 25.6173 20.4608 25.6081C20.428 25.5827 20.3652 25.5872 20.2951 25.6209C20.2477 25.6437 20.2286 25.6491 20.1912 25.6491C20.1512 25.6491 20.1421 25.6464 20.1248 25.6291C20.0865 25.5908 20.0619 25.5198 20.0829 25.5071C20.0865 25.5043 20.092 25.4916 20.0947 25.4788C20.0984 25.4597 20.1931 25.3614 20.5519 25.0016L21.0045 24.5481L22.2375 25.7812L23.4705 27.0142L23.027 27.4568C22.5635 27.9185 22.5398 27.9394 22.4797 27.9394C22.4661 27.9394 22.4406 27.9313 22.4233 27.9203ZM23.5498 26.7565L23.4642 26.6709L23.4824 26.6454C23.5161 26.599 23.5944 26.4469 23.5944 26.4287C23.5944 26.4223 23.5971 26.4132 23.6008 26.4095C23.6044 26.4059 23.6172 26.3649 23.6281 26.3194C23.6472 26.2438 23.649 26.2247 23.649 26.0972C23.649 25.9232 23.6308 25.834 23.5643 25.6764C23.5261 25.5845 23.5042 25.5216 23.5042 25.5007C23.5042 25.4588 23.5461 25.4078 23.5935 25.3923C23.6518 25.3732 23.649 25.3705 24.0297 25.752L24.3821 26.1045L24.0124 26.4742C23.8093 26.6773 23.6408 26.8439 23.639 26.8439C23.6372 26.8421 23.5971 26.8039 23.5498 26.7565ZM24.4859 25.8868C24.4677 25.8759 24.444 25.8531 24.4231 25.8249C24.3985 25.7921 24.4012 25.752 24.4322 25.6892C24.4531 25.6464 24.4586 25.6282 24.4586 25.5918V25.5471L23.5279 24.6164C23.0161 24.1046 22.5708 23.6611 22.538 23.6311L22.4788 23.5774H22.4123C22.3741 23.5774 22.3431 23.581 22.3404 23.5856C22.3377 23.5901 22.3231 23.5983 22.3085 23.6038C22.294 23.6092 22.2803 23.6165 22.2785 23.6202C22.2712 23.6311 22.2147 23.6393 22.1911 23.6329C22.1783 23.6293 22.1528 23.6111 22.1355 23.5919C22.1036 23.5573 22.1036 23.5564 22.1064 23.51C22.1091 23.4745 22.1146 23.4553 22.1291 23.4335C22.1401 23.4171 22.3468 23.2076 22.5881 22.9663L23.0261 22.5283L24.1162 23.6174C24.7154 24.2167 25.2172 24.7139 25.2299 24.723C25.2491 24.7366 25.2636 24.7394 25.3037 24.7394C25.3474 24.7394 25.3629 24.7357 25.4184 24.7084C25.4722 24.682 25.4867 24.6784 25.5159 24.6811C25.535 24.6829 25.5523 24.6884 25.5541 24.692C25.5569 24.6957 25.5651 24.7011 25.5724 24.7039C25.5796 24.7066 25.5878 24.7157 25.5897 24.7239C25.5915 24.7321 25.5979 24.7403 25.6033 24.7421C25.6179 24.7476 25.6233 24.7949 25.6142 24.8332C25.6097 24.8523 25.6033 24.8678 25.6006 24.8678C25.5978 24.8678 25.5915 24.8769 25.5869 24.8887C25.5742 24.9179 24.6089 25.8804 24.5825 25.8905C24.557 25.8977 24.5041 25.8968 24.4859 25.8868ZM23.0708 25.7757C23.0498 25.7684 23.0161 25.7529 22.9952 25.7411C22.8777 25.6719 22.7548 25.6318 22.6582 25.6318C22.6136 25.6318 22.5162 25.6537 22.4907 25.6701C22.4743 25.6801 22.4697 25.6755 22.3768 25.5836L22.2794 25.487L22.2912 25.4597C22.2976 25.4451 22.3067 25.4242 22.3113 25.4142C22.3222 25.3896 22.3222 25.1865 22.3113 25.1719C22.3067 25.1665 22.2994 25.1455 22.294 25.1264C22.2858 25.0945 22.2712 25.0627 22.2011 24.9324C22.1874 24.9069 22.1774 24.8751 22.1747 24.8496C22.171 24.8122 22.1728 24.8049 22.1947 24.7758C22.2074 24.7585 22.2293 24.7385 22.2439 24.7312C22.2657 24.7203 22.2739 24.7203 22.3058 24.7284C22.3395 24.7376 22.3705 24.7667 22.7721 25.1674C23.2329 25.6273 23.2511 25.6473 23.2319 25.6956C23.221 25.7247 23.1809 25.7648 23.1509 25.7775C23.1208 25.7921 23.119 25.7921 23.0708 25.7757ZM18.3198 24.9661C18.1659 24.9543 17.9628 24.9179 17.839 24.8805C17.8144 24.8732 17.7853 24.865 17.7752 24.8632C17.7543 24.8587 17.6951 24.8395 17.655 24.8241C17.6405 24.8186 17.6004 24.8031 17.5649 24.7904C17.5294 24.7776 17.4866 24.7603 17.4693 24.7521C17.452 24.7439 17.4356 24.7376 17.4337 24.7376C17.4183 24.7376 17.0713 24.5636 17.0622 24.5518C17.0595 24.5481 17.0494 24.5409 17.0394 24.5363C17.0021 24.5172 16.9748 24.5008 16.952 24.4844C16.9393 24.4753 16.9247 24.4671 16.9201 24.4671C16.9156 24.4671 16.9119 24.4634 16.9119 24.4598C16.9119 24.4552 16.9083 24.4525 16.9028 24.4525C16.8983 24.4525 16.8837 24.4443 16.871 24.4352C16.8582 24.4261 16.8418 24.4152 16.8345 24.4124C16.8272 24.4097 16.8218 24.4043 16.8218 24.3997C16.8218 24.3951 16.8172 24.3915 16.8118 24.3915C16.8063 24.3915 16.7908 24.3815 16.7762 24.3696C16.7617 24.3578 16.7462 24.3469 16.7416 24.3469C16.7371 24.3469 16.7307 24.3414 16.7289 24.335C16.7262 24.3287 16.7207 24.3241 16.7161 24.3241C16.7116 24.3241 16.6916 24.3105 16.6715 24.2941C16.6515 24.2777 16.6324 24.264 16.6278 24.264C16.6233 24.264 16.616 24.2576 16.6114 24.2485C16.6069 24.2403 16.5996 24.233 16.595 24.233C16.5868 24.233 16.5021 24.1647 16.4511 24.1165C16.4357 24.1019 16.4193 24.0901 16.4147 24.0901C16.4038 24.0901 15.912 23.5974 15.912 23.5874C15.912 23.5828 15.9002 23.5664 15.8856 23.551C15.8383 23.5 15.7691 23.4153 15.7691 23.4071C15.7691 23.4025 15.7627 23.3952 15.7536 23.3907C15.7454 23.3861 15.7381 23.3788 15.7381 23.3743C15.7381 23.3697 15.7244 23.3497 15.708 23.3306C15.6916 23.3105 15.678 23.2905 15.678 23.286C15.678 23.2814 15.6725 23.275 15.6671 23.2732C15.6607 23.2705 15.6552 23.265 15.6552 23.2605C15.6552 23.2559 15.6452 23.2404 15.6325 23.2259C15.6197 23.2113 15.6106 23.1958 15.6106 23.1912C15.6106 23.1867 15.6051 23.1803 15.5997 23.1785C15.5933 23.1758 15.5887 23.1703 15.5887 23.1657C15.5887 23.1612 15.5805 23.1466 15.5696 23.133C15.5587 23.1193 15.5505 23.1047 15.5505 23.0993C15.5505 23.0938 15.5469 23.0902 15.5432 23.0902C15.5396 23.0902 15.5305 23.0792 15.5241 23.0656C15.5177 23.0519 15.5041 23.0273 15.494 23.0109C15.484 22.9945 15.4713 22.9718 15.4658 22.9599C15.4603 22.949 15.454 22.939 15.4512 22.939C15.4485 22.939 15.4339 22.9144 15.4184 22.8844C15.4039 22.8543 15.3756 22.8015 15.3574 22.766C15.3392 22.7305 15.3083 22.6667 15.2891 22.623C15.2727 22.5857 15.2573 22.5492 15.2409 22.5128C15.2327 22.4955 15.2272 22.4791 15.2272 22.4755C15.2272 22.4718 15.2208 22.4563 15.2126 22.439C15.1981 22.4081 15.1826 22.3625 15.1635 22.2997C15.158 22.2815 15.1498 22.256 15.1453 22.2432C15.1371 22.2177 15.1125 22.1303 15.0952 22.0629C15.0888 22.0383 15.0788 21.9855 15.0724 21.9464C15.066 21.9072 15.0578 21.8635 15.0542 21.8489C15.0478 21.8234 15.036 21.6987 15.025 21.5402C15.0196 21.4628 15.0305 21.247 15.0469 21.1268C15.0551 21.0603 15.0806 20.9273 15.0933 20.8791C15.1225 20.7689 15.1562 20.6632 15.1926 20.5631C15.25 20.4092 15.3884 20.1414 15.4585 20.0476C15.4685 20.0349 15.4758 20.0221 15.4758 20.0194C15.4758 20.0167 15.4795 20.0103 15.4831 20.0048C15.5132 19.9684 15.5505 19.9165 15.5505 19.911C15.5505 19.9074 15.5724 19.8783 15.5997 19.8455C15.627 19.8127 15.6561 19.7763 15.6643 19.7653L15.6798 19.7453L15.8428 19.9083C15.9658 20.0312 16.0049 20.074 15.9995 20.0822C15.9858 20.1059 15.9676 20.166 15.9403 20.2698C15.9266 20.3208 15.9321 20.4474 15.9494 20.513C15.9585 20.5467 15.9685 20.5758 15.9712 20.5776C15.974 20.5795 15.9803 20.594 15.9867 20.6095C15.9922 20.625 15.9995 20.6377 16.0031 20.6377C16.0067 20.6377 16.0122 20.645 16.0158 20.655C16.0195 20.6651 16.0359 20.6878 16.0532 20.707C16.0705 20.7261 16.0841 20.7434 16.0841 20.7452C16.0841 20.7498 19.2505 23.9161 19.2551 23.9161C19.2569 23.9161 19.2742 23.9298 19.2933 23.9462C19.4208 24.0555 19.5948 24.0928 19.7687 24.0482C19.8516 24.0272 19.9135 24.0054 19.9199 23.9963C19.9226 23.9926 19.9991 24.0637 20.0902 24.1547L20.2559 24.3196L20.2386 24.336C20.2295 24.3451 20.2195 24.3523 20.2167 24.3523C20.214 24.3523 20.1849 24.3742 20.153 24.4015C20.1211 24.4288 20.0911 24.4507 20.0883 24.4507C20.0856 24.4507 20.061 24.468 20.0346 24.488C20.0082 24.5081 19.9836 24.5254 19.9809 24.5254C19.9781 24.5254 19.9608 24.5354 19.9454 24.5481C19.929 24.56 19.9135 24.5709 19.9108 24.5709C19.908 24.5709 19.8889 24.5818 19.8698 24.5955C19.8279 24.6237 19.7751 24.6529 19.664 24.7075C19.5356 24.7712 19.5101 24.7822 19.4964 24.7822C19.4891 24.7822 19.4837 24.7858 19.4837 24.7895C19.4837 24.794 19.48 24.7967 19.4755 24.7967C19.4709 24.7967 19.4463 24.8049 19.4208 24.815C19.3389 24.8468 19.287 24.8632 19.1786 24.8915C19.154 24.8978 19.1167 24.9078 19.0957 24.9133C19.0147 24.9352 18.879 24.9561 18.746 24.9661C18.5794 24.9798 18.491 24.9798 18.3198 24.9661ZM21.2604 24.468L21.1729 24.3806L21.5336 24.02L21.8942 23.6593L22.2329 23.9981C22.4706 24.2358 22.5735 24.3441 22.5799 24.3615C22.5917 24.3979 22.5817 24.4352 22.5508 24.4689C22.518 24.5053 22.4788 24.5235 22.4442 24.5181C22.4306 24.5163 22.3914 24.5008 22.3577 24.4844C22.1847 24.4015 22.0545 24.3678 21.8978 24.3669C21.7594 24.366 21.6428 24.3933 21.5144 24.4571C21.4288 24.4999 21.4042 24.5135 21.3733 24.5372L21.3478 24.5563L21.2604 24.468ZM20.3743 23.8742C20.2887 23.7886 20.2186 23.7131 20.2186 23.7067C20.2186 23.7003 20.2231 23.6866 20.2286 23.6766C20.234 23.6666 20.2422 23.6429 20.2486 23.6238C20.2541 23.6056 20.2614 23.5828 20.265 23.5746C20.2923 23.5127 20.2923 23.3069 20.265 23.2441C20.2614 23.2359 20.2541 23.2167 20.2486 23.2031C20.2431 23.1885 20.2295 23.1621 20.2176 23.1448C20.2058 23.1266 20.1967 23.1093 20.1967 23.1047C20.1967 23.0947 17.0941 19.9821 16.9848 19.8819C16.9383 19.8391 16.8974 19.8045 16.8946 19.8045C16.8919 19.8045 16.8746 19.7945 16.8573 19.7835C16.8391 19.7717 16.8127 19.758 16.799 19.7526C16.7854 19.7471 16.7617 19.738 16.748 19.7325C16.697 19.7098 16.4566 19.7134 16.4275 19.7362C16.4229 19.7398 16.4065 19.7453 16.3901 19.748C16.3737 19.7508 16.3491 19.7599 16.3337 19.7681C16.3191 19.7763 16.3018 19.7826 16.2954 19.7826C16.2818 19.7826 15.9721 19.4748 15.9721 19.4612C15.9721 19.4557 15.9812 19.4457 15.9931 19.4384C16.0131 19.4257 16.0987 19.3574 16.1233 19.3346C16.1297 19.3282 16.1379 19.3237 16.1415 19.3237C16.1452 19.3237 16.1661 19.3091 16.1889 19.2918C16.2308 19.2599 16.2462 19.249 16.2808 19.2317C16.2909 19.2262 16.3027 19.218 16.3054 19.2126C16.3091 19.2071 16.3145 19.2034 16.3191 19.2034C16.3237 19.2034 16.341 19.1943 16.3583 19.1825C16.3756 19.1707 16.4029 19.1552 16.4202 19.147C16.4366 19.1388 16.4521 19.1297 16.4548 19.127C16.4602 19.1197 16.6242 19.0386 16.6333 19.0386C16.6369 19.0386 16.6597 19.0286 16.6834 19.0168C16.707 19.0049 16.7389 18.9904 16.7535 18.9858C16.7681 18.9812 16.789 18.9721 16.7999 18.9667C16.8109 18.9612 16.8245 18.9567 16.8309 18.9557C16.8373 18.9557 16.8509 18.9512 16.8609 18.9457C16.871 18.9403 16.8965 18.9312 16.9174 18.9266C16.9383 18.9211 16.9584 18.9148 16.962 18.9111C16.9666 18.9075 16.9921 18.9011 17.0185 18.8956C17.0458 18.8902 17.0704 18.8838 17.0749 18.8802C17.0795 18.8774 17.1059 18.8711 17.1351 18.8656C17.1642 18.861 17.1961 18.8538 17.207 18.8492C17.217 18.8456 17.2662 18.8374 17.3163 18.831C17.3654 18.8246 17.4356 18.8164 17.4702 18.8119C17.5485 18.8018 17.9082 18.8073 17.9665 18.8191C17.9893 18.8237 18.0421 18.8328 18.0831 18.8383C18.1887 18.8538 18.2834 18.872 18.3007 18.8802C18.3089 18.8838 18.338 18.8911 18.3644 18.8956C18.3918 18.9002 18.4164 18.9066 18.4209 18.9102C18.4255 18.9129 18.4455 18.9202 18.4655 18.9248C18.4865 18.9303 18.5065 18.9366 18.5111 18.9403C18.5156 18.9439 18.5357 18.9503 18.5566 18.9557C18.5775 18.9612 18.5976 18.9676 18.6021 18.9712C18.6067 18.9749 18.6213 18.9794 18.6358 18.9831C18.6504 18.9867 18.6686 18.9922 18.6768 18.9976C18.685 19.0022 18.7059 19.0113 18.7242 19.0168C18.7424 19.0222 18.756 19.0295 18.756 19.0332C18.756 19.0368 18.7615 19.0395 18.7688 19.0395C18.7843 19.0395 18.8134 19.0532 18.9873 19.1397C19.1494 19.2217 19.1704 19.2326 19.215 19.2608C19.2615 19.2909 19.2751 19.2991 19.3033 19.3146C19.317 19.3218 19.3279 19.33 19.3279 19.3337C19.3279 19.3373 19.3316 19.34 19.3361 19.34C19.3452 19.34 19.4126 19.3856 19.4172 19.3947C19.419 19.3974 19.4236 19.4002 19.429 19.4002C19.4336 19.4002 19.45 19.4102 19.4645 19.422C19.4791 19.4338 19.4946 19.4448 19.4991 19.4448C19.5037 19.4448 19.5101 19.4502 19.5119 19.4566C19.5146 19.463 19.5201 19.4675 19.5246 19.4675C19.5328 19.4675 19.6057 19.5222 19.6339 19.5504C19.6421 19.5586 19.6521 19.5659 19.6558 19.5659C19.6594 19.5659 19.6849 19.5859 19.7131 19.6114C19.7414 19.636 19.766 19.657 19.7687 19.657C19.7714 19.657 19.7842 19.6688 19.7978 19.6834C19.8115 19.6979 19.8261 19.7098 19.8315 19.7098C19.8443 19.7098 20.2923 20.1569 20.2923 20.1706C20.2923 20.176 20.306 20.1933 20.3224 20.2079C20.3388 20.2234 20.3524 20.238 20.3524 20.2407C20.3524 20.2434 20.3725 20.268 20.398 20.2962C20.4225 20.3245 20.4435 20.35 20.4435 20.3536C20.4435 20.3573 20.4508 20.3664 20.459 20.3755C20.4845 20.4019 20.5336 20.4675 20.5336 20.4766C20.5336 20.4811 20.54 20.4893 20.5491 20.4939C20.5573 20.4993 20.5646 20.5066 20.5646 20.5112C20.5646 20.5157 20.5746 20.5303 20.5874 20.5449C20.5992 20.5594 20.6092 20.5749 20.6092 20.5804C20.6092 20.5849 20.612 20.5904 20.6147 20.5922C20.6238 20.5959 20.6693 20.6642 20.6693 20.6733C20.6693 20.6778 20.6721 20.6815 20.6757 20.6815C20.6794 20.6815 20.6876 20.6924 20.6948 20.706C20.7021 20.7197 20.714 20.7407 20.7222 20.7534C20.7304 20.7661 20.7431 20.788 20.7504 20.8026C20.7577 20.8171 20.7659 20.8308 20.7677 20.8326C20.7895 20.8518 20.9699 21.2169 20.9699 21.2424C20.9699 21.2488 20.9726 21.2534 20.9771 21.2534C20.9808 21.2534 20.9862 21.2643 20.989 21.2779C20.9917 21.2916 20.9981 21.3089 21.0036 21.3171C21.0081 21.3253 21.0172 21.3472 21.0227 21.3663C21.0281 21.3854 21.0354 21.4036 21.0382 21.4073C21.0409 21.4118 21.0473 21.43 21.0527 21.4482C21.0573 21.4664 21.0664 21.4919 21.0719 21.5047C21.0773 21.5174 21.0846 21.5411 21.0873 21.5575C21.0901 21.5739 21.0955 21.5912 21.0983 21.5949C21.101 21.5994 21.1083 21.6231 21.1128 21.6477C21.1174 21.6723 21.1247 21.6996 21.1283 21.7078C21.1374 21.7278 21.1565 21.8298 21.1702 21.9336C21.1766 21.9792 21.1857 22.0347 21.1902 22.0575C21.2021 22.113 21.203 22.5337 21.1902 22.5911C21.1857 22.6139 21.1766 22.6676 21.1702 22.7113C21.1547 22.8197 21.1365 22.9162 21.1283 22.9299C21.1247 22.9363 21.1174 22.9618 21.1128 22.9863C21.1083 23.0109 21.101 23.0346 21.0983 23.0383C21.0955 23.0428 21.0882 23.0656 21.0828 23.0893C21.0773 23.1129 21.07 23.1348 21.0664 23.1366C21.0627 23.1384 21.0564 23.1548 21.0527 23.1721C21.0482 23.1894 21.0391 23.2158 21.0327 23.2304C21.0263 23.245 21.0163 23.2668 21.0117 23.2796C21.0072 23.2923 20.9935 23.3215 20.9826 23.3442C20.9717 23.367 20.9626 23.3898 20.9626 23.3934C20.9626 23.4025 20.9143 23.4963 20.897 23.5227C20.8897 23.5337 20.877 23.5546 20.8706 23.5692C20.8633 23.5837 20.8496 23.6092 20.8387 23.6256C20.8278 23.642 20.815 23.6666 20.8087 23.6803C20.8023 23.6939 20.7941 23.7049 20.7895 23.7049C20.7859 23.7049 20.7823 23.7085 20.7823 23.7131C20.7823 23.7176 20.7741 23.7322 20.7631 23.7458C20.7522 23.7595 20.744 23.7732 20.744 23.7759C20.744 23.7795 20.7267 23.8032 20.7067 23.8296C20.6857 23.856 20.6693 23.8806 20.6693 23.8834C20.6693 23.887 20.652 23.9098 20.6311 23.9343C20.6101 23.9589 20.5846 23.9917 20.5746 24.0072C20.5646 24.0227 20.5519 24.0354 20.5473 24.0354C20.5346 24.0309 20.4599 23.9598 20.3743 23.8742ZM24.6234 23.7841L24.536 23.6958L24.5579 23.6557C24.5998 23.5792 24.6107 23.4981 24.5907 23.4153C24.5834 23.3852 24.5743 23.3606 24.5706 23.3606C24.567 23.3606 24.5642 23.357 24.5642 23.3515C24.5642 23.3461 24.5561 23.3315 24.5451 23.3178C24.5351 23.3042 24.526 23.2896 24.526 23.285C24.526 23.2805 24.5196 23.2741 24.5105 23.2696C24.5023 23.265 24.495 23.2577 24.495 23.2523C24.495 23.2404 23.8339 22.5811 23.8166 22.5756C23.8093 22.5729 23.8038 22.5684 23.8038 22.5647C23.8038 22.5565 23.7337 22.511 23.7219 22.511C23.7173 22.511 23.7137 22.5082 23.7137 22.5046C23.7137 22.501 23.6964 22.4937 23.6763 22.4891C23.6554 22.4846 23.6372 22.4773 23.6345 22.4736C23.629 22.4645 23.4979 22.4645 23.4924 22.4736C23.4906 22.4773 23.476 22.4828 23.4596 22.4855C23.4441 22.4882 23.4186 22.4991 23.4032 22.5092C23.3877 22.5192 23.3722 22.5274 23.3695 22.5274C23.3658 22.5274 23.3257 22.4891 23.2793 22.4427L23.1946 22.358L23.2529 22.3015C23.323 22.2341 23.4095 22.154 23.4396 22.1303C23.4514 22.1212 23.4833 22.0948 23.5106 22.073C23.5379 22.0511 23.568 22.0283 23.578 22.0229C23.588 22.0174 23.6108 22.0037 23.6272 21.991C23.6773 21.9546 23.7456 21.9136 23.7738 21.9027C23.7884 21.8972 23.8157 21.8863 23.8339 21.8781C23.8521 21.8699 23.8749 21.8608 23.8831 21.8571C23.8913 21.8535 23.9131 21.8471 23.9322 21.8426C23.9514 21.838 23.9732 21.8316 23.9814 21.828C24.0461 21.7988 24.3675 21.7979 24.4322 21.8271C24.4404 21.8307 24.4632 21.838 24.4832 21.8426C24.5032 21.848 24.5205 21.8544 24.5233 21.858C24.5251 21.8617 24.5324 21.8644 24.5387 21.8644C24.5542 21.8644 24.6662 21.92 24.6963 21.9436C24.71 21.9537 24.7236 21.9628 24.7263 21.9628C24.7291 21.9628 24.7564 21.9828 24.7864 22.0083C24.8165 22.0329 24.8447 22.0538 24.8475 22.0538C24.8511 22.0538 24.8602 22.0602 24.8675 22.0693C24.8884 22.093 24.9085 22.0893 24.9085 22.062C24.9085 22.0493 24.9048 22.0393 24.9012 22.0393C24.8976 22.0393 24.8939 22.0356 24.8939 22.0311C24.8939 22.0265 24.8857 22.0056 24.8757 21.9837C24.8438 21.9154 24.8183 21.8526 24.8183 21.8444C24.8183 21.8398 24.8138 21.8253 24.8074 21.8116C24.7719 21.7296 24.7373 21.5639 24.7273 21.4273C24.7172 21.2952 24.7273 21.1386 24.7509 21.0439C24.7764 20.9419 24.7965 20.8709 24.8074 20.8463C24.8129 20.8335 24.8183 20.8199 24.8183 20.8171C24.8183 20.8144 24.8283 20.7898 24.8411 20.7634C24.8538 20.737 24.8639 20.7124 24.8639 20.7079C24.8639 20.7033 24.8666 20.7006 24.8702 20.7006C24.8739 20.7006 24.8812 20.6878 24.8866 20.6724C24.8921 20.6569 24.9057 20.6305 24.9167 20.6141C24.9276 20.5977 24.9385 20.5786 24.9413 20.5722C24.9476 20.5549 25.036 20.4292 25.0569 20.4064C25.0669 20.3955 25.0751 20.3828 25.0751 20.3782C25.0751 20.3573 25.097 20.3737 25.178 20.4556L25.2645 20.5421L25.2472 20.5858C25.2327 20.6214 25.2299 20.6441 25.2299 20.7124C25.2299 20.7926 25.2309 20.7962 25.2554 20.8426C25.27 20.8691 25.2891 20.8973 25.2982 20.9064C25.3073 20.9155 25.3155 20.9264 25.3155 20.9301C25.3155 20.9401 27.0613 22.6858 27.0713 22.6858C27.0759 22.6858 27.0913 22.6986 27.1059 22.7141C27.1414 22.7514 27.1879 22.776 27.2334 22.7814C27.2543 22.7842 27.2726 22.7887 27.2753 22.7924C27.2808 22.8006 27.3199 22.8006 27.3372 22.7924C27.3445 22.7887 27.3736 22.7814 27.4028 22.7769C27.4319 22.7723 27.4592 22.7641 27.4647 22.7605C27.472 22.7541 27.4957 22.7733 27.5622 22.8406L27.6505 22.929L27.6168 22.9581C27.5986 22.9745 27.574 22.9927 27.5622 22.9991C27.5503 23.0055 27.5257 23.021 27.5084 23.0346C27.462 23.0692 27.4101 23.1002 27.4001 23.1002C27.3955 23.1002 27.3919 23.1038 27.3919 23.1075C27.3919 23.112 27.3882 23.1148 27.3846 23.1148C27.38 23.1148 27.3645 23.1229 27.3491 23.133C27.3336 23.143 27.3099 23.1539 27.2962 23.1566C27.2826 23.1594 27.2716 23.1639 27.2716 23.1667C27.2716 23.1694 27.2571 23.1767 27.2398 23.1821C27.2225 23.1876 27.2006 23.1967 27.1924 23.2013C27.1842 23.2067 27.1651 23.2131 27.1487 23.2158C27.1323 23.2186 27.1187 23.224 27.1168 23.2268C27.115 23.2304 27.0941 23.2368 27.0695 23.2413C27.0458 23.2459 27.0185 23.2532 27.0076 23.2577C26.9766 23.2705 26.7744 23.2942 26.6952 23.2942C26.616 23.2942 26.4001 23.2696 26.3774 23.2577C26.3701 23.2541 26.351 23.2486 26.3346 23.2459C26.2909 23.2386 26.2034 23.2122 26.1688 23.1967C26.1524 23.1894 26.1279 23.1803 26.1142 23.1776C26.1005 23.1749 26.0896 23.1694 26.0896 23.1667C26.0896 23.163 26.0805 23.1585 26.0687 23.1557C26.0368 23.1484 25.8547 23.0556 25.8501 23.0446C25.8483 23.0419 25.8437 23.0392 25.8392 23.0392C25.8346 23.0392 25.8201 23.031 25.8064 23.02C25.7927 23.01 25.7782 23.0009 25.7745 23.0009C25.7709 23.0009 25.7508 22.9882 25.7308 22.9718C25.7108 22.9563 25.688 22.9408 25.6807 22.9381C25.6734 22.9353 25.668 22.9299 25.668 22.9253C25.668 22.9208 25.6643 22.9171 25.6598 22.9171C25.6552 22.9171 25.6334 22.9017 25.6115 22.8834C25.5897 22.8652 25.5696 22.8497 25.5669 22.8497C25.5642 22.8497 25.5505 22.8379 25.5368 22.8233C25.5232 22.8088 25.5086 22.7969 25.505 22.7969C25.5013 22.7969 25.4421 22.7414 25.3738 22.6731C25.3055 22.6048 25.2436 22.5492 25.2363 22.5492C25.2254 22.5492 25.2236 22.5538 25.2281 22.5829C25.2309 22.6011 25.239 22.6348 25.2463 22.6567C25.2573 22.6895 25.26 22.7223 25.2591 22.8543C25.2591 23.0027 25.2573 23.0173 25.2381 23.0911C25.2263 23.1348 25.2145 23.173 25.2099 23.1776C25.2063 23.1812 25.2026 23.1894 25.2026 23.1958C25.2026 23.214 25.1398 23.3451 25.1116 23.3861C25.1043 23.3971 25.0979 23.4098 25.0979 23.4144C25.0979 23.4189 25.0943 23.4226 25.0906 23.4226C25.0861 23.4226 25.0833 23.4271 25.0833 23.4326C25.0833 23.438 25.0733 23.4535 25.0615 23.4681C25.0496 23.4827 25.0387 23.4963 25.0387 23.5C25.0387 23.5027 25.0332 23.5118 25.0269 23.5191C24.9722 23.5819 24.9176 23.6484 24.9176 23.652C24.9176 23.6566 24.9048 23.6703 24.7737 23.8087L24.7109 23.8742L24.6234 23.7841ZM27.737 22.6785C27.6933 22.6348 27.655 22.5948 27.6523 22.5893C27.6496 22.5838 27.6541 22.5602 27.6632 22.5365C27.6778 22.5001 27.6805 22.4782 27.6805 22.4044C27.6805 22.3507 27.6778 22.3134 27.6723 22.3106C27.6678 22.3079 27.6596 22.2933 27.6541 22.2788C27.6487 22.2642 27.6396 22.2496 27.6341 22.246C27.6286 22.2423 27.6241 22.236 27.6241 22.2305C27.6241 22.2259 27.2125 21.8098 26.7089 21.3062C25.8711 20.4693 25.7891 20.3891 25.7445 20.3673C25.7171 20.3545 25.6898 20.34 25.6825 20.3363C25.6662 20.3281 25.5469 20.3272 25.5377 20.3363C25.5341 20.34 25.5113 20.3472 25.4877 20.3518C25.464 20.3573 25.443 20.3636 25.4403 20.3682C25.4367 20.3746 25.2564 20.2006 25.2564 20.1915C25.2564 20.1897 25.26 20.1879 25.2645 20.1879C25.2691 20.1879 25.2882 20.1742 25.3083 20.1578C25.3283 20.1414 25.3474 20.1278 25.3511 20.1278C25.3547 20.1278 25.362 20.1214 25.3675 20.1123C25.3729 20.1041 25.3802 20.0968 25.3848 20.0968C25.3893 20.0968 25.4039 20.0886 25.4166 20.0786C25.4704 20.0385 25.6844 19.9292 25.7354 19.9165C25.7554 19.9119 25.7745 19.9047 25.7791 19.9019C25.7836 19.8983 25.8037 19.8919 25.8246 19.8864C25.8456 19.881 25.8692 19.8737 25.8774 19.8701C25.8929 19.8628 25.9985 19.8446 26.0878 19.8336C26.1552 19.8254 26.2836 19.8254 26.351 19.8336C26.4493 19.8464 26.554 19.8646 26.5686 19.871C26.5877 19.8801 26.646 19.8928 26.6679 19.8928C26.6788 19.8928 26.6852 19.8883 26.6852 19.8801C26.6852 19.8728 26.5723 19.7544 26.4357 19.6169L26.1861 19.3665L26.412 19.1406C26.5358 19.0168 26.6397 18.9148 26.6433 18.9148C26.646 18.9148 26.6879 18.9539 26.7353 19.0013L26.8218 19.0878V19.1798C26.8218 19.2754 26.8327 19.371 26.8455 19.3929C26.8482 19.3974 26.8518 19.4102 26.8555 19.4229C26.8619 19.4475 26.9183 19.5841 26.9274 19.5959C26.9311 19.6005 26.9429 19.6205 26.9538 19.6415C26.9775 19.6843 27.0877 19.8528 27.105 19.8719C27.1278 19.8974 27.1824 20.0057 27.1824 20.0249C27.1824 20.0303 27.1769 20.044 27.1715 20.0558C27.1551 20.0877 27.1496 20.125 27.1596 20.1369C27.1642 20.1423 27.1797 20.1533 27.1942 20.1596C27.2088 20.166 27.2207 20.1751 27.2207 20.1788C27.2207 20.1824 27.2243 20.1861 27.2289 20.1861C27.2334 20.1861 27.2534 20.1997 27.2735 20.2161C27.2935 20.2325 27.3117 20.2462 27.3154 20.2462C27.3181 20.2462 27.3281 20.2525 27.3372 20.2616C27.3463 20.2707 27.3855 20.3054 27.4256 20.34C27.5011 20.4064 27.7324 20.6423 27.7324 20.6532C27.7324 20.6569 27.7397 20.6669 27.7479 20.6769C27.7734 20.7042 27.8527 20.808 27.8527 20.8135C27.8527 20.8162 27.8654 20.8363 27.8809 20.8572C27.8964 20.8791 27.9137 20.9046 27.9182 20.9155C27.9282 20.9364 27.9392 20.9547 27.9601 20.9856C27.9774 21.012 28.0403 21.1368 28.0403 21.145C28.0403 21.1514 28.0639 21.206 28.0812 21.2388C28.0867 21.2488 28.094 21.2697 28.0967 21.2843C28.0994 21.2989 28.1049 21.3144 28.1076 21.318C28.1104 21.3226 28.1177 21.3444 28.1231 21.3672C28.1286 21.39 28.1359 21.4118 28.1386 21.4164C28.1413 21.4209 28.1477 21.451 28.1532 21.4838C28.1577 21.5165 28.165 21.5493 28.1687 21.5566C28.1841 21.5867 28.1932 21.7952 28.1841 21.9136C28.1796 21.9773 28.1723 22.0347 28.1687 22.042C28.165 22.0493 28.1577 22.0793 28.1532 22.1094C28.1486 22.1394 28.1413 22.1658 28.1386 22.1677C28.135 22.1695 28.1304 22.185 28.1277 22.2023C28.1231 22.2287 28.1104 22.2651 28.0785 22.3407C28.063 22.3771 27.9984 22.5073 27.9874 22.5246L27.9346 22.6057C27.9128 22.6394 27.8918 22.6676 27.8882 22.6676C27.8845 22.6676 27.8818 22.6722 27.8818 22.6767C27.8818 22.6822 27.8672 22.7022 27.8499 22.7213L27.818 22.7569L27.737 22.6785ZM22.1355 22.0739C22.1127 22.0648 22.0927 22.0547 22.0918 22.0511C22.09 22.0475 22.0809 22.0411 22.0708 22.0374C22.0608 22.0338 22.0508 22.0247 22.0472 22.0174C22.0444 22.0101 22.0381 22.0001 22.0335 21.9946C22.029 21.9892 22.0171 21.9728 22.008 21.9582C21.9934 21.9345 21.9916 21.9245 21.9953 21.8717C21.9971 21.8389 22.0026 21.8079 22.0062 21.8025C22.0098 21.797 22.0171 21.7761 22.0226 21.756C22.028 21.736 22.0344 21.7151 22.0381 21.7105C22.0417 21.706 22.0481 21.6759 22.0535 21.6431C22.0581 21.6103 22.0654 21.5766 22.069 21.5703C22.0781 21.5521 22.0772 21.4236 22.0681 21.4182C22.0636 21.4155 22.0608 21.4027 22.0608 21.389C22.0608 21.3553 22.0454 21.2789 22.0381 21.2789C22.0353 21.2789 22.0299 21.2661 22.0271 21.2506C22.0244 21.2351 22.0135 21.2042 22.0035 21.1823C21.9934 21.1605 21.9852 21.1395 21.9852 21.1359C21.9852 21.1322 21.9825 21.1277 21.9798 21.1268C21.9771 21.125 21.9634 21.1022 21.9497 21.0758C21.9206 21.0184 21.9215 21.0193 21.8587 20.9237C21.8323 20.8836 21.8058 20.8472 21.8004 20.8417C21.7949 20.8372 21.7895 20.8299 21.7895 20.8253C21.7895 20.8208 21.3423 20.3709 20.7968 19.8254C20.2504 19.279 19.8051 18.8319 19.8069 18.8301C19.8097 18.8273 19.9435 18.8938 20.6138 19.2262C20.7877 19.3127 20.9343 19.3838 20.938 19.3838C20.9425 19.3838 20.9471 19.3865 20.948 19.3892C20.9507 19.3947 21.0464 19.4439 21.0536 19.4439C21.0555 19.4439 21.2868 19.6743 21.5682 19.9547C21.8496 20.2361 22.0818 20.4656 22.0845 20.4656C22.0872 20.4656 22.1127 20.4838 22.1401 20.5048C22.1674 20.5266 22.1956 20.5476 22.2029 20.5521C22.2102 20.5567 22.2302 20.5694 22.2484 20.5822C22.3167 20.6277 22.4934 20.7188 22.5362 20.7297C22.5535 20.7343 22.5735 20.7407 22.5817 20.7443C22.6036 20.7543 22.6801 20.7671 22.7192 20.7671C22.7375 20.7671 22.7593 20.7707 22.7675 20.7753C22.7757 20.7798 22.7885 20.7807 22.7948 20.778C22.8021 20.7753 22.824 20.7716 22.8449 20.7698C22.8996 20.7661 22.976 20.7525 22.9906 20.7452C22.9979 20.7416 23.0334 20.7288 23.0708 20.7179C23.191 20.6815 23.2538 20.6924 23.3194 20.7616C23.3522 20.7962 23.3822 20.859 23.3822 20.8936C23.3822 20.9292 23.3522 21.0093 23.3248 21.0475C23.3112 21.0676 23.2993 21.0876 23.2993 21.0922C23.2993 21.0967 23.0953 21.3053 22.8458 21.5548C22.5963 21.8043 22.3887 22.0083 22.3832 22.0083C22.3777 22.0083 22.3577 22.0201 22.3386 22.0338C22.3076 22.0556 22.2093 22.0912 22.1829 22.0903C22.1801 22.0903 22.1583 22.083 22.1355 22.0739ZM29.0274 21.3207C28.9819 21.2952 28.9664 21.2697 28.9673 21.2197C28.9673 21.1869 28.9737 21.1659 28.9919 21.1304C29.0046 21.1049 29.0156 21.0794 29.0156 21.0721C29.0156 21.0648 29.0192 21.0585 29.0229 21.0557C29.0347 21.0485 29.032 20.9856 29.0183 20.9638C29.011 20.9528 28.512 20.4483 27.9073 19.8436L26.809 18.7445L27.2034 18.3502C27.4201 18.1334 27.6004 17.9558 27.604 17.9558C27.6068 17.9558 28.0931 18.4394 28.6841 19.0313C29.2751 19.6224 29.7605 20.1068 29.7641 20.1068C29.7669 20.1068 29.7833 20.1187 29.7987 20.1332C29.8261 20.1587 29.8306 20.1596 29.8825 20.1596C29.9199 20.1596 29.9463 20.1551 29.9672 20.1451L29.9973 20.1305L29.9991 20.3081L30.0009 20.4857L29.5929 20.8927C29.2587 21.226 29.1777 21.3034 29.144 21.3198C29.0948 21.3426 29.0666 21.3435 29.0274 21.3207ZM23.3048 20.1569C22.5854 19.7972 21.4871 19.2508 21.4325 19.2262C21.3487 19.188 21.1921 19.1087 21.1893 19.1042C21.1875 19.1015 21.183 19.0987 21.1793 19.0987C21.1702 19.0987 20.9535 18.9922 20.948 18.9849C20.9462 18.9822 20.9316 18.9758 20.9161 18.9703C20.9006 18.9649 20.8879 18.9585 20.8879 18.9557C20.8879 18.953 20.8742 18.9466 20.8578 18.9412C20.8415 18.9357 20.8278 18.9284 20.8278 18.9248C20.8278 18.9211 20.8242 18.9184 20.8196 18.9184C20.8087 18.9184 20.7121 18.8711 20.7085 18.8638C20.7067 18.861 20.7021 18.8583 20.6985 18.8583C20.6876 18.8583 20.5309 18.7809 20.5282 18.7736C20.5264 18.7709 20.5218 18.7682 20.5182 18.7682C20.51 18.7682 20.2932 18.6625 20.2869 18.6552C20.285 18.6525 20.2714 18.6461 20.2568 18.6407C20.2422 18.6352 19.9444 18.4886 19.5948 18.3146C18.8753 17.9568 18.8626 17.9504 18.8316 17.944C18.8189 17.9413 18.8025 17.9349 18.7943 17.9294C18.7861 17.924 18.7661 17.9176 18.7487 17.9149C18.7324 17.9121 18.7151 17.9076 18.7114 17.9048C18.6996 17.8976 18.6376 17.8821 18.6203 17.8821C18.6112 17.8821 18.603 17.8775 18.6012 17.873C18.5994 17.8675 18.5684 17.863 18.5138 17.8611C18.4364 17.8584 18.4255 17.8593 18.3936 17.8748C18.3745 17.8839 18.3435 17.9048 18.3244 17.9212C18.277 17.9622 18.2706 17.9668 18.2497 17.9786C18.1441 18.0369 18.1167 18.0451 18.0576 18.036C18.0275 18.0314 18.0157 18.0232 17.9674 17.9768C17.921 17.9303 17.9109 17.9158 17.9 17.8784C17.8782 17.8038 17.8945 17.7391 17.9565 17.6526C17.9628 17.6444 18.3171 17.2865 18.7451 16.8576L19.5228 16.0781L19.6558 16.1445C19.7286 16.181 19.7915 16.211 19.7933 16.211C19.7951 16.211 19.8716 16.2465 19.9618 16.2911C20.0519 16.3349 20.1912 16.4032 20.2723 16.4423C20.3533 16.4815 20.4872 16.547 20.5701 16.588C20.6529 16.629 20.7231 16.6627 20.7267 16.6627C20.7358 16.6627 21.0136 16.8011 21.0163 16.8075C21.0181 16.8102 21.0245 16.813 21.0309 16.813C21.0372 16.813 21.1128 16.8467 21.1975 16.8885C21.2822 16.9304 21.4197 16.9978 21.5026 17.0379C21.5855 17.0789 21.6656 17.1162 21.6811 17.1217C21.6966 17.1271 21.7093 17.1335 21.7093 17.1362C21.7093 17.139 21.723 17.1453 21.7394 17.1508C21.7558 17.1563 21.7694 17.1627 21.7694 17.1663C21.7694 17.169 21.7831 17.1763 21.7995 17.1818C21.8159 17.1872 21.8295 17.1936 21.8295 17.1973C21.8295 17.2009 21.8432 17.2073 21.8596 17.2127C21.876 17.2182 21.8896 17.2246 21.8896 17.2273C21.8896 17.2364 21.9616 17.2583 21.9743 17.2537C21.9898 17.2483 21.9907 17.2218 21.9761 17.2064C21.9707 17.2 21.9497 17.1645 21.9297 17.1271C21.9097 17.0898 21.8796 17.0324 21.8614 16.9996C21.8432 16.9669 21.8168 16.914 21.8013 16.8831C21.7858 16.8521 21.7694 16.8221 21.764 16.8157C21.7585 16.8093 21.7385 16.7738 21.7193 16.7365C21.7002 16.6991 21.6692 16.6418 21.651 16.609C21.6328 16.5762 21.6073 16.527 21.5937 16.4997C21.58 16.4724 21.5663 16.4487 21.5627 16.4469C21.5591 16.4441 21.5427 16.4159 21.5263 16.3831C21.5099 16.3503 21.4762 16.2866 21.4516 16.2411C21.427 16.1955 21.396 16.1363 21.3824 16.1099C21.3687 16.0826 21.3551 16.0589 21.3514 16.0571C21.3478 16.0553 21.3314 16.0261 21.315 15.9934C21.2986 15.9606 21.2649 15.8968 21.2403 15.8513C21.2157 15.8058 21.1902 15.7566 21.183 15.742C21.1766 15.7274 21.1638 15.7065 21.1556 15.6947C21.1474 15.6828 21.1274 15.6473 21.111 15.6154C21.0892 15.5745 21.0682 15.5326 21.0464 15.4916C21.0272 15.4552 20.9999 15.4032 20.9853 15.375C20.9708 15.3468 20.9526 15.3149 20.9453 15.3031C20.938 15.2912 20.9179 15.2557 20.9016 15.2238C20.8806 15.1847 20.8606 15.1446 20.8387 15.1055C20.8205 15.0727 20.7923 15.018 20.775 14.9853C20.7577 14.9525 20.7385 14.916 20.7313 14.9042L20.7185 14.8833L21.4971 14.1046C22.3413 13.2595 22.3468 13.255 22.4424 13.2359C22.4989 13.2249 22.5371 13.2286 22.5836 13.2513C22.6473 13.2823 22.6919 13.3388 22.7074 13.4053C22.7192 13.4581 22.701 13.5309 22.6546 13.6238C22.5836 13.765 22.5799 13.8597 22.6427 13.9362C22.66 13.9571 22.6801 13.9826 22.6883 13.9935C22.7092 14.0218 25.9913 17.3029 25.9985 17.3029C26.0022 17.3029 26.0158 17.3147 26.0304 17.3293C26.0942 17.3949 26.1579 17.4149 26.2472 17.3958C26.3027 17.3839 26.3182 17.3785 26.4047 17.3348C26.5377 17.2674 26.6287 17.2756 26.7116 17.3603C26.7508 17.4003 26.7699 17.4495 26.7699 17.5096C26.7699 17.5551 26.758 17.6071 26.7444 17.6189C26.7416 17.6207 26.7334 17.638 26.7253 17.6562C26.7134 17.6836 26.5422 17.8593 25.8456 18.5569C25.3702 19.0332 24.9759 19.4238 24.9713 19.4238C24.9659 19.4238 24.9622 19.4266 24.9622 19.4311C24.9622 19.4348 24.9531 19.443 24.9413 19.4484C24.9303 19.4539 24.9103 19.4648 24.8985 19.4712C24.8192 19.514 24.76 19.5185 24.6954 19.4876C24.6735 19.4776 24.6517 19.4639 24.6471 19.4575C24.6417 19.4512 24.6325 19.4457 24.6271 19.4457C24.6216 19.4457 24.6171 19.4411 24.6171 19.4357C24.6171 19.4302 24.6098 19.4193 24.6007 19.4111C24.5724 19.3865 24.5542 19.3337 24.5551 19.2827C24.5561 19.2417 24.5615 19.2244 24.597 19.1515C24.6553 19.0322 24.6699 18.9867 24.6699 18.9266C24.6699 18.8747 24.658 18.841 24.6216 18.79C24.587 18.7427 21.7658 15.9278 21.7521 15.9278C21.7239 15.9278 21.7421 15.9852 21.7986 16.0744C21.8095 16.0908 21.8222 16.1163 21.8277 16.1309C21.8332 16.1454 21.8405 16.1591 21.8441 16.1609C21.8477 16.1637 21.865 16.1937 21.8833 16.2283C21.9434 16.3449 21.9698 16.3922 21.9834 16.4141C21.9916 16.4259 22.0025 16.4469 22.008 16.4614C22.0135 16.476 22.0199 16.4897 22.0226 16.4915C22.028 16.497 22.0472 16.5307 22.0836 16.6008C22.1009 16.6336 22.1291 16.6882 22.1473 16.721C22.1656 16.7538 22.1847 16.7893 22.1901 16.8002C22.1956 16.8111 22.202 16.8202 22.2038 16.823C22.2065 16.8248 22.2129 16.8385 22.2184 16.853C22.2238 16.8676 22.2311 16.8813 22.2329 16.8831C22.2411 16.8904 22.3076 17.0133 22.3504 17.0989C22.365 17.129 22.3796 17.1535 22.3832 17.1535C22.3859 17.1535 22.3932 17.1672 22.3987 17.1836C22.4042 17.2 22.4105 17.2136 22.4142 17.2136C22.4178 17.2136 22.4242 17.2273 22.4297 17.2437C22.4351 17.2601 22.4424 17.2738 22.4451 17.2738C22.4479 17.2738 22.4633 17.2983 22.4779 17.3284C22.5271 17.4267 22.5863 17.536 22.5945 17.5442C22.5963 17.546 22.6081 17.567 22.6191 17.5898C22.6309 17.6125 22.6564 17.6617 22.6774 17.699C22.6974 17.7364 22.7283 17.7937 22.7447 17.8265C22.7803 17.8966 22.7994 17.9303 22.8048 17.9358C22.8076 17.9376 22.814 17.9513 22.8194 17.9659C22.8249 17.9804 22.8331 17.9941 22.8358 17.9968C22.8394 17.9996 22.8549 18.026 22.8713 18.0569C22.9251 18.1616 22.9642 18.2327 22.9706 18.2418C22.9742 18.2463 22.9915 18.2773 23.0079 18.3092C23.0252 18.342 23.0553 18.3993 23.0753 18.4358C23.0953 18.4731 23.1227 18.525 23.1372 18.5523C23.1509 18.5796 23.1709 18.6152 23.1819 18.6316C23.1919 18.6479 23.2055 18.6734 23.211 18.688C23.2165 18.7026 23.2228 18.7162 23.2256 18.7181C23.2329 18.7244 23.2529 18.7609 23.3312 18.9102C23.3531 18.9512 23.3731 18.9867 23.3758 18.9894C23.3831 18.9949 23.4296 19.0923 23.4296 19.1015C23.4296 19.106 23.4323 19.1097 23.4368 19.1097C23.4414 19.1097 23.456 19.1342 23.4715 19.1643C23.4869 19.1943 23.5161 19.249 23.5361 19.2863C23.5561 19.3237 23.5753 19.3601 23.578 19.3674C23.5807 19.3747 23.5853 19.3801 23.588 19.3801C23.5907 19.3801 23.598 19.3929 23.6035 19.4083C23.609 19.4238 23.6153 19.4384 23.6181 19.4402C23.6244 19.4457 23.6454 19.4821 23.6763 19.5413C23.6909 19.5704 23.7164 19.6178 23.7328 19.6469C23.7492 19.6761 23.7701 19.7152 23.7793 19.7335C23.7884 19.7517 23.7975 19.769 23.8002 19.7708C23.8029 19.7726 23.8102 19.7863 23.8175 19.8008C23.8248 19.8154 23.8457 19.8546 23.8639 19.8874C23.8822 19.9201 23.9104 19.9748 23.9286 20.0076C23.9459 20.0403 23.9659 20.0759 23.9732 20.0868C23.9805 20.0977 23.9905 20.1178 23.9969 20.1323C24.0024 20.1469 24.0087 20.1606 24.0115 20.1624C24.0169 20.1678 24.037 20.2024 24.0679 20.2635L24.0943 20.3163L24.0178 20.3937C23.976 20.4365 23.9377 20.4702 23.9332 20.4702C23.925 20.4656 23.6436 20.3263 23.3048 20.1569ZM14.4941 19.9975C14.4786 19.9884 14.4659 19.9784 14.4659 19.9748C14.4659 19.9711 14.4604 19.9639 14.4541 19.9593C14.4304 19.942 14.434 19.8473 14.4586 19.8273C14.4668 19.8209 14.4896 19.7498 14.4941 19.7189C14.4969 19.6989 14.4941 19.6806 14.4841 19.6624C14.4768 19.6479 14.0151 19.1798 13.4414 18.6051L12.4123 17.5743L12.7857 17.2L13.1591 16.8257L14.1982 17.8639C15.178 18.8428 15.239 18.9011 15.2682 18.9066C15.3055 18.9129 15.3502 18.902 15.4066 18.8747C15.4367 18.8601 15.4594 18.8547 15.4877 18.8547C15.5223 18.8547 15.5305 18.8583 15.5541 18.8811C15.5687 18.8956 15.5842 18.9139 15.5887 18.9211C15.6006 18.943 15.5969 18.9867 15.5805 19.0177C15.5724 19.0341 15.3665 19.2453 15.0997 19.5122C14.5624 20.0485 14.5715 20.0413 14.4941 19.9975ZM12.202 18.5368L11.8259 18.1616L12.0399 17.9467L12.2539 17.7318L12.3313 17.812L12.4087 17.8921L12.4133 17.9977C12.4178 18.0943 12.4324 18.1853 12.4488 18.2236C12.4524 18.2318 12.4597 18.2509 12.4652 18.2646C12.4806 18.3074 12.5362 18.4185 12.5617 18.4558C12.5744 18.4749 12.5854 18.4931 12.5854 18.4931C12.5854 18.495 12.5963 18.5123 12.61 18.5314C12.6236 18.5505 12.6382 18.5724 12.6418 18.5787C12.6464 18.5851 12.66 18.6051 12.6737 18.6224C12.7493 18.7199 12.7675 18.8009 12.7256 18.851C12.6883 18.8956 12.6692 18.9066 12.6209 18.9102L12.5763 18.9139L12.202 18.5368ZM16.1206 18.3747C16.0851 18.3547 16.0668 18.3274 16.0623 18.2882C16.0586 18.2591 16.0705 18.2126 16.0832 18.2026C16.0914 18.1963 16.1142 18.1252 16.1188 18.0961C16.1215 18.077 16.1178 18.0578 16.1069 18.036C16.086 17.9932 14.3029 16.211 14.2628 16.1928C14.2164 16.1718 14.1799 16.1773 14.0989 16.2165C14.0397 16.2456 13.9878 16.2447 13.9559 16.2137C13.9304 16.1901 13.9113 16.1509 13.9113 16.1254C13.9113 16.0781 13.945 16.0407 14.4103 15.5763C14.6672 15.3195 14.8884 15.1036 14.903 15.0964C14.9431 15.0754 14.974 15.0727 14.9995 15.0854C15.0323 15.1027 15.076 15.1565 15.076 15.1801C15.076 15.2029 15.0596 15.2503 15.0387 15.2912C15.0187 15.3286 15.0114 15.3887 15.0223 15.4215C15.0287 15.4406 15.2727 15.6892 15.9457 16.3622C16.8546 17.271 16.8619 17.2774 16.8965 17.2819C16.9356 17.2874 16.9675 17.2801 17.0303 17.2492C17.0859 17.2218 17.1423 17.2218 17.1706 17.2473C17.2234 17.2965 17.2334 17.3375 17.2052 17.3921C17.197 17.4085 16.9912 17.6198 16.7243 17.8866C16.2508 18.3602 16.2171 18.3911 16.167 18.3893C16.1552 18.3902 16.1351 18.3829 16.1206 18.3747ZM28.8161 18.2891C28.7952 18.2782 28.777 18.2664 28.7761 18.2627C28.7742 18.2591 28.7697 18.2564 28.7642 18.2564C28.7588 18.2564 28.7487 18.25 28.7415 18.2418C28.7342 18.2336 28.7169 18.2218 28.7023 18.2154C28.6886 18.209 28.6768 18.1999 28.6768 18.1963C28.6768 18.1926 28.6723 18.189 28.6668 18.189C28.6613 18.189 28.6522 18.1844 28.6477 18.178C28.6431 18.1726 28.6276 18.1616 28.6131 18.1553C28.5985 18.1489 28.5866 18.1398 28.5866 18.1371C28.5866 18.1343 28.5812 18.1289 28.5739 18.1261C28.5666 18.1234 28.5438 18.1116 28.5229 18.0988C28.502 18.087 28.4765 18.0724 28.4664 18.0669C28.4564 18.0615 28.4455 18.056 28.4437 18.0533C28.4419 18.0505 28.4282 18.0442 28.4136 18.0387C28.3836 18.0278 28.3535 18.015 28.3162 17.9977C28.3016 17.9914 28.2697 17.9822 28.2452 17.9768C28.2206 17.9722 28.1923 17.9649 28.1832 17.9604C28.1741 17.9558 28.1186 17.9522 28.0603 17.9522L27.9537 17.9513L27.8654 17.8639L27.7771 17.7764L28.0047 17.5488C28.2078 17.3457 28.2342 17.322 28.2452 17.3311C28.2734 17.3539 28.9746 18.0587 28.9974 18.087C29.0274 18.1234 29.0374 18.1735 29.0229 18.2117C29.0174 18.2254 28.9983 18.2518 28.9801 18.27C28.9491 18.3019 28.9445 18.3037 28.9008 18.3064C28.8608 18.3092 28.848 18.3064 28.8161 18.2891ZM17.2971 17.1936C17.2334 17.1572 17.2234 17.1035 17.2635 17.0179C17.2717 17.0006 17.2789 16.9823 17.2789 16.9778C17.2789 16.9732 17.2817 16.9705 17.2853 16.9705C17.2953 16.9705 17.3017 16.914 17.2962 16.8785C17.2917 16.8485 17.2689 16.8239 16.87 16.4232C16.6378 16.191 16.4429 16.0006 16.4366 16.0006C16.4302 16.0006 16.3655 16.0598 16.2936 16.1318L16.1625 16.2629L16.0814 16.1819L16.0004 16.1008L16.1315 15.9688C16.2034 15.8959 16.2626 15.8322 16.2626 15.8258C16.2626 15.8112 15.4822 15.0308 15.4558 15.0199C15.4449 15.0144 15.4348 15.008 15.4348 15.0053C15.4348 15.0026 15.4185 14.9998 15.3975 14.9998C15.3611 14.9998 15.3429 15.0053 15.2636 15.0435C15.1862 15.08 15.117 15.0526 15.097 14.9789C15.087 14.9415 15.0952 14.9024 15.1207 14.8678C15.1544 14.8232 16.0477 13.9353 16.0759 13.9198C16.1197 13.8934 16.1479 13.8915 16.1871 13.9116C16.2444 13.9407 16.2727 14.0081 16.2444 14.0491C16.239 14.0573 16.2253 14.0882 16.2135 14.1183C16.1907 14.1775 16.1889 14.2403 16.2098 14.2677C16.2153 14.2749 16.6269 14.6884 17.1232 15.1847C17.9328 15.9952 18.0284 16.089 18.0585 16.0972C18.0994 16.109 18.1413 16.1026 18.1951 16.0781C18.2479 16.0535 18.2625 16.0471 18.2816 16.0425C18.3007 16.0371 18.3599 16.0671 18.3708 16.0872C18.3754 16.0954 18.3836 16.1063 18.3881 16.1117C18.4009 16.1254 18.4 16.18 18.3863 16.2037C18.3799 16.2137 18.3726 16.2274 18.3699 16.2338C18.3672 16.2401 18.1532 16.4569 17.8936 16.7164C17.4929 17.1171 17.4183 17.1891 17.3928 17.1954C17.3573 17.2055 17.3172 17.2045 17.2971 17.1936ZM27.034 17.1708C27.0003 17.159 26.9766 17.1426 26.942 17.108C26.9165 17.0825 26.8946 17.057 26.8946 17.0506C26.8946 17.0443 26.8892 17.0297 26.8837 17.0179C26.8773 17.006 26.8728 16.9851 26.8728 16.9723C26.8728 16.9414 26.8983 16.8676 26.9311 16.8048C26.9784 16.7146 26.9957 16.6518 26.9921 16.5862C26.9893 16.5425 26.9848 16.5225 26.972 16.5052C26.9629 16.4924 26.9557 16.4797 26.9557 16.4778C26.9557 16.476 26.9456 16.4633 26.9329 16.4514C26.9201 16.4396 26.9101 16.4268 26.9101 16.4232C26.9101 16.415 23.5917 13.0974 23.5835 13.0974C23.5798 13.0974 23.5652 13.0856 23.5516 13.071C23.5379 13.0565 23.5243 13.0446 23.5215 13.0446C23.5188 13.0446 23.5061 13.0373 23.4924 13.0273C23.4715 13.0128 23.4596 13.01 23.3931 13.01C23.3512 13.01 23.3094 13.0137 23.2993 13.0182C23.1017 13.112 23.089 13.1175 23.0462 13.1229C23.0097 13.1275 22.9979 13.1248 22.9332 13.0938C22.9014 13.0783 22.8467 13.01 22.8285 12.9636C22.8112 12.918 22.8067 12.8743 22.8185 12.867C22.8221 12.8652 22.8276 12.8488 22.8303 12.8306C22.8331 12.8133 22.844 12.786 22.854 12.7705C22.864 12.755 22.8722 12.7405 22.8722 12.7377C22.8722 12.7286 22.875 12.7268 23.6809 11.9172L24.4695 11.1259L26.6706 13.3269L28.8717 15.528L28.084 16.3139C27.6505 16.7465 27.2899 17.1044 27.2817 17.1107C27.2571 17.1299 27.1851 17.1627 27.1551 17.1681C27.1396 17.1708 27.125 17.1763 27.1223 17.18C27.1168 17.1927 27.0822 17.1882 27.034 17.1708ZM14.302 17.1508C14.2838 17.1426 14.2555 17.1244 14.2373 17.1098C14.2191 17.0953 14.2018 17.0834 14.1991 17.0834C14.1963 17.0834 14.1736 17.0679 14.1499 17.0497C14.1262 17.0315 14.1035 17.016 14.0998 17.016C14.0962 17.016 14.0798 17.006 14.0634 16.9942C14.0279 16.9678 13.8712 16.8885 13.8558 16.8885C13.8494 16.8885 13.8412 16.8849 13.8366 16.8803C13.8321 16.8758 13.8084 16.8667 13.7847 16.8612C13.7601 16.8548 13.7292 16.8467 13.7146 16.843C13.7 16.8394 13.6417 16.8348 13.5844 16.8339L13.4806 16.8321L13.4022 16.7538C13.3594 16.711 13.3239 16.6727 13.3239 16.67C13.3239 16.6673 13.4186 16.5689 13.5352 16.4523L13.7465 16.2411L14.1107 16.6044C14.3329 16.8257 14.4796 16.9778 14.4859 16.9933C14.4923 17.0069 14.4969 17.0261 14.4969 17.0352C14.4969 17.077 14.4495 17.1444 14.4085 17.1599C14.3794 17.1699 14.3375 17.1663 14.302 17.1508ZM18.4892 16.0207C18.4555 16.0088 18.4136 15.9542 18.4136 15.9223C18.4136 15.9096 18.4255 15.875 18.4409 15.8458C18.4765 15.7757 18.4847 15.7019 18.4601 15.6692C18.451 15.6573 18.4437 15.6455 18.4437 15.6437C18.4437 15.6373 16.6551 13.8506 16.6488 13.8506C16.646 13.8506 16.6378 13.8451 16.6296 13.8378C16.6196 13.8287 16.6032 13.8251 16.5686 13.826C16.5304 13.8269 16.5122 13.8314 16.4675 13.8542C16.3828 13.8979 16.3337 13.8925 16.2909 13.8342C16.2827 13.8242 16.2745 13.8014 16.2727 13.7841C16.2645 13.7222 16.2727 13.7121 16.7198 13.265L17.1369 12.8479L18.2934 14.0045L19.45 15.161L19.0311 15.5799C18.8007 15.8103 18.6021 16.0034 18.5894 16.0098C18.5566 16.0271 18.5183 16.0316 18.4892 16.0207ZM28.9892 15.08C28.8325 14.9233 28.8289 14.9188 28.8425 14.906C28.8507 14.8987 28.8571 14.8887 28.8571 14.8833C28.8571 14.8778 28.8626 14.8705 28.869 14.8669C28.8808 14.8596 28.8935 14.8414 28.9136 14.7995C28.92 14.7858 28.9272 14.7749 28.9309 14.7749C28.9336 14.7749 28.94 14.7676 28.9445 14.7576C28.9491 14.7485 28.9737 14.7002 28.9992 14.651C29.0247 14.6019 29.0447 14.5545 29.0447 14.5472C29.0447 14.5399 29.0474 14.5336 29.0511 14.5336C29.0547 14.5336 29.062 14.5172 29.0666 14.498C29.0711 14.478 29.0784 14.4589 29.0811 14.4552C29.0848 14.4507 29.0912 14.4307 29.0966 14.4097C29.1021 14.3888 29.1085 14.3687 29.1121 14.3642C29.1157 14.3596 29.1221 14.3332 29.1276 14.3041C29.1321 14.2749 29.1394 14.2449 29.1431 14.2367C29.154 14.2112 29.1731 14.0054 29.1731 13.9079C29.1731 13.8087 29.154 13.5919 29.1431 13.5674C29.1394 13.5592 29.1321 13.5273 29.1267 13.4972C29.1212 13.4672 29.1148 13.4408 29.1112 13.4389C29.1075 13.4371 29.1048 13.4289 29.1048 13.4207C29.1048 13.4043 29.0638 13.2741 29.052 13.2541C29.0474 13.2468 29.0447 13.2368 29.0447 13.2322C29.0447 13.2277 29.0374 13.2076 29.0283 13.1885C28.9737 13.0719 28.96 13.0401 28.9464 13C28.9418 12.9854 28.9345 12.9672 28.9309 12.959C28.9108 12.9108 28.9036 12.8261 28.9163 12.7805C28.9263 12.7432 28.991 12.6785 29.0456 12.6512C29.0839 12.6321 29.0939 12.6303 29.1403 12.6339C29.1768 12.6367 29.1995 12.6421 29.215 12.654C29.2278 12.6631 29.2405 12.6703 29.2432 12.6703C29.246 12.6703 29.4172 12.8388 29.6239 13.0455L29.9991 13.4207V14.4043L29.5802 14.8232C29.3498 15.0536 29.1585 15.2421 29.1549 15.2421C29.1531 15.2412 29.0775 15.1683 28.9892 15.08ZM19.5347 14.9142L19.4563 14.8359L19.4727 14.8104C19.4818 14.7967 19.4928 14.7767 19.4982 14.7667C19.5037 14.7567 19.5101 14.7457 19.5128 14.7439C19.5228 14.7366 19.5547 14.672 19.5601 14.6474C19.5629 14.6346 19.5683 14.6237 19.5711 14.6237C19.5738 14.6237 19.5811 14.6037 19.5866 14.5782C19.592 14.5536 19.5984 14.5327 19.6011 14.5327C19.6111 14.5327 19.6266 14.3842 19.6266 14.2886C19.6266 14.1902 19.6148 14.0855 19.602 14.0609C19.5984 14.0536 19.5911 14.0309 19.5866 14.0099C19.582 13.989 19.5729 13.9617 19.5674 13.948C19.5601 13.9316 19.5529 13.9152 19.5465 13.8988C19.541 13.8852 19.5292 13.8588 19.5201 13.8405C19.4982 13.7959 19.4882 13.7395 19.4964 13.7103C19.5037 13.6848 19.531 13.652 19.5456 13.652C19.551 13.652 19.5565 13.6466 19.5592 13.6411C19.5656 13.6238 19.623 13.6265 19.6467 13.6448C19.6567 13.653 19.6685 13.6593 19.6713 13.6593C19.6749 13.6593 19.8206 13.8023 19.9954 13.9781L20.3133 14.2959L19.9654 14.6428C19.7742 14.8341 19.6166 14.9898 19.6148 14.9898C19.6139 14.9925 19.5775 14.9579 19.5347 14.9142ZM19.0939 14.0008C19.0811 13.9972 19.0538 13.9853 19.032 13.9735C18.991 13.9517 18.9227 13.917 18.8835 13.8988C18.8526 13.8843 18.7287 13.8579 18.6941 13.8579C18.6595 13.8579 18.5511 13.8852 18.5366 13.897C18.5284 13.9043 18.5092 13.8888 18.4346 13.8151L18.3435 13.724L18.3535 13.6912C18.359 13.673 18.3672 13.6539 18.3717 13.6484C18.3763 13.6429 18.3799 13.6001 18.3799 13.5546C18.3799 13.4717 18.3699 13.4189 18.3435 13.3579C18.338 13.3451 18.3289 13.3233 18.3235 13.3087C18.318 13.2942 18.3116 13.2805 18.3098 13.2787C18.3043 13.2741 18.2898 13.2486 18.2615 13.1958C18.247 13.1685 18.2388 13.1421 18.2388 13.1193C18.2379 13.0874 18.2406 13.0811 18.2679 13.0528C18.3043 13.0155 18.3389 12.9964 18.3499 13.0073C18.3544 13.0118 18.3644 13.0146 18.3726 13.0146C18.3827 13.0146 18.5256 13.1521 18.7888 13.4153C19.0092 13.6356 19.2004 13.8287 19.2132 13.8442C19.2487 13.8888 19.246 13.9243 19.2032 13.9662C19.1667 14.0017 19.1349 14.0118 19.0939 14.0008ZM28.1541 13.3424C28.0849 13.3196 28.0029 13.2814 27.9847 13.2632C27.9701 13.2486 27.8153 13.1712 27.7743 13.1585C27.7561 13.1521 27.7324 13.143 27.7215 13.1375C27.7115 13.1321 27.6988 13.1275 27.6933 13.1275C27.6878 13.1275 27.6696 13.1229 27.6523 13.1166C27.6086 13.102 27.4747 13.082 27.4174 13.082C27.3545 13.082 27.2243 13.102 27.1979 13.1157C27.186 13.122 27.1715 13.1266 27.166 13.1266C27.1606 13.1266 27.1451 13.133 27.1323 13.1412C27.0795 13.173 27.0904 13.1803 26.9001 12.99L26.7243 12.8142L26.7489 12.7678C26.7936 12.6831 26.8154 12.5583 26.8081 12.4354C26.8045 12.3635 26.7826 12.2442 26.7662 12.2059C26.7626 12.1977 26.758 12.1822 26.7553 12.1722C26.748 12.1449 26.7316 12.1066 26.6733 11.9928C26.5322 11.7151 26.5386 11.7305 26.5377 11.6686C26.5367 11.5976 26.5504 11.5675 26.6096 11.5092C26.6597 11.4592 26.6943 11.4473 26.7608 11.4528C26.7899 11.4555 26.8136 11.4628 26.8336 11.4765C26.85 11.4874 26.8655 11.4956 26.8682 11.4956C26.871 11.4956 26.8792 11.5001 26.8855 11.5065C26.8919 11.5129 26.9156 11.5329 26.9365 11.553C26.9584 11.5721 26.9757 11.5912 26.9757 11.5939C26.9757 11.6012 28.2716 12.8962 28.3207 12.9381C28.3417 12.9563 28.359 12.9736 28.359 12.9782C28.359 12.9827 28.3654 12.9918 28.3736 12.9982C28.3817 13.0055 28.4009 13.0346 28.4154 13.0638C28.4619 13.1539 28.451 13.2149 28.3726 13.2905C28.3298 13.3315 28.2688 13.3615 28.2269 13.3597C28.2169 13.3597 28.1832 13.3524 28.1541 13.3424ZM17.3855 12.7651C17.3436 12.7223 17.309 12.6858 17.309 12.6822C17.309 12.6785 17.4592 12.5265 17.6432 12.3434L17.9774 12.0101L18.3053 12.338C18.522 12.5547 18.6331 12.6713 18.6331 12.6813C18.6331 12.6968 18.6049 12.7578 18.5885 12.7769C18.583 12.7833 18.5657 12.7951 18.5493 12.8033C18.5211 12.8179 18.5165 12.8179 18.4874 12.8079C18.4701 12.8024 18.4382 12.7887 18.4173 12.7778C18.3963 12.7669 18.3736 12.7578 18.3681 12.7578C18.3626 12.7578 18.3517 12.7523 18.3435 12.7468C18.3353 12.7405 18.3235 12.7359 18.3171 12.7359C18.3107 12.7359 18.2961 12.7314 18.2861 12.7259C18.2752 12.7204 18.2479 12.7113 18.226 12.7059C18.2042 12.7004 18.1823 12.694 18.1778 12.6904C18.1605 12.6767 17.9829 12.6676 17.8882 12.6758C17.8372 12.6804 17.7907 12.6867 17.7871 12.6895C17.7825 12.6931 17.7625 12.6995 17.7416 12.704C17.6805 12.7186 17.5722 12.7705 17.5011 12.8197C17.4847 12.8306 17.4693 12.8406 17.4674 12.8406C17.4638 12.8425 17.4274 12.8079 17.3855 12.7651ZM24.9158 11.0084C24.8302 10.9219 24.76 10.849 24.76 10.8454C24.76 10.8417 24.9485 10.6505 25.1789 10.4201L25.5979 10.0012H26.5003L26.8883 10.39C27.1961 10.6988 27.278 10.7844 27.2817 10.8035C27.2844 10.8171 27.2899 10.8299 27.2935 10.8317C27.3026 10.8372 27.3026 10.8691 27.2935 10.8864C27.2899 10.8936 27.2826 10.9146 27.2771 10.9319C27.2644 10.9747 27.176 11.0703 27.1278 11.0931C27.0922 11.1104 27.0294 11.114 27.0121 11.0995C27.0066 11.0958 26.9893 11.0876 26.973 11.0831C26.9566 11.0776 26.901 11.053 26.8491 11.0284C26.7972 11.0029 26.7444 10.9783 26.7307 10.9729C26.7171 10.9674 26.6952 10.9583 26.6815 10.9519C26.6679 10.9455 26.6433 10.9374 26.6251 10.9328C26.6078 10.9282 26.5914 10.9219 26.5896 10.9182C26.5877 10.9146 26.5714 10.91 26.554 10.9064C26.5367 10.9037 26.5122 10.8964 26.4994 10.8909C26.4785 10.8809 26.412 10.8663 26.3182 10.8499C26.2226 10.8326 26.0541 10.8263 25.9421 10.8354C25.8802 10.8399 25.8146 10.8472 25.7964 10.8508C25.7171 10.8654 25.6479 10.8827 25.627 10.8918C25.6142 10.8973 25.5933 10.9046 25.5796 10.9073C25.566 10.91 25.5459 10.9173 25.5341 10.9228C25.5232 10.9282 25.5031 10.9355 25.4895 10.9383C25.4758 10.941 25.4649 10.9455 25.4649 10.9483C25.4649 10.951 25.4512 10.9583 25.4348 10.9638C25.4185 10.9692 25.4048 10.9765 25.4048 10.9792C25.4048 10.982 25.3939 10.9874 25.3802 10.9902C25.3665 10.9929 25.3392 11.0066 25.3183 11.0193C25.2973 11.0321 25.2718 11.0475 25.2618 11.053C25.2217 11.073 25.1944 11.0894 25.158 11.1168C25.1371 11.1322 25.1161 11.145 25.1125 11.145C25.1088 11.145 25.1015 11.1504 25.0961 11.1559C25.0906 11.1623 25.0833 11.1668 25.0779 11.1668C25.0724 11.1668 25.0014 11.094 24.9158 11.0084Z" fill="white"/>
</g>
</g>
<defs>
<clipPath id="clip0_1782_2977">
<rect width="40" height="40" fill="white"/>
</clipPath>
<clipPath id="clip1_1782_2977">
<rect width="20" height="24" fill="white" transform="translate(10 8)"/>
</clipPath>
</defs>
</svg>
