<svg width="40" height="40" viewBox="0 0 40 40" fill="none" xmlns="http://www.w3.org/2000/svg">
<g clip-path="url(#clip0_821_3993)">
<path d="M20 0C31.0457 0 40 8.9543 40 20C40 31.0457 31.0457 40 20 40C8.95431 40 7.90517e-06 31.0457 0 20C6.58765e-07 8.95431 8.95431 1.97595e-06 20 0Z" fill="#F8CCCF"/>
<path d="M26 6C30.4183 6 34 9.58172 34 14V26C34 30.4183 30.4183 34 26 34H14C9.58172 34 6 30.4183 6 26V14C6 9.58172 9.58172 6 14 6H26Z" fill="#DB0011"/>
<path d="M30 20.0057L25.0033 25.0032V14.9966L30 20.0057ZM25.0033 14.9974H15.0083L20.005 20.0057L25.0033 14.9974ZM10 20.0049L15.0083 25.0024V14.9966L10 20.0057V20.0049ZM15.0083 25.0024L25.0033 25.0032L20.0058 20.0049L15.0083 25.0024Z" fill="white"/>
</g>
<defs>
<clipPath id="clip0_821_3993">
<rect width="40" height="40" fill="white"/>
</clipPath>
</defs>
</svg>
