<svg width="40" height="40" viewBox="0 0 40 40" fill="none" xmlns="http://www.w3.org/2000/svg">
<g clip-path="url(#clip0_1782_2989)">
<path d="M20 0C31.0457 0 40 8.9543 40 20C40 31.0457 31.0457 40 20 40C8.95431 40 7.90517e-06 31.0457 0 20C6.58765e-07 8.95431 8.95431 1.97595e-06 20 0Z" fill="#CFD3F6"/>
<path d="M26 6C30.4183 6 34 9.58172 34 14V26C34 30.4183 30.4183 34 26 34H14C9.58172 34 6 30.4183 6 26V14C6 9.58172 9.58172 6 14 6H26Z" fill="#0F25D1"/>
<path d="M19.9999 10C20.7026 10 21.3766 10.2792 21.8736 10.7761C22.3705 11.2731 22.6497 11.9471 22.6497 12.6498C22.6497 13.3526 22.3705 14.0266 21.8736 14.5236C21.3766 15.0205 20.7026 15.2997 19.9999 15.2997C19.2971 15.2997 18.6231 15.0205 18.1261 14.5236C17.6292 14.0266 17.35 13.3526 17.35 12.6498C17.35 11.9471 17.6292 11.2731 18.1261 10.7761C18.6231 10.2792 19.2971 10 19.9999 10ZM19.9999 14.0094C20.3604 14.0094 20.7062 13.8662 20.9612 13.6112C21.2162 13.3562 21.3594 13.0104 21.3594 12.6498C21.3594 12.2893 21.2162 11.9435 20.9612 11.6885C20.7062 11.4335 20.3604 11.2903 19.9999 11.2903C19.6393 11.2903 19.2935 11.4335 19.0385 11.6885C18.7835 11.9435 18.6403 12.2893 18.6403 12.6498C18.6403 13.0104 18.7835 13.3562 19.0385 13.6112C19.2935 13.8662 19.6393 14.0094 19.9999 14.0094ZM19.3197 30V17.9502H20.6793V30H19.3197Z" fill="white"/>
</g>
<defs>
<clipPath id="clip0_1782_2989">
<rect width="40" height="40" fill="white"/>
</clipPath>
</defs>
</svg>
