<svg width="40" height="40" viewBox="0 0 40 40" fill="none" xmlns="http://www.w3.org/2000/svg">
<g clip-path="url(#clip0_1782_3259)">
<path d="M20 0C31.0457 0 40 8.9543 40 20C40 31.0457 31.0457 40 20 40C8.95431 40 7.90517e-06 31.0457 0 20C6.58765e-07 8.95431 8.95431 1.97595e-06 20 0Z" fill="#DAE1E4"/>
<path d="M26 6C30.4183 6 34 9.58172 34 14V26C34 30.4183 30.4183 34 26 34H14C9.58172 34 6 30.4183 6 26V14C6 9.58172 9.58172 6 14 6H26Z" fill="#0B354E"/>
<path fill-rule="evenodd" clip-rule="evenodd" d="M29.9572 15.2844C29.9805 15.2844 30 15.3038 30 15.3272V20.4663C30 20.4844 29.9883 20.5013 29.9715 20.5065L15.2559 25.7001C15.2286 25.7105 15.1988 25.7156 15.1689 25.7156H10.0428C10.0195 25.7156 10 25.6962 10 25.6728V20.5337C10 20.5156 10.0117 20.4987 10.0285 20.4922L24.7649 15.2921C24.7787 15.287 24.793 15.2844 24.8077 15.2844L29.9572 15.2844ZM26.0542 16.5581V19.4571C26.0542 19.4805 26.0685 19.4973 26.0905 19.4973H26.6055C26.6288 19.4973 26.647 19.4805 26.647 19.4571V17.9888L27.3059 19.4753C27.3111 19.4896 27.3293 19.4986 27.3474 19.4986H27.8481C27.8715 19.4986 27.8896 19.4805 27.8896 19.4571V16.5581C27.8896 16.5348 27.8715 16.5166 27.8481 16.5166H27.3293C27.3059 16.5166 27.2878 16.5348 27.2878 16.5581V17.9992L26.6561 16.54C26.6509 16.5309 26.6418 16.5166 26.6236 16.5166H26.0905C26.0685 16.5166 26.0542 16.5348 26.0542 16.5581ZM21.4093 18.1613V21.0604C21.4093 21.0837 21.4223 21.1019 21.4456 21.1019H22.9814C23.0047 21.1019 23.0216 21.0837 23.0216 21.0604V20.5778C23.0216 20.5545 23.0047 20.5363 22.9814 20.5363H22.006V19.8722H22.7648C22.7868 19.8722 22.8011 19.8553 22.8011 19.832V19.3404C22.8011 19.317 22.7868 19.2989 22.7648 19.2989H22.006V18.6854H22.9814C23.0047 18.6854 23.0216 18.6672 23.0216 18.6439V18.1613C23.0216 18.138 23.0047 18.1198 22.9814 18.1198H21.4456C21.4223 18.1198 21.4093 18.138 21.4093 18.1613ZM16.4959 19.8787V22.7777C16.4959 22.7998 16.5089 22.8179 16.527 22.8179H17.0433C17.0653 22.8179 17.0835 22.7998 17.0835 22.7777V21.7297H17.3118L17.8034 22.7959C17.8085 22.8088 17.8176 22.8179 17.8345 22.8179H18.3871C18.4143 22.8179 18.4325 22.792 18.4182 22.7647L17.8993 21.6311C18.0252 21.5727 18.1147 21.4508 18.1782 21.3211C18.2314 21.2082 18.2586 21.0604 18.2586 20.9034V20.6453C18.2586 20.12 17.9577 19.8372 17.4596 19.8372H16.527C16.5089 19.8372 16.4959 19.8553 16.4959 19.8787ZM17.2132 20.4339C17.5543 20.4339 17.6711 20.4663 17.6711 20.7802V20.788C17.662 21.1382 17.4959 21.1421 17.2132 21.1421H17.0835V20.4339H17.2132ZM11.8146 21.5623V22.0449C11.8146 22.0682 11.8328 22.0864 11.8549 22.0864H12.4139V23.9373H11.8549C11.8328 23.9373 11.8146 23.9555 11.8146 23.9788V24.4614C11.8146 24.4847 11.8328 24.5029 11.8549 24.5029H13.5502C13.5722 24.5029 13.5904 24.4847 13.5904 24.4614V23.9788C13.5904 23.9555 13.5722 23.9373 13.5502 23.9373H13.0054V22.0864H13.5502C13.5722 22.0864 13.5904 22.0682 13.5904 22.0449V21.5623C13.5904 21.539 13.5722 21.5208 13.5502 21.5208H11.8549C11.8328 21.5208 11.8146 21.539 11.8146 21.5623Z" fill="white"/>
</g>
<defs>
<clipPath id="clip0_1782_3259">
<rect width="40" height="40" fill="white"/>
</clipPath>
</defs>
</svg>
