<svg width="40" height="40" viewBox="0 0 40 40" fill="none" xmlns="http://www.w3.org/2000/svg">
<g clip-path="url(#clip0_1782_3013)">
<path d="M20 0C31.0457 0 40 8.9543 40 20C40 31.0457 31.0457 40 20 40C8.95431 40 7.90517e-06 31.0457 0 20C6.58765e-07 8.95431 8.95431 1.97595e-06 20 0Z" fill="#FBD1CC"/>
<path d="M26 6C30.4183 6 34 9.58172 34 14V26C34 30.4183 30.4183 34 26 34H14C9.58172 34 6 30.4183 6 26V14C6 9.58172 9.58172 6 14 6H26Z" fill="#EB1700"/>
<path d="M15.4725 15.8699H14.0103V21.9666C14.0103 22.9575 13.6323 23.5463 12.7363 23.5463C11.8403 23.5463 11.4622 22.9205 11.4622 21.8476V20.7151L10 21.0803V21.587C10 23.1313 10.7673 24.312 12.7363 24.312C14.7052 24.312 15.4725 23.1329 15.4725 21.587V15.8699ZM30 15.8699H28.5378V21.9666C28.5378 22.9575 28.1597 23.5463 27.2637 23.5463C26.3677 23.5463 25.9897 22.9205 25.9897 21.8476V20.7151L24.5275 21.0803V21.587C24.5275 23.1313 25.2948 24.312 27.2637 24.312C29.2327 24.312 30 23.1329 30 21.587V15.8699ZM19.4796 23.453C18.3471 23.453 17.6522 22.5329 17.6522 21.5548C17.6522 20.9419 17.9241 20.3757 18.3713 20.0572L21.0368 22.9704C20.5413 23.2648 19.9863 23.4546 19.4796 23.4546M22.0743 22.0036L19.7627 19.4556C20.1761 19.2899 20.5767 19.232 20.9065 19.232C21.862 19.232 22.4507 19.7869 22.4507 20.7425C22.4507 21.1671 22.3333 21.6031 22.0727 22.0036M19.4426 19.1145L18.9359 18.5483C18.4871 18.0528 18.3584 17.7456 18.3584 17.3804C18.3584 16.6968 18.7943 16.3075 19.478 16.3075C20.1617 16.3075 20.5863 16.708 20.5863 17.44C20.5863 18.1124 20.2566 18.7494 19.4426 19.1145ZM19.5134 15.6833C17.8855 15.6833 17.0844 16.5922 17.0844 17.7231C17.0844 18.336 17.3434 18.9505 18.0286 19.692L18.0399 19.7162C16.8849 20.2711 16.3541 21.1671 16.3541 22.0873C16.3541 23.3018 17.2855 24.3168 18.7252 24.3168C19.5504 24.3168 20.5172 23.9742 21.3907 23.3613L22.0984 24.1286H23.95V24.0691L22.4411 22.4058C23.0781 21.6513 23.4433 20.8261 23.4433 20.1055C23.4433 19.2094 22.8416 18.6078 21.899 18.6078C21.4035 18.6078 20.8485 18.7494 20.4834 18.8909L20.4593 18.8443C21.3553 18.3601 21.7333 17.9129 21.7333 17.2871C21.7333 16.3911 20.9306 15.6833 19.5166 15.6833" fill="white"/>
</g>
<defs>
<clipPath id="clip0_1782_3013">
<rect width="40" height="40" fill="white"/>
</clipPath>
</defs>
</svg>
