<svg width="40" height="40" viewBox="0 0 40 40" fill="none" xmlns="http://www.w3.org/2000/svg">
<g clip-path="url(#clip0_1767_683)">
<path d="M20 0C31.0457 0 40 8.9543 40 20C40 31.0457 31.0457 40 20 40C8.95431 40 7.90517e-06 31.0457 0 20C6.58765e-07 8.95431 8.95431 1.97595e-06 20 0Z" fill="#D9D9D9"/>
<path d="M26 6C30.4183 6 34 9.58172 34 14V26C34 30.4183 30.4183 34 26 34H14C9.58172 34 6 30.4183 6 26V14C6 9.58172 9.58172 6 14 6H26Z" fill="black"/>
<path fill-rule="evenodd" clip-rule="evenodd" d="M28.0135 20.7801L30 24.4117H23.867L21.8708 20.7801H28.0135ZM15.7087 16.6172C15.7763 16.7428 17.1263 19.2058 17.1939 19.3216C17.4061 19.7176 17.6279 20.0558 17.9847 20.3455C18.4475 20.7221 19.1803 20.7897 19.8842 20.7897L20.3624 20.7895C20.5796 20.789 20.4494 20.787 21.109 20.7801L22.1022 22.5911L23.0956 24.402H18.0328C17.3867 24.402 16.7503 24.3924 16.1138 24.2379C15.4677 24.0929 14.9278 23.8322 14.4069 23.4458C13.3461 22.6634 12.7483 21.6204 12.1312 20.5001L11.0655 18.5586L10 16.6172H15.7087ZM25.7184 16.5883L27.6953 20.2102H21.5527L19.5758 16.5883H25.7184Z" fill="white"/>
</g>
<defs>
<clipPath id="clip0_1767_683">
<rect width="40" height="40" fill="white"/>
</clipPath>
</defs>
</svg>
