<svg width="40" height="40" viewBox="0 0 40 40" fill="none" xmlns="http://www.w3.org/2000/svg">
<g clip-path="url(#clip0_1784_4278)">
<path d="M20 0C31.0457 0 40 8.9543 40 20C40 31.0457 31.0457 40 20 40C8.95431 40 7.90517e-06 31.0457 0 20C6.58765e-07 8.95431 8.95431 1.97595e-06 20 0Z" fill="#D9D9D9"/>
<path d="M26 6C30.4183 6 34 9.58172 34 14V26C34 30.4183 30.4183 34 26 34H14C9.58172 34 6 30.4183 6 26V14C6 9.58172 9.58172 6 14 6H26Z" fill="black"/>
<path d="M16.457 20.1855L27.6765 29.1329L16.457 21.8543L25.3402 29.1329L16.457 23.5231L23.0039 29.1457L16.457 25.1919L20.6675 29.1457H10L20 11.8543L30 29.1329L16.457 20.1855Z" fill="white"/>
</g>
<defs>
<clipPath id="clip0_1784_4278">
<rect width="40" height="40" fill="white"/>
</clipPath>
</defs>
</svg>
