<svg width="40" height="40" viewBox="0 0 40 40" fill="none" xmlns="http://www.w3.org/2000/svg">
<g clip-path="url(#clip0_1782_2965)">
<path d="M20 0C31.0457 0 40 8.9543 40 20C40 31.0457 31.0457 40 20 40C8.95431 40 7.90517e-06 31.0457 0 20C6.58765e-07 8.95431 8.95431 1.97595e-06 20 0Z" fill="#CCD3E1"/>
<path d="M26 6C30.4183 6 34 9.58172 34 14V26C34 30.4183 30.4183 34 26 34H14C9.58172 34 6 30.4183 6 26V14C6 9.58172 9.58172 6 14 6H26Z" fill="#012169"/>
<path d="M16.6943 20.3589V22.1639H15.8903V20.3589H16.6943Z" fill="white"/>
<path d="M28.2088 19.5768C28.2424 19.5768 28.2788 19.584 28.2788 19.6232C28.2787 19.6728 28.2422 19.6761 28.2015 19.6761H28.1429V19.5768H28.2088Z" fill="white"/>
<path fill-rule="evenodd" clip-rule="evenodd" d="M28.2015 19.4645C28.3272 19.4645 28.4268 19.5632 28.4269 19.6948C28.4269 19.829 28.3273 19.9276 28.2015 19.9276C28.0742 19.9274 27.9753 19.8289 27.9753 19.6948C27.9753 19.5633 28.0742 19.4647 28.2015 19.4645ZM28.0941 19.5353V19.856H28.1429V19.7168H28.1991L28.2837 19.856H28.3382L28.2471 19.7152C28.2941 19.7093 28.3293 19.6838 28.3293 19.6265C28.3292 19.5634 28.292 19.5354 28.217 19.5353H28.0941Z" fill="white"/>
<path fill-rule="evenodd" clip-rule="evenodd" d="M25.166 17.2127H28.387V18.1152H30V24.1821H10V18.1152H11.6138V17.2127H14.8356L20.0008 15L25.166 17.2127ZM26.5837 19.4328C26.1192 19.4328 25.7671 19.6013 25.5379 19.9341C25.3457 20.2074 25.3241 20.6398 25.4875 20.9627C25.6978 21.3277 26.0352 21.4808 26.3615 21.6284C26.496 21.6889 26.6357 21.7521 26.766 21.8294L26.7668 21.8302C26.9141 21.9188 26.9899 22.0543 26.9588 22.1745C26.9265 22.299 26.7832 22.3828 26.6032 22.3828C26.5788 22.3828 26.5541 22.3813 26.5299 22.3779L26.521 22.3771C26.1745 22.3289 25.4717 22.0666 25.4647 22.0638L25.4427 22.0557V22.8711L25.4541 22.8752C25.472 22.8812 26.1455 23.1022 26.744 23.1022C27.0734 23.1022 27.3229 23.0358 27.4837 22.9053C27.4951 22.8964 27.8566 22.6005 27.8727 22.1012C27.8772 21.9618 27.8453 21.8189 27.7783 21.6772L27.7734 21.6659C27.7698 21.6586 27.7657 21.6511 27.762 21.6439L27.7563 21.6333C27.6115 21.3428 27.2873 21.1001 26.7651 20.8911L26.7464 20.8838C26.6427 20.843 26.3289 20.7198 26.2939 20.52C26.2845 20.464 26.3073 20.3765 26.3696 20.3231C26.4355 20.2561 26.5361 20.2214 26.6691 20.2214C26.8819 20.2214 27.1238 20.3087 27.2493 20.3605C27.5092 20.4683 27.7379 20.5644 27.7474 20.5688L27.771 20.5786V19.8348L27.7629 19.8299C27.7478 19.8203 27.2531 19.5108 26.7537 19.4393C26.6959 19.4343 26.6387 19.4328 26.5837 19.4328ZM15.4093 19.5581C15.1693 19.5581 14.9748 19.7531 14.9748 19.9935V22.5293C14.9748 22.7694 15.1693 22.9647 15.4093 22.9647H17.1753C17.4155 22.9645 17.6099 22.7692 17.6099 22.5293V19.9935C17.6099 19.7533 17.4155 19.5583 17.1753 19.5581H15.4093ZM18.1307 19.5581V22.5293C18.1307 22.7696 18.3257 22.9647 18.5661 22.9647H19.6484C19.8307 22.9646 19.9999 22.8385 20 22.6562C20.0001 22.8385 20.1701 22.9646 20.3524 22.9647H21.4355C21.6755 22.9645 21.8701 22.7695 21.8701 22.5293V19.5581H20.9546V22.1688H20.402V19.5581H19.598V22.1688H19.0462V19.5581H18.1307ZM22.3926 19.5581V22.9647H24.5687V22.1672H23.3114V21.6479H24.5687V20.8805H23.3114V20.3589H24.5687V19.5581H22.3926ZM12.2762 18.8257V22.9639H14.6045V22.168H13.1901V18.8257H12.2762ZM28.2015 19.4173C28.0484 19.4175 27.9192 19.5353 27.9191 19.6948C27.9191 19.8555 28.0484 19.9738 28.2015 19.974C28.3531 19.974 28.4831 19.8556 28.4831 19.6948C28.483 19.5352 28.353 19.4173 28.2015 19.4173ZM24.7705 18.8265V19.8071L25.4053 19.8079L25.5371 18.8265H24.7705Z" fill="white"/>
</g>
<defs>
<clipPath id="clip0_1782_2965">
<rect width="40" height="40" fill="white"/>
</clipPath>
</defs>
</svg>
