<svg width="40" height="40" viewBox="0 0 40 40" fill="none" xmlns="http://www.w3.org/2000/svg">
<g clip-path="url(#clip0_1784_3962)">
<path d="M20 0C31.0457 0 40 8.9543 40 20C40 31.0457 31.0457 40 20 40C8.95431 40 7.90517e-06 31.0457 0 20C6.58765e-07 8.95431 8.95431 1.97595e-06 20 0Z" fill="#DEDFE9"/>
<path d="M26 6C30.4183 6 34 9.58172 34 14V26C34 30.4183 30.4183 34 26 34H14C9.58172 34 6 30.4183 6 26V14C6 9.58172 9.58172 6 14 6H26Z" fill="#242B6D"/>
<g clip-path="url(#clip1_1784_3962)">
<path d="M14.9369 25.6307L18.2468 21.535H19.8458V29.1935H18.2749V23.8634L15.0211 27.7909H14.7967L11.5428 23.8634V29.1935H10V21.535H11.5989L14.9369 25.6307Z" fill="white"/>
<path fill-rule="evenodd" clip-rule="evenodd" d="M26.8865 21.535C28.8219 21.535 30 22.545 30 24.1159C30 25.6869 28.7939 26.6687 26.8865 26.6687H23.352V29.1935H21.7812V21.535H26.8865ZM23.352 25.238H26.7743C27.8962 25.238 28.4011 24.8734 28.4011 24.1159C28.4011 22.9657 27.1669 22.9657 26.7743 22.9657H23.352V25.238Z" fill="white"/>
<path d="M21.8934 10.8186C22.5105 10.7626 23.1277 10.9028 23.6606 11.2113C24.7265 11.7724 25.512 12.7263 26.1571 13.7081C26.8583 14.7741 27.4474 15.8963 27.9524 17.0465C28.4853 18.1685 28.9341 19.3468 29.2988 20.5531C29.2988 20.5531 29.2988 20.6092 29.2707 20.6092C29.2707 20.6092 29.2427 20.6092 29.2146 20.5811C29.1305 20.5531 29.1024 20.5251 29.0463 20.497C28.9621 20.4409 28.8781 20.3848 28.7659 20.3287L28.1487 19.964C27.728 19.7395 27.3352 19.5151 26.9145 19.2627C25.4278 18.4491 23.913 17.6356 22.3983 16.8781C20.8837 16.1207 19.3408 15.4194 17.77 14.8303C18.0786 14.6058 18.4432 14.3814 18.7799 14.185C18.8921 14.2412 19.0043 14.2972 19.1165 14.3534C19.986 14.7461 20.8275 15.1949 21.697 15.6438C22.5386 16.1207 23.3801 16.6256 24.2216 17.1306C25.0631 17.6356 25.9046 18.1685 26.6901 18.7296C26.9987 18.926 27.2791 19.1224 27.5596 19.3187C28.0646 19.6835 28.5975 20.0762 29.1024 20.4409L28.9061 20.0762C28.4011 19.1224 27.812 18.1686 27.223 17.2709C26.6339 16.3732 25.9888 15.5316 25.3156 14.6899C25.0071 14.2972 24.6423 13.9045 24.2497 13.5398C23.885 13.175 23.4642 12.8665 23.0155 12.6421C22.7911 12.5299 22.5386 12.4457 22.2861 12.4177C22.0056 12.3895 21.7252 12.3896 21.4727 12.4737C20.9677 12.6141 20.4629 12.8104 19.986 13.0348C19.0323 13.5117 18.1066 14.0728 17.2371 14.6899C16.4797 15.223 15.7223 15.756 14.9931 16.3171C13.7308 17.2709 12.4965 18.2807 11.3184 19.3187C11.0939 19.4871 10.8695 19.6835 10.6732 19.8798C10.561 19.964 10.4488 20.0482 10.3366 20.1604C10.3086 20.2164 10.2524 20.2446 10.1964 20.3006C10.1684 20.3006 10.1402 20.3287 10.1122 20.3567C10.028 20.3848 10.0562 20.3287 10.0562 20.3006C10.2244 19.8237 10.3646 19.3187 10.561 18.8699C10.8415 18.1405 11.1501 17.4111 11.5147 16.6818C11.8514 15.9805 12.244 15.3072 12.6648 14.6619C13.0855 14.0728 13.6185 13.5398 14.2918 13.2873C14.9931 13.0068 15.7784 13.147 16.4797 13.3434L15.4138 14.2412C15.1052 14.213 14.7967 14.2412 14.5161 14.3814C14.2637 14.5216 14.0112 14.6899 13.7868 14.9145C13.3661 15.3072 13.0015 15.7279 12.6648 16.1768C12.3282 16.6256 12.0196 17.1025 11.7111 17.5794C11.2062 18.3649 10.7293 19.1785 10.3086 19.992C10.561 19.7115 10.7854 19.4309 11.0379 19.1785C11.8232 18.3089 12.6367 17.4672 13.4783 16.6537C14.2918 15.8401 15.1333 15.0547 16.0028 14.2972C16.3114 14.0448 16.648 13.7643 16.9845 13.4837C17.0968 13.3995 17.209 13.3154 17.3212 13.2032C18.2188 12.4457 19.2287 11.8004 20.2946 11.2675C20.7995 11.043 21.3324 10.8748 21.8934 10.8186Z" fill="white"/>
</g>
</g>
<defs>
<clipPath id="clip0_1784_3962">
<rect width="40" height="40" fill="white"/>
</clipPath>
<clipPath id="clip1_1784_3962">
<rect width="20" height="20" fill="white" transform="translate(10 10)"/>
</clipPath>
</defs>
</svg>
