<svg width="40" height="40" viewBox="0 0 40 40" fill="none" xmlns="http://www.w3.org/2000/svg">
<g clip-path="url(#clip0_1784_4077)">
<path d="M20 0C31.0457 0 40 8.9543 40 20C40 31.0457 31.0457 40 20 40C8.95431 40 7.90517e-06 31.0457 0 20C6.58765e-07 8.95431 8.95431 1.97595e-06 20 0Z" fill="#D9DCEC"/>
<path d="M26 6C30.4183 6 34 9.58172 34 14V26C34 30.4183 30.4183 34 26 34H14C9.58172 34 6 30.4183 6 26V14C6 9.58172 9.58172 6 14 6H26Z" fill="#00187E"/>
<path d="M20.4845 28.4991H18.0889V22.7769H20.4845V28.4991Z" fill="white"/>
<path d="M24.2699 17.8647H24.784L26.7182 11.5009H30V28.4991H27.6425V14.6197H27.4295L25.1364 22.5692H23.6638L20.7159 14.6197H20.4845V20.1683H18.0889V11.5009H22.3345L24.2699 17.8647Z" fill="white"/>
<path d="M15.2475 26.1272H12.8506V23.5185H15.2475V26.1272Z" fill="white"/>
<path d="M12.3969 22.7769H10V20.1683H12.3969V22.7769Z" fill="white"/>
<path d="M18.0889 22.7769H15.6919V20.1683H18.0889V22.7769Z" fill="white"/>
<path d="M15.2475 19.9237H12.8506V17.3138H15.2475V19.9237Z" fill="white"/>
</g>
<defs>
<clipPath id="clip0_1784_4077">
<rect width="40" height="40" fill="white"/>
</clipPath>
</defs>
</svg>
