<svg width="40" height="40" viewBox="0 0 40 40" fill="none" xmlns="http://www.w3.org/2000/svg">
<g clip-path="url(#clip0_1693_244)">
<path d="M20 0C31.0457 0 40 8.9543 40 20C40 31.0457 31.0457 40 20 40C8.95431 40 7.90517e-06 31.0457 0 20C6.58765e-07 8.95431 8.95431 1.97595e-06 20 0Z" fill="#F8E1E2"/>
<path d="M26 6C30.4183 6 34 9.58172 34 14V26C34 30.4183 30.4183 34 26 34H14C9.58172 34 6 30.4183 6 26V14C6 9.58172 9.58172 6 14 6H26Z" fill="#D1343E"/>
<path d="M15.6295 26.9401C15.9079 26.9401 16.0456 27.1565 16.0456 27.5744C16.0456 27.976 15.9079 28.1931 15.6295 28.1931H11.2379C10.9589 28.1931 10.8333 27.976 10.8333 27.5744C10.8333 27.1565 10.9589 26.9401 11.2379 26.9401H15.6295Z" fill="white"/>
<path d="M22.172 26.9401C22.4504 26.9401 22.5881 27.1565 22.5881 27.5744C22.5881 27.976 22.4504 28.1931 22.172 28.1931H17.7925C17.5286 28.1931 17.3758 27.976 17.3758 27.5744C17.3758 27.1565 17.5286 26.9401 17.7925 26.9401H22.172Z" fill="white"/>
<path d="M28.7475 26.9401C29.0259 26.9401 29.1667 27.1565 29.1667 27.5744C29.1667 27.976 29.0259 28.1931 28.7475 28.1931H24.326C24.0591 28.1931 23.9183 27.976 23.9183 27.5744C23.9183 27.1565 24.0591 26.9401 24.326 26.9401H28.7475Z" fill="white"/>
<path d="M24.9576 11.8069C25.8071 11.8069 26.545 12.0199 27.1822 12.4453C27.8207 12.8665 28.2948 13.4541 28.6242 14.2238C28.934 14.9743 29.0808 16.1151 29.0808 17.6156V24.244H27.4933V17.6156C27.4933 16.3281 27.3946 15.4308 27.2147 14.9392C27.0192 14.4523 26.7073 14.058 26.2488 13.7639C25.8071 13.4697 25.2674 13.327 24.6457 13.327C23.8929 13.327 23.2058 13.555 22.5666 13.9958C21.9449 14.4327 21.4863 15.0399 21.1921 15.7749C20.9135 16.5249 20.7661 17.7624 20.7661 19.4949V24.244H19.1961V18.041C19.1961 16.5715 19.113 15.5775 18.9331 15.0555C18.7376 14.5334 18.4257 14.1081 17.9685 13.7984C17.5099 13.4894 16.9695 13.327 16.3486 13.327C15.6282 13.327 14.9565 13.5353 14.3174 13.9762C13.6958 14.4016 13.2372 14.9899 12.9274 15.7243C12.6332 16.4593 12.4864 17.5846 12.4864 19.1047V24.244H10.9139V12.1166H12.4864V14.2238C13.0262 13.4387 13.5822 12.8861 14.1551 12.5265C14.9411 12.0504 15.775 11.8069 16.6428 11.8069C17.2313 11.8069 17.7886 11.9232 18.329 12.1511C18.8512 12.379 19.2929 12.6887 19.6223 13.0795C19.9489 13.4541 20.2431 14.0114 20.4894 14.7112C21.0122 13.7639 21.6663 13.0485 22.4367 12.5419C23.2206 12.0504 24.0573 11.8069 24.9576 11.8069Z" fill="white"/>
</g>
<defs>
<clipPath id="clip0_1693_244">
<rect width="40" height="40" fill="white"/>
</clipPath>
</defs>
</svg>
