<svg width="40" height="40" viewBox="0 0 40 40" fill="none" xmlns="http://www.w3.org/2000/svg">
<g clip-path="url(#clip0_1779_728)">
<path d="M20 0C31.0457 0 40 8.9543 40 20C40 31.0457 31.0457 40 20 40C8.95431 40 7.90517e-06 31.0457 0 20C6.58765e-07 8.95431 8.95431 1.97595e-06 20 0Z" fill="#D9EBEA"/>
<path d="M26 6C30.4183 6 34 9.58172 34 14V26C34 30.4183 30.4183 34 26 34H14C9.58172 34 6 30.4183 6 26V14C6 9.58172 9.58172 6 14 6H26Z" fill="#007A73"/>
<g clip-path="url(#clip1_1779_728)">
<path fill-rule="evenodd" clip-rule="evenodd" d="M24.9995 14.9964C24.9995 12.2327 22.7615 9.99268 19.9995 9.99268C17.2383 9.99268 14.9995 12.2327 14.9995 14.9964H24.9995ZM14.9995 25.0035C14.9995 22.2403 17.2383 19.9998 19.9995 19.9998C17.2383 19.9998 14.9995 17.7602 14.9995 14.9964C12.2383 14.9964 10 17.2366 10 19.9998C10 22.7639 12.2383 25.0035 14.9995 25.0035ZM14.9995 25.0035C14.9995 27.7677 17.2383 30.0073 19.9995 30.0073C22.7615 30.0073 24.9995 27.7677 24.9995 25.0035H14.9995ZM19.9995 19.9998C22.7615 19.9998 24.9995 22.2403 24.9995 25.0035C27.7611 25.0035 30 22.7639 30 19.9998C30 17.2366 27.7611 14.9964 24.9995 14.9964C24.9995 17.7602 22.7615 19.9998 19.9995 19.9998Z" fill="white"/>
</g>
</g>
<defs>
<clipPath id="clip0_1779_728">
<rect width="40" height="40" fill="white"/>
</clipPath>
<clipPath id="clip1_1779_728">
<rect width="20" height="20" fill="white" transform="translate(10 10)"/>
</clipPath>
</defs>
</svg>
