<svg width="40" height="40" viewBox="0 0 40 40" fill="none" xmlns="http://www.w3.org/2000/svg">
<g clip-path="url(#clip0_821_4125)">
<path d="M20 0C31.0457 0 40 8.9543 40 20C40 31.0457 31.0457 40 20 40C8.95431 40 7.90517e-06 31.0457 0 20C6.58765e-07 8.95431 8.95431 1.97595e-06 20 0Z" fill="#FACED0"/>
<path d="M26 6C30.4183 6 34 9.58172 34 14V26C34 30.4183 30.4183 34 26 34H14C9.58172 34 6 30.4183 6 26V14C6 9.58172 9.58172 6 14 6H26Z" fill="#E50914"/>
<path d="M14.7734 10.5L21.3823 29.1849C23.2395 29.2316 25.2266 29.5 25.2266 29.5L18.5061 10.5H14.7734ZM21.4939 10.5V17.7612L25.2266 28.3141V10.5H21.4939ZM14.7734 11.6875V29.5C16.2562 29.3219 16.998 29.253 18.5061 29.1849V22.2404L14.7734 11.6875Z" fill="white"/>
</g>
<defs>
<clipPath id="clip0_821_4125">
<rect width="40" height="40" fill="white"/>
</clipPath>
</defs>
</svg>
