<svg width="40" height="40" viewBox="0 0 40 40" fill="none" xmlns="http://www.w3.org/2000/svg">
<g clip-path="url(#clip0_1784_4124)">
<path d="M20 0C31.0457 0 40 8.9543 40 20C40 31.0457 31.0457 40 20 40C8.95431 40 7.90517e-06 31.0457 0 20C6.58765e-07 8.95431 8.95431 1.97595e-06 20 0Z" fill="#CCEAF7"/>
<path d="M26 6C30.4183 6 34 9.58172 34 14V26C34 30.4183 30.4183 34 26 34H14C9.58172 34 6 30.4183 6 26V14C6 9.58172 9.58172 6 14 6H26Z" fill="#0096D6"/>
<path d="M29.5788 19.0357C29.8573 19.9646 29.9991 20.9291 30 21.8989C30.0039 24.2106 29.2032 26.4517 27.7348 28.2371C24.4648 27.518 21.1672 26.929 17.8505 26.4716C21.7867 23.2989 27.2703 20.2618 29.5788 19.0357ZM20.297 16.0433C19.0319 17.3088 15.1647 22.1311 15.1464 22.154L15.916 23.5764C16.684 22.8462 22.3207 18.4753 22.3346 18.4645C21.6492 19.3391 16.0453 26.0722 15.9217 26.221C14.1784 26.0091 12.4554 25.8333 10.7519 25.6985C10.5173 25.1294 10.3359 24.5397 10.2098 23.9372C13.3774 20.9707 20.2676 16.0642 20.297 16.0433ZM20.0008 11.6579C23.8027 11.658 27.1072 13.7794 28.7981 16.9034C24.9653 19.1957 18.1068 24.872 18.1068 24.872C19.4131 23.1425 24.7937 17.0316 24.7937 17.0316L24.4472 15.3791L17.3758 20.7214L22.4884 14.7642C22.4503 13.6156 22.144 12.7718 22.1419 12.7658C18.2294 15.1077 12.2448 20.187 10.0237 22.1119C10.0163 21.9605 10 21.811 10 21.6587C10.0001 16.1354 14.4778 11.6579 20.0008 11.6579Z" fill="white"/>
</g>
<defs>
<clipPath id="clip0_1784_4124">
<rect width="40" height="40" fill="white"/>
</clipPath>
</defs>
</svg>
