<svg width="40" height="40" viewBox="0 0 40 40" fill="none" xmlns="http://www.w3.org/2000/svg">
<g clip-path="url(#clip0_1691_117)">
<path d="M20 0C31.0457 0 40 8.9543 40 20C40 31.0457 31.0457 40 20 40C8.95431 40 7.90517e-06 31.0457 0 20C6.58765e-07 8.95431 8.95431 1.97595e-06 20 0Z" fill="#D9D9D9"/>
<path d="M26 6C30.4183 6 34 9.58172 34 14V26C34 30.4183 30.4183 34 26 34H14C9.58172 34 6 30.4183 6 26V14C6 9.58172 9.58172 6 14 6H26Z" fill="black"/>
<path d="M23.1465 20.6656C24.1447 20.6656 24.0842 20.6657 24.7799 21.3614L28.1684 24.7194C27.412 26.2623 26.2322 27.5633 24.7498 28.4709L20.847 24.5681C20.5143 24.2052 20.3328 24.0841 20.1513 24.0236C20.0908 23.9934 20.0303 23.9935 19.9699 23.9935C19.9094 23.9935 19.8487 23.9934 19.7882 24.0236C19.6067 24.0841 19.4554 24.2052 19.0924 24.5681L15.1899 28.4709C13.7378 27.5633 12.5274 26.2623 11.7711 24.7194L15.1595 21.3614C15.7684 20.7261 15.7982 20.6698 16.465 20.6656H23.1465Z" fill="white"/>
<path d="M19.9699 11.5291C25.0221 11.5291 29.1062 15.6134 29.1667 20.6656H25.6574C24.8406 20.6656 24.5682 20.605 24.3262 20.3327C24.054 20.0605 24.0842 19.8183 23.8422 19.1831C23.6002 18.6083 23.2673 18.094 22.8135 17.6705C22.4202 17.3075 21.9664 17.0049 21.4521 16.8234C19.3344 16.0067 16.9445 17.0655 16.1276 19.1831C15.8554 19.8183 15.8856 20.0605 15.6437 20.3327C15.4017 20.605 15.1292 20.6656 14.3426 20.6656H10.8333C10.8333 18.0942 11.9224 15.6739 13.7981 13.9192C15.4923 12.3763 17.6706 11.5291 19.9699 11.5291Z" fill="white"/>
</g>
<defs>
<clipPath id="clip0_1691_117">
<rect width="40" height="40" fill="white"/>
</clipPath>
</defs>
</svg>
