<svg width="40" height="40" viewBox="0 0 40 40" fill="none" xmlns="http://www.w3.org/2000/svg">
<g clip-path="url(#clip0_1691_187)">
<path d="M20 0C31.0457 0 40 8.9543 40 20C40 31.0457 31.0457 40 20 40C8.95431 40 7.90517e-06 31.0457 0 20C6.58765e-07 8.95431 8.95431 1.97595e-06 20 0Z" fill="#F4DDDE"/>
<path d="M26 6C30.4183 6 34 9.58172 34 14V26C34 30.4183 30.4183 34 26 34H14C9.58172 34 6 30.4183 6 26V14C6 9.58172 9.58172 6 14 6H26Z" fill="#B81C22"/>
<path fill-rule="evenodd" clip-rule="evenodd" d="M10.5351 23.0021C10.5797 22.8075 10.6677 22.6935 10.7916 22.6489C10.9069 22.6142 11.0122 22.6489 11.0915 22.7642C11.1535 22.8695 11.1535 23.0021 11.0915 23.1781C11.0742 23.302 11.0742 23.4247 11.0829 23.5573C11.1188 23.6899 11.1101 23.8052 11.0568 23.9192C11.0122 24.0345 10.9416 24.1398 10.8623 24.2278C10.8176 24.3344 10.7656 24.4484 10.7296 24.581C10.6937 24.7223 10.633 24.8103 10.5524 24.8462C10.4731 24.8983 10.3678 24.9169 10.2438 24.8896C10.1286 24.8549 10.0493 24.7756 10.022 24.6517C9.98729 24.5191 9.99596 24.3778 10.0319 24.2278C10.084 24.1138 10.1286 23.9899 10.1459 23.8399C10.1459 23.6193 10.2166 23.4247 10.3678 23.2574C10.4558 23.1694 10.509 23.0814 10.5351 23.0021ZM11.7992 22.9315C11.8438 22.9141 11.8785 22.8955 11.9058 22.8695C11.9231 22.8249 12.0111 22.8249 12.1524 22.8695C12.2503 22.9042 12.321 22.9662 12.3557 23.0542C12.3916 23.1781 12.4003 23.2934 12.4003 23.39C12.3916 23.566 12.4089 23.7346 12.4536 23.8845C12.4622 24.0258 12.4362 24.1671 12.3742 24.317C12.3643 24.4137 12.3557 24.4844 12.3557 24.5277C12.3383 24.5897 12.3123 24.6517 12.259 24.7223C12.171 24.819 12.0904 24.8723 12.0198 24.8723C11.9496 24.8814 11.8789 24.8198 11.8079 24.6876C11.7112 24.5463 11.6666 24.4311 11.6753 24.3257C11.6224 23.9548 11.6046 23.7077 11.622 23.5846C11.6406 23.4867 11.6666 23.3281 11.6926 23.0901C11.7372 22.9844 11.7728 22.9315 11.7992 22.9315ZM12.9134 22.6229C12.9481 22.5956 12.9753 22.5609 13.0013 22.5163C13.01 22.463 13.098 22.437 13.2492 22.4457C13.3546 22.4457 13.4525 22.4903 13.5231 22.5783C13.6024 22.6935 13.647 22.7902 13.6644 22.8955C13.6731 22.9488 13.6904 22.9934 13.709 23.0368C13.7173 23.0814 13.7173 23.1256 13.709 23.1694C13.7264 23.2574 13.7437 23.3367 13.7524 23.3987C13.7611 23.4607 13.7524 23.5313 13.7264 23.628C13.6644 23.7519 13.5937 23.8226 13.5318 23.8399C13.4611 23.8659 13.3731 23.8312 13.2579 23.716C13.1079 23.6106 13.0274 23.4954 13.01 23.39C12.9307 23.2227 12.8948 23.1161 12.8948 23.0542C12.8948 23.0108 12.8861 22.9315 12.8601 22.8162C12.8601 22.6935 12.8861 22.6316 12.9134 22.6229ZM10.4731 21.4579C10.4818 21.3786 10.4644 21.2906 10.4384 21.1927C10.4198 21.0873 10.4384 20.9721 10.509 20.8407C10.6239 20.6019 10.7296 20.4607 10.8263 20.4169C10.8982 20.3809 10.9329 20.3103 10.9416 20.2136C10.9502 20.1169 10.9949 20.0017 11.0829 19.879C11.1361 19.7637 11.1448 19.6485 11.0915 19.5431C11.0829 19.4898 11.0568 19.4378 11.0209 19.3932C10.9771 19.3312 10.9329 19.2961 10.8883 19.2878C10.7743 19.2432 10.6937 19.1899 10.6677 19.1193C10.6412 19.0846 10.6061 19.0581 10.5623 19.04C10.509 19.0139 10.4818 18.9693 10.4905 18.9074C10.5004 18.864 10.4818 18.8194 10.4297 18.776C10.3851 18.7227 10.3492 18.6694 10.3492 18.6074C10.3405 18.4141 10.3578 18.2988 10.4025 18.2728C10.4558 18.2282 10.4731 18.1848 10.4644 18.1402C10.4644 18.0696 10.5177 17.9283 10.633 17.7164C10.7656 17.4697 10.8536 17.3284 10.8982 17.2838C10.9242 17.2665 10.9502 17.2231 10.9688 17.1525C10.9949 17.0992 11.0308 17.0459 11.0829 17.0112C11.1275 16.9839 11.1448 16.9492 11.1535 16.8959C11.1717 16.834 11.2072 16.7898 11.2601 16.7633C11.3047 16.746 11.3481 16.7026 11.384 16.6233C11.4894 16.4113 11.5786 16.3134 11.6406 16.3134C11.7025 16.3134 11.7546 16.3048 11.7992 16.2701C11.8698 16.2341 11.9492 16.2254 12.0557 16.2614C12.1441 16.2878 12.2061 16.2965 12.2416 16.2874C12.347 16.2614 12.4796 16.2874 12.6295 16.3667C12.7981 16.482 12.8861 16.6047 12.8861 16.7373C12.8948 16.8612 12.8687 16.9405 12.8241 16.9666C12.7101 17.0546 12.6209 17.0992 12.5502 17.0905C12.4709 17.0818 12.4089 17.0905 12.3829 17.1252C12.33 17.1698 12.2681 17.1876 12.197 17.1785C12.1351 17.1611 12.0818 17.1785 12.0285 17.2231C11.9847 17.2578 11.9496 17.2752 11.9231 17.2752C11.8785 17.2665 11.8438 17.2937 11.7992 17.3371C11.7459 17.4078 11.7112 17.4611 11.7025 17.5044C11.6839 17.585 11.6579 17.6284 11.622 17.6457C11.5786 17.6903 11.534 17.7523 11.5079 17.8316C11.472 17.9196 11.446 17.9729 11.41 17.9729C11.3667 18.0076 11.322 18.1055 11.2948 18.2728C11.2068 18.4575 11.1808 18.5901 11.2241 18.6868C11.3047 18.802 11.3667 18.8727 11.41 18.9074C11.4633 18.9173 11.4894 18.9433 11.4993 18.9693C11.5166 19.0226 11.5699 19.0573 11.6579 19.0573C11.7285 19.0672 11.7818 19.0759 11.7992 19.1019C11.8967 19.1457 11.9764 19.137 12.0384 19.0759C12.0904 19.0226 12.1437 18.9867 12.197 18.9867C12.2763 18.978 12.321 18.9346 12.3557 18.8466C12.3742 18.7933 12.4003 18.7661 12.4263 18.7401C12.4969 18.6967 12.5416 18.626 12.5775 18.5194C12.6039 18.4492 12.6304 18.3963 12.6568 18.3608C12.7002 18.3075 12.7188 18.2555 12.7002 18.2109C12.6915 18.1576 12.6295 18.0956 12.4969 18.025C12.4449 17.9903 12.4362 17.9196 12.4883 17.8044C12.5238 17.7341 12.5858 17.699 12.6742 17.699C12.7188 17.6903 12.7721 17.673 12.8068 17.6457C12.8601 17.611 12.9134 17.611 12.9753 17.637C13.0187 17.6544 13.072 17.673 13.1426 17.673C13.3368 17.6903 13.4958 17.7783 13.6198 17.937C13.6991 18.0435 13.7177 18.1142 13.6904 18.1576C13.6557 18.2109 13.6557 18.2815 13.6991 18.3695C13.7264 18.4488 13.7264 18.5368 13.6991 18.6161C13.647 18.7401 13.5851 18.802 13.5144 18.8107C13.3372 18.864 13.2046 18.9433 13.1166 19.0313C13.0546 19.0846 13.0187 19.1466 13.01 19.2073C12.9927 19.2432 12.9753 19.2779 12.9654 19.3225C12.9654 19.3399 12.9654 19.3572 12.9753 19.3672C12.9927 19.4378 13.0013 19.5171 13.0013 19.6225C13.01 19.6311 13.0187 19.6398 13.0187 19.6398C13.0373 19.6844 13.0633 19.7018 13.0893 19.7104C13.16 19.7377 13.2046 19.7898 13.2405 19.879C13.2666 19.9484 13.3112 20.0017 13.3546 20.055C13.3992 20.081 13.4438 20.143 13.4698 20.231C13.5231 20.3723 13.5578 20.5049 13.5665 20.6102C13.5851 20.7515 13.6024 20.8581 13.6284 20.9287C13.6644 21.0254 13.6817 21.1047 13.6731 21.1753C13.6644 21.3253 13.6198 21.4492 13.5318 21.5546C13.4785 21.6079 13.4165 21.6525 13.3546 21.6785C13.319 21.7223 13.2661 21.7665 13.1959 21.8111C13.0633 21.8904 12.9567 21.9871 12.8687 22.1024C12.7361 22.261 12.5416 22.349 12.2937 22.3663C12.197 22.3663 12.0991 22.3837 12.0111 22.411C11.8959 22.437 11.7818 22.4196 11.6753 22.3577C11.534 22.2783 11.4014 22.2523 11.2774 22.2523C11.0742 22.2697 10.8796 22.199 10.6937 22.0491C10.5437 21.7578 10.4644 21.5719 10.4731 21.4579ZM12.2937 19.8344C12.285 19.8344 12.285 19.8344 12.285 19.8431C12.2317 19.8877 12.1437 19.9137 12.0384 19.9224C11.9405 19.9397 11.8785 19.9843 11.8525 20.0723C11.7992 20.2049 11.7025 20.3103 11.5699 20.3896C11.4807 20.4429 11.4274 20.5135 11.4187 20.5929C11.4014 20.7081 11.3667 20.7961 11.2948 20.8581C11.2068 20.9374 11.1622 21.0167 11.1721 21.0873C11.1981 21.2113 11.2688 21.3253 11.3753 21.4319C11.4547 21.4753 11.534 21.4926 11.6133 21.4926C11.7199 21.5013 11.7905 21.5199 11.8351 21.5459C11.9058 21.5905 11.9578 21.5992 12.0111 21.5719C12.109 21.5372 12.1797 21.5285 12.2317 21.5546C12.3123 21.5719 12.4089 21.5546 12.5329 21.5013C12.6568 21.4492 12.7622 21.3612 12.8427 21.2547C12.8427 21.1307 12.8601 21.0341 12.8861 20.9634C12.922 20.8754 12.9307 20.7701 12.9307 20.6375C12.9134 20.5135 12.8861 20.4255 12.8328 20.3809C12.8154 20.3636 12.7981 20.319 12.7807 20.2582C12.7535 20.1789 12.7188 20.1169 12.6655 20.0723C12.6395 20.0463 12.6209 20.019 12.6122 20.0017C12.6035 19.9843 12.5948 19.9583 12.5676 19.9397C12.4883 19.8963 12.4003 19.8604 12.2937 19.8344ZM19.5772 24.0432C19.6132 24.2105 19.6132 24.3518 19.5859 24.4571C19.5512 24.5277 19.5339 24.5897 19.524 24.643C19.4979 24.7136 19.4719 24.7669 19.4446 24.793C19.3393 24.8809 19.224 24.9256 19.0914 24.9256C18.9762 24.9169 18.8708 24.8636 18.7915 24.7483C18.7023 24.6071 18.6589 24.493 18.6676 24.3964C18.6763 24.317 18.6676 24.2464 18.6316 24.1844C18.6143 24.1311 18.6143 24.0692 18.6316 24.0072C18.6498 23.937 18.6498 23.8577 18.6316 23.7693C18.5783 23.566 18.561 23.4074 18.5783 23.302C18.6143 22.9934 18.6056 22.6935 18.561 22.3936C18.5523 22.313 18.5523 22.2337 18.561 22.1631C18.5697 22.0838 18.5697 21.9784 18.561 21.8285C18.5436 21.6525 18.5523 21.5112 18.5783 21.4046C18.6143 21.272 18.623 21.122 18.5969 20.9721C18.5783 20.8928 18.561 20.7874 18.5523 20.6635C18.4904 20.5929 18.4371 20.5495 18.3838 20.5222C18.2958 20.4429 18.2338 20.3809 18.1991 20.3549C18.1805 20.3462 18.1632 20.3376 18.1458 20.3376C17.9339 20.2756 17.712 20.2669 17.5001 20.3016C17.4121 20.319 17.3328 20.3376 17.2622 20.3376C17.182 20.3458 17.1287 20.3632 17.1023 20.3896C17.0589 20.4082 17.023 20.4255 16.997 20.4516C17.0056 20.4602 17.0056 20.4788 17.0056 20.4788C17.0056 20.5582 17.0056 20.6375 17.0143 20.7255C17.023 20.7788 17.0143 20.8308 16.997 20.8754C16.9883 20.8841 16.9883 20.8928 16.9883 20.92C17.0403 20.9907 17.1023 21.0427 17.1729 21.096C17.1816 21.1047 17.1915 21.1134 17.1915 21.1134C17.2795 21.1047 17.3861 21.1134 17.5175 21.1307C17.6501 21.1406 17.7653 21.1406 17.8719 21.1307C17.9859 21.1406 18.0925 21.1753 18.1991 21.246C18.3131 21.3166 18.3751 21.4319 18.3751 21.5719C18.3838 21.6959 18.3131 21.7925 18.1718 21.8632C18.0045 21.9251 17.8186 21.9251 17.598 21.8545C17.4468 21.8111 17.2882 21.8111 17.1209 21.8371C16.997 21.8718 16.8817 21.8718 16.7664 21.8458H16.7578C16.4752 21.9425 16.2806 22.023 16.174 22.0924L16.184 22.1024C16.2013 22.2077 16.184 22.3403 16.122 22.5163C16.1034 22.6043 16.1034 22.6663 16.1121 22.7109V22.9315C16.1121 23.0108 16.1307 23.0901 16.1567 23.1434C16.1749 23.1872 16.1926 23.2223 16.21 23.2487C16.298 23.302 16.3252 23.3814 16.2719 23.4867C16.2273 23.5933 16.1654 23.6639 16.0774 23.6986C16.0241 23.7073 15.9708 23.7073 15.9361 23.6986C15.8915 23.6813 15.8382 23.6635 15.7762 23.6453C15.6263 23.602 15.5209 23.478 15.4589 23.2661C15.4057 22.9848 15.3883 22.7543 15.4057 22.5869C15.423 22.5076 15.4317 22.437 15.4317 22.375V22.2957C15.423 22.2523 15.4057 22.2077 15.3796 22.1817C15.361 22.1371 15.335 22.111 15.3177 22.0838C15.2557 22.0838 15.2024 22.0838 15.1491 22.0751C15.0871 22.0404 15.0339 22.0131 14.9905 21.9871C14.9905 21.9958 14.9905 22.0131 14.9991 22.0404C14.9991 22.1284 14.9818 22.2436 14.9545 22.3663C14.9112 22.4729 14.8839 22.5696 14.8926 22.6576C14.8839 22.7195 14.8839 22.7815 14.8752 22.8435C14.8579 22.8955 14.8492 22.9488 14.8579 23.0108C14.8579 23.0728 14.8393 23.1347 14.8132 23.2054C14.7777 23.2756 14.76 23.3549 14.76 23.4433C14.76 23.4867 14.7426 23.5573 14.7166 23.6453C14.61 23.9019 14.548 24.1051 14.522 24.2551C14.4861 24.3518 14.4241 24.4484 14.3448 24.5377C14.2208 24.6434 14.106 24.705 14.0002 24.7223C13.9123 24.731 13.8143 24.705 13.709 24.6603C13.6198 24.5897 13.5578 24.5104 13.5318 24.4224C13.5144 24.3344 13.5058 24.2464 13.5144 24.1572C13.5409 24.0696 13.5673 23.9903 13.5937 23.9192C13.6371 23.8659 13.6991 23.7866 13.7697 23.6726C13.885 23.54 13.947 23.4247 13.947 23.3367C13.9556 23.2661 13.9829 23.214 14.0089 23.1868C14.0709 23.0281 14.1151 22.8873 14.1415 22.7642C14.1861 22.6749 14.2035 22.5956 14.2035 22.525C14.2035 22.2523 14.2568 21.9871 14.3708 21.7318C14.4328 21.5719 14.4427 21.422 14.3981 21.2633C14.4154 21.1493 14.4241 21.07 14.4241 21.0167C14.46 20.9101 14.4774 20.8135 14.4687 20.7081C14.4427 20.5396 14.4328 20.3809 14.46 20.231C14.4687 20.0996 14.4687 19.8517 14.4328 19.4725C14.4154 19.2519 14.3535 19.0846 14.2655 18.9607C14.1415 18.7847 14.0709 18.5554 14.0622 18.2815C14.0267 17.9989 14.0709 17.7432 14.1948 17.5143C14.3101 17.2405 14.4241 17.0818 14.5307 17.0285C14.6893 16.9492 14.8306 16.9492 14.9545 17.0372C14.9459 17.0285 14.9459 17.0285 14.9545 17.0285C14.9818 17.0199 15.0339 17.0199 15.0958 17.0285C15.1404 17.0285 15.2024 17.0285 15.2817 17.0199C15.4404 16.9666 15.6002 16.9492 15.7502 16.9752C15.8654 17.0025 15.9448 17.0112 16.0154 16.9839C16.1567 16.9133 16.2719 16.8872 16.3339 16.9133C16.3773 16.9232 16.4306 16.9133 16.4925 16.8786C16.6611 16.8079 16.8024 16.7993 16.9263 16.834C17.0589 16.8699 17.1915 16.8699 17.3241 16.8426C17.5361 16.8079 17.722 16.8079 17.8806 16.834C17.9773 16.8426 18.0578 16.8525 18.1186 16.8426C18.1991 16.8426 18.2611 16.8612 18.3045 16.9046C18.3838 16.9492 18.4544 16.9752 18.5436 16.9666C18.6589 16.9579 18.7469 16.9666 18.8175 17.0025C18.9055 17.0459 18.9675 17.0992 18.9948 17.1438C19.0295 17.2231 19.1001 17.2847 19.2067 17.3284C19.3827 17.4251 19.4979 17.5751 19.5599 17.787C19.5863 17.9018 19.5863 18.0254 19.5599 18.1576C19.5425 18.2456 19.5066 18.3075 19.4533 18.3521C19.4013 18.4054 19.374 18.4662 19.3653 18.5368C19.3566 18.6161 19.348 18.6607 19.3207 18.6868C19.286 18.7661 19.2773 18.8367 19.3034 18.8987C19.3207 18.9607 19.3207 19.0313 19.3034 19.128C19.26 19.3572 19.2501 19.6051 19.2687 19.8604C19.2687 20.029 19.2414 20.169 19.198 20.2843C19.1794 20.3462 19.1794 20.4342 19.2067 20.5396C19.224 20.6288 19.224 20.7341 19.198 20.8581C19.1707 20.9638 19.1707 21.0696 19.198 21.1753C19.2414 21.4319 19.26 21.6612 19.2327 21.8458C19.1881 22.1631 19.2067 22.3936 19.2773 22.5436C19.4099 22.9402 19.4806 23.2574 19.4893 23.5053C19.5066 23.7259 19.5339 23.8932 19.5772 24.0432ZM17.0763 23.0542C17.1296 23.0455 17.2262 23.0281 17.3502 23.0281C17.4654 23.0195 17.5534 23.0021 17.598 22.9749C17.7393 22.9311 17.8806 22.9488 18.0219 23.0281C18.1371 23.0901 18.2078 23.1955 18.2251 23.3367C18.2338 23.4954 18.1904 23.602 18.0838 23.6639C17.9512 23.7432 17.7653 23.7693 17.5361 23.7432C17.4654 23.7259 17.4295 23.7259 17.4208 23.7346C17.3762 23.7432 17.3328 23.7432 17.2882 23.7432C17.2349 23.7432 17.1816 23.7519 17.1469 23.7779C17.023 23.8226 16.8643 23.8139 16.6784 23.7693C16.5805 23.7073 16.5285 23.6193 16.5198 23.514C16.5285 23.4346 16.5545 23.3553 16.5991 23.2661C16.6784 23.1694 16.7664 23.1161 16.8817 23.1161C16.961 23.0901 17.0317 23.0728 17.0763 23.0542ZM18.4904 19.6398C18.535 19.5964 18.5697 19.5605 18.5969 19.5171V19.3758C18.587 19.2259 18.5969 19.0933 18.6316 18.9867C18.649 18.8727 18.6589 18.6967 18.649 18.4662C18.6316 18.2728 18.5436 18.0956 18.3937 17.9196C18.0045 17.585 17.686 17.4611 17.4295 17.5491C17.2882 17.5937 17.111 17.585 16.8817 17.5404C16.5805 17.4697 16.298 17.5044 16.0154 17.6284C15.8828 17.6817 15.7861 17.7077 15.7242 17.699C15.6622 17.6903 15.6089 17.6903 15.5556 17.699C15.5296 17.7077 15.511 17.7077 15.5023 17.7164C15.2644 17.8143 15.1045 17.8936 15.0165 17.9642C15.0078 17.9816 14.9991 17.9989 14.9991 18.025C14.8839 18.2555 14.8219 18.4228 14.8306 18.5108C14.8665 18.7314 14.8839 18.8813 14.8926 18.9693C14.8839 19.1813 14.9112 19.3572 14.9991 19.4812V19.4985L15.0165 19.5084C15.1404 19.6138 15.247 19.6931 15.3437 19.7551C15.3524 19.7637 15.3697 19.7811 15.3796 19.7811C15.4672 19.7547 15.5465 19.746 15.6176 19.7551C15.7155 19.7724 15.8208 19.7724 15.9274 19.7551C16.0154 19.729 16.1121 19.729 16.2013 19.7464C16.3166 19.7637 16.4046 19.7464 16.4752 19.6931C16.5545 19.6671 16.6784 19.6584 16.8557 19.6671H16.8643C16.935 19.6225 16.9784 19.5964 17.0143 19.5605C17.0317 19.5345 17.0589 19.5084 17.0849 19.4812C17.0936 19.4378 17.111 19.3932 17.1382 19.3672C17.1643 19.3139 17.1915 19.2519 17.2089 19.1639C17.2089 19.1019 17.2002 19.0139 17.1816 18.9074C17.1729 18.828 17.1729 18.7574 17.1816 18.714C17.2349 18.5901 17.2708 18.4847 17.2795 18.4054C17.2795 18.246 17.3415 18.1224 17.4654 18.0349C17.6067 17.9283 17.712 17.8849 17.8013 17.9023C17.8806 17.9196 17.9426 17.9816 17.9859 18.0696C18.0392 18.1848 18.0665 18.3162 18.0578 18.4575C18.0392 18.5641 18.0132 18.6694 17.9859 18.7574C17.9426 18.8553 17.8893 18.9433 17.8186 19.0226C17.7393 19.1106 17.7034 19.2432 17.6947 19.4105C17.686 19.4465 17.6773 19.4812 17.6773 19.5258C17.6947 19.5431 17.722 19.5692 17.7393 19.5964C17.748 19.5964 17.7567 19.6051 17.7567 19.6225C17.8447 19.6138 17.9599 19.6225 18.0925 19.6398C18.2165 19.6584 18.3317 19.6584 18.4371 19.6485C18.4457 19.6485 18.4643 19.6584 18.473 19.6584C18.4763 19.651 18.4796 19.6452 18.4829 19.641C18.4817 19.6435 18.4829 19.6435 18.4904 19.6398ZM18.4829 19.641C18.4842 19.6373 18.4904 19.6311 18.4904 19.6311C18.4904 19.6311 18.4866 19.6348 18.4829 19.641ZM16.3252 21.0873C16.3252 21.07 16.3252 21.0427 16.3339 21.0254C16.3426 20.9461 16.3339 20.8841 16.3166 20.8221V20.5668C16.298 20.5396 16.2719 20.5222 16.2447 20.5135C16.1654 20.4702 16.0774 20.4342 15.9708 20.4082H15.9621C15.8481 20.4702 15.7502 20.5049 15.6795 20.5135C15.6002 20.5222 15.5209 20.5309 15.4503 20.5309C15.4143 20.5495 15.397 20.5582 15.3883 20.5582C15.3077 20.6015 15.2644 20.6548 15.2284 20.6994C15.1937 20.7341 15.1665 20.7788 15.1491 20.8221C15.1404 20.9634 15.1231 21.07 15.0958 21.1493C15.0524 21.2373 15.0339 21.334 15.0425 21.4492C15.1231 21.3612 15.2198 21.2993 15.3524 21.272C15.4676 21.2286 15.5556 21.22 15.6263 21.22C15.7056 21.2373 15.7853 21.2373 15.8654 21.22C15.9448 21.2014 16.0154 21.2014 16.086 21.22H16.1121C16.2013 21.1753 16.2806 21.1307 16.3252 21.0873ZM15.6709 18.3348C15.7056 18.3162 15.7328 18.2815 15.7502 18.2456C15.7589 18.1935 15.8295 18.1662 15.9795 18.1762C16.086 18.1848 16.174 18.2195 16.236 18.2902C16.3066 18.3955 16.3513 18.4934 16.3686 18.5988C16.3773 18.6434 16.3959 18.6967 16.4219 18.7314C16.4306 18.7661 16.4306 18.8107 16.4219 18.8553C16.4393 18.952 16.4578 19.0226 16.4665 19.0672C16.4752 19.1193 16.4665 19.1899 16.4306 19.2779C16.3773 19.3932 16.3252 19.4638 16.2546 19.4812C16.1926 19.5084 16.1034 19.4725 16.0067 19.3672C15.8568 19.2692 15.7762 19.1726 15.7589 19.0672C15.6882 18.9074 15.6535 18.802 15.6436 18.7401C15.6436 18.6967 15.6349 18.626 15.6089 18.5108C15.6263 18.4054 15.6436 18.3435 15.6709 18.3348ZM24.024 16.7732C23.8207 16.7199 23.7228 16.6134 23.7228 16.4634C23.7141 16.3134 23.7674 16.1994 23.8827 16.1114C24.0153 16.0048 24.1739 15.9429 24.3685 15.9342C24.4834 15.9259 24.6069 15.9082 24.7391 15.8809C24.9159 15.8107 25.1195 15.7756 25.3501 15.7756C25.6326 15.7669 25.8532 15.7842 26.0218 15.8115C26.2337 15.8636 26.463 15.8809 26.6935 15.8549C27.0554 15.8115 27.3739 15.8462 27.6478 15.9788C27.7184 16.0321 27.8151 16.0495 27.9477 16.0408C28.0989 16.0495 28.2402 16.1114 28.3901 16.2341C28.5587 16.3407 28.6554 16.4287 28.664 16.5167C28.6727 16.596 28.7087 16.6666 28.7793 16.7286C28.8673 16.8253 28.9119 17.0025 28.9032 17.2491C28.9206 17.3731 28.9553 17.4784 28.9999 17.5664C29.0528 17.6548 29.0792 17.7961 29.0792 17.9903V18.6074C29.0705 18.8987 28.9999 19.1019 28.8673 19.2345C28.7615 19.3932 28.5938 19.5167 28.3641 19.6051C28.1956 19.7018 27.9836 19.7377 27.7097 19.7104C27.5238 19.7018 27.3652 19.7018 27.2326 19.729C27.0814 19.7811 26.9401 19.7898 26.8075 19.7464C26.6848 19.6931 26.5609 19.6844 26.4283 19.729C26.2771 19.8084 26.1358 19.8084 26.0032 19.7464C25.9065 19.7018 25.7999 19.7018 25.6946 19.729C25.6587 19.8517 25.6153 19.967 25.5533 20.081C25.4913 20.1789 25.4021 20.2669 25.2782 20.3549C25.2175 20.4082 25.1642 20.4602 25.1109 20.5309C25.0663 20.6375 24.9956 20.6994 24.9163 20.7255C24.8196 20.7602 24.7391 20.8135 24.6684 20.8754C24.5544 20.9994 24.4218 21.0873 24.2619 21.1307C24.1471 21.1844 24.0322 21.2464 23.9174 21.3166C23.8207 21.3959 23.6794 21.4319 23.4849 21.4406C23.3163 21.4492 23.175 21.4926 23.0511 21.5719C22.9185 21.6339 22.8218 21.6612 22.7512 21.6525C22.6719 21.6426 22.6 21.6525 22.5566 21.6698C22.3881 21.7318 22.2207 21.7405 22.0522 21.6872C21.9109 21.6426 21.8403 21.5992 21.8316 21.5546C21.8229 21.5013 21.8056 21.4666 21.7783 21.4579C21.7519 21.4406 21.7341 21.3964 21.725 21.3253C21.7163 21.22 21.7436 21.122 21.8142 21.0341C21.8762 20.9721 21.9729 20.92 22.0968 20.8841C22.2294 20.8494 22.362 20.8494 22.486 20.8754C22.574 20.8928 22.6892 20.9014 22.8218 20.9014C22.9544 20.8841 23.0684 20.8494 23.1837 20.7874C23.2903 20.7081 23.4043 20.6635 23.5369 20.6548C23.6695 20.6375 23.7848 20.5755 23.8914 20.4875C23.988 20.4169 24.0946 20.3636 24.2 20.3462C24.3598 20.2669 24.4924 20.169 24.5978 20.0463C24.6424 19.967 24.6783 19.8963 24.7217 19.8517C24.5457 19.7984 24.3859 19.8084 24.2359 19.8691C24.1293 19.9137 23.9707 19.8963 23.7414 19.8257C23.5022 19.7637 23.3523 19.6757 23.3076 19.5692C23.2903 19.4638 23.211 19.3572 23.0784 19.2692C22.9718 19.2073 22.9358 19.0672 22.9544 18.8553C22.9458 18.5281 22.9272 18.2728 22.9011 18.0609C22.8652 17.937 22.8652 17.8143 22.8925 17.6903C22.9011 17.611 22.9098 17.523 22.9011 17.4338C22.8925 17.2491 22.9272 17.0818 22.9978 16.9405C23.0424 16.834 23.1044 16.7633 23.175 16.7113C23.237 16.658 23.3076 16.6406 23.3696 16.6319C23.4489 16.6493 23.5282 16.6666 23.5902 16.6927C23.6522 16.7464 23.6964 16.8261 23.7228 16.9319C23.7674 17.0546 23.7848 17.2491 23.7501 17.5317C23.7055 17.8576 23.6968 18.1142 23.7228 18.2815C23.7674 18.5021 23.8207 18.6521 23.8914 18.7401C23.9707 18.8813 24.1033 18.978 24.2805 19.0313C24.5358 19.1019 24.8196 19.1019 25.1282 19.0139C25.526 18.8987 25.9239 18.8813 26.2957 18.9693C26.5336 19.0226 26.7555 19.0139 26.9401 18.952C27.126 18.8987 27.338 18.8727 27.5685 18.8813C27.763 18.9074 27.9217 18.8553 28.0369 18.7227C28.1249 18.6521 28.2042 18.5281 28.2662 18.3435C28.2935 18.1402 28.2749 17.9556 28.2129 17.8044C28.1609 17.6643 28.1423 17.5404 28.1423 17.4338C28.134 17.3636 28.1167 17.2842 28.0902 17.1958C28.0097 17.0905 27.9576 17.0199 27.9576 16.9839C27.9304 16.9046 27.8957 16.8426 27.8424 16.8166C27.7717 16.7906 27.7011 16.7546 27.6565 16.7113C27.5858 16.6233 27.276 16.5613 26.7108 16.534C26.3217 16.5427 26.0032 16.534 25.7479 16.508C25.4021 16.4374 25.0848 16.4721 24.7837 16.6233C24.5011 16.7732 24.2533 16.8166 24.024 16.7732ZM25.3934 17.4437C25.65 17.3904 25.9152 17.3817 26.1717 17.4338C26.375 17.4871 26.5423 17.4958 26.7022 17.4524C26.8881 17.4078 27.0467 17.4164 27.1706 17.4871C27.2946 17.5751 27.3565 17.699 27.3652 17.849C27.3379 17.9903 27.276 18.0869 27.188 18.1402C27.0641 18.1935 26.9488 18.2022 26.8348 18.1489C26.6229 18.0956 26.4283 18.0869 26.2684 18.1402C26.0652 18.2109 25.8793 18.2195 25.7119 18.1489C25.5434 18.1055 25.3054 18.1229 25.0229 18.1935C24.8097 18.2641 24.625 18.2641 24.4739 18.1935C24.3598 18.1055 24.3152 17.9903 24.3152 17.8663C24.3326 17.7436 24.3772 17.637 24.4739 17.5491C24.5631 17.4611 24.687 17.4338 24.837 17.4871C24.9609 17.523 25.1555 17.5143 25.3934 17.4437ZM27.3999 25.1462C27.2326 25.2168 27.1 25.2428 27.0021 25.2168C26.8881 25.1722 26.7902 25.1548 26.7195 25.1462C26.5782 25.1288 26.4803 25.0842 26.4456 25.0136C26.4192 24.9342 26.375 24.8636 26.313 24.8016C26.2511 24.7488 26.2155 24.6872 26.2064 24.617C26.1891 24.5637 26.1631 24.5104 26.1271 24.467C26.0478 24.3604 26.0119 24.2551 26.0032 24.1485C25.9949 24.0337 26.0218 23.9543 26.0837 23.9105C26.1804 23.8399 26.3043 23.8486 26.4543 23.9279C26.5249 23.9638 26.6043 24.0258 26.6935 24.0964C26.7455 24.1225 26.7902 24.1398 26.8348 24.1398C26.9674 24.1844 27.162 24.1671 27.4173 24.0964C27.7445 24.0345 27.9576 23.9552 28.0543 23.8659C28.0902 23.8139 28.1336 23.7779 28.1956 23.7779C28.3369 23.716 28.4967 23.5759 28.6727 23.364C28.7347 23.2748 28.788 23.2054 28.8413 23.1608C28.9652 23.0368 29.0705 22.8336 29.1499 22.5609C29.2031 22.2697 29.2031 22.0664 29.1412 21.9425C29.0705 21.7219 28.9293 21.5285 28.7434 21.3513C28.7087 21.334 28.6814 21.3166 28.6467 21.3079C28.5488 21.3166 28.4781 21.3166 28.4348 21.3253C28.3282 21.3426 28.2489 21.3612 28.1869 21.3699C28.1163 21.3873 28.063 21.3959 28.0183 21.3959C27.975 21.3873 27.9477 21.3253 27.913 21.1927C27.8684 21.0514 27.825 20.9374 27.7804 20.8308C27.7531 20.7874 27.7358 20.7602 27.7271 20.7341C27.6825 20.7255 27.6478 20.7255 27.5945 20.7255C27.4173 20.6908 27.2946 20.6908 27.2239 20.7168C27.0913 20.7515 26.9934 20.7602 26.9228 20.7341H26.9054C26.8695 20.8407 26.7902 20.9287 26.6576 21.008C26.5782 21.0514 26.5163 21.1134 26.4717 21.184C26.3304 21.2993 26.1978 21.4046 26.0652 21.4926C25.9685 21.5459 25.8793 21.6165 25.8185 21.7045C25.6682 21.8367 25.5355 21.9338 25.4207 21.9958C25.3501 22.0317 25.2782 22.0838 25.2175 22.1544C25.1109 22.261 25.0043 22.3403 24.8989 22.4023C24.8097 22.4457 24.7304 22.4989 24.6598 22.5869C24.5891 22.6663 24.4838 22.7282 24.3239 22.7728C24.2446 22.8075 24.1479 22.8782 24.0413 22.9749C23.9533 23.0281 23.812 23.0988 23.6175 23.1781C23.3609 23.2934 23.1837 23.3553 23.0784 23.3553C23.0251 23.3454 22.9272 23.39 22.7946 23.478C22.6533 23.5759 22.5033 23.628 22.362 23.6367C22.1848 23.6552 22.0435 23.628 21.9555 23.566C21.8316 23.4867 21.7523 23.3814 21.725 23.2314C21.7077 23.1347 21.761 23.0281 21.8849 22.9042C21.9989 22.7902 22.1414 22.7369 22.3087 22.7282C22.6099 22.7022 22.8131 22.6489 22.9185 22.5869C22.9891 22.5436 23.0957 22.5163 23.2457 22.4816C23.5989 22.3663 23.8294 22.261 23.9261 22.173C23.988 22.1024 24.0773 22.0491 24.1826 22.0045C24.2805 21.9611 24.3598 21.8991 24.4305 21.8285C24.5631 21.7405 24.6684 21.6785 24.7577 21.6339C24.9076 21.5459 25.0935 21.4406 25.3054 21.3079C25.4827 21.1927 25.5967 21.1047 25.6673 21.0613C25.7206 20.9994 25.7826 20.9461 25.8532 20.8928C26.0032 20.8135 26.1445 20.7168 26.2771 20.6201L26.2684 20.6102C26.1717 20.5582 26.1271 20.4516 26.1271 20.3016C26.1358 20.1603 26.2164 20.055 26.3663 19.993C26.5163 19.9484 26.6576 19.9224 26.7902 19.931C26.9232 19.9401 27.0645 19.9579 27.214 19.9843C27.3739 20.0376 27.4978 20.055 27.5771 20.029C27.6304 20.0104 27.7098 20.0017 27.7977 20.0104C27.8771 20.055 27.9746 20.0727 28.0902 20.0637C28.1609 20.0463 28.2402 20.0723 28.3282 20.1343C28.4781 20.2496 28.638 20.3289 28.8053 20.3896C28.9553 20.4516 29.0532 20.5309 29.0978 20.6201C29.1945 20.7255 29.3271 20.8494 29.5043 20.9808C29.5836 21.0341 29.6183 21.1134 29.6282 21.22C29.6716 21.2993 29.7249 21.3959 29.7869 21.5285C29.8575 21.6079 29.8835 21.7045 29.8749 21.8198C29.8922 21.8991 29.9195 21.9784 29.9728 22.0317C30.0075 22.0838 30.0075 22.1457 29.9814 22.2077C29.9368 22.2783 29.9368 22.375 29.9641 22.4816C30.0075 22.5609 29.9901 22.7109 29.9021 22.9488C29.8922 23.0021 29.8835 23.0728 29.8835 23.1608C29.8835 23.2748 29.8129 23.4433 29.689 23.6453C29.513 23.8486 29.3977 23.9552 29.3358 23.9638C29.2911 23.9985 29.2391 24.0605 29.2031 24.1485C29.0978 24.2811 28.9379 24.4224 28.726 24.5463C28.3022 24.8376 28.0097 24.9962 27.8597 25.0222C27.7271 25.0309 27.5685 25.0755 27.3999 25.1462ZM24.5978 23.5573C24.6684 23.478 24.7577 23.4074 24.8717 23.364C24.9783 23.3194 25.0663 23.2487 25.1555 23.1694C25.2968 23.0641 25.4207 22.9934 25.5087 22.9402C25.6673 22.8435 25.8619 22.7195 26.1011 22.5696C26.287 22.437 26.4196 22.3403 26.5076 22.2957C26.5522 22.2164 26.6229 22.1457 26.7022 22.1024C26.8967 21.9871 27.0814 21.8545 27.25 21.7045C27.3912 21.6079 27.5065 21.5719 27.6118 21.5992C27.7717 21.6426 27.851 21.7318 27.8424 21.8818C27.8151 22.0131 27.7271 22.1284 27.5685 22.2164C27.4891 22.261 27.4272 22.3316 27.3652 22.4196C27.2053 22.5522 27.0641 22.6663 26.9314 22.7728C26.8162 22.8249 26.7282 22.9141 26.6576 23.0195C26.4989 23.1694 26.3576 23.2748 26.225 23.3367C26.1891 23.4074 26.1717 23.478 26.1631 23.566C26.1366 23.6809 26.1189 23.7428 26.1098 23.7519C26.0565 23.7432 25.9945 23.7432 25.9325 23.7519C25.8892 23.7606 25.8185 23.7693 25.7293 23.7693C25.7033 23.7693 25.6859 23.7693 25.676 23.7779C25.6673 23.7779 25.6587 23.7779 25.6587 23.7866C25.562 23.8486 25.4827 23.9279 25.4108 24.0159C25.3401 24.0865 25.2175 24.1572 25.0489 24.2191C24.9522 24.2638 24.8457 24.3344 24.7391 24.4484C24.6511 24.5191 24.5011 24.5984 24.2805 24.6876C23.9967 24.8277 23.8021 24.8983 23.6881 24.8983C23.6261 24.8896 23.5196 24.9429 23.3783 25.0396C23.211 25.1462 23.0511 25.2081 22.9011 25.2168C22.7066 25.2342 22.5566 25.2168 22.4587 25.1548C22.3261 25.0755 22.2381 24.9516 22.2034 24.7843C22.1848 24.669 22.2381 24.5463 22.3707 24.4137C22.4946 24.2898 22.6533 24.2278 22.8392 24.2191C23.1573 24.1754 23.3783 24.1138 23.5022 24.0345C23.5815 23.9812 23.7055 23.9366 23.8728 23.9105C24.2446 23.7693 24.4924 23.6453 24.5978 23.5573Z" fill="white"/>
</g>
<defs>
<clipPath id="clip0_1691_187">
<rect width="40" height="40" fill="white"/>
</clipPath>
</defs>
</svg>
