<svg width="40" height="40" viewBox="0 0 40 40" fill="none" xmlns="http://www.w3.org/2000/svg">
<g clip-path="url(#clip0_1782_2901)">
<path d="M20 0C31.0457 0 40 8.9543 40 20C40 31.0457 31.0457 40 20 40C8.95431 40 7.90517e-06 31.0457 0 20C6.58765e-07 8.95431 8.95431 1.97595e-06 20 0Z" fill="#E1E4E5"/>
<path d="M26 6C30.4183 6 34 9.58172 34 14V26C34 30.4183 30.4183 34 26 34H14C9.58172 34 6 30.4183 6 26V14C6 9.58172 9.58172 6 14 6H26Z" fill="#3A4D54"/>
<path fill-rule="evenodd" clip-rule="evenodd" d="M30 24.8968C30 24.9767 29.9318 25.0449 29.8519 25.0449L28.267 25.0292C28.1871 25.0292 28.1189 24.9649 28.1189 24.881C28.1189 24.881 28.1189 20.4097 28.1189 19.5641C28.1032 18.7173 27.7846 17.8023 27.3678 17.4117C26.8709 16.9293 26.3204 16.633 25.4867 16.6068C24.3711 16.5806 23.62 17.3999 23.62 17.3999C23.1494 17.8705 22.8688 18.6636 22.8688 19.5222C22.8531 20.6377 22.8688 24.008 22.8688 24.9086C22.8688 24.9912 22.8007 25.0567 22.7207 25.0567H21.1346C21.0546 25.0567 20.9864 24.9912 20.9864 24.9086C21.0022 24.0237 21.0022 19.3203 21.0022 19.2679C20.9864 18.4853 21.1503 17.2098 22.3301 16.068C23.1232 15.3169 24.185 14.9289 25.4867 14.9289C26.791 14.9289 27.8489 15.3169 28.6419 16.0838C29.8519 17.2373 29.9856 18.4853 29.9738 19.2797L30 24.8968ZM20.0872 20.0229C20.0872 21.0127 19.8709 21.8752 19.4422 22.6421C19.0254 23.405 18.4224 23.9962 17.6673 24.4249C16.9157 24.8557 16.0431 25.0711 15.0495 25.0711C14.0558 25.0711 13.1832 24.8557 12.4317 24.4249C11.6766 23.9962 11.0736 23.405 10.6449 22.6421C10.215 21.8748 10 21.0017 10 20.0229C10 19.0123 10.2163 18.1405 10.6449 17.3737C11.0893 16.6212 11.6766 16.0182 12.4317 15.5856C13.1832 15.1574 14.0558 14.9433 15.0495 14.9433C16.0326 14.9433 16.9044 15.157 17.6555 15.5856C18.4224 16.0182 19.0136 16.6212 19.454 17.3737C19.8866 18.1405 20.099 19.0123 20.0872 20.0229ZM18.3123 20.0072C18.3123 19.3505 18.1641 18.7435 17.898 18.2349C17.6293 17.7224 17.2386 17.3199 16.7562 17.0237C16.2581 16.7274 15.6944 16.5793 15.0652 16.5793C14.4203 16.5793 13.8562 16.7274 13.3729 17.0237C12.8879 17.3081 12.4959 17.7224 12.2154 18.2349C11.9348 18.7435 11.7985 19.3361 11.7985 20.0072C11.7985 20.6797 11.9348 21.2709 12.2154 21.7795C12.4959 22.2921 12.8879 22.6945 13.3729 22.9908C13.8684 23.287 14.4325 23.4352 15.0652 23.4352C15.7102 23.4352 16.2738 23.287 16.7562 22.9908C17.2386 22.6945 17.6293 22.2921 17.898 21.7795C18.1641 21.2709 18.3005 20.6797 18.3123 20.0072Z" fill="white"/>
</g>
<defs>
<clipPath id="clip0_1782_2901">
<rect width="40" height="40" fill="white"/>
</clipPath>
</defs>
</svg>
