<svg width="40" height="40" viewBox="0 0 40 40" fill="none" xmlns="http://www.w3.org/2000/svg">
<g clip-path="url(#clip0_1782_924)">
<path d="M20 0C31.0457 0 40 8.9543 40 20C40 31.0457 31.0457 40 20 40C8.95431 40 7.90517e-06 31.0457 0 20C6.58765e-07 8.95431 8.95431 1.97595e-06 20 0Z" fill="#D9E5F0"/>
<path d="M26 6C30.4183 6 34 9.58172 34 14V26C34 30.4183 30.4183 34 26 34H14C9.58172 34 6 30.4183 6 26V14C6 9.58172 9.58172 6 14 6H26Z" fill="#00539B"/>
<g clip-path="url(#clip1_1782_924)">
<path d="M16.7292 23.6927C17.7773 25.5231 19.7591 27.3373 23.0908 27.4317C25.4092 27.4317 27.3016 26.4854 28.7222 24.7817C28.9594 24.4502 29.2425 24.0243 29.3841 23.6927H29.5741C28.0405 27.3646 24.5449 29.8953 20.611 29.94H20.3924C18.6887 29.8928 17.1278 29.5613 15.6129 28.7094C15.6129 28.7094 12.6314 27.3373 11.2121 23.6927H16.7292Z" fill="white"/>
<path d="M16.7491 23.6927H16.7292C16.7201 23.677 16.711 23.6612 16.7019 23.6455L16.7491 23.6927Z" fill="white"/>
<path fill-rule="evenodd" clip-rule="evenodd" d="M15.5669 17.8229C16.7026 17.7757 16.7032 18.7693 16.7032 18.7703V21.1843C16.7034 21.1866 16.7961 22.1778 15.5669 22.1778H12.0167C11.2121 22.1778 10.8333 21.6103 10.8333 21.1843V18.7703C10.8992 18.4427 11.0655 18.216 11.2673 18.0668C11.5033 17.8918 11.7883 17.8229 12.018 17.8229H15.5669ZM13.142 19.1009C12.6798 19.0621 12.6798 19.5278 12.6798 19.5278V20.4269C12.6798 20.427 12.6798 20.4311 12.6802 20.4386C12.6805 20.4436 12.6809 20.4501 12.6816 20.4579C12.6827 20.4696 12.6845 20.4842 12.6872 20.5008C12.6886 20.5091 12.6903 20.5179 12.6922 20.5272C12.702 20.5735 12.7195 20.6303 12.7508 20.6856C12.7549 20.6929 12.7594 20.7003 12.764 20.7075C12.7909 20.7494 12.8264 20.7893 12.8733 20.8219C12.8773 20.8247 12.8815 20.8274 12.8857 20.8302C12.8942 20.8356 12.9031 20.8408 12.9123 20.8457C12.9169 20.8482 12.9216 20.8506 12.9264 20.8529C12.9503 20.8645 12.9765 20.8744 13.0054 20.882C13.0111 20.8835 13.017 20.885 13.0229 20.8863C13.0349 20.889 13.0472 20.8913 13.06 20.8933C13.0664 20.8942 13.0729 20.8951 13.0795 20.8959C13.1026 20.8986 13.1271 20.9 13.1529 20.9H14.4779C14.5142 20.9 14.5476 20.8983 14.5784 20.8948C14.5872 20.8938 14.5958 20.8927 14.6041 20.8914C14.6376 20.8863 14.6676 20.8789 14.6946 20.8691C14.7047 20.8654 14.7144 20.8614 14.7236 20.857C14.8592 20.7929 14.9038 20.6548 14.9038 20.4269C14.9038 20.178 14.94 19.7847 14.949 19.627C14.95 19.6101 14.9506 19.596 14.9509 19.5849C14.951 19.5813 14.951 19.578 14.951 19.575C14.9049 19.2973 14.7239 19.1108 14.4945 19.1022C14.4927 19.1022 14.4908 19.1021 14.489 19.102L14.4779 19.1019H13.1529L13.142 19.1009Z" fill="white"/>
<path d="M19.4947 17.8241C19.8722 18.3916 20.1565 18.7703 20.3937 19.1491C20.6768 18.7232 20.8668 18.4388 21.2927 17.8241H23.4224C22.8064 18.6275 22.1918 19.4806 21.7658 20.0009C22.3333 20.7584 22.8536 21.4687 23.4224 22.1778H21.2455C20.9612 21.7518 20.724 21.3731 20.3937 20.9C20.1565 21.2787 19.7778 21.799 19.4947 22.1778H17.365C17.8853 21.4687 18.4528 20.7112 19.0203 20.0009C18.5 19.3378 17.8381 18.5332 17.365 17.8241H19.4947Z" fill="white"/>
<path d="M26.9713 19.1019C27.3025 18.6756 27.6336 18.2496 27.9647 17.8241H30C29.1481 18.9119 28.2019 20.0953 27.8704 20.5212V22.1778H26.0251V20.5212C25.6464 20.0009 24.3214 18.3444 23.9427 17.8241H25.9767L26.9713 19.1019Z" fill="white"/>
<path d="M24.011 16.3092C24.0192 16.3249 24.0279 16.3406 24.037 16.3563L23.9898 16.3092H24.011Z" fill="white"/>
<path d="M20.2049 10.0606C20.2679 10.0598 20.3304 10.0598 20.3924 10.0606C22.0962 10.155 23.6583 10.4865 25.172 11.2912C25.1749 11.2926 28.107 12.6652 29.5741 16.3079H24.011C23.0076 14.5247 21.0257 12.7093 17.6953 12.569C15.3298 12.569 13.4833 13.5636 12.0639 15.2201C11.8267 15.5517 11.5436 15.9776 11.3536 16.3079H11.2121C12.7494 12.6273 16.2586 10.0941 20.2049 10.0606Z" fill="white"/>
</g>
</g>
<defs>
<clipPath id="clip0_1782_924">
<rect width="40" height="40" fill="white"/>
</clipPath>
<clipPath id="clip1_1782_924">
<rect width="20" height="20" fill="white" transform="translate(10 10)"/>
</clipPath>
</defs>
</svg>
