<svg width="40" height="40" viewBox="0 0 40 40" fill="none" xmlns="http://www.w3.org/2000/svg">
<g clip-path="url(#clip0_1696_1731)">
<path d="M20 0C31.0457 0 40 8.9543 40 20C40 31.0457 31.0457 40 20 40C8.95431 40 7.90517e-06 31.0457 0 20C6.58765e-07 8.95431 8.95431 1.97595e-06 20 0Z" fill="#FFDDE0"/>
<path d="M26 6C30.4183 6 34 9.58172 34 14V26C34 30.4183 30.4183 34 26 34H14C9.58172 34 6 30.4183 6 26V14C6 9.58172 9.58172 6 14 6H26Z" fill="#FF1B2D"/>
<g clip-path="url(#clip1_1696_1731)">
<path fill-rule="evenodd" clip-rule="evenodd" d="M15.2679 19.7842C15.3128 17.7994 15.9693 16.0306 16.9827 14.8344V14.8348C18.2978 13.1273 20.2527 12.0442 22.4357 12.0442C23.7787 12.0442 25.0353 12.4542 26.1097 13.1666C24.4959 11.7231 22.3684 10.8425 20.0345 10.8338L20.0002 10.8333C14.9375 10.8333 10.8333 14.9372 10.8333 20.0002C10.8333 24.9161 14.7035 28.9283 19.5635 29.1564C19.7084 29.1631 19.8536 29.1667 20.0002 29.1667C22.3467 29.1667 24.4874 28.2842 26.1093 26.834C25.0345 27.5466 23.7783 27.9563 22.4357 27.9563C20.2527 27.9563 18.2978 26.8739 16.9827 25.166C15.9693 23.9694 15.3126 22.2008 15.2679 20.2161V19.7842ZM26.1097 26.833C27.9855 25.1547 29.1667 22.7155 29.1667 20.0002C29.1667 17.2843 27.986 14.8451 26.1097 13.1668C23.7582 12.0214 21.5668 12.8234 20.8417 13.3234C23.1517 13.8306 24.8961 16.6221 24.8961 19.9997C24.8961 23.3773 23.1512 26.1696 20.8417 26.6765C21.5673 27.1767 23.7588 27.9787 26.1097 26.833Z" fill="white"/>
</g>
</g>
<defs>
<clipPath id="clip0_1696_1731">
<rect width="40" height="40" fill="white"/>
</clipPath>
<clipPath id="clip1_1696_1731">
<rect width="20" height="20" fill="white" transform="translate(10 10)"/>
</clipPath>
</defs>
</svg>
