<svg width="40" height="40" viewBox="0 0 40 40" fill="none" xmlns="http://www.w3.org/2000/svg">
<g clip-path="url(#clip0_1784_3893)">
<path d="M20 0C31.0457 0 40 8.9543 40 20C40 31.0457 31.0457 40 20 40C8.95431 40 7.90517e-06 31.0457 0 20C6.58765e-07 8.95431 8.95431 1.97595e-06 20 0Z" fill="#E5E5FF"/>
<path d="M26 6C30.4183 6 34 9.58172 34 14V26C34 30.4183 30.4183 34 26 34H14C9.58172 34 6 30.4183 6 26V14C6 9.58172 9.58172 6 14 6H26Z" fill="#4F50FF"/>
<g clip-path="url(#clip1_1784_3893)">
<path fill-rule="evenodd" clip-rule="evenodd" d="M29.1668 19.9625C29.1668 24.2626 25.7602 29.2124 20.0001 29.2124C14.2893 29.2124 10.8334 24.3365 10.8334 19.8886C10.8334 15.0819 14.7313 10.7876 20.0001 10.7876C25.1492 10.7876 29.1562 14.9329 29.1668 19.9625ZM25.9443 19.9531C25.9443 16.8796 23.5556 13.8213 20.0001 13.8213C16.4493 13.8213 14.0559 16.8889 14.0559 19.9871C14.0559 23.1204 16.4692 26.1787 20.0001 26.1787C23.3961 26.1787 25.9337 23.2494 25.9443 19.9531Z" fill="white"/>
</g>
</g>
<defs>
<clipPath id="clip0_1784_3893">
<rect width="40" height="40" fill="white"/>
</clipPath>
<clipPath id="clip1_1784_3893">
<rect width="20" height="20" fill="white" transform="translate(10 10)"/>
</clipPath>
</defs>
</svg>
