<svg width="40" height="40" viewBox="0 0 40 40" fill="none" xmlns="http://www.w3.org/2000/svg">
<g clip-path="url(#clip0_1784_3925)">
<path d="M20 0C31.0457 0 40 8.9543 40 20C40 31.0457 31.0457 40 20 40C8.95431 40 7.90517e-06 31.0457 0 20C6.58765e-07 8.95431 8.95431 1.97595e-06 20 0Z" fill="#D9D9D9"/>
<path d="M26 6C30.4183 6 34 9.58172 34 14V26C34 30.4183 30.4183 34 26 34H14C9.58172 34 6 30.4183 6 26V14C6 9.58172 9.58172 6 14 6H26Z" fill="black"/>
<g clip-path="url(#clip1_1784_3925)">
<path fill-rule="evenodd" clip-rule="evenodd" d="M21.3836 10.8333C24.4061 11.3037 26.9507 13.263 28.2398 15.9417H23.7645C23.1049 15.3097 22.2852 14.8527 21.3836 14.6133V10.8333ZM28.6491 16.908C28.8128 17.3662 28.9428 17.8451 29.0282 18.3325H25.2607C25.097 17.8232 24.8719 17.3443 24.5794 16.908H28.6491ZM29.145 19.3036C29.1667 19.5296 29.1667 19.7691 29.1667 20C29.1667 20.248 29.157 20.4886 29.1354 20.728H25.4533C25.4834 20.4886 25.4966 20.248 25.4966 20C25.4966 19.7606 25.4834 19.5296 25.4533 19.3036H29.145ZM29.0162 21.6858C28.9295 22.1647 28.8007 22.635 28.6491 23.092H24.5794C24.8599 22.6654 25.097 22.1865 25.2427 21.6858H29.0162ZM28.2531 24.0595C26.9603 26.7504 24.4205 28.7097 21.3933 29.1667V25.3867C22.2984 25.1473 23.1181 24.6903 23.7742 24.0595H28.2531ZM11.7554 24.0595H16.2355C16.8915 24.6903 17.71 25.1473 18.6152 25.3867V29.1667C15.5891 28.6963 13.0493 26.7371 11.7554 24.0595ZM11.3593 23.092C11.1956 22.635 11.0789 22.1647 10.9922 21.6858H14.7694C14.9331 22.1865 15.1582 22.6569 15.4374 23.092H11.3593ZM10.8634 20.728C10.8418 20.4886 10.8333 20.2394 10.8333 20C10.8333 19.7606 10.8418 19.5296 10.855 19.3036H14.5371C14.5034 19.5296 14.4949 19.7691 14.4949 20C14.4949 20.248 14.5034 20.4886 14.5371 20.728H10.8634ZM10.9802 18.3325C11.0669 17.8451 11.1956 17.3662 11.3593 16.908H15.4302C15.1365 17.3443 14.9126 17.8232 14.7537 18.3325H10.9802ZM11.7517 15.9369C13.0445 13.2508 15.5843 11.2903 18.6116 10.8333V14.6096C17.7064 14.8491 16.8915 15.3061 16.2319 15.9369H11.7517Z" fill="white"/>
</g>
</g>
<defs>
<clipPath id="clip0_1784_3925">
<rect width="40" height="40" fill="white"/>
</clipPath>
<clipPath id="clip1_1784_3925">
<rect width="20" height="20" fill="white" transform="translate(10 10)"/>
</clipPath>
</defs>
</svg>
