<svg width="40" height="40" viewBox="0 0 40 40" fill="none" xmlns="http://www.w3.org/2000/svg">
<g clip-path="url(#clip0_1691_173)">
<path d="M20 0C31.0457 0 40 8.9543 40 20C40 31.0457 31.0457 40 20 40C8.95431 40 7.90517e-06 31.0457 0 20C6.58765e-07 8.95431 8.95431 1.97595e-06 20 0Z" fill="#DADEE5"/>
<path d="M26 6C30.4183 6 34 9.58172 34 14V26C34 30.4183 30.4183 34 26 34H14C9.58172 34 6 30.4183 6 26V14C6 9.58172 9.58172 6 14 6H26Z" fill="#08254F"/>
<path fill-rule="evenodd" clip-rule="evenodd" d="M19.6899 13.145H20.5605C21.5565 13.1751 22.5526 13.2783 23.5277 13.4927C24.4087 13.6862 25.274 13.9633 26.0897 14.3515C26.7943 14.6888 27.4635 15.1084 28.0491 15.6286C28.606 16.1253 29.087 16.7148 29.4242 17.3841C29.8177 18.154 30.0125 19.022 29.9994 19.8847C30.0007 20.6546 29.8451 21.4258 29.5419 22.133C29.2804 22.7473 28.9066 23.3107 28.4596 23.8035C27.9628 24.3525 27.3759 24.8139 26.7433 25.1956C26.0962 25.5852 25.4021 25.8936 24.6871 26.1329C23.7133 26.457 22.7016 26.6583 21.6807 26.7642C20.6572 26.8675 19.6245 26.8832 18.5984 26.8087C17.5749 26.7328 16.558 26.5629 15.5737 26.274C14.745 26.0296 13.9397 25.7002 13.1947 25.261C12.4967 24.8479 11.8509 24.3381 11.3254 23.7172C10.9072 23.2231 10.5673 22.6611 10.3412 22.0532C10.1359 21.5042 10.0261 20.9226 10 20.337V19.8533C10.0248 19.3226 10.1111 18.7932 10.2784 18.2887C10.447 17.7658 10.6967 17.2704 11.0078 16.8181C11.6562 15.877 12.5672 15.1384 13.5672 14.596C14.6012 14.0365 15.7318 13.6705 16.8821 13.443C17.8076 13.26 18.7487 13.1725 19.6899 13.145ZM19.1331 13.9777C18.1318 14.0443 17.1318 14.2365 16.1946 14.6025C15.439 14.8966 14.724 15.3097 14.1227 15.8574C13.5175 16.4051 13.0378 17.0926 12.7489 17.856C12.4078 18.7514 12.3163 19.7317 12.4208 20.6807C12.5071 21.4546 12.7502 22.2127 13.1502 22.882C13.4456 23.3761 13.8234 23.8205 14.2574 24.1983C14.8613 24.7224 15.5671 25.1224 16.3122 25.4074C17.1815 25.742 18.1056 25.9276 19.0324 26.0048C19.9592 26.078 20.8951 26.0544 21.8127 25.9133C22.6859 25.7786 23.546 25.5355 24.342 25.1512C25.0688 24.7996 25.742 24.3238 26.2792 23.7186C26.8126 23.1251 27.2034 22.4062 27.4125 21.6376C27.657 20.7356 27.6805 19.7788 27.5093 18.8625C27.3498 18.0194 26.989 17.2142 26.4531 16.5423C25.9681 15.9279 25.3472 15.4286 24.6662 15.0482C23.9342 14.6391 23.1342 14.362 22.3147 14.1894C21.2715 13.9698 20.1971 13.9136 19.1331 13.9777Z" fill="white"/>
</g>
<defs>
<clipPath id="clip0_1691_173">
<rect width="40" height="40" fill="white"/>
</clipPath>
</defs>
</svg>
