<svg width="40" height="40" viewBox="0 0 40 40" fill="none" xmlns="http://www.w3.org/2000/svg">
<g clip-path="url(#clip0_1691_46)">
<path d="M20 0C31.0457 0 40 8.9543 40 20C40 31.0457 31.0457 40 20 40C8.95431 40 7.90517e-06 31.0457 0 20C6.58765e-07 8.95431 8.95431 1.97595e-06 20 0Z" fill="#DDEDFC"/>
<path d="M26 6C30.4183 6 34 9.58172 34 14V26C34 30.4183 30.4183 34 26 34H14C9.58172 34 6 30.4183 6 26V14C6 9.58172 9.58172 6 14 6H26Z" fill="#1C85E8"/>
<path d="M24.761 26.6786C24.9915 26.6786 25.2063 26.7775 25.3316 26.9416C25.3316 26.9416 26.6671 28.69 27.0139 29.1438C27.0672 29.2135 27.0953 29.2946 27.0953 29.3777V29.7137C27.0953 29.8258 27.0032 29.9167 26.8896 29.9167H14.3485C14.2349 29.9167 14.1429 29.8258 14.1429 29.7137V29.3777C14.1429 29.2946 14.1712 29.2133 14.2246 29.1435L15.9066 26.9416C16.0319 26.7776 16.2466 26.6786 16.4771 26.6786H24.761Z" fill="white"/>
<path fill-rule="evenodd" clip-rule="evenodd" d="M20.5006 10.0833C24.1051 10.0833 27.5 12.1766 27.5 17.2166C27.5 22.602 23.707 24.6548 20.3328 24.6548C16.7284 24.6548 13.3333 22.4193 13.3333 17.5418C13.3334 12.1969 17.1265 10.0833 20.5006 10.0833ZM20.3748 10.937C18.342 10.937 17.3151 12.3188 17.3151 17.115C17.3151 21.8501 18.1115 23.8012 20.4586 23.8012C22.5333 23.8012 23.5184 22.4395 23.5184 17.6637C23.5184 12.9082 22.68 10.937 20.3748 10.937Z" fill="white"/>
</g>
<defs>
<clipPath id="clip0_1691_46">
<rect width="40" height="40" fill="white"/>
</clipPath>
</defs>
</svg>
