<svg width="40" height="40" viewBox="0 0 40 40" fill="none" xmlns="http://www.w3.org/2000/svg">
<g clip-path="url(#clip0_1691_180)">
<path d="M20 0C31.0457 0 40 8.9543 40 20C40 31.0457 31.0457 40 20 40C8.95431 40 7.90517e-06 31.0457 0 20C6.58765e-07 8.95431 8.95431 1.97595e-06 20 0Z" fill="#FAE0DE"/>
<path d="M26 6C30.4183 6 34 9.58172 34 14V26C34 30.4183 30.4183 34 26 34H14C9.58172 34 6 30.4183 6 26V14C6 9.58172 9.58172 6 14 6H26Z" fill="#E02E24"/>
<path d="M24.9552 25.0445L20.0893 28.3634V21.7107L24.9552 25.0445Z" fill="white"/>
<path d="M19.7281 28.2075L15.2234 25.0445L19.7281 21.9008V28.2075Z" fill="white"/>
<path d="M14.6836 24.7861L10.1786 21.6231L14.6836 18.4794V24.7861Z" fill="white"/>
<path d="M19.5495 21.6231L15.0448 24.7861V18.4794L19.5495 21.6231Z" fill="white"/>
<path d="M24.9552 24.7861L20.4505 21.6231L24.9552 18.4794V24.7861Z" fill="white"/>
<path d="M29.8211 21.6231L25.3164 24.7861V18.4794L29.8211 21.6231Z" fill="white"/>
<path d="M14.5047 18.198L10 21.3495V15.058L14.5047 18.198Z" fill="white"/>
<path d="M30 21.3495L25.495 18.198L30 15.058V21.3495Z" fill="white"/>
<path fill-rule="evenodd" clip-rule="evenodd" d="M21.8037 16.8218L21.1536 17.2706L21.7621 17.3122L21.9711 17.8483H21.4844L21.4235 18.4527H21.9102L22.0888 19.0002L21.454 19.0418L21.3058 20.042L20.9257 20.2814L20.6747 18.9887H20.3213L20.2946 18.9924L20.0284 19.9774L19.6293 20.1596V19.7528L19.6598 18.9924H19.2796L19.1731 18.6658L18.9336 18.867L18.8044 20.232L18.063 19.7528L18.4432 19.5437L18.409 18.9356L18.1009 19.0801L17.8919 18.3918L18.3708 18.3198L18.3519 17.7458L17.9832 17.278L18.3366 17.2097L18.7814 16.4227L19.0628 17.0843L19.3442 17.183V17.3768L19.8346 17.3541L19.5989 16.4112L20.4275 16.7498L20.2374 17.3426L20.7661 17.2439L21.0775 16.3162L21.8037 16.8218ZM19.0212 17.7685V18.2169L19.4355 18.2436L19.3405 18.4489H19.7206L19.7166 17.8672H19.3899L19.2911 17.5253L19.0212 17.7685ZM20.4275 17.9548L20.4427 17.9927L20.397 18.3424L20.439 18.4222H20.8685L20.8076 17.875L20.4275 17.9548Z" fill="white"/>
<path d="M14.6836 17.9433L10.1786 14.7766L14.6836 11.6366V17.9433Z" fill="white"/>
<path d="M19.5495 14.7766L15.0448 17.9433V11.6366L19.5495 14.7766Z" fill="white"/>
<path d="M24.9552 17.9433L20.4505 14.7766L24.9552 11.6366V17.9433Z" fill="white"/>
<path d="M29.8211 14.7766L25.3164 17.9433V11.6366L29.8211 14.7766Z" fill="white"/>
</g>
<defs>
<clipPath id="clip0_1691_180">
<rect width="40" height="40" fill="white"/>
</clipPath>
</defs>
</svg>
