<svg width="40" height="40" viewBox="0 0 40 40" fill="none" xmlns="http://www.w3.org/2000/svg">
<g clip-path="url(#clip0_1691_53)">
<path d="M20 0C31.0457 0 40 8.9543 40 20C40 31.0457 31.0457 40 20 40C8.95431 40 7.90517e-06 31.0457 0 20C6.58765e-07 8.95431 8.95431 1.97595e-06 20 0Z" fill="#D9F5FA"/>
<path d="M26 6C30.4183 6 34 9.58172 34 14V26C34 30.4183 30.4183 34 26 34H14C9.58172 34 6 30.4183 6 26V14C6 9.58172 9.58172 6 14 6H26Z" fill="#00BBDC"/>
<path fill-rule="evenodd" clip-rule="evenodd" d="M20.4167 10.2834H16.9386C16.8249 10.2834 16.7326 10.3755 16.7326 10.4893V13.6807H13.5395C13.4255 13.6807 13.3333 13.773 13.3333 13.8866V29.5109C13.3333 29.6245 13.4255 29.7165 13.5395 29.7165H18.2943C18.4081 29.7165 18.5003 29.6245 18.5003 29.5109V26.2521C18.5003 26.1385 18.4081 26.0464 18.2943 26.0464H16.9095C16.7956 26.0464 16.7035 26.1385 16.7035 26.2521V27.9207H15.1301V15.4767H20.4167C21.4815 15.4767 22.3431 16.3627 22.3024 17.4357C22.2638 18.4563 21.3923 19.2489 20.3704 19.2489H18.5296V17.2864C18.5296 17.1726 18.4373 17.0804 18.3235 17.0804H16.9386C16.8249 17.0804 16.7326 17.1726 16.7326 17.2864V20.8391C16.7326 20.9527 16.8249 21.0447 16.9386 21.0447H20.4167C22.4776 21.0447 24.1488 19.3447 24.0996 17.274C24.0521 15.264 22.3593 13.6807 20.3474 13.6807H18.5296V12.0793H20.4167C23.3591 12.0793 25.7474 14.4941 25.7025 17.4448C25.6585 20.344 23.2376 22.6464 20.3364 22.6464H16.8723C16.7586 22.6464 16.6665 22.7384 16.6665 22.8522V24.2363C16.6665 24.3501 16.7586 24.4422 16.8723 24.4422H20.3266C24.2263 24.4422 27.462 21.3299 27.4997 17.4327C27.5379 13.4971 24.3457 10.2834 20.4167 10.2834Z" fill="white"/>
</g>
<defs>
<clipPath id="clip0_1691_53">
<rect width="40" height="40" fill="white"/>
</clipPath>
</defs>
</svg>
