<svg width="40" height="40" viewBox="0 0 40 40" fill="none" xmlns="http://www.w3.org/2000/svg">
<g clip-path="url(#clip0_820_3852)">
<path d="M20 0C31.0457 0 40 8.9543 40 20C40 31.0457 31.0457 40 20 40C8.95431 40 7.90517e-06 31.0457 0 20C6.58765e-07 8.95431 8.95431 1.97595e-06 20 0Z" fill="#FCDCD3"/>
<path d="M26 6C30.4183 6 34 9.58172 34 14V26C34 30.4183 30.4183 34 26 34H14C9.58172 34 6 30.4183 6 26V14C6 9.58172 9.58172 6 14 6H26Z" fill="#F04E23"/>
<path d="M18.565 22.8691L19.9858 24.29L17.1308 27.145L14.275 24.29L21.435 17.1308L20.0142 15.71L22.8692 12.855L25.725 15.71L18.565 22.8691ZM10 20.0141L12.855 22.8691L20.0142 15.71L17.1592 12.855L10 20.0141ZM19.9858 24.2891L22.8408 27.145L30 19.9858L27.145 17.1308L19.9858 24.2891Z" fill="white"/>
</g>
<defs>
<clipPath id="clip0_820_3852">
<rect width="40" height="40" fill="white"/>
</clipPath>
</defs>
</svg>
