<svg width="40" height="40" viewBox="0 0 40 40" fill="none" xmlns="http://www.w3.org/2000/svg">
<g clip-path="url(#clip0_1784_4185)">
<path d="M20 0C31.0457 0 40 8.9543 40 20C40 31.0457 31.0457 40 20 40C8.95431 40 7.90517e-06 31.0457 0 20C6.58765e-07 8.95431 8.95431 1.97595e-06 20 0Z" fill="#DAE8F0"/>
<path d="M26 6C30.4183 6 34 9.58172 34 14V26C34 30.4183 30.4183 34 26 34H14C9.58172 34 6 30.4183 6 26V14C6 9.58172 9.58172 6 14 6H26Z" fill="#07679B"/>
<path d="M28.7148 30H28.4619V28.5137H26.7041V26.9561H28.3223V25.5166H26.7041V24.1943H28.374V22.7549H25.4111V30H24.6934V10.2617L19.2471 28.2012V26.0459H17.4932V27.3379H17.9541V27.9014C17.9541 28.3668 17.9396 28.8271 17.5 28.8271C17.1632 28.827 17.0244 28.587 17.0244 28.1846V24.6289C17.0244 24.1593 17.1195 23.8713 17.5225 23.8809C17.8666 23.8908 17.9248 24.1974 17.9248 24.8105V25.2041H19.2178V24.667C19.2178 23.2013 18.5641 22.588 17.4639 22.5879C16.2824 22.5879 15.7314 23.3161 15.7314 24.8779V27.8301C15.7315 28.8155 15.9334 29.6664 16.5049 30H12.9346V27.1523C13.4207 27.1237 13.9435 27.2092 14.3916 26.9219C14.9792 26.5675 15.1191 25.6955 15.1191 24.915C15.1191 24.3272 15.0599 23.7891 14.7588 23.3486C14.3988 22.8123 13.6786 22.7549 13.1777 22.7549H11.6426V30H10.833V10H28.7148V30ZM22.2393 23.9336C23.7251 23.9342 23.6127 25.6226 23.6104 25.6562H22.5781C22.617 25.1605 22.4474 24.9905 22.2129 24.9902C21.978 24.9903 21.8342 25.2252 21.834 25.4209C21.834 25.617 21.9128 25.7743 22.0566 25.9961C22.2008 26.2191 22.9834 27.25 22.9834 27.25V26.5312H23.9756V30H21.7422C21.324 29.9998 20.1233 29.6912 20.123 28.3994C20.1231 27.1065 21.1553 26.5576 21.1553 26.5576C20.5936 25.8916 20.6846 25.2256 20.6846 25.2256C20.6853 25.2088 20.7476 23.9336 22.2393 23.9336ZM21.7822 27.498C21.7822 27.498 21.2988 27.6941 21.2988 28.334C21.2993 28.9735 22.2515 29.4562 22.7998 28.8691L21.7822 27.498ZM12.9199 23.9424C12.937 23.9439 13.7432 24.0222 13.7432 24.9912C13.7429 25.9597 12.9371 26.0566 12.9199 26.0586V23.9424Z" fill="white"/>
</g>
<defs>
<clipPath id="clip0_1784_4185">
<rect width="40" height="40" fill="white"/>
</clipPath>
</defs>
</svg>
