<svg width="40" height="40" viewBox="0 0 40 40" fill="none" xmlns="http://www.w3.org/2000/svg">
<g clip-path="url(#clip0_1782_3180)">
<path d="M20 0C31.0457 0 40 8.9543 40 20C40 31.0457 31.0457 40 20 40C8.95431 40 7.90517e-06 31.0457 0 20C6.58765e-07 8.95431 8.95431 1.97595e-06 20 0Z" fill="#FBD9DE"/>
<path d="M26 6C30.4183 6 34 9.58172 34 14V26C34 30.4183 30.4183 34 26 34H14C9.58172 34 6 30.4183 6 26V14C6 9.58172 9.58172 6 14 6H26Z" fill="#E60023"/>
<g clip-path="url(#clip1_1782_3180)">
<path d="M20.0082 9.98355C14.481 9.98355 10 14.4646 10 19.9918C10 24.2339 12.6359 27.8583 16.3591 29.3163C16.2685 28.5255 16.1944 27.3064 16.3921 26.4415C16.5733 25.659 17.5618 21.4662 17.5618 21.4662C17.5618 21.4662 17.2652 20.8649 17.2652 19.9835C17.2652 18.5914 18.0725 17.5535 19.0774 17.5535C19.9341 17.5535 20.3459 18.1961 20.3459 18.9621C20.3459 19.8188 19.8023 21.1038 19.514 22.2982C19.2751 23.2949 20.0165 24.1104 20.9967 24.1104C22.7759 24.1104 24.1433 22.2323 24.1433 19.5305C24.1433 17.1335 22.4217 15.4613 19.9588 15.4613C17.1087 15.4613 15.4366 17.5947 15.4366 19.8023C15.4366 20.659 15.766 21.5815 16.1779 22.084C16.2603 22.1829 16.2685 22.2735 16.2438 22.3723C16.1697 22.6853 15.9967 23.369 15.9637 23.5091C15.9226 23.6903 15.8155 23.7315 15.626 23.6409C14.374 23.056 13.5914 21.2356 13.5914 19.7611C13.5914 16.6063 15.8814 13.7068 20.2059 13.7068C23.6738 13.7068 26.3756 16.1779 26.3756 19.4893C26.3756 22.9407 24.201 25.7166 21.1861 25.7166C20.173 25.7166 19.2174 25.1894 18.8962 24.5634C18.8962 24.5634 18.3937 26.4745 18.2702 26.944C18.0478 27.8171 17.4382 28.9044 17.0263 29.5716C17.9654 29.8599 18.9539 30.0165 19.9917 30.0165C25.5189 30.0165 30 25.5354 30 20.0082C30.0164 14.4646 25.5354 9.98355 20.0082 9.98355Z" fill="white"/>
</g>
</g>
<defs>
<clipPath id="clip0_1782_3180">
<rect width="40" height="40" fill="white"/>
</clipPath>
<clipPath id="clip1_1782_3180">
<rect width="20" height="20" fill="white" transform="translate(10 10)"/>
</clipPath>
</defs>
</svg>
