<svg width="40" height="40" viewBox="0 0 40 40" fill="none" xmlns="http://www.w3.org/2000/svg">
<g clip-path="url(#clip0_1691_110)">
<path d="M20 0C31.0457 0 40 8.9543 40 20C40 31.0457 31.0457 40 20 40C8.95431 40 7.90517e-06 31.0457 0 20C6.58765e-07 8.95431 8.95431 1.97595e-06 20 0Z" fill="#E5F3F3"/>
<path d="M26 6C30.4183 6 34 9.58172 34 14V26C34 30.4183 30.4183 34 26 34H14C9.58172 34 6 30.4183 6 26V14C6 9.58172 9.58172 6 14 6H26Z" fill="#51B2AC"/>
<path fill-rule="evenodd" clip-rule="evenodd" d="M28.3333 10.8344V26.6656C28.3333 26.9942 28.2689 27.3195 28.1432 27.6224C28.0176 27.9252 27.8329 28.2012 27.6009 28.4332C27.369 28.6651 27.093 28.8498 26.7902 28.9755C26.4863 29.1011 26.1619 29.1655 25.8333 29.1655H11.6667V17.5C11.6624 16.628 11.83 15.7635 12.1607 14.956C12.4904 14.1484 12.9769 13.4139 13.5922 12.7943C14.2065 12.1757 14.9378 11.6839 15.7421 11.3478C16.5475 11.0106 17.4109 10.8366 18.2829 10.8344H28.3333ZM24.7584 23.1991H21.9341V26.0449H23.3333C23.5213 26.0459 23.7071 26.0105 23.88 25.9385C24.0539 25.8677 24.2118 25.7624 24.3439 25.6303C24.476 25.4972 24.5812 25.3404 24.6521 25.1664C24.724 24.9935 24.7595 24.8077 24.7584 24.6198V23.1991ZM24.7552 16.2833V13.9594H20.4167C20.2331 13.9637 20.0527 14.0045 19.8841 14.0786C19.7155 14.1517 19.563 14.258 19.4352 14.3901C19.3074 14.5211 19.2064 14.6768 19.1366 14.8475C19.0679 15.0183 19.0335 15.1998 19.0335 15.3834V16.2876C19.0346 16.4744 18.9981 16.6592 18.9272 16.831C18.8563 17.0039 18.7522 17.1607 18.6201 17.2917C18.4891 17.4238 18.3323 17.529 18.1605 17.5999C17.9887 17.6718 17.8039 17.7083 17.6171 17.7083H16.6667C16.4799 17.7073 16.2952 17.7438 16.1212 17.8146C15.9483 17.8855 15.7915 17.9897 15.6583 18.1218C15.5263 18.2539 15.421 18.4107 15.3501 18.5835C15.2782 18.7564 15.2417 18.9422 15.2417 19.1291V26.0406H17.5881C17.775 26.0406 17.9597 26.003 18.1315 25.931C18.3033 25.8591 18.4601 25.7538 18.5911 25.6217C18.7232 25.4897 18.8274 25.3329 18.8982 25.16C18.9691 24.9871 19.0056 24.8024 19.0045 24.6155V19.1248C19.0045 18.939 19.04 18.7543 19.1109 18.5825C19.1817 18.4107 19.2859 18.2539 19.4169 18.1218C19.5479 17.9908 19.7036 17.8855 19.8755 17.8136C20.0473 17.7416 20.2309 17.7051 20.4167 17.704H23.3333C23.5202 17.7062 23.706 17.6708 23.8789 17.5999C24.0518 17.5301 24.2096 17.4259 24.3417 17.2938C24.4749 17.1617 24.5801 17.0049 24.651 16.8321C24.7229 16.6602 24.7595 16.4744 24.7584 16.2876L24.7552 16.2833Z" fill="white"/>
</g>
<defs>
<clipPath id="clip0_1691_110">
<rect width="40" height="40" fill="white"/>
</clipPath>
</defs>
</svg>
