<svg width="40" height="40" viewBox="0 0 40 40" fill="none" xmlns="http://www.w3.org/2000/svg">
<g clip-path="url(#clip0_819_3697)">
<path d="M20 0C31.0457 0 40 8.9543 40 20C40 31.0457 31.0457 40 20 40C8.95431 40 7.90517e-06 31.0457 0 20C6.58765e-07 8.95431 8.95431 1.97595e-06 20 0Z" fill="#F6CCCC"/>
<path d="M26 6C30.4183 6 34 9.58172 34 14V26C34 30.4183 30.4183 34 26 34H14C9.58172 34 6 30.4183 6 26V14C6 9.58172 9.58172 6 14 6H26Z" fill="#D40000"/>
<path d="M19.6189 10C19.6189 10 19.6105 10.1175 19.5747 10.1892C19.548 10.2517 19.4764 10.2958 19.4855 10.3408C19.4939 10.3858 19.5389 10.44 19.6105 10.4758C19.6822 10.5117 19.708 10.5375 19.7797 10.5558C19.8422 10.5733 19.933 10.6192 19.9505 10.565C19.978 10.5117 19.9422 10.4392 19.8972 10.3767C19.8255 10.26 19.7889 10.2333 19.6905 10.0725C19.6722 10.0367 19.6547 10 19.6189 10ZM20.1839 10C20.1655 10.0092 20.1389 10.145 20.0939 10.2608C20.0405 10.395 20.0755 10.4575 20.1022 10.5108C20.138 10.565 20.1839 10.6008 20.0939 10.655C20.0047 10.7083 19.8872 10.6908 19.8872 10.6908C19.8872 10.6908 19.7889 10.6717 19.708 10.6275C19.6249 10.5908 19.5416 10.5547 19.458 10.5192C19.458 10.5192 19.2964 10.475 19.1889 10.4842C19.0814 10.4925 19.0722 10.5025 18.9922 10.5117C18.9472 10.5117 18.9297 10.5108 18.8847 10.52C18.8489 10.5283 18.8047 10.5033 18.8047 10.5475C18.8047 10.5917 18.8939 10.5925 18.9564 10.6192C19.0189 10.6458 19.1622 10.645 19.1355 10.6808C19.0997 10.7167 18.9655 10.7258 18.9564 10.7167C18.948 10.7167 18.8589 10.6992 18.7872 10.6992C18.6705 10.7075 18.6622 10.7075 18.493 10.7883C18.4655 10.7967 18.4747 10.86 18.528 10.8417C18.6096 10.8184 18.694 10.8063 18.7789 10.8058C18.8872 10.8058 18.948 10.8425 19.0555 10.87C19.1455 10.8967 19.1539 10.9133 19.2889 10.9317C19.3155 10.9317 19.368 10.9133 19.368 10.9492C19.368 10.9675 19.3322 10.995 19.3322 10.995C19.3322 10.995 19.2522 11.0117 19.2605 11.0392C19.2789 11.075 19.3505 11.0392 19.3855 11.0392C19.4222 11.0392 19.4772 11.0492 19.4672 11.0842L19.4497 11.1108C19.3672 11.1324 19.2861 11.1594 19.2072 11.1917C18.983 11.2817 18.8947 11.3892 18.6797 11.4967C18.4739 11.595 18.143 11.7192 18.143 11.7192C18.143 11.7192 18.0447 11.7733 17.9014 11.8083C17.7589 11.845 17.7497 11.8367 17.6514 11.8542C17.5715 11.8588 17.4941 11.8834 17.4264 11.9258C17.3791 11.9504 17.3367 11.9834 17.3014 12.0233L17.1764 12.2125L17.1039 12.3183C17.0864 12.3542 17.0689 12.3717 17.0605 12.4075C17.0422 12.4525 17.033 12.4708 17.0247 12.5158C16.998 12.6225 17.0247 12.6858 17.0422 12.7933C17.0514 12.82 17.0514 12.8383 17.0605 12.865C17.0689 12.8917 17.1039 12.9192 17.1039 12.9192L17.1397 12.9275C17.1397 12.9275 17.2664 12.9192 17.3464 12.9008C17.4272 12.8833 17.5439 12.855 17.5439 12.855L17.6947 12.8117L17.7947 12.7758C17.7947 12.7758 17.8572 12.7758 17.8664 12.8117C17.8747 12.8383 17.848 12.8833 17.848 12.8833C17.848 12.8833 17.7939 12.9083 17.7489 12.9267C17.7039 12.945 17.5964 12.9717 17.588 12.9808L17.4714 13.0167L17.373 13.0258C17.373 13.0258 17.3547 13.035 17.3372 13.0617C17.3189 13.0892 17.3189 13.0883 17.3189 13.1058C17.3372 13.1242 17.3464 13.1417 17.3647 13.16C17.4005 13.1867 17.418 13.2042 17.4622 13.2133C17.5247 13.24 17.5605 13.2317 17.623 13.2317C17.7013 13.2319 17.7784 13.2133 17.848 13.1775C17.9197 13.1325 17.9464 13.1333 18.0447 13.0975C18.0767 13.0881 18.1097 13.0822 18.143 13.08C18.313 13.0617 18.4097 13.0883 18.5805 13.1158C18.7505 13.1425 18.8322 13.1967 19.0022 13.2233C19.1814 13.25 19.288 13.3033 19.4755 13.2592C19.5655 13.2408 19.6197 13.1958 19.6647 13.285C19.7089 13.3658 19.7005 13.41 19.7005 13.41C19.7005 13.41 19.6997 13.465 19.6372 13.635C19.5739 13.805 19.378 14.2258 19.378 14.2258L19.243 14.4942C19.243 14.4942 19.1347 14.7083 18.8847 14.9858C18.7962 15.0843 18.7073 15.1823 18.618 15.28C18.618 15.28 18.4839 15.3792 18.3497 15.5492C18.2155 15.7192 18.2139 15.7817 18.0889 15.9075C18.008 15.9875 17.9639 16.0325 17.8655 16.0958C17.7672 16.1583 17.6505 16.14 17.3372 16.3542C17.0689 16.5425 16.9255 16.6958 16.9072 16.6867C16.8897 16.6783 16.7997 16.605 16.7639 16.5867C16.7372 16.57 16.2189 16.2208 16.2189 16.2208L16.0039 16.0775L15.9047 16.0142L15.8872 15.9783L15.8347 15.9067C15.8347 15.9067 15.7539 15.8083 15.6555 15.7283C15.5536 15.6298 15.4264 15.5614 15.288 15.5308C15.1355 15.4867 15.038 15.4592 14.8864 15.5133C14.8005 15.5415 14.7231 15.5908 14.6614 15.6567C14.5722 15.7458 14.5539 15.8175 14.4822 15.925C14.4105 16.0325 14.3389 16.1317 14.303 16.185C14.2672 16.2392 14.1955 16.3825 14.1955 16.3825C14.1955 16.3825 14.0172 16.6683 13.9189 16.8558C13.8022 17.0617 13.758 17.1883 13.6505 17.385C13.4805 17.6983 13.238 18.02 13.1755 18.1625L13.1055 18.3242C13.1055 18.3242 13.0864 18.4033 13.078 18.4575C13.0689 18.5108 13.0689 18.6008 13.0597 18.6367C13.0521 18.6725 13.0371 18.7063 13.0155 18.7358C13.0072 18.7442 12.908 18.95 12.8722 19.0842C12.8364 19.2175 12.7555 19.6392 12.8547 19.6925C12.953 19.7467 13.6772 19.4342 13.7755 19.1292C13.8389 18.9325 13.5789 18.8333 13.6505 18.6542C13.6772 18.5917 13.6955 18.5833 13.7397 18.5208C13.8114 18.4042 13.7847 18.1633 13.9189 17.94C14.0172 17.7792 14.2139 17.5717 14.4822 17.2675C14.6522 17.08 14.8139 16.7758 14.8139 16.7758C14.8139 16.7758 14.8497 16.6683 14.9222 16.6867C15.0022 16.7042 15.073 16.695 15.073 16.695L15.1089 16.7225L15.1805 16.7942L15.288 16.955C15.288 16.955 15.468 17.2133 15.5297 17.2858C15.593 17.3575 15.6555 17.4108 15.7455 17.4825C15.8439 17.5717 15.8789 17.6167 16.0039 17.7158C16.183 17.8583 16.1197 17.9125 15.8872 17.7867C15.7905 17.7376 15.6888 17.699 15.5839 17.6717C15.4772 17.6442 15.0739 17.5367 14.868 17.51C14.6714 17.4833 14.6347 17.4925 14.6347 17.4925C14.6347 17.4925 14.5364 17.4825 14.4205 17.5542C14.3039 17.6258 14.2414 17.6792 14.2414 17.6792C14.2414 17.6792 14.1072 17.8317 14.098 17.8583C14.0897 17.885 14.0264 17.9917 14.0264 17.9917C14.0264 17.9917 13.9897 18.0467 13.9814 18.1083C13.963 18.1717 13.973 18.2342 13.973 18.2342L13.9814 18.3675L13.9905 18.4925C13.9905 18.4925 14.018 18.8067 14.0805 19.12C14.098 19.2092 14.1164 19.3525 14.1164 19.3525L14.1597 19.675C14.1597 19.675 14.1872 20.0158 14.2139 20.1317C14.2405 20.24 14.2589 20.2483 14.2772 20.3192C14.313 20.4533 14.2505 20.5158 14.313 20.6775C14.3755 20.8383 14.4297 20.8192 14.4922 20.9183C14.5372 20.99 14.5539 21.0075 14.5897 21.0975C14.6255 21.1867 14.7422 21.4833 14.8764 21.6975C15.0197 21.9217 15.208 22.1983 15.3339 22.1717C15.4589 22.1442 15.548 21.9483 15.548 21.9483C15.548 21.9483 15.6914 21.5625 15.6022 21.1867C15.5122 20.8017 15.1005 20.9825 15.0472 20.705C15.0389 20.6425 15.0472 20.5442 15.0472 20.5442C15.0472 20.5442 15.0372 20.4267 15.0197 20.3908C15.0014 20.355 14.858 20.0875 14.8047 19.8633C14.7597 19.6933 14.7689 19.1467 14.733 18.9942C14.6347 18.6008 14.6255 18.6358 14.6789 18.565C14.7422 18.4933 14.7964 18.5108 14.7964 18.5108L14.8764 18.5208L14.9397 18.5467L15.0555 18.6183C15.0914 18.645 15.2164 18.7433 15.2164 18.7433L15.5205 18.9408C15.5205 18.9408 15.6914 19.04 15.763 19.0758C15.8347 19.1117 15.8964 19.1558 15.8964 19.1558L15.9764 19.2092L16.1114 19.3092L16.1372 19.3342L16.1555 19.37C16.1555 19.37 16.2189 19.5142 16.4872 19.6667C16.7022 19.7917 16.8905 19.755 16.9705 19.8542C16.9889 19.8717 17.1397 20.0792 17.2122 20.2042C17.3014 20.3467 17.4089 20.5158 17.4447 20.57C17.4805 20.6233 17.7047 20.9 17.7047 20.9L17.9997 21.2225L18.3855 21.5808L18.7339 21.8767L18.9564 22.0558C18.9564 22.0558 19.1539 22.2442 19.378 22.3958C19.593 22.5392 19.6014 22.5567 19.7447 22.6542C19.8514 22.7267 19.9947 22.8258 20.138 22.9333C20.2814 23.05 20.443 23.2633 20.3805 23.335C20.3355 23.3617 20.2547 23.2467 20.1022 23.1125C20.0028 23.0231 19.8985 22.9394 19.7897 22.8617C19.6289 22.7367 19.5472 22.6725 19.368 22.565C19.2789 22.5117 19.118 22.4142 19.1097 22.4317C19.0472 22.62 19.0547 22.7983 19.0639 23.0308C19.0722 23.1917 19.0997 23.3525 19.153 23.5583C19.198 23.755 19.243 23.8633 19.3147 24.0508C19.3864 24.2392 19.5214 24.5342 19.5214 24.5342L19.7264 24.9467L19.9147 25.2592L20.013 25.42L20.0489 25.4733C20.0489 25.4733 20.093 25.5817 20.0489 25.6525C20.0047 25.7233 19.9497 25.8767 19.8697 25.8858C19.7889 25.9033 19.6014 25.9133 19.6014 25.9133L18.5364 25.895L17.9814 25.85C17.9814 25.85 17.9197 25.8142 17.598 25.8142C17.4097 25.8142 17.2572 25.8942 17.1497 25.9033C17.0605 25.9117 16.6214 25.8767 16.3264 25.9925C16.0489 26.1092 15.923 26.1358 15.8247 26.315C15.753 26.4492 16.1747 26.665 16.523 26.745C17.0872 26.87 16.9255 26.6283 17.1397 26.4767C17.1672 26.4583 17.1764 26.4417 17.2039 26.4325C17.3464 26.3875 17.4264 26.5025 17.5705 26.5025C17.7305 26.5025 17.8205 26.4492 17.9814 26.4225C18.7955 26.315 20.0664 26.6992 20.0664 26.6992C20.0664 26.6992 20.3805 26.7975 20.5239 26.7708C20.6939 26.735 20.6572 26.6725 20.7105 26.5742C20.7555 26.4933 20.738 26.4767 20.7464 26.3867C20.7464 26.3333 20.738 26.3067 20.7289 26.2533C20.693 26.1008 20.5955 25.8858 20.5955 25.8858C20.5955 25.8858 20.523 25.725 20.4955 25.6442C20.4605 25.5283 20.4247 25.4558 20.4064 25.3308C20.353 24.9992 20.3622 25.0267 20.3622 24.8392C20.3622 24.4992 20.398 24.3108 20.4872 23.98C20.6222 23.4967 20.873 23.2908 21.0605 22.8258C21.1147 22.7008 21.1139 22.5217 21.1772 22.5033C21.248 22.495 21.2397 22.7275 21.2039 22.8617C21.0872 23.3267 20.8014 23.5233 20.6672 23.9975C20.5689 24.3642 20.5147 24.5783 20.5422 24.9542C20.5505 25.16 20.6314 25.4833 20.6314 25.4833C20.6314 25.4833 20.7389 25.8408 20.7922 25.975C20.8464 26.1092 20.953 26.3333 20.953 26.3333L21.1947 26.7625L21.3197 26.9675C21.3197 26.9675 21.408 27.0483 21.3639 27.1825C21.3189 27.3167 21.2305 27.3992 21.1222 27.515C20.8189 27.8733 20.1122 28.4 19.933 28.525C19.683 28.7133 19.6905 28.7675 19.6722 28.8217C19.5739 29.1083 19.2872 29.1167 18.9747 29.4567C18.903 29.5283 18.7155 29.7242 18.7514 29.8942C18.7689 29.9567 19.5389 30.0917 19.9864 29.9042C20.3364 29.7517 20.0314 29.5808 20.1297 29.4108C20.2014 29.2858 20.3797 29.2858 20.4605 29.1775C20.5939 28.9992 20.5047 29.0083 20.6214 28.8658C21.0064 28.4 21.2572 28.1325 21.9464 27.7117C22.0089 27.6758 22.1255 27.6225 22.1255 27.6225C22.1255 27.6225 22.223 27.5767 22.2589 27.5225C22.3039 27.4508 22.2947 27.3892 22.2947 27.3083C22.2947 27.2542 22.2864 27.2283 22.2864 27.175C22.2864 27.1117 22.2947 27.0758 22.2764 27.0133C22.2589 26.915 22.1972 26.8342 22.1614 26.78C22.0918 26.6946 22.0453 26.5927 22.0264 26.4842C21.9776 26.3193 21.9873 26.1427 22.0539 25.9842C22.1255 25.7967 22.2864 25.645 22.2864 25.645L22.688 25.3758C22.688 25.3758 23.038 25.125 23.1464 25.0258C23.2622 24.9275 23.4855 24.7217 23.6464 24.4892C23.8347 24.23 23.933 24.0683 24.013 23.7558C24.0397 23.6392 24.0672 23.4608 24.0672 23.4608C24.0672 23.4608 24.0672 23.3358 24.1389 23.3275C24.2097 23.3183 24.228 23.3442 24.228 23.3442C24.228 23.3442 24.2897 23.3792 24.308 23.5583C24.3164 23.7375 24.2639 23.9442 24.2639 23.9442C24.2639 23.9442 24.2097 24.1492 24.1922 24.2742C24.1839 24.355 24.1822 24.3992 24.1822 24.4892C24.1822 24.6417 24.2455 24.7675 24.2455 24.7675C24.2455 24.7675 24.2814 24.7942 24.2814 24.7317C24.2862 24.6347 24.3015 24.5386 24.3272 24.445C24.3539 24.3558 24.3714 24.3725 24.4247 24.22C24.4964 24.0233 24.433 24.0425 24.4689 23.9258C24.4872 23.8725 24.5322 23.8183 24.5855 23.8183C24.6397 23.8183 24.648 23.89 24.648 23.89C24.648 23.89 24.7022 24.1233 24.658 24.3375C24.613 24.5525 24.4514 24.8475 24.4514 24.8475L24.3272 25.0617C24.3272 25.0617 24.238 25.2142 24.2022 25.3125C24.1664 25.42 24.1564 25.465 24.1747 25.5625C24.2014 25.6708 24.283 25.815 24.3272 25.7875C24.363 25.7608 24.2739 25.6708 24.3814 25.4558C24.4889 25.2408 24.6297 25.1075 24.6297 25.1075C24.6297 25.1075 24.8272 24.8742 24.9164 24.6958C24.9972 24.535 25.078 24.2742 25.078 24.2742C25.078 24.2742 25.1414 24.0408 25.123 23.8442C25.1147 23.6567 25.078 23.5583 25.078 23.5583L24.998 23.415L24.9522 23.3092L24.9705 23.2458C24.988 23.2367 25.0514 23.2817 25.1055 23.3533C25.1708 23.4374 25.2164 23.5351 25.2389 23.6392C25.2633 23.7205 25.2754 23.8051 25.2747 23.89C25.2747 23.9617 25.2489 24.2567 25.3555 24.445C25.4005 24.535 25.508 24.74 25.5172 24.65C25.5347 24.4442 25.4447 24.3467 25.4539 24.1583C25.4622 23.9442 25.5172 23.9975 25.5347 23.89C25.553 23.7733 25.5789 23.7458 25.5614 23.5942C25.5433 23.482 25.5166 23.3714 25.4814 23.2633L25.418 23.12L25.3914 23.0667C25.3914 23.0667 25.4089 23.0408 25.4355 23.0408L25.6505 22.9692C25.6505 22.9692 25.9289 22.8442 26.0364 22.7542C26.153 22.6733 26.2864 22.5292 26.2864 22.5292C26.2864 22.5292 26.4655 22.3067 26.5555 22.1458C26.7705 21.7425 26.7697 21.2325 26.7605 20.9992C26.7522 20.7758 26.6889 20.48 26.6889 20.48C26.6889 20.48 26.6172 20.1217 26.6355 19.8892C26.653 19.6567 26.6714 19.5492 26.6714 19.5492C26.6714 19.5492 26.663 19.3167 26.8597 19.0658C27.0564 18.8158 27.1447 18.655 27.1805 18.4667C27.2164 18.3058 27.1622 18.0467 27.0905 18.145C27.0105 18.2525 26.9764 18.4675 26.8597 18.6458C26.6989 18.8967 26.4647 19.2008 26.3489 19.2008C26.2864 19.2008 26.2689 19.0575 26.2689 19.0575C26.2689 19.0575 26.1889 18.8158 26.323 18.5108C26.4214 18.2958 26.4739 18.2342 26.5997 18.0733C26.7164 17.9208 26.7872 17.84 26.868 17.6792C26.9397 17.5358 26.9564 17.5092 27.0014 17.2858C27.0097 17.2317 26.993 17.1158 26.9397 17.1242C26.868 17.1242 26.6714 17.555 26.4655 17.7967C26.2689 18.02 25.9014 18.3058 25.9014 18.3058C25.9014 18.3058 25.8655 18.3317 25.8655 18.26C25.8572 18.1975 25.8472 18.01 25.883 17.8408C25.928 17.6281 26.0101 17.425 26.1255 17.2408C26.2955 16.9458 26.5097 16.7408 26.6172 16.6325C26.6622 16.5883 26.7964 16.5067 26.7255 16.4617C26.6622 16.4258 26.4739 16.5867 26.3305 16.695C26.1522 16.8283 26.0897 16.8658 25.9114 17.0808C25.7322 17.295 25.6864 17.385 25.6864 17.385C25.6864 17.385 25.5164 17.6617 25.4714 17.93C25.4264 18.1983 25.4272 18.35 25.4272 18.35C25.4272 18.35 25.4272 18.5925 25.4539 18.7358C25.4714 18.8875 25.5347 19.1192 25.5347 19.1192C25.5347 19.1192 25.6247 19.38 25.6597 19.5417C25.6964 19.7025 25.758 20.1758 25.758 20.1758C25.758 20.1758 25.803 20.5167 25.7755 20.8383C25.7489 21.1608 25.7222 21.3483 25.6864 21.4467C25.6505 21.5458 25.553 21.805 25.3914 21.9842C25.2397 22.1542 25.203 22.1808 25.203 22.1808C25.203 22.1808 25.0422 22.3142 24.908 22.3858C24.7726 22.4592 24.632 22.5224 24.4872 22.575C24.4133 22.5881 24.3388 22.5968 24.2639 22.6008H24.148L24.1122 22.5758L24.093 22.5033C24.093 22.5033 24.0047 22.1542 23.898 21.9308C23.808 21.7425 23.6197 21.4833 23.6197 21.4833C23.6197 21.4833 23.2972 21.0442 23.0464 20.8025C22.7597 20.5167 22.438 20.3025 22.2405 20.15C22.1689 20.0967 22.008 19.9967 22.008 19.9967C22.008 19.9967 21.3555 19.3442 21.123 18.825C20.9614 18.4667 20.8547 18.2083 20.8997 17.8142C20.908 17.725 20.9439 17.5542 20.9614 17.5542L21.078 17.59C21.088 17.5983 21.1947 17.6975 21.2939 17.7333C21.3472 17.7508 21.4447 17.7692 21.4447 17.7692C21.4447 17.7692 21.5255 17.7775 21.5697 17.7867C21.6147 17.805 21.6955 17.8317 21.7489 17.8583C21.803 17.885 21.8822 17.94 21.8822 17.94L22.0355 18.055L22.1972 18.18C22.1972 18.18 22.2855 18.2433 22.3122 18.2525C22.3389 18.2608 22.3572 18.27 22.3664 18.27H22.4022C22.4022 18.27 22.4389 18.26 22.4472 18.2242C22.4564 18.18 22.403 18.2158 22.3222 18.1267C22.2723 18.0838 22.23 18.0328 22.1972 17.9758C22.1972 17.9758 22.1789 17.9033 22.1072 17.8225C22.0355 17.7417 21.9464 17.6708 21.9464 17.6708C21.9464 17.6708 21.883 17.6267 21.793 17.5992C21.7039 17.5725 21.6764 17.5717 21.668 17.5358C21.6597 17.5 21.7755 17.5183 21.7755 17.5183C21.7755 17.5183 21.9105 17.5358 22.0172 17.59C22.1255 17.6433 22.1872 17.7067 22.1872 17.7067L22.2589 17.7692L22.3047 17.8142L22.348 17.8408C22.348 17.8408 22.393 17.885 22.4022 17.8225C22.4105 17.7692 22.393 17.7242 22.3839 17.715L22.3397 17.6708L22.1614 17.5183C22.1181 17.4717 22.0701 17.4298 22.018 17.3933C21.9456 17.3423 21.8673 17.3003 21.7847 17.2683C21.6955 17.2317 21.6422 17.2408 21.5522 17.1958C21.4897 17.1692 21.4355 17.1517 21.3997 17.0983C21.3905 17.09 21.3464 17.0525 21.4272 17.0708C21.5072 17.0883 21.5605 17.1158 21.6497 17.1342C21.793 17.17 21.883 17.1692 22.018 17.2142C22.0714 17.2317 22.143 17.2675 22.143 17.2675L22.3122 17.3392C22.3122 17.3392 22.5455 17.465 22.7064 17.4742C22.8256 17.4834 22.9453 17.4651 23.0564 17.4208C23.1213 17.3942 23.1818 17.3577 23.2355 17.3125C23.252 17.2964 23.2665 17.2785 23.2789 17.2592L23.2972 17.2142V17.1783C23.2522 17.1242 23.1639 17.2683 23.0205 17.295C22.868 17.3225 22.8764 17.3392 22.778 17.3217C22.6823 17.3116 22.5935 17.2672 22.528 17.1967C22.3839 17.0617 22.3314 16.9367 22.143 16.8558C22.063 16.82 21.918 16.7842 21.918 16.7842C21.918 16.7842 21.7214 16.7217 21.6139 16.6592C21.5339 16.6142 21.3655 16.5875 21.4189 16.5158C21.4455 16.48 21.6605 16.605 21.8205 16.6233C21.9372 16.6408 22.018 16.6325 22.1072 16.6325C22.1964 16.6325 22.3222 16.605 22.3405 16.605C22.358 16.5967 22.4289 16.605 22.4914 16.6233C22.5539 16.6408 22.5897 16.6675 22.6522 16.695C22.7155 16.7217 22.788 16.7667 22.8055 16.7667L22.8414 16.7758L22.8597 16.7583L22.868 16.74L22.8597 16.7225L22.8314 16.7042L22.778 16.6683C22.778 16.6683 22.698 16.6233 22.6264 16.5517C22.5547 16.48 22.4914 16.4 22.3847 16.3642C22.2764 16.3283 22.1514 16.3108 22.1514 16.3108L22.0264 16.3008L21.9722 16.2925C21.9722 16.2925 21.883 16.265 21.9547 16.2475C21.9955 16.235 22.0373 16.2261 22.0797 16.2208C22.1482 16.206 22.2193 16.2089 22.2864 16.2292C22.358 16.2558 22.4747 16.3183 22.483 16.3183C22.4922 16.3275 22.5997 16.4092 22.7164 16.4358C22.833 16.4625 22.9847 16.4717 22.9847 16.4717L23.0564 16.4542L23.0922 16.4442L23.118 16.4258L23.1097 16.3825C23.1097 16.3825 23.1097 16.3458 23.0564 16.3367C22.9628 16.3258 22.8733 16.2923 22.7955 16.2392C22.6972 16.1675 22.6264 16.0958 22.6264 16.0958C22.6264 16.0958 22.5547 16.0325 22.4114 15.9958C22.278 15.9608 22.233 15.9608 22.233 15.9608L22.1872 15.9425L22.0897 15.8992C22.0897 15.8992 22.0439 15.8717 22.008 15.8275C21.9722 15.7825 21.9197 15.7008 22.0714 15.7458C22.2239 15.7908 22.2589 15.8175 22.2589 15.8175C22.2589 15.8175 22.3397 15.8983 22.4114 15.9067C22.4564 15.9158 22.4922 15.925 22.5197 15.8892C22.5639 15.8442 22.438 15.7908 22.348 15.7275C22.291 15.6829 22.2425 15.6284 22.2047 15.5667C22.2047 15.5667 22.1522 15.5225 22.233 15.5408C22.313 15.5583 22.4555 15.6483 22.4555 15.6483C22.4555 15.6483 22.5272 15.6833 22.5639 15.6925C22.5897 15.7008 22.6622 15.7458 22.698 15.7633C22.7247 15.7725 22.8064 15.7908 22.8589 15.8175C22.9305 15.8625 22.9672 15.9342 23.0022 15.9608C23.038 15.9875 23.0655 16.0333 23.1105 16.0417C23.1547 16.0508 23.163 16.0683 23.1897 16.05C23.2022 16.0422 23.2141 16.0335 23.2255 16.0242C23.2255 16.0242 23.2339 16.005 23.1897 15.9783C23.1455 15.9517 23.0922 15.8808 23.0922 15.8808L23.0739 15.845L23.0647 15.8092L23.0205 15.7375L22.9389 15.6208C22.9389 15.6208 22.8139 15.4508 22.698 15.3875C22.5905 15.325 22.5097 15.29 22.5097 15.29C22.5097 15.29 22.4564 15.2642 22.4297 15.2458C22.3847 15.21 22.3664 15.1817 22.3297 15.1375C22.2855 15.0833 22.2689 15.0492 22.2147 14.9958C22.1164 14.8975 21.8122 14.8425 21.928 14.7708C21.9914 14.735 22.0714 14.7542 22.1072 14.7625C22.143 14.7717 22.2239 14.8058 22.3047 14.8325C22.358 14.8508 22.3939 14.8525 22.4472 14.87C22.5014 14.8883 22.5639 14.8958 22.5905 14.9142C22.6172 14.9317 22.6447 14.9683 22.6622 14.9775C22.6714 14.9858 22.7422 15.1025 22.8672 15.165C22.9922 15.2275 23.0564 15.2717 23.1814 15.28C23.2797 15.2892 23.4397 15.255 23.4397 15.255C23.4397 15.255 23.4855 15.2358 23.4497 15.1908C23.4055 15.1458 23.4047 15.1375 23.3689 15.1292C23.2255 15.075 23.1105 15.0933 23.0022 14.9858C22.958 14.9408 22.9389 14.9317 22.903 14.8608C22.8672 14.7892 22.8864 14.7717 22.8597 14.7275C22.8414 14.6825 22.7955 14.6192 22.7955 14.6192C22.7955 14.6192 22.6622 14.4575 22.5189 14.3775C22.4202 14.3274 22.327 14.2674 22.2405 14.1983C22.2139 14.18 22.1614 14.1083 22.1614 14.1083L22.1155 14.0367L22.0897 13.9833C22.0714 13.885 22.2497 14.0108 22.348 14.0467C22.5097 14.1 22.5905 14.1717 22.7522 14.2258C22.8414 14.2525 22.8955 14.2517 22.9847 14.2875C23.1364 14.35 23.1814 14.5025 23.343 14.5208C23.4322 14.5292 23.6114 14.565 23.5755 14.4842C23.5397 14.395 23.3605 14.395 23.2714 14.2875C23.2264 14.2425 23.2264 14.1992 23.1814 14.1542C23.1097 14.0642 22.9397 13.9833 22.9397 13.9833C22.9397 13.9833 22.8864 13.9392 22.823 13.8142C22.7697 13.6892 22.6355 13.5975 22.3939 13.4817C22.233 13.4017 21.9105 13.3833 22.0355 13.3025C22.1072 13.2492 22.1697 13.2583 22.2689 13.285C22.3672 13.3208 22.4022 13.3667 22.483 13.4017C22.5639 13.4383 22.5997 13.4467 22.6164 13.4558C22.6347 13.4642 22.6972 13.4917 22.7247 13.4917C22.7414 13.5 22.8772 13.5183 22.913 13.5275L23.0922 13.5717L23.2355 13.625C23.2355 13.625 23.3064 13.6525 23.3505 13.6525C23.3947 13.6525 23.468 13.635 23.468 13.635L23.5214 13.5992L23.5297 13.5808C23.5297 13.5808 23.5572 13.5367 23.4855 13.5275C23.4502 13.5218 23.4146 13.5185 23.3789 13.5175L23.3147 13.5L23.2897 13.4917C23.2897 13.4917 23.1639 13.3933 23.0564 13.3483C23.011 13.3314 22.966 13.3136 22.9214 13.295L22.8772 13.285L22.8239 13.2767C22.8239 13.2767 22.778 13.2767 22.7064 13.2133C22.6347 13.1508 22.608 13.115 22.5455 13.0525L22.4655 12.9725C22.4655 12.9725 22.3939 12.9175 22.3939 12.8725C22.4022 12.8017 22.5547 12.9542 22.5547 12.9542L22.663 13.0258C22.663 13.0258 22.7522 13.0892 22.913 13.0975C23.0739 13.1067 23.2714 13.0525 23.2714 13.0525C23.2714 13.0525 23.2972 13.0358 23.3864 13.0617C23.4755 13.0875 23.548 13.1417 23.548 13.1417L23.6197 13.205L23.7272 13.3208L23.7447 13.3125C23.753 13.3042 23.7989 13.2583 23.7189 13.16C23.638 13.0608 23.5039 12.9725 23.5039 12.9725C23.5039 12.9725 23.3247 12.865 23.1455 12.8292C22.9672 12.7933 22.8855 12.7933 22.8855 12.7933C22.8855 12.7933 22.7514 12.7933 22.6705 12.7042C22.5897 12.6142 22.5372 12.525 22.5372 12.525L22.5097 12.4C22.5097 12.4 22.4655 12.3458 22.3764 12.31C22.2955 12.2742 22.2047 12.2208 22.2047 12.2208C22.2047 12.2208 22.0714 12.1758 22.0614 12.1125C22.0347 11.9967 22.2864 12.1125 22.4197 12.1392C22.5447 12.1658 22.5989 12.2117 22.7239 12.2392C22.817 12.2656 22.9143 12.2741 23.0105 12.2642C23.073 12.2642 23.1089 12.2575 23.1714 12.2475C23.2347 12.2475 23.2797 12.2392 23.343 12.2475C23.4322 12.2658 23.468 12.31 23.5572 12.3458C23.6114 12.3725 23.638 12.3983 23.7005 12.4075C23.7547 12.4167 23.8622 12.4533 23.8439 12.3992L23.8164 12.3633C23.7714 12.3008 23.7189 12.3008 23.6647 12.2567C23.548 12.1667 23.4947 12.0958 23.3605 12.0333C23.285 11.993 23.2034 11.9654 23.1189 11.9517C23.0464 11.9433 22.993 11.9617 22.9214 11.9433C22.8405 11.9167 22.8147 11.8808 22.7339 11.8367C22.6089 11.765 22.5364 11.7017 22.4022 11.6475C22.3231 11.6191 22.2424 11.5951 22.1605 11.5758L22.0972 11.5675L22.0722 11.5583C21.9464 11.5133 22.2947 11.4158 22.4555 11.3708C22.5364 11.3533 22.5722 11.3342 22.6522 11.3433C22.7239 11.3517 22.8047 11.4517 22.8855 11.4067C23.0022 11.3442 22.7514 11.1733 22.6705 11.1467C22.563 11.1017 22.3755 11.1383 22.3755 11.1383L21.9639 11.1283L21.8472 11.1108C21.8472 11.1108 21.7755 11.1108 21.7222 11.0483C21.668 10.9858 21.463 10.7342 21.2305 10.6983C20.9889 10.6625 20.9172 10.6983 20.8997 10.6817C20.6939 10.3583 20.478 10.2875 20.3164 10.1358C20.2722 10.0908 20.2014 9.99167 20.183 10.0008L20.1839 10ZM21.1614 10.95C21.1755 10.9493 21.1897 10.9493 21.2039 10.95L21.248 10.9775C21.2847 11.0138 21.3149 11.056 21.3372 11.1025C21.3464 11.1383 21.2305 11.0942 21.1864 11.0842C21.1409 11.0715 21.0985 11.05 21.0614 11.0208C21.0614 11.0208 21.0422 10.9942 21.0864 10.9675C21.1095 10.9555 21.1353 10.9501 21.1614 10.95ZM21.3714 11.3917C21.393 11.3917 21.4089 11.3967 21.4089 11.3967L21.453 11.425C21.4897 11.4612 21.5199 11.5035 21.5422 11.55C21.5514 11.5858 21.4355 11.5417 21.3914 11.5317C21.3459 11.519 21.3035 11.4975 21.2664 11.4683C21.2664 11.4683 21.248 11.4417 21.3022 11.415C21.3221 11.3999 21.3464 11.392 21.3714 11.3925V11.3917ZM19.803 11.4033C19.8253 11.4022 19.8476 11.4033 19.8697 11.4067C19.8697 11.4067 19.9055 11.4067 19.9589 11.4325C20.013 11.4683 20.0489 11.5758 20.0489 11.5758C20.0489 11.5758 20.0572 11.5942 20.013 11.5942C19.9855 11.5942 19.9855 11.55 19.9589 11.5317C19.923 11.505 19.8964 11.4958 19.8514 11.4783C19.8072 11.4608 19.7447 11.4867 19.7364 11.4425C19.7364 11.4158 19.7697 11.4058 19.803 11.4033ZM19.0997 11.5075C19.1347 11.4975 19.0997 11.5675 19.0997 11.5675C19.0997 11.5675 18.9839 11.755 18.823 11.8267C18.6622 11.8983 18.5547 11.935 18.2497 11.9617C18.2055 11.9617 18.2247 11.9342 18.2247 11.9342C18.2247 11.9342 18.5722 11.8367 18.7697 11.7292C18.8639 11.6769 18.9536 11.617 19.038 11.55C19.0559 11.5325 19.0768 11.5176 19.0997 11.5075ZM19.7264 11.5575C19.7264 11.5575 19.7805 11.5592 19.843 11.6033C19.9064 11.6483 19.9597 11.8008 19.9597 11.8008C19.9597 11.8008 19.978 11.8983 19.933 11.9342C19.888 11.97 19.8164 11.9083 19.7797 11.8542C19.7478 11.809 19.7003 11.7773 19.6464 11.765C19.5747 11.7383 19.4672 11.8183 19.4497 11.765C19.4497 11.7467 19.458 11.7017 19.458 11.7017C19.458 11.7017 19.4764 11.6483 19.5572 11.6042C19.6289 11.5592 19.7264 11.5583 19.7264 11.5583V11.5575ZM21.3914 11.9033C21.4272 11.9067 21.4772 11.9342 21.5164 11.9342C21.633 11.9342 21.7305 11.9342 21.8114 11.9517C21.883 11.97 21.9005 12.0142 21.8647 12.0142C21.8386 12.0211 21.8117 12.0242 21.7847 12.0233C21.7047 12.0233 21.713 11.9875 21.6064 12.0417C21.498 12.095 21.5789 12.0692 21.4272 12.1225C21.2839 12.1767 21.3189 12.0333 21.3189 12.0333C21.3189 12.0333 21.3297 12.0058 21.3472 11.9333C21.3539 11.9075 21.3697 11.9008 21.3914 11.9033ZM17.3547 12.3183C17.4089 12.3183 17.508 12.355 17.508 12.435C17.5164 12.5158 17.453 12.48 17.408 12.5067C17.3822 12.525 17.3647 12.5342 17.3289 12.5608C17.2839 12.5967 17.2389 12.6858 17.2122 12.6583C17.1755 12.6317 17.1939 12.5333 17.1939 12.5333C17.1939 12.5333 17.2214 12.4617 17.2572 12.39C17.3022 12.3183 17.3547 12.3183 17.3547 12.3183ZM21.6355 12.4108C21.6496 12.4115 21.6636 12.4137 21.6772 12.4175C21.6772 12.4175 21.7039 12.4258 21.7214 12.4433C21.7397 12.4617 21.8114 12.525 21.8114 12.56C21.8114 12.5875 21.6955 12.5417 21.6422 12.5333C21.588 12.5242 21.5172 12.4708 21.5172 12.4708C21.5172 12.4708 21.4989 12.4542 21.5522 12.4275C21.5782 12.4152 21.6068 12.4095 21.6355 12.4108ZM20.0564 12.4842C20.0647 12.4842 20.0639 12.4967 20.048 12.525C20.013 12.5967 19.9055 12.6858 19.9055 12.6858C19.9055 12.6858 19.7805 12.8642 19.7539 12.8908C19.6372 12.9808 19.4939 12.9275 19.4314 12.9367C19.378 12.945 19.4139 12.8908 19.4139 12.8908C19.4139 12.8908 19.5664 12.8292 19.6639 12.7758C19.7955 12.71 20.0197 12.4842 20.0564 12.4842ZM18.2164 12.6417C18.2355 12.6417 18.2505 12.65 18.2505 12.6775C18.2597 12.74 18.1439 12.7842 18.1439 12.7842C18.1439 12.7842 18.1089 12.7933 18.0997 12.7308C18.0914 12.6683 18.1439 12.6592 18.1439 12.6592C18.1439 12.6592 18.1855 12.6392 18.2164 12.6417ZM20.433 12.7392C20.448 12.7308 20.4355 12.82 20.4355 12.82C20.4355 12.82 20.408 12.9375 20.3455 12.9733C20.2655 13.0183 20.0672 13.0717 20.0497 13.045C20.0497 13.0267 20.3089 12.945 20.4247 12.7492C20.4267 12.7452 20.4295 12.7418 20.433 12.7392ZM21.6447 12.7717C21.6593 12.7717 21.6738 12.7734 21.688 12.7767C21.688 12.7767 21.713 12.785 21.7405 12.8017C21.7672 12.8292 21.8305 12.9017 21.8397 12.9375C21.848 12.9733 21.723 12.9292 21.6605 12.92C21.6072 12.9108 21.5255 12.8483 21.5255 12.8483C21.5255 12.8483 21.5089 12.8208 21.563 12.7942C21.5874 12.7788 21.6158 12.7709 21.6447 12.7717ZM20.5605 12.975C20.5772 12.97 20.5505 13.045 20.5505 13.045C20.5505 13.045 20.5147 13.1617 20.443 13.1883C20.3539 13.215 20.0147 13.2233 20.0055 13.1967C19.9972 13.1692 20.3989 13.1333 20.5505 12.9817C20.5532 12.9785 20.5566 12.9762 20.5605 12.975ZM21.6722 13.1292C21.689 13.1291 21.7057 13.1308 21.7222 13.1342C21.7222 13.1342 21.7497 13.1425 21.7764 13.1608C21.803 13.1875 21.8747 13.2692 21.8839 13.3133C21.8922 13.3675 21.7589 13.3133 21.6964 13.2958C21.6404 13.2789 21.5883 13.2512 21.543 13.2142C21.543 13.2142 21.5255 13.1883 21.5789 13.1525C21.6071 13.136 21.6395 13.1279 21.6722 13.1292ZM21.6722 13.5767C21.689 13.5766 21.7057 13.5783 21.7222 13.5817C21.7222 13.5817 21.7497 13.59 21.7764 13.6083C21.803 13.635 21.8747 13.7167 21.8839 13.7608C21.8922 13.8058 21.7589 13.7517 21.6964 13.7333C21.6404 13.7171 21.5883 13.6899 21.543 13.6533C21.543 13.6533 21.5255 13.6358 21.5789 13.6C21.6072 13.5838 21.6396 13.576 21.6722 13.5775V13.5767ZM20.3655 14.005C20.4347 14.025 20.3714 14.5292 20.238 14.7633C20.0663 15.0508 19.8585 15.3152 19.6197 15.55C19.4947 15.6392 19.5755 15.4783 19.5755 15.4783C19.5755 15.4783 19.9239 14.9958 20.0855 14.6558C20.2022 14.4142 20.2739 14.0925 20.3272 14.0292C20.3439 14.0108 20.3555 14.0025 20.3655 14.005ZM21.6572 14.0117C21.6766 14.0123 21.6959 14.0151 21.7147 14.02C21.7147 14.02 21.7497 14.0283 21.7764 14.0558C21.803 14.0825 21.893 14.1817 21.9014 14.2267C21.9014 14.28 21.7497 14.2075 21.6789 14.1992C21.6167 14.1817 21.559 14.151 21.5097 14.1092C21.5097 14.1092 21.4905 14.0733 21.553 14.0375C21.5841 14.018 21.6206 14.0089 21.6572 14.0117ZM21.6005 14.445C21.6173 14.4447 21.634 14.4461 21.6505 14.4492C21.6505 14.4492 21.678 14.4592 21.7047 14.4775C21.7314 14.5042 21.803 14.5842 21.8122 14.6283C21.8205 14.6733 21.6872 14.62 21.6247 14.6108C21.5694 14.5944 21.5178 14.5672 21.473 14.5308C21.473 14.5308 21.4564 14.5033 21.5089 14.4675C21.5366 14.4514 21.5684 14.4436 21.6005 14.445ZM21.5747 14.8333C21.588 14.8327 21.6014 14.8327 21.6147 14.8333L21.6605 14.8608C21.6975 14.897 21.7279 14.9393 21.7505 14.9858C21.7505 15.0225 21.6422 14.9775 21.5889 14.9692C21.5355 14.96 21.4639 14.9067 21.4639 14.9067C21.4639 14.9067 21.4455 14.88 21.4997 14.8533C21.5228 14.8409 21.5485 14.834 21.5747 14.8333ZM21.5255 15.2142C21.5381 15.2149 21.5507 15.2166 21.563 15.2192L21.5989 15.2375C21.6164 15.255 21.6689 15.3083 21.6689 15.335C21.6689 15.3708 21.5714 15.3267 21.5355 15.3267C21.4996 15.3159 21.4664 15.2978 21.438 15.2733C21.438 15.2733 21.428 15.2542 21.463 15.2275C21.4814 15.2142 21.5047 15.2133 21.5255 15.2142ZM21.4505 15.5658C21.4608 15.5658 21.4711 15.5663 21.4814 15.5675L21.5172 15.5858C21.5355 15.6033 21.5789 15.6483 21.5789 15.675C21.5705 15.6933 21.4897 15.6575 21.4539 15.6575C21.4224 15.6466 21.3924 15.6317 21.3647 15.6133C21.3647 15.6133 21.3564 15.595 21.3922 15.5775C21.4106 15.5694 21.4305 15.5654 21.4505 15.5658ZM15.1097 15.7383C15.208 15.7567 15.2264 15.765 15.2172 15.81C15.2255 15.855 15.1014 15.8542 15.1014 15.8542C15.1014 15.8542 14.9214 15.8908 14.9489 15.8283C14.9847 15.765 15.1097 15.7383 15.1097 15.7383ZM21.3689 15.8425C21.3872 15.8425 21.4022 15.8458 21.4022 15.8458L21.438 15.8642C21.4555 15.8817 21.4997 15.9267 21.4997 15.9533C21.4905 15.98 21.4097 15.945 21.3747 15.9358C21.338 15.9267 21.2847 15.89 21.2847 15.89C21.2847 15.89 21.2764 15.8717 21.3122 15.8542C21.33 15.8461 21.3493 15.8421 21.3689 15.8425ZM21.2689 16.1567C21.2772 16.1567 21.2856 16.1572 21.2939 16.1583L21.3205 16.1767C21.3289 16.185 21.3739 16.23 21.3739 16.2483C21.3739 16.275 21.3105 16.2483 21.2747 16.24C21.248 16.2317 21.2047 16.2042 21.2047 16.2042C21.2047 16.2042 21.1964 16.1858 21.223 16.1683C21.2366 16.1603 21.2531 16.1562 21.2689 16.1567ZM18.718 16.2567C18.7687 16.2566 18.8194 16.2597 18.8697 16.2658C19.1197 16.3017 19.3614 16.5258 19.3247 16.5525C19.2889 16.5792 19.2355 16.5525 19.2172 16.5525L19.128 16.5083L18.993 16.4725C18.993 16.4725 18.7514 16.4183 18.573 16.4267C18.3939 16.4358 18.233 16.4983 18.233 16.4983C18.233 16.4983 18.1614 16.535 18.1439 16.49C18.1347 16.4367 18.1714 16.4092 18.1714 16.4092L18.1797 16.3908C18.1797 16.3908 18.3847 16.255 18.718 16.2567ZM14.4572 16.3633C14.463 16.3633 14.4655 16.365 14.4655 16.365L14.483 16.3833C14.4747 16.3833 14.5097 16.4725 14.4297 16.5617C14.3489 16.6517 14.0989 17.1258 14.0455 17.045C13.9914 16.9825 14.2872 16.5342 14.3497 16.445C14.3964 16.3708 14.4389 16.3633 14.4572 16.3633ZM21.1655 16.4608C21.178 16.4608 21.1872 16.4625 21.1872 16.4625L21.213 16.4725L21.2589 16.5342C21.2497 16.5608 21.1955 16.5433 21.1689 16.5342C21.1422 16.5342 21.1055 16.4983 21.1055 16.4983C21.1055 16.4983 21.0972 16.49 21.1239 16.4733C21.1363 16.4653 21.1507 16.461 21.1655 16.4608ZM15.513 16.7133C15.5272 16.7083 15.5372 16.72 15.5489 16.7233L15.593 16.7408L15.6205 16.7675L15.7105 16.8567C15.7464 16.91 15.8439 17.09 15.8255 17.1067C15.7455 17.1875 15.7189 17.08 15.603 16.9458C15.4864 16.8208 15.513 16.7133 15.513 16.7133ZM21.0405 16.755C21.0477 16.7553 21.0547 16.7567 21.0614 16.7592L21.088 16.7675L21.133 16.8308C21.133 16.8483 21.0789 16.8208 21.0522 16.8208C21.0247 16.8208 20.9897 16.785 20.9897 16.785C20.9897 16.785 20.9714 16.7767 20.998 16.7675C21.0108 16.7596 21.0255 16.7556 21.0405 16.7558V16.755ZM16.9997 17.0808C17.0289 17.0833 16.9889 17.135 16.9889 17.135C16.9889 17.135 16.8355 17.34 16.7464 17.4658C16.6297 17.635 16.4864 17.8942 16.4597 17.8675C16.433 17.8408 16.5855 17.5558 16.6664 17.4033C16.7555 17.2158 16.8897 17.1175 16.943 17.0992C16.9605 17.0895 16.9798 17.0835 16.9997 17.0817V17.0808ZM14.4564 17.7517L14.4739 17.77C14.4739 17.77 14.483 17.805 14.4205 17.9033C14.358 18.0017 14.3122 18.0025 14.3122 18.0025C14.3122 17.9942 14.2955 17.9583 14.3489 17.8508C14.4022 17.7433 14.4564 17.7517 14.4564 17.7517ZM13.3589 18.1017C13.364 18.103 13.3687 18.1059 13.3722 18.11C13.3989 18.1458 13.3189 18.3067 13.3189 18.3067C13.3189 18.3067 13.238 18.4758 13.2105 18.4042C13.1839 18.3417 13.2389 18.2258 13.2389 18.2258C13.3014 18.1708 13.3289 18.0958 13.3589 18.1017ZM20.4964 18.3325C20.5764 18.3417 20.568 18.4942 20.568 18.53C20.5947 18.7892 20.703 19.05 20.8997 19.3633C21.1772 19.8017 21.6247 20.1417 21.6064 20.1692C21.5614 20.2133 21.1147 19.8642 20.953 19.6675C20.6847 19.345 20.4864 18.9958 20.4247 18.5575C20.4064 18.4592 20.4064 18.315 20.4964 18.3325ZM15.2264 18.4575C15.2439 18.4575 15.3239 18.4858 15.3239 18.4858L15.5205 18.5658C15.5289 18.5658 15.6289 18.6108 15.7097 18.655L15.9047 18.78L15.9597 18.8258C15.9597 18.8442 16.0222 18.9425 15.8964 18.9158C15.7714 18.8883 15.503 18.6825 15.3955 18.6292C15.2872 18.5758 15.1097 18.5575 15.1905 18.4858C15.1989 18.4775 15.208 18.4575 15.2264 18.4575ZM14.2764 18.9517C14.2824 18.9505 14.2886 18.9505 14.2947 18.9517C14.3489 18.9517 14.3489 18.995 14.3489 18.995V19.0225C14.3489 19.0225 14.348 19.1842 14.3572 19.3092C14.3572 19.345 14.4564 19.7475 14.4564 19.7475C14.4564 19.7475 14.4739 19.7833 14.438 19.7833C14.4114 19.7833 14.3847 19.7292 14.3847 19.7292C14.3847 19.7292 14.3122 19.6225 14.2847 19.5425C14.2589 19.4708 14.2497 19.3533 14.2497 19.3533C14.2497 19.3533 14.2314 19.2017 14.2314 19.1483C14.2405 19.0767 14.2405 19.0133 14.2497 18.9775C14.2509 18.9711 14.254 18.9652 14.2586 18.9606C14.2632 18.956 14.27 18.9529 14.2764 18.9517ZM13.0347 19.1658C13.0429 19.1637 13.0515 19.1637 13.0597 19.1658C13.113 19.175 13.0855 19.2725 13.0855 19.3175C13.0855 19.3625 13.0339 19.4425 13.0155 19.4425C12.998 19.4425 12.9614 19.3625 12.9705 19.3175C12.9789 19.2783 12.9847 19.1783 13.0347 19.1658ZM17.5697 19.91C17.6714 19.9017 17.9655 20.3242 18.393 20.785C18.8764 21.305 19.4397 21.7975 19.458 21.86C19.4939 21.9675 19.0639 21.6267 18.8314 21.4483C18.2139 20.9733 17.4622 20.0075 17.5522 19.9183C17.5569 19.9137 17.5631 19.9108 17.5697 19.91ZM26.1305 20.3458C26.1472 20.3442 26.1614 20.3658 26.1614 20.3658L26.1797 20.3917C26.1797 20.41 26.2864 20.83 26.2772 21.0983C26.2589 21.4733 26.2422 21.7425 26.0189 22.0292C25.7497 22.3783 25.2839 22.7375 25.3822 22.4508C25.4447 22.2808 25.8572 22.0658 26.018 21.5917C26.108 21.305 26.1264 21.0358 26.1264 21.0358L26.108 20.4908C26.108 20.4908 26.098 20.4467 26.098 20.3833C26.108 20.3567 26.1197 20.3475 26.1305 20.3458ZM21.5655 21.2792C21.6489 21.2883 21.6864 21.3408 21.588 21.4125C21.4714 21.4925 21.4272 21.4833 21.3547 21.5633C21.2747 21.6617 21.2489 21.9942 21.168 21.86C21.088 21.7258 21.1414 21.5375 21.2764 21.3942C21.3123 21.3537 21.3571 21.3222 21.4073 21.3021C21.4575 21.282 21.5116 21.2747 21.5655 21.2792ZM15.0664 21.645C15.1005 21.6383 15.1905 21.7067 15.1905 21.7067C15.2347 21.715 15.2797 21.7967 15.2797 21.7967C15.2797 21.7967 15.298 21.86 15.2439 21.8775C15.1905 21.9042 15.1547 21.85 15.1547 21.85C15.1547 21.85 15.038 21.6892 15.0547 21.6533C15.0558 21.6511 15.0575 21.6492 15.0595 21.6478C15.0616 21.6463 15.0639 21.6454 15.0664 21.645ZM23.6555 22.9158C23.673 22.9158 23.7097 22.9342 23.7547 23.0242C23.7997 23.1142 23.683 23.7475 23.5397 23.6575C23.4589 23.6042 23.5839 23.4442 23.5839 23.31C23.5839 23.2025 23.5655 23.1208 23.5655 23.0317C23.5655 22.9425 23.6555 22.9158 23.6555 22.9158ZM20.9997 24.02C21.0314 24.0233 21.0397 24.0683 20.9964 24.1583C20.9339 24.2925 20.9164 24.3375 20.9072 24.4633C20.8889 24.5967 20.9705 24.9717 20.8455 24.83C20.8005 24.7667 20.7555 24.4717 20.7914 24.3283C20.8305 24.1267 20.9464 24.0158 20.9997 24.02ZM20.3164 25.785C20.3464 25.7808 20.3614 25.7958 20.3614 25.7958C20.3797 25.8317 20.343 25.8683 20.3339 25.8775C20.3001 25.895 20.2639 25.9071 20.2264 25.9133C20.173 25.9217 20.2014 25.8775 20.2014 25.8775C20.2014 25.8775 20.2355 25.8225 20.2805 25.7958C20.2918 25.7902 20.3039 25.7866 20.3164 25.785ZM17.9189 25.975C17.9905 25.975 17.9905 26.0108 17.9905 26.0108C17.9905 26.0375 17.963 26.0475 17.8905 26.0383C17.8289 26.03 17.8205 26.0117 17.8297 26.0025C17.8297 25.9942 17.8472 25.975 17.9189 25.975ZM18.4622 26.0008C18.4689 26.0001 18.4757 26.0007 18.4822 26.0025C18.4822 26.0025 18.7864 26.0558 18.983 26.0642C19.1264 26.0733 19.198 26.0833 19.3414 26.0742C19.4222 26.0742 19.3772 26.0642 19.5022 26.0642C19.5472 26.0558 19.5205 26.1192 19.4847 26.1283C19.3505 26.1642 19.2964 26.145 19.1805 26.1542C19.0814 26.1625 19.0364 26.1717 18.938 26.1717C18.768 26.1717 18.7514 26.1817 18.5097 26.11C18.4647 26.0925 18.4097 26.0383 18.428 26.0208C18.4319 26.0152 18.4369 26.0104 18.4428 26.007C18.4488 26.0035 18.4554 26.0014 18.4622 26.0008ZM16.433 26.055C16.538 26.0575 16.5047 26.0925 16.5047 26.0925C16.5047 26.0925 16.5039 26.1275 16.4414 26.1717C16.378 26.2167 16.3522 26.19 16.343 26.19C16.3347 26.19 16.2714 26.1542 16.2714 26.1183C16.2805 26.0825 16.3797 26.0567 16.3797 26.0567C16.3974 26.0549 16.4152 26.0544 16.433 26.055ZM22.0672 27.2883C22.0745 27.2882 22.0817 27.2887 22.0889 27.29L22.1064 27.3258C22.1064 27.3342 22.0347 27.4342 21.9989 27.4342C21.9547 27.4242 21.9714 27.3717 21.9714 27.3717C21.9714 27.3717 21.9539 27.3175 22.0072 27.3C22.0264 27.293 22.0467 27.289 22.0672 27.2883ZM21.3989 27.5533C21.4055 27.5533 21.4139 27.5542 21.418 27.5583V27.5942C21.4264 27.6217 21.193 27.8817 21.0322 28.0342C20.8805 28.1775 20.6205 28.3742 20.6205 28.3742H20.5847V28.3283L20.5947 28.3108L20.6122 28.2842L20.6305 28.2567L20.648 28.2317L20.7022 28.1675L20.8272 28.0517L20.9522 27.935L21.1497 27.7375C21.1497 27.7375 21.2205 27.6583 21.2472 27.64C21.2739 27.6225 21.2922 27.6042 21.3189 27.5867C21.3455 27.5733 21.3772 27.555 21.3989 27.5533ZM20.1047 28.6308C20.1121 28.6298 20.1196 28.6302 20.1268 28.6323C20.1339 28.6343 20.1406 28.6378 20.1464 28.6425C20.1739 28.705 20.1297 28.7225 20.1297 28.7225L20.048 28.7858C20.0389 28.7858 19.9855 28.8308 19.968 28.8033C19.9497 28.7767 19.9764 28.7408 19.9764 28.7317C19.9764 28.7233 20.0305 28.6608 20.0755 28.6425C20.0844 28.6367 20.0943 28.6327 20.1047 28.6308ZM19.2322 29.4592C19.2689 29.455 19.2955 29.51 19.2955 29.51C19.2955 29.51 19.3139 29.5358 19.3139 29.5717C19.3139 29.5992 19.233 29.59 19.1889 29.6258C19.1347 29.6617 19.243 29.77 19.0722 29.7608C18.9747 29.7525 19.028 29.6625 19.0372 29.6533L19.0989 29.5642C19.1439 29.5008 19.1714 29.4917 19.2155 29.4642C19.2206 29.4612 19.2263 29.4595 19.2322 29.4592Z" fill="white"/>
</g>
<defs>
<clipPath id="clip0_819_3697">
<rect width="40" height="40" fill="white"/>
</clipPath>
</defs>
</svg>
