<svg width="40" height="40" viewBox="0 0 40 40" fill="none" xmlns="http://www.w3.org/2000/svg">
<g clip-path="url(#clip0_1691_166)">
<path d="M20 0C31.0457 0 40 8.9543 40 20C40 31.0457 31.0457 40 20 40C8.95431 40 7.90517e-06 31.0457 0 20C6.58765e-07 8.95431 8.95431 1.97595e-06 20 0Z" fill="#FFF3D9"/>
<path d="M26 6C30.4183 6 34 9.58172 34 14V26C34 30.4183 30.4183 34 26 34H14C9.58172 34 6 30.4183 6 26V14C6 9.58172 9.58172 6 14 6H26Z" fill="#FFB100"/>
<path d="M29.0104 20.9387C29.1376 20.9387 29.2143 21.091 29.1301 21.1886C28.0932 22.258 22.4834 28.0443 21.4317 28.8795C21.0656 29.1735 20.5929 29.3896 19.9996 29.3896C19.4067 29.3896 18.934 29.1735 18.5674 28.8795C17.5153 28.0443 11.9059 22.258 10.869 21.1886C10.7845 21.091 10.8609 20.9387 10.9865 20.9387C11.5045 20.9387 12.7067 20.9365 13.4292 20.9365C13.6837 20.9365 13.7597 20.981 13.9199 21.1529L14.8777 22.1813C15.892 23.2735 18.365 25.6875 19.2694 26.4502C19.6088 26.7353 19.993 26.7268 19.9988 26.7268C20.0094 26.727 20.3905 26.7341 20.7275 26.4502C21.6317 25.689 24.1048 23.2744 25.1192 22.1813L26.0769 21.1529C26.2372 20.9811 26.3132 20.9365 26.5677 20.9365C27.2916 20.9365 28.4924 20.9387 29.0104 20.9387Z" fill="white"/>
<path d="M20.4435 15.6771C20.4437 15.5633 20.5521 15.5137 20.6443 15.5938C21.6755 16.5489 23.9736 18.8257 24.7437 19.7081C25.1113 20.0986 25.0776 20.4963 25.0776 20.4963C25.0782 20.5041 25.1077 20.8965 24.7437 21.2845C23.9726 22.1664 21.6746 24.4437 20.6443 25.3988C20.552 25.479 20.4435 25.4283 20.4435 25.3148V22.9196C20.4444 22.7023 20.4892 22.5918 20.6785 22.4155C21.1412 21.9933 21.9555 21.203 22.2586 20.8487C22.3952 20.6942 22.3882 20.5017 22.388 20.4963C22.388 20.4963 22.3971 20.3002 22.2586 20.1438C21.9557 19.7897 21.1408 18.9994 20.6785 18.5771C20.4891 18.4007 20.4435 18.2887 20.4435 18.0722V15.6771Z" fill="white"/>
<path d="M19.3564 15.5923C19.4441 15.5117 19.5564 15.5719 19.5564 15.6681V18.0707C19.5564 18.2871 19.5113 18.3985 19.3221 18.5748C18.8598 18.9971 18.0442 19.7882 17.7413 20.1423C17.6067 20.295 17.6123 20.4852 17.6126 20.494C17.6126 20.494 17.6034 20.6898 17.7413 20.8465C18.0446 21.2006 18.8598 21.991 19.3221 22.4133C19.5113 22.5886 19.5571 22.7001 19.5571 22.9182V25.314C19.5571 25.4276 19.4481 25.4775 19.3564 25.3973C18.3255 24.4426 16.0284 22.1657 15.2569 21.2837C14.9812 20.9896 14.9309 20.693 14.9231 20.5632V20.4271C14.9306 20.2969 14.9805 19.9994 15.2569 19.7066C16.0277 18.824 18.3252 16.5477 19.3564 15.5923Z" fill="white"/>
<path d="M20.0003 11.6104C20.5932 11.6104 21.0654 11.8268 21.4325 12.1212C22.4843 12.9562 28.0939 18.7424 29.1309 19.8114C29.2154 19.9085 29.14 20.0621 29.0126 20.0613C28.4942 20.0613 27.2929 20.0635 26.5699 20.0635C26.3151 20.0635 26.2395 20.0188 26.0792 19.8464L25.1214 18.8187C24.1072 17.7261 21.6342 15.3121 20.7298 14.5498C20.3903 14.2642 20.0056 14.2732 20.0003 14.2732C19.9906 14.2731 19.609 14.266 19.2716 14.5498C18.3678 15.311 15.8938 17.7251 14.8799 18.8187L13.9222 19.8464C13.7619 20.0187 13.6859 20.0635 13.4314 20.0635C12.708 20.0635 11.506 20.0613 10.988 20.0613C10.8609 20.061 10.7849 19.9085 10.869 19.8114C11.9064 18.742 17.5167 12.9555 18.5681 12.1205C18.9343 11.826 19.407 11.6104 20.0003 11.6104Z" fill="white"/>
</g>
<defs>
<clipPath id="clip0_1691_166">
<rect width="40" height="40" fill="white"/>
</clipPath>
</defs>
</svg>
