<svg width="40" height="40" viewBox="0 0 40 40" fill="none" xmlns="http://www.w3.org/2000/svg">
<g clip-path="url(#clip0_1782_799)">
<path d="M20 0C31.0457 0 40 8.9543 40 20C40 31.0457 31.0457 40 20 40C8.95431 40 7.90517e-06 31.0457 0 20C6.58765e-07 8.95431 8.95431 1.97595e-06 20 0Z" fill="#D9D9D9"/>
<path d="M26 6C30.4183 6 34 9.58172 34 14V26C34 30.4183 30.4183 34 26 34H14C9.58172 34 6 30.4183 6 26V14C6 9.58172 9.58172 6 14 6H26Z" fill="black"/>
<g clip-path="url(#clip1_1782_799)">
<path fill-rule="evenodd" clip-rule="evenodd" d="M20.3856 15.964C20.5913 15.9897 20.7969 16.0154 20.9769 16.0668L22.0308 10.0771C21.8252 10.0514 21.6195 10 21.4396 9.9743L20.3856 15.964ZM17.2494 17.018L12.6478 13.1106C12.4422 13.3419 12.2365 13.599 12.0308 13.8303L16.6067 17.7121C16.7866 17.4807 17.018 17.2237 17.2494 17.018ZM25.2442 11.3882C25.09 11.2854 24.91 11.1825 24.7558 11.1054L21.7481 16.3496C21.928 16.4267 22.0823 16.5296 22.2365 16.6324L25.2442 11.3882ZM27.5064 13.3419L22.9306 17.2237C23.0334 17.3522 23.1362 17.4807 23.2391 17.6093L27.8149 13.7275C27.7121 13.599 27.6093 13.4704 27.5064 13.3419ZM16.0411 19.1003C16.1183 18.7404 16.2468 18.4062 16.4267 18.072L10.7969 15.9897C10.6684 16.3239 10.5398 16.6581 10.437 17.018L16.0411 19.1003ZM24.036 20C24.036 22.2365 22.2365 24.0617 20 24.0617C17.9949 24.0617 16.3496 22.5964 16.0154 20.6941L10.4113 22.7507C10.5398 23.1877 10.6941 23.6247 10.874 24.036L16.4524 21.9794L11.8766 25.8612C12.1594 26.2725 12.4936 26.6581 12.8278 27.018L17.0951 23.3933L14.3188 28.2776C14.7558 28.5861 15.2185 28.8689 15.7069 29.1003L18.3033 24.4987L17.4036 29.7172C17.9692 29.8715 18.5347 29.9743 19.126 30.0257L19.9743 25.1414L20.8226 30.0257C21.4396 29.9743 22.0566 29.8715 22.6221 29.7172L21.8252 25.1928L24.1131 29.1774C24.7301 28.8946 25.3213 28.5347 25.8612 28.1491L23.7789 24.4987L26.9666 27.198C27.4807 26.6838 27.9434 26.144 28.329 25.527L25.4756 23.1105L28.9717 24.3959C29.3059 23.7275 29.5373 23.0077 29.7172 22.2622L26.6581 21.1311H29.9229C29.9743 20.7455 30 20.3599 30 19.9743C30 19.5373 29.9743 19.0746 29.9229 18.6632H23.8046C23.9332 19.0746 24.036 19.5373 24.036 20ZM15.9383 20C15.9383 19.7686 15.964 19.563 15.9897 19.3316H10.0257C10 19.563 10 19.7686 10 19.9743C10 20.18 10 20.3599 10.0257 20.5656H15.9897C15.9383 20.3856 15.9383 20.2057 15.9383 20ZM17.635 16.6838C17.8406 16.5296 18.0977 16.401 18.329 16.2725L15.347 11.0283C15.1157 11.1568 14.8843 11.2854 14.653 11.4396L17.635 16.6838ZM17.9177 10.1028C18.1234 10.0514 18.3548 10.0257 18.5861 9.9743L19.6401 15.964C19.4087 15.9897 19.2031 16.0154 18.9717 16.0926L17.9177 10.1028Z" fill="white"/>
</g>
</g>
<defs>
<clipPath id="clip0_1782_799">
<rect width="40" height="40" fill="white"/>
</clipPath>
<clipPath id="clip1_1782_799">
<rect width="20" height="20" fill="white" transform="translate(10 10)"/>
</clipPath>
</defs>
</svg>
