<svg width="40" height="40" viewBox="0 0 40 40" fill="none" xmlns="http://www.w3.org/2000/svg">
<g clip-path="url(#clip0_819_3643)">
<path d="M20 0C31.0457 0 40 8.9543 40 20C40 31.0457 31.0457 40 20 40C8.95431 40 7.90517e-06 31.0457 0 20C6.58765e-07 8.95431 8.95431 1.97595e-06 20 0Z" fill="#CFEEFF"/>
<path d="M26 6C30.4183 6 34 9.58172 34 14V26C34 30.4183 30.4183 34 26 34H14C9.58172 34 6 30.4183 6 26V14C6 9.58172 9.58172 6 14 6H26Z" fill="#0FAAFF"/>
<g clip-path="url(#clip1_819_3643)">
<path d="M9.99994 15.0533V24.9467H20.1083L29.9999 15.0533H9.99994ZM12.7199 16.8933H12.7241C13.4433 16.8942 14.3199 17.0975 14.9541 17.4208L14.2708 18.6125C13.5749 18.2758 13.2249 18.2442 12.8291 18.2233C12.2391 18.1917 11.9424 18.4025 11.9383 18.63C11.9324 18.9067 12.4958 19.1575 13.0258 19.3283C13.8291 19.5833 14.8508 19.9242 15.0066 20.9117L16.4749 17.0308H18.1799L19.8999 21.6775L19.8941 17.0317H21.8691C23.7499 17.0317 24.6341 17.6683 24.6341 19.1308C24.6341 20.4433 23.7258 21.2258 22.1874 21.2258H21.5516L21.5433 22.9708L18.5533 22.9683L18.3449 22.2117C18.0366 22.3133 17.6891 22.3692 17.3199 22.3692C16.9399 22.3692 16.5824 22.31 16.2674 22.2025L15.9691 22.9683L14.3024 22.9733L14.3774 22.5883C14.3533 22.6092 14.3299 22.63 14.3049 22.65C13.8591 23.0083 13.2983 23.1742 12.6074 23.1867L12.4299 23.1883C11.6757 23.196 10.9331 23.0018 10.2791 22.6258L10.8874 21.4192C11.5458 21.8083 11.9591 21.8958 12.5174 21.8842C12.8066 21.8783 13.0158 21.8258 13.1516 21.685C13.2316 21.6022 13.2779 21.4926 13.2816 21.3775C13.2874 21.0642 12.8399 20.9167 12.2941 20.7475C11.8516 20.6108 11.3483 20.4233 10.9558 20.135C10.4899 19.7933 10.2683 19.365 10.2791 18.76C10.2819 18.3309 10.451 17.9196 10.7508 17.6125C11.1833 17.165 11.8816 16.8933 12.7199 16.8933ZM21.5508 18.285V19.8717H21.9849C22.5633 19.8717 23.0241 19.68 23.0249 19.0683C23.0249 18.4775 22.5633 18.285 21.9849 18.285H21.5508ZM17.3116 18.9242L16.6883 20.8925C16.8741 20.9633 17.0891 21.0033 17.3191 21.0033C17.5424 21.0033 17.7524 20.9642 17.9374 20.8983L17.3241 18.9233L17.3116 18.9242Z" fill="white"/>
</g>
</g>
<defs>
<clipPath id="clip0_819_3643">
<rect width="40" height="40" fill="white"/>
</clipPath>
<clipPath id="clip1_819_3643">
<rect width="20" height="20" fill="white" transform="translate(10 10)"/>
</clipPath>
</defs>
</svg>
