<svg width="40" height="40" viewBox="0 0 40 40" fill="none" xmlns="http://www.w3.org/2000/svg">
<g clip-path="url(#clip0_1691_67)">
<path d="M20 0C31.0457 0 40 8.9543 40 20C40 31.0457 31.0457 40 20 40C8.95431 40 7.90517e-06 31.0457 0 20C6.58765e-07 8.95431 8.95431 1.97595e-06 20 0Z" fill="#F2F2C6"/>
<path d="M26 6C30.4183 6 34 9.58172 34 14V26C34 30.4183 30.4183 34 26 34H14C9.58172 34 6 30.4183 6 26V14C6 9.58172 9.58172 6 14 6H26Z" fill="#FFFC00"/>
<g clip-path="url(#clip1_1691_67)">
<path d="M29.3852 24.7718C29.3031 24.5003 28.9105 24.3089 28.9105 24.3089C28.8734 24.2893 28.8402 24.2718 28.8129 24.2581C28.1585 23.9417 27.5784 23.5608 27.0901 23.1291C26.6975 22.7814 26.3616 22.3986 26.092 21.9923C25.7619 21.4962 25.6076 21.0821 25.5412 20.8575C25.5041 20.711 25.5099 20.6524 25.5412 20.5762C25.5666 20.5118 25.6428 20.4512 25.6779 20.4219C25.8986 20.2657 26.2541 20.0352 26.4729 19.8945C26.6624 19.7715 26.8245 19.666 26.9202 19.5996C27.2268 19.3848 27.4378 19.166 27.5608 18.9296C27.721 18.6249 27.7405 18.289 27.6155 17.9589C27.4476 17.5135 27.0315 17.2479 26.5022 17.2479C26.385 17.2479 26.2639 17.2616 26.1428 17.287C25.84 17.3534 25.5529 17.4608 25.3127 17.5546C25.2951 17.5624 25.2756 17.5487 25.2775 17.5292C25.3029 16.9334 25.3322 16.1326 25.2658 15.3728C25.2072 14.6853 25.0646 14.1051 24.8341 13.5993C24.6017 13.0914 24.2989 12.7164 24.0626 12.4449C23.838 12.1871 23.4415 11.8062 22.8438 11.4644C22.0039 10.9839 21.0468 10.7397 19.9999 10.7397C18.9549 10.7397 17.9997 10.9839 17.1579 11.4644C16.525 11.8257 16.1207 12.2339 15.9371 12.4449C15.7008 12.7164 15.398 13.0914 15.1656 13.5993C14.9332 14.1051 14.7925 14.6833 14.7339 15.3728C14.6675 16.1365 14.6949 16.8729 14.7222 17.5292C14.7222 17.5487 14.7046 17.5624 14.6851 17.5546C14.4448 17.4608 14.1577 17.3534 13.855 17.287C13.7358 17.2616 13.6147 17.2479 13.4956 17.2479C12.9682 17.2479 12.5522 17.5135 12.3822 17.9589C12.2572 18.289 12.2767 18.6249 12.4369 18.9296C12.5619 19.166 12.7709 19.3848 13.0776 19.5996C13.1713 19.666 13.3354 19.7715 13.5249 19.8945C13.7378 20.0332 14.0835 20.2579 14.3062 20.4122C14.3335 20.4317 14.4273 20.502 14.4566 20.5762C14.4878 20.6544 14.4937 20.713 14.4527 20.8692C14.3843 21.0958 14.23 21.506 13.9058 21.9923C13.6362 22.4006 13.3002 22.7814 12.9076 23.1291C12.4193 23.5608 11.8392 23.9417 11.1849 24.2581C11.1536 24.2737 11.1165 24.2913 11.0775 24.3147C11.0775 24.3147 10.6868 24.514 10.6126 24.7718C10.5032 25.1527 10.7942 25.5101 11.0892 25.7015C11.5736 26.014 12.1635 26.182 12.5053 26.2738C12.601 26.2992 12.6869 26.3227 12.7651 26.3461C12.8139 26.3617 12.9369 26.4086 12.9897 26.477C13.0561 26.5629 13.0639 26.6684 13.0873 26.7875C13.1245 26.9887 13.2084 27.2368 13.4565 27.4087C13.73 27.5962 14.0757 27.6098 14.5152 27.6274C14.9742 27.645 15.5445 27.6665 16.1989 27.8833C16.5016 27.9829 16.777 28.1528 17.0934 28.3482C17.7575 28.7564 18.5838 29.2642 19.994 29.2642C21.4062 29.2642 22.2383 28.7544 22.9063 28.3443C23.2227 28.1509 23.4942 27.9829 23.7911 27.8853C24.4454 27.6684 25.0158 27.647 25.4748 27.6294C25.9143 27.6118 26.26 27.6001 26.5334 27.4106C26.7991 27.227 26.8753 26.9536 26.9104 26.7485C26.93 26.6469 26.9417 26.5551 27.0003 26.4809C27.0511 26.4164 27.1643 26.3715 27.2171 26.3539C27.2972 26.3285 27.387 26.3051 27.4866 26.2777C27.8284 26.1859 28.2582 26.0785 28.7797 25.7836C29.4086 25.4261 29.4516 24.9886 29.3852 24.7718Z" fill="white"/>
<path d="M29.9282 24.5608C29.7895 24.1819 29.5239 23.9807 29.2231 23.8127C29.1664 23.7795 29.1137 23.7522 29.0707 23.7327C28.9809 23.6858 28.889 23.6409 28.7972 23.594C27.8577 23.0959 27.1233 22.467 26.6155 21.7228C26.4436 21.4708 26.3244 21.2442 26.2405 21.0587C26.1975 20.9337 26.1994 20.8634 26.2307 20.7989C26.2541 20.7501 26.3166 20.6993 26.3518 20.6739C26.5139 20.5665 26.6799 20.459 26.7932 20.3868C26.9944 20.2559 27.1546 20.1524 27.2561 20.0821C27.6429 19.8125 27.9124 19.5254 28.0804 19.2051C28.3187 18.7539 28.348 18.2382 28.1644 17.7538C27.9105 17.0819 27.2737 16.6639 26.5041 16.6639C26.344 16.6639 26.1819 16.6815 26.0217 16.7166C25.9787 16.7264 25.9377 16.7362 25.8967 16.7459C25.9045 16.2889 25.8928 15.8006 25.8518 15.324C25.7072 13.6442 25.1193 12.7633 24.506 12.0621C24.2501 11.7691 23.8048 11.3413 23.1368 10.9585C22.2051 10.4233 21.1503 10.1537 19.9999 10.1537C18.8533 10.1537 17.7986 10.4233 16.8669 10.9565C16.1949 11.3394 15.7496 11.7691 15.4957 12.0601C14.8824 12.7613 14.2944 13.6422 14.1499 15.322C14.1089 15.7986 14.0991 16.2869 14.105 16.744C14.064 16.7342 14.021 16.7244 13.98 16.7147C13.8198 16.6795 13.6557 16.6619 13.4975 16.6619C12.7279 16.6619 12.0912 17.0799 11.8373 17.7518C11.6537 18.2363 11.683 18.7519 11.9213 19.2031C12.0892 19.5234 12.3607 19.8106 12.7455 20.0801C12.849 20.1524 13.0073 20.2559 13.2084 20.3848C13.3178 20.4551 13.476 20.5587 13.6323 20.6622C13.6557 20.6778 13.7397 20.7403 13.769 20.7989C13.8022 20.8653 13.8022 20.9376 13.7534 21.0704C13.6714 21.2521 13.5522 21.4747 13.3842 21.7208C12.8862 22.4494 12.1732 23.0666 11.265 23.5588C10.7825 23.8147 10.2825 23.9846 10.0715 24.5589C9.91138 24.9925 10.0169 25.4867 10.4212 25.9027C10.554 26.0453 10.722 26.1723 10.9329 26.2895C11.429 26.5629 11.8509 26.6977 12.183 26.7895C12.2416 26.8071 12.3764 26.85 12.435 26.9028C12.5834 27.0317 12.5619 27.227 12.7592 27.5122C12.8783 27.6899 13.0151 27.811 13.1284 27.8892C13.5405 28.1743 14.0054 28.1919 14.4976 28.2114C14.941 28.229 15.4449 28.2486 16.0192 28.438C16.2575 28.5161 16.5055 28.6685 16.7907 28.8443C17.4782 29.2681 18.4216 29.8463 19.9979 29.8463C21.5761 29.8463 22.5234 29.2642 23.2168 28.8404C23.502 28.6665 23.7481 28.5142 23.9786 28.438C24.5529 28.2486 25.0568 28.229 25.5002 28.2114C25.9924 28.1919 26.4553 28.1743 26.8694 27.8892C26.9983 27.7993 27.1624 27.6528 27.2913 27.4301C27.4319 27.1899 27.43 27.02 27.5628 26.9047C27.6175 26.8579 27.7366 26.8168 27.8011 26.7973C28.1351 26.7055 28.5629 26.5707 29.0687 26.2914C29.2934 26.1684 29.4672 26.0336 29.6059 25.8793C29.6078 25.8773 29.6098 25.8754 29.6117 25.8734C29.9887 25.4632 30.0844 24.9847 29.9282 24.5608ZM28.5277 25.3128C27.6722 25.7855 27.1038 25.7347 26.6624 26.018C26.2873 26.2602 26.5081 26.7817 26.2365 26.9692C25.9006 27.2016 24.9103 26.9536 23.6309 27.3755C22.5762 27.7251 21.9023 28.7271 20.0018 28.7271C18.0974 28.7271 17.4431 27.729 16.3727 27.3755C15.0933 26.9536 14.1011 27.2016 13.7671 26.9692C13.4956 26.7817 13.7163 26.2602 13.3413 26.018C12.8998 25.7328 12.3314 25.7836 11.4759 25.3128C10.931 25.012 11.2396 24.8265 11.4212 24.7386C14.5191 23.2405 15.0113 20.9239 15.0347 20.7501C15.0621 20.543 15.0914 20.379 14.8628 20.1661C14.6421 19.961 13.6596 19.3535 13.3881 19.164C12.9369 18.8496 12.7397 18.5351 12.8862 18.1484C12.9877 17.8808 13.2377 17.7811 13.5014 17.7811C13.5835 17.7811 13.6675 17.7909 13.7475 17.8085C14.2417 17.9159 14.7222 18.164 14.9996 18.2304C15.0386 18.2402 15.0718 18.2441 15.1011 18.2441C15.2496 18.2441 15.3004 18.1698 15.2906 17.9999C15.2593 17.4589 15.1812 16.4041 15.2672 15.4177C15.3844 14.0622 15.8219 13.3903 16.3414 12.7945C16.5915 12.5094 17.7634 11.271 20.0038 11.271C22.25 11.271 23.4161 12.5094 23.6661 12.7945C24.1856 13.3883 24.6232 14.0602 24.7404 15.4177C24.8263 16.4041 24.7521 17.4589 24.7169 17.9999C24.7052 18.1777 24.7599 18.2441 24.9064 18.2441C24.9357 18.2441 24.9709 18.2402 25.008 18.2304C25.2853 18.164 25.7658 17.9159 26.26 17.8085C26.3401 17.7909 26.4241 17.7811 26.5061 17.7811C26.7698 17.7811 27.0198 17.8827 27.1214 18.1484C27.2679 18.5351 27.0686 18.8496 26.6194 19.164C26.3479 19.3535 25.3654 19.961 25.1447 20.1661C24.9162 20.377 24.9455 20.5411 24.9728 20.7501C24.9943 20.9239 25.4885 23.2405 28.5863 24.7386C28.7621 24.8265 29.0727 25.012 28.5277 25.3128Z" fill="black"/>
</g>
</g>
<defs>
<clipPath id="clip0_1691_67">
<rect width="40" height="40" fill="white"/>
</clipPath>
<clipPath id="clip1_1691_67">
<rect width="20" height="20" fill="white" transform="translate(10 10)"/>
</clipPath>
</defs>
</svg>
