<svg width="40" height="40" viewBox="0 0 40 40" fill="none" xmlns="http://www.w3.org/2000/svg">
<g clip-path="url(#clip0_1696_1728)">
<path d="M20 0C31.0457 0 40 8.9543 40 20C40 31.0457 31.0457 40 20 40C8.95431 40 7.90517e-06 31.0457 0 20C6.58765e-07 8.95431 8.95431 1.97595e-06 20 0Z" fill="#DFDAE5"/>
<path d="M26 6C30.4183 6 34 9.58172 34 14V26C34 30.4183 30.4183 34 26 34H14C9.58172 34 6 30.4183 6 26V14C6 9.58172 9.58172 6 14 6H26Z" fill="#280654"/>
<path d="M14.2138 15.0268C15.7907 15.0268 17.1369 15.518 18.233 16.4015L16.5139 17.878C15.7263 17.4033 14.9431 17.1247 14.1854 17.1247C13.2719 17.1247 12.7913 17.5455 12.7913 18.0666V18.0966C12.7913 18.8079 13.26 19.0385 15.1273 19.5192C17.3211 20.0942 18.5594 20.8818 18.5594 22.7671V22.7971C18.5594 24.9429 16.9182 26.1454 14.5882 26.1454C12.9455 26.1454 11.2983 25.5764 10 24.4203L11.6891 22.9633C12.5786 23.6327 13.5145 24.0475 14.6346 24.0475C15.608 24.0475 16.195 23.6626 16.195 23.0277V22.9977C16.195 22.3943 15.8206 22.0858 14.0132 21.6231C11.8374 21.066 10.4328 20.461 10.4328 18.3152V18.2868C10.4328 16.3251 12.0036 15.0268 14.2138 15.0268Z" fill="white"/>
<path d="M23.1956 19.5192H27.6999V14.8546H30V26.093H27.6999V21.6351H23.1956V26.093H20.8895V14.8546H23.1956V19.5192Z" fill="white"/>
</g>
<defs>
<clipPath id="clip0_1696_1728">
<rect width="40" height="40" fill="white"/>
</clipPath>
</defs>
</svg>
