<svg width="40" height="40" viewBox="0 0 40 40" fill="none" xmlns="http://www.w3.org/2000/svg">
<g clip-path="url(#clip0_1691_124)">
<path d="M20 0C31.0457 0 40 8.9543 40 20C40 31.0457 31.0457 40 20 40C8.95431 40 7.90517e-06 31.0457 0 20C6.58765e-07 8.95431 8.95431 1.97595e-06 20 0Z" fill="#D9F1F7"/>
<path d="M26 6C30.4183 6 34 9.58172 34 14V26C34 30.4183 30.4183 34 26 34H14C9.58172 34 6 30.4183 6 26V14C6 9.58172 9.58172 6 14 6H26Z" fill="#00A2C7"/>
<g clip-path="url(#clip1_1691_124)">
<path fill-rule="evenodd" clip-rule="evenodd" d="M13.767 23.3439C15.3486 23.3439 16.6804 24.6758 16.6805 26.2574C16.6805 27.8389 15.3486 29.1708 13.767 29.1708C12.1854 29.1708 10.8536 27.8389 10.8536 26.2574C10.8536 24.6758 12.1854 23.3439 13.767 23.3439ZM13.767 24.1763C12.6016 24.1763 11.6027 25.092 11.686 26.2574C11.686 27.4227 12.6016 28.3384 13.767 28.3384C14.9324 28.3384 15.848 27.4227 15.848 26.2574C15.848 25.6747 15.6814 25.1754 15.2652 24.7592C14.849 24.4262 14.3497 24.1763 13.767 24.1763Z" fill="white"/>
<path d="M24.8526 23.691C26.2661 22.9224 28.0354 23.4448 28.8041 24.8583C29.5728 26.2719 29.0495 28.0412 27.636 28.8099C26.2225 29.5784 24.4532 29.056 23.6844 27.6425C22.9157 26.229 23.439 24.4597 24.8526 23.691Z" fill="white"/>
<path d="M17.3243 25.0673C17.9759 23.5962 19.6965 22.9315 21.1677 23.5829C22.6388 24.2345 23.3034 25.9552 22.6521 27.4263C22.0004 28.8975 20.279 29.5623 18.8078 28.9107C17.3369 28.259 16.6729 26.5383 17.3243 25.0673Z" fill="white"/>
<path fill-rule="evenodd" clip-rule="evenodd" d="M20.0101 17.1008C21.5917 17.1008 22.9236 18.4327 22.9236 20.0142C22.9236 21.5958 21.5917 22.9277 20.0101 22.9277C18.4285 22.9277 17.0967 21.5958 17.0967 20.0142C17.0967 18.4327 18.4285 17.1008 20.0101 17.1008ZM20.0101 17.9332C18.8447 17.9332 17.8458 18.8489 17.9291 20.0142C17.9291 20.5969 18.0957 21.0962 18.5119 21.5124C18.9281 21.8454 19.4274 22.0953 20.0101 22.0953C21.1755 22.0953 22.0911 21.1796 22.0911 20.0142C22.0911 19.4316 21.9245 18.9323 21.5083 18.5161C21.0921 18.1831 20.5928 17.9332 20.0101 17.9332Z" fill="white"/>
<path d="M24.8566 17.4479C26.2702 16.6792 28.0395 17.2017 28.8082 18.6152C29.5767 20.0288 29.0535 21.7981 27.64 22.5668C26.2265 23.3352 24.458 22.8121 23.6893 21.3986C22.9207 19.9851 23.4432 18.2166 24.8566 17.4479Z" fill="white"/>
<path d="M11.0836 18.8111C11.7352 17.34 13.4566 16.676 14.9278 17.3276C16.3988 17.9794 17.063 19.6999 16.4114 21.171C15.7598 22.6421 14.0391 23.3067 12.568 22.6554C11.0968 22.0037 10.432 20.2823 11.0836 18.8111Z" fill="white"/>
<path fill-rule="evenodd" clip-rule="evenodd" d="M26.2532 10.8577C27.8348 10.8577 29.1667 12.1896 29.1667 13.7711C29.1667 15.3527 27.8348 16.6846 26.2532 16.6846C24.6716 16.6846 23.3398 15.3527 23.3398 13.7711C23.3398 12.1896 24.6716 10.8577 26.2532 10.8577ZM26.2532 11.6072C25.0878 11.6072 24.1722 12.5228 24.1722 13.6882C24.1723 14.8534 25.0879 15.7692 26.2532 15.7693C27.4185 15.7693 28.3341 14.8535 28.3343 13.6882C28.3343 12.5228 27.4186 11.6072 26.2532 11.6072Z" fill="white"/>
<path d="M17.3397 12.5705C17.9915 11.0995 19.7121 10.4353 21.1831 11.0869C22.6542 11.7385 23.3189 13.4592 22.6675 14.9303C22.0159 16.4015 20.2945 17.0663 18.8233 16.4147C17.3521 15.7631 16.6881 14.0417 17.3397 12.5705Z" fill="white"/>
<path d="M11.0917 12.5632C11.7434 11.0921 13.464 10.428 14.9351 11.0796C16.4062 11.7313 17.0703 13.4519 16.4187 14.923C15.767 16.3941 14.0464 17.0582 12.5753 16.4066C11.1042 15.7549 10.4401 14.0343 11.0917 12.5632Z" fill="white"/>
</g>
</g>
<defs>
<clipPath id="clip0_1691_124">
<rect width="40" height="40" fill="white"/>
</clipPath>
<clipPath id="clip1_1691_124">
<rect width="20" height="20" fill="white" transform="translate(10 10)"/>
</clipPath>
</defs>
</svg>
