<svg width="40" height="40" viewBox="0 0 40 40" fill="none" xmlns="http://www.w3.org/2000/svg">
<g clip-path="url(#clip0_1812_917)">
<path d="M20 0C31.0457 0 40 8.9543 40 20C40 31.0457 31.0457 40 20 40C8.95431 40 7.90517e-06 31.0457 0 20C6.58765e-07 8.95431 8.95431 1.97595e-06 20 0Z" fill="#CCECF9"/>
<path d="M26 6C30.4183 6 34 9.58172 34 14V26C34 30.4183 30.4183 34 26 34H14C9.58172 34 6 30.4183 6 26V14C6 9.58172 9.58172 6 14 6H26Z" fill="#00A0DF"/>
<g clip-path="url(#clip1_1812_917)">
<path d="M11.2191 21.6584C11.3789 21.6584 11.549 21.6784 11.6789 21.7284L11.779 21.7585L11.8994 21.7983V21.8081C11.9194 22.0179 11.9587 22.2378 11.9987 22.4876V22.4974L11.8188 22.5275V22.5177C11.7189 22.1979 11.5589 21.8781 11.1491 21.8781C10.7995 21.8783 10.6396 22.1383 10.6396 22.3981C10.6398 22.6578 10.8101 22.8479 11.2297 23.0378L11.359 23.0972C11.6789 23.2471 12.1191 23.5073 12.1191 24.077C12.1191 24.6866 11.6491 25.1064 10.9595 25.1064C10.7796 25.1064 10.5999 25.0661 10.45 25.0161L10.2295 24.9364L10.1497 24.9062C10.1098 24.7761 10.0499 24.4363 10 24.1266V24.1169L10.1701 24.0566V24.0672C10.2901 24.3771 10.57 24.8867 11.0596 24.8867C11.3693 24.8867 11.5795 24.6467 11.5796 24.3171C11.5796 24.0273 11.4294 23.8371 11.0498 23.6473L10.8895 23.5675C10.5197 23.3677 10.1303 23.1075 10.1302 22.6178C10.1302 22.0482 10.5796 21.6485 11.2191 21.6584ZM14.4474 21.6584C14.8072 21.6584 15.0978 21.7282 15.2677 21.7682L15.3573 21.7878H15.367L15.437 22.3778L15.4574 22.6073L15.297 22.6276V22.6178C15.1571 22.0981 14.8776 21.8781 14.3579 21.8781C13.4784 21.8781 13.1682 22.6475 13.1681 23.3071C13.1681 24.2467 13.6483 24.8867 14.3579 24.8867C14.9075 24.8867 15.1577 24.5968 15.4175 24.0672V24.0566L15.577 24.0868V24.0965C15.527 24.3163 15.4073 24.7461 15.3174 24.9461C15.1375 24.9961 14.6975 25.0967 14.3677 25.0967C13.0786 25.0966 12.4985 24.257 12.4984 23.4276C12.4984 22.3782 13.3082 21.6485 14.4474 21.6584ZM24.423 21.7178V21.8879H24.4124C24.1029 21.9178 24.0631 21.9385 23.8932 22.3981C23.8885 22.4218 23.5104 23.5172 23.0436 25.0666V25.0763H22.8035V25.0666C22.8035 25.0666 21.9859 22.8227 21.9442 22.7179C21.9395 22.7614 21.1705 25.0585 21.1646 25.0763H20.9245L20.0952 22.3778C19.9553 21.948 19.8751 21.9178 19.6053 21.8879H19.5955V21.7284H20.9741V21.8879L20.8146 21.8976C20.7248 21.9076 20.6745 21.9277 20.6445 21.9676C20.6346 21.9776 20.6251 22.0077 20.625 22.0376C20.625 22.0775 20.6344 22.1378 20.6543 22.2077C20.6543 22.2077 21.2132 24.053 21.2443 24.1665C21.2577 24.116 22.001 21.779 22.0044 21.7682H22.2038V21.778C22.2038 21.778 23.042 24.0624 23.0835 24.1665C23.3034 23.4269 23.5829 22.3374 23.5929 22.2874C23.6229 22.1876 23.6328 22.1079 23.6328 22.0579C23.6328 22.008 23.6333 21.9778 23.6133 21.9578C23.5833 21.9179 23.5333 21.8979 23.4334 21.8879L23.2536 21.8781V21.7178H24.423ZM17.2363 21.7178V21.8781H17.2266C16.8668 21.9081 16.8164 21.938 16.8164 22.4876V23.1574H18.3455V22.4876C18.3455 21.9282 18.2959 21.9081 17.9264 21.8781H17.9159V21.7178H19.3555L19.3457 21.8781H19.3351C18.9355 21.9081 18.9054 21.9481 18.9054 22.4876V24.2568C18.9054 24.8164 18.9555 24.8364 19.3351 24.8664H19.3457V25.0267H17.8662V24.8664H17.876C18.3058 24.8364 18.3358 24.7965 18.3358 24.2568V23.4072H16.8164V24.2568C16.8164 24.8064 16.8666 24.8364 17.2461 24.8664H17.2567V25.0267H15.7967V24.8664H15.8073C16.2169 24.8364 16.2467 24.7865 16.2467 24.2568V22.4876C16.2467 21.948 16.2167 21.9081 15.7869 21.8781H15.7772V21.7178H17.2363ZM25.9318 22.6073L26.5617 24.3569C26.7316 24.8166 26.8116 24.8364 27.0915 24.8664H27.1012V25.0267H25.752V24.8664L25.9017 24.8468C25.9916 24.8369 26.042 24.8166 26.062 24.7866C26.0719 24.7767 26.0718 24.7568 26.0718 24.737C26.0718 24.697 26.0617 24.6564 26.0417 24.5864C25.9916 24.4364 25.8722 24.1367 25.7723 23.867H24.8429C24.783 23.997 24.7127 24.227 24.6427 24.4269L24.6126 24.5067C24.5826 24.5966 24.5728 24.6569 24.5728 24.7069C24.5728 24.7367 24.5831 24.7569 24.5931 24.7769C24.6231 24.8166 24.6731 24.8369 24.7827 24.8468L24.9325 24.8664V25.0267H23.7931V24.8664H23.8029C24.1127 24.8264 24.1626 24.8064 24.3424 24.3569L25.3719 21.708L25.5819 21.6885H25.5924L25.9318 22.6073ZM28.7402 21.7178C29.1198 21.7178 29.33 21.7581 29.5199 21.8879C29.7098 22.0178 29.8104 22.2082 29.8104 22.4681C29.8101 22.9276 29.3603 23.1473 29.1105 23.1973C29.6702 23.2772 30 23.5871 30 24.0469C30 24.3767 29.85 24.6268 29.5402 24.8167C29.3204 24.9466 28.9706 25.0161 28.571 25.0161H27.3014V24.8566H27.3112C27.691 24.8266 27.7409 24.7966 27.7409 24.2471V22.4779C27.7409 21.9281 27.7011 21.8983 27.3413 21.8683H27.3315V21.708H28.7402V21.7178ZM28.3105 24.2471C28.3106 24.4968 28.3307 24.657 28.4106 24.737C28.4606 24.7869 28.5408 24.8061 28.6906 24.8062C29.0104 24.8062 29.3603 24.6267 29.3604 24.1071C29.3604 23.6273 29.0404 23.3576 28.4806 23.3576H28.3105V24.2471ZM24.8926 23.6074H25.6722C25.6622 23.5875 25.2933 22.5305 25.2824 22.5177C25.2813 22.5308 24.9026 23.5875 24.8926 23.6074ZM28.571 21.9277C28.411 21.9277 28.3507 21.9481 28.3407 21.9481C28.3009 21.9682 28.3008 22.0581 28.3008 22.1678V23.1574H28.501C28.9506 23.1573 29.2 22.937 29.2 22.5373C29.1998 21.9782 28.7211 21.9278 28.571 21.9277ZM13.9779 14.9014H15.0277C15.1076 14.9014 15.1774 14.9118 15.1774 14.9917C15.1768 15.0534 14.9671 15.7632 14.458 17.0807C14.2981 17.4704 14.1878 17.7303 14.1178 17.9002C14.0481 18.0597 14.008 18.1396 14.0177 18.1598H14.0283C14.0393 18.1582 14.0984 18.0787 14.1577 17.9897C14.4176 17.6199 14.9576 16.8504 15.6372 16.8504C15.977 16.8504 16.167 17.0805 16.167 17.4803C16.1669 17.99 15.817 18.8293 15.6071 19.339C15.5172 19.5389 15.4674 19.6791 15.4574 19.7191C15.4574 19.7691 15.4571 19.7994 15.4671 19.8094C15.4771 19.8193 15.4877 19.8192 15.5176 19.8192C15.608 19.8085 15.9269 19.5086 16.1165 19.3089C16.1168 19.2993 16.127 19.2992 16.1369 19.2992C16.1466 19.2992 16.1566 19.3083 16.1572 19.3089L16.2671 19.4489L16.2769 19.4692L16.2671 19.4896L16.2166 19.549C15.8768 19.9488 15.4569 20.4491 14.9072 20.4491C14.7475 20.4489 14.6574 20.3483 14.6574 20.1585C14.6576 19.9485 14.848 19.5186 15.0578 19.0591C15.2976 18.5395 15.5371 17.9996 15.5371 17.7098C15.537 17.5301 15.4769 17.4705 15.297 17.4705C14.7373 17.4711 13.658 18.9395 13.2682 20.2285C13.2482 20.3085 13.1482 20.349 12.9183 20.349C12.7086 20.3489 12.6587 20.3184 12.6587 20.2285C12.6593 20.1474 12.8789 19.5778 13.1584 18.8491C13.3882 18.2396 13.6582 17.5503 13.8281 17.0506L14.0283 16.4907C14.2481 15.8712 14.4075 15.4215 14.4076 15.2814C14.4076 15.2015 14.3675 15.1714 14.1976 15.1414L14.0682 15.1317L13.9681 15.1211C13.9583 15.1113 13.948 15.1016 13.9478 15.0918V14.9217C13.9478 14.9118 13.9678 14.8918 13.9779 14.8916V14.9014ZM24.9723 14.9111C25.0323 14.9111 25.0728 14.9213 25.0928 14.9412C25.1028 14.9513 25.1123 14.9715 25.1123 15.0015C25.1123 15.0415 24.9922 15.3412 24.7624 15.9406L24.3229 17.0905C23.7132 18.6897 23.4133 19.5593 23.4033 19.7492C23.4033 19.7891 23.4135 19.8293 23.4334 19.8493C23.4534 19.8691 23.4737 19.8688 23.4937 19.8688C23.6335 19.8685 23.8037 19.6791 24.1032 19.3496L24.1431 19.3089C24.1433 19.2994 24.1528 19.2992 24.1626 19.2992C24.1725 19.2992 24.1731 19.2991 24.1829 19.3089C24.1829 19.3089 24.3026 19.4495 24.3026 19.4595C24.3033 19.461 24.3122 19.48 24.3026 19.4896L24.2228 19.5693C23.943 19.9191 23.5234 20.4487 23.1038 20.4491C22.9739 20.4491 22.8637 20.4183 22.7938 20.3384C22.7139 20.2485 22.674 20.1189 22.6839 19.9591C22.6939 19.5893 23.3031 18.0397 23.6629 17.1401C23.6694 17.124 24.3325 15.4802 24.3424 15.3311C24.3523 15.2313 24.2929 15.1909 24.1431 15.161L23.9128 15.1414C23.9029 15.1411 23.8932 15.1212 23.8932 15.1113L23.903 14.9412C23.9031 14.9214 23.9132 14.9111 23.9331 14.9111H24.9723ZM12.6188 16.8504C13.1082 16.8605 13.3079 17.2 13.3081 17.4299C13.3081 17.4998 13.2881 17.5703 13.2381 17.6203C13.1882 17.6601 13.1285 17.6902 13.0786 17.6903C12.9387 17.6903 12.8384 17.5701 12.7384 17.4502C12.6185 17.3103 12.4986 17.1702 12.3088 17.1702C12.1489 17.1703 11.9189 17.3101 11.6691 17.5698C11.2093 18.0596 10.7499 18.8796 10.7699 19.4294C10.7799 19.639 10.8495 19.7988 10.9692 19.9087C11.0692 19.9986 11.1996 20.0391 11.3395 20.0291C11.6993 19.9991 12.1086 19.6689 12.3185 19.479L12.3291 19.4692C12.3389 19.4594 12.3389 19.4595 12.3486 19.4595C12.3586 19.4595 12.369 19.4592 12.369 19.4692L12.4886 19.5889V19.619C12.3887 19.8089 11.7891 20.4287 11.0994 20.4287C10.4198 20.4287 10.1502 19.8988 10.1302 19.409C10.1003 18.8194 10.3599 18.2195 10.8496 17.7098C11.3693 17.1802 12.0592 16.8404 12.6188 16.8504ZM19.5654 16.7804C19.5854 16.7706 19.6153 16.7809 19.6452 16.8008C19.6455 16.8008 19.6549 16.8007 19.6549 16.8105L19.8649 16.9505C19.9143 16.9703 19.9154 17.029 19.9154 17.04C19.9054 17.11 19.745 17.55 19.5451 18.0597C19.2854 18.7489 18.9557 19.608 18.9453 19.7687C18.9453 19.8287 18.9457 19.8588 18.9657 19.8688C18.9757 19.8788 18.9959 19.8892 19.0259 19.8892C19.1459 19.8886 19.3455 19.6386 19.5052 19.4489L19.6248 19.2992C19.6348 19.2892 19.6555 19.2892 19.6655 19.2992L19.7852 19.4391L19.7949 19.4595C19.7937 19.4618 19.7852 19.4785 19.7852 19.4692C19.6153 19.7291 19.1456 20.4185 18.606 20.4287C18.506 20.4287 18.4354 20.4089 18.3854 20.349C18.3255 20.289 18.2959 20.1988 18.2959 20.069C18.2959 19.8091 18.4261 19.5191 18.4961 19.3691L18.536 19.269C18.5458 19.2493 18.5459 19.2391 18.536 19.2292H18.5254C18.5045 19.2314 18.3854 19.4391 18.3854 19.4391C17.8157 20.3086 17.366 20.4189 17.0361 20.4189C16.7664 20.4188 16.5064 20.1987 16.5063 19.7093C16.5063 18.9897 17.3163 16.9107 18.8656 16.9106C19.0055 16.9106 19.1054 16.9305 19.1854 16.9505C19.2454 16.9605 19.2957 16.9709 19.3457 16.9709C19.4054 16.9707 19.4354 16.9206 19.4653 16.8708C19.4853 16.8408 19.5155 16.8004 19.5654 16.7804ZM26.9914 16.8504C27.4611 16.8504 27.7108 17.1405 27.7108 17.4103C27.7107 18.0698 26.632 18.3494 26.0522 18.3494L25.7218 18.3397H25.6624C25.6624 18.3497 25.6421 18.3698 25.6421 18.3698C25.4822 18.6096 25.2727 18.9393 25.2726 19.3789C25.2726 19.7387 25.4925 19.9689 25.8423 19.9689C26.1321 19.9688 26.5219 19.6788 26.7318 19.5189L26.8213 19.4595C26.8313 19.4495 26.8511 19.4496 26.8612 19.4595L26.9613 19.5889C26.9713 19.5989 26.9713 19.609 26.9613 19.619C26.8013 19.8289 26.1318 20.4287 25.5021 20.4287C24.9724 20.4286 24.5931 20.0286 24.5931 19.4489C24.5933 18.1897 26.002 16.8505 26.9914 16.8504ZM29.4002 16.8309C29.7099 16.8309 29.8899 17.0102 29.8901 17.18C29.8901 17.3199 29.7402 17.4998 29.5703 17.4998C29.5053 17.4998 29.4475 17.4881 29.3937 17.4705L29.0877 17.3501C29.0354 17.3327 28.9806 17.32 28.9209 17.32C28.6811 17.32 28.5206 17.5001 28.5205 17.7798C28.5205 17.9897 28.6706 18.19 28.8306 18.3999C29.0105 18.6597 29.2204 18.9496 29.2204 19.2894C29.2203 19.8891 28.4904 20.4287 27.9207 20.4287C27.5411 20.4286 27.2112 20.1589 27.2111 19.999C27.2111 19.8991 27.2414 19.6094 27.3812 19.6092C27.4811 19.6092 27.571 19.6894 27.6709 19.7793C27.8108 19.9092 27.981 20.0592 28.2308 20.0592C28.4806 20.0592 28.7402 19.889 28.7402 19.6092C28.7402 19.4393 28.6108 19.2791 28.4709 19.0892C28.291 18.8594 28.0812 18.5898 28.0811 18.2502C28.0811 17.6305 28.7006 16.8309 29.4002 16.8309ZM23.0037 16.8105C23.1436 16.8106 23.3032 16.8909 23.3032 17.1206C23.3032 17.2504 23.2634 17.3802 23.1836 17.4502C23.1336 17.4902 23.0735 17.5104 23.0135 17.5104C22.9236 17.5004 22.8738 17.4401 22.8239 17.3802C22.7739 17.3302 22.7335 17.2703 22.6636 17.2703C22.5736 17.2704 22.4534 17.3406 22.2835 17.5104C22.0237 17.7605 21.6837 18.4002 21.0742 19.6491C20.9858 19.8259 20.84 20.1767 20.835 20.1886C20.795 20.2885 20.7647 20.3286 20.7048 20.3286H20.3947C20.3348 20.3286 20.3052 20.2984 20.3052 20.2285C20.3056 20.1777 20.405 19.9082 20.5347 19.5392C20.7745 18.8796 21.1344 17.8899 21.1344 17.5601C21.1344 17.4302 21.0945 17.3599 21.0246 17.3599C20.8846 17.3599 20.6245 17.6801 20.5046 17.84L20.4744 17.8799L20.4451 17.9198C20.4451 17.9198 20.4348 17.9303 20.4248 17.9303C20.4148 17.9303 20.4045 17.9298 20.4045 17.9198L20.2946 17.8099C20.2849 17.8002 20.2848 17.8 20.2848 17.7904L20.2946 17.7798C20.4846 17.4599 21.0446 16.8504 21.4144 16.8504C21.5842 16.8505 21.6838 16.9407 21.6838 17.1206C21.6836 17.2608 21.5741 17.7307 21.4941 18.0703C21.4542 18.25 21.4144 18.4001 21.4144 18.43V18.4593H21.4242C21.4341 18.4693 21.4743 18.3902 21.4844 18.36C22.0441 17.2606 22.454 16.8405 23.0037 16.8105ZM18.7052 17.1401C17.9058 17.1406 17.1062 18.5397 17.1061 19.549C17.1061 19.8388 17.1865 19.8892 17.3364 19.8892C18.0161 19.889 19.1154 17.9698 19.1154 17.5601C19.1154 17.2903 18.9651 17.1401 18.7052 17.1401ZM26.8815 17.0701C26.4517 17.0702 25.9916 17.7699 25.8317 18.0597C26.6912 18.0497 27.1817 17.7901 27.1818 17.3704C27.1818 17.2005 27.0514 17.0701 26.8815 17.0701Z" fill="white"/>
</g>
</g>
<defs>
<clipPath id="clip0_1812_917">
<rect width="40" height="40" fill="white"/>
</clipPath>
<clipPath id="clip1_1812_917">
<rect width="20" height="20" fill="white" transform="translate(10 10)"/>
</clipPath>
</defs>
</svg>
