<svg width="40" height="40" viewBox="0 0 40 40" fill="none" xmlns="http://www.w3.org/2000/svg">
<g clip-path="url(#clip0_819_3569)">
<path d="M20 0C31.0457 0 40 8.9543 40 20C40 31.0457 31.0457 40 20 40C8.95431 40 7.90517e-06 31.0457 0 20C6.58765e-07 8.95431 8.95431 1.97595e-06 20 0Z" fill="#F8D2D3"/>
<path d="M26 6C30.4183 6 34 9.58172 34 14V26C34 30.4183 30.4183 34 26 34H14C9.58172 34 6 30.4183 6 26V14C6 9.58172 9.58172 6 14 6H26Z" fill="#DD1D21"/>
<g clip-path="url(#clip1_819_3569)">
<path d="M20 10.7191C14.45 10.7191 10 15.2091 10 20.8166C10 21.6466 10.0317 21.9616 10.205 22.7583L13.2567 25.0166L13.7317 28.7791H18.8167L19.0883 28.9683C19.4025 29.1866 19.6758 29.2808 19.99 29.2808C20.2833 29.2808 20.6 29.1966 20.8433 29.0199L21.1683 28.7791H26.2467L26.7158 25.0166L29.795 22.7583C29.9683 21.9616 30 21.6466 30 20.8166C30 15.2099 25.5508 10.7191 20 10.7191ZM20.83 12.6008C21.58 12.6008 22.3117 12.7874 22.9233 13.1416L20.8692 23.5983L23.7192 13.5466C24.6017 13.8466 25.2717 14.3308 25.8092 15.0583L25.83 15.0866L21.745 23.9324L26.3883 15.8383L26.4158 15.8633C27.0475 16.4533 27.455 17.1691 27.6592 18.0699L22.4967 24.4583L27.86 19.0416L27.8683 19.0591C28.0792 19.5283 28.2158 20.1924 28.2158 20.7224C28.2158 21.1466 28.1958 21.3158 28.0792 21.7641L25.1175 23.9324L24.7283 27.0241H20.9992L20.5683 27.3533C20.4025 27.4849 20.1667 27.5749 20 27.5749C19.8342 27.5749 19.5975 27.4849 19.4317 27.3533L19.0008 27.0249H15.2683L14.8975 24.0166L11.875 21.7949C11.7833 21.4316 11.7417 21.1033 11.7417 20.7441C11.7417 20.1441 11.8742 19.5024 12.0967 19.0333L12.1075 19.0133L17.4825 24.4724L12.2917 18.0174C12.5 17.1316 13.02 16.2758 13.6583 15.7566L18.2767 23.9033L14.1492 15.0833C14.6117 14.4049 15.3575 13.8708 16.2708 13.5608L19.1242 23.6183L16.9625 13.1799L17.0083 13.1549C17.6867 12.7799 18.34 12.6074 19.0558 12.6074C19.2183 12.6074 19.2942 12.6108 19.4958 12.6324L19.985 23.5074L20.3683 12.6249C20.555 12.6041 20.6258 12.6008 20.83 12.6008Z" fill="white"/>
</g>
</g>
<defs>
<clipPath id="clip0_819_3569">
<rect width="40" height="40" fill="white"/>
</clipPath>
<clipPath id="clip1_819_3569">
<rect width="20" height="20" fill="white" transform="translate(10 10)"/>
</clipPath>
</defs>
</svg>
