<svg width="40" height="40" viewBox="0 0 40 40" fill="none" xmlns="http://www.w3.org/2000/svg">
<g clip-path="url(#clip0_1767_676)">
<path d="M20 0C31.0457 0 40 8.9543 40 20C40 31.0457 31.0457 40 20 40C8.95431 40 7.90517e-06 31.0457 0 20C6.58765e-07 8.95431 8.95431 1.97595e-06 20 0Z" fill="#DEE3FF"/>
<path d="M26 6C30.4183 6 34 9.58172 34 14V26C34 30.4183 30.4183 34 26 34H14C9.58172 34 6 30.4183 6 26V14C6 9.58172 9.58172 6 14 6H26Z" fill="#2346FF"/>
<g clip-path="url(#clip1_1767_676)">
<path d="M26.9458 13.7877H21.1262V29.9944H16.653V13.7877H10.8333V9.99948H26.9458V13.7877Z" fill="white"/>
<path d="M26.4714 23.2661C27.9612 23.2661 29.1667 24.488 29.1667 25.9982C29.1667 27.5097 27.9612 28.7316 26.4714 28.7316C24.9803 28.7316 23.7749 27.5097 23.7749 25.9982C23.7749 24.488 24.9803 23.2661 26.4714 23.2661Z" fill="white"/>
</g>
</g>
<defs>
<clipPath id="clip0_1767_676">
<rect width="40" height="40" fill="white"/>
</clipPath>
<clipPath id="clip1_1767_676">
<rect width="20" height="20" fill="white" transform="translate(10 10)"/>
</clipPath>
</defs>
</svg>
