<svg width="40" height="40" viewBox="0 0 40 40" fill="none" xmlns="http://www.w3.org/2000/svg">
<g clip-path="url(#clip0_1782_766)">
<path d="M20 0C31.0457 0 40 8.9543 40 20C40 31.0457 31.0457 40 20 40C8.95431 40 7.90517e-06 31.0457 0 20C6.58765e-07 8.95431 8.95431 1.97595e-06 20 0Z" fill="#FBD9EA"/>
<path d="M26 6C30.4183 6 34 9.58172 34 14V26C34 30.4183 30.4183 34 26 34H14C9.58172 34 6 30.4183 6 26V14C6 9.58172 9.58172 6 14 6H26Z" fill="#E20074"/>
<g clip-path="url(#clip1_1782_766)">
<path d="M28.3333 17.004L27.2487 17.1935C27.042 15.0758 26.491 13.5088 25.5785 12.493C24.6315 11.4255 23.3058 10.8746 21.6184 10.823V25.8024C21.6185 27.1109 21.8078 27.9545 22.1866 28.3505C22.5137 28.6949 23.0648 28.9014 23.8396 28.9703C24.0634 28.9875 24.4595 29.0048 25.0104 29.0048V30.1584H14.9896V29.0048C15.5406 29.0048 15.9366 28.9875 16.1604 28.9703C16.9352 28.8842 17.4863 28.6777 17.8134 28.3505C18.1922 27.9545 18.3816 27.1108 18.3816 25.8024V10.823C16.6943 10.8574 15.3685 11.4255 14.4215 12.493C13.509 13.5088 12.958 15.0758 12.7513 17.1935L11.6667 17.004L11.8733 9.84155H28.1267L28.3333 17.004Z" fill="white"/>
<path d="M15.7989 19.1907V23.3058H11.6838V19.1907H15.7989Z" fill="white"/>
<path d="M28.3333 23.3058H24.2184V19.1907H28.3333V23.3058Z" fill="white"/>
</g>
</g>
<defs>
<clipPath id="clip0_1782_766">
<rect width="40" height="40" fill="white"/>
</clipPath>
<clipPath id="clip1_1782_766">
<rect width="20" height="20" fill="white" transform="translate(10 10)"/>
</clipPath>
</defs>
</svg>
