<svg width="40" height="40" viewBox="0 0 40 40" fill="none" xmlns="http://www.w3.org/2000/svg">
<g clip-path="url(#clip0_1782_2913)">
<path d="M20 0C31.0457 0 40 8.9543 40 20C40 31.0457 31.0457 40 20 40C8.95431 40 7.90517e-06 31.0457 0 20C6.58765e-07 8.95431 8.95431 1.97595e-06 20 0Z" fill="#CCECF8"/>
<path d="M26 6C30.4183 6 34 9.58172 34 14V26C34 30.4183 30.4183 34 26 34H14C9.58172 34 6 30.4183 6 26V14C6 9.58172 9.58172 6 14 6H26Z" fill="#009FDB"/>
<g clip-path="url(#clip1_1782_2913)">
<path d="M13.82 27.865C15.577 29.2129 17.7296 29.9438 19.9442 29.9441C22.3619 29.9416 24.6968 29.0632 26.5167 27.4716C25.73 27.9775 23.4833 29.1575 19.9442 29.1575C16.8542 29.1575 14.8875 28.4816 13.82 27.865ZM20.6183 28.3708C23.09 28.3708 25.7867 27.6966 27.36 26.3483C27.8092 26.0108 28.2017 25.5058 28.5958 24.8875C28.8208 24.4941 29.045 24.045 29.2133 23.6516C27.6967 25.8433 23.3708 27.2475 18.8767 27.2475C15.73 27.2475 12.3033 26.2358 10.955 24.27C12.1908 26.9666 15.955 28.3708 20.6183 28.3708ZM17.9217 23.9891C12.8083 23.9891 10.3933 21.6291 10 20C10 20.5616 10.0558 21.2358 10.1683 21.7416C10.225 21.9666 10.3933 22.3033 10.6742 22.6408C11.91 23.9325 15 25.73 20.3367 25.73C27.5842 25.73 29.27 23.315 29.6067 22.5283C29.8317 21.9666 30 20.955 30 20.0558V19.4941C29.4942 21.4041 23.315 23.9891 17.9217 23.9891ZM10.8992 15.7308C10.6183 16.2916 10.2808 17.3025 10.1683 17.8083C10.1125 18.0333 10.1683 18.145 10.225 18.3141C10.8425 19.6058 13.9333 21.6841 21.1233 21.6841C25.5058 21.6841 28.9325 20.6175 29.4942 18.6508C29.6067 18.3141 29.6067 17.9208 29.4942 17.415C29.3258 16.8533 29.1008 16.1791 28.82 15.6733C28.8767 18.2575 21.685 19.9433 18.0333 19.9433C14.1008 19.9433 10.7867 18.37 10.7867 16.4033C10.8425 16.1225 10.8992 15.8983 10.8992 15.7291M26.5167 12.5283C26.5733 12.5841 26.5733 12.6408 26.5733 12.7533C26.5733 13.8766 23.2025 15.7866 17.8092 15.7866C13.82 15.7866 13.09 14.3258 13.09 13.37C13.09 13.0333 13.2025 12.6966 13.4833 12.3591C12.9775 12.865 12.5283 13.315 12.0783 13.8758C11.91 14.1008 11.7975 14.3258 11.7975 14.4383C11.7975 16.405 16.685 17.7525 21.18 17.7525C26.0108 17.7525 28.2025 16.18 28.2025 14.775C28.2025 14.27 28.0333 13.9891 27.5275 13.4266C27.2048 13.1116 26.8675 12.8118 26.5167 12.5283ZM25.0558 11.4608C23.5128 10.5331 21.7446 10.0471 19.9442 10.0558C18.0333 10.0558 16.2917 10.5616 14.775 11.5166C14.3258 11.7416 14.045 11.9666 14.045 12.2475C14.045 13.0891 16.0117 13.9891 19.495 13.9891C22.9217 13.9891 25.6183 12.9775 25.6183 12.0225C25.6742 11.8541 25.4492 11.685 25.0558 11.4608Z" fill="white"/>
</g>
</g>
<defs>
<clipPath id="clip0_1782_2913">
<rect width="40" height="40" fill="white"/>
</clipPath>
<clipPath id="clip1_1782_2913">
<rect width="20" height="20" fill="white" transform="translate(10 10)"/>
</clipPath>
</defs>
</svg>
