<svg width="40" height="40" viewBox="0 0 40 40" fill="none" xmlns="http://www.w3.org/2000/svg">
<g clip-path="url(#clip0_1784_3997)">
<path d="M20 0C31.0457 0 40 8.9543 40 20C40 31.0457 31.0457 40 20 40C8.95431 40 7.90517e-06 31.0457 0 20C6.58765e-07 8.95431 8.95431 1.97595e-06 20 0Z" fill="#DDE2F0"/>
<path d="M26 6C30.4183 6 34 9.58172 34 14V26C34 30.4183 30.4183 34 26 34H14C9.58172 34 6 30.4183 6 26V14C6 9.58172 9.58172 6 14 6H26Z" fill="#1F4099"/>
<path fill-rule="evenodd" clip-rule="evenodd" d="M27.8459 15.2626C28.5774 14.7014 29.2945 14.1089 29.9532 13.4645C29.4647 14.5104 28.8359 15.5004 28.0889 16.3812C26.826 17.8766 25.1916 19.0355 23.3987 19.8046C21.8631 20.4633 20.2248 20.8505 18.5696 21.0415C16.37 21.2883 14.1328 21.2065 11.9475 20.8765C11.2927 20.7726 10.6392 20.6595 10 20.4893C12.2463 20.8349 14.5498 20.7726 16.7871 20.3503C19.6362 19.8189 22.3685 18.7211 24.8668 17.2582C25.8984 16.6554 26.8923 15.9902 27.8459 15.2626ZM30 16.0265C29.6544 17.9585 28.5566 19.7475 26.9962 20.9427C26.1401 21.6027 25.1566 22.0873 24.125 22.407C22.6153 22.876 21.0173 23.0098 19.4413 22.9578C16.9313 22.8708 14.4524 22.329 12.0514 21.6027C11.9631 21.5664 11.8657 21.5612 11.7825 21.5157C12.6738 21.7054 13.5871 21.8041 14.494 21.8756C16.509 22.0198 18.5436 21.9431 20.534 21.582C22.0073 21.3091 23.4559 20.8713 24.8162 20.2269C26.6766 19.3551 28.3513 18.078 29.644 16.48C29.7687 16.3306 29.8818 16.176 30 16.0265ZM28.4435 20.6335C28.593 20.4737 28.7164 20.2983 28.8619 20.1385C28.732 21.2221 28.3097 22.2835 27.6043 23.128C26.9391 23.9374 26.0166 24.5156 25.0214 24.83C23.6768 25.2574 22.2437 25.2678 20.8523 25.108C19.1776 24.9066 17.5393 24.4532 15.9517 23.8906C14.859 23.5048 13.7924 23.0566 12.7361 22.5875C13.6482 22.8812 14.581 23.0981 15.519 23.2722C17.1833 23.5866 18.8736 23.7568 20.5639 23.7114C22.0696 23.6646 23.5793 23.4476 24.9916 22.9279C26.2999 22.4485 27.5211 21.6807 28.4435 20.6335ZM14.9006 24.2622C16.4467 24.917 18.0447 25.4627 19.6778 25.855C21.0173 26.1695 22.3983 26.3968 23.7794 26.3085C24.4082 26.2669 25.0318 26.1487 25.61 25.8862C26.0738 25.6745 26.496 25.3497 26.7949 24.9326C26.7481 25.5562 26.4908 26.1643 26.0582 26.6229C25.7074 26.9997 25.2384 27.2517 24.7434 27.3855C24.1146 27.5609 23.4559 27.5609 22.8115 27.4946C22.0125 27.4063 21.2291 27.1997 20.4716 26.9477C19.1165 26.4891 17.8225 25.8758 16.5649 25.2054C16.0036 24.9014 15.4476 24.5922 14.9006 24.2622Z" fill="white"/>
</g>
<defs>
<clipPath id="clip0_1784_3997">
<rect width="40" height="40" fill="white"/>
</clipPath>
</defs>
</svg>
