<svg width="40" height="40" viewBox="0 0 40 40" fill="none" xmlns="http://www.w3.org/2000/svg">
<g clip-path="url(#clip0_1784_4230)">
<path d="M20 0C31.0457 0 40 8.9543 40 20C40 31.0457 31.0457 40 20 40C8.95431 40 7.90517e-06 31.0457 0 20C6.58765e-07 8.95431 8.95431 1.97595e-06 20 0Z" fill="#F5CCCC"/>
<path d="M26 6C30.4183 6 34 9.58172 34 14V26C34 30.4183 30.4183 34 26 34H14C9.58172 34 6 30.4183 6 26V14C6 9.58172 9.58172 6 14 6H26Z" fill="#CC0000"/>
<g clip-path="url(#clip1_1784_4230)">
<path d="M20.1957 13.5161C20.3489 13.6523 20.7575 13.7885 21.3021 13.9247L20.7574 16.4097H19.2426L18.6808 18.6225H20.1957L19.651 21.3799C19.651 21.7885 19.5148 22.7587 19.651 23.1672C19.9233 24.2736 20.6212 24.6821 21.5744 24.6821C22.9531 24.6821 24.1957 24.0013 24.1957 24.0013L24.7575 22.214H23.7872C23.5148 22.214 23.2425 22.214 23.3786 21.5161L24.0595 18.6225H25.5745L26.1361 16.4097H24.6212L25.0298 14.0608C26.5446 14.0608 28.3489 14.2141 28.8936 14.4864V16.4097C28.8936 18.3501 30 18.6225 30 18.6225C30 18.6225 30 19.4566 30 20.4098C30 21.6523 29.7276 22.4864 29.7276 22.4864C29.1658 22.6226 27.7871 23.0311 26.2722 24.1374C25.1659 24.9714 24.1957 26.2141 24.1957 27.4566C24.1957 28.2736 24.3319 28.8353 24.6212 29.3799C24.6207 29.3802 24.059 29.6523 23.0893 29.6523C21.8638 29.5161 20.485 28.5459 19.651 27.031C18.5446 25.1076 18 22.7587 16.7574 22.7587C15.5149 22.7587 15.5148 24.0013 14.5446 24.0013C13.4383 24.0012 12.7574 22.214 12.4851 21.3799C11.7872 20.1374 10.1362 19.7289 10 17.7884H15.2425V10.3502H20.1957V13.5161ZM22.4085 22.0778H20.4851L21.9999 14.8948H23.9233L22.4085 22.0778ZM23.3788 12.2736C23.9234 12.2737 24.4851 12.6821 24.4851 13.38C24.4851 13.9246 23.9235 14.3502 23.3788 14.3503C22.8171 14.3503 22.2723 13.9247 22.2723 13.38C22.2723 12.6821 22.8171 12.2736 23.3788 12.2736Z" fill="white"/>
</g>
</g>
<defs>
<clipPath id="clip0_1784_4230">
<rect width="40" height="40" fill="white"/>
</clipPath>
<clipPath id="clip1_1784_4230">
<rect width="20" height="20" fill="white" transform="translate(10 10)"/>
</clipPath>
</defs>
</svg>
