<svg width="40" height="40" viewBox="0 0 40 40" fill="none" xmlns="http://www.w3.org/2000/svg">
<g clip-path="url(#clip0_819_3517)">
<path d="M20 0C31.0457 0 40 8.9543 40 20C40 31.0457 31.0457 40 20 40C8.95431 40 7.90517e-06 31.0457 0 20C6.58765e-07 8.95431 8.95431 1.97595e-06 20 0Z" fill="#D2D7F4"/>
<path d="M26 6C30.4183 6 34 9.58172 34 14V26C34 30.4183 30.4183 34 26 34H14C9.58172 34 6 30.4183 6 26V14C6 9.58172 9.58172 6 14 6H26Z" fill="#1F36C7"/>
<g clip-path="url(#clip1_819_3517)">
<path d="M27.4701 15.7452C27.5609 16.4155 28.5721 17.3206 28.8524 17.2979C29.0379 17.2828 29.1061 16.4231 29.1061 15.7452C29.1061 15.3589 29.1288 15.0522 28.9243 14.9839C28.5986 15.6391 27.7466 15.7716 27.4701 15.7452ZM27.5269 15.4459C28.2615 15.4459 28.9318 14.859 28.9318 14.3439C28.9318 14.1053 28.8182 13.9046 28.5305 13.8705C28.5797 13.9349 28.6024 13.9804 28.6024 14.0977C28.6024 14.4879 28.0116 14.9158 27.3678 14.9158C27.133 14.9158 27.0649 15.0786 27.0649 15.162C27.0611 15.3665 27.2504 15.4459 27.5269 15.4459ZM27.3716 14.6507C27.2731 14.6507 27.133 14.6507 27.0535 14.4954C27.0269 14.4462 27.0156 14.3856 27.0042 14.3212C26.9853 14.2227 26.9664 14.1242 26.8906 14.0713C27.0117 14.1091 27.133 14.1091 27.2352 14.1091C27.5534 14.1091 27.8564 13.8894 28.0911 13.8894C28.2464 13.8894 28.2919 13.9879 28.2919 14.0864C28.2995 14.397 27.667 14.6507 27.3792 14.6507H27.3716ZM11.5869 20.1837C11.8255 20.1837 11.7763 18.7143 12.1664 18.7143C12.2573 18.7143 12.2837 18.8051 12.2837 18.9225C12.2837 19.2558 12.1209 19.7406 12.1209 20.0095C12.1209 20.1458 12.1588 20.1913 12.2194 20.1875C12.3898 20.1875 12.6852 18.5703 12.973 18.5703C13.0639 18.5703 13.1094 18.6613 13.1094 18.7559C13.1094 19.093 12.6776 20.0701 12.6776 20.3427C12.6776 20.3882 12.6966 20.4223 12.7231 20.4223C12.9011 20.4223 13.2533 19.6611 13.3669 19.2786C13.4313 19.0816 13.5146 18.9756 13.5941 18.9756C13.6661 18.9756 13.7304 19.0551 13.7304 19.218C13.7304 19.6004 13.3782 20.4942 13.0677 21.0964C12.8291 21.5622 12.4542 22.2325 12.4542 22.6074C12.4542 22.7968 12.492 22.9975 12.7609 23.2323C12.3103 23.2058 12.1247 23.1603 11.958 22.8081C11.2044 24.3079 13.3518 24.1639 12.617 25.497C12.4845 25.2584 11.4241 25.0123 11.4241 23.6148C11.4241 22.4067 12.4807 21.7023 12.4807 21.2024C12.4807 21.104 12.4467 21.0206 12.3557 20.9411C12.1209 20.7442 12.1172 20.5813 11.9315 20.5813C11.799 20.5813 11.6362 20.8919 11.8028 21.1683C11.8596 21.2592 11.9126 21.3123 11.9126 21.4032C11.9126 21.6 11.6021 22.1303 11.3824 22.1265C11.1628 22.1265 10.9961 21.5849 10.9961 20.7101C10.9961 19.9337 11.1741 19.1497 11.39 19.1497C11.4544 19.1497 11.4695 19.1953 11.4695 19.2482C11.4695 19.3391 11.443 19.5247 11.443 19.8353C11.4468 20.1647 11.5187 20.1913 11.5869 20.1837ZM13.3858 22.2515C13.6812 22.2515 13.9273 22.0318 13.9273 21.5471V20.8275C13.9273 20.551 13.9501 20.2405 14.1319 20.0246C14.1092 20.1155 14.1092 20.214 14.1092 20.3049C14.1092 20.9108 14.4424 21.3274 14.4424 21.9143C14.4424 22.134 14.378 22.2514 14.2114 22.2476C14.0486 22.2476 14.0637 22.1 14.0259 22.1C13.9994 22.1 13.9538 22.1909 13.9538 22.2893C13.9538 22.4332 14.0637 22.668 14.3516 22.6718C14.6053 22.6718 14.8098 22.4408 14.8098 22.1795C14.8098 21.5433 14.3174 20.8389 14.3174 20.1609C14.3174 19.8656 14.397 19.6686 14.4576 19.5134C14.4576 20.9146 15.6505 21.9371 15.6505 22.5241C15.6505 22.6567 15.552 22.7627 15.4043 22.7627C15.2415 22.7627 15.1658 22.634 15.1658 22.5355C15.1658 22.4862 15.1582 22.4711 15.1393 22.4711C15.0976 22.4711 14.9688 22.6112 14.9688 22.7968C14.9688 23.0316 15.1582 23.3119 15.5103 23.3119C15.9119 23.3119 16.1315 22.971 16.1315 22.668C16.1315 21.9257 14.6848 20.8047 14.6848 19.6042C14.6848 19.3998 14.7188 19.0665 14.8665 18.8127C13.9349 19.4111 13.6471 20.2102 13.6471 20.9108C13.6471 21.5168 13.6244 21.8196 13.3138 21.8196C13.151 21.8196 13.1094 21.672 13.0526 21.672C13.0109 21.672 12.9882 21.8008 12.9882 21.8348C12.9958 22.1 13.1813 22.2439 13.3745 22.2439H13.3858V22.2515ZM26.2014 14.1734C26.0651 14.1734 25.8416 14.3211 25.6636 14.3211C25.4401 14.3173 25.5045 14.0371 25.2584 14.0371C25.2053 14.0371 25.141 14.0522 25.0766 14.0863C24.5653 14.3439 24.1677 14.2455 24.0767 14.306C24.0541 14.3173 24.0352 14.3363 24.0276 14.3779C24.0276 14.9082 24.5919 15.7261 25.531 15.7261C26.1749 15.7261 26.7164 15.5065 26.7164 15.1467C26.7164 14.8324 26.4135 14.1734 26.2014 14.1734ZM25.6144 15.2035C25.0955 15.2035 24.7546 14.9233 24.7585 14.7377C24.7585 14.715 24.7736 14.6999 24.8001 14.6999C24.8834 14.6999 25.1107 14.8135 25.4061 14.8627C25.7507 14.9195 25.9363 14.9271 26.0271 14.9271C26.118 14.9271 26.1597 14.9498 26.1597 14.9763C26.1597 15.0634 25.9249 15.2035 25.6144 15.2035ZM13.5335 24.9138C13.3024 24.9706 12.9275 25.338 12.9275 25.9174C12.9275 26.6066 13.6698 27.6709 14.8893 27.6709C15.9193 27.6709 16.173 26.9588 16.173 26.4778C16.173 25.4137 15.5178 24.6639 14.662 24.6639C14.1962 24.6639 13.7796 25.0047 13.7796 25.5046C13.7796 25.9742 14.1318 26.671 14.9725 26.671C15.3664 26.671 15.6011 26.387 15.6011 26.0651C15.6011 25.7469 15.3134 25.3115 14.8892 25.3115C14.7605 25.3115 14.6696 25.3947 14.6696 25.5311C14.6696 25.7015 14.9044 25.8643 15.196 25.8681C15.2679 25.8681 15.3248 25.853 15.3512 25.8416C15.3664 25.8606 15.3702 25.8947 15.3702 25.925C15.3702 26.0878 15.2149 26.1862 14.9763 26.1862C14.6165 26.1862 14.2719 25.9174 14.2719 25.4932C14.2719 25.2395 14.4916 25.0577 14.8097 25.0577C15.4383 25.0577 15.8133 25.6182 15.8133 26.1711C15.8133 26.6711 15.5368 26.9626 14.9725 26.9588C13.8364 26.9626 13.291 25.9401 13.5335 24.9138ZM22.2855 27.1596C22.2134 27.0232 22.2703 26.7884 22.0583 26.7884C21.9144 26.7884 21.903 26.9021 21.8878 26.993C21.5811 26.9059 21.3273 26.8603 21.1001 26.8603C20.9373 26.8603 20.7972 26.8831 20.676 26.9248C20.5964 26.7809 20.248 26.5082 19.945 26.4097C19.8276 27.0459 19.2558 27.5458 18.4074 27.6178C18.3583 28.0344 18.0325 28.1404 17.7788 28.1404C17.597 28.1442 17.3054 28.0798 17.2902 28.0079C17.1918 27.4095 16.7373 27.0724 16.5404 26.993C16.548 27.0573 16.5555 27.1255 16.5555 27.1898C16.5555 27.6973 16.2072 28.0155 15.5596 28.0155C15.4611 28.0155 15.3248 28.0079 15.2263 27.9889C15.9685 28.8145 16.4987 28.5115 16.8434 28.6668C17.294 28.8713 17.6614 29.5 19.1081 29.5C19.6345 29.5 20.1723 29.2955 20.5244 29.0683C20.5889 29.2803 20.8085 29.4697 21.1683 29.4697C21.7818 29.4697 22.1264 29.2803 22.1264 29.1251C22.1264 29.0834 22.1226 29.019 22.0166 29.019C21.9105 29.019 21.9257 29.0456 21.5887 29.0456C21.1985 29.0418 20.5623 28.8903 20.2632 28.2086C20.2101 28.095 20.1269 28.095 20.1003 28.095C19.9034 28.095 19.6004 28.7956 18.3582 28.7956C17.8394 28.7994 17.597 28.6024 17.597 28.557C17.597 28.5494 17.597 28.5418 17.6235 28.5418C17.6728 28.5418 17.8659 28.5646 18.1045 28.5646C18.8884 28.5646 19.5209 28.2048 19.9034 27.7883C20.0359 27.6405 20.1003 27.6178 20.2139 27.6178C20.3124 27.6178 20.4184 27.7049 20.4677 27.8374C20.6418 28.2881 21.0433 28.6479 21.4826 28.6479C22.0771 28.6479 22.0847 27.633 22.2248 27.5837C22.2517 27.5931 22.2798 27.5982 22.3082 27.5989C22.3802 27.5989 22.4938 27.5459 22.4938 27.4133C22.4938 27.2694 22.3196 27.2315 22.2855 27.1596ZM21.3236 27.9208C21.1683 27.917 21.0434 27.792 21.0434 27.6367C21.0434 27.4776 21.1683 27.3527 21.3236 27.3527C21.4788 27.3527 21.6076 27.4815 21.6076 27.6367C21.6076 27.6741 21.6003 27.711 21.5861 27.7455C21.5718 27.78 21.5509 27.8113 21.5245 27.8377C21.4981 27.8641 21.4668 27.885 21.4323 27.8993C21.3978 27.9135 21.3609 27.9208 21.3236 27.9208ZM26.4097 23.8193C25.372 23.8193 25.6409 24.7281 24.4289 25.0047C24.2055 25.0539 24.1412 25.1258 24.1412 25.2244C24.1412 25.4099 24.2434 25.6485 24.3722 25.6485C24.8986 25.6485 25.7204 24.554 25.8681 24.554V24.5469C25.9302 24.5505 25.9929 24.5561 25.9892 24.7017C25.9892 25.0994 24.8456 25.6182 24.8456 25.9023C24.8456 26.0726 25.2508 26.4325 25.6447 26.4325C26.2165 26.4363 26.7278 25.266 26.849 25.266C26.9437 25.266 26.9777 25.3341 26.9777 25.4061C26.9777 25.7242 26.5914 26.3453 25.9135 26.6142C25.7734 26.671 25.7507 26.7353 25.7507 26.7847C25.7507 26.9399 25.9287 27.1709 26.0915 27.1709C26.2885 27.1709 27.614 26.0159 27.614 25.0842C27.614 24.2094 26.9815 23.8193 26.4097 23.8193ZM26.8868 24.8229C26.8142 24.8221 26.7428 24.8039 26.6786 24.7699C26.5876 24.7282 26.4248 24.5919 26.4248 24.3835C26.4248 24.1943 26.5309 24.1147 26.6293 24.1147C26.9323 24.1147 27.2504 24.3836 27.2541 24.5957C27.2541 24.7661 27.0913 24.8229 26.8868 24.8229ZM13.4501 15.9421C13.4501 16.0974 13.5751 16.2223 13.7303 16.2261C13.8857 16.2261 14.0106 16.0974 14.0106 15.9421C14.0106 15.7868 13.8819 15.6618 13.7303 15.6618C13.5789 15.6656 13.4463 15.7906 13.4463 15.9421H13.4501ZM13.0828 15.3096C13.0828 15.4649 13.2078 15.5899 13.363 15.5899C13.5183 15.5899 13.6471 15.4611 13.6471 15.3059C13.6471 15.1506 13.5183 15.0218 13.363 15.0218C13.2078 15.0218 13.0828 15.1582 13.0828 15.3096ZM12.829 17.2373C12.6662 17.279 12.3291 17.4759 12.3291 17.8281C12.3291 18.0818 12.5299 18.2446 12.7722 18.2446C12.901 18.2446 12.9919 18.2182 13.0487 18.1727C12.8518 17.9834 12.7798 17.7713 12.7798 17.5591C12.7798 17.419 12.8025 17.3282 12.829 17.2373ZM11.0983 17.3395C11.0908 17.3736 11.0908 17.4116 11.0908 17.4456C11.0908 17.7789 11.2611 17.9607 11.4959 17.9607C11.6701 17.9607 11.8785 17.8546 12.0602 17.6236C11.9845 17.6387 11.8898 17.6463 11.8065 17.6463C11.5528 17.6463 11.265 17.5743 11.0983 17.3395ZM10.8521 17.9721C10.8521 18.506 11.015 18.7598 11.3029 18.7635C11.5301 18.7635 11.833 18.6007 12.1928 18.2901C11.9163 18.3545 11.7043 18.3962 11.5149 18.4C11.2611 18.3961 11.0679 18.2978 10.8521 17.9721ZM12.6813 15.1468C12.7153 15.0332 12.7457 14.893 12.7457 14.7378C12.7457 14.4007 12.5904 13.8857 12.1095 13.8857C11.833 13.8857 11.6361 14.1053 11.6361 14.3667C11.6361 14.9272 12.1966 15.1506 12.6813 15.1468ZM13.0373 15.8588C12.9464 15.7377 12.9805 15.6278 12.9237 15.5709C12.8897 15.5369 12.7912 15.5369 12.6625 15.5217C12.6108 15.5169 12.559 15.5144 12.5071 15.5142C12.2761 15.5142 11.9997 15.5444 11.6891 15.7414C11.0794 16.1277 11.1665 16.779 11.0718 16.9381C11.0604 16.9609 11.049 16.9873 11.049 17.0176C11.049 17.082 11.1211 17.154 11.1855 17.1502C11.2422 17.1502 11.2763 17.135 11.3066 17.135C11.477 17.135 11.6702 17.2524 11.9391 17.2562C12.1019 17.2562 12.2913 17.207 12.5299 17.0858C13.0373 16.8321 13.2343 16.2034 13.2343 16.0974C13.2343 15.9648 13.1282 15.98 13.0373 15.8588ZM12.0792 16.9268C11.8482 16.9268 11.5944 16.6389 11.5944 16.3777C11.5944 16.2375 11.7005 16.0595 11.7762 16.0595C11.8027 16.0595 11.8216 16.0785 11.8216 16.1315C11.8633 16.4761 12.0944 16.673 12.3027 16.7752C12.3254 16.7942 12.3405 16.7942 12.3405 16.8093C12.3405 16.851 12.2079 16.923 12.0792 16.9268ZM12.7419 16.4913C12.4957 16.4913 12.2989 16.1163 12.2989 15.9042C12.2989 15.7717 12.3783 15.7565 12.4806 15.7565C12.5299 15.7565 12.5526 15.7641 12.5904 15.783C12.6511 15.8171 12.6511 15.9535 12.7305 16.0633C12.7798 16.1276 12.9123 16.2072 12.9123 16.264C12.9123 16.3625 12.8556 16.4913 12.7419 16.4913ZM13.4161 16.6579C13.2607 16.8397 13.0979 17.1502 13.0979 17.4721C13.0979 17.8508 13.3327 18.169 13.6963 18.169C14.0409 18.169 14.2038 17.8735 14.2038 17.5705C14.2 17.0934 13.772 16.7601 13.4161 16.6579ZM11.905 15.3021C11.905 15.3021 11.7004 15.4573 11.4467 15.4573C11.1437 15.4573 10.9052 15.2301 10.9052 14.9158C10.9052 14.6962 11.0188 14.4727 11.2801 14.3591C11.2725 14.4007 11.2725 14.4348 11.2725 14.4803C11.2687 14.8779 11.4921 15.1848 11.905 15.3021ZM24.3456 17.6424C24.3456 17.8053 24.482 17.9417 24.6449 17.9379C24.8077 17.9379 24.9402 17.8053 24.9402 17.6424C24.9402 17.4796 24.8077 17.347 24.6449 17.347C24.4782 17.347 24.3456 17.4834 24.3456 17.6424ZM24.3646 18.5324C24.3646 18.7142 24.5085 18.8657 24.6979 18.8657C24.7863 18.8656 24.871 18.8304 24.9334 18.7679C24.9959 18.7054 25.031 18.6208 25.0311 18.5324C25.031 18.4441 24.9959 18.3594 24.9334 18.2969C24.8709 18.2344 24.7862 18.1992 24.6979 18.1991C24.5161 18.2067 24.3646 18.3506 24.3646 18.5324ZM23.3497 19.1346C23.3497 19.4072 23.5655 19.6231 23.8382 19.6231C24.1071 19.6231 24.3267 19.4035 24.3267 19.1346C24.3267 18.8658 24.1071 18.646 23.8383 18.646C23.5693 18.6498 23.3497 18.8657 23.3497 19.1346ZM23.611 18.1348C23.611 18.29 23.736 18.415 23.8912 18.4188C24.0465 18.4188 24.1753 18.29 24.1753 18.1348C24.1753 17.9795 24.0465 17.8507 23.8912 17.8507C23.7397 17.8507 23.6148 17.9795 23.6148 18.1386L23.611 18.1348ZM22.6869 18.7029C22.6869 18.8581 22.8119 18.9831 22.9672 18.9831C23.1225 18.9831 23.2512 18.8581 23.2512 18.7029C23.2512 18.5476 23.1224 18.4226 22.9672 18.4226C22.8157 18.4226 22.6907 18.5513 22.6869 18.7029ZM23.414 17.0479C23.414 17.2902 23.6223 17.4985 23.8647 17.4985C24.1071 17.4985 24.3154 17.294 24.3154 17.0479C24.3154 16.8017 24.1108 16.5972 23.8647 16.5972C23.6185 16.5972 23.414 16.8055 23.414 17.0479ZM23.9405 16.1844C23.9405 16.3283 24.0579 16.4571 24.2131 16.4533C24.2843 16.453 24.3526 16.4246 24.403 16.3742C24.4533 16.3239 24.4818 16.2556 24.482 16.1844C24.4818 16.1132 24.4534 16.0449 24.403 15.9945C24.3526 15.9442 24.2844 15.9157 24.2131 15.9155C24.0617 15.9193 23.9367 16.0367 23.9405 16.1844ZM22.6642 16.8623C22.6642 17.0062 22.7816 17.135 22.9255 17.1312C22.9967 17.1309 23.0649 17.1025 23.1153 17.0521C23.1657 17.0018 23.1941 16.9335 23.1944 16.8623C23.1941 16.7911 23.1657 16.7228 23.1153 16.6724C23.065 16.6221 22.9967 16.5937 22.9255 16.5934C22.7853 16.5972 22.6642 16.7146 22.6642 16.8623ZM22.6301 17.7825C22.6301 18.025 22.8195 18.2181 23.0543 18.2143C23.1111 18.2147 23.1674 18.2037 23.2199 18.1822C23.2724 18.1606 23.3202 18.1288 23.3603 18.0886C23.4005 18.0485 23.4323 18.0007 23.4538 17.9482C23.4754 17.8956 23.4863 17.8393 23.486 17.7825C23.4863 17.7258 23.4754 17.6695 23.4538 17.6169C23.4322 17.5644 23.4005 17.5167 23.3603 17.4765C23.3201 17.4364 23.2724 17.4046 23.2199 17.383C23.1674 17.3614 23.1111 17.3505 23.0543 17.3508C22.8195 17.347 22.6263 17.5364 22.6301 17.7825ZM21.7401 18.2294C21.7401 18.4453 21.9219 18.6271 22.1378 18.6308C22.3575 18.6308 22.5391 18.4491 22.5391 18.2294C22.5391 18.0098 22.3537 17.8281 22.1378 17.8281C21.9257 17.8281 21.7401 18.006 21.7401 18.2294ZM21.9787 17.2334C21.9787 17.3887 22.1037 17.5137 22.259 17.5137C22.4142 17.5137 22.543 17.3849 22.543 17.2296C22.543 17.0744 22.4142 16.9456 22.259 16.9456C22.1074 16.9418 21.9825 17.0706 21.9825 17.2296H21.9787V17.2334ZM24.4592 19.411C24.4592 19.2709 24.5881 19.1497 24.7245 19.1497C24.8796 19.1497 24.997 19.2671 24.997 19.411C24.997 19.5738 24.8759 19.6875 24.7206 19.6837C24.6853 19.6836 24.6504 19.6764 24.618 19.6625C24.5856 19.6486 24.5564 19.6284 24.532 19.6029C24.5076 19.5774 24.4886 19.5473 24.4761 19.5144C24.4636 19.4814 24.4578 19.4462 24.4592 19.411ZM24.6979 26.8262C24.7547 26.777 24.7699 26.6974 24.7699 26.6217V26.4589C24.7699 26.2543 24.4592 26.1332 24.0352 26.1332C23.5201 26.1332 23.2436 26.3642 23.2436 26.4626V26.7883C23.2436 26.9247 23.5504 27.061 23.9405 27.061C24.2396 27.061 24.5161 26.9815 24.6979 26.8262ZM25.065 26.9021C24.8832 27.0423 24.4515 27.3602 23.7398 27.364C23.3572 27.364 23.1906 27.2428 23.1338 27.2428C23.0618 27.2428 22.9861 27.3148 22.9066 27.4056C22.7399 27.6025 22.5202 27.9699 22.5202 28.3751C22.5202 28.6554 22.7361 28.9356 23.1452 28.9394C24.4668 28.9394 25.4515 28.1139 25.4515 27.4435C25.4552 27.0638 25.2276 26.9007 25.065 26.9021ZM24.3987 28.1972C24.2207 28.3183 23.9821 28.4168 23.63 28.4206C23.6867 28.2502 23.7284 28.076 23.7284 27.9055C23.7284 27.8487 23.7208 27.8071 23.7133 27.7427H23.8041C24.357 27.7389 24.5994 27.5193 24.6411 27.5231C24.6751 27.5231 24.7206 27.5421 24.7206 27.6708C24.7206 27.8259 24.6486 28.0305 24.3987 28.1972ZM25.3114 20.9675C25.3114 21.1379 25.3644 21.3462 25.5462 21.35C25.6939 21.35 25.8227 21.1228 25.8227 20.8766C25.8227 20.5926 25.7734 20.3768 25.7734 20.2631C25.7734 20.2139 25.7961 20.1912 25.8227 20.1912C25.9287 20.1987 26.0309 20.4904 26.1407 20.4904C26.2696 20.4904 26.4589 20.2555 26.5346 20.2555C26.5573 20.2555 26.5611 20.2821 26.5611 20.2896C26.5611 20.3957 26.3983 20.6305 26.3983 20.7252C26.3983 20.8047 26.8035 20.8161 26.8035 20.888C26.8035 20.9941 26.3756 20.9941 26.1711 21.0849C25.9741 21.1683 25.853 21.2743 25.853 21.4182C25.853 21.5621 25.9968 21.5886 26.1976 21.5886C26.671 21.5886 27.0004 21.3349 27.1064 21.3349C27.1292 21.3349 27.1444 21.3538 27.1444 21.369C27.1444 21.441 26.9057 21.6719 26.9057 21.7742C26.9057 21.8916 27.3413 22.0355 27.3413 22.1075C27.3337 22.1301 27.3073 22.1339 27.2579 22.1339C27.1785 22.1339 27.0611 22.1112 26.9664 22.1112C26.9095 22.1112 26.8603 22.1188 26.8376 22.1453C26.7883 22.1983 26.8566 22.577 26.7543 22.577C26.6634 22.577 26.421 21.7439 25.8795 21.7439C25.7999 21.7439 25.7469 21.8082 25.7469 21.9143C25.7469 22.1946 26.0195 22.5203 26.2809 22.6755C26.3983 22.7551 26.599 22.8308 26.599 22.8762C26.599 22.9596 26.1483 22.8838 26.1483 23.0239C26.1483 23.1489 26.2014 23.342 26.2014 23.4557C26.2014 23.4897 26.1938 23.5314 26.1521 23.5352C26.0688 23.5352 25.8605 23.1489 25.7621 23.1489C25.6787 23.1489 25.4932 23.3799 25.4174 23.3799C25.3985 23.3799 25.3834 23.3572 25.3834 23.3383C25.3834 23.1755 25.6446 22.808 25.6446 22.4483C25.6446 22.2779 25.622 21.9105 25.4174 21.9105C25.247 21.9105 25.0577 22.1794 24.9743 22.4445C24.9251 22.5998 24.9592 23.1982 24.8456 23.1982C24.7395 23.1982 24.766 22.7967 24.6259 22.7967C24.5198 22.7967 24.2964 22.9861 24.2169 22.9861C24.2018 22.9861 24.1904 22.9785 24.1904 22.9634C24.1904 22.88 24.3949 22.6036 24.3949 22.5468C24.3949 22.4407 23.9291 22.4256 23.9291 22.3422C23.9291 22.293 24.1108 22.2589 24.2814 22.2286C24.6411 22.1643 25.1712 21.9029 25.1712 21.5356C25.1712 21.1266 24.7774 20.9486 24.5161 20.7819C24.3836 20.6986 24.232 20.6267 24.232 20.5698C24.232 20.5131 24.4025 20.5131 24.4706 20.5131C24.5767 20.5131 24.6827 20.5055 24.6827 20.4222C24.6827 20.3578 24.6676 20.2328 24.6676 20.1343C24.6676 20.0624 24.6751 20.0056 24.7017 20.0056C24.8077 20.0056 24.9554 20.3502 25.0273 20.3502C25.141 20.3502 25.2963 20.0662 25.4023 20.0662C25.4363 20.0662 25.4477 20.0852 25.4477 20.1495C25.4439 20.4146 25.3114 20.7138 25.3114 20.9675ZM21.9446 18.9036C22.0242 19.5019 22.8308 19.2027 22.8308 19.9261C22.8308 20.0321 22.8043 20.1874 22.8043 20.3199C22.8043 20.4752 22.8233 20.6078 22.9407 20.6078C23.0618 20.6078 23.0883 20.5244 23.0883 20.4108C23.0883 20.2972 23.0618 20.1571 23.0618 20.0775C23.0618 19.8314 23.2398 19.7746 23.3458 19.7746C23.6148 19.7746 23.8155 20.0473 24.2245 20.0511C24.1336 20.5017 23.2019 20.3844 23.2019 20.8766C23.2019 21.119 23.4443 21.1834 23.6073 21.1834C23.7549 21.1834 23.8041 21.1607 23.8041 21.0357C23.8041 20.9637 23.7889 20.888 23.7889 20.8388C23.7889 20.8123 23.8117 20.7819 23.8458 20.7819C24.001 20.7819 24.7585 21.3614 24.7585 21.5356C24.7585 21.6984 23.9556 21.8613 23.7208 21.8613C23.6488 21.8613 23.6375 21.812 23.6375 21.7855C23.6375 21.7363 23.7586 21.5886 23.7586 21.5016C23.7586 21.4371 23.6526 21.3955 23.3686 21.3955C23.236 21.3955 23.1338 21.4106 23.1338 21.5166C23.1338 21.706 23.4405 21.9408 23.4405 22.1151C23.4405 22.2552 23.3572 22.3423 23.13 22.3423C22.9407 22.3423 22.6528 22.1946 22.6528 21.9484C22.6528 21.7515 22.8573 21.5545 22.8573 21.4333C22.8573 21.3993 22.8308 21.3424 22.7475 21.3424C22.4863 21.3424 22.4142 22.0355 21.4902 22.1112C21.6379 21.9787 21.7666 21.8272 21.7666 21.5243C21.7666 21.3766 21.7326 21.2553 21.7326 21.0925C21.7326 20.8804 21.831 20.7744 21.9711 20.7744C22.2324 20.7744 22.3613 21.1455 22.5316 21.1455C22.6225 21.1455 22.721 21.0622 22.721 20.9334C22.721 20.3957 21.6909 20.4752 21.6909 19.7216C21.6833 19.5095 21.759 19.2558 21.9446 18.9036ZM24.3154 23.3004C24.3646 23.3799 24.3874 23.4557 24.3874 23.5276C24.3874 23.7246 24.2548 23.9101 24.2548 24.1146C24.2548 24.3494 24.4365 24.5388 24.6979 24.5388C24.9857 24.5388 25.1864 24.3078 25.1864 24.0313C25.1826 23.6526 24.8418 23.3345 24.3154 23.3004ZM21.9787 23.7511C22.0507 23.823 22.0696 23.895 22.0696 23.9632C22.0696 24.0692 22.0204 24.1828 22.0204 24.3002C22.0204 24.4706 22.1454 24.6183 22.3271 24.6183C22.5241 24.6183 22.6604 24.463 22.6604 24.2813C22.6642 24.0162 22.3915 23.7511 21.9825 23.7511H21.9787ZM22.1492 22.9179C22.4749 22.9634 22.5543 23.0732 22.5543 23.1641C22.5543 23.3193 22.4142 23.3685 22.2779 23.3685C22.1794 23.3685 22.0658 23.3458 21.9446 23.3458C21.7894 23.3458 21.6341 23.3799 21.5053 23.5276C21.5962 23.5466 21.7325 23.6072 21.7325 23.7473C21.7325 24.1563 20.5965 23.8192 20.5965 24.8683C20.5965 25.4288 21.1758 26.0347 22.0545 26.0309C22.5051 26.0309 22.7967 25.8832 22.7967 25.7128C22.7967 25.5802 22.5581 25.6711 22.5581 25.5575C22.5581 25.5083 22.6415 25.4174 22.6415 25.3379C22.6415 25.3038 22.615 25.2394 22.5581 25.2394C22.4294 25.2394 22.1908 25.4439 21.7023 25.4477C21.3197 25.4477 20.9486 25.228 20.9486 24.9326C20.9486 24.8683 20.9751 24.8342 21.0206 24.8342C21.0622 24.8342 21.119 24.8607 21.1645 24.8607C21.2061 24.8607 21.2137 24.8342 21.2137 24.7546C21.2137 24.675 21.2137 24.4593 21.3463 24.4593C21.4788 24.4593 21.7363 24.9554 22.7135 24.9554C23.0354 24.9554 23.664 24.891 23.8988 24.6789C23.8912 25.4553 23.2853 26.4778 22.0128 26.4778C20.6949 26.4778 19.9867 25.4174 19.9867 24.4441C19.9867 23.3648 20.8691 22.3839 22.0772 22.3839C22.3877 22.3839 22.6452 22.4938 22.6452 22.6225C22.6452 22.8194 22.1832 22.702 22.1492 22.9179ZM22.9179 22.5468C23.0164 22.6642 23.0505 22.793 23.0467 22.9065C23.0467 23.2095 22.8157 23.5201 22.8157 23.8154C22.8157 24.2131 23.0769 24.4592 23.4367 24.4592C23.8306 24.4592 24.0579 24.1259 24.0579 23.7662C24.0579 23.2436 23.6602 22.6906 22.9179 22.5468ZM23.4557 23.664C23.3572 23.6564 23.2853 23.5844 23.2853 23.4859C23.2853 23.4329 23.3193 23.3458 23.3307 23.2777C23.3458 23.183 23.3231 23.0996 23.38 23.0996C23.5087 23.0996 23.6412 23.3042 23.6412 23.4519C23.6412 23.5655 23.5693 23.664 23.4557 23.664ZM17.5857 14.8628C17.2259 14.8703 16.8926 15.1658 16.6654 15.5671C16.6803 15.4872 16.6879 15.4061 16.6881 15.3248C16.6881 14.7756 16.3927 14.2796 15.836 14.2796C15.3853 14.2796 14.9763 14.5408 14.8059 15.0483C14.8551 14.9952 15.0029 14.9044 15.124 14.9044C15.2641 14.9044 15.3058 15.0256 15.3058 15.215C15.3058 15.3437 15.2755 15.4915 15.2263 15.6316C15.1392 15.8626 14.9839 15.9346 14.9006 15.9346C14.5484 15.9346 14.7074 15.3551 14.5295 15.3551C14.3817 15.3551 14.3401 15.6656 14.3401 15.7868C14.3401 16.1882 14.6013 16.6124 15.1808 16.6124C15.7944 16.6124 16.1427 16.3208 16.5177 15.927C16.5896 16.3511 16.8207 17.0782 17.4418 17.0782C17.7788 17.0782 18.0212 16.7979 18.0477 16.4723C18.0023 16.514 17.9416 16.548 17.8697 16.548C17.7409 16.548 17.7145 16.3663 17.7145 16.2034C17.7145 15.9422 17.7902 15.6619 17.9114 15.6619C17.9757 15.6619 18.0098 15.7035 18.025 15.8928C18.0363 16.0406 18.025 16.2034 18.1159 16.2034C18.2067 16.2034 18.2636 15.9118 18.2636 15.7149C18.2636 15.2605 18.0514 14.8628 17.5857 14.8628ZM15.4951 16.2261C15.4346 16.2261 15.4194 16.1694 15.4156 16.12C15.4156 15.8437 15.7186 14.6091 15.9382 14.6091C15.9913 14.6091 16.0103 14.6507 16.0103 14.7075C16.0103 14.9272 15.7337 16.2261 15.4951 16.2261ZM16.4344 15.6997C16.2526 15.9042 16.1541 15.9875 16.0746 15.9875C16.0329 15.9913 15.9913 15.9194 15.9913 15.8361C15.9913 15.6845 16.0973 15.1203 16.3094 15.1203C16.3927 15.1203 16.4495 15.2755 16.4495 15.4156C16.4495 15.5217 16.4494 15.6087 16.4344 15.6997ZM16.8471 16.1883C16.7752 16.1921 16.7373 16.0747 16.7222 15.821C16.8358 15.6316 16.9116 15.5482 16.9835 15.5482C17.0138 15.5482 17.0403 15.5747 17.0403 15.6959V15.6997H17.0441C17.0441 15.946 16.9267 16.1922 16.8471 16.1883ZM17.2259 16.6162C17.1804 16.6162 17.1464 16.5518 17.1501 16.4041C17.1501 16.0216 17.3963 15.3248 17.544 15.3248C17.5857 15.3248 17.6008 15.4233 17.6008 15.5142C17.6008 15.9383 17.4038 16.6162 17.2259 16.6162ZM16.264 16.7639C15.9609 16.7639 15.9458 17.1312 15.9458 17.8735C15.7186 17.385 15.3475 16.8662 14.9082 16.8662C14.6127 16.8662 14.4991 17.0631 14.4991 17.4077C14.4991 17.4797 14.5067 17.5895 14.5181 17.6463C14.5522 17.5252 14.6658 17.4758 14.8059 17.4758C15.1089 17.4758 15.4762 17.7107 15.7186 18.025C15.4422 17.9758 15.1732 17.9265 14.9498 17.9265C14.8097 17.9265 14.6809 17.9417 14.5749 17.9909C14.3704 18.0818 14.094 18.3848 14.094 18.8431C14.094 18.915 14.1015 18.987 14.1129 19.0741C14.3591 18.5249 15.0142 18.275 15.4384 18.275C15.5216 18.275 15.5823 18.2826 15.6391 18.2901C15.4194 18.487 15.3702 18.8317 15.355 19.0665C15.3475 19.1801 15.3058 19.1876 15.2263 19.1839C15.2263 19.4187 15.408 19.7634 15.408 19.9375C15.408 20.0019 15.374 20.0587 15.3361 20.0701C15.3361 20.3768 15.6429 20.604 15.6429 20.801C15.6429 20.8502 15.6277 20.8919 15.6088 20.9146C15.6315 21.0395 15.9723 21.2592 16.014 21.3615C16.067 21.4864 16.1314 21.5167 16.1693 21.5167C16.2904 21.5167 16.4798 21.3765 16.4798 21.2478C16.4798 21.2062 16.4458 21.1569 16.4154 21.1342C16.2829 21.0358 16.211 20.8237 16.1542 20.6836C16.1049 20.6836 16.0405 20.6646 16.0178 20.5813C15.9799 20.4336 15.9761 20.1647 15.9193 20.0018C15.8284 19.9792 15.7868 19.9451 15.7868 19.7557C15.7868 19.6648 15.8436 19.3051 15.8436 19.1763C15.8019 19.1763 15.7451 19.1498 15.7451 19.0627C15.7451 18.8355 15.9723 18.6613 16.0329 18.3696C16.4344 18.6689 16.529 18.968 16.529 19.2369C16.529 19.377 16.5063 19.5134 16.4798 19.6383C16.7753 19.4906 17.2221 19.271 17.2221 18.8279C17.2221 18.5666 17.1009 18.2788 16.3056 18.1652C16.5518 18.0743 16.8623 18.025 17.1237 18.025C17.5743 18.025 17.8393 18.169 17.8924 18.487C17.9833 18.3469 18.0553 18.1841 18.0553 18.0364C18.0553 17.6917 17.7674 17.4645 17.4001 17.4645C16.9683 17.4645 16.5896 17.6917 16.1806 17.9607C16.3662 17.5781 16.4912 17.3547 16.7184 17.3547C16.7525 17.3547 16.7904 17.3622 16.8282 17.3698C16.7525 17.0669 16.4306 16.7601 16.264 16.7639ZM28.1555 21.85C28.5078 21.85 28.788 22.3121 28.788 22.846C28.788 23.4179 28.5191 24.039 28.0419 24.4669C28.0343 23.5163 26.8679 23.8193 26.8679 23.1263C26.8679 22.8308 27.08 22.6339 27.3337 22.6339C27.5609 22.6339 27.7314 22.6983 27.8677 22.8233C27.739 22.7021 27.6783 22.5355 27.6783 22.3726C27.6745 22.0962 27.845 21.85 28.1555 21.85ZM22.9179 14.6318C22.8611 14.5408 22.649 14.4917 22.5505 14.4917C22.24 14.4917 22.028 14.7113 21.9863 14.9082C21.9598 14.8362 21.9371 14.7529 21.9371 14.6696C21.9371 14.3591 22.1492 13.9766 22.6642 13.9766C23.1148 13.9766 23.2891 14.2114 23.3534 14.2114C23.4254 14.2114 23.4936 14.1394 23.5504 14.1394C23.6261 14.1394 23.6299 14.2569 23.6299 14.3439C23.6299 14.6242 23.5012 15.1126 23.183 15.2945C23.1262 15.1734 23.0126 15.0408 22.8308 14.9575C22.7816 14.9348 22.7589 14.893 22.7589 14.8514C22.7626 14.7681 22.8345 14.6696 22.9179 14.6318ZM21.8537 15.1468C22.0356 15.3286 22.1984 15.4006 22.3953 15.4006C22.4749 15.4006 22.5657 15.3779 22.615 15.3779C22.6793 15.3779 22.7248 15.4043 22.7248 15.4573C22.7248 15.5369 22.6528 15.6618 22.5695 15.7338C22.6528 15.7717 22.7513 15.7792 22.8422 15.783C23.2436 15.783 23.7019 15.5293 23.7019 14.893C23.7851 15.0029 23.8382 15.2377 23.8382 15.3437C23.8382 16.1125 23.2739 16.4079 22.7512 16.4079C22.4104 16.4079 22.2438 16.2943 22.1984 16.2943C22.0658 16.2943 22.0733 16.5632 21.9787 16.5555C21.8159 16.5291 21.6681 16.1694 21.6681 15.7868C21.6681 15.5596 21.7288 15.3134 21.8575 15.1392H21.8537V15.1468ZM15.8133 10.6591C15.8133 10.6175 15.6011 10.5758 15.3134 10.5758C14.8551 10.5758 14.9195 10.9583 14.5673 10.9545C14.2 10.9545 14.2908 10.5606 13.825 10.5606C13.541 10.5606 13.2835 10.6099 13.2835 10.6743C13.2835 10.7538 13.6168 10.7198 13.6168 10.9546C13.6168 11.2007 12.9048 11.2727 12.9048 11.4203C12.9048 11.4658 12.9578 11.4924 13.0297 11.4924C13.185 11.4924 13.4312 11.4203 13.6092 11.4203C13.7076 11.4203 13.7985 11.4393 13.7985 11.534C13.7985 11.712 13.4161 12.0263 13.4161 12.1702C13.4161 12.2156 13.4539 12.2232 13.488 12.227C13.6281 12.227 13.8705 11.8672 14.094 11.8672C14.4689 11.8672 14.2189 12.6625 14.4272 12.6663C14.6393 12.6663 14.5484 11.8824 14.8513 11.8824C15.0976 11.8824 15.2868 12.4239 15.4497 12.4239C15.4914 12.4239 15.5254 12.3899 15.5254 12.3406C15.5254 12.1929 15.3134 11.8899 15.3134 11.693C15.3134 11.5718 15.3967 11.515 15.5103 11.515C15.6732 11.515 15.8891 11.6135 16.0065 11.6135C16.0481 11.6135 16.0897 11.5984 16.0897 11.5491C16.0897 11.3787 15.4611 11.1969 15.4611 10.9773C15.4687 10.7613 15.8171 10.7613 15.8133 10.6591ZM17.4721 11.3788C17.4721 11.5037 17.9152 11.7763 18.1235 11.7801C18.2446 11.7801 18.2786 11.6173 18.2786 11.4468C18.2786 11.2347 18.1878 11.2272 18.0023 11.2272C17.7674 11.231 17.4721 11.2954 17.4721 11.3788ZM18.2067 12.7761C18.2067 12.3519 17.063 11.5832 17.0479 11.2537C17.0479 11.2234 17.063 11.1931 17.0895 11.1667C17.2865 10.9581 18.1007 10.8105 18.1007 10.6324C18.1007 10.5416 17.9303 10.5416 17.8469 10.5416C17.1918 10.5416 16.2299 10.7802 16.2299 11.015C16.2299 11.2573 17.0895 11.8367 17.0895 12.1284C17.0895 12.2079 17.0403 12.2345 16.9608 12.2382C16.7222 12.2382 16.1996 11.9504 15.9534 11.9504C15.8398 11.9504 15.7981 12.0261 15.7981 12.1398C15.7981 12.4731 16.1958 13.1169 16.1958 13.3061C16.1958 13.3289 16.1882 13.3554 16.1617 13.3554C16.0329 13.3554 15.4346 12.651 15.2225 12.651C15.1467 12.651 15.1392 12.7571 15.1392 12.9123V13.1509C15.1392 13.3137 15.1316 13.4121 15.0558 13.4121C14.8741 13.4121 14.787 12.8972 14.6127 12.8972C14.431 12.8972 14.3931 13.8137 14.2189 13.8099C14.0144 13.8099 14.1924 12.8025 13.9917 12.8025C13.772 12.8025 13.5259 13.4728 13.3706 13.4728C13.3138 13.4728 13.2986 13.416 13.2986 13.3667C13.2986 13.1623 13.4199 12.829 13.4199 12.632C13.4199 12.5336 13.3933 12.4769 13.3062 12.4769C13.0866 12.4769 12.6055 12.829 12.4238 12.829C12.3973 12.829 12.3594 12.8139 12.3594 12.7874C12.3594 12.6169 13.1282 12.0829 13.1282 11.8405C13.1282 11.6058 12.0678 11.761 12.0678 11.4959C12.0678 11.2687 12.8215 11.0377 12.8215 10.8029C12.8215 10.5984 11.9239 10.5075 11.5793 10.5075C11.1627 10.5076 10.9354 10.5568 10.9354 10.678C10.9354 10.8598 11.8859 10.9204 11.8859 11.0756C11.8859 11.2309 10.905 11.6475 10.905 11.8861C10.905 12.0944 12.2874 11.9051 12.2874 12.1209C12.2874 12.3595 11.0793 13.3972 11.0793 13.7418C11.0793 13.8213 11.1323 13.8516 11.2156 13.8554C11.5829 13.8554 12.5336 13.1586 12.7948 13.1586C12.8858 13.1586 12.8933 13.2684 12.8933 13.3668C12.8933 13.5524 12.829 13.8327 12.829 14.0372C12.829 14.2 12.8744 14.3098 13.0107 14.3136C13.272 14.3136 13.5107 13.8705 13.6886 13.8705C13.9158 13.8705 13.7795 15.1733 14.1241 15.1771C14.412 15.1771 14.5332 13.7645 14.7149 13.7645C14.8967 13.7645 15.0482 14.1697 15.2111 14.1697C15.4232 14.1697 15.3247 13.4577 15.5519 13.4577C15.7981 13.4577 16.5024 14.3098 16.8168 14.3061C16.9152 14.3061 16.9493 14.2265 16.9493 14.1281C16.9493 13.7531 16.4267 12.9086 16.4267 12.6397C16.4267 12.5678 16.4457 12.5488 16.5252 12.5488C16.8016 12.5488 17.6007 12.9276 17.9833 12.9276C18.1271 12.9427 18.2029 12.8708 18.2067 12.7761ZM11.761 12.3671C11.761 12.5073 11.2233 12.9807 11.0339 12.9807C10.962 12.9807 10.943 12.8973 10.943 12.8178C10.943 12.6776 11.0074 12.4808 11.0832 12.4164C11.1741 12.333 11.3861 12.2914 11.549 12.2914C11.6513 12.2914 11.761 12.3104 11.761 12.3671ZM16.9494 13.0943C16.9494 13.3366 17.8356 14.5523 17.9984 14.5486C18.1385 14.5486 18.2446 14.3024 18.2446 14.0902C18.2446 14.0334 18.2295 13.9767 18.2029 13.935C18.0742 13.757 17.1804 13.0526 16.9835 13.0526C16.9645 13.0488 16.9456 13.0678 16.9494 13.0943ZM29.1099 10.6363C28.7576 10.6363 28.697 10.5265 28.4585 10.5265C28.1707 10.5265 27.9661 10.7234 27.9661 11.0189C27.9661 11.1173 28.0002 11.2726 28.0002 11.4771C28.0002 11.727 27.951 11.958 27.7314 11.958C27.5307 11.958 27.4511 11.8255 27.4511 11.6702C27.4511 11.39 27.5988 11.2006 27.5988 11.0151C27.5988 10.678 27.1823 10.5796 26.7467 10.5796C26.2241 10.5796 25.6597 10.7197 25.6597 10.7916C25.6597 10.9128 26.4134 10.8408 26.9437 11.5187C26.599 11.5263 25.9287 11.6816 25.9287 11.7724C25.9287 11.8861 27.1292 12.0149 27.1292 12.5147C27.133 12.8442 26.8679 12.8783 26.7656 12.882C26.368 12.882 26.1559 12.4769 26.0499 12.4769C26.0424 12.4767 26.035 12.4781 26.028 12.4809C26.0211 12.4837 26.0147 12.4879 26.0094 12.4932C26.0041 12.4985 25.9999 12.5048 25.9971 12.5118C25.9943 12.5187 25.993 12.5262 25.9931 12.5337C25.9931 12.5981 26.0499 12.7647 26.0499 12.9427C26.0499 13.3934 25.55 13.4426 25.55 13.5335C25.55 13.5676 25.5651 13.5828 25.622 13.5903C25.9842 13.6457 26.35 13.6736 26.7164 13.6736C27.9926 13.6736 29.0379 13.276 29.0379 12.1626C29.0379 11.549 28.8486 11.3521 28.8486 11.0529C28.8486 10.9544 28.9206 10.7499 29.1099 10.6363ZM27.2996 13.0488C27.2201 13.0488 27.1292 13.0488 27.0383 13.0412C27.8639 12.9086 28.3222 12.4314 28.3222 11.8028C28.5078 11.8558 28.6214 12.0452 28.6175 12.2459C28.6175 12.6132 28.2653 13.0488 27.2996 13.0488ZM28.4623 11.1286C28.36 11.1248 28.2805 11.0528 28.2805 10.9544C28.2805 10.8521 28.3638 10.7802 28.4623 10.7764C28.4857 10.7764 28.5088 10.7809 28.5304 10.7899C28.552 10.7988 28.5717 10.8119 28.5882 10.8284C28.6047 10.845 28.6178 10.8646 28.6268 10.8862C28.6357 10.9078 28.6403 10.931 28.6403 10.9543C28.6403 11.0528 28.5607 11.1324 28.4623 11.1286ZM28.9054 20.2972C28.5759 20.2972 28.3827 20.8767 28.0609 20.9107C28.2653 20.0624 29.1061 19.6269 29.1061 18.8354C29.1061 17.9379 28.3524 17.6235 28.0381 17.4228C27.5117 16.6805 27.1367 16.0935 26.2923 16.0935C25.9325 16.0935 25.7053 16.1579 25.4591 16.1579C24.9819 16.1541 24.8342 15.9723 24.8001 15.9723C24.7925 15.9723 24.785 15.9799 24.785 16.0064C24.785 16.6615 25.1296 18.1651 26.6482 18.1651C27.4587 18.1651 27.8071 17.8545 27.9964 17.8545C28.201 17.8545 28.8562 18.078 28.8562 18.8278C28.8562 19.2444 28.5267 19.6685 28.4055 19.6685C28.2881 19.6723 28.1631 19.483 28.1631 19.2822C28.1631 19.0588 28.2843 18.6498 28.2843 18.3961C28.2843 18.3014 28.2691 18.256 28.2123 18.256C28.0836 18.256 27.4776 18.6347 27.4776 19.1232C27.4776 19.5398 28.0912 19.7935 28.3222 19.9147C28.0912 20.2972 27.9511 20.5433 27.8374 20.8956C27.8374 20.6304 27.5836 20.0889 27.5041 19.8617C27.114 18.8013 26.9777 18.6044 26.1749 18.5135C26.296 18.9377 27.6783 19.9602 27.6783 21.0054C27.6783 21.0698 27.6708 21.1607 27.6632 21.1948C27.2466 19.9753 26.5309 19.6951 26.2696 19.3959C25.8454 18.9301 26.0878 18.4794 25.4098 18.2256C25.4515 18.2825 25.4666 18.3544 25.4666 18.4301C25.4666 18.6536 25.3379 18.9376 25.3379 19.1346C25.3379 19.8692 26.2014 19.6496 26.7012 20.0511C27.1937 20.4487 27.47 21.0963 27.6745 21.8158C27.8715 21.5016 27.9851 21.119 28.3373 21.119C28.5645 21.119 28.6403 21.4031 28.6403 21.6C28.6403 21.6416 28.6403 21.6795 28.6327 21.706C28.9698 21.4182 29.1477 20.9524 29.1477 20.6418C29.1477 20.4336 29.0758 20.2972 28.9054 20.2972ZM27.5912 17.5288C27.5193 17.5288 27.383 17.491 27.292 17.491C27.0497 17.491 26.8793 17.8243 26.7543 17.8243C26.7088 17.8243 26.6899 17.7825 26.6899 17.7447C26.6899 17.6084 26.9285 17.4454 26.9285 17.3546C26.9285 17.2902 26.8263 17.2713 26.7846 17.2713C26.5422 17.2713 26.2051 17.6008 26.0158 17.6008C25.9818 17.6008 25.9363 17.5818 25.9363 17.5364C25.9363 17.4455 26.19 17.3167 26.19 17.2182C26.19 17.1312 26.0802 17.1122 26.0082 17.1122C25.8908 17.1122 25.656 17.1766 25.5083 17.1766C25.4288 17.1766 25.3644 17.1615 25.3644 17.0971C25.3644 16.9532 25.8227 17.0479 25.8227 16.8774C25.8227 16.7941 25.6787 16.6388 25.6787 16.5593C25.6787 16.529 25.7166 16.5063 25.7507 16.5063C25.9135 16.5063 26.084 16.9494 26.2734 16.9494C26.3566 16.9494 26.3794 16.885 26.3794 16.7941C26.3794 16.7033 26.3604 16.6578 26.3604 16.5783C26.3604 16.495 26.3945 16.4722 26.421 16.4722C26.5384 16.4722 26.6445 17.1084 26.9702 17.1084C27.114 17.1046 27.0118 16.7184 27.1405 16.7184C27.2201 16.7184 27.239 16.832 27.2466 16.8964C27.2807 17.3129 27.6556 17.3281 27.6556 17.4758C27.6556 17.4909 27.6329 17.5288 27.5912 17.5288ZM23.9632 10.5454C23.4898 10.5454 23.1452 10.7765 22.9596 10.7765C22.8498 10.7841 22.6793 10.5 22.5923 10.5C22.5582 10.5 22.5202 10.572 22.5202 10.6894C22.5202 10.7689 22.5202 11.0151 22.4369 11.0151C22.2666 11.0151 21.6114 10.5303 21.6114 10.7045C21.6114 10.8673 22.0469 11.3635 22.0469 11.4922C22.0469 11.6209 21.6152 11.7384 21.6152 11.8255C21.6152 11.9807 22.0772 12.0073 22.0772 12.208C22.0772 12.4049 21.5962 12.5602 21.5962 12.7041C21.5962 12.8215 22.0772 12.742 22.0772 12.8859C22.0772 13.0336 21.7249 13.5297 21.7249 13.6698C21.7249 13.7077 21.7326 13.7077 21.7629 13.7077C21.8954 13.7115 22.3006 13.2495 22.3953 13.2495C22.5089 13.2495 22.5316 13.5221 22.5505 13.6888C22.5657 13.7683 22.5771 13.7796 22.615 13.7796C22.6983 13.7796 22.8346 13.4539 22.9255 13.4539C23.0581 13.4539 23.4216 13.8251 24.02 13.8289C24.8721 13.8289 25.6787 13.2305 25.6787 12.1701C25.6787 11.1476 24.9592 10.5454 23.9632 10.5454ZM22.7551 12.8215C22.7324 12.8215 22.7211 12.795 22.7211 12.7571L22.7059 12.4769C22.7059 12.4504 22.6907 12.4201 22.6566 12.4201C22.5733 12.4201 22.4104 12.4125 22.3613 12.4125C22.3272 12.4125 22.312 12.4049 22.312 12.3898C22.3195 12.3367 22.5998 12.1361 22.6036 12.0905C22.6036 12.0111 22.3271 11.8633 22.3271 11.78C22.3271 11.7649 22.3423 11.7573 22.3612 11.7573C22.4407 11.7573 22.5695 11.7838 22.6793 11.7838C22.7702 11.7838 22.7854 11.39 22.8535 11.39C22.9028 11.39 22.9899 11.7611 23.0618 11.7611C23.1528 11.7611 23.3231 11.655 23.3951 11.655C23.4103 11.655 23.4216 11.6626 23.4216 11.6778C23.4216 11.727 23.2436 11.9164 23.2436 11.977C23.2436 12.0414 23.6413 12.1209 23.6413 12.1739C23.6413 12.2459 23.2398 12.2383 23.2398 12.3027C23.2398 12.3481 23.3838 12.545 23.3838 12.6094C23.3838 12.6246 23.3762 12.6321 23.361 12.6321C23.3042 12.6321 23.0845 12.5337 23.0202 12.5337C22.9407 12.5337 22.8157 12.8215 22.7551 12.8215ZM23.9783 13.4312C23.4822 13.4312 23.1603 13.185 23.1603 13.0563C23.1603 12.9919 23.2019 12.9502 23.2588 12.9502C23.414 12.9502 23.7549 13.1851 23.8647 13.1851C23.8912 13.1851 23.9139 13.1699 23.9139 13.1283C23.9139 12.9995 23.7928 12.7912 23.7928 12.6852C23.7928 12.6586 23.8155 12.6359 23.8571 12.6359C24.0465 12.6359 24.3267 12.7155 24.482 12.7155C24.5312 12.7155 24.5464 12.689 24.5464 12.6586C24.5464 12.5034 24.0881 12.2004 24.0881 12.1095C24.0881 12.0262 24.66 11.8975 24.66 11.7649C24.66 11.6248 23.8836 11.7232 23.8836 11.5869C23.8836 11.4885 24.0314 11.318 24.0314 11.2423C24.0314 11.2082 24.0048 11.193 23.9556 11.193C23.8912 11.193 23.5542 11.3256 23.4103 11.3256C23.3382 11.3256 23.255 11.3104 23.255 11.2119C23.255 11.0491 23.5314 10.8749 23.9632 10.8749C24.66 10.8749 25.0766 11.3559 25.0766 12.1588C25.0728 13.1775 24.3646 13.4312 23.9783 13.4312ZM19.199 25.6409C19.199 25.7053 19.1762 25.7735 19.1195 25.8454C19.0437 25.7053 18.824 25.6333 18.7256 25.6333C17.9985 25.6333 18.2749 26.6862 17.4985 26.6862C17.1728 26.6862 17.1464 26.6445 17.0251 26.6445C16.9759 26.6445 16.9456 26.6673 16.9456 26.7089C16.9456 26.8907 17.2069 27.3414 17.9303 27.3452C18.6574 27.3452 19.3543 26.9021 19.3543 26.3491C19.3543 26.2582 19.3315 26.1597 19.2898 26.0613C19.3163 26.0196 19.3883 25.9893 19.4527 25.9893C19.5664 25.9893 19.6231 26.1144 19.7329 26.1181C19.8466 26.1181 19.9299 26.0348 19.9299 25.9212C19.9299 25.8303 19.8806 25.7659 19.7974 25.7242C19.8541 25.6826 19.8958 25.6106 19.8958 25.5349C19.8958 25.4137 19.8125 25.3039 19.6686 25.3039C19.6042 25.3039 19.5625 25.3266 19.5133 25.372C19.4982 25.2471 19.4299 25.1258 19.2936 25.1258C19.1875 25.1258 19.1081 25.2016 19.1081 25.3266C19.1233 25.4251 19.199 25.516 19.199 25.6409ZM16.9267 25.1297C16.8775 25.1297 16.8131 25.1372 16.7449 25.1372C16.6806 25.1372 16.5896 25.1221 16.5328 25.0728C16.4192 24.9744 16.3851 24.4443 16.173 24.126C15.942 23.7739 15.6883 23.6754 15.3399 23.6754C15.0937 23.6754 14.8173 23.8079 14.8173 24.0087C14.8173 24.1298 14.8854 24.2132 15.3323 24.3306C15.8966 24.4745 16.1844 24.7737 16.2375 25.1335C16.2942 25.4781 16.3624 25.7583 16.4987 25.9022C16.6768 26.103 17.0252 26.2734 17.3206 26.2734C17.5743 26.2734 17.7788 26.19 17.7788 25.9552C17.7788 25.7015 17.4342 25.1297 16.9267 25.1297ZM17.3016 25.906C17.0895 25.906 16.7715 25.6788 16.7715 25.5538C16.7715 25.4478 16.8699 25.3909 16.9494 25.3909C17.1274 25.3909 17.4456 25.6068 17.4456 25.7924C17.4418 25.8416 17.4076 25.9023 17.3016 25.906ZM18.9907 22.8006C18.665 22.6832 18.521 22.4938 18.4567 22.1227C18.2976 22.3386 18.2219 22.5431 18.2219 22.6642C18.2219 23.1414 18.877 23.149 18.877 23.4671C18.8732 23.6527 18.5438 23.842 18.1083 23.8458C17.6008 23.842 17.26 23.7625 16.9418 23.4445C16.8585 23.3535 16.8207 23.2739 16.7146 23.2739C16.5935 23.2739 16.5442 23.4861 16.5442 23.6754C16.5442 24.3684 17.2031 25.1864 18.1196 25.1864C19.2634 25.1826 19.7065 24.3949 19.7065 23.7588C19.7065 23.3876 19.6194 23.0354 18.9907 22.8006ZM18.6536 24.732C18.5628 24.732 18.5438 24.6752 18.5438 24.5957C18.5438 24.5313 18.5666 24.4101 18.5666 24.3193C18.5666 24.0692 18.6612 24.0882 18.9036 23.9784H18.8998C19.0702 23.8989 19.1346 23.7928 19.1876 23.7928C19.252 23.7928 19.3087 23.8344 19.3087 23.9329C19.3087 24.3003 18.9074 24.732 18.6536 24.732ZM16.654 20.4109C16.654 19.9603 17.7258 19.7179 17.7258 19.1612C17.7258 19.0703 17.6918 18.9074 17.6273 18.7862C18.0023 18.9945 18.2787 19.3391 18.2787 19.6194C18.2787 20.1079 17.7712 20.3314 17.7712 20.6343C17.7712 20.9866 18.3127 21.0396 18.3127 21.4826C18.3127 21.8424 17.7978 22.259 17.7978 22.7248C17.7978 23.0884 18.0515 23.3838 18.4416 23.4293C18.3127 23.4558 18.2029 23.4785 18.0817 23.4785C17.3698 23.4785 16.635 22.8915 16.635 22.1947C16.635 21.85 16.7828 21.5471 17.01 21.3274C17.2069 21.4978 17.4076 21.6076 17.5364 21.6076C17.65 21.6076 17.6993 21.5508 17.6993 21.4675C17.6917 21.21 16.6578 20.9639 16.654 20.4109ZM14.6317 23.3838C14.6051 23.1301 14.3741 22.9407 14.1392 22.971C14.0484 22.9824 13.9613 23.0164 13.9045 23.0657C13.8401 22.8536 13.6432 22.6718 13.3705 22.7134C13.1243 22.7552 12.9615 22.9634 12.988 23.2285C12.9918 23.2739 13.007 23.3194 13.0258 23.3686C13.0258 23.3686 12.9842 23.3762 12.954 23.38C12.7494 23.4179 12.5222 23.6262 12.5601 23.8951C12.5903 24.1374 12.8138 24.3193 13.0676 24.2889C13.1584 24.2775 13.2455 24.2549 13.3024 24.2169C13.3591 24.4442 13.5447 24.5881 13.7984 24.554C14.0598 24.5199 14.234 24.3155 14.2075 24.0541C14.1999 23.9822 14.1848 23.9405 14.1658 23.8913C14.1658 23.8913 14.1999 23.8875 14.2264 23.8837C14.4801 23.8344 14.6544 23.63 14.6317 23.3838ZM13.6432 23.914C13.4955 23.933 13.3629 23.8269 13.3439 23.6792C13.3249 23.5315 13.4311 23.3989 13.5788 23.3799C13.7303 23.3611 13.8629 23.4709 13.878 23.6148C13.897 23.7625 13.7909 23.8951 13.6432 23.914Z" fill="white"/>
</g>
</g>
<defs>
<clipPath id="clip0_819_3517">
<rect width="40" height="40" fill="white"/>
</clipPath>
<clipPath id="clip1_819_3517">
<rect width="20" height="20" fill="white" transform="translate(10 10)"/>
</clipPath>
</defs>
</svg>
