<svg width="40" height="40" viewBox="0 0 40 40" fill="none" xmlns="http://www.w3.org/2000/svg">
<g clip-path="url(#clip0_1782_3071)">
<path d="M20 0C31.0457 0 40 8.9543 40 20C40 31.0457 31.0457 40 20 40C8.95431 40 7.90517e-06 31.0457 0 20C6.58765e-07 8.95431 8.95431 1.97595e-06 20 0Z" fill="#D9D9D9"/>
<path d="M26 6C30.4183 6 34 9.58172 34 14V26C34 30.4183 30.4183 34 26 34H14C9.58172 34 6 30.4183 6 26V14C6 9.58172 9.58172 6 14 6H26Z" fill="black"/>
<path d="M16.0174 16.4872L11.125 16.4217C12.7922 13.2155 16.1394 11.0247 20.0013 11.0247C23.8618 11.0247 27.209 13.2155 28.875 16.4205L23.8165 16.4872L20.0013 20.4459L16.0174 16.4872ZM19.9308 25.3899L15.4184 29.9199C12.2008 28.2576 10 24.9017 10 21.0298C10 19.3851 10.4002 17.8336 11.1023 16.4658L19.9308 25.3899ZM24.4746 29.9753L19.9308 25.3899L28.8763 16.4217C29.5936 17.8009 30 19.3662 30 21.0285C30 24.9444 27.7501 28.3319 24.4746 29.9753Z" fill="white"/>
</g>
<defs>
<clipPath id="clip0_1782_3071">
<rect width="40" height="40" fill="white"/>
</clipPath>
</defs>
</svg>
