<svg width="40" height="40" viewBox="0 0 40 40" fill="none" xmlns="http://www.w3.org/2000/svg">
<g clip-path="url(#clip0_1784_4034)">
<path d="M20 0C31.0457 0 40 8.9543 40 20C40 31.0457 31.0457 40 20 40C8.95431 40 7.90517e-06 31.0457 0 20C6.58765e-07 8.95431 8.95431 1.97595e-06 20 0Z" fill="#D9E2E6"/>
<path d="M26 6C30.4183 6 34 9.58172 34 14V26C34 30.4183 30.4183 34 26 34H14C9.58172 34 6 30.4183 6 26V14C6 9.58172 9.58172 6 14 6H26Z" fill="#023C5B"/>
<g clip-path="url(#clip1_1784_4034)">
<path d="M24.7689 26.7241C24.4288 27.8299 24.0798 28.9331 23.7372 30.0389C21.4311 30.0402 19.1236 30.0376 16.8174 30.0389C16.6346 29.4291 16.4518 28.8181 16.2715 28.207C19.0891 27.6292 21.9232 27.1434 24.7689 26.7241Z" fill="white"/>
<path d="M30 9.96075C28.4775 14.8518 26.9485 19.7416 25.4234 24.6314C22.2582 25.438 19.1287 26.4019 16.0964 27.6215C14.3412 21.7346 12.5873 15.8489 10.8333 9.9633C12.9158 9.95947 14.9996 9.96203 17.082 9.96203C18.1431 13.8969 19.2067 17.8317 20.269 21.7665C20.3048 21.8995 20.3329 22.035 20.3917 22.159C20.664 21.2322 20.8916 20.2913 21.146 19.3594C21.9782 16.2261 22.8066 13.0928 23.6401 9.96075C25.7609 9.96203 27.8805 9.96075 30 9.96075Z" fill="white"/>
</g>
</g>
<defs>
<clipPath id="clip0_1784_4034">
<rect width="40" height="40" fill="white"/>
</clipPath>
<clipPath id="clip1_1784_4034">
<rect width="20" height="20" fill="white" transform="translate(10 10)"/>
</clipPath>
</defs>
</svg>
