<svg width="40" height="40" viewBox="0 0 40 40" fill="none" xmlns="http://www.w3.org/2000/svg">
<g clip-path="url(#clip0_1782_3564)">
<path d="M20 0C31.0457 0 40 8.9543 40 20C40 31.0457 31.0457 40 20 40C8.95431 40 7.90517e-06 31.0457 0 20C6.58765e-07 8.95431 8.95431 1.97595e-06 20 0Z" fill="#D9E7F2"/>
<path d="M26 6C30.4183 6 34 9.58172 34 14V26C34 30.4183 30.4183 34 26 34H14C9.58172 34 6 30.4183 6 26V14C6 9.58172 9.58172 6 14 6H26Z" fill="#005EA6"/>
<path fill-rule="evenodd" clip-rule="evenodd" d="M19.4227 10.452C19.9659 10.1974 20.5946 10.1974 21.139 10.452L27.5907 13.3416C28.5629 13.7909 29.084 14.8662 28.8338 15.9117L26.7079 25.2117C26.5925 25.7636 26.2672 26.2481 25.8005 26.5636L21.4747 29.5299C20.7605 30.0351 19.8064 30.0351 19.0921 29.5299L14.7664 26.5636C14.2997 26.2468 13.9718 25.7636 13.8512 25.2117L11.7292 15.9117C11.479 14.8675 11.9988 13.7922 12.9697 13.3416L19.4227 10.452Z" fill="white"/>
<mask id="mask0_1782_3564" style="mask-type:luminance" maskUnits="userSpaceOnUse" x="20" y="10" width="10" height="20">
<path d="M20.1815 10H29.1552V30H20.1815V10Z" fill="white"/>
</mask>
<g mask="url(#mask0_1782_3564)">
<mask id="mask1_1782_3564" style="mask-type:luminance" maskUnits="userSpaceOnUse" x="20" y="10" width="9" height="20">
<path d="M20.2803 10.2617C20.5764 10.2617 20.8696 10.3267 21.1385 10.4517L27.5908 13.3411C28.5633 13.7904 29.0837 14.866 28.8345 15.9113L26.708 25.2124C26.5924 25.763 26.2666 26.2487 25.8004 26.5637L21.4747 29.53C21.1255 29.7747 20.7101 29.9064 20.2829 29.9077L20.2803 10.2617Z" fill="white"/>
</mask>
<g mask="url(#mask1_1782_3564)">
<mask id="mask2_1782_3564" style="mask-type:luminance" maskUnits="userSpaceOnUse" x="12" y="6" width="25" height="28">
<path d="M12.9803 26.634L21.7446 6.97534L36.3709 13.534L27.6064 33.1927L12.9803 26.634Z" fill="white"/>
</mask>
<g mask="url(#mask2_1782_3564)">
<rect x="20.1816" y="10" width="8.97365" height="20.0003" fill="white"/>
</g>
</g>
</g>
<mask id="mask3_1782_3564" style="mask-type:luminance" maskUnits="userSpaceOnUse" x="12" y="10" width="17" height="18">
<path d="M12.2052 10.6666H28.4904V27.6666H12.2052V10.6666Z" fill="white"/>
</mask>
<g mask="url(#mask3_1782_3564)">
<mask id="mask4_1782_3564" style="mask-type:luminance" maskUnits="userSpaceOnUse" x="12" y="10" width="17" height="18">
<path d="M20.8463 11.1053L27.3075 13.9987C27.962 14.3127 28.3059 15.0443 28.1321 15.7513L26.0067 25.0519C25.9289 25.427 25.7083 25.7566 25.3916 25.9687L23.3948 27.3372C20.9383 27.0572 20.0168 25.0587 21.1746 23.8906L21.4877 23.6304C21.2827 24.3136 21.4734 25.0546 21.9836 25.5519C21.8643 24.6106 22.403 23.2433 23.0924 22.315L24.7747 20.914C25.7408 20.0519 25.8628 19.1913 25.8628 18.2433L25.4747 18.414L25.1615 17.9363L25.0191 18.6043L23.2116 19.4713L22.8793 19.3319L24.21 17.703L24.6853 18.2472L24.9579 17.0196L25.1111 16.8853L25.4448 17.3696L25.6341 16.6183C26.3926 16.1043 26.2587 15.3696 25.9263 15.177L24.9681 15.1406L25.0552 14.983L25.7668 14.823C25.7642 13.9517 25.041 14.2423 24.5996 14.5327C23.7816 15.0246 22.9262 15.4506 22.0408 15.8046C20.0503 15.8372 19.5312 15.634 17.9343 16.668C16.5542 17.0833 15.1275 17.3266 13.689 17.3933C14.6772 18.534 16.2439 18.6446 17.0617 18.6706C15.5545 18.9896 14.3056 20.043 13.7347 21.478L14.5499 25.0519L12.4271 15.7513C12.2533 15.0417 12.6023 14.3072 13.262 13.9987L19.7143 11.1053C20.0726 10.9363 20.488 10.9363 20.8463 11.1053ZM14.7077 25.4737C14.6966 25.4588 14.6834 25.4435 14.6834 25.4257C14.6886 25.4375 14.6994 25.4584 14.7077 25.4737ZM14.7174 25.4883C14.7218 25.4987 14.716 25.4889 14.7077 25.4737C14.7115 25.4786 14.7147 25.4834 14.7174 25.4883Z" fill="white"/>
</mask>
<g mask="url(#mask4_1782_3564)">
<mask id="mask5_1782_3564" style="mask-type:luminance" maskUnits="userSpaceOnUse" x="4" y="3" width="33" height="33">
<path d="M4.22736 20.6706L18.7833 3.03632L36.332 17.608L21.7758 35.2423L4.22736 20.6706Z" fill="white"/>
</mask>
<g mask="url(#mask5_1782_3564)">
<rect x="12.2051" y="10.6666" width="16.2855" height="17.0002" fill="#005EA6"/>
</g>
</g>
</g>
<mask id="mask6_1782_3564" style="mask-type:luminance" maskUnits="userSpaceOnUse" x="17" y="17" width="5" height="2">
<path d="M17.8551 17.6666H21.511V19H17.8551V17.6666Z" fill="white"/>
</mask>
<g mask="url(#mask6_1782_3564)">
<mask id="mask7_1782_3564" style="mask-type:luminance" maskUnits="userSpaceOnUse" x="18" y="17" width="4" height="2">
<path d="M21.3216 17.7227L21.075 18.1043L18.1432 18.9377L19.7076 18.034L19.2819 17.6993L21.3216 17.7227Z" fill="white"/>
</mask>
<g mask="url(#mask7_1782_3564)">
<mask id="mask8_1782_3564" style="mask-type:luminance" maskUnits="userSpaceOnUse" x="17" y="16" width="5" height="4">
<path d="M17.8225 17.7877L21.0879 16.8607L21.6486 18.8449L18.3823 19.772L17.8225 17.7877Z" fill="white"/>
</mask>
<g mask="url(#mask8_1782_3564)">
<rect x="17.8551" y="17.6667" width="3.65593" height="1.33335" fill="#005EA6"/>
</g>
</g>
</g>
</g>
<defs>
<clipPath id="clip0_1782_3564">
<rect width="40" height="40" fill="white"/>
</clipPath>
</defs>
</svg>
