<svg width="40" height="40" viewBox="0 0 40 40" fill="none" xmlns="http://www.w3.org/2000/svg">
<g clip-path="url(#clip0_819_3733)">
<path d="M20 0C31.0457 0 40 8.9543 40 20C40 31.0457 31.0457 40 20 40C8.95431 40 7.90517e-06 31.0457 0 20C6.58765e-07 8.95431 8.95431 1.97595e-06 20 0Z" fill="#CCE3F5"/>
<path d="M26 6C30.4183 6 34 9.58172 34 14V26C34 30.4183 30.4183 34 26 34H14C9.58172 34 6 30.4183 6 26V14C6 9.58172 9.58172 6 14 6H26Z" fill="#0071CE"/>
<path d="M19.9981 16.733C20.4667 16.733 20.8524 16.4893 20.9045 16.1745L21.3675 10.9419C21.3675 10.4246 20.762 10 19.9998 10C19.2387 10 18.6339 10.4246 18.6339 10.9419L19.0956 16.1745C19.1472 16.4893 19.5328 16.733 19.9998 16.733H19.9981Z" fill="white"/>
<path d="M17.1701 18.3674C17.4053 17.9622 17.3869 17.5061 17.1398 17.3041L12.8388 14.2873C12.3918 14.0286 11.7211 14.3405 11.3406 15.0003C10.9589 15.6589 11.0264 16.3954 11.4728 16.6541L16.2344 18.8715C16.5326 18.982 16.9383 18.7696 17.1718 18.3645L17.1701 18.3674Z" fill="white"/>
<path d="M22.8284 18.3645C23.063 18.7697 23.467 18.982 23.7652 18.8715L28.5274 16.6541C28.976 16.3954 29.0401 15.6589 28.6613 15.0003C28.2791 14.3405 27.6072 14.0286 27.1615 14.2873L22.8605 17.3042C22.6144 17.5061 22.5961 17.9622 22.8302 18.3674L22.8284 18.3645Z" fill="white"/>
<path d="M19.9981 23.2687C20.4667 23.2687 20.8524 23.5107 20.9045 23.8255L21.3675 29.0575C21.3675 29.576 20.762 30 19.9998 30C19.2387 30 18.6339 29.576 18.6339 29.0575L19.0956 23.8255C19.1472 23.5107 19.5328 23.2687 19.9998 23.2687H19.9981Z" fill="white"/>
<path d="M22.8284 21.6343C23.063 21.2286 23.467 21.0175 23.7652 21.1296L28.5274 23.3448C28.976 23.604 29.0401 24.341 28.6613 25.0009C28.2791 25.6584 27.6072 25.9708 27.1615 25.7127L22.8605 22.6987C22.6144 22.4944 22.5961 22.0383 22.8302 21.6338L22.8284 21.6343Z" fill="white"/>
<path d="M17.1701 21.6338C17.4052 22.0383 17.3869 22.4944 17.1398 22.6987L12.8388 25.7127C12.3918 25.9708 11.7212 25.6584 11.3406 25.0009C10.9589 24.3411 11.0264 23.604 11.4728 23.3448L16.2344 21.1296C16.5326 21.0175 16.9383 21.2286 17.1718 21.6343L17.1701 21.6338Z" fill="white"/>
</g>
<defs>
<clipPath id="clip0_819_3733">
<rect width="40" height="40" fill="white"/>
</clipPath>
</defs>
</svg>
