<svg width="40" height="40" viewBox="0 0 40 40" fill="none" xmlns="http://www.w3.org/2000/svg">
<g clip-path="url(#clip0_1693_220)">
<path d="M20 0C31.0457 0 40 8.9543 40 20C40 31.0457 31.0457 40 20 40C8.95431 40 7.90517e-06 31.0457 0 20C6.58765e-07 8.95431 8.95431 1.97595e-06 20 0Z" fill="#FFD9DB"/>
<path d="M26 6C30.4183 6 34 9.58172 34 14V26C34 30.4183 30.4183 34 26 34H14C9.58172 34 6 30.4183 6 26V14C6 9.58172 9.58172 6 14 6H26Z" fill="#FE000C"/>
<path fill-rule="evenodd" clip-rule="evenodd" d="M10 23.6546H13.4729L16.5949 19.641L18.5414 21.6133L14.0871 27.1917H17.5724L20.4245 23.4948L25.7929 28.96H30L22.2842 21.1986L28.361 13.5194H24.8739L20.3833 19.2876L18.4399 17.3332L23.4351 11.04H19.9573L16.5457 15.4315L14.6934 13.5194H10.5435L14.7228 17.7407L10 23.6546Z" fill="white"/>
</g>
<defs>
<clipPath id="clip0_1693_220">
<rect width="40" height="40" fill="white"/>
</clipPath>
</defs>
</svg>
