<svg width="40" height="40" viewBox="0 0 40 40" fill="none" xmlns="http://www.w3.org/2000/svg">
<g clip-path="url(#clip0_1782_843)">
<path d="M20 0C31.0457 0 40 8.9543 40 20C40 31.0457 31.0457 40 20 40C8.95431 40 7.90517e-06 31.0457 0 20C6.58765e-07 8.95431 8.95431 1.97595e-06 20 0Z" fill="#D9D9D9"/>
<path d="M26 6C30.4183 6 34 9.58172 34 14V26C34 30.4183 30.4183 34 26 34H14C9.58172 34 6 30.4183 6 26V14C6 9.58172 9.58172 6 14 6H26Z" fill="black"/>
<g clip-path="url(#clip1_1782_843)">
<path d="M15 24.1666C15.4602 24.1666 15.8333 24.5397 15.8333 25V28.3333C15.8333 28.7936 15.4602 29.1666 15 29.1666H11.6667C11.2064 29.1666 10.8333 28.7936 10.8333 28.3333V25C10.8333 24.5397 11.2064 24.1666 11.6667 24.1666H15Z" fill="white"/>
<path d="M21.6667 24.1666C22.1269 24.1666 22.5 24.5397 22.5 25V28.3333C22.5 28.7936 22.1269 29.1666 21.6667 29.1666H18.3333C17.8731 29.1666 17.5 28.7936 17.5 28.3333V25C17.5 24.5397 17.8731 24.1666 18.3333 24.1666H21.6667Z" fill="white"/>
<path d="M28.3333 24.1666C28.7936 24.1666 29.1667 24.5397 29.1667 25V28.3333C29.1667 28.7936 28.7936 29.1666 28.3333 29.1666H25C24.5398 29.1666 24.1667 28.7936 24.1667 28.3333V25C24.1667 24.5397 24.5398 24.1666 25 24.1666H28.3333Z" fill="white"/>
<path d="M15 17.5C15.4602 17.5 15.8333 17.8731 15.8333 18.3333V21.6666C15.8333 22.1269 15.4602 22.5 15 22.5H11.6667C11.2064 22.5 10.8333 22.1269 10.8333 21.6666V18.3333C10.8333 17.8731 11.2064 17.5 11.6667 17.5H15Z" fill="white"/>
<path d="M21.6667 17.5C22.1269 17.5 22.5 17.8731 22.5 18.3333V21.6666C22.5 22.1269 22.1269 22.5 21.6667 22.5H18.3333C17.8731 22.5 17.5 22.1269 17.5 21.6666V18.3333C17.5 17.8731 17.8731 17.5 18.3333 17.5H21.6667Z" fill="white"/>
<path d="M28.3333 17.5C28.7936 17.5 29.1667 17.8731 29.1667 18.3333V21.6666C29.1667 22.1269 28.7936 22.5 28.3333 22.5H25C24.5398 22.5 24.1667 22.1269 24.1667 21.6666V18.3333C24.1667 17.8731 24.5398 17.5 25 17.5H28.3333Z" fill="white"/>
<path d="M15 10.8333C15.4602 10.8333 15.8333 11.2064 15.8333 11.6666V15C15.8333 15.4602 15.4602 15.8333 15 15.8333H11.6667C11.2064 15.8333 10.8333 15.4602 10.8333 15V11.6666C10.8333 11.2064 11.2064 10.8333 11.6667 10.8333H15Z" fill="white"/>
<path d="M21.6667 10.8333C22.1269 10.8333 22.5 11.2064 22.5 11.6666V15C22.5 15.4602 22.1269 15.8333 21.6667 15.8333H18.3333C17.8731 15.8333 17.5 15.4602 17.5 15V11.6666C17.5 11.2064 17.8731 10.8333 18.3333 10.8333H21.6667Z" fill="white"/>
<path d="M28.3333 10.8333C28.7936 10.8333 29.1667 11.2064 29.1667 11.6666V15C29.1667 15.4602 28.7936 15.8333 28.3333 15.8333H25C24.5398 15.8333 24.1667 15.4602 24.1667 15V11.6666C24.1667 11.2064 24.5398 10.8333 25 10.8333H28.3333Z" fill="white"/>
</g>
</g>
<defs>
<clipPath id="clip0_1782_843">
<rect width="40" height="40" fill="white"/>
</clipPath>
<clipPath id="clip1_1782_843">
<rect width="20" height="20" fill="white" transform="translate(10 10)"/>
</clipPath>
</defs>
</svg>
