<svg width="61" height="74" viewBox="0 0 61 74" fill="none" xmlns="http://www.w3.org/2000/svg">
<path d="M7.15082 59.8402V60.7217C6.54263 60.009 5.63956 59.5777 4.40476 59.5777C1.99043 59.5777 0 61.7345 0 64.5289C0 67.3234 1.99043 69.4802 4.40476 69.4802C5.63956 69.4802 6.54263 69.0488 7.15082 68.3361V69.2176H9.91531V59.8402H7.15082ZM4.95766 66.817C3.68599 66.817 2.76449 65.9355 2.76449 64.5289C2.76449 63.1223 3.68599 62.2408 4.95766 62.2408C6.22932 62.2408 7.15082 63.1223 7.15082 64.5289C7.15082 65.9355 6.22932 66.817 4.95766 66.817Z" fill="white"/>
<path d="M17.454 59.5777C16.2192 59.5777 15.3161 60.009 14.708 60.7217V59.8402H11.9435V74.0001L14.708 72.9686V68.3361C15.3161 69.0488 16.2192 69.4802 17.454 69.4802C19.8683 69.4802 21.8588 67.3234 21.8588 64.5289C21.8588 61.7345 19.8683 59.5777 17.454 59.5777ZM16.9011 66.817C15.6295 66.817 14.708 65.9355 14.708 64.5289C14.708 63.1223 15.6295 62.2408 16.9011 62.2408C18.1728 62.2408 19.0943 63.1223 19.0943 64.5289C19.0943 65.9355 18.1728 66.817 16.9011 66.817Z" fill="white"/>
<path d="M26.1907 61.5094V59.8402H23.4262V69.2176H26.1907V64.979C26.1907 63.1223 27.8125 62.6534 28.9552 62.841V59.6527C27.7941 59.6527 26.5593 60.2528 26.1907 61.5094Z" fill="white"/>
<path d="M31.6297 59.015C32.5327 59.015 33.2884 58.2461 33.2884 57.3271C33.2884 56.4081 32.5327 55.6392 31.6297 55.6392C30.7266 55.6392 29.971 56.4081 29.971 57.3271C29.971 58.2461 30.7266 59.015 31.6297 59.015ZM30.2474 69.2176H33.0119V59.8402H30.2474V69.2176Z" fill="white"/>
<path d="M39.4581 69.4802C41.2642 69.4802 42.8308 68.5237 43.6232 67.0608L41.2089 65.6542C40.914 66.3106 40.2321 66.7045 39.4212 66.7045C38.2233 66.7045 37.3386 65.823 37.3386 64.5289C37.3386 63.2348 38.2233 62.3534 39.4212 62.3534C40.2321 62.3534 40.8956 62.7472 41.2089 63.4036L43.6232 61.9783C42.8308 60.5342 41.2458 59.5777 39.4581 59.5777C36.6567 59.5777 34.5741 61.7345 34.5741 64.5289C34.5741 67.3234 36.6567 69.4802 39.4581 69.4802Z" fill="white"/>
<path d="M48.979 69.4802C51.6882 69.4802 53.8629 67.3234 53.8629 64.5289C53.8629 61.7345 51.6882 59.5777 48.979 59.5777C46.2698 59.5777 44.0951 61.7345 44.0951 64.5289C44.0951 67.3234 46.2698 69.4802 48.979 69.4802ZM48.979 66.742C47.7811 66.742 46.8596 65.8605 46.8596 64.5289C46.8596 63.1973 47.7811 62.3159 48.979 62.3159C50.177 62.3159 51.0985 63.1973 51.0985 64.5289C51.0985 65.8605 50.177 66.742 48.979 66.742Z" fill="white"/>
<path d="M60.6466 62.5409V59.8402H58.7483V57.2146L55.9838 58.0585V59.8402H54.5094V62.5409H55.9838V65.8605C55.9838 68.4862 57.0343 69.5927 60.6466 69.2176V66.667C59.4302 66.742 58.7483 66.667 58.7483 65.8605V62.5409H60.6466Z" fill="white"/>
<path d="M45.5789 18.1184C36.2227 21.4644 26.8666 24.813 17.5104 28.159C15.9864 28.7038 14.4424 27.3978 14.7342 25.8106C15.5998 21.0739 16.4653 16.3347 17.3333 11.598C17.4231 11.1079 17.685 10.6651 18.0741 10.3491C22.1274 7.0553 26.1831 3.76399 30.2364 0.470189C31.0096 -0.156728 32.1171 -0.156727 32.8903 0.47019C36.9685 3.78141 41.0442 7.09262 45.1224 10.4038C45.4691 10.685 45.716 11.0706 45.8283 11.5009C46.185 12.8742 46.5442 14.2449 46.9008 15.6182C47.1752 16.668 46.6015 17.7527 45.5789 18.1184ZM13.1429 35.1795C12.669 37.5802 12.195 39.9834 11.7236 42.3841C11.544 43.2971 11.988 44.2225 12.8161 44.6479C16.5875 46.5884 23.1351 49.2279 31.5633 49.2279C35.1701 49.2279 42.2714 48.7453 50.1434 44.735C51.0763 44.2598 51.5777 43.2249 51.3856 42.1975C50.6797 38.431 48.9711 29.3183 48.0133 24.201C47.7763 22.9322 46.4569 22.1784 45.2396 22.6138C34.993 26.2808 24.7464 29.9452 14.4998 33.6122C13.7989 33.861 13.2851 34.4556 13.1429 35.1795Z" fill="url(#paint0_linear)"/>
<defs>
<linearGradient id="paint0_linear" x1="51.1821" y1="48.9553" x2="25.4293" y2="3.74735" gradientUnits="userSpaceOnUse">
<stop offset="0.1075" stop-color="#C65CFF"/>
<stop offset="0.185" stop-color="#BA6BFF"/>
<stop offset="0.333" stop-color="#9991FF"/>
<stop offset="0.5283" stop-color="#66CCFF"/>
<stop offset="0.8107" stop-color="#42F0DB"/>
<stop offset="0.9726" stop-color="#33FFCC"/>
</linearGradient>
</defs>
</svg>
