<?xml version="1.0" encoding="UTF-8" standalone="no"?>
<!-- Created with Inkscape (http://www.inkscape.org/) -->

<svg
   width="180mm"
   height="180mm"
   viewBox="15 60 180 180"
   version="1.1"
   id="svg1"
   xml:space="preserve"
   inkscape:version="1.4.2 (2aeb623e1d, 2025-05-12)"
   sodipodi:docname="alphaq_red.svg"
   xmlns:inkscape="http://www.inkscape.org/namespaces/inkscape"
   xmlns:sodipodi="http://sodipodi.sourceforge.net/DTD/sodipodi-0.dtd"
   xmlns="http://www.w3.org/2000/svg"
   xmlns:svg="http://www.w3.org/2000/svg"><sodipodi:namedview
     id="namedview1"
     pagecolor="#000000"
     bordercolor="#999999"
     borderopacity="1"
     inkscape:showpageshadow="2"
     inkscape:pageopacity="0"
     inkscape:pagecheckerboard="0"
     inkscape:deskcolor="#d1d1d1"
     inkscape:document-units="mm"
     inkscape:export-bgcolor="#00000000"
     inkscape:zoom="0.26665354"
     inkscape:cx="-221.26089"
     inkscape:cy="103.13008"
     inkscape:window-width="1978"
     inkscape:window-height="1088"
     inkscape:window-x="0"
     inkscape:window-y="0"
     inkscape:window-maximized="1"
     inkscape:current-layer="layer1" /><defs
     id="defs1"><inkscape:path-effect
       effect="fillet_chamfer"
       id="path-effect6"
       is_visible="true"
       lpeversion="1"
       nodesatellites_param="F,0,0,1,0,0,0,1 @ F,0,0,1,0,0,0,1 @ F,0,0,1,0,0,0,1 @ F,0,0,1,0,0,0,1 @ F,0,0,1,0,0,0,1 @ F,0,0,1,0,0,0,1 @ F,0,0,1,0,0,0,1"
       radius="0"
       unit="px"
       method="auto"
       mode="F"
       chamfer_steps="1"
       flexible="false"
       use_knot_distance="true"
       apply_no_radius="true"
       apply_with_radius="true"
       only_selected="false"
       hide_knots="false" /></defs><g
     inkscape:label="Layer 1"
     inkscape:groupmode="layer"
     id="layer1"><path
       id="path2-6"
       style="fill:#ac0000;stroke-width:0.328952;fill-opacity:1"
       d="m 105.00022,69.789483 a 78.71064,78.71064 0 0 0 -78.710435,78.710967 78.71064,78.71064 0 0 0 77.363745,78.69907 v 0.002 h 0.14883 a 78.71064,78.71064 0 0 0 1.19786,0.009 78.71064,78.71064 0 0 0 1.19786,-0.009 h 77.49501 v -0.005 l -18.20716,-17.67127 h -0.002 l -5.17229,-5.02554 a 78.71064,78.71064 0 0 0 23.39857,-55.99916 78.71064,78.71064 0 0 0 -78.71044,-78.710967 z m 0,17.69556 a 61.015251,61.015251 0 0 1 61.01539,61.015407 61.015251,61.015251 0 0 1 -61.01539,61.01539 61.015251,61.015251 0 0 1 -61.015395,-61.01539 61.015251,61.015251 0 0 1 61.015395,-61.015407 z" /><path
       id="path4"
       style="fill:#ac0000;fill-opacity:1;stroke-width:0.259928"
       inkscape:transform-center-x="-0.54522087"
       inkscape:transform-center-y="-15.285503"
       d="m 105.45934,103.01833 c -0.0717,10e-4 -21.830193,47.16415 -34.585389,74.901 a 3.4833248,4.3960254 0 0 0 1.669245,4.69566 3.4833248,4.3960254 0 0 0 2.57907,0.4608 h 4.62e-4 l 8.391579,-9.21843 21.665053,-23.79892 21.34107,23.94084 7.97369,8.9451 a 3.4833248,4.3960254 0 0 0 2.96179,-0.30953 3.4833248,4.3960254 0 0 0 1.68821,-4.57768 c -3.62706,-8.09996 -7.99028,-17.84191 -12.35575,-27.58406 -10.6328,-23.72745 -21.27828,-47.45616 -21.32903,-47.45478 z" /><path
       style="fill:#ffffff;stroke-width:0.264583"
       d="m -449.12949,-17.085905 -22.06754,-22.243542"
       id="path25" /></g></svg>
