<svg width="550" height="550" viewBox="0 0 550 550" fill="none" xmlns="http://www.w3.org/2000/svg">
<path d="M224.847 208.935L325.153 108.63V133.706L249.924 208.935H224.847Z" fill="#111111"/>
<path d="M82.4472 299.614H102.575C106.788 299.614 109.948 298.678 112.054 296.806C114.16 294.933 115.214 291.891 115.214 287.678C115.214 283.621 114.16 280.695 112.054 278.901C109.948 277.029 106.788 276.093 102.575 276.093H82.4472V299.614ZM64.0746 261.816H109.128C112.873 261.816 116.228 262.44 119.192 263.688C122.235 264.858 124.809 266.497 126.916 268.603C129.1 270.71 130.739 273.167 131.831 275.976C133.001 278.706 133.586 281.671 133.586 284.869C133.586 289.784 132.533 294.036 130.427 297.625C128.398 301.213 125.044 303.944 120.363 305.816V306.05C122.625 306.675 124.497 307.65 125.98 308.976C127.462 310.224 128.671 311.746 129.607 313.54C130.544 315.256 131.207 317.168 131.597 319.274C132.065 321.38 132.377 323.487 132.533 325.593C132.611 326.92 132.689 328.48 132.767 330.274C132.845 332.069 132.962 333.902 133.118 335.774C133.352 337.647 133.664 339.441 134.054 341.157C134.522 342.796 135.186 344.2 136.044 345.37H117.671C116.657 342.718 116.033 339.558 115.799 335.891C115.565 332.225 115.214 328.714 114.746 325.359C114.121 320.99 112.795 317.792 110.767 315.763C108.738 313.735 105.423 312.721 100.82 312.721H82.4472V345.37H64.0746V261.816ZM143.847 261.816H162.219V345.37H143.847V261.816ZM192.051 301.135H206.328C208.434 301.135 210.463 300.979 212.413 300.667C214.363 300.355 216.08 299.77 217.562 298.912C219.044 297.976 220.215 296.689 221.073 295.05C222.009 293.412 222.477 291.267 222.477 288.614C222.477 285.961 222.009 283.816 221.073 282.178C220.215 280.539 219.044 279.291 217.562 278.433C216.08 277.497 214.363 276.873 212.413 276.561C210.463 276.249 208.434 276.093 206.328 276.093H192.051V301.135ZM173.678 261.816H211.36C216.587 261.816 221.034 262.596 224.7 264.156C228.367 265.639 231.332 267.628 233.594 270.124C235.935 272.621 237.612 275.468 238.626 278.667C239.718 281.866 240.264 285.181 240.264 288.614C240.264 291.969 239.718 295.284 238.626 298.561C237.612 301.76 235.935 304.607 233.594 307.104C231.332 309.6 228.367 311.629 224.7 313.189C221.034 314.671 216.587 315.412 211.36 315.412H192.051V345.37H173.678V261.816ZM265.54 277.263H240.498V261.816H308.956V277.263H283.913V345.37H265.54V277.263ZM313.909 261.816H332.282V345.37H313.909V261.816ZM362.114 329.923H378.497C381.149 329.923 383.724 329.494 386.22 328.636C388.717 327.778 390.94 326.373 392.891 324.423C394.841 322.395 396.401 319.781 397.572 316.582C398.742 313.384 399.327 309.483 399.327 304.88C399.327 300.667 398.898 296.884 398.04 293.529C397.259 290.096 395.933 287.171 394.061 284.752C392.189 282.334 389.692 280.5 386.571 279.252C383.529 277.926 379.745 277.263 375.22 277.263H362.114V329.923ZM343.741 261.816H379.784C385.167 261.816 390.16 262.674 394.763 264.39C399.444 266.107 403.462 268.681 406.816 272.114C410.249 275.546 412.902 279.837 414.774 284.986C416.724 290.135 417.7 296.181 417.7 303.125C417.7 309.21 416.919 314.827 415.359 319.976C413.799 325.125 411.419 329.572 408.221 333.317C405.1 337.061 401.16 340.026 396.401 342.21C391.72 344.317 386.181 345.37 379.784 345.37H343.741V261.816ZM425.799 261.816H488.289V277.263H444.171V295.167H484.661V309.444H444.171V329.923H489.225V345.37H425.799V261.816Z" fill="#111111"/>
</svg>
