<svg width="100" height="100" viewBox="0 0 100 100" fill="none" xmlns="http://www.w3.org/2000/svg">
<rect width="100" height="100" rx="20" fill="url(#paint0_linear_5069_93349)"/>
<path d="M50.0006 37.5384C51.5301 37.5384 52.7699 36.2986 52.7699 34.7692C52.7699 33.2398 51.5301 32 50.0006 32C48.4713 32 47.2314 33.2398 47.2314 34.7692C47.2314 36.2986 48.4713 37.5384 50.0006 37.5384Z" fill="#191919"/>
<path d="M58.3423 68H58.3374H58.3299H41.6452C41.5538 68 41.4636 67.9952 41.3747 67.9857C40.252 67.866 39.3369 67.0088 39.0753 65.8817C39.0261 65.6697 39 65.4493 39 65.2212V57.0453C39 56.6499 39.0786 56.2745 39.2204 55.9333C39.3518 55.5646 39.5604 55.2196 39.8458 54.926L47.3424 47.2067V42.7786C47.3424 41.244 48.5266 40 49.9875 40C51.4484 40 52.6326 41.244 52.6326 42.7786V48.3357C52.6326 48.7398 52.5505 49.1238 52.4029 49.4701C52.2706 49.8044 52.0735 50.1172 51.8119 50.3861L44.2903 58.1315V62.4423H55.7097V56.4579C55.7097 54.9231 56.894 53.6791 58.3548 53.6791C59.8157 53.6791 61 54.9231 61 56.4579V65.2212C61 66.756 59.8157 68 58.3548 68H58.3471H58.3423Z" fill="#191919"/>
<defs>
<linearGradient id="paint0_linear_5069_93349" x1="50" y1="4.5" x2="50" y2="103.5" gradientUnits="userSpaceOnUse">
<stop stop-color="#636EC0"/>
<stop offset="1" stop-color="#942FE5" stop-opacity="0.75"/>
</linearGradient>
</defs>
</svg>
