<svg width="24" height="24" viewBox="0 0 24 24" fill="none" xmlns="http://www.w3.org/2000/svg">
<g clip-path="url(#clip0_1782_804)">
<path fill-rule="evenodd" clip-rule="evenodd" d="M12.4627 7.16923C12.7095 7.2 12.9563 7.23077 13.1722 7.29231L14.437 0.123077C14.1902 0.0923077 13.9434 0.0307692 13.7275 0L12.4627 7.16923ZM8.69923 8.43077L3.17738 3.75385C2.93059 4.03077 2.6838 4.33846 2.43702 4.61538L7.92802 9.26154C8.14396 8.98462 8.42159 8.67692 8.69923 8.43077ZM18.2931 1.69231C18.108 1.56923 17.892 1.44615 17.7069 1.35385L14.0977 7.63077C14.3136 7.72308 14.4987 7.84615 14.6838 7.96923L18.2931 1.69231ZM21.0077 4.03077L15.5167 8.67692C15.6401 8.83077 15.7635 8.98462 15.8869 9.13846L21.3779 4.49231C21.2545 4.33846 21.1311 4.18462 21.0077 4.03077ZM7.24936 10.9231C7.3419 10.4923 7.49614 10.0923 7.71208 9.69231L0.956298 7.2C0.802056 7.6 0.647815 8 0.524422 8.43077L7.24936 10.9231ZM16.8432 12C16.8432 14.6769 14.6838 16.8615 12 16.8615C9.59383 16.8615 7.61954 15.1077 7.21851 12.8308L0.493573 15.2923C0.647815 15.8154 0.832905 16.3385 1.04884 16.8308L7.74293 14.3692L2.25193 19.0154C2.59126 19.5077 2.99229 19.9692 3.39332 20.4L8.51414 16.0615L5.18252 21.9077C5.70694 22.2769 6.26221 22.6154 6.84833 22.8923L9.96401 17.3846L8.88432 23.6308C9.56298 23.8154 10.2416 23.9385 10.9512 24L11.9692 18.1538L12.9871 24C13.7275 23.9385 14.4679 23.8154 15.1465 23.6308L14.1902 18.2154L16.9357 22.9846C17.6761 22.6462 18.3856 22.2154 19.0334 21.7538L16.5347 17.3846L20.3599 20.6154C20.9769 20 21.5321 19.3538 21.9949 18.6154L18.5707 15.7231L22.7661 17.2615C23.1671 16.4615 23.4447 15.6 23.6607 14.7077L19.9897 13.3538H23.9075C23.9692 12.8923 24 12.4308 24 11.9692C24 11.4462 23.9692 10.8923 23.9075 10.4H16.5656C16.7198 10.8923 16.8432 11.4462 16.8432 12ZM7.12596 12C7.12596 11.7231 7.15681 11.4769 7.18766 11.2H0.0308483C0 11.4769 0 11.7231 0 11.9692C0 12.2154 0 12.4308 0.0308483 12.6769H7.18766C7.12596 12.4615 7.12596 12.2462 7.12596 12ZM9.16195 8.03077C9.40874 7.84615 9.71722 7.69231 9.99486 7.53846L6.41645 1.26154C6.13882 1.41538 5.86118 1.56923 5.58355 1.75385L9.16195 8.03077ZM9.50128 0.153846C9.74807 0.0923077 10.0257 0.0615385 10.3033 0L11.5681 7.16923C11.2905 7.2 11.0437 7.23077 10.7661 7.32308L9.50128 0.153846Z" fill="black"/>
</g>
<defs>
<clipPath id="clip0_1782_804">
<rect width="24" height="24" fill="white"/>
</clipPath>
</defs>
</svg>
