<svg width="24" height="24" viewBox="0 0 24 24" fill="none" xmlns="http://www.w3.org/2000/svg">
<path d="M6.7554 20.4706C7.08948 20.4706 7.25468 20.7348 7.25468 21.2449C7.25468 21.735 7.08948 22 6.7554 22H1.48546C1.15072 22 1 21.735 1 21.2449C1 20.7348 1.15072 20.4706 1.48546 20.4706H6.7554Z" fill="black"/>
<path d="M14.6064 20.4706C14.9405 20.4706 15.1057 20.7348 15.1057 21.2449C15.1057 21.735 14.9405 22 14.6064 22H9.35094C9.03436 22 8.851 21.735 8.851 21.2449C8.851 20.7348 9.03436 20.4706 9.35094 20.4706H14.6064Z" fill="black"/>
<path d="M22.497 20.4706C22.8311 20.4706 23 20.7348 23 21.2449C23 21.735 22.8311 22 22.497 22H17.1912C16.8709 22 16.702 21.735 16.702 21.2449C16.702 20.7348 16.8709 20.4706 17.1912 20.4706H22.497Z" fill="black"/>
<path d="M17.9491 2C18.9685 2 19.854 2.26001 20.6186 2.77922C21.3849 3.29334 21.9538 4.01057 22.3491 4.94991C22.7208 5.86595 22.8969 7.25837 22.8969 9.08979V17.18H20.9919V9.08979C20.9919 7.51838 20.8735 6.4232 20.6576 5.82312C20.423 5.2288 20.0488 4.74761 19.4986 4.38866C18.9685 4.02958 18.3208 3.85539 17.5749 3.85539C16.6715 3.85539 15.8469 4.13362 15.0799 4.6717C14.3339 5.20497 13.7836 5.94602 13.4305 6.84319C13.0962 7.75856 12.9193 9.26893 12.9193 11.3835V17.18H11.0353V9.609C11.0353 7.81547 10.9355 6.60219 10.7197 5.96503C10.4851 5.32787 10.1109 4.8088 9.56222 4.43071C9.01186 4.05355 8.36343 3.85539 7.61825 3.85539C6.75381 3.85539 5.94782 4.10965 5.18093 4.64774C4.43496 5.16694 3.8846 5.88497 3.51287 6.78133C3.15983 7.6785 2.9837 9.0519 2.9837 10.9073V17.18H1.09662V2.3781H2.9837V4.94991C3.63147 3.99169 4.29859 3.31731 4.98611 2.8783C5.92926 2.29723 6.92994 2 7.97129 2C8.67751 2 9.34633 2.14206 9.99476 2.42015C10.6215 2.69836 11.1514 3.07631 11.5467 3.55335C11.9387 4.01057 12.2918 4.69071 12.5873 5.5449C13.2146 4.38867 13.9996 3.51546 14.924 2.89718C15.8647 2.29724 16.8688 2 17.9491 2Z" fill="black"/>
</svg>
