<svg width="24" height="24" viewBox="0 0 24 24" fill="none" xmlns="http://www.w3.org/2000/svg">
<path d="M23.4945 10.8533C23.8287 11.968 23.9989 13.1254 24 14.2892C24.0047 17.0632 23.0438 19.7525 21.2818 21.895C17.3578 21.0321 13.4007 20.3253 9.4206 19.7764C14.144 15.9691 20.7243 12.3247 23.4945 10.8533ZM12.3564 7.26244C10.8383 8.78099 6.1977 14.5678 6.17572 14.5952L7.09925 16.3022C8.02074 15.4259 14.7848 10.1808 14.8015 10.1678C13.9791 11.2174 7.25431 19.2972 7.10608 19.4757C5.01406 19.2214 2.94646 19.0105 0.902264 18.8487C0.620787 18.1658 0.403068 17.4581 0.251768 16.7351C4.05288 13.1753 12.3211 7.28754 12.3564 7.26244ZM12.0009 2C16.5633 2.00004 20.5287 4.54573 22.5577 8.29458C17.9584 11.0453 9.72819 17.8568 9.72819 17.8568C11.2957 15.7815 17.7525 8.44837 17.7525 8.44837L17.3367 6.46537L8.85099 12.8761L14.9861 5.72753C14.9404 4.34925 14.5729 3.33659 14.5703 3.32947C9.87527 6.13973 2.69371 12.2349 0.0284805 14.5447C0.0195369 14.3631 0 14.1837 0 14.0009C8.97937e-05 7.37299 5.37336 2 12.0009 2Z" fill="black"/>
</svg>
