<svg width="24" height="24" viewBox="0 0 24 24" fill="none" xmlns="http://www.w3.org/2000/svg">
<path d="M17.7227 20.0373C17.3146 21.3591 16.8958 22.6778 16.4847 23.9996C13.7173 24.0011 10.9483 23.998 8.18089 23.9996C7.96153 23.2707 7.74215 22.5403 7.52585 21.8099C10.9069 21.1192 14.3079 20.5385 17.7227 20.0373Z" fill="black"/>
<path d="M24 0C22.1729 5.84632 20.3382 11.6911 18.5081 17.5359C14.7098 18.5001 10.9544 19.6523 7.31568 21.11C5.20943 14.0733 3.10472 7.03819 1 0.00304416C3.49896 -0.00153998 5.99947 0.00152208 8.49843 0.00152208C9.77169 4.70486 11.048 9.40821 12.3228 14.1115C12.3658 14.2705 12.3995 14.4324 12.4701 14.5806C12.7968 13.4728 13.0699 12.3482 13.3752 11.2342C14.3738 7.48897 15.3679 3.74372 16.3681 0C18.9131 0.00152805 21.4565 2.25002e-09 24 0Z" fill="black"/>
</svg>
