<svg width="24" height="24" viewBox="0 0 24 24" fill="none" xmlns="http://www.w3.org/2000/svg">
<g clip-path="url(#clip0_1767_709)">
<path d="M6.19855 0C5.41542 0.728749 4.68293 1.51295 3.91879 2.26388C3.36823 2.26547 2.8145 2.26863 2.26394 2.26863C2.26394 8.73232 2.27502 15.1976 2.25762 21.6629C8.72037 21.6898 15.1863 21.6676 21.649 21.674C21.6506 21.1131 21.6554 20.5555 21.6664 19.9947C22.4385 19.2596 23.1694 18.4817 23.9541 17.7577C24 19.8378 23.9652 21.9148 23.9747 23.9949C15.9821 24.006 7.99262 23.9949 0 23.9996V0H6.19855Z" fill="black"/>
<path d="M24 0C23.9003 4.59587 23.9921 9.1965 23.9589 13.7924C23.9778 14.0633 23.8624 14.3088 23.6693 14.4926C23.0254 15.1802 22.3293 15.817 21.6617 16.4856C21.638 11.7392 21.6664 6.98965 21.6475 2.24328C16.9471 2.24328 12.2436 2.28605 7.54331 2.22268C8.22992 1.44958 8.95293 0.706569 9.70757 0H24Z" fill="black"/>
</g>
<defs>
<clipPath id="clip0_1767_709">
<rect width="24" height="24" fill="white"/>
</clipPath>
</defs>
</svg>
