<svg width="20" height="20" viewBox="0 0 20 20" fill="none" xmlns="http://www.w3.org/2000/svg">
<g clip-path="url(#clip0_822_4942)">
<path d="M-6.10352e-05 5.05322V14.9466H10.1083L19.9999 5.05322H-6.10352e-05ZM2.71994 6.89322H2.72411C3.44327 6.89406 4.31994 7.09739 4.95411 7.42072L4.27077 8.61239C3.57494 8.27572 3.22494 8.24406 2.82911 8.22322C2.23911 8.19156 1.94244 8.40239 1.93827 8.62989C1.93244 8.90656 2.49577 9.15739 3.02577 9.32822C3.82911 9.58322 4.85077 9.92406 5.00661 10.9116L6.47494 7.03072H8.17994L9.89994 11.6774L9.89411 7.03156H11.8691C13.7499 7.03156 14.6341 7.66822 14.6341 9.13072C14.6341 10.4432 13.7258 11.2257 12.1874 11.2257H11.5516L11.5433 12.9707L8.55327 12.9682L8.34494 12.2116C8.03661 12.3132 7.68911 12.3691 7.31994 12.3691C6.93994 12.3691 6.58244 12.3099 6.26744 12.2024L5.96911 12.9682L4.30244 12.9732L4.37744 12.5882C4.35327 12.6091 4.32994 12.6299 4.30494 12.6499C3.85911 13.0082 3.29827 13.1741 2.60744 13.1866L2.42994 13.1882C1.67566 13.1959 0.933057 13.0017 0.279106 12.6257L0.887439 11.4191C1.54577 11.8082 1.95911 11.8957 2.51744 11.8841C2.80661 11.8782 3.01577 11.8257 3.15161 11.6849C3.23158 11.6021 3.27791 11.4925 3.28161 11.3774C3.28744 11.0641 2.83994 10.9166 2.29411 10.7474C1.85161 10.6107 1.34827 10.4232 0.955772 10.1349C0.489939 9.79322 0.268272 9.36489 0.279106 8.75989C0.281936 8.33077 0.451002 7.91946 0.750772 7.61239C1.18327 7.16489 1.88161 6.89322 2.71994 6.89322ZM11.5508 8.28489V9.87156H11.9849C12.5633 9.87156 13.0241 9.67989 13.0249 9.06822C13.0249 8.47739 12.5633 8.28489 11.9849 8.28489H11.5508ZM7.31161 8.92406L6.68827 10.8924C6.87411 10.9632 7.08911 11.0032 7.31911 11.0032C7.54244 11.0032 7.75244 10.9641 7.93744 10.8982L7.32411 8.92322L7.31161 8.92406Z" fill="white"/>
</g>
<defs>
<clipPath id="clip0_822_4942">
<rect width="20" height="20" fill="white"/>
</clipPath>
</defs>
</svg>
