<svg width="20" height="20" viewBox="0 0 20 20" fill="none" xmlns="http://www.w3.org/2000/svg">
<g clip-path="url(#clip0_822_4947)">
<path d="M6.10352e-05 6.6416V10.7733C6.10352e-05 12.3291 1.08506 13.3574 2.50006 13.3574C3.18839 13.3574 3.80173 13.0941 4.24506 12.6324V13.2458H5.22506V6.6416H4.23506V10.7149C4.23506 11.7624 3.52673 12.4699 2.61256 12.4699C1.68756 12.4699 0.990894 11.7808 0.990894 10.7149V6.64244H6.10352e-05V6.6416ZM6.20006 6.6416V13.2458H7.14173V12.6416C7.57589 13.0849 8.18923 13.3583 8.85839 13.3583C9.18959 13.3614 9.51812 13.2987 9.82496 13.174C10.1318 13.0493 10.4109 12.865 10.646 12.6317C10.8811 12.3984 11.0677 12.1208 11.1948 11.815C11.3219 11.5092 11.3872 11.1811 11.3867 10.8499C11.3883 10.5179 11.3239 10.1889 11.1973 9.882C11.0708 9.57507 10.8846 9.29631 10.6494 9.0619C10.4143 8.82749 10.135 8.64208 9.82772 8.51644C9.52041 8.39079 9.19122 8.32739 8.85923 8.32994C8.54114 8.32953 8.22618 8.39281 7.93293 8.51604C7.63968 8.63926 7.37406 8.81995 7.15173 9.04744V6.64244H6.19923L6.20006 6.6416ZM14.4242 8.33994C13.0184 8.33994 11.9534 9.4816 11.9534 10.8399C11.9534 12.2733 13.0651 13.3483 14.5084 13.3483C15.3859 13.3483 16.1026 12.9624 16.5834 12.3208L15.8951 11.8116C15.5367 12.2924 15.0651 12.5174 14.5084 12.5174C13.6976 12.5174 13.0476 11.9341 12.9151 11.1508H16.8292V10.8399C16.8292 9.4066 15.8109 8.33994 14.4242 8.33994ZM19.6701 8.3966C19.1417 8.3966 18.7551 8.6416 18.5192 9.02827V8.4341H17.5767V13.2458H18.5284V10.5083C18.5284 9.76327 18.9817 9.28327 19.6042 9.28327H20.0001V8.39577H19.6701V8.3966ZM14.4042 9.16993C15.1126 9.16993 15.7076 9.65993 15.8676 10.3949H12.9334C13.1026 9.65993 13.6967 9.16993 14.4042 9.16993ZM8.79423 9.17993C9.69923 9.17993 10.4442 9.91577 10.4442 10.8499C10.446 11.2897 10.2733 11.7122 9.96397 12.0248C9.65466 12.3374 9.23399 12.5146 8.79423 12.5174C8.57544 12.5179 8.35872 12.475 8.15659 12.3913C7.95445 12.3076 7.77089 12.1846 7.61649 12.0296C7.46209 11.8746 7.33991 11.6905 7.257 11.4881C7.17408 11.2856 7.13207 11.0687 7.13339 10.8499C7.13185 10.631 7.17367 10.414 7.25642 10.2113C7.33917 10.0087 7.46123 9.82443 7.61555 9.66918C7.76987 9.51392 7.9534 9.39076 8.15556 9.30679C8.35771 9.22283 8.57449 9.17971 8.79339 9.17993H8.79423Z" fill="white"/>
</g>
<defs>
<clipPath id="clip0_822_4947">
<rect width="20" height="20" fill="white"/>
</clipPath>
</defs>
</svg>
