<svg width="24" height="24" viewBox="0 0 24 24" fill="none" xmlns="http://www.w3.org/2000/svg">
<path fill-rule="evenodd" clip-rule="evenodd" d="M11.6279 4H12.6725C13.8678 4.03509 15.0631 4.1556 16.2332 4.40578C17.2904 4.63155 18.3288 4.95495 19.3076 5.40802C20.1531 5.8016 20.9562 6.29128 21.6589 6.89842C22.3272 7.47811 22.9044 8.1661 23.3091 8.94715C23.7812 9.84566 24.0149 10.8586 23.9993 11.8654C24.0008 12.7639 23.8142 13.664 23.4503 14.4892C23.1365 15.2062 22.6879 15.8637 22.1515 16.4388C21.5554 17.0795 20.8511 17.618 20.0919 18.0635C19.3155 18.5181 18.4826 18.8781 17.6246 19.1572C16.456 19.5356 15.2419 19.7705 14.0168 19.894C12.7886 20.0146 11.5494 20.0329 10.3181 19.9459C9.08991 19.8574 7.86956 19.6591 6.68842 19.322C5.69394 19.0367 4.7277 18.6523 3.83361 18.1397C2.99599 17.6577 2.22111 17.0627 1.59054 16.3381C1.08859 15.7615 0.680763 15.1055 0.409399 14.3962C0.163132 13.7555 0.0313716 13.0766 0 12.3932V11.8288C0.029803 11.2094 0.133329 10.5916 0.334107 10.0028C0.536454 9.39259 0.836053 8.81444 1.20937 8.28662C1.98739 7.18827 3.08069 6.32637 4.28065 5.69329C5.5214 5.04038 6.87822 4.61325 8.25857 4.34781C9.36912 4.13424 10.4985 4.03204 11.6279 4ZM10.9597 4.97173C9.75813 5.04953 8.55817 5.27378 7.4335 5.70092C6.52686 6.04415 5.66884 6.52621 4.9473 7.16538C4.22105 7.80456 3.64538 8.60697 3.29872 9.49785C2.88932 10.5428 2.77952 11.6869 2.90501 12.7944C3.00853 13.6975 3.30029 14.5823 3.78028 15.3633C4.13477 15.94 4.58809 16.4586 5.10886 16.8995C5.83355 17.5112 6.68058 17.978 7.57467 18.3106C8.61777 18.7011 9.72676 18.9177 10.8389 19.0077C11.951 19.0932 13.0741 19.0657 14.1752 18.901C15.2231 18.7438 16.2552 18.4601 17.2104 18.0116C18.0826 17.6012 18.8904 17.046 19.5351 16.3397C20.1751 15.6471 20.6441 14.8081 20.895 13.9111C21.1884 12.8585 21.2166 11.7418 21.0111 10.6725C20.8197 9.68854 20.3868 8.74884 19.7437 7.96474C19.1618 7.24776 18.4167 6.66502 17.5995 6.22111C16.7211 5.74363 15.7611 5.42023 14.7776 5.21886C13.5259 4.96258 12.2365 4.89699 10.9597 4.97173Z" fill="black"/>
</svg>
