<svg width="20" height="20" viewBox="0 0 20 20" fill="none" xmlns="http://www.w3.org/2000/svg">
<path d="M17.3268 16.7022C17.5009 16.7022 17.6424 16.8434 17.6425 17.0175V19.0482C17.6424 19.1135 17.5894 19.1666 17.5241 19.1666H2.66154C2.48737 19.1665 2.34619 19.0251 2.34619 18.851V16.8206C2.34619 16.7552 2.39926 16.7022 2.46459 16.7022H17.3268ZM6.03417 0.833252C6.07364 0.833285 6.10936 0.857016 6.12485 0.893318L9.80012 9.51044H10.2018L13.8768 0.893318C13.8923 0.857027 13.928 0.833299 13.9675 0.833252H17.557C17.6114 0.83328 17.6554 0.877595 17.6554 0.932014V13.0555C17.6554 13.1099 17.6114 13.1539 17.557 13.1539H15.2756C15.2212 13.1539 15.1769 13.1099 15.1769 13.0555V4.60007H14.7752L11.1522 13.0942C11.1367 13.1304 11.101 13.1539 11.0615 13.1539H8.94014C8.90069 13.1539 8.86497 13.1304 8.84946 13.0942L5.22646 4.60007H4.82477V13.0555C4.82475 13.1099 4.78044 13.1539 4.72601 13.1539H2.44466C2.39028 13.1539 2.34621 13.1099 2.34619 13.0555V0.932014C2.34619 0.87761 2.39027 0.833304 2.44466 0.833252H6.03417Z" fill="white"/>
</svg>
