<svg width="20" height="20" viewBox="0 0 20 20" fill="none" xmlns="http://www.w3.org/2000/svg">
<path d="M10 3.20654C4.3525 3.20654 0 6.08154 0 9.99988C0 13.9182 4.35333 16.7932 10 16.7932C15.6467 16.7932 20 13.9182 20 9.99988C20 6.08154 15.6475 3.20654 10 3.20654ZM16.1117 6.40571C16.1117 7.30571 14.6742 7.99988 12.3717 8.27738C12.155 6.12738 11.5342 4.71154 10.7358 4.18321C13.1925 4.33654 16.1117 5.20571 16.1117 6.40571ZM10 13.6674C9.2 13.6674 8.545 12.4174 8.49333 10.0099C8.97417 10.049 9.47667 10.0699 10 10.0699C10.5233 10.0699 11.025 10.049 11.5058 10.0099C11.455 12.4182 10.8 13.6674 10 13.6674ZM10 8.41071C9.50833 8.41071 9.0375 8.39488 8.59167 8.36571C8.80917 6.92571 9.35833 5.74071 10 5.74071C10.6417 5.74071 11.19 6.92571 11.4075 8.36571C10.9617 8.39404 10.4917 8.41071 10 8.41071ZM9.265 4.18154C8.46833 4.70904 7.84333 6.12571 7.62833 8.27738C5.32583 7.99988 3.8875 7.30571 3.8875 6.40571C3.8875 5.20571 6.8075 4.33071 9.265 4.18154ZM1.6975 9.73321C1.6954 8.78294 2.00187 7.85766 2.57083 7.09654C2.79583 8.38571 4.6725 9.49738 7.5475 9.90488V9.99988C7.5475 13.1432 8.28 15.169 9.28667 15.8082C5.03083 15.5407 1.6975 12.9082 1.6975 9.73321ZM10.7167 15.8082C11.7225 15.169 12.4558 13.1432 12.4558 9.99988V9.90404C15.3283 9.49738 17.2092 8.38238 17.4325 7.09571C18.0022 7.85681 18.309 8.78251 18.3067 9.73321C18.3033 12.9082 14.9675 15.5407 10.7167 15.8082Z" fill="white"/>
</svg>
