<svg width="20" height="20" viewBox="0 0 20 20" fill="none" xmlns="http://www.w3.org/2000/svg">
<g clip-path="url(#clip0_822_4962)">
<path d="M10.0008 15.2292C8.87326 13.815 8.21076 12.5758 7.98992 11.515C7.77076 10.6592 7.85659 9.975 8.23242 9.46083C8.62992 8.86917 9.22242 8.58083 9.99992 8.58083C10.7774 8.58083 11.3691 8.86833 11.7666 9.46667C12.1383 9.975 12.2316 10.66 12.0049 11.5208C11.7624 12.6025 11.1008 13.8417 9.99492 15.2358L10.0008 15.2292ZM18.0016 16.1792C17.8474 17.2175 17.1399 18.0792 16.1683 18.4983C14.2908 19.315 12.4324 18.0125 10.8416 16.245C13.4724 12.9525 13.9583 10.3883 12.8291 8.73C12.1666 7.78 11.2183 7.3175 10.0008 7.3175C7.54742 7.3175 6.19826 9.3925 6.72826 11.8025C7.03659 13.1067 7.85492 14.5883 9.15909 16.2458C8.34242 17.15 7.56742 17.7925 6.88242 18.19C6.35242 18.4767 5.84492 18.655 5.35909 18.6975C3.12659 19.03 1.37742 16.8642 2.17159 14.6308C2.28159 14.3433 2.50075 13.8142 2.87575 12.9967L2.89659 12.9525C4.11659 10.3042 5.59825 7.29417 7.30075 3.95667L7.34492 3.84667L7.82826 2.91667C8.20326 2.23167 8.35742 1.925 8.95409 1.5475C9.24242 1.3725 9.59576 1.285 9.99242 1.285C10.7874 1.285 11.4074 1.75 11.6724 2.12417C11.8041 2.32333 11.9599 2.58833 12.1574 2.91833L12.6224 3.82583L12.6891 3.95833C14.3899 7.295 15.8733 10.2983 17.0883 12.9533L17.1099 12.9742L17.5541 13.9908L17.8191 14.6275C18.0216 15.1383 18.0641 15.6458 17.9966 16.1758L18.0016 16.1792ZM19.0183 14.1875C18.8633 13.7017 18.5974 13.1283 18.2683 12.4425V12.4175C16.6941 9.07917 15.2333 6.0775 13.8458 3.38083L13.7533 3.245C12.7641 1.2175 12.0566 0 10.0008 0C7.96742 0 7.10409 1.4125 6.22159 3.24833L6.15409 3.38167C4.76326 6.07833 3.30325 9.08417 1.73492 12.4208V12.465L1.26909 13.4817C1.09409 13.9017 1.00492 14.1217 0.981588 14.1875C-0.143412 17.2833 2.17575 20 4.98325 20C5.00575 20 5.09325 20 5.20409 19.9775H5.51409C6.97242 19.8 8.47576 18.8733 10.0008 17.2133C11.5249 18.8708 13.0299 19.8 14.4858 19.9775H14.7958C14.9066 20 14.9949 20 15.0166 20C17.8249 20.0025 20.1433 17.2825 19.0183 14.1875Z" fill="white"/>
</g>
<defs>
<clipPath id="clip0_822_4962">
<rect width="20" height="20" fill="white"/>
</clipPath>
</defs>
</svg>
