<svg width="24" height="24" viewBox="0 0 24 24" fill="none" xmlns="http://www.w3.org/2000/svg">
<path d="M17.9462 18.0316L12.1071 22V14.0455L17.9462 18.0316Z" fill="black"/>
<path d="M11.6737 21.8136L6.26807 18.0316L11.6737 14.2727V21.8136Z" fill="black"/>
<path d="M5.62033 17.7227L0.214282 13.9407L5.62033 10.1818V17.7227Z" fill="black"/>
<path d="M11.4594 13.9407L6.05379 17.7227V10.1818L11.4594 13.9407Z" fill="black"/>
<path d="M17.9462 17.7227L12.5406 13.9407L17.9462 10.1818V17.7227Z" fill="black"/>
<path d="M23.7853 13.9407L18.3797 17.7227V10.1818L23.7853 13.9407Z" fill="black"/>
<path d="M5.4056 9.84535L0 13.6135V6.09091L5.4056 9.84535Z" fill="black"/>
<path d="M24 13.6135L18.594 9.84535L24 6.09091V13.6135Z" fill="black"/>
<path fill-rule="evenodd" clip-rule="evenodd" d="M14.1644 8.19984L13.3844 8.73651L14.1145 8.78622L14.3653 9.4272H13.7813L13.7082 10.1499H14.2923L14.5066 10.8046L13.7448 10.8543L13.567 12.0502L13.1108 12.3365L12.8097 10.7908H12.3856L12.3535 10.7953L12.0341 11.9729L11.5552 12.1909V11.7044L11.5917 10.7953H11.1355L11.0077 10.4047L10.7203 10.6452L10.5653 12.2774L9.67564 11.7044L10.1318 11.4545L10.0908 10.7274L9.72108 10.9L9.47027 10.0771L10.045 9.99094L10.0222 9.30469L9.57986 8.74538L10.004 8.66371L10.5377 7.72266L10.8754 8.51367L11.213 8.63175V8.86346L11.8015 8.83638L11.5186 7.7089L12.513 8.11373L12.2849 8.82262L12.9193 8.70455L13.293 7.59526L14.1644 8.19984ZM10.8255 9.33177V9.86799L11.3226 9.89995L11.2086 10.1454H11.6648L11.6599 9.44984H11.2678L11.1493 9.04102L10.8255 9.33177ZM12.513 9.5546L12.5312 9.59988L12.4765 10.018L12.5268 10.1135H13.0422L12.9692 9.45916L12.513 9.5546Z" fill="black"/>
<path d="M5.62033 9.54084L0.214282 5.75444L5.62033 2V9.54084Z" fill="black"/>
<path d="M11.4594 5.75444L6.05379 9.54084V2L11.4594 5.75444Z" fill="black"/>
<path d="M17.9462 9.54084L12.5406 5.75444L17.9462 2V9.54084Z" fill="black"/>
<path d="M23.7853 5.75444L18.3797 9.54084V2L23.7853 5.75444Z" fill="black"/>
</svg>
