<svg width="24" height="24" viewBox="0 0 24 24" fill="none" xmlns="http://www.w3.org/2000/svg">
<path d="M1.46289 13.9902C1.65472 13.9902 1.85875 14.0143 2.01465 14.0742L2.13477 14.1104L2.2793 14.1582V14.1699C2.30328 14.4217 2.35048 14.6856 2.39844 14.9854V14.9971L2.18262 15.0332V15.0215C2.06268 14.6377 1.87065 14.2539 1.37891 14.2539C0.959397 14.2541 0.767578 14.5662 0.767578 14.8779C0.76777 15.1895 0.972075 15.4177 1.47559 15.6455L1.63086 15.7168C2.01467 15.8967 2.54297 16.2089 2.54297 16.8926C2.54292 17.6242 1.97892 18.1279 1.15137 18.1279C0.935559 18.1279 0.719901 18.0795 0.540039 18.0195L0.275391 17.9238L0.179688 17.8877C0.131712 17.7315 0.0599281 17.3237 0 16.9521V16.9404L0.204102 16.8682V16.8809C0.348113 17.2527 0.683984 17.8643 1.27148 17.8643C1.64313 17.8642 1.89537 17.5763 1.89551 17.1807C1.89551 16.8329 1.71524 16.6048 1.25977 16.377L1.06738 16.2812C0.623666 16.0414 0.156378 15.7292 0.15625 15.1416C0.15625 14.4581 0.695473 13.9784 1.46289 13.9902ZM5.33691 13.9902C5.7687 13.9902 6.11739 14.0741 6.32129 14.1221L6.42871 14.1455H6.44043L6.52441 14.8535L6.54883 15.1289L6.35645 15.1533V15.1416C6.18854 14.5179 5.85311 14.2539 5.22949 14.2539C4.17411 14.2539 3.80182 15.1772 3.80176 15.9688C3.80176 17.0962 4.37792 17.8643 5.22949 17.8643C5.88902 17.8642 6.18919 17.5164 6.50098 16.8809V16.8682L6.69238 16.9043V16.916C6.63244 17.1798 6.48879 17.6955 6.38086 17.9355C6.16497 17.9955 5.63701 18.1162 5.24121 18.1162C3.69431 18.1161 2.99824 17.1086 2.99805 16.1133C2.99805 14.854 3.96982 13.9784 5.33691 13.9902ZM17.3076 14.0615V14.2656H17.2949C16.9235 14.3016 16.8757 14.3264 16.6719 14.8779C16.6661 14.9063 16.2125 16.2209 15.6523 18.0801V18.0918H15.3643V18.0801C15.3643 18.0801 14.3831 15.3874 14.333 15.2617C14.3275 15.3138 13.4046 18.0704 13.3975 18.0918H13.1094L12.1143 14.8535C11.9464 14.3378 11.8501 14.3016 11.5264 14.2656H11.5146V14.0742H13.1689V14.2656L12.9775 14.2773C12.8697 14.2893 12.8094 14.3135 12.7734 14.3613C12.7615 14.3733 12.7501 14.4095 12.75 14.4453C12.75 14.4932 12.7612 14.5656 12.7852 14.6494C12.7852 14.6494 13.4559 16.8638 13.4932 17C13.5092 16.9394 14.4012 14.135 14.4053 14.1221H14.6445V14.1338C14.6445 14.1338 15.6504 16.8751 15.7002 17C15.964 16.1125 16.2995 14.8051 16.3115 14.7451C16.3474 14.6253 16.3594 14.5296 16.3594 14.4697C16.3594 14.4098 16.3599 14.3736 16.3359 14.3496C16.3 14.3017 16.2399 14.2776 16.1201 14.2656L15.9043 14.2539V14.0615H17.3076ZM8.68359 14.0615V14.2539H8.67188C8.24011 14.2899 8.17969 14.3258 8.17969 14.9854V15.7891H10.0146V14.9854C10.0146 14.314 9.95504 14.2899 9.51172 14.2539H9.49902V14.0615H11.2266L11.2148 14.2539H11.2021C10.7227 14.2899 10.6865 14.3379 10.6865 14.9854V17.1084C10.6865 17.7799 10.7466 17.8039 11.2021 17.8398H11.2148V18.0322H9.43945V17.8398H9.45117C9.96691 17.8039 10.0029 17.7561 10.0029 17.1084V16.0889H8.17969V17.1084C8.17969 17.7679 8.23987 17.8039 8.69531 17.8398H8.70801V18.0322H6.95605V17.8398H6.96875C7.46026 17.8039 7.49609 17.744 7.49609 17.1084V14.9854C7.49609 14.3378 7.46006 14.2899 6.94434 14.2539H6.93262V14.0615H8.68359ZM19.1182 15.1289L19.874 17.2285C20.0779 17.7801 20.174 17.8039 20.5098 17.8398H20.5215V18.0322H18.9023V17.8398L19.082 17.8164C19.1899 17.8044 19.2504 17.7801 19.2744 17.7441C19.2863 17.7322 19.2861 17.7084 19.2861 17.6846C19.2861 17.6366 19.274 17.5879 19.25 17.5039C19.19 17.3239 19.0466 16.9642 18.9268 16.6406H17.8115C17.7396 16.7965 17.6552 17.0726 17.5713 17.3125L17.5352 17.4082C17.4992 17.5161 17.4873 17.5885 17.4873 17.6484C17.4874 17.6842 17.4998 17.7085 17.5117 17.7324C17.5477 17.7801 17.6077 17.8045 17.7393 17.8164L17.9189 17.8398V18.0322H16.5518V17.8398H16.5635C16.9352 17.7919 16.9952 17.7679 17.2109 17.2285L18.4463 14.0498L18.6982 14.0264H18.7109L19.1182 15.1289ZM22.4883 14.0615C22.9438 14.0615 23.196 14.1099 23.4238 14.2656C23.6517 14.4215 23.7725 14.6501 23.7725 14.9619C23.7722 15.5133 23.2324 15.7769 22.9326 15.8369C23.6042 15.9329 24 16.3048 24 16.8564C24 17.2522 23.8201 17.5524 23.4482 17.7803C23.1844 17.9361 22.7647 18.0195 22.2852 18.0195H20.7617V17.8281H20.7734C21.2291 17.7921 21.289 17.7561 21.2891 17.0967V14.9736C21.2891 14.314 21.2413 14.2782 20.8096 14.2422H20.7979V14.0498H22.4883V14.0615ZM21.9727 17.0967C21.9727 17.3964 21.9969 17.5886 22.0928 17.6846C22.1527 17.7444 22.249 17.7676 22.4287 17.7676C22.8125 17.7676 23.2323 17.5522 23.2324 16.9287C23.2324 16.353 22.8484 16.0293 22.1768 16.0293H21.9727V17.0967ZM17.8711 16.3291H18.8066C18.7947 16.3051 18.352 15.0367 18.3389 15.0215C18.3375 15.0372 17.8831 16.3051 17.8711 16.3291ZM22.2852 14.3135C22.0933 14.3135 22.0208 14.3379 22.0088 14.3379C21.961 14.3621 21.9609 14.4699 21.9609 14.6016V15.7891H22.2012C22.7407 15.789 23.04 15.5246 23.04 15.0449C23.0398 14.3741 22.4654 14.3135 22.2852 14.3135ZM4.77344 5.88184H6.0332C6.12906 5.88185 6.21289 5.89436 6.21289 5.99023C6.2122 6.06423 5.96047 6.91602 5.34961 8.49707C5.15776 8.96471 5.02535 9.2766 4.94141 9.48047C4.8577 9.67179 4.80957 9.76777 4.82129 9.79199H4.83398C4.84711 9.78998 4.91806 9.69469 4.98926 9.58789C5.30112 9.14409 5.94909 8.2207 6.76465 8.2207C7.17243 8.22072 7.40039 8.49681 7.40039 8.97656C7.40034 9.5882 6.98038 10.5954 6.72852 11.207C6.6206 11.4469 6.56084 11.6151 6.54883 11.6631C6.54883 11.7231 6.54855 11.7595 6.56055 11.7715C6.5725 11.7833 6.58524 11.7832 6.62109 11.7832C6.72956 11.7704 7.11222 11.4105 7.33984 11.1709C7.34013 11.1594 7.35243 11.1592 7.36426 11.1592C7.37587 11.1592 7.38794 11.1702 7.38867 11.1709L7.52051 11.3389L7.53223 11.3633L7.52051 11.3877L7.45996 11.459C7.05217 11.9387 6.54833 12.5391 5.88867 12.5391C5.69701 12.5389 5.58887 12.4182 5.58887 12.1904C5.58911 11.9384 5.8176 11.4225 6.06934 10.8711C6.35712 10.2476 6.64453 9.59969 6.64453 9.25195C6.64445 9.03633 6.57222 8.96484 6.35645 8.96484C5.68472 8.9655 4.38963 10.7275 3.92188 12.2744C3.89789 12.3704 3.77782 12.4189 3.50195 12.4189C3.25033 12.4189 3.19043 12.3823 3.19043 12.2744C3.19112 12.1771 3.45464 11.4936 3.79004 10.6191C4.06584 9.88769 4.38988 9.06051 4.59375 8.46094L4.83398 7.78906C5.09777 7.04568 5.28896 6.50595 5.28906 6.33789C5.28906 6.24194 5.24101 6.2059 5.03711 6.16992L4.88184 6.1582L4.76172 6.14551C4.74992 6.13371 4.73761 6.12215 4.7373 6.11035V5.90625C4.7373 5.89431 4.76139 5.87035 4.77344 5.87012V5.88184ZM17.9668 5.89355C18.0388 5.89355 18.0873 5.9057 18.1113 5.92969C18.1233 5.9417 18.1348 5.96602 18.1348 6.00195C18.1347 6.05002 17.9906 6.40959 17.7148 7.12891L17.1875 8.50879C16.4559 10.4278 16.096 11.4713 16.084 11.6992C16.084 11.7471 16.0962 11.7954 16.1201 11.8193C16.144 11.8431 16.1685 11.8428 16.1924 11.8428C16.3602 11.8423 16.5644 11.6151 16.9238 11.2197L16.9717 11.1709C16.972 11.1595 16.9834 11.1592 16.9951 11.1592C17.007 11.1592 17.0077 11.1591 17.0195 11.1709C17.0195 11.1709 17.1631 11.3396 17.1631 11.3516C17.164 11.3534 17.1746 11.3762 17.1631 11.3877L17.0674 11.4834C16.7317 11.9031 16.2281 12.5387 15.7246 12.5391C15.5687 12.5391 15.4365 12.5022 15.3525 12.4062C15.2567 12.2983 15.2088 12.1429 15.2207 11.9512C15.2327 11.5074 15.9637 9.64782 16.3955 8.56836C16.4033 8.54898 17.199 6.57649 17.2109 6.39746C17.2228 6.2777 17.1514 6.22932 16.9717 6.19336L16.6953 6.16992C16.6834 6.16948 16.6719 6.14567 16.6719 6.13379L16.6836 5.92969C16.6837 5.90588 16.6958 5.89355 16.7197 5.89355H17.9668ZM3.14258 8.2207C3.72985 8.23276 3.96946 8.64018 3.96973 8.91602C3.96973 8.99997 3.94571 9.08456 3.88574 9.14453C3.82589 9.19235 3.75418 9.22844 3.69434 9.22852C3.52642 9.22852 3.40607 9.08436 3.28613 8.94043C3.14224 8.77256 2.99834 8.60449 2.77051 8.60449C2.57864 8.60455 2.30266 8.77231 2.00293 9.08398C1.45121 9.67169 0.89984 10.6558 0.923828 11.3154C0.935842 11.567 1.01941 11.7587 1.16309 11.8906C1.28303 11.9986 1.43951 12.0472 1.60742 12.0352C2.03911 11.9991 2.53036 11.6029 2.78223 11.375L2.79492 11.3633C2.8067 11.3515 2.80664 11.3516 2.81836 11.3516C2.83035 11.3516 2.84277 11.3513 2.84277 11.3633L2.98633 11.5068V11.543C2.86639 11.7709 2.14692 12.5146 1.31934 12.5146C0.503747 12.5146 0.180238 11.8787 0.15625 11.291C0.120355 10.5835 0.431895 9.86357 1.01953 9.25195C1.6432 8.61638 2.47098 8.20871 3.14258 8.2207ZM11.4785 8.13672C11.5025 8.12494 11.5384 8.13723 11.5742 8.16113C11.5746 8.16114 11.5859 8.16104 11.5859 8.17285L11.8379 8.34082C11.8971 8.36452 11.8984 8.43497 11.8984 8.44824C11.8864 8.53219 11.694 9.06024 11.4541 9.67188C11.1425 10.4989 10.7469 11.5297 10.7344 11.7227C10.7344 11.7946 10.7348 11.8308 10.7588 11.8428C10.7708 11.8548 10.7951 11.8672 10.8311 11.8672C10.975 11.8665 11.2146 11.5665 11.4062 11.3389L11.5498 11.1592C11.5618 11.1472 11.5866 11.1472 11.5986 11.1592L11.7422 11.3271L11.7539 11.3516C11.7525 11.3544 11.7422 11.3744 11.7422 11.3633C11.5383 11.6751 10.9747 12.5024 10.3271 12.5146C10.2072 12.5146 10.1225 12.4909 10.0625 12.4189C9.99064 12.347 9.9551 12.2388 9.95508 12.083C9.95508 11.7712 10.1114 11.4231 10.1953 11.2432L10.2432 11.123C10.255 11.0993 10.2551 11.0871 10.2432 11.0752H10.2305C10.2053 11.0778 10.0625 11.3271 10.0625 11.3271C9.37888 12.3705 8.83914 12.5029 8.44336 12.5029C8.11972 12.5027 7.80771 12.2386 7.80762 11.6514C7.80762 10.7878 8.77961 8.29298 10.6387 8.29297C10.8066 8.29297 10.9265 8.31683 11.0225 8.34082C11.0944 8.35281 11.1549 8.36523 11.2148 8.36523C11.2864 8.36499 11.3225 8.3049 11.3584 8.24512C11.3824 8.20914 11.4185 8.16071 11.4785 8.13672ZM20.3896 8.2207C20.9534 8.2207 21.2529 8.56874 21.2529 8.89258C21.2528 9.68399 19.9584 10.0194 19.2627 10.0195L18.8662 10.0078H18.7949C18.7949 10.0198 18.7705 10.0439 18.7705 10.0439C18.5787 10.3317 18.3273 10.7274 18.3271 11.2549C18.3271 11.6867 18.591 11.9629 19.0107 11.9629C19.3585 11.9627 19.8263 11.6147 20.0781 11.4229L20.1855 11.3516C20.1975 11.3396 20.2214 11.3397 20.2334 11.3516L20.3535 11.5068C20.3655 11.5188 20.3655 11.531 20.3535 11.543C20.1616 11.7949 19.3581 12.5146 18.6025 12.5146C17.9669 12.5146 17.5117 12.0345 17.5117 11.3389C17.512 9.8278 19.2024 8.22084 20.3896 8.2207ZM23.2803 8.19727C23.6518 8.19727 23.8679 8.41243 23.8682 8.61621C23.8682 8.78409 23.6882 8.99992 23.4844 9C23.4063 9 23.337 8.98588 23.2725 8.96484L22.9053 8.82031C22.8425 8.79942 22.7768 8.78424 22.7051 8.78418C22.4173 8.78418 22.2247 9.00029 22.2246 9.33594C22.2246 9.58781 22.4048 9.8282 22.5967 10.0801C22.8126 10.3919 23.0645 10.7397 23.0645 11.1475C23.0644 11.8671 22.1885 12.5146 21.5049 12.5146C21.0493 12.5145 20.6534 12.1909 20.6533 11.999C20.6533 11.8791 20.6896 11.5315 20.8574 11.5312C20.9774 11.5312 21.0852 11.6274 21.2051 11.7354C21.373 11.8913 21.5772 12.0712 21.877 12.0713C22.1768 12.0713 22.4882 11.867 22.4883 11.5312C22.4883 11.3274 22.333 11.1351 22.165 10.9072C21.9492 10.6315 21.6974 10.3079 21.6973 9.90039C21.6973 9.15679 22.4407 8.19733 23.2803 8.19727ZM15.6045 8.17285C15.7723 8.17296 15.9639 8.26922 15.9639 8.54492C15.9638 8.70068 15.9161 8.85649 15.8203 8.94043C15.7603 8.9884 15.6882 9.01269 15.6162 9.0127C15.5083 9.00071 15.4486 8.92836 15.3887 8.85645C15.3287 8.79648 15.2802 8.72461 15.1963 8.72461C15.0884 8.72467 14.9441 8.80887 14.7402 9.0127C14.4284 9.31278 14.0204 10.0804 13.2891 11.5791C13.183 11.7913 13.0079 12.2122 13.002 12.2266C12.954 12.3464 12.9176 12.3945 12.8457 12.3945H12.4736C12.4018 12.3945 12.3662 12.3583 12.3662 12.2744C12.3667 12.2135 12.486 11.8901 12.6416 11.4473C12.9295 10.6557 13.3613 9.46807 13.3613 9.07227C13.3613 8.91649 13.3134 8.8321 13.2295 8.83203C13.0616 8.83203 12.7494 9.2163 12.6055 9.4082L12.5693 9.45605L12.5342 9.50391C12.5342 9.50391 12.5218 9.51659 12.5098 9.5166C12.4978 9.5166 12.4854 9.5159 12.4854 9.50391L12.3535 9.37207C12.3419 9.36044 12.3418 9.36017 12.3418 9.34863L12.3535 9.33594C12.5815 8.9521 13.2535 8.2207 13.6973 8.2207C13.9011 8.22074 14.0205 8.32907 14.0205 8.54492C14.0204 8.71317 13.8889 9.27699 13.793 9.68457C13.745 9.90025 13.6973 10.0803 13.6973 10.1162V10.1514H13.709C13.721 10.1633 13.7691 10.0684 13.7812 10.0322C14.4529 8.71289 14.9448 8.20883 15.6045 8.17285ZM10.4463 8.56836C9.48699 8.56893 8.52746 10.2478 8.52734 11.459C8.52734 11.8068 8.6238 11.8672 8.80371 11.8672C9.61931 11.867 10.9385 9.564 10.9385 9.07227C10.9384 8.74851 10.7581 8.56836 10.4463 8.56836ZM20.2578 8.48438C19.7421 8.48444 19.1899 9.32406 18.998 9.67188C20.0294 9.65988 20.618 9.34835 20.6182 8.84473C20.6182 8.64083 20.4617 8.48438 20.2578 8.48438Z" fill="black"/>
</svg>
