<svg width="24" height="24" viewBox="0 0 24 24" fill="none" xmlns="http://www.w3.org/2000/svg">
<path fill-rule="evenodd" clip-rule="evenodd" d="M21.6163 12.8223L24 17H16.6404L14.245 12.8223H21.6163ZM6.85048 8.03327C6.93152 8.1778 8.55152 11.0111 8.63271 11.1444C8.88729 11.5999 9.15349 11.989 9.58162 12.3223C10.137 12.7556 11.0163 12.8332 11.8611 12.8332L12.4348 12.8331C12.6955 12.8325 12.5393 12.8302 13.3308 12.8223L14.5227 14.9056L15.7147 16.9889H9.63942C8.86405 16.9889 8.1003 16.9777 7.33656 16.8001C6.56119 16.6333 5.91334 16.3334 5.28828 15.8888C4.01537 14.9888 3.29795 13.7889 2.55744 12.5001L1.27865 10.2667L0 8.03327H6.85048ZM18.862 8L21.2343 12.1666H13.8632L11.4909 8H18.862Z" fill="black"/>
</svg>
