<svg width="24" height="24" viewBox="0 0 24 24" fill="none" xmlns="http://www.w3.org/2000/svg">
<path d="M20.3924 7.52539C21.7277 7.52539 22.4544 7.87528 22.6366 7.9534C22.896 8.07012 22.9219 8.12206 22.9219 8.23874C22.909 8.32951 22.8963 8.43331 22.8834 8.52409C22.8444 8.74458 22.7796 9.09489 22.7407 9.28948C22.7277 9.39326 22.7016 9.5488 22.546 9.5488C22.4164 9.54864 22.2998 9.39332 22.222 9.3155C21.7421 8.82258 21.08 8.53754 20.3924 8.53754C18.3435 8.53781 17.9931 10.5086 17.9931 12.0002C17.9931 14.0626 18.6545 15.4636 20.3924 15.4638C21.054 15.4638 21.4049 15.3605 21.5087 15.3346V12.4937C21.5087 12.3252 21.6121 12.2731 21.7806 12.273H22.7281C22.9224 12.2731 23 12.3512 23 12.5198V15.6065C23 15.8918 22.9871 15.9178 22.7407 16.0345C22.3386 16.2161 21.7156 16.476 20.3924 16.476C18.2393 16.4758 16.3196 15.5802 16.3196 12.0002C16.3197 9.19871 17.5002 7.52555 20.3924 7.52539ZM2.07676 7.6555C2.29724 7.65556 2.49131 7.86302 2.49131 8.08351V13.6737C2.49131 15.0876 3.27029 15.4773 4.20426 15.4773C5.43641 15.4772 5.91631 14.8541 5.91631 13.6737V8.08351C5.91631 7.86299 6.11124 7.6555 6.33176 7.6555H6.915C7.13552 7.6555 7.33045 7.86299 7.33045 8.08351V13.531C7.33045 15.3341 6.22768 16.4113 4.17824 16.4114C1.83034 16.4114 1 15.0876 1 13.531V8.08351C1 7.86299 1.19493 7.6555 1.41545 7.6555H2.07676ZM9.82046 7.6555C10.0409 7.66847 10.2233 7.8496 10.2233 8.07005V11.2223H13.7255V8.07005C13.7256 7.84959 13.907 7.6555 14.1275 7.6555H14.8023C15.0226 7.66862 15.2042 7.84971 15.2043 8.07005V15.8864C15.1812 16.0775 15.0064 16.2165 14.8023 16.2166H14.1535C13.92 16.2166 13.7381 16.0347 13.7381 15.8012V12.325H10.2359V15.8012C10.2359 16.0347 10.054 16.2166 9.82046 16.2166H9.15915C8.9257 16.2166 8.7446 16.0346 8.7446 15.8012V8.07005C8.74468 7.84959 8.92612 7.6555 9.14659 7.6555H9.82046Z" fill="white"/>
</svg>
