<svg width="24" height="24" viewBox="0 0 24 24" fill="none" xmlns="http://www.w3.org/2000/svg">
<path d="M22.8125 13.0182C22.9652 13.0182 23.0571 13.1981 22.9561 13.3133C21.7118 14.5765 14.9801 21.4109 13.718 22.3975C13.2787 22.7447 12.7114 23 11.9995 23C11.288 23 10.7208 22.7447 10.2809 22.3975C9.01834 21.411 2.2871 14.5765 1.04277 13.3133C0.94137 13.1981 1.03307 13.0182 1.18376 13.0182C1.80542 13.0182 3.24799 13.0156 4.115 13.0156C4.42039 13.0156 4.51162 13.0682 4.70393 13.2711L5.85322 14.4858C7.07038 15.7759 10.038 18.6273 11.1232 19.5281C11.5305 19.8648 11.9916 19.8548 11.9986 19.8548C12.0112 19.855 12.4686 19.8635 12.873 19.5281C13.9581 18.629 16.9258 15.777 18.143 14.4858L19.2923 13.2711C19.4846 13.0682 19.5758 13.0156 19.8812 13.0156C20.7498 13.0156 22.1908 13.0182 22.8125 13.0182Z" fill="black"/>
<path d="M12.5322 6.80339C12.5324 6.66896 12.6625 6.6104 12.7731 6.70502C14.0106 7.83317 16.7683 10.5224 17.6924 11.5646C18.1336 12.0259 18.093 12.4956 18.093 12.4956C18.0938 12.5049 18.1293 12.9683 17.6924 13.4266C16.7672 14.4683 14.0095 17.1581 12.7731 18.2862C12.6624 18.3809 12.5322 18.3211 12.5322 18.187V15.358C12.5332 15.1013 12.5871 14.9708 12.8141 14.7625C13.3694 14.2638 14.3466 13.3303 14.7103 12.9119C14.8742 12.7294 14.8658 12.502 14.8656 12.4956C14.8656 12.4956 14.8765 12.264 14.7103 12.0793C14.3468 11.661 13.369 10.7275 12.8141 10.2287C12.587 10.0204 12.5322 9.88807 12.5322 9.63237V6.80339Z" fill="black"/>
<path d="M11.2276 6.70326C11.3329 6.60813 11.4676 6.67923 11.4676 6.79285V9.63061C11.4676 9.88624 11.4136 10.0179 11.1866 10.2261C10.6317 10.7249 9.65299 11.6593 9.28951 12.0775C9.12802 12.2578 9.13475 12.4825 9.13514 12.493C9.13514 12.493 9.12408 12.7241 9.28951 12.9093C9.65353 13.3276 10.6317 14.2611 11.1866 14.7598C11.4136 14.967 11.4685 15.0987 11.4685 15.3562V18.1861C11.4685 18.3202 11.3377 18.3791 11.2276 18.2844C9.99061 17.1568 7.2341 14.4674 6.3083 13.4257C5.97743 13.0783 5.91701 12.728 5.90765 12.5747V12.4139C5.91676 12.2601 5.97661 11.9087 6.3083 11.5629C7.23322 10.5204 9.99026 7.83174 11.2276 6.70326Z" fill="black"/>
<path d="M12.0003 2C12.7118 2 13.2785 2.25561 13.7189 2.60339C14.9812 3.58961 21.7127 10.424 22.957 11.6867C23.0584 11.8014 22.968 11.9828 22.8152 11.9818C22.193 11.9818 20.7515 11.9844 19.8839 11.9844C19.5782 11.9844 19.4874 11.9316 19.295 11.728L18.1457 10.5142C16.9286 9.22364 13.961 6.37233 12.8757 5.47189C12.4684 5.13464 12.0068 5.14517 12.0003 5.14517C11.9887 5.14505 11.5308 5.13668 11.1259 5.47189C10.0414 6.37103 7.07255 9.22247 5.8559 10.5142L4.7066 11.728C4.51426 11.9315 4.42309 11.9844 4.11768 11.9844C3.2496 11.9844 1.8072 11.9818 1.18554 11.9818C1.03308 11.9815 0.941916 11.8013 1.04277 11.6867C2.28766 10.4235 9.02 3.58878 10.2818 2.60251C10.7211 2.25476 11.2884 2.00004 12.0003 2Z" fill="black"/>
</svg>
