<svg width="20" height="20" viewBox="0 0 20 20" fill="none" xmlns="http://www.w3.org/2000/svg">
<g clip-path="url(#clip0_822_5208)">
<path d="M10.0008 20C4.4875 20 0 15.5392 0 9.99917C0 4.4875 4.4875 0 10.0008 0C15.5117 0 20 4.4875 20 9.99917C20 15.5392 15.5117 20 10.0008 20ZM10.0008 0.47C4.73667 0.47 0.470833 4.7375 0.470833 10C0.470833 15.2633 4.7375 19.5292 10.0008 19.5292C15.2633 19.5292 19.5292 15.2633 19.5292 10C19.5283 4.76417 15.2633 0.47 10.0008 0.47ZM18.4742 12.85L18.4225 12.8608L18.3942 12.825C18.3958 12.8092 18.73 11.8233 18.7275 10.6917C18.7233 9.4725 18.2283 8.725 17.5917 8.725C17.2042 8.725 16.9267 9.00333 16.9267 9.4175C16.9267 10.1658 17.8408 10.2208 17.8408 11.8558C17.8408 12.5208 17.7025 13.1567 17.4808 13.85C16.4558 17.3117 13.1867 18.9183 10.0017 18.9183C8.5325 18.9183 7.49 18.6175 7.17917 18.4775C7.16667 18.4708 7.15583 18.4467 7.16583 18.4225L7.20583 18.3942C7.33167 18.4442 8.2275 18.725 9.33583 18.725C10.555 18.725 11.275 18.2267 11.275 17.6167C11.2757 17.5255 11.2582 17.4352 11.2235 17.3509C11.1889 17.2666 11.1378 17.1901 11.0733 17.1258C11.0087 17.0615 10.932 17.0107 10.8476 16.9763C10.7632 16.942 10.6728 16.9248 10.5817 16.9258C9.83333 16.9258 9.77833 17.8675 8.17167 17.8675C7.47917 17.8675 6.87083 17.7292 6.14917 17.5075C2.71417 16.455 1.07667 13.2125 1.07917 9.99917C1.08083 8.43417 1.51833 7.18917 1.52583 7.17583L1.575 7.1675L1.60417 7.20333C1.56333 7.3325 1.2725 8.22667 1.2725 9.33333C1.2725 10.5525 1.77083 11.2725 2.4075 11.2725C2.49518 11.2736 2.58219 11.2572 2.66343 11.2242C2.74466 11.1912 2.81847 11.1422 2.88051 11.0803C2.94255 11.0183 2.99157 10.9446 3.02468 10.8634C3.0578 10.7822 3.07434 10.6952 3.07333 10.6075C3.07333 9.85917 2.15833 9.77667 2.15833 8.17C2.15833 7.4775 2.2975 6.86833 2.51833 6.14833C3.5725 2.715 6.81333 1.105 9.99917 1.08083C11.4792 1.07 12.775 1.5125 12.8242 1.55167L12.8333 1.60167L12.7967 1.62917C12.7817 1.6275 11.9392 1.275 10.6642 1.275C9.47333 1.27417 8.725 1.77333 8.725 2.41083C8.725 2.77083 9.0025 3.07583 9.4175 3.07583C10.1658 3.07583 10.2208 2.16167 11.8275 2.16167C12.52 2.16167 13.1292 2.3 13.85 2.52167C17.3133 3.5725 18.8917 6.8425 18.92 10C18.935 11.6175 18.4792 12.8417 18.4742 12.85ZM13.7117 10.4708C12.77 10.4708 12.0492 11.1642 12.0492 11.9942C12.0492 12.6867 12.4642 13.24 13.0192 13.24C13.2133 13.24 13.4067 13.1292 13.4067 12.88C13.4067 12.5208 12.9292 12.4325 12.9667 11.8933C12.99 11.5375 13.325 11.3008 13.6567 11.3008C14.3217 11.3008 14.6325 11.9458 14.6325 12.6092C14.6042 13.6342 13.8508 14.3475 12.965 14.3475C11.8 14.3475 11.0542 13.2392 11.0542 12.0483C11.0542 10.275 12.2175 9.5825 12.8267 9.41667C12.8333 9.41583 14.4192 9.7 14.37 9.00083C14.3483 8.69333 13.8908 8.575 13.5583 8.56167C13.1908 8.5475 12.8208 8.68 12.8208 8.68C12.6267 8.5825 12.4933 8.39167 12.4108 8.17083C13.5467 7.3125 14.3492 6.48167 14.3492 5.53917C14.3492 5.04083 14.0158 4.59667 13.3792 4.59667C12.2433 4.59667 11.3842 6.0375 11.3842 7.33917C11.3842 7.56083 11.3842 7.7825 11.44 7.9775C10.7192 8.50333 10.1842 8.83 9.21417 9.41167C9.21417 9.29 9.24 8.9775 9.32083 8.57167C9.65333 8.21167 10.1092 7.6725 10.1092 7.25667C10.1092 7.0625 9.99917 6.89667 9.77583 6.89667C9.2225 6.89667 8.80583 7.72833 8.69583 8.30917C8.44583 8.61417 7.94833 9.0025 7.53167 9.0025C7.19917 9.0025 7.08917 8.6975 7.06 8.5875C8.1125 8.2275 9.415 6.78583 9.415 5.48417C9.415 5.20667 9.30417 4.5975 8.47333 4.5975C7.22667 4.5975 6.17417 6.45417 6.17417 7.89333C5.73083 7.89333 5.565 7.4225 5.565 7.06333C5.565 6.70333 5.70333 6.3425 5.70333 6.2325C5.70333 6.12083 5.6475 5.9825 5.48167 5.9825C5.06583 5.9825 4.81667 6.53583 4.81667 7.17333C4.845 8.06 5.42667 8.61417 6.2025 8.66917C6.3125 9.19583 6.78417 9.69417 7.36583 9.69417C7.72583 9.69417 8.16917 9.58333 8.47417 9.30667C8.44583 9.50083 8.41833 9.66583 8.39083 9.8325C7.17167 10.47 6.285 10.9133 5.48167 11.6333C4.84667 12.215 4.48583 12.99 4.48583 13.5992C4.48583 14.43 5.0125 15.2058 6.0925 15.2058C7.36667 15.2058 8.33667 14.1808 8.80667 12.7683C9.02917 12.1033 9.1175 11.1367 9.17333 10.25C10.4475 9.53 11.0517 9.11333 11.7158 8.64083C11.7983 8.77917 11.8825 8.89083 11.9942 8.97333C11.4117 9.27833 10.0275 10.1375 10.0275 12.1592C10.0275 13.6 10.9975 15.2058 12.9083 15.2058C14.4875 15.2058 15.5675 13.9042 15.5675 12.6583C15.5675 11.5233 14.93 10.4708 13.7117 10.4708ZM6.09417 14.3483C5.67917 14.3675 5.4025 14.1017 5.4025 13.6592C5.4025 12.4683 7.05333 11.3317 8.3 10.7208C8.07833 12.3842 7.5175 14.2833 6.09417 14.3483ZM7.00833 7.81167C7.00833 6.8975 7.91 5.16 8.4625 5.34333C9.11333 5.56 7.9225 7.31333 7.00833 7.81167ZM12.2442 7.39583C12.2442 6.26083 13.0133 5.15583 13.4333 5.36583C13.9117 5.605 13.075 6.67583 12.2442 7.39583Z" fill="white"/>
</g>
<defs>
<clipPath id="clip0_822_5208">
<rect width="20" height="20" fill="white"/>
</clipPath>
</defs>
</svg>
