<svg width="24" height="24" viewBox="0 0 24 24" fill="none" xmlns="http://www.w3.org/2000/svg">
<g clip-path="url(#clip0_1784_4235)">
<path d="M12.2348 4.21908C12.4186 4.38249 12.9089 4.54595 13.5626 4.70935L12.9089 7.69141H11.0911L10.417 10.3467H12.2348L11.5812 13.6557C11.5812 14.1459 11.4178 15.3102 11.5812 15.8004C11.908 17.1281 12.7455 17.6183 13.8893 17.6183C15.5438 17.6183 17.0349 16.8013 17.0349 16.8013L17.709 14.6565H16.5446C16.2178 14.6565 15.891 14.6565 16.0544 13.8191L16.8714 10.3467H18.6894L19.3633 7.69141H17.5455L18.0357 4.87272C19.8536 4.87272 22.0187 5.05664 22.6723 5.38345V7.69141C22.6723 10.0199 24 10.3467 24 10.3467C24 10.3467 24 11.3476 24 12.4915C24 13.9825 23.6731 14.9834 23.6731 14.9834C22.999 15.1468 21.3445 15.637 19.5267 16.9646C18.1991 17.9655 17.0349 19.4566 17.0349 20.9477C17.0349 21.9281 17.1982 22.6021 17.5455 23.2557C17.5448 23.256 16.8708 23.5825 15.7072 23.5825C14.2365 23.4191 12.582 22.2548 11.5812 20.437C10.2535 18.1289 9.59995 15.3102 8.10887 15.3102C6.61788 15.3102 6.61782 16.8013 5.45355 16.8013C4.12592 16.8012 3.30886 14.6565 2.98206 13.6557C2.14463 12.1647 0.16342 11.6744 0 9.34589H6.29102V0.420013H12.2348V4.21908ZM14.8901 14.4932H12.5822L14.3999 5.87356H16.708L14.8901 14.4932ZM16.0545 2.72813C16.7081 2.72816 17.3821 3.21832 17.3821 4.05571C17.3821 4.70931 16.7081 5.22003 16.0545 5.22007C15.3805 5.22007 14.7268 4.70933 14.7268 4.05571C14.7268 3.21828 15.3805 2.72813 16.0545 2.72813Z" fill="black"/>
</g>
<defs>
<clipPath id="clip0_1784_4235">
<rect width="24" height="24" fill="white"/>
</clipPath>
</defs>
</svg>
