<svg width="20" height="20" viewBox="0 0 20 20" fill="none" xmlns="http://www.w3.org/2000/svg">
<g clip-path="url(#clip0_822_4957)">
<path d="M11.0062 4.4002C10.9185 4.38453 10.4957 4.31353 10.0002 4.31353C9.50468 4.31353 9.08185 4.3842 8.99418 4.4002C8.94377 4.4092 8.92443 4.35987 8.96277 4.3312C8.99752 4.30553 9.99985 3.54262 9.99985 3.54262L11.0365 4.3312C11.0756 4.35987 11.0565 4.4092 11.0062 4.4002ZM9.27427 9.35404C9.27427 9.35404 9.22127 9.37304 9.20727 9.4197C9.41727 9.58112 9.56202 9.94829 10.0002 9.94829C10.4383 9.94829 10.5831 9.58112 10.7928 9.4197C10.7791 9.3727 10.7261 9.35404 10.7261 9.35404C10.7261 9.35404 10.4517 9.4187 10.0002 9.4187C9.54868 9.4187 9.27427 9.35404 9.27427 9.35404ZM10.0002 8.73612C9.87852 8.73612 9.85185 8.69012 9.76877 8.69045C9.68977 8.69079 9.53635 8.75379 9.50293 8.81153C9.50497 8.84104 9.51713 8.86895 9.53735 8.89054C9.71477 8.9172 9.79485 9.01595 10.0005 9.01595C10.2063 9.01595 10.2859 8.9172 10.4637 8.89054C10.4837 8.8688 10.4958 8.84097 10.498 8.81153C10.465 8.75387 10.3113 8.69112 10.2319 8.69045C10.1486 8.68979 10.1216 8.73612 10.0002 8.73612ZM19.9892 10.6278C19.9766 10.8654 19.9554 11.1024 19.9258 11.3385C18.7934 11.5259 18.3886 10.5168 17.2285 10.5675C17.2978 10.8136 17.3542 11.0644 17.3976 11.3205C18.3543 11.3198 18.7397 12.2141 19.8041 12.0824C19.7481 12.3558 19.6808 12.6256 19.603 12.8914C18.7613 12.974 18.4649 12.1377 17.4909 12.1608C17.4989 12.2995 17.5033 12.4395 17.5033 12.5809L17.4993 12.8146L19.3906 13.5363C19.2917 13.8042 19.1815 14.0677 19.0602 14.3262C18.4916 14.2949 18.2956 13.5656 17.4306 13.6236C17.4047 13.8095 17.3719 13.9943 17.3323 14.1778C18.0835 14.1251 18.2452 14.8167 18.7834 14.8728C18.6464 15.1224 18.499 15.3661 18.3416 15.6034C18.0228 15.4325 17.7463 14.9175 17.1418 14.8857C17.2041 14.6938 17.2583 14.4993 17.3043 14.3029C16.768 14.3029 16.1548 14.0938 15.6406 13.6256C15.8073 12.6766 14.3344 11.7103 14.3344 11.0153C14.3344 10.2604 14.7163 9.84254 14.7163 8.82487C14.7163 8.06962 14.3494 7.25029 13.7963 6.69037C13.6934 6.58513 13.5783 6.49255 13.4534 6.41462C13.9616 7.04354 14.3518 7.78912 14.3518 8.65278C14.3518 9.61112 13.9059 10.117 13.9059 11.0016C13.9059 11.886 15.1998 12.6513 15.1998 13.5633C15.1998 13.922 15.085 14.2725 14.7069 14.9608C15.2878 15.541 16.0444 15.8575 16.5326 15.8575C16.6909 15.8575 16.7759 15.8091 16.8327 15.6847C16.8815 15.5772 16.9277 15.4685 16.9714 15.3589C17.4973 15.3793 17.738 15.8571 18.0291 16.0479C17.8694 16.2623 17.7016 16.4693 17.5259 16.6697C17.3309 16.4536 17.0688 16.0902 16.6849 15.9891C16.6162 16.1226 16.5436 16.2541 16.4672 16.3833C16.7977 16.4733 17.0238 16.8068 17.1988 17.0262C17.01 17.2217 16.8133 17.4094 16.6093 17.589C16.4816 17.3904 16.2829 17.1382 16.0601 17.0022C15.9779 17.1133 15.8924 17.222 15.8037 17.328C15.993 17.4564 16.1601 17.6875 16.2692 17.8759C16.0331 18.0652 15.7889 18.245 15.5362 18.413C15.4115 17.397 14.0247 16.7007 14.3984 15.522C14.2758 15.7297 14.1293 15.9895 14.1293 16.3023C14.1293 17.1556 15.0384 17.8328 15.1107 18.6808C14.9223 18.7935 14.7296 18.8995 14.5332 19C14.5005 18.0679 13.5382 17.0479 13.5382 16.283C13.5382 15.429 14.6565 14.5713 14.6565 13.5633C14.6565 12.5545 13.3661 11.8563 13.3661 10.9706C13.3661 10.0856 13.9149 9.57645 13.9149 8.44203C13.9149 7.61103 13.5201 6.77012 12.9103 6.23287C12.8022 6.13754 12.6958 6.06187 12.5681 5.99545C13.1433 6.68545 13.4768 7.31129 13.4768 8.26095C13.4768 9.3277 12.8479 9.91995 12.8479 10.9643C12.8479 12.009 14.1143 12.5899 14.1143 13.5636C14.1143 14.5373 12.9356 15.358 12.9356 16.3583C12.9356 17.2683 13.9746 18.1766 13.99 19.2564C13.7622 19.3556 13.5308 19.4461 13.2961 19.5278C13.4281 18.437 12.2586 17.312 12.2586 16.422C12.2586 15.449 13.4814 14.6126 13.4814 13.5636C13.4814 12.5139 12.2383 12.026 12.2383 10.9486C12.2383 9.87195 13.0009 9.2757 13.0009 8.08595C13.0009 7.15854 12.5431 6.32462 11.8743 5.80779L11.8318 5.7757C11.7688 5.72903 11.7168 5.78537 11.7615 5.8407C12.235 6.43195 12.4881 7.02987 12.4881 7.9152C12.4881 9.00354 11.6121 9.88795 11.6121 10.9423C11.6121 12.1868 12.7885 12.5425 12.7885 13.5636C12.7885 14.5843 11.5271 15.401 11.5271 16.4847C11.5271 17.4897 12.7208 18.6051 12.5161 19.7652C12.2754 19.8278 12.0323 19.8812 11.7875 19.9252C12.0116 18.4807 10.8405 17.4434 10.8405 16.4984C10.8405 15.4753 12.1469 14.5634 12.1469 13.5636C12.1469 12.6206 11.2093 12.3125 11.0859 11.3478C11.0689 11.2161 10.9632 11.1184 10.8175 11.1427C10.6271 11.1774 10.383 11.3027 9.99952 11.3027C9.61602 11.3027 9.37202 11.177 9.18118 11.1427C9.03585 11.1187 8.9301 11.2164 8.9131 11.3477C8.7901 12.3125 7.85177 12.6202 7.85177 13.5635C7.85177 14.5633 9.15852 15.475 9.15852 16.4984C9.15852 17.4434 7.98743 18.4807 8.21118 19.9253C7.96643 19.8809 7.72341 19.8275 7.4826 19.7652C7.27785 18.6051 8.47193 17.4897 8.47193 16.4847C8.47193 15.401 7.21018 14.5843 7.21018 13.5636C7.21018 12.5425 8.38685 12.1868 8.38685 10.9423C8.38685 9.88795 7.5106 9.00395 7.5106 7.9152C7.5106 7.0302 7.76368 6.43228 8.23752 5.84079C8.28185 5.78537 8.23018 5.72912 8.16685 5.77578L8.12485 5.80779C7.45652 6.32329 6.99902 7.1572 6.99902 8.08462C6.99902 9.27437 7.76168 9.87053 7.76168 10.9473C7.76168 12.0244 6.5186 12.5123 6.5186 13.5623C6.5186 14.6113 7.74135 15.4476 7.74135 16.4206C7.74135 17.311 6.57193 18.4357 6.70427 19.5265C6.46956 19.4447 6.23801 19.3542 6.0101 19.255C6.02577 18.1753 7.0641 17.2666 7.0641 16.357C7.0641 15.3566 5.88602 14.536 5.88602 13.5623C5.88602 12.5885 7.15185 12.0077 7.15185 10.963C7.15185 9.91862 6.52327 9.32637 6.52327 8.25962C6.52327 7.30995 6.85635 6.68403 7.4316 5.99412C7.30352 6.06053 7.19743 6.1362 7.08977 6.23162C6.47993 6.76878 6.08543 7.6097 6.08543 8.44079C6.08543 9.57512 6.63427 10.0843 6.63427 10.9693C6.63427 11.855 5.34385 12.5532 5.34385 13.562C5.34385 14.57 6.46218 15.428 6.46218 16.2816C6.46218 17.0469 5.49918 18.0669 5.46685 18.9986C5.27086 18.8987 5.07825 18.7922 4.88935 18.6795C4.96202 17.8315 5.87068 17.1542 5.87068 16.301C5.87068 15.9881 5.7246 15.7285 5.60152 15.5206C5.97535 16.6994 4.58852 17.3956 4.46385 18.4117C4.21158 18.2437 3.967 18.0645 3.73085 17.8745C3.8396 17.6865 4.00668 17.455 4.19635 17.3266C4.10748 17.2207 4.02197 17.1121 3.93993 17.0008C3.71685 17.1369 3.51777 17.389 3.39043 17.5877C3.18663 17.408 2.99008 17.2202 2.80127 17.0249C2.97627 16.8055 3.20235 16.472 3.53285 16.382C3.45636 16.2528 3.38374 16.1213 3.3151 15.9878C2.93127 16.0889 2.66885 16.4523 2.4741 16.6684C2.29825 16.4678 2.13039 16.2604 1.97093 16.0465C2.26202 15.8557 2.50277 15.3776 3.02827 15.3576C3.07235 15.467 3.11868 15.5757 3.16735 15.6834C3.22402 15.8078 3.30943 15.8561 3.46743 15.8561C3.9556 15.8561 4.71193 15.5396 5.2931 14.9595C4.91502 14.2711 4.80027 13.9207 4.80027 13.562C4.80027 12.6503 6.0941 11.885 6.0941 11.0003C6.0941 10.1157 5.64827 9.60979 5.64827 8.65145C5.64827 7.78779 6.03843 7.0422 6.5466 6.41328C6.42174 6.49125 6.30665 6.58385 6.20377 6.68912C5.6506 7.24929 5.28377 8.06829 5.28377 8.82353C5.28377 9.8412 5.66593 10.259 5.66593 11.014C5.66593 11.709 4.19268 12.6753 4.35943 13.6243C3.84527 14.0925 3.23202 14.3015 2.69552 14.3015C2.74205 14.4979 2.79623 14.6923 2.85793 14.8844C2.25368 14.9165 1.97727 15.4316 1.6581 15.602C1.50056 15.3648 1.35315 15.1211 1.21627 14.8714C1.75418 14.8154 1.91627 14.1239 2.66785 14.1765C2.62811 13.993 2.59517 13.8082 2.5691 13.6223C1.7041 13.5643 1.5081 14.2939 0.939516 14.3249C0.818185 14.0664 0.707946 13.8028 0.6091 13.5349L2.50077 12.8133L2.49677 12.5795C2.49677 12.4382 2.5011 12.2981 2.50877 12.1595C1.53477 12.1367 1.23827 12.9728 0.396683 12.89C0.318622 12.6233 0.25162 12.3534 0.19585 12.081C1.25968 12.2127 1.64543 11.3185 2.60252 11.3191C2.64541 11.0653 2.70171 10.814 2.77118 10.5661C1.61118 10.5158 1.20627 11.5249 0.0741831 11.3371C0.0444367 11.1011 0.0233115 10.8641 0.0108498 10.6265C1.32702 10.7735 1.82052 9.69153 3.01893 9.82387C3.13152 9.53885 3.26263 9.26151 3.41143 8.99362C1.90893 8.72945 1.39868 9.98595 0.000183105 9.79287C0.151266 4.40053 4.57052 0.0749512 10.0002 0.0749512C15.4298 0.0749512 19.8491 4.40054 20.0002 9.79428C18.6013 9.98737 18.0912 8.7312 16.5889 8.99503C16.7367 9.2617 16.8681 9.53887 16.9814 9.82528C18.1792 9.69262 18.6727 10.7748 19.9892 10.6278ZM5.70002 6.43195C4.96335 6.13087 4.07168 6.20028 3.31002 6.68945C3.19202 5.98078 2.80752 5.35128 2.26002 4.97145C2.18435 4.91912 2.1056 4.96878 2.1126 5.05645C2.22835 6.5537 1.35302 7.85387 0.2766 8.99662C1.38602 9.33004 2.33035 7.90153 3.76927 8.40003C4.28622 7.63079 4.94083 6.96358 5.70002 6.43195ZM10.0002 5.52629C9.07152 5.52629 8.29352 6.05154 8.08985 6.73012C8.07418 6.78212 8.09552 6.81579 8.15552 6.78879C8.3226 6.71379 8.5126 6.6777 8.71902 6.6777C9.09785 6.6777 9.4316 6.81678 9.62902 7.05887C9.71643 7.34695 9.72377 7.76412 9.62502 8.0022C9.46902 7.9672 9.41293 7.84653 9.2606 7.84653C9.10818 7.84653 8.99018 7.95353 8.73168 7.95353C8.4736 7.95353 8.44335 7.83145 8.27352 7.83145C8.07385 7.83145 8.0371 8.03729 8.0371 8.26929C8.0371 9.30404 8.98818 10.7279 9.99985 10.7279C11.0112 10.7279 11.9623 9.30404 11.9623 8.26929C11.9623 8.0372 11.9145 7.83845 11.7058 7.81145C11.6018 7.88645 11.5061 7.95353 11.268 7.95353C11.0095 7.95353 10.9382 7.84653 10.7861 7.84653C10.6024 7.84653 10.6208 8.23404 10.4027 8.2557C10.2573 7.9062 10.2503 7.45803 10.371 7.05887C10.5688 6.81678 10.9022 6.6777 11.281 6.6777C11.4874 6.6777 11.6788 6.71412 11.8442 6.78879C11.9045 6.81579 11.9255 6.78179 11.9099 6.73012C11.7065 6.05154 10.9288 5.52629 10.0002 5.52629ZM11.4788 7.01087C11.256 7.01087 10.9949 7.0792 10.8308 7.26195C10.8138 7.31162 10.8138 7.38562 10.8378 7.43503C11.2416 7.2967 11.5978 7.29129 11.7698 7.4837C11.8615 7.40037 11.8908 7.32537 11.8908 7.23828C11.8908 7.10387 11.7542 7.01087 11.4788 7.01087ZM8.23052 7.4837C8.42527 7.2887 8.83577 7.29703 9.26218 7.45437C9.28093 7.24228 8.9011 7.01054 8.5216 7.01054C8.24585 7.01054 8.10952 7.10353 8.10952 7.23828C8.10952 7.32528 8.13885 7.4007 8.23052 7.4837ZM14.6308 3.98112C13.8976 4.03345 13.2607 4.2852 12.7455 4.7047C12.9643 4.08445 13.242 3.54195 13.5942 3.01603C12.6605 3.11512 11.8798 3.45653 11.3103 4.04012L10.8645 2.87137L11.8542 1.99737L10.529 1.90362L10.0002 0.671201L9.47102 1.9037L8.14585 1.99737L9.13552 2.87137L8.69002 4.04012C8.12018 3.45653 7.33952 3.11512 6.40652 3.01603C6.75802 3.54228 7.03577 4.08478 7.25452 4.7047C6.73968 4.28487 6.10277 4.03304 5.36952 3.98112C5.80935 4.54662 6.1991 5.14945 6.48785 5.79778C6.5206 5.87078 6.5906 5.89478 6.66627 5.85712C7.67068 5.35795 8.80243 5.07712 9.99985 5.07712C11.1973 5.07712 12.3287 5.35828 13.3338 5.85712C13.4094 5.89478 13.4794 5.87078 13.5118 5.79778C13.8009 5.14945 14.1906 4.54662 14.6308 3.98112ZM16.2318 8.4007C17.67 7.9022 18.6147 9.33037 19.7241 8.99728C18.6477 7.85454 17.7727 6.55437 17.8884 5.05712C17.8954 4.96945 17.8163 4.91945 17.741 4.97212C17.1932 5.35195 16.8087 5.98145 16.691 6.69003C15.929 6.20087 15.0377 6.1312 14.301 6.43262C15.0602 6.96433 15.7147 7.63152 16.2318 8.4007Z" fill="white"/>
</g>
<defs>
<clipPath id="clip0_822_4957">
<rect width="20" height="20" fill="white"/>
</clipPath>
</defs>
</svg>
