<svg width="20" height="20" viewBox="0 0 20 20" fill="none" xmlns="http://www.w3.org/2000/svg">
<g clip-path="url(#clip0_969_5)">
<path d="M13.2603 13.1425L12.5378 13.8846L11.8353 13.1476L11.4566 12.001L10.3803 11.6223L10.3782 10.9083L9.67823 10.9104L9.30906 12.7222L9.68781 13.8944L8.04031 14.639L7.53781 13.9016L7.88531 13.1604L7.88281 12.3699L6.80781 12.3737L5.38781 13.9084L4.31198 13.5552L4.30656 12.0252L2.43073 11.7252L1.08323 12.4693L0.281978 12.1149L0.276978 10.5598L1.00073 10.1998L3.87114 8.73699L4.29698 9.09271L5.36906 7.99281L5.36656 7.27839L6.78656 5.82021L7.50698 4.26216L8.57573 2.44826L10.3499 2.08531L11.0749 2.08276L11.077 2.79676L12.507 4.24559L12.5116 5.80109L14.7441 7.96136L16.8986 9.43271L17.9745 9.78631L18.3532 10.8815L19.7807 11.5913L19.0578 12.3325L18.3582 12.335L18.3557 11.596L17.2795 11.2419L15.4736 9.43781L14.0461 8.70299L12.5141 6.51551L11.812 5.80321L12.1582 4.62936L11.0795 3.53626L10.3566 4.25239L10.3616 5.80831L9.66406 6.52486L11.0936 7.97326L10.3711 8.71489L11.8257 10.1637L11.8282 10.9032L12.5328 12.3542L13.2578 12.352L14.0553 11.61L13.6795 11.2543L13.2507 10.159L14.0507 10.1565L14.7553 11.6079L15.4828 12.3448L13.2603 13.1425Z" fill="white"/>
<path d="M0.300128 18.8981L0.287628 15.0221L1.08638 14.6626L1.10013 18.896L0.300128 18.8981Z" fill="white"/>
<path d="M4.39964 18.8824C3.59964 18.8849 3.59964 18.8849 3.59964 18.8849C3.5938 17.2015 3.5938 17.2015 3.5938 17.2015C3.59214 16.6919 3.39214 16.5394 3.09214 16.5402C2.74214 16.5415 2.59255 16.6953 2.59422 17.2049C2.59964 18.8879 2.59964 18.8879 2.59964 18.8879C1.82505 18.8905 1.82505 18.8905 1.82505 18.8905C1.81464 15.8054 1.81464 15.8054 1.81464 15.8054C2.58964 15.8028 2.58964 15.8028 2.58964 15.8028C2.59047 16.0323 2.59047 16.0323 2.59047 16.0323C2.73964 15.8789 2.93922 15.7506 3.31422 15.7493C4.01422 15.7467 4.39089 16.2555 4.3938 17.1225" fill="white"/>
<path d="M7.6162 15.7854C6.5512 18.8752 6.5512 18.8751 6.5512 18.8751C5.7512 18.8777 5.7512 18.8777 5.7512 18.8777C4.6662 15.7956 4.6662 15.7956 4.6662 15.7956C5.54162 15.7926 5.54162 15.7926 5.54162 15.7926C5.97078 17.1934 5.97078 17.1934 5.97078 17.1934C6.04703 17.4739 6.09787 17.7799 6.17287 17.907C6.17245 17.7795 6.24703 17.4731 6.32037 17.1921C6.7412 15.7884 6.7412 15.7884 6.7412 15.7884" fill="white"/>
<path d="M9.76879 16.9539C9.69296 16.6734 9.54212 16.4448 9.19212 16.4456C8.81712 16.4469 8.61796 16.6768 8.54379 16.9582M9.27504 18.9187C8.39962 18.9217 7.74796 18.2863 7.74504 17.3173C7.74171 16.3734 8.38962 15.7338 9.18962 15.7312C10.0396 15.7287 10.5421 16.441 10.545 17.308C10.5455 17.4605 10.5455 17.4605 10.5459 17.614C8.54587 17.6208 8.54587 17.6208 8.54587 17.6208C8.62212 17.9773 8.97254 18.1295 9.27254 18.1282C9.39754 18.1278 9.69754 18.05 9.84671 17.897C10.3984 18.3543 10.3984 18.3543 10.3984 18.3543C10.125 18.7887 9.55046 18.9179 9.27504 18.9187Z" fill="white"/>
<path d="M12.2753 18.1933C12.5503 18.1924 12.7003 18.1155 12.6999 17.9625C12.6991 17.7589 12.4241 17.6829 12.2741 17.6833C11.6986 17.5324 10.9732 17.458 10.9707 16.668C10.9691 16.0815 11.5428 15.7219 12.1928 15.7202C12.6182 15.7189 13.0432 15.8452 13.3445 16.0738C12.9211 16.6616 12.9211 16.6616 12.9211 16.6616C12.6957 16.5094 12.4203 16.4338 12.1953 16.4346C11.8453 16.4355 11.7703 16.5124 11.7707 16.6654C11.7711 16.7929 12.1961 16.8677 12.422 16.9438C12.9974 17.0947 13.4978 17.246 13.4999 17.8835C13.5024 18.5465 12.8532 18.9052 12.2032 18.9077C11.7032 18.9094 11.2778 18.7071 10.902 18.4789C11.3503 17.9672 11.3503 17.9672 11.3503 17.9672C11.6249 18.1189 11.9253 18.1946 12.2753 18.1933Z" fill="white"/>
<path d="M15.4184 16.5004C14.9934 16.5017 14.6446 16.86 14.6459 17.2935C14.6471 17.7525 14.9988 18.1082 15.4234 18.1069C15.7234 18.1061 15.9226 17.9522 16.0721 17.7478C16.7238 18.2552 16.7238 18.2552 16.7238 18.2552C16.4251 18.6135 15.9259 18.8953 15.4259 18.897C14.5759 18.8995 13.8488 18.1885 13.8459 17.296C13.843 16.429 14.5659 15.7125 15.4159 15.7095C15.9159 15.7078 16.4167 15.9866 16.718 16.3427C16.0692 16.8549 16.0692 16.8549 16.0692 16.8549C15.9188 16.6521 15.718 16.4996 15.4184 16.5004Z" fill="white"/>
<path d="M19.2212 17.2778C19.2199 16.8439 18.9187 16.4881 18.4937 16.4894C17.9937 16.4911 17.7203 16.849 17.7212 17.2829C17.7228 17.7419 17.9987 18.0976 18.4987 18.0963C18.9241 18.0946 19.2228 17.7368 19.2212 17.2778ZM19.9962 17.2748C19.9991 18.1673 19.3766 18.883 18.5012 18.886C17.6512 18.889 16.9241 18.1775 16.9212 17.285C16.9183 16.418 17.6412 15.701 18.4912 15.6985C19.3662 15.6959 19.9933 16.4078 19.9962 17.2748Z" fill="white"/>
</g>
<defs>
<clipPath id="clip0_969_5">
<rect width="20" height="17" fill="white" transform="translate(0 2)"/>
</clipPath>
</defs>
</svg>
