<svg width="24" height="24" viewBox="0 0 24 24" fill="none" xmlns="http://www.w3.org/2000/svg">
<path d="M6 17C6.55228 17 7 17.4477 7 18V22C7 22.5523 6.55228 23 6 23H2C1.44772 23 1 22.5523 1 22V18C1 17.4477 1.44772 17 2 17H6Z" fill="black"/>
<path d="M14 17C14.5523 17 15 17.4477 15 18V22C15 22.5523 14.5523 23 14 23H10C9.44771 23 9 22.5523 9 22V18C9 17.4477 9.44771 17 10 17H14Z" fill="black"/>
<path d="M22 17C22.5523 17 23 17.4477 23 18V22C23 22.5523 22.5523 23 22 23H18C17.4477 23 17 22.5523 17 22V18C17 17.4477 17.4477 17 18 17H22Z" fill="black"/>
<path d="M6 9C6.55228 9 7 9.44771 7 10V14C7 14.5523 6.55228 15 6 15H2C1.44772 15 1 14.5523 1 14V10C1 9.44771 1.44772 9 2 9H6Z" fill="black"/>
<path d="M14 9C14.5523 9 15 9.44771 15 10V14C15 14.5523 14.5523 15 14 15H10C9.44771 15 9 14.5523 9 14V10C9 9.44771 9.44771 9 10 9H14Z" fill="black"/>
<path d="M22 9C22.5523 9 23 9.44771 23 10V14C23 14.5523 22.5523 15 22 15H18C17.4477 15 17 14.5523 17 14V10C17 9.44771 17.4477 9 18 9H22Z" fill="black"/>
<path d="M6 1C6.55228 1 7 1.44772 7 2V6C7 6.55228 6.55228 7 6 7H2C1.44772 7 1 6.55228 1 6V2C1 1.44772 1.44772 1 2 1H6Z" fill="black"/>
<path d="M14 1C14.5523 1 15 1.44772 15 2V6C15 6.55228 14.5523 7 14 7H10C9.44771 7 9 6.55228 9 6V2C9 1.44772 9.44771 1 10 1H14Z" fill="black"/>
<path d="M22 1C22.5523 1 23 1.44772 23 2V6C23 6.55228 22.5523 7 22 7H18C17.4477 7 17 6.55228 17 6V2C17 1.44772 17.4477 1 18 1H22Z" fill="black"/>
</svg>
