<svg width="20" height="20" viewBox="0 0 20 20" fill="none" xmlns="http://www.w3.org/2000/svg">
<path d="M1.76792 3.95473C1.76794 3.48975 1.93156 3.51326 2.04633 3.83047C2.16261 4.14822 2.66886 5.40764 3.97604 5.87279C5.28335 6.33795 6.45122 5.95804 7.2728 5.27874C7.5765 5.02766 7.68138 5.17156 7.40646 5.619C7.04729 6.20337 6.45605 6.54572 5.77697 6.91444C5.63437 6.99191 5.47841 7.05268 5.79201 7.1983C7.60352 8.03973 9.95905 8.63191 12.065 8.63191C13.6173 8.6319 15.1331 8.39356 15.9314 8.33244C16.7072 8.27304 18.1608 8.32515 18.5183 10.0063C18.7718 11.1977 18.7507 14.6803 18.7507 18.0506C18.7507 18.2802 18.7635 18.4269 18.4894 18.4241C17.6322 18.415 17.5954 18.451 17.516 18.6747C17.3879 19.0352 17.3522 19.2165 17.2558 19.5862C17.177 19.8883 17.1188 19.9979 16.917 19.9979H15.8333C15.6687 19.9979 15.5786 19.795 15.7227 19.536C17.1026 17.0462 17.0033 15.1099 16.1889 14.0524C15.9296 15.0286 15.8184 15.4609 15.6889 15.5584C14.0153 16.8172 13.1684 19.5122 13.089 19.7197C13.0099 19.9269 12.9068 19.9987 12.6504 19.9987C12.4781 19.9987 11.6216 20 11.4544 20C11.119 20 11.1301 19.7448 11.3435 19.518C13.2053 17.5391 13.6767 16.7887 14.2196 15.1111C14.7681 13.4166 13.4842 12.8824 12.4963 13.7604C9.94152 12.5974 9.26263 14.1121 9.41381 14.9634C9.65299 16.3103 10.5567 18.5929 10.6162 19.6765C10.6308 19.9418 10.3943 19.9987 10.2498 19.9987H9.11059C8.7572 19.9987 8.89602 19.664 8.92711 19.5148C9.50321 16.7464 8.32635 15.159 7.14065 14.4212C6.43318 14.9395 5.49785 17.9734 5.38614 19.6229C5.37328 19.8124 5.27609 19.9979 5.09946 19.9979C4.95154 19.9979 4.03138 20.0006 3.78579 19.9979C3.57046 19.9961 3.53798 19.7591 3.698 19.4716C4.37255 18.2608 5.43415 16.3505 5.4134 14.3317C5.41206 14.0975 5.41341 13.4036 5.09044 13.0192C4.36715 12.1538 3.96108 11.1142 3.58972 10.4473C3.33303 9.98767 3.00603 9.83514 2.74584 9.7871C2.48163 9.73831 2.26923 9.81679 2.04238 9.71059C1.8157 9.60436 1.69711 9.36848 1.51112 9.16392C1.35687 8.99272 1.24517 8.74844 1.42822 8.51648C1.74906 8.11185 1.96055 7.87798 2.01719 7.71339C2.07382 7.54884 2.06078 7.47212 2.07189 7.3329C2.08247 7.19996 2.36351 6.86893 2.61876 6.55932C2.71484 6.44271 2.63445 6.24298 2.46066 6.04123C2.28749 5.83843 1.76792 5.12767 1.76792 3.95473ZM17.8451 11.56C17.7908 11.5026 17.7015 11.5 17.6953 11.5788C17.6249 12.4934 17.4315 13.5952 17.4945 13.9561C17.562 14.3415 17.7704 15.2582 17.8156 15.6606C17.851 15.9737 17.9973 15.8504 18.017 15.6994C18.098 15.0762 18.2348 11.9706 17.8451 11.56ZM7.28446 8.36233C6.62853 8.11363 6.59888 8.09333 6.43569 8.31402C5.2599 9.9045 5.02636 10.7763 5.12973 11.4243C5.23312 12.0723 5.7889 12.735 6.62067 13.2194C7.45228 13.7036 7.96584 13.9761 8.52989 14.5878C8.588 14.6508 8.66714 14.6768 8.68817 14.5404C8.97824 12.6657 10.557 12.3943 12.6119 12.4312C15.505 12.4832 16.059 13.4336 16.4149 13.2762C16.771 13.1186 17.0006 11.6557 17.0638 10.6206C17.1271 9.58553 17.1962 8.73933 15.912 8.85561C16.2153 9.47855 16.2787 10.1644 15.7116 10.5543C15.1445 10.9441 14.7409 10.7551 14.7409 10.3898C14.7409 10.0533 14.6841 9.53842 14.2769 9.05883C14.082 9.08487 13.9146 9.10302 13.7186 9.12143C13.8376 9.68345 13.9873 10.7176 13.5537 11.1406C13.1199 11.5638 11.9086 11.6048 10.6559 11.5057C10.416 11.4868 10.1208 11.39 9.99301 11.097C9.92806 10.9479 9.83509 10.5843 9.80389 8.99285C9.58868 8.95838 9.41897 8.92755 9.20552 8.884C8.97733 10.4189 8.45959 10.992 7.91535 11.1203C7.37113 11.2486 6.75162 11.1282 6.86318 10.5714C6.97299 10.0225 7.23424 9.42488 7.28446 8.36233ZM10.2605 9.05977C10.283 9.53681 10.2999 10.2534 10.3724 10.6466C10.433 10.977 10.5728 11.0003 10.694 11.0186C11.1649 11.0897 12.7999 11.1638 13.1608 10.797C13.3897 10.5646 13.41 9.76639 13.2479 9.15903C12.252 9.22273 11.25 9.1894 10.2605 9.05977ZM4.65449 7.16973C3.71506 6.6023 3.46952 6.48787 3.17088 6.74807C2.90065 6.98354 2.62465 7.34816 2.58059 7.47239C2.53603 7.59717 2.55685 7.88614 2.44599 8.03579C2.33511 8.18526 2.07051 8.53888 2.06983 8.53979C1.83444 8.82867 1.93737 8.85145 2.18939 9.15471C2.42615 9.43793 2.9474 9.0645 3.55043 9.54102C3.86457 9.78898 4.22685 10.6753 4.50579 11.0423C4.70227 9.76245 5.50659 8.71919 5.75366 8.32831C6.14452 7.70978 5.79584 7.85901 4.65449 7.16973ZM7.77267 8.52118C7.70142 9.12739 7.56423 9.87055 7.43072 10.3138C7.29722 10.7571 7.67646 10.7169 7.85256 10.6462C8.08144 10.5543 8.51481 10.1647 8.7316 8.78042C8.40929 8.70458 8.0895 8.6178 7.77267 8.52118ZM15.4691 8.8919C15.2293 8.91877 14.9898 8.95459 14.7506 8.99078C15.0099 9.36899 15.1585 9.7876 15.168 10.339C15.2465 10.3664 15.6043 10.2216 15.6848 9.96419C15.7651 9.70679 15.7498 9.4058 15.4691 8.8919ZM2.97857 7.8636C2.70229 7.46769 3.71605 7.35595 3.76493 7.47803C3.81367 7.60071 3.25733 8.26011 2.97857 7.8636ZM5.17879 0C6.64584 6.40646e-06 7.83487 1.18949 7.83489 2.65648C7.83489 4.12259 6.64585 5.31389 5.17879 5.3139C3.71185 5.3139 2.52232 4.12259 2.52232 2.65648C2.52234 1.18949 3.71186 0 5.17879 0ZM5.25117 0.620177C4.27829 0.620202 3.48802 1.40919 3.48802 2.38164C3.48805 3.35447 4.27831 4.14251 5.25117 4.14253C6.22367 4.14253 7.01166 3.35449 7.01169 2.38164C7.01169 1.40918 6.22369 0.620183 5.25117 0.620177Z" fill="white"/>
</svg>
