<svg width="24" height="24" viewBox="0 0 24 24" fill="none" xmlns="http://www.w3.org/2000/svg">
<path d="M23.129 10.3928C22.5664 9.84539 21.8282 9.54385 21.05 9.54385C20.4809 9.54385 19.909 9.75027 19.5947 9.95404C18.944 10.376 18.4092 10.8341 17.4464 12.0453V12.9159C18.2633 11.8797 19.0363 11.0632 19.6231 10.6142C20.0088 10.3126 20.5561 10.1258 21.05 10.1258C22.3249 10.1258 23.4025 11.1745 23.4025 12.4164V12.9404C23.4025 13.5541 23.155 14.1306 22.704 14.5646C22.2577 14.9945 21.6697 15.2312 21.05 15.2312C20.0023 15.2312 19.08 14.531 18.8294 13.5747L18.4082 14.0718C18.7154 15.0738 19.8247 15.813 21.05 15.813C21.8282 15.813 22.5664 15.511 23.129 14.9646C23.6908 14.4172 24 13.6985 24 12.9404V12.4164C24 11.6587 23.6908 10.9397 23.129 10.3928ZM10.3288 10.1258C10.7348 10.1258 11.0858 10.2107 11.4027 10.3854C11.5516 10.2041 11.702 10.0569 11.8141 9.94798C11.4789 9.69866 10.9112 9.54385 10.3288 9.54385C9.49882 9.54385 8.74515 9.83529 8.207 10.3649C7.67284 10.8896 7.37782 11.6181 7.37782 12.4164V15.813H7.97536V12.4164C7.97536 11.0677 8.94311 10.1258 10.3288 10.1258ZM16.0072 15.813V12.4164C16.0072 11.3722 15.167 10.554 14.0944 10.554C13.5949 10.554 13.118 10.751 12.7506 11.1083C12.3839 11.4653 12.1818 11.9304 12.1818 12.4164V12.9404C12.1818 13.9497 13.058 14.803 14.0944 14.803C14.3786 14.803 14.7654 14.7349 15.0021 14.5457V13.9308C14.7695 14.1129 14.4319 14.2212 14.0944 14.2212C13.3572 14.2212 12.7793 13.6582 12.7793 12.9404V12.4164C12.7793 11.6985 13.3572 11.1364 14.0944 11.1364C14.8323 11.1364 15.4097 11.6985 15.4097 12.4164V15.813H16.0072ZM0 12.0793V12.2672C0 13.276 0.393037 14.2173 1.10711 14.9174C1.81943 15.6159 2.77425 16 3.79563 16C4.61683 16 5.34399 15.8191 5.95782 15.4636C6.46388 15.1698 6.68817 14.8729 6.70749 14.8457V11.7137H3.65052V12.2958H6.10995V14.665L6.10756 14.667C5.81957 14.9479 5.13598 15.4177 3.79563 15.4177C2.92223 15.4177 2.11365 15.0937 1.51739 14.5038C0.924162 13.9167 0.597537 13.1223 0.597537 12.2672V12.0793C0.597537 11.272 0.971577 10.4665 1.62323 9.87057C2.28862 9.26329 3.15547 8.92848 4.06463 8.92848C4.91248 8.92848 5.50316 9.05376 5.97761 9.33355V8.68056C5.48368 8.47601 4.89333 8.38415 4.06463 8.38415C1.86158 8.38415 0 10.0767 0 12.0793ZM10.3288 11.1364C10.5555 11.1364 10.7475 11.173 10.9005 11.2454C10.9749 11.0648 11.0512 10.9159 11.1624 10.7351C10.9999 10.6219 10.6131 10.554 10.3288 10.554C9.23844 10.554 8.41597 11.3547 8.41597 12.4164V15.813H9.01351V12.4164C9.01351 11.6624 9.55453 11.1364 10.3288 11.1364ZM5.97761 10.4533V9.76535C5.43691 9.48292 4.84687 9.35702 4.06463 9.35702C3.26642 9.35702 2.50972 9.64224 1.9331 10.1589C1.35599 10.6774 1.03783 11.3595 1.03783 12.0793V12.2672C1.03783 13.7686 2.27473 14.9898 3.79563 14.9898C5.03269 14.9898 5.54051 14.5956 5.66982 14.471V12.7242H3.65052V13.3058H5.11076V14.1811L5.10549 14.1828C4.91759 14.2557 4.52743 14.4077 3.79563 14.4077C3.2155 14.4077 2.67272 14.1881 2.26691 13.7882C1.85918 13.3868 1.63537 12.8464 1.63537 12.2672V12.0793C1.63537 10.9191 2.74791 9.93912 4.06463 9.93912C4.97554 9.93912 5.51417 10.0827 5.97761 10.4533ZM20.0834 11.5494C20.353 11.2875 20.706 11.1364 21.05 11.1364C21.7872 11.1364 22.3654 11.6985 22.3654 12.4164V12.9404C22.3654 13.6582 21.7872 14.2212 21.05 14.2212C20.693 14.2212 20.3482 14.0302 20.0781 13.685C19.8386 13.3797 19.6835 12.9667 19.6595 12.5955L19.1756 13.1708C19.2706 13.6108 19.5069 14.0325 19.8407 14.3289C20.1852 14.6342 20.6146 14.803 21.05 14.803C22.1051 14.803 22.9627 13.9674 22.9627 12.9404V12.4164C22.9627 11.9304 22.7605 11.4653 22.3939 11.1083C22.0265 10.751 21.5495 10.554 21.05 10.554C20.7342 10.554 20.232 10.6642 19.6335 11.1882L19.6314 11.1902C19.4713 11.3463 19.0952 11.7125 18.8664 11.9736C18.4817 12.3822 17.9226 12.9992 17.4464 13.6164V14.5249C17.975 13.8637 18.2793 13.4933 18.7761 12.9347C19.221 12.4292 19.7717 11.8149 20.0834 11.5494ZM11.1444 12.9404C11.1444 13.6985 11.4539 14.4172 12.0157 14.9646C12.578 15.511 13.3163 15.813 14.0944 15.813C14.4241 15.813 14.7627 15.7445 15.0021 15.6296V15.0483C14.7224 15.1624 14.3845 15.2312 14.0944 15.2312C12.8195 15.2312 11.7416 14.1823 11.7416 12.9404V12.4164C11.7416 11.1745 12.8195 10.1258 14.0944 10.1258C14.7284 10.1258 15.3209 10.3621 15.763 10.7925C16.2046 11.2224 16.4472 11.7992 16.4472 12.4164V15.813H17.0447V12.3045C17.0076 11.5633 16.6825 10.8697 16.1297 10.3512C15.576 9.83063 14.8524 9.54385 14.0944 9.54385C13.3163 9.54385 12.578 9.84539 12.0157 10.3928C11.4539 10.9397 11.1444 11.6587 11.1444 12.4164V12.9404ZM18.0617 10.688C18.2446 10.4741 18.4339 10.2568 18.6584 10.0734V7H18.0617V10.688ZM19.0987 9.83529V7H19.6959V9.43629C19.5337 9.51603 19.307 9.66773 19.0987 9.83529Z" fill="black"/>
</svg>
