<svg width="20" height="20" viewBox="0 0 20 20" fill="none" xmlns="http://www.w3.org/2000/svg">
<path d="M9.61886 0C9.61886 0 9.61053 0.1175 9.57469 0.189167C9.54803 0.251667 9.47636 0.295833 9.48553 0.340833C9.49386 0.385833 9.53886 0.44 9.61053 0.475833C9.68219 0.511667 9.70803 0.5375 9.77969 0.555833C9.84219 0.573333 9.93303 0.619167 9.95053 0.565C9.97803 0.511667 9.94219 0.439167 9.89719 0.376667C9.82553 0.26 9.78886 0.233333 9.69053 0.0725C9.67219 0.0366667 9.65469 0 9.61886 0ZM10.1839 0C10.1655 0.00916667 10.1389 0.145 10.0939 0.260833C10.0405 0.395 10.0755 0.4575 10.1022 0.510833C10.138 0.565 10.1839 0.600833 10.0939 0.655C10.0047 0.708333 9.88719 0.690833 9.88719 0.690833C9.88719 0.690833 9.78886 0.671667 9.70803 0.6275C9.62494 0.590818 9.54161 0.554706 9.45803 0.519167C9.45803 0.519167 9.29636 0.475 9.18886 0.484167C9.08136 0.4925 9.07219 0.5025 8.99219 0.511667C8.94719 0.511667 8.92969 0.510833 8.88469 0.52C8.84886 0.528333 8.80469 0.503333 8.80469 0.5475C8.80469 0.591667 8.89386 0.5925 8.95636 0.619167C9.01886 0.645833 9.16219 0.645 9.13553 0.680833C9.09969 0.716667 8.96553 0.725833 8.95636 0.716667C8.94803 0.716667 8.85886 0.699167 8.78719 0.699167C8.67053 0.7075 8.66219 0.7075 8.49303 0.788333C8.46553 0.796667 8.47469 0.86 8.52803 0.841667C8.60962 0.818376 8.69401 0.80632 8.77886 0.805833C8.88719 0.805833 8.94803 0.8425 9.05553 0.87C9.14553 0.896667 9.15386 0.913333 9.28886 0.931667C9.31553 0.931667 9.36803 0.913333 9.36803 0.949167C9.36803 0.9675 9.33219 0.995 9.33219 0.995C9.33219 0.995 9.25219 1.01167 9.26053 1.03917C9.27886 1.075 9.35053 1.03917 9.38553 1.03917C9.42219 1.03917 9.47719 1.04917 9.46719 1.08417L9.44969 1.11083C9.36716 1.13238 9.28615 1.15938 9.20719 1.19167C8.98303 1.28167 8.89469 1.38917 8.67969 1.49667C8.47386 1.595 8.14303 1.71917 8.14303 1.71917C8.14303 1.71917 8.04469 1.77333 7.90136 1.80833C7.75886 1.845 7.74969 1.83667 7.65136 1.85417C7.57153 1.85877 7.49415 1.88342 7.42636 1.92583C7.37905 1.95037 7.33668 1.98342 7.30136 2.02333L7.17636 2.2125L7.10386 2.31833C7.08636 2.35417 7.06886 2.37167 7.06053 2.4075C7.04219 2.4525 7.03303 2.47083 7.02469 2.51583C6.99803 2.6225 7.02469 2.68583 7.04219 2.79333C7.05136 2.82 7.05136 2.83833 7.06053 2.865C7.06886 2.89167 7.10386 2.91917 7.10386 2.91917L7.13969 2.9275C7.13969 2.9275 7.26636 2.91917 7.34636 2.90083C7.42719 2.88333 7.54386 2.855 7.54386 2.855L7.69469 2.81167L7.79469 2.77583C7.79469 2.77583 7.85719 2.77583 7.86636 2.81167C7.87469 2.83833 7.84803 2.88333 7.84803 2.88333C7.84803 2.88333 7.79386 2.90833 7.74886 2.92667C7.70386 2.945 7.59636 2.97167 7.58803 2.98083L7.47136 3.01667L7.37303 3.02583C7.37303 3.02583 7.35469 3.035 7.33719 3.06167C7.31886 3.08917 7.31886 3.08833 7.31886 3.10583C7.33719 3.12417 7.34636 3.14167 7.36469 3.16C7.40053 3.18667 7.41803 3.20417 7.46219 3.21333C7.52469 3.24 7.56053 3.23167 7.62303 3.23167C7.70128 3.23187 7.77844 3.21329 7.84803 3.1775C7.91969 3.1325 7.94636 3.13333 8.04469 3.0975C8.07673 3.08806 8.1097 3.08219 8.14303 3.08C8.31303 3.06167 8.40969 3.08833 8.58053 3.11583C8.75053 3.1425 8.83219 3.19667 9.00219 3.22333C9.18136 3.25 9.28803 3.30333 9.47553 3.25917C9.56553 3.24083 9.61969 3.19583 9.66469 3.285C9.70886 3.36583 9.70053 3.41 9.70053 3.41C9.70053 3.41 9.69969 3.465 9.63719 3.635C9.57386 3.805 9.37803 4.22583 9.37803 4.22583L9.24303 4.49417C9.24303 4.49417 9.13469 4.70833 8.88469 4.98583C8.79624 5.08428 8.70735 5.18233 8.61803 5.28C8.61803 5.28 8.48386 5.37917 8.34969 5.54917C8.21553 5.71917 8.21386 5.78167 8.08886 5.9075C8.00803 5.9875 7.96386 6.0325 7.86553 6.09583C7.76719 6.15833 7.65053 6.14 7.33719 6.35417C7.06886 6.5425 6.92553 6.69583 6.90719 6.68667C6.88969 6.67833 6.79969 6.605 6.76386 6.58667C6.73719 6.57 6.21886 6.22083 6.21886 6.22083L6.00386 6.0775L5.90469 6.01417L5.88719 5.97833L5.83469 5.90667C5.83469 5.90667 5.75386 5.80833 5.65553 5.72833C5.55364 5.62979 5.42643 5.56143 5.28803 5.53083C5.13553 5.48667 5.03803 5.45917 4.88636 5.51333C4.80052 5.54148 4.72315 5.59077 4.66136 5.65667C4.57219 5.74583 4.55386 5.8175 4.48219 5.925C4.41053 6.0325 4.33886 6.13167 4.30303 6.185C4.26719 6.23917 4.19553 6.3825 4.19553 6.3825C4.19553 6.3825 4.01719 6.66833 3.91886 6.85583C3.80219 7.06167 3.75803 7.18833 3.65053 7.385C3.48053 7.69833 3.23803 8.02 3.17553 8.1625L3.10553 8.32417C3.10553 8.32417 3.08636 8.40333 3.07803 8.4575C3.06886 8.51083 3.06886 8.60083 3.05969 8.63667C3.05211 8.67246 3.03706 8.70625 3.01553 8.73583C3.00719 8.74417 2.90803 8.95 2.87219 9.08417C2.83636 9.2175 2.75553 9.63917 2.85469 9.6925C2.95303 9.74667 3.67719 9.43417 3.77553 9.12917C3.83886 8.9325 3.57886 8.83333 3.65053 8.65417C3.67719 8.59167 3.69553 8.58333 3.73969 8.52083C3.81136 8.40417 3.78469 8.16333 3.91886 7.94C4.01719 7.77917 4.21386 7.57167 4.48219 7.2675C4.65219 7.08 4.81386 6.77583 4.81386 6.77583C4.81386 6.77583 4.84969 6.66833 4.92219 6.68667C5.00219 6.70417 5.07303 6.695 5.07303 6.695L5.10886 6.7225L5.18053 6.79417L5.28803 6.955C5.28803 6.955 5.46803 7.21333 5.52969 7.28583C5.59303 7.3575 5.65553 7.41083 5.74553 7.4825C5.84386 7.57167 5.87886 7.61667 6.00386 7.71583C6.18303 7.85833 6.11969 7.9125 5.88719 7.78667C5.79048 7.7376 5.68879 7.69905 5.58386 7.67167C5.47719 7.64417 5.07386 7.53667 4.86803 7.51C4.67136 7.48333 4.63469 7.4925 4.63469 7.4925C4.63469 7.4925 4.53636 7.4825 4.42053 7.55417C4.30386 7.62583 4.24136 7.67917 4.24136 7.67917C4.24136 7.67917 4.10719 7.83167 4.09803 7.85833C4.08969 7.885 4.02636 7.99167 4.02636 7.99167C4.02636 7.99167 3.98969 8.04667 3.98136 8.10833C3.96303 8.17167 3.97303 8.23417 3.97303 8.23417L3.98136 8.3675L3.99053 8.4925C3.99053 8.4925 4.01803 8.80667 4.08053 9.12C4.09803 9.20917 4.11636 9.3525 4.11636 9.3525L4.15969 9.675C4.15969 9.675 4.18719 10.0158 4.21386 10.1317C4.24053 10.24 4.25886 10.2483 4.27719 10.3192C4.31303 10.4533 4.25053 10.5158 4.31303 10.6775C4.37553 10.8383 4.42969 10.8192 4.49219 10.9183C4.53719 10.99 4.55386 11.0075 4.58969 11.0975C4.62553 11.1867 4.74219 11.4833 4.87636 11.6975C5.01969 11.9217 5.20803 12.1983 5.33386 12.1717C5.45886 12.1442 5.54803 11.9483 5.54803 11.9483C5.54803 11.9483 5.69136 11.5625 5.60219 11.1867C5.51219 10.8017 5.10053 10.9825 5.04719 10.705C5.03886 10.6425 5.04719 10.5442 5.04719 10.5442C5.04719 10.5442 5.03719 10.4267 5.01969 10.3908C5.00136 10.355 4.85803 10.0875 4.80469 9.86333C4.75969 9.69333 4.76886 9.14667 4.73303 8.99417C4.63469 8.60083 4.62553 8.63583 4.67886 8.565C4.74219 8.49333 4.79636 8.51083 4.79636 8.51083L4.87636 8.52083L4.93969 8.54667L5.05553 8.61833C5.09136 8.645 5.21636 8.74333 5.21636 8.74333L5.52053 8.94083C5.52053 8.94083 5.69136 9.04 5.76303 9.07583C5.83469 9.11167 5.89636 9.15583 5.89636 9.15583L5.97636 9.20917L6.11136 9.30917L6.13719 9.33417L6.15553 9.37C6.15553 9.37 6.21886 9.51417 6.48719 9.66667C6.70219 9.79167 6.89053 9.755 6.97053 9.85417C6.98886 9.87167 7.13969 10.0792 7.21219 10.2042C7.30136 10.3467 7.40886 10.5158 7.44469 10.57C7.48053 10.6233 7.70469 10.9 7.70469 10.9L7.99969 11.2225L8.38553 11.5808L8.73386 11.8767L8.95636 12.0558C8.95636 12.0558 9.15386 12.2442 9.37803 12.3958C9.59303 12.5392 9.60136 12.5567 9.74469 12.6542C9.85136 12.7267 9.99469 12.8258 10.138 12.9333C10.2814 13.05 10.443 13.2633 10.3805 13.335C10.3355 13.3617 10.2547 13.2467 10.1022 13.1125C10.0028 13.0231 9.89846 12.9394 9.78969 12.8617C9.62886 12.7367 9.54719 12.6725 9.36803 12.565C9.27886 12.5117 9.11803 12.4142 9.10969 12.4317C9.04719 12.62 9.05469 12.7983 9.06386 13.0308C9.07219 13.1917 9.09969 13.3525 9.15303 13.5583C9.19803 13.755 9.24303 13.8633 9.31469 14.0508C9.38636 14.2392 9.52136 14.5342 9.52136 14.5342L9.72636 14.9467L9.91469 15.2592L10.013 15.42L10.0489 15.4733C10.0489 15.4733 10.093 15.5817 10.0489 15.6525C10.0047 15.7233 9.94969 15.8767 9.86969 15.8858C9.78886 15.9033 9.60136 15.9133 9.60136 15.9133L8.53636 15.895L7.98136 15.85C7.98136 15.85 7.91969 15.8142 7.59803 15.8142C7.40969 15.8142 7.25719 15.8942 7.14969 15.9033C7.06053 15.9117 6.62136 15.8767 6.32636 15.9925C6.04886 16.1092 5.92303 16.1358 5.82469 16.315C5.75303 16.4492 6.17469 16.665 6.52303 16.745C7.08719 16.87 6.92553 16.6283 7.13969 16.4767C7.16719 16.4583 7.17636 16.4417 7.20386 16.4325C7.34636 16.3875 7.42636 16.5025 7.57053 16.5025C7.73053 16.5025 7.82053 16.4492 7.98136 16.4225C8.79553 16.315 10.0664 16.6992 10.0664 16.6992C10.0664 16.6992 10.3805 16.7975 10.5239 16.7708C10.6939 16.735 10.6572 16.6725 10.7105 16.5742C10.7555 16.4933 10.738 16.4767 10.7464 16.3867C10.7464 16.3333 10.738 16.3067 10.7289 16.2533C10.693 16.1008 10.5955 15.8858 10.5955 15.8858C10.5955 15.8858 10.523 15.725 10.4955 15.6442C10.4605 15.5283 10.4247 15.4558 10.4064 15.3308C10.353 14.9992 10.3622 15.0267 10.3622 14.8392C10.3622 14.4992 10.398 14.3108 10.4872 13.98C10.6222 13.4967 10.873 13.2908 11.0605 12.8258C11.1147 12.7008 11.1139 12.5217 11.1772 12.5033C11.248 12.495 11.2397 12.7275 11.2039 12.8617C11.0872 13.3267 10.8014 13.5233 10.6672 13.9975C10.5689 14.3642 10.5147 14.5783 10.5422 14.9542C10.5505 15.16 10.6314 15.4833 10.6314 15.4833C10.6314 15.4833 10.7389 15.8408 10.7922 15.975C10.8464 16.1092 10.953 16.3333 10.953 16.3333L11.1947 16.7625L11.3197 16.9675C11.3197 16.9675 11.408 17.0483 11.3639 17.1825C11.3189 17.3167 11.2305 17.3992 11.1222 17.515C10.8189 17.8733 10.1122 18.4 9.93303 18.525C9.68303 18.7133 9.69053 18.7675 9.67219 18.8217C9.57386 19.1083 9.28719 19.1167 8.97469 19.4567C8.90303 19.5283 8.71553 19.7242 8.75136 19.8942C8.76886 19.9567 9.53886 20.0917 9.98636 19.9042C10.3364 19.7517 10.0314 19.5808 10.1297 19.4108C10.2014 19.2858 10.3797 19.2858 10.4605 19.1775C10.5939 18.9992 10.5047 19.0083 10.6214 18.8658C11.0064 18.4 11.2572 18.1325 11.9464 17.7117C12.0089 17.6758 12.1255 17.6225 12.1255 17.6225C12.1255 17.6225 12.223 17.5767 12.2589 17.5225C12.3039 17.4508 12.2947 17.3892 12.2947 17.3083C12.2947 17.2542 12.2864 17.2283 12.2864 17.175C12.2864 17.1117 12.2947 17.0758 12.2764 17.0133C12.2589 16.915 12.1972 16.8342 12.1614 16.78C12.0918 16.6946 12.0453 16.5927 12.0264 16.4842C11.9776 16.3193 11.9873 16.1427 12.0539 15.9842C12.1255 15.7967 12.2864 15.645 12.2864 15.645L12.688 15.3758C12.688 15.3758 13.038 15.125 13.1464 15.0258C13.2622 14.9275 13.4855 14.7217 13.6464 14.4892C13.8347 14.23 13.933 14.0683 14.013 13.7558C14.0397 13.6392 14.0672 13.4608 14.0672 13.4608C14.0672 13.4608 14.0672 13.3358 14.1389 13.3275C14.2097 13.3183 14.228 13.3442 14.228 13.3442C14.228 13.3442 14.2897 13.3792 14.308 13.5583C14.3164 13.7375 14.2639 13.9442 14.2639 13.9442C14.2639 13.9442 14.2097 14.1492 14.1922 14.2742C14.1839 14.355 14.1822 14.3992 14.1822 14.4892C14.1822 14.6417 14.2455 14.7675 14.2455 14.7675C14.2455 14.7675 14.2814 14.7942 14.2814 14.7317C14.2862 14.6347 14.3015 14.5386 14.3272 14.445C14.3539 14.3558 14.3714 14.3725 14.4247 14.22C14.4964 14.0233 14.433 14.0425 14.4689 13.9258C14.4872 13.8725 14.5322 13.8183 14.5855 13.8183C14.6397 13.8183 14.648 13.89 14.648 13.89C14.648 13.89 14.7022 14.1233 14.658 14.3375C14.613 14.5525 14.4514 14.8475 14.4514 14.8475L14.3272 15.0617C14.3272 15.0617 14.238 15.2142 14.2022 15.3125C14.1664 15.42 14.1564 15.465 14.1747 15.5625C14.2014 15.6708 14.283 15.815 14.3272 15.7875C14.363 15.7608 14.2739 15.6708 14.3814 15.4558C14.4889 15.2408 14.6297 15.1075 14.6297 15.1075C14.6297 15.1075 14.8272 14.8742 14.9164 14.6958C14.9972 14.535 15.078 14.2742 15.078 14.2742C15.078 14.2742 15.1414 14.0408 15.123 13.8442C15.1147 13.6567 15.078 13.5583 15.078 13.5583L14.998 13.415L14.9522 13.3092L14.9705 13.2458C14.988 13.2367 15.0514 13.2817 15.1055 13.3533C15.1708 13.4374 15.2164 13.5351 15.2389 13.6392C15.2633 13.7205 15.2754 13.8051 15.2747 13.89C15.2747 13.9617 15.2489 14.2567 15.3555 14.445C15.4005 14.535 15.508 14.74 15.5172 14.65C15.5347 14.4442 15.4447 14.3467 15.4539 14.1583C15.4622 13.9442 15.5172 13.9975 15.5347 13.89C15.553 13.7733 15.5789 13.7458 15.5614 13.5942C15.5433 13.482 15.5166 13.3714 15.4814 13.2633L15.418 13.12L15.3914 13.0667C15.3914 13.0667 15.4089 13.0408 15.4355 13.0408L15.6505 12.9692C15.6505 12.9692 15.9289 12.8442 16.0364 12.7542C16.153 12.6733 16.2864 12.5292 16.2864 12.5292C16.2864 12.5292 16.4655 12.3067 16.5555 12.1458C16.7705 11.7425 16.7697 11.2325 16.7605 10.9992C16.7522 10.7758 16.6889 10.48 16.6889 10.48C16.6889 10.48 16.6172 10.1217 16.6355 9.88917C16.653 9.65667 16.6714 9.54917 16.6714 9.54917C16.6714 9.54917 16.663 9.31667 16.8597 9.06583C17.0564 8.81583 17.1447 8.655 17.1805 8.46667C17.2164 8.30583 17.1622 8.04667 17.0905 8.145C17.0105 8.2525 16.9764 8.4675 16.8597 8.64583C16.6989 8.89667 16.4647 9.20083 16.3489 9.20083C16.2864 9.20083 16.2689 9.0575 16.2689 9.0575C16.2689 9.0575 16.1889 8.81583 16.323 8.51083C16.4214 8.29583 16.4739 8.23417 16.5997 8.07333C16.7164 7.92083 16.7872 7.84 16.868 7.67917C16.9397 7.53583 16.9564 7.50917 17.0014 7.28583C17.0097 7.23167 16.993 7.11583 16.9397 7.12417C16.868 7.12417 16.6714 7.555 16.4655 7.79667C16.2689 8.02 15.9014 8.30583 15.9014 8.30583C15.9014 8.30583 15.8655 8.33167 15.8655 8.26C15.8572 8.1975 15.8472 8.01 15.883 7.84083C15.928 7.62814 16.0101 7.42503 16.1255 7.24083C16.2955 6.94583 16.5097 6.74083 16.6172 6.6325C16.6622 6.58833 16.7964 6.50667 16.7255 6.46167C16.6622 6.42583 16.4739 6.58667 16.3305 6.695C16.1522 6.82833 16.0897 6.86583 15.9114 7.08083C15.7322 7.295 15.6864 7.385 15.6864 7.385C15.6864 7.385 15.5164 7.66167 15.4714 7.93C15.4264 8.19833 15.4272 8.35 15.4272 8.35C15.4272 8.35 15.4272 8.5925 15.4539 8.73583C15.4714 8.8875 15.5347 9.11917 15.5347 9.11917C15.5347 9.11917 15.6247 9.38 15.6597 9.54167C15.6964 9.7025 15.758 10.1758 15.758 10.1758C15.758 10.1758 15.803 10.5167 15.7755 10.8383C15.7489 11.1608 15.7222 11.3483 15.6864 11.4467C15.6505 11.5458 15.553 11.805 15.3914 11.9842C15.2397 12.1542 15.203 12.1808 15.203 12.1808C15.203 12.1808 15.0422 12.3142 14.908 12.3858C14.7726 12.4592 14.632 12.5224 14.4872 12.575C14.4133 12.5881 14.3388 12.5968 14.2639 12.6008H14.148L14.1122 12.5758L14.093 12.5033C14.093 12.5033 14.0047 12.1542 13.898 11.9308C13.808 11.7425 13.6197 11.4833 13.6197 11.4833C13.6197 11.4833 13.2972 11.0442 13.0464 10.8025C12.7597 10.5167 12.438 10.3025 12.2405 10.15C12.1689 10.0967 12.008 9.99667 12.008 9.99667C12.008 9.99667 11.3555 9.34417 11.123 8.825C10.9614 8.46667 10.8547 8.20833 10.8997 7.81417C10.908 7.725 10.9439 7.55417 10.9614 7.55417L11.078 7.59C11.088 7.59833 11.1947 7.6975 11.2939 7.73333C11.3472 7.75083 11.4447 7.76917 11.4447 7.76917C11.4447 7.76917 11.5255 7.7775 11.5697 7.78667C11.6147 7.805 11.6955 7.83167 11.7489 7.85833C11.803 7.885 11.8822 7.94 11.8822 7.94L12.0355 8.055L12.1972 8.18C12.1972 8.18 12.2855 8.24333 12.3122 8.2525C12.3389 8.26083 12.3572 8.27 12.3664 8.27H12.4022C12.4022 8.27 12.4389 8.26 12.4472 8.22417C12.4564 8.18 12.403 8.21583 12.3222 8.12667C12.2723 8.08382 12.23 8.03282 12.1972 7.97583C12.1972 7.97583 12.1789 7.90333 12.1072 7.8225C12.0355 7.74167 11.9464 7.67083 11.9464 7.67083C11.9464 7.67083 11.883 7.62667 11.793 7.59917C11.7039 7.5725 11.6764 7.57167 11.668 7.53583C11.6597 7.5 11.7755 7.51833 11.7755 7.51833C11.7755 7.51833 11.9105 7.53583 12.0172 7.59C12.1255 7.64333 12.1872 7.70667 12.1872 7.70667L12.2589 7.76917L12.3047 7.81417L12.348 7.84083C12.348 7.84083 12.393 7.885 12.4022 7.8225C12.4105 7.76917 12.393 7.72417 12.3839 7.715L12.3397 7.67083L12.1614 7.51833C12.1181 7.4717 12.0701 7.4298 12.018 7.39333C11.9456 7.34231 11.8673 7.30033 11.7847 7.26833C11.6955 7.23167 11.6422 7.24083 11.5522 7.19583C11.4897 7.16917 11.4355 7.15167 11.3997 7.09833C11.3905 7.09 11.3464 7.0525 11.4272 7.07083C11.5072 7.08833 11.5605 7.11583 11.6497 7.13417C11.793 7.17 11.883 7.16917 12.018 7.21417C12.0714 7.23167 12.143 7.2675 12.143 7.2675L12.3122 7.33917C12.3122 7.33917 12.5455 7.465 12.7064 7.47417C12.8256 7.48339 12.9453 7.46515 13.0564 7.42083C13.1213 7.39421 13.1818 7.35767 13.2355 7.3125C13.252 7.29644 13.2665 7.27855 13.2789 7.25917L13.2972 7.21417V7.17833C13.2522 7.12417 13.1639 7.26833 13.0205 7.295C12.868 7.3225 12.8764 7.33917 12.778 7.32167C12.6823 7.31164 12.5935 7.26722 12.528 7.19667C12.3839 7.06167 12.3314 6.93667 12.143 6.85583C12.063 6.82 11.918 6.78417 11.918 6.78417C11.918 6.78417 11.7214 6.72167 11.6139 6.65917C11.5339 6.61417 11.3655 6.5875 11.4189 6.51583C11.4455 6.48 11.6605 6.605 11.8205 6.62333C11.9372 6.64083 12.018 6.6325 12.1072 6.6325C12.1964 6.6325 12.3222 6.605 12.3405 6.605C12.358 6.59667 12.4289 6.605 12.4914 6.62333C12.5539 6.64083 12.5897 6.6675 12.6522 6.695C12.7155 6.72167 12.788 6.76667 12.8055 6.76667L12.8414 6.77583L12.8597 6.75833L12.868 6.74L12.8597 6.7225L12.8314 6.70417L12.778 6.66833C12.778 6.66833 12.698 6.62333 12.6264 6.55167C12.5547 6.48 12.4914 6.4 12.3847 6.36417C12.2764 6.32833 12.1514 6.31083 12.1514 6.31083L12.0264 6.30083L11.9722 6.2925C11.9722 6.2925 11.883 6.265 11.9547 6.2475C11.9955 6.23502 12.0373 6.2261 12.0797 6.22083C12.1482 6.20601 12.2193 6.20888 12.2864 6.22917C12.358 6.25583 12.4747 6.31833 12.483 6.31833C12.4922 6.3275 12.5997 6.40917 12.7164 6.43583C12.833 6.4625 12.9847 6.47167 12.9847 6.47167L13.0564 6.45417L13.0922 6.44417L13.118 6.42583L13.1097 6.3825C13.1097 6.3825 13.1097 6.34583 13.0564 6.33667C12.9628 6.3258 12.8733 6.29234 12.7955 6.23917C12.6972 6.1675 12.6264 6.09583 12.6264 6.09583C12.6264 6.09583 12.5547 6.0325 12.4114 5.99583C12.278 5.96083 12.233 5.96083 12.233 5.96083L12.1872 5.9425L12.0897 5.89917C12.0897 5.89917 12.0439 5.87167 12.008 5.8275C11.9722 5.7825 11.9197 5.70083 12.0714 5.74583C12.2239 5.79083 12.2589 5.8175 12.2589 5.8175C12.2589 5.8175 12.3397 5.89833 12.4114 5.90667C12.4564 5.91583 12.4922 5.925 12.5197 5.88917C12.5639 5.84417 12.438 5.79083 12.348 5.7275C12.291 5.68291 12.2425 5.62843 12.2047 5.56667C12.2047 5.56667 12.1522 5.5225 12.233 5.54083C12.313 5.55833 12.4555 5.64833 12.4555 5.64833C12.4555 5.64833 12.5272 5.68333 12.5639 5.6925C12.5897 5.70083 12.6622 5.74583 12.698 5.76333C12.7247 5.7725 12.8064 5.79083 12.8589 5.8175C12.9305 5.8625 12.9672 5.93417 13.0022 5.96083C13.038 5.9875 13.0655 6.03333 13.1105 6.04167C13.1547 6.05083 13.163 6.06833 13.1897 6.05C13.2022 6.04216 13.2141 6.03353 13.2255 6.02417C13.2255 6.02417 13.2339 6.005 13.1897 5.97833C13.1455 5.95167 13.0922 5.88083 13.0922 5.88083L13.0739 5.845L13.0647 5.80917L13.0205 5.7375L12.9389 5.62083C12.9389 5.62083 12.8139 5.45083 12.698 5.3875C12.5905 5.325 12.5097 5.29 12.5097 5.29C12.5097 5.29 12.4564 5.26417 12.4297 5.24583C12.3847 5.21 12.3664 5.18167 12.3297 5.1375C12.2855 5.08333 12.2689 5.04917 12.2147 4.99583C12.1164 4.8975 11.8122 4.8425 11.928 4.77083C11.9914 4.735 12.0714 4.75417 12.1072 4.7625C12.143 4.77167 12.2239 4.80583 12.3047 4.8325C12.358 4.85083 12.3939 4.8525 12.4472 4.87C12.5014 4.88833 12.5639 4.89583 12.5905 4.91417C12.6172 4.93167 12.6447 4.96833 12.6622 4.9775C12.6714 4.98583 12.7422 5.1025 12.8672 5.165C12.9922 5.2275 13.0564 5.27167 13.1814 5.28C13.2797 5.28917 13.4397 5.255 13.4397 5.255C13.4397 5.255 13.4855 5.23583 13.4497 5.19083C13.4055 5.14583 13.4047 5.1375 13.3689 5.12917C13.2255 5.075 13.1105 5.09333 13.0022 4.98583C12.958 4.94083 12.9389 4.93167 12.903 4.86083C12.8672 4.78917 12.8864 4.77167 12.8597 4.7275C12.8414 4.6825 12.7955 4.61917 12.7955 4.61917C12.7955 4.61917 12.6622 4.4575 12.5189 4.3775C12.4202 4.32738 12.327 4.26735 12.2405 4.19833C12.2139 4.18 12.1614 4.10833 12.1614 4.10833L12.1155 4.03667L12.0897 3.98333C12.0714 3.885 12.2497 4.01083 12.348 4.04667C12.5097 4.1 12.5905 4.17167 12.7522 4.22583C12.8414 4.2525 12.8955 4.25167 12.9847 4.2875C13.1364 4.35 13.1814 4.5025 13.343 4.52083C13.4322 4.52917 13.6114 4.565 13.5755 4.48417C13.5397 4.395 13.3605 4.395 13.2714 4.2875C13.2264 4.2425 13.2264 4.19917 13.1814 4.15417C13.1097 4.06417 12.9397 3.98333 12.9397 3.98333C12.9397 3.98333 12.8864 3.93917 12.823 3.81417C12.7697 3.68917 12.6355 3.5975 12.3939 3.48167C12.233 3.40167 11.9105 3.38333 12.0355 3.3025C12.1072 3.24917 12.1697 3.25833 12.2689 3.285C12.3672 3.32083 12.4022 3.36667 12.483 3.40167C12.5639 3.43833 12.5997 3.44667 12.6164 3.45583C12.6347 3.46417 12.6972 3.49167 12.7247 3.49167C12.7414 3.5 12.8772 3.51833 12.913 3.5275L13.0922 3.57167L13.2355 3.625C13.2355 3.625 13.3064 3.6525 13.3505 3.6525C13.3947 3.6525 13.468 3.635 13.468 3.635L13.5214 3.59917L13.5297 3.58083C13.5297 3.58083 13.5572 3.53667 13.4855 3.5275C13.4502 3.52185 13.4146 3.51851 13.3789 3.5175L13.3147 3.5L13.2897 3.49167C13.2897 3.49167 13.1639 3.39333 13.0564 3.34833C13.011 3.33137 12.966 3.31359 12.9214 3.295L12.8772 3.285L12.8239 3.27667C12.8239 3.27667 12.778 3.27667 12.7064 3.21333C12.6347 3.15083 12.608 3.115 12.5455 3.0525L12.4655 2.9725C12.4655 2.9725 12.3939 2.9175 12.3939 2.8725C12.4022 2.80167 12.5547 2.95417 12.5547 2.95417L12.663 3.02583C12.663 3.02583 12.7522 3.08917 12.913 3.0975C13.0739 3.10667 13.2714 3.0525 13.2714 3.0525C13.2714 3.0525 13.2972 3.03583 13.3864 3.06167C13.4755 3.0875 13.548 3.14167 13.548 3.14167L13.6197 3.205L13.7272 3.32083L13.7447 3.3125C13.753 3.30417 13.7989 3.25833 13.7189 3.16C13.638 3.06083 13.5039 2.9725 13.5039 2.9725C13.5039 2.9725 13.3247 2.865 13.1455 2.82917C12.9672 2.79333 12.8855 2.79333 12.8855 2.79333C12.8855 2.79333 12.7514 2.79333 12.6705 2.70417C12.5897 2.61417 12.5372 2.525 12.5372 2.525L12.5097 2.4C12.5097 2.4 12.4655 2.34583 12.3764 2.31C12.2955 2.27417 12.2047 2.22083 12.2047 2.22083C12.2047 2.22083 12.0714 2.17583 12.0614 2.1125C12.0347 1.99667 12.2864 2.1125 12.4197 2.13917C12.5447 2.16583 12.5989 2.21167 12.7239 2.23917C12.817 2.26562 12.9143 2.2741 13.0105 2.26417C13.073 2.26417 13.1089 2.2575 13.1714 2.2475C13.2347 2.2475 13.2797 2.23917 13.343 2.2475C13.4322 2.26583 13.468 2.31 13.5572 2.34583C13.6114 2.3725 13.638 2.39833 13.7005 2.4075C13.7547 2.41667 13.8622 2.45333 13.8439 2.39917L13.8164 2.36333C13.7714 2.30083 13.7189 2.30083 13.6647 2.25667C13.548 2.16667 13.4947 2.09583 13.3605 2.03333C13.285 1.99298 13.2034 1.96538 13.1189 1.95167C13.0464 1.94333 12.993 1.96167 12.9214 1.94333C12.8405 1.91667 12.8147 1.88083 12.7339 1.83667C12.6089 1.765 12.5364 1.70167 12.4022 1.6475C12.3231 1.61905 12.2424 1.59512 12.1605 1.57583L12.0972 1.5675L12.0722 1.55833C11.9464 1.51333 12.2947 1.41583 12.4555 1.37083C12.5364 1.35333 12.5722 1.33417 12.6522 1.34333C12.7239 1.35167 12.8047 1.45167 12.8855 1.40667C13.0022 1.34417 12.7514 1.17333 12.6705 1.14667C12.563 1.10167 12.3755 1.13833 12.3755 1.13833L11.9639 1.12833L11.8472 1.11083C11.8472 1.11083 11.7755 1.11083 11.7222 1.04833C11.668 0.985833 11.463 0.734167 11.2305 0.698333C10.9889 0.6625 10.9172 0.698333 10.8997 0.681667C10.6939 0.358333 10.478 0.2875 10.3164 0.135833C10.2722 0.0908333 10.2014 -0.00833333 10.183 0.000833333L10.1839 0ZM11.1614 0.95C11.1755 0.949318 11.1897 0.949318 11.2039 0.95L11.248 0.9775C11.2847 1.01375 11.3149 1.05603 11.3372 1.1025C11.3464 1.13833 11.2305 1.09417 11.1864 1.08417C11.1409 1.07149 11.0985 1.04997 11.0614 1.02083C11.0614 1.02083 11.0422 0.994167 11.0864 0.9675C11.1095 0.955513 11.1353 0.950062 11.1614 0.95ZM11.3714 1.39167C11.393 1.39167 11.4089 1.39667 11.4089 1.39667L11.453 1.425C11.4897 1.46123 11.5199 1.50352 11.5422 1.55C11.5514 1.58583 11.4355 1.54167 11.3914 1.53167C11.3459 1.51899 11.3035 1.49747 11.2664 1.46833C11.2664 1.46833 11.248 1.44167 11.3022 1.415C11.3221 1.39993 11.3464 1.39201 11.3714 1.3925V1.39167ZM9.80303 1.40333C9.82531 1.4022 9.84764 1.40332 9.86969 1.40667C9.86969 1.40667 9.90553 1.40667 9.95886 1.4325C10.013 1.46833 10.0489 1.57583 10.0489 1.57583C10.0489 1.57583 10.0572 1.59417 10.013 1.59417C9.98553 1.59417 9.98553 1.55 9.95886 1.53167C9.92303 1.505 9.89636 1.49583 9.85136 1.47833C9.80719 1.46083 9.74469 1.48667 9.73636 1.4425C9.73636 1.41583 9.76969 1.40583 9.80303 1.40333ZM9.09969 1.5075C9.13469 1.4975 9.09969 1.5675 9.09969 1.5675C9.09969 1.5675 8.98386 1.755 8.82303 1.82667C8.66219 1.89833 8.55469 1.935 8.24969 1.96167C8.20553 1.96167 8.22469 1.93417 8.22469 1.93417C8.22469 1.93417 8.57219 1.83667 8.76969 1.72917C8.86389 1.67689 8.95364 1.61697 9.03803 1.55C9.05591 1.53252 9.0768 1.51757 9.09969 1.5075ZM9.72636 1.5575C9.72636 1.5575 9.78053 1.55917 9.84303 1.60333C9.90636 1.64833 9.95969 1.80083 9.95969 1.80083C9.95969 1.80083 9.97803 1.89833 9.93303 1.93417C9.88803 1.97 9.81636 1.90833 9.77969 1.85417C9.74777 1.80902 9.70028 1.77726 9.64636 1.765C9.57469 1.73833 9.46719 1.81833 9.44969 1.765C9.44969 1.74667 9.45803 1.70167 9.45803 1.70167C9.45803 1.70167 9.47636 1.64833 9.55719 1.60417C9.62886 1.55917 9.72636 1.55833 9.72636 1.55833V1.5575ZM11.3914 1.90333C11.4272 1.90667 11.4772 1.93417 11.5164 1.93417C11.633 1.93417 11.7305 1.93417 11.8114 1.95167C11.883 1.97 11.9005 2.01417 11.8647 2.01417C11.8386 2.02113 11.8117 2.02422 11.7847 2.02333C11.7047 2.02333 11.713 1.9875 11.6064 2.04167C11.498 2.095 11.5789 2.06917 11.4272 2.1225C11.2839 2.17667 11.3189 2.03333 11.3189 2.03333C11.3189 2.03333 11.3297 2.00583 11.3472 1.93333C11.3539 1.9075 11.3697 1.90083 11.3914 1.90333ZM7.35469 2.31833C7.40886 2.31833 7.50803 2.355 7.50803 2.435C7.51636 2.51583 7.45303 2.48 7.40803 2.50667C7.38219 2.525 7.36469 2.53417 7.32886 2.56083C7.28386 2.59667 7.23886 2.68583 7.21219 2.65833C7.17553 2.63167 7.19386 2.53333 7.19386 2.53333C7.19386 2.53333 7.22136 2.46167 7.25719 2.39C7.30219 2.31833 7.35469 2.31833 7.35469 2.31833ZM11.6355 2.41083C11.6496 2.4115 11.6636 2.41374 11.6772 2.4175C11.6772 2.4175 11.7039 2.42583 11.7214 2.44333C11.7397 2.46167 11.8114 2.525 11.8114 2.56C11.8114 2.5875 11.6955 2.54167 11.6422 2.53333C11.588 2.52417 11.5172 2.47083 11.5172 2.47083C11.5172 2.47083 11.4989 2.45417 11.5522 2.4275C11.5782 2.41518 11.6068 2.40946 11.6355 2.41083ZM10.0564 2.48417C10.0647 2.48417 10.0639 2.49667 10.048 2.525C10.013 2.59667 9.90553 2.68583 9.90553 2.68583C9.90553 2.68583 9.78053 2.86417 9.75386 2.89083C9.63719 2.98083 9.49386 2.9275 9.43136 2.93667C9.37803 2.945 9.41386 2.89083 9.41386 2.89083C9.41386 2.89083 9.56636 2.82917 9.66386 2.77583C9.79553 2.71 10.0197 2.48417 10.0564 2.48417ZM8.21636 2.64167C8.23553 2.64167 8.25053 2.65 8.25053 2.6775C8.25969 2.74 8.14386 2.78417 8.14386 2.78417C8.14386 2.78417 8.10886 2.79333 8.09969 2.73083C8.09136 2.66833 8.14386 2.65917 8.14386 2.65917C8.14386 2.65917 8.18553 2.63917 8.21636 2.64167ZM10.433 2.73917C10.448 2.73083 10.4355 2.82 10.4355 2.82C10.4355 2.82 10.408 2.9375 10.3455 2.97333C10.2655 3.01833 10.0672 3.07167 10.0497 3.045C10.0497 3.02667 10.3089 2.945 10.4247 2.74917C10.4267 2.74523 10.4295 2.74181 10.433 2.73917ZM11.6447 2.77167C11.6593 2.77174 11.6738 2.77342 11.688 2.77667C11.688 2.77667 11.713 2.785 11.7405 2.80167C11.7672 2.82917 11.8305 2.90167 11.8397 2.9375C11.848 2.97333 11.723 2.92917 11.6605 2.92C11.6072 2.91083 11.5255 2.84833 11.5255 2.84833C11.5255 2.84833 11.5089 2.82083 11.563 2.79417C11.5874 2.77875 11.6158 2.77092 11.6447 2.77167ZM10.5605 2.975C10.5772 2.97 10.5505 3.045 10.5505 3.045C10.5505 3.045 10.5147 3.16167 10.443 3.18833C10.3539 3.215 10.0147 3.22333 10.0055 3.19667C9.99719 3.16917 10.3989 3.13333 10.5505 2.98167C10.5532 2.97855 10.5566 2.97623 10.5605 2.975ZM11.6722 3.12917C11.689 3.12915 11.7057 3.13082 11.7222 3.13417C11.7222 3.13417 11.7497 3.1425 11.7764 3.16083C11.803 3.1875 11.8747 3.26917 11.8839 3.31333C11.8922 3.3675 11.7589 3.31333 11.6964 3.29583C11.6404 3.27893 11.5883 3.25118 11.543 3.21417C11.543 3.21417 11.5255 3.18833 11.5789 3.1525C11.6071 3.13603 11.6395 3.12794 11.6722 3.12917ZM11.6722 3.57667C11.689 3.57665 11.7057 3.57832 11.7222 3.58167C11.7222 3.58167 11.7497 3.59 11.7764 3.60833C11.803 3.635 11.8747 3.71667 11.8839 3.76083C11.8922 3.80583 11.7589 3.75167 11.6964 3.73333C11.6404 3.71714 11.5883 3.68994 11.543 3.65333C11.543 3.65333 11.5255 3.63583 11.5789 3.6C11.6072 3.58382 11.6396 3.57602 11.6722 3.5775V3.57667ZM10.3655 4.005C10.4347 4.025 10.3714 4.52917 10.238 4.76333C10.0663 5.05082 9.85847 5.31518 9.61969 5.55C9.49469 5.63917 9.57553 5.47833 9.57553 5.47833C9.57553 5.47833 9.92386 4.99583 10.0855 4.65583C10.2022 4.41417 10.2739 4.0925 10.3272 4.02917C10.3439 4.01083 10.3555 4.0025 10.3655 4.005ZM11.6572 4.01167C11.6766 4.0123 11.6959 4.0151 11.7147 4.02C11.7147 4.02 11.7497 4.02833 11.7764 4.05583C11.803 4.0825 11.893 4.18167 11.9014 4.22667C11.9014 4.28 11.7497 4.2075 11.6789 4.19917C11.6167 4.18166 11.559 4.15096 11.5097 4.10917C11.5097 4.10917 11.4905 4.07333 11.553 4.0375C11.5841 4.01798 11.6206 4.00892 11.6572 4.01167ZM11.6005 4.445C11.6173 4.44471 11.634 4.4461 11.6505 4.44917C11.6505 4.44917 11.678 4.45917 11.7047 4.4775C11.7314 4.50417 11.803 4.58417 11.8122 4.62833C11.8205 4.67333 11.6872 4.62 11.6247 4.61083C11.5694 4.59441 11.5178 4.56722 11.473 4.53083C11.473 4.53083 11.4564 4.50333 11.5089 4.4675C11.5366 4.45137 11.5684 4.44356 11.6005 4.445ZM11.5747 4.83333C11.588 4.83267 11.6014 4.83267 11.6147 4.83333L11.6605 4.86083C11.6975 4.89704 11.7279 4.93932 11.7505 4.98583C11.7505 5.0225 11.6422 4.9775 11.5889 4.96917C11.5355 4.96 11.4639 4.90667 11.4639 4.90667C11.4639 4.90667 11.4455 4.88 11.4997 4.85333C11.5228 4.84086 11.5485 4.834 11.5747 4.83333ZM11.5255 5.21417C11.5381 5.21494 11.5507 5.21661 11.563 5.21917L11.5989 5.2375C11.6164 5.255 11.6689 5.30833 11.6689 5.335C11.6689 5.37083 11.5714 5.32667 11.5355 5.32667C11.4996 5.31593 11.4664 5.29776 11.438 5.27333C11.438 5.27333 11.428 5.25417 11.463 5.2275C11.4814 5.21417 11.5047 5.21333 11.5255 5.21417ZM11.4505 5.56583C11.4608 5.56577 11.4711 5.56633 11.4814 5.5675L11.5172 5.58583C11.5355 5.60333 11.5789 5.64833 11.5789 5.675C11.5705 5.69333 11.4897 5.6575 11.4539 5.6575C11.4224 5.64659 11.3924 5.63175 11.3647 5.61333C11.3647 5.61333 11.3564 5.595 11.3922 5.5775C11.4106 5.5694 11.4305 5.56542 11.4505 5.56583ZM5.10969 5.73833C5.20803 5.75667 5.22636 5.765 5.21719 5.81C5.22553 5.855 5.10136 5.85417 5.10136 5.85417C5.10136 5.85417 4.92136 5.89083 4.94886 5.82833C4.98469 5.765 5.10969 5.73833 5.10969 5.73833ZM11.3689 5.8425C11.3872 5.8425 11.4022 5.84583 11.4022 5.84583L11.438 5.86417C11.4555 5.88167 11.4997 5.92667 11.4997 5.95333C11.4905 5.98 11.4097 5.945 11.3747 5.93583C11.338 5.92667 11.2847 5.89 11.2847 5.89C11.2847 5.89 11.2764 5.87167 11.3122 5.85417C11.33 5.84607 11.3493 5.84208 11.3689 5.8425ZM11.2689 6.15667C11.2772 6.15665 11.2856 6.15721 11.2939 6.15833L11.3205 6.17667C11.3289 6.185 11.3739 6.23 11.3739 6.24833C11.3739 6.275 11.3105 6.24833 11.2747 6.24C11.248 6.23167 11.2047 6.20417 11.2047 6.20417C11.2047 6.20417 11.1964 6.18583 11.223 6.16833C11.2366 6.16025 11.2531 6.15621 11.2689 6.15667ZM8.71803 6.25667C8.76872 6.25664 8.81937 6.25971 8.86969 6.26583C9.11969 6.30167 9.36136 6.52583 9.32469 6.5525C9.28886 6.57917 9.23553 6.5525 9.21719 6.5525L9.12803 6.50833L8.99303 6.4725C8.99303 6.4725 8.75136 6.41833 8.57303 6.42667C8.39386 6.43583 8.23303 6.49833 8.23303 6.49833C8.23303 6.49833 8.16136 6.535 8.14386 6.49C8.13469 6.43667 8.17136 6.40917 8.17136 6.40917L8.17969 6.39083C8.17969 6.39083 8.38469 6.255 8.71803 6.25667ZM4.45719 6.36333C4.46303 6.36333 4.46553 6.365 4.46553 6.365L4.48303 6.38333C4.47469 6.38333 4.50969 6.4725 4.42969 6.56167C4.34886 6.65167 4.09886 7.12583 4.04553 7.045C3.99136 6.9825 4.28719 6.53417 4.34969 6.445C4.39636 6.37083 4.43886 6.36333 4.45719 6.36333ZM11.1655 6.46083C11.178 6.46083 11.1872 6.4625 11.1872 6.4625L11.213 6.4725L11.2589 6.53417C11.2497 6.56083 11.1955 6.54333 11.1689 6.53417C11.1422 6.53417 11.1055 6.49833 11.1055 6.49833C11.1055 6.49833 11.0972 6.49 11.1239 6.47333C11.1363 6.46532 11.1507 6.46098 11.1655 6.46083ZM5.51303 6.71333C5.52719 6.70833 5.53719 6.72 5.54886 6.72333L5.59303 6.74083L5.62053 6.7675L5.71053 6.85667C5.74636 6.91 5.84386 7.09 5.82553 7.10667C5.74553 7.1875 5.71886 7.08 5.60303 6.94583C5.48636 6.82083 5.51303 6.71333 5.51303 6.71333ZM11.0405 6.755C11.0477 6.75525 11.0547 6.75666 11.0614 6.75917L11.088 6.7675L11.133 6.83083C11.133 6.84833 11.0789 6.82083 11.0522 6.82083C11.0247 6.82083 10.9897 6.785 10.9897 6.785C10.9897 6.785 10.9714 6.77667 10.998 6.7675C11.0108 6.75962 11.0255 6.75557 11.0405 6.75583V6.755ZM6.99969 7.08083C7.02886 7.08333 6.98886 7.135 6.98886 7.135C6.98886 7.135 6.83553 7.34 6.74636 7.46583C6.62969 7.635 6.48636 7.89417 6.45969 7.8675C6.43303 7.84083 6.58553 7.55583 6.66636 7.40333C6.75553 7.21583 6.88969 7.1175 6.94303 7.09917C6.9605 7.08947 6.9798 7.08351 6.99969 7.08167V7.08083ZM4.45636 7.75167L4.47386 7.77C4.47386 7.77 4.48303 7.805 4.42053 7.90333C4.35803 8.00167 4.31219 8.0025 4.31219 8.0025C4.31219 7.99417 4.29553 7.95833 4.34886 7.85083C4.40219 7.74333 4.45636 7.75167 4.45636 7.75167ZM3.35886 8.10167C3.36404 8.10304 3.36869 8.10595 3.37219 8.11C3.39886 8.14583 3.31886 8.30667 3.31886 8.30667C3.31886 8.30667 3.23803 8.47583 3.21053 8.40417C3.18386 8.34167 3.23886 8.22583 3.23886 8.22583C3.30136 8.17083 3.32886 8.09583 3.35886 8.10167ZM10.4964 8.3325C10.5764 8.34167 10.568 8.49417 10.568 8.53C10.5947 8.78917 10.703 9.05 10.8997 9.36333C11.1772 9.80167 11.6247 10.1417 11.6064 10.1692C11.5614 10.2133 11.1147 9.86417 10.953 9.6675C10.6847 9.345 10.4864 8.99583 10.4247 8.5575C10.4064 8.45917 10.4064 8.315 10.4964 8.3325ZM5.22636 8.4575C5.24386 8.4575 5.32386 8.48583 5.32386 8.48583L5.52053 8.56583C5.52886 8.56583 5.62886 8.61083 5.70969 8.655L5.90469 8.78L5.95969 8.82583C5.95969 8.84417 6.02219 8.9425 5.89636 8.91583C5.77136 8.88833 5.50303 8.6825 5.39553 8.62917C5.28719 8.57583 5.10969 8.5575 5.19053 8.48583C5.19886 8.4775 5.20803 8.4575 5.22636 8.4575ZM4.27636 8.95167C4.28242 8.9505 4.28864 8.9505 4.29469 8.95167C4.34886 8.95167 4.34886 8.995 4.34886 8.995V9.0225C4.34886 9.0225 4.34803 9.18417 4.35719 9.30917C4.35719 9.345 4.45636 9.7475 4.45636 9.7475C4.45636 9.7475 4.47386 9.78333 4.43803 9.78333C4.41136 9.78333 4.38469 9.72917 4.38469 9.72917C4.38469 9.72917 4.31219 9.6225 4.28469 9.5425C4.25886 9.47083 4.24969 9.35333 4.24969 9.35333C4.24969 9.35333 4.23136 9.20167 4.23136 9.14833C4.24053 9.07667 4.24053 9.01333 4.24969 8.9775C4.25091 8.9711 4.25403 8.96522 4.25864 8.96061C4.26324 8.956 4.26996 8.95289 4.27636 8.95167ZM3.03469 9.16583C3.04289 9.16372 3.05149 9.16372 3.05969 9.16583C3.11303 9.175 3.08553 9.2725 3.08553 9.3175C3.08553 9.3625 3.03386 9.4425 3.01553 9.4425C2.99803 9.4425 2.96136 9.3625 2.97053 9.3175C2.97886 9.27833 2.98469 9.17833 3.03469 9.16583ZM7.56969 9.91C7.67136 9.90167 7.96553 10.3242 8.39303 10.785C8.87636 11.305 9.43969 11.7975 9.45803 11.86C9.49386 11.9675 9.06386 11.6267 8.83136 11.4483C8.21386 10.9733 7.46219 10.0075 7.55219 9.91833C7.55694 9.9137 7.5631 9.91076 7.56969 9.91ZM16.1305 10.3458C16.1472 10.3442 16.1614 10.3658 16.1614 10.3658L16.1797 10.3917C16.1797 10.41 16.2864 10.83 16.2772 11.0983C16.2589 11.4733 16.2422 11.7425 16.0189 12.0292C15.7497 12.3783 15.2839 12.7375 15.3822 12.4508C15.4447 12.2808 15.8572 12.0658 16.018 11.5917C16.108 11.305 16.1264 11.0358 16.1264 11.0358L16.108 10.4908C16.108 10.4908 16.098 10.4467 16.098 10.3833C16.108 10.3567 16.1197 10.3475 16.1305 10.3458ZM11.5655 11.2792C11.6489 11.2883 11.6864 11.3408 11.588 11.4125C11.4714 11.4925 11.4272 11.4833 11.3547 11.5633C11.2747 11.6617 11.2489 11.9942 11.168 11.86C11.088 11.7258 11.1414 11.5375 11.2764 11.3942C11.3123 11.3537 11.3571 11.3222 11.4073 11.3021C11.4575 11.282 11.5116 11.2747 11.5655 11.2792ZM5.06636 11.645C5.10053 11.6383 5.19053 11.7067 5.19053 11.7067C5.23469 11.715 5.27969 11.7967 5.27969 11.7967C5.27969 11.7967 5.29803 11.86 5.24386 11.8775C5.19053 11.9042 5.15469 11.85 5.15469 11.85C5.15469 11.85 5.03803 11.6892 5.05469 11.6533C5.05585 11.6511 5.0575 11.6492 5.05953 11.6478C5.06156 11.6463 5.0639 11.6454 5.06636 11.645ZM13.6555 12.9158C13.673 12.9158 13.7097 12.9342 13.7547 13.0242C13.7997 13.1142 13.683 13.7475 13.5397 13.6575C13.4589 13.6042 13.5839 13.4442 13.5839 13.31C13.5839 13.2025 13.5655 13.1208 13.5655 13.0317C13.5655 12.9425 13.6555 12.9158 13.6555 12.9158ZM10.9997 14.02C11.0314 14.0233 11.0397 14.0683 10.9964 14.1583C10.9339 14.2925 10.9164 14.3375 10.9072 14.4633C10.8889 14.5967 10.9705 14.9717 10.8455 14.83C10.8005 14.7667 10.7555 14.4717 10.7914 14.3283C10.8305 14.1267 10.9464 14.0158 10.9997 14.02ZM10.3164 15.785C10.3464 15.7808 10.3614 15.7958 10.3614 15.7958C10.3797 15.8317 10.343 15.8683 10.3339 15.8775C10.3001 15.895 10.2639 15.9071 10.2264 15.9133C10.173 15.9217 10.2014 15.8775 10.2014 15.8775C10.2014 15.8775 10.2355 15.8225 10.2805 15.7958C10.2918 15.7902 10.3039 15.7866 10.3164 15.785ZM7.91886 15.975C7.99053 15.975 7.99053 16.0108 7.99053 16.0108C7.99053 16.0375 7.96303 16.0475 7.89053 16.0383C7.82886 16.03 7.82053 16.0117 7.82969 16.0025C7.82969 15.9942 7.84719 15.975 7.91886 15.975ZM8.46219 16.0008C8.46891 16.0001 8.4757 16.0007 8.48219 16.0025C8.48219 16.0025 8.78636 16.0558 8.98303 16.0642C9.12636 16.0733 9.19803 16.0833 9.34136 16.0742C9.42219 16.0742 9.37719 16.0642 9.50219 16.0642C9.54719 16.0558 9.52053 16.1192 9.48469 16.1283C9.35053 16.1642 9.29636 16.145 9.18053 16.1542C9.08136 16.1625 9.03636 16.1717 8.93803 16.1717C8.76803 16.1717 8.75136 16.1817 8.50969 16.11C8.46469 16.0925 8.40969 16.0383 8.42803 16.0208C8.43187 16.0152 8.43693 16.0104 8.44284 16.007C8.44875 16.0035 8.45537 16.0014 8.46219 16.0008ZM6.43303 16.055C6.53803 16.0575 6.50469 16.0925 6.50469 16.0925C6.50469 16.0925 6.50386 16.1275 6.44136 16.1717C6.37803 16.2167 6.35219 16.19 6.34303 16.19C6.33469 16.19 6.27136 16.1542 6.27136 16.1183C6.28053 16.0825 6.37969 16.0567 6.37969 16.0567C6.39742 16.0549 6.41523 16.0544 6.43303 16.055ZM12.0672 17.2883C12.0745 17.2882 12.0817 17.2887 12.0889 17.29L12.1064 17.3258C12.1064 17.3342 12.0347 17.4342 11.9989 17.4342C11.9547 17.4242 11.9714 17.3717 11.9714 17.3717C11.9714 17.3717 11.9539 17.3175 12.0072 17.3C12.0264 17.293 12.0467 17.289 12.0672 17.2883ZM11.3989 17.5533C11.4055 17.5533 11.4139 17.5542 11.418 17.5583V17.5942C11.4264 17.6217 11.193 17.8817 11.0322 18.0342C10.8805 18.1775 10.6205 18.3742 10.6205 18.3742H10.5847V18.3283L10.5947 18.3108L10.6122 18.2842L10.6305 18.2567L10.648 18.2317L10.7022 18.1675L10.8272 18.0517L10.9522 17.935L11.1497 17.7375C11.1497 17.7375 11.2205 17.6583 11.2472 17.64C11.2739 17.6225 11.2922 17.6042 11.3189 17.5867C11.3455 17.5733 11.3772 17.555 11.3989 17.5533ZM10.1047 18.6308C10.1121 18.6298 10.1196 18.6302 10.1268 18.6323C10.1339 18.6343 10.1406 18.6378 10.1464 18.6425C10.1739 18.705 10.1297 18.7225 10.1297 18.7225L10.048 18.7858C10.0389 18.7858 9.98553 18.8308 9.96803 18.8033C9.94969 18.7767 9.97636 18.7408 9.97636 18.7317C9.97636 18.7233 10.0305 18.6608 10.0755 18.6425C10.0844 18.6367 10.0943 18.6327 10.1047 18.6308ZM9.23219 19.4592C9.26886 19.455 9.29553 19.51 9.29553 19.51C9.29553 19.51 9.31386 19.5358 9.31386 19.5717C9.31386 19.5992 9.23303 19.59 9.18886 19.6258C9.13469 19.6617 9.24303 19.77 9.07219 19.7608C8.97469 19.7525 9.02803 19.6625 9.03719 19.6533L9.09886 19.5642C9.14386 19.5008 9.17136 19.4917 9.21553 19.4642C9.22063 19.4612 9.22633 19.4595 9.23219 19.4592Z" fill="white"/>
</svg>
