<svg width="20" height="20" viewBox="0 0 20 20" fill="none" xmlns="http://www.w3.org/2000/svg">
<g clip-path="url(#clip0_822_5143)">
<path fill-rule="evenodd" clip-rule="evenodd" d="M17.695 17.6625C15.6269 19.1875 12.63 20 10.05 20C6.42502 20 3.17377 18.6625 0.709393 16.4357C0.521893 16.2607 0.689393 16.0219 0.921893 16.1582C3.58127 17.7063 6.87502 18.6375 10.2663 18.6375C12.7154 18.6263 15.138 18.1309 17.395 17.18C17.745 17.0313 18.0388 17.4088 17.695 17.6625ZM18.555 16.6788C18.2925 16.3413 16.8075 16.5194 16.1425 16.5975C15.9394 16.6225 15.9088 16.4457 16.0913 16.3188C17.2788 15.4875 19.2125 15.7269 19.4388 16.0063C19.665 16.2857 19.38 18.2313 18.27 19.1588C18.0994 19.3013 17.9369 19.2257 18.02 19.0363C18.27 18.4138 18.8288 17.0175 18.5638 16.6788" fill="white"/>
<path fill-rule="evenodd" clip-rule="evenodd" d="M11.5188 8.665C11.5188 9.7225 11.5456 10.6044 11.0113 11.5431C10.5738 12.3056 9.88626 12.7762 9.13313 12.7762C8.09126 12.7762 7.48063 11.9825 7.48063 10.8106C7.48063 8.49813 9.55313 8.0775 11.5194 8.0775L11.5188 8.665ZM14.2569 15.28C14.0775 15.4406 13.8181 15.4519 13.6156 15.345C12.7156 14.5969 12.5506 14.2494 12.0581 13.5356C10.5694 15.0544 9.51188 15.5087 7.58438 15.5087C5.29813 15.5087 3.52313 14.1 3.52313 11.2794C3.52313 9.07688 4.71376 7.57687 6.41688 6.84375C7.89001 6.195 9.94813 6.08125 11.52 5.90625V5.5625C11.52 4.9175 11.57 4.15375 11.1888 3.59688C10.8606 3.09687 10.2263 2.89062 9.66563 2.89062C8.63126 2.89062 7.71126 3.42187 7.48626 4.52063C7.44063 4.77063 7.26126 5.00563 7.01313 5.01688L4.37501 4.72187C4.15376 4.67188 3.90626 4.49312 3.97063 4.15938C4.58001 0.9625 7.46563 0 10.0463 0C11.3669 0 13.0925 0.35125 14.1338 1.35125C15.4544 2.58437 15.3288 4.22937 15.3288 6.02V10.25C15.3288 11.5212 15.8556 12.0781 16.3519 12.7656C16.5238 13.0156 16.5619 13.3031 16.3406 13.4869C15.6401 14.0792 14.9468 14.6799 14.2606 15.2887L14.2569 15.2812" fill="white"/>
</g>
<defs>
<clipPath id="clip0_822_5143">
<rect width="20" height="20" fill="white"/>
</clipPath>
</defs>
</svg>
