<svg width="20" height="20" viewBox="0 0 20 20" fill="none" xmlns="http://www.w3.org/2000/svg">
<path d="M18.6711 5.00488V14.9951L10.0024 20L1.33301 14.9951V5.00488L10.0024 0L18.6711 5.00488ZM5.28402 7.65462H6.74561V8.79883H9.86654C9.86555 8.79249 9.84107 8.64178 9.70947 8.64176H9.14714V8.05745H10.7194C11.124 8.05745 11.4393 8.12559 11.6634 8.30485C11.8874 8.46235 12.0003 8.73149 12.0003 9.0682V9.09098C12.0003 9.405 11.8878 9.6515 11.6634 9.83073C11.4389 10.0108 11.124 10.1009 10.7194 10.1009H9.14714V9.51742H9.70947C9.84389 9.5174 9.86654 9.35954 9.86654 9.35954H5.28402V11.0653H6.74561V14.6118H9.12598V11.9857H10.1807L11.932 14.6118H14.6956L12.6286 11.604C13.1676 11.3569 13.6173 11.0205 13.9323 10.5941C14.246 10.1459 14.4035 9.60658 14.4035 8.93311V8.91032C14.4035 8.05759 14.1561 7.38422 13.6401 6.89128C13.347 6.59939 12.9887 6.35215 12.5163 6.19466C12.0682 6.03718 11.5059 5.94728 10.8325 5.94727H5.28402V7.65462Z" fill="white"/>
</svg>
