<svg width="24" height="24" viewBox="0 0 24 24" fill="none" xmlns="http://www.w3.org/2000/svg">
<path fill-rule="evenodd" clip-rule="evenodd" d="M12.5 0H8.32635C8.18994 0 8.07917 0.113711 8.07917 0.254246V4.19563H4.2474C4.11055 4.19563 4 4.30957 4 4.44988V23.746C4 23.8863 4.11055 24 4.2474 24H9.95316C10.0898 24 10.2003 23.8863 10.2003 23.746V19.7214C10.2003 19.5811 10.0898 19.4674 9.95316 19.4674H8.29135C8.15473 19.4674 8.04418 19.5811 8.04418 19.7214V21.7822H6.15615V6.41369H12.5C13.7778 6.41369 14.8117 7.50794 14.7629 8.83304C14.7166 10.0935 13.6708 11.0724 12.4445 11.0724H10.2355V8.64872C10.2355 8.50819 10.1248 8.39425 9.98815 8.39425H8.32635C8.18994 8.39425 8.07917 8.50819 8.07917 8.64872V13.0362C8.07917 13.1765 8.18994 13.2903 8.32635 13.2903H12.5C14.9731 13.2903 16.9786 11.1907 16.9195 8.63336C16.8625 6.15097 14.8311 4.19563 12.4169 4.19563H10.2355V2.21783H12.5C16.0309 2.21783 18.8969 5.20024 18.843 8.84428C18.7902 12.4248 15.8851 15.2683 12.4037 15.2683H8.24678C8.11037 15.2683 7.99983 15.382 7.99983 15.5225V17.2319C7.99983 17.3724 8.11037 17.4861 8.24678 17.4861H12.3919C17.0715 17.4861 20.9543 13.6424 20.9996 8.82938C21.0455 3.9689 17.2148 0 12.5 0Z" fill="black"/>
</svg>
