<svg width="20" height="20" viewBox="0 0 20 20" fill="none" xmlns="http://www.w3.org/2000/svg">
<path d="M15.5636 4.75C18.4772 4.75 20 6.4485 20 9.69883V15.2624H17.833V9.69883C17.833 7.69303 17.0277 6.72663 15.5636 6.72663C14.0995 6.72663 13.2942 7.69303 13.2942 9.69883V15.2624H11.1272V9.69883C11.1272 7.69303 10.3219 6.72663 8.85781 6.72663C7.39385 6.72665 6.58844 7.69305 6.58844 9.69883V11.8801C6.58844 14.3106 5.41714 15.2624 3.07454 15.2624H0V13.2858H3.07454C3.997 13.2858 4.42165 12.9197 4.42165 11.8801V9.69883C4.42165 6.44852 5.94428 4.75002 8.85781 4.75C10.3805 4.75 11.5372 5.2918 12.2253 6.3313C12.9427 5.2918 14.0409 4.75 15.5636 4.75Z" fill="white"/>
</svg>
