<svg width="20" height="20" viewBox="0 0 20 20" fill="none" xmlns="http://www.w3.org/2000/svg">
<g clip-path="url(#clip0_822_5238)">
<path d="M10.2666 10.3167C10.2666 11.295 11.0782 12.0108 12.1091 12.0108C13.1399 12.0108 13.9524 11.295 13.9524 10.3167V8.06666H12.9541V10.2C12.9541 10.7275 12.5874 11.0833 12.1066 11.0833C11.6257 11.0833 11.2591 10.73 11.2591 10.2V8.06666H10.2607L10.2674 10.3158L10.2666 10.3167ZM16.6199 8.96749H17.8107V11.9367H18.8091V8.96666H19.9999V8.06666H16.6199V8.96832V8.96749ZM15.9749 8.06666H14.9766V11.9375H15.9749V8.06582V8.06666ZM6.23491 8.96749H7.42657V11.9367H8.42408V8.96666H9.61407V8.06666H6.23491V8.96832V8.96749ZM0.998242 8.06666H-9.15527e-05V11.9375H0.998242V8.06582V8.06666ZM5.70907 9.68332C5.70907 8.70499 4.89741 7.98999 3.86574 7.98999C2.83407 7.98999 2.02241 8.70499 2.02241 9.68332V11.9375H3.02074V9.80416C3.02074 9.27666 3.38741 8.92082 3.86824 8.92082C4.34908 8.92082 4.71657 9.27499 4.71657 9.80416V11.9375H5.71408L5.70907 9.68332Z" fill="white"/>
</g>
<defs>
<clipPath id="clip0_822_5238">
<rect width="20" height="20" fill="white"/>
</clipPath>
</defs>
</svg>
