<svg width="24" height="24" viewBox="0 0 24 24" fill="none" xmlns="http://www.w3.org/2000/svg">
<g clip-path="url(#clip0_1784_4223)">
<path d="M15.5217 6.69758C16.458 6.69764 17.2156 7.43814 17.2209 8.35374L17.2214 23.8739H15.5212V8.35374L8.47775 8.35218V15.5838L15.516 15.5854L13.8811 17.2363H8.47775C7.54099 17.2362 6.78443 16.4978 6.77909 15.5838L6.77702 8.35115H5.09495V15.5838C5.09497 17.4107 6.60625 18.8939 8.47827 18.894H12.2452L10.6082 20.5492H8.47827C5.66885 20.5491 3.39165 18.3248 3.39162 15.5838L3.39629 8.35115H1.69659V15.5838C1.69661 19.2399 4.73252 22.2177 8.47827 22.2178L8.95775 22.2203L7.39127 23.8112C3.21395 23.2915 0.000543562 19.8004 0.000518359 15.5838L0 8.35374L0.0222894 8.35063H0L1.64423 6.69447L15.5217 6.69758ZM15.5217 3.38631C18.3296 3.38636 20.6068 5.61007 20.6068 8.35374L20.6011 23.8739H18.9045V8.35374C18.9045 6.52517 17.3927 5.04096 15.5217 5.04091L3.28121 5.03469L4.9213 3.3775L15.5217 3.38631ZM15.5212 0.0610381C20.2028 0.0610976 23.9984 3.78253 23.9984 8.35374L24 23.8739H22.3008V8.35374C22.3008 4.69603 19.2659 1.71932 15.5217 1.71927L6.56086 1.71719L8.19991 0.0600014L15.5212 0.0610381Z" fill="black"/>
</g>
<defs>
<clipPath id="clip0_1784_4223">
<rect width="24" height="24" fill="white"/>
</clipPath>
</defs>
</svg>
