<svg width="24" height="24" viewBox="0 0 24 24" fill="none" xmlns="http://www.w3.org/2000/svg">
<path d="M5.92428 18.7371L9.89617 13.8366H11.8149V23H9.92994V16.6225L6.02529 21.3218H5.75602L1.85139 16.6225V23H0V13.8366H1.91864L5.92428 18.7371Z" fill="black"/>
<path fill-rule="evenodd" clip-rule="evenodd" d="M20.2638 13.8366C22.5863 13.8366 24 15.045 24 16.9247C24 18.8043 22.5527 19.9791 20.2638 19.9791H16.0225V23H14.1375V13.8366H20.2638ZM16.0225 18.2672H20.1291C21.4754 18.2672 22.0814 17.831 22.0814 16.9247C22.0814 15.5485 20.6003 15.5485 20.1291 15.5485H16.0225V18.2672Z" fill="black"/>
<path d="M14.2721 1.01446C15.0126 0.947408 15.7532 1.11517 16.3927 1.48437C17.6718 2.15571 18.6144 3.29696 19.3886 4.47174C20.23 5.74723 20.9369 7.08992 21.5428 8.46613C22.1824 9.80867 22.7209 11.2184 23.1586 12.6618C23.1586 12.6618 23.1586 12.7289 23.1248 12.7289C23.1248 12.7289 23.0912 12.7289 23.0576 12.6953C22.9566 12.6618 22.9229 12.6283 22.8555 12.5946C22.7545 12.5276 22.6537 12.4604 22.519 12.3933L21.7785 11.9569C21.2736 11.6883 20.8023 11.4198 20.2974 11.1178C18.5134 10.1443 16.6956 9.171 14.878 8.2647C13.0604 7.35841 11.209 6.51929 9.32401 5.81442C9.69429 5.5458 10.1318 5.27732 10.5358 5.04236C10.6705 5.10955 10.8051 5.17661 10.9397 5.2438C11.9832 5.71371 12.993 6.25068 14.0364 6.78778C15.0463 7.3584 16.0561 7.96256 17.0659 8.56671C18.0757 9.171 19.0855 9.80867 20.0281 10.48C20.3984 10.715 20.7349 10.9499 21.0716 11.1849C21.6775 11.6213 22.317 12.0912 22.9229 12.5276L22.6873 12.0912C22.0814 10.9499 21.3744 9.80868 20.6677 8.73461C19.9607 7.66055 19.1865 6.65353 18.3787 5.64652C18.0085 5.17661 17.5708 4.7067 17.0997 4.27032C16.662 3.83393 16.1571 3.46473 15.6186 3.19625C15.3493 3.06201 15.0463 2.96129 14.7434 2.92776C14.4067 2.8941 14.0702 2.8941 13.7672 2.99481C13.1613 3.16272 12.5555 3.39768 11.9832 3.66616C10.8387 4.23679 9.72791 4.90813 8.68447 5.64652C7.77566 6.28434 6.86671 6.92201 5.99167 7.59336C4.47694 8.73461 2.99583 9.94291 1.58211 11.1849C1.31271 11.3863 1.04344 11.6213 0.807797 11.8562C0.673166 11.9569 0.53853 12.0577 0.403899 12.1919C0.370275 12.2589 0.302889 12.2926 0.235643 12.3597C0.202021 12.3597 0.168259 12.3933 0.134637 12.4269C0.0336275 12.4604 0.0673874 12.3933 0.0673874 12.3597C0.269267 11.789 0.43753 11.1849 0.673173 10.6478C1.00983 9.77515 1.3801 8.90238 1.81762 8.02975C2.22166 7.19064 2.69281 6.38506 3.19772 5.613C3.70263 4.90813 4.34216 4.27031 5.1501 3.96831C5.99166 3.63264 6.93409 3.80041 7.77565 4.03536L6.49657 5.10955C6.1263 5.07589 5.75603 5.10956 5.41938 5.27732C5.11649 5.44508 4.81346 5.64652 4.54419 5.91515C4.03928 6.38506 3.60176 6.88849 3.19772 7.42559C2.79382 7.96255 2.42354 8.53318 2.05326 9.1038C1.44748 10.0436 0.875189 11.0171 0.37028 11.9905C0.673168 11.6548 0.942436 11.3191 1.24546 11.0171C2.1879 9.97658 3.16409 8.96956 4.17391 7.99621C5.1501 7.02273 6.15992 6.0829 7.20336 5.17661C7.57364 4.8746 7.97754 4.53894 8.38144 4.20326C8.51621 4.10255 8.65084 4.00182 8.78548 3.86758C9.86254 2.96129 11.0744 2.18924 12.3535 1.55156C12.9594 1.28294 13.5989 1.08165 14.2721 1.01446Z" fill="black"/>
</svg>
