<svg width="20" height="20" viewBox="0 0 20 20" fill="none" xmlns="http://www.w3.org/2000/svg">
<path d="M5.75368 14.4056C4.61705 14.4077 3.51306 14.0257 2.62077 13.3216C3.62477 11.0594 5.66618 8.02318 8.45243 5.05777C9.4995 5.71547 10.2694 6.73391 10.6167 7.92064C10.9639 9.10737 10.8645 10.3802 10.3372 11.4986C9.45393 11.0903 8.6291 10.5769 7.93085 9.9321L9.45643 12.7967C8.98315 13.3052 8.41001 13.7105 7.77288 13.9874C7.13576 14.2642 6.44835 14.4066 5.75368 14.4056ZM0.691016 9.34302C0.690797 8.67797 0.821612 8.01939 1.07599 7.40491C1.33037 6.79044 1.70332 6.2321 2.17354 5.7618C2.64376 5.2915 3.20204 4.91845 3.81648 4.66398C4.43091 4.4095 5.08947 4.27857 5.75452 4.27868C6.50435 4.27868 7.2151 4.44202 7.85668 4.73368C5.1121 7.15827 2.98735 9.97785 1.72918 12.4151C1.05415 11.5331 0.689211 10.4529 0.691016 9.34218M10.9746 11.7694C11.3287 11.0093 11.5113 10.1807 11.5095 9.34218C11.5095 7.34243 10.4888 5.58018 8.93902 4.54785C9.88768 3.57103 10.884 2.64167 11.9244 1.76318C10.6916 2.4916 9.52117 3.3207 8.42502 4.24202C7.23863 3.62106 5.87287 3.43318 4.56288 3.71073C3.2529 3.98828 2.08067 4.71388 1.24805 5.76261C0.415423 6.81134 -0.0254971 8.11755 0.00120649 9.45635C0.0279101 10.7951 0.520567 12.0827 1.39435 13.0974C0.291099 15.483 0.0994323 17.3985 1.07085 18.0451C2.1116 18.7384 4.37293 17.481 5.72943 15.433C5.72943 15.433 3.63135 17.3277 2.47818 16.8928C1.76827 16.6244 1.76577 15.5388 2.35152 13.9824C3.33746 14.7082 4.53011 15.0989 5.75443 15.0972C7.33252 15.0972 8.75985 14.4639 9.79885 13.4374L10.003 13.8224C12.5109 13.6183 19.9999 13.4199 19.9999 13.4199C19.9999 13.0608 15.0414 13.3866 10.9728 11.7702" fill="white"/>
</svg>
