<svg width="24" height="24" viewBox="0 0 24 24" fill="none" xmlns="http://www.w3.org/2000/svg">
<path d="M15.7757 12.7858C16.9737 12.7858 16.901 12.7858 17.7359 13.6071L21.802 17.5713C20.8944 19.3927 19.4787 20.9286 17.6998 22L13.0164 17.3927C12.6172 16.9643 12.3993 16.8214 12.1815 16.7499C12.109 16.7143 12.0364 16.7144 11.9638 16.7144C11.8912 16.7144 11.8184 16.7142 11.7458 16.7499C11.528 16.8214 11.3464 16.9642 10.9109 17.3927L6.2279 22C4.48531 20.9286 3.03287 19.3927 2.12528 17.5713L6.19138 13.6071C6.92204 12.8571 6.9578 12.7907 7.75805 12.7858H15.7757Z" fill="black"/>
<path d="M11.9638 2C18.0266 2.00004 22.9274 6.82152 23 12.7858H18.7889C17.8087 12.7858 17.4818 12.7141 17.1914 12.3927C16.8648 12.0713 16.9011 11.7855 16.6107 11.0356C16.3202 10.3571 15.9207 9.74992 15.3762 9.24993C14.9043 8.8214 14.3596 8.46427 13.7425 8.25C11.2013 7.28581 8.33339 8.53573 7.35318 11.0356C7.02649 11.7855 7.06274 12.0713 6.77246 12.3927C6.48203 12.7141 6.15501 12.7858 5.21111 12.7858H1C1 9.75012 2.30693 6.89299 4.55771 4.82157C6.59072 3.00014 9.20474 2 11.9638 2Z" fill="black"/>
</svg>
