<svg width="24" height="24" viewBox="0 0 24 24" fill="none" xmlns="http://www.w3.org/2000/svg">
<path d="M16.7671 11.3729H13.6329V12.7427H15.3425C14.937 13.5647 13.9397 13.9044 13.1068 13.4989C12.2849 13.0934 11.9452 12.0962 12.3507 11.2633C12.6247 10.6934 13.2055 10.3318 13.8411 10.3318C14.3452 10.3208 14.8164 10.5729 15.0904 10.9893H16.5808C16.3507 9.94822 15.1781 8.94 13.8521 8.94C12.5589 8.94 11.2986 9.78384 11.0356 11.0332V9.15918C9.45753 9.15918 8.40548 10.9345 8.16438 11.9866C7.91233 10.9345 6.87123 9.15918 5.29315 9.15918V14.803H6.66301V11.5482C6.66301 11.5482 7.45205 12.2496 7.45205 14.7921H8.86575C8.86575 12.2496 9.65479 11.5482 9.65479 11.5482V14.7921H11.0247V12.8304C11.3534 14.2551 12.4822 15.0551 13.8411 15.0551C15.211 15.0551 16.4274 14.277 16.7671 12.7537V14.7921C16.7671 14.7921 19.6055 14.7921 19.5616 14.7921V13.4551H18.1041V12.7427H19.5616V11.3729H18.1041V10.6167H19.5616V9.23589H16.7671V11.3729ZM22.5753 11.5811C21.3808 9.87151 20.2192 9.24685 19.9014 9.24685V14.803H21.3589V12.1729C21.3589 12.1729 22.3671 13.2688 22.5753 14.803H24V9.23589H22.5753V11.5811ZM2.5863 9.83863C1.79726 10.4304 1.31507 11.3071 0.942466 12.1071C0.558904 12.9071 0.186301 14.1016 0 14.803H1.42466C1.52329 14.4085 1.76438 13.5537 1.80822 13.4003H3.59452V14.803H4.97534V9.14822C3.66027 9.01671 2.9589 9.56466 2.5863 9.83863ZM3.58356 12.1071H2.37808C2.66301 11.6688 3.13425 11.0989 3.58356 10.7921V12.1071Z" fill="black"/>
</svg>
