<svg width="24" height="24" viewBox="0 0 24 24" fill="none" xmlns="http://www.w3.org/2000/svg">
<path fill-rule="evenodd" clip-rule="evenodd" d="M22 1V19.9996C22 20.394 21.9227 20.7845 21.7719 21.148C21.6211 21.5114 21.3995 21.8426 21.1211 22.121C20.8428 22.3994 20.5116 22.6211 20.1482 22.7719C19.7835 22.9227 19.3943 23 19 23H2.0001V8.99965C1.99494 7.95313 2.19597 6.91564 2.59288 5.94646C2.98849 4.97727 3.57225 4.09572 4.31065 3.35208C5.04776 2.60972 5.92534 2.01945 6.89054 1.61605C7.85703 1.21136 8.8931 1.00258 9.93949 1L22 1ZM17.7101 15.8394H14.3209V19.2547H16C16.2255 19.256 16.4485 19.2135 16.656 19.1271C16.8647 19.0421 17.0541 18.9158 17.2127 18.7572C17.3712 18.5974 17.4974 18.4093 17.5825 18.2005C17.6688 17.993 17.7114 17.77 17.7101 17.5445V15.8394ZM17.7062 7.53943V4.75044H12.5C12.2797 4.75559 12.0632 4.80457 11.8609 4.8935C11.6586 4.98114 11.4756 5.10873 11.3222 5.26725C11.1689 5.42449 11.0477 5.61136 10.964 5.81629C10.8815 6.02121 10.8403 6.23902 10.8403 6.4594V7.54458C10.8415 7.76883 10.7977 7.99051 10.7127 8.19672C10.6276 8.40422 10.5026 8.59238 10.3441 8.74962C10.1869 8.90814 9.99877 9.03445 9.79259 9.11951C9.5864 9.20586 9.36475 9.24968 9.14053 9.24968H8.00007C7.77584 9.24839 7.55419 9.29221 7.34543 9.37727C7.13796 9.46233 6.94982 9.58735 6.79002 9.74587C6.63152 9.90439 6.50523 10.0926 6.42018 10.3001C6.33384 10.5076 6.29002 10.7305 6.29002 10.9548V19.2496H9.10573C9.32996 19.2496 9.55161 19.2045 9.75779 19.1181C9.96398 19.0318 10.1521 18.9054 10.3093 18.7469C10.4678 18.5884 10.5928 18.4002 10.6779 18.1927C10.7629 17.9852 10.8068 17.7636 10.8055 17.5393V10.9496C10.8055 10.7267 10.848 10.505 10.933 10.2988C11.0181 10.0926 11.1431 9.90439 11.3003 9.74587C11.4575 9.58863 11.6444 9.46233 11.8506 9.37598C12.0568 9.28963 12.2771 9.24581 12.5 9.24452H16C16.2243 9.2471 16.4472 9.20457 16.6547 9.11951C16.8621 9.03574 17.0516 8.91072 17.2101 8.7522C17.3699 8.59367 17.4962 8.40551 17.5812 8.19801C17.6675 7.9918 17.7114 7.76883 17.7101 7.54458L17.7062 7.53943Z" fill="black"/>
</svg>
