<svg width="20" height="20" viewBox="0 0 20 20" fill="none" xmlns="http://www.w3.org/2000/svg">
<g clip-path="url(#clip0_822_4912)">
<path d="M7.4389 -0.0996094C7.6468 -0.0996094 7.64686 0.143653 7.64686 0.465924V3.28948L7.61973 7.89266C7.61973 8.18999 7.62018 8.32339 7.75536 8.32339C7.78248 8.32339 7.83744 8.32207 8.18527 8.00117C9.42437 6.96165 10.8237 6.33753 12.4391 6.33745C13.6492 6.33745 14.7557 6.71633 15.5873 7.60414C16.3108 8.35268 16.4192 9.47539 16.4192 10.7228V17.9169C16.4338 18.4905 16.5709 18.7421 17.4294 18.9707C17.6769 19.0248 17.9594 19.079 17.9489 19.3431C17.9488 19.8356 17.5852 19.8897 17.0924 19.8897H11.0877C10.9941 19.8674 10.9121 19.8105 10.8576 19.7311C10.8031 19.6515 10.7797 19.5545 10.7926 19.459C10.7927 19.189 10.928 19.1102 11.1691 19.0562C11.5725 18.9481 11.8428 18.8664 11.9508 18.5712C12.0838 18.2033 12.1251 17.8852 12.1251 16.9083V10.2822C12.1251 9.21137 11.4557 8.32503 9.93366 8.32503C8.46182 8.32521 7.71344 9.35707 7.71344 10.2822L7.61562 17.8273C7.61563 18.5009 7.69707 18.7694 8.61188 19.0126C8.85498 19.0667 9.12297 19.1205 9.12317 19.3883C9.12317 19.8728 8.77572 19.9004 8.29131 19.9004H2.7568C2.26616 19.9004 2.05811 19.9 2.05811 19.4697C2.05813 19.1995 2.21803 19.1471 2.51514 19.0661C3.40299 18.7375 3.40289 18.3925 3.40289 17.0744V6.03002C3.40289 5.46448 3.40359 3.69676 3.34946 3.34538C3.2684 2.85487 3.13291 2.83378 2.38033 2.64668C2.11013 2.59262 2.05812 2.39753 2.05811 2.18965C2.05811 1.91936 2.08115 1.8919 2.88997 1.7318C4.35808 1.40753 5.76587 0.853327 7.06078 0.0894499C7.33078 -0.0994855 7.38491 -0.0996093 7.4389 -0.0996094Z" fill="white"/>
</g>
<defs>
<clipPath id="clip0_822_4912">
<rect width="20" height="20" fill="white"/>
</clipPath>
</defs>
</svg>
