<svg width="20" height="20" viewBox="0 0 20 20" fill="none" xmlns="http://www.w3.org/2000/svg">
<path d="M18.3734 17.7848V17.4844L2.2562 17.4939V18.1001L18.3734 18.0888V17.7848ZM3.46792 8.6683V8.14302L2.36748 8.15335C2.22756 8.15335 2.23554 8.12332 2.23554 7.94134L2.24726 7.22339L1.69129 7.21387C1.5206 7.59694 1.30858 7.84976 1.188 7.89958L0.156494 8.35453V8.67834L0.542575 8.68786C0.714003 8.68786 0.784333 8.67834 0.784333 8.88053V11.0103C0.784333 11.657 1.13693 12.1318 2.04734 12.1531C2.73159 12.1722 3.14697 11.8688 3.43847 11.5854L3.35862 11.3128C3.23627 11.3949 3.1373 11.4651 2.974 11.4651C2.19715 11.4651 2.21803 10.8586 2.21803 10.3238V8.88083C2.21803 8.66837 2.23554 8.66837 2.37847 8.66837L3.46792 8.6683ZM5.60924 12.1021C6.49862 12.0606 7.35576 11.8691 7.35576 11.0108C7.35576 10.3865 6.67041 9.99108 5.94367 9.67819C5.47767 9.48625 4.80228 9.2042 4.80228 8.98075C4.80228 8.71921 5.31657 8.21343 5.81107 8.61738L6.67041 9.33533L7.06448 9.25328L6.84316 8.18442C6.64023 8.19394 6.49891 8.20464 5.76074 8.08185C4.85159 7.95152 3.77173 8.40661 3.77173 9.25328C3.77173 9.82105 4.59078 10.2137 5.23767 10.4759C5.59027 10.6271 6.21715 10.8501 6.21715 11.1929C6.21715 11.5241 5.63027 11.6172 5.29774 11.6172C4.7321 11.6172 4.10507 10.8589 4.10507 10.8589H3.7329L3.93437 11.9915C4.00323 11.9299 4.25818 11.9388 4.30873 11.9607C4.48909 12.0297 5.14485 12.1321 5.60924 12.1021ZM7.88104 11.0208C7.88104 11.6472 7.72023 11.9797 7.21437 12.009L7.22682 12.1113C8.07217 12.1017 8.93378 12.1113 9.75942 12.0923L9.76887 12.0394C9.38726 12.0394 9.09276 11.6358 9.09276 11.1331V9.44603C9.09276 9.03064 9.59781 8.76837 9.94111 8.79914C10.4745 8.84925 10.7689 9.19182 10.7689 9.49614V11.1523C10.7689 11.6574 10.6176 11.9698 10.224 11.9994V12.0925H12.5455V12.0213C12.2021 11.9796 11.9605 11.6657 11.9605 11.1925V9.45379C11.9605 9.08237 12.2832 8.82955 12.8597 8.82009C13.3648 8.80984 13.6671 9.1842 13.6671 9.53804V11.1117C13.6671 11.6473 13.5059 11.9798 13.1029 12.0216V12.0927C13.9506 12.1021 14.6465 12.1021 15.4839 12.0927V12.0399C15.0407 12.0399 14.8898 11.7483 14.8898 11.1337V9.39504C14.8898 8.81995 14.5766 8.13284 13.6979 8.13284C13.1029 8.13284 12.6657 8.42368 12.4166 8.50867C12.2444 8.57606 12.1228 8.65812 12.0818 8.65812C12.0029 8.65812 11.9125 8.60757 11.7997 8.48669C11.5873 8.26229 11.2048 8.13284 10.7997 8.13284C10.2843 8.13284 9.76909 8.42368 9.52572 8.50867C9.49715 8.51672 9.3162 8.60757 9.29422 8.60757C9.25466 8.60757 9.09276 8.60757 9.09276 8.58852C9.09276 8.1028 9.12353 8.34456 9.10367 8.00171H8.76939C8.67005 8.00171 8.4962 8.18412 8.29473 8.26251C8.05202 8.36581 7.56726 8.35511 7.36726 8.4061V8.74911L7.89034 8.84947V9.51658L7.88104 11.0208ZM17.8547 8.09189C16.3602 8.09189 15.2188 8.86962 15.2188 10.2242C15.2188 11.3657 16.2583 12.1721 17.6524 12.1721C18.7132 12.1721 19.5912 11.405 19.8429 10.9201C19.8429 10.7698 19.692 10.7079 19.5514 10.7079C19.3081 11.0816 18.622 11.3657 18.3403 11.3538C16.6532 11.293 16.3806 10.6167 16.3602 9.9105C16.3287 9.1428 17.1579 8.47533 17.8648 8.52735C18.2774 8.55621 18.4202 9.23138 18.7821 9.47489C18.8956 9.5376 19.1569 9.52588 19.3293 9.49614C19.4605 9.47489 19.8121 9.39475 19.8121 9.09167C19.8121 8.8398 19.4992 8.55614 19.1983 8.37445C18.8956 8.2346 18.218 8.09189 17.8547 8.09189Z" fill="white"/>
</svg>
