<svg width="24" height="24" viewBox="0 0 24 24" fill="none" xmlns="http://www.w3.org/2000/svg">
<g clip-path="url(#clip0_1691_88)">
<path fill-rule="evenodd" clip-rule="evenodd" d="M23.9431 10.146C23.9999 10.146 24.019 10.182 24.0001 10.218C23.8486 10.47 20.8366 14.808 20.7229 15.258C20.6661 15.402 20.6661 15.51 20.7229 15.582C20.8745 15.798 21.2345 15.672 21.4429 15.528C22.0869 15.114 22.5414 14.592 23.0339 14.142C23.0718 14.124 23.1098 14.106 23.1477 14.142C23.2235 14.196 23.337 14.286 23.4128 14.358C23.4507 14.394 23.4317 14.43 23.4128 14.448C22.9392 15.006 22.3899 15.5461 21.8785 15.9241C21.064 16.5181 20.2683 16.6621 19.8705 16.2841C19.719 16.1581 19.6432 15.9419 19.6243 15.7799C19.6243 15.69 19.5675 15.69 19.5296 15.726C19.056 16.176 18.2415 16.6619 17.4838 16.3199C16.8777 16.0319 16.7261 15.312 16.8397 14.718C16.8397 14.7 16.8208 14.6101 16.745 14.6641C16.6124 14.7541 16.442 14.8621 16.2337 14.9341C15.9685 15.0241 15.8547 15.0599 15.6085 15.0599C15.3054 15.0599 15.0213 14.9339 14.8319 14.646C14.7183 14.502 14.6803 14.268 14.6613 14.088C14.6613 14.052 14.6424 14.034 14.6046 14.0699C14.0931 14.8079 13.6197 15.5281 13.1082 16.2841C13.0893 16.32 13.0703 16.338 13.0135 16.338H12.0094C11.9526 16.338 11.9148 16.2839 11.9526 16.2299C12.1232 15.8878 13.0892 14.556 13.7522 13.4041C13.9416 13.0981 13.9037 12.9361 13.7901 12.8641C13.6385 12.7741 13.3733 12.8999 13.1271 13.0799C12.483 13.5479 11.9526 14.268 11.6685 14.592C11.517 14.79 11.3465 15.078 10.9298 15.5099C10.2669 16.1939 9.37653 16.5899 8.52413 16.3199C8.05058 16.1759 7.72848 15.816 7.59588 15.3841C7.55799 15.2941 7.52006 15.2759 7.46324 15.3299C7.3117 15.4919 7.02757 15.744 6.80026 15.888C6.76238 15.9061 6.70555 15.96 6.64876 15.9241C6.59192 15.906 6.42156 15.6719 6.38368 15.5999C6.36478 15.546 6.38358 15.51 6.42141 15.4741C6.74342 15.2041 6.93286 15.042 7.0844 14.862C7.1791 14.736 7.27382 14.592 7.36853 14.358C7.5769 13.872 8.05048 12.954 8.97863 12.486C9.33854 12.306 9.69852 12.162 10.0963 12.126C10.2668 12.108 10.3995 12.126 10.4563 12.252C10.4752 12.306 10.5131 12.4141 10.551 12.5041C10.5699 12.5401 10.5508 12.594 10.494 12.612C9.94471 12.81 9.39539 13.116 9.01656 13.602C8.58088 14.142 8.46734 14.808 8.75147 15.186C8.95984 15.456 9.30073 15.492 9.62275 15.402C10.1152 15.258 10.5509 14.808 10.7593 14.322C10.9866 13.8 11.0245 13.17 10.854 12.612C10.8161 12.522 10.854 12.45 10.9108 12.396C11.0434 12.306 11.2139 12.234 11.2708 12.198C11.3655 12.1441 11.517 12.1801 11.5738 12.2701C11.7442 12.5221 11.839 12.882 11.8579 13.2599C11.8769 13.3319 11.9147 13.332 11.9526 13.296C12.2746 12.972 12.5778 12.6301 12.9188 12.3601C13.2408 12.1081 13.6386 11.91 14.0174 11.928C14.5099 11.9281 14.7561 12.2521 14.7372 12.8101C14.7372 12.882 14.794 12.882 14.8319 12.828C14.9834 12.63 15.0782 12.522 15.2487 12.396C15.5896 12.126 15.9306 12.018 16.2905 12.036C16.7262 12.054 17.086 12.45 17.0103 12.882C16.9724 13.17 16.8209 13.422 16.5367 13.548C16.2905 13.656 16.0252 13.638 15.8358 13.476C15.6843 13.332 15.6276 13.152 15.6654 12.9541C15.6654 12.9181 15.6086 12.8821 15.5707 12.918C15.1351 13.35 15.0972 13.9079 15.3813 14.1599C15.6844 14.4299 16.1578 14.2501 16.4988 14.0341C17.1239 13.6561 17.5975 13.1341 18.1657 12.7201C18.5445 12.4501 18.9613 12.1981 19.4349 12.1441C19.7001 12.1081 19.9464 12.1441 20.2116 12.2341C20.5525 12.3781 20.7609 12.648 20.7988 12.882C20.8177 12.954 20.8745 12.954 20.9123 12.9001C21.1775 12.5041 22.636 10.4342 22.7498 10.218C22.7877 10.164 22.8256 10.146 22.9013 10.146H23.9431ZM19.9652 12.882C19.6053 12.7201 19.0561 13.0261 18.5636 13.602C18.1658 14.07 17.9385 14.5561 17.9385 15.0241C17.9196 15.1861 17.9953 15.4021 18.1468 15.4741C18.4878 15.654 18.9045 15.3839 19.2075 15.1499C19.3969 15.0059 19.5675 14.844 19.719 14.628C19.8705 14.412 19.9843 14.268 20.1169 13.998C20.1358 13.9621 20.1358 13.9441 20.1169 13.9441C20.079 13.9261 20.0222 13.8901 20.0222 13.8541C20.0222 13.8361 20.0221 13.8 20.0599 13.782C20.2115 13.458 20.3441 13.044 19.9652 12.882Z" fill="black"/>
<path fill-rule="evenodd" clip-rule="evenodd" d="M6.09954 7.55407C8.31577 7.37409 10.4184 7.932 12.6347 8.202C14.3205 8.39999 15.9495 8.39999 17.6353 8.022C17.8437 7.986 17.9763 8.11201 17.9574 8.292C17.9385 8.562 17.7111 8.83203 17.1618 9.13803C16.5177 9.46202 15.8547 9.56993 15.1728 9.56993C13.468 9.56992 11.9148 8.93996 10.2857 8.61596C10.2857 8.68796 10.3046 8.76007 10.2478 8.81407C9.35754 9.44406 8.5431 10.0741 7.99378 10.9741C7.97484 10.9921 7.97476 11.0099 8.01265 11.0099C8.48618 10.9919 8.90289 10.974 9.35748 10.938C9.43325 10.938 9.43332 10.92 9.43332 10.866C9.39546 10.56 9.49013 10.2 9.77425 9.96596C10.0584 9.714 10.4372 9.69602 10.6834 9.87596C10.9676 10.074 10.9297 10.452 10.7782 10.722C10.6266 11.01 10.3805 11.154 10.1342 11.226C10.1342 11.226 10.0775 11.244 10.0963 11.2799C10.1153 11.3519 10.4373 11.532 10.4752 11.568C10.513 11.604 10.494 11.6759 10.4372 11.7299C10.3994 11.7659 10.3426 11.802 10.2857 11.802C10.2289 11.802 10.1909 11.784 10.1152 11.748C9.96366 11.676 9.77432 11.55 9.66067 11.388C9.62279 11.334 9.60377 11.3341 9.49012 11.3341C9.01657 11.3701 8.27786 11.424 7.76643 11.478C7.65281 11.496 7.63374 11.5139 7.59588 11.5499C6.8003 12.8099 5.92891 14.16 5.00073 15.078C3.95893 16.05 3.12549 16.3199 2.23522 16.3199C1.11762 16.3199 0.132586 15.672 0.018923 14.538C-0.0379041 13.908 0.151631 13.35 0.511536 12.882C0.852502 12.468 1.40181 12.126 1.89429 12.036C2.0458 12 2.25407 12.018 2.3488 12.126C2.48138 12.2699 2.44362 12.45 2.31106 12.5041C1.95116 12.6841 1.51541 12.9901 1.2881 13.4041C1.11764 13.7461 1.07971 14.142 1.34489 14.538C1.79951 15.186 3.04982 15.204 4.2053 14.178C4.48942 13.926 4.75461 13.6921 5.01979 13.4041C5.53123 12.8461 5.70175 12.648 6.38368 11.748C6.38368 11.73 6.40256 11.73 6.38368 11.712C6.38367 11.694 6.36468 11.6941 6.34575 11.6941C5.89117 11.6941 5.49332 11.82 5.1145 12.0899C5.00087 12.1619 4.84936 12.162 4.77357 12.0541C4.6978 11.9461 4.75456 11.784 4.88715 11.712C5.51225 11.298 6.19418 11.226 6.8761 11.118C6.87681 11.118 6.91454 11.1175 6.97082 11.0641C7.25495 10.7221 7.46335 10.398 7.76643 10.056C8.0695 9.69598 8.46728 9.37192 8.77034 9.11993C9.18703 8.77797 9.45222 8.66995 9.73633 8.52596C9.81199 8.49002 9.71773 8.45418 9.69859 8.45407C8.16428 8.18407 6.57308 7.8241 5.05771 8.36407C3.99698 8.74205 3.54223 9.53396 3.76948 10.056C3.92102 10.434 4.45145 10.488 4.94394 10.272C5.34173 10.074 5.72058 9.78593 5.98577 9.38993C6.13732 9.174 6.44038 9.3361 6.26991 9.71407C5.81529 10.704 4.98184 11.496 3.94003 11.532C3.04974 11.568 2.50049 10.938 2.50049 10.182C2.5005 8.68801 4.26213 7.69807 6.09954 7.55407ZM10.4184 10.146C10.3426 10.074 10.2099 10.092 10.1152 10.182C9.90687 10.326 9.85016 10.5599 9.88802 10.7399C9.90695 10.8119 9.92581 10.812 9.96367 10.812C10.1152 10.776 10.2857 10.6681 10.3804 10.5241C10.4752 10.3981 10.5131 10.218 10.4184 10.146Z" fill="black"/>
</g>
<defs>
<clipPath id="clip0_1691_88">
<rect width="24" height="9" fill="white" transform="translate(0 7.50002)"/>
</clipPath>
</defs>
</svg>
