<svg width="24" height="24" viewBox="0 0 24 24" fill="none" xmlns="http://www.w3.org/2000/svg">
<path fill-rule="evenodd" clip-rule="evenodd" d="M12.7395 4.9453C13.5225 4.97902 14.2836 5.0973 15.0136 5.29187C16.2822 5.64281 17.1522 6.07741 17.7204 6.43645C18.6612 7.03054 19.3079 7.72198 19.308 8.49896C19.308 9.04806 19.1873 9.50199 18.6196 10.1257C19.3689 10.4836 19.7379 10.9369 19.7321 11.631C19.7129 13.9005 15.9255 18.3609 12.7395 19.9888V4.9453ZM17.2914 10.9984C17.1844 11.0676 14.3061 12.6755 14.3061 12.6755V16.9917C15.1009 16.3821 15.8353 15.5999 16.2836 15.0868C17.2926 13.9293 18.1089 12.7022 18.1097 11.9095C18.1097 11.8443 18.1534 11.2152 17.2914 10.9984ZM14.3061 11.014L16.3019 9.95166C17.3058 9.42855 17.6283 8.90866 17.6283 8.54624C17.6282 7.54057 15.0905 6.74421 14.3061 6.74421V11.014Z" fill="black"/>
<path d="M11.2609 19.9885C10.2077 18.8754 9.24895 17.4829 8.56662 16.0719L7.1737 16.8984C5.36679 14.9098 4.13064 12.4667 3.34524 9.24269C3.74627 8.77952 4.15704 8.36632 4.57098 7.99731C5.17207 10.6832 6.04728 12.9477 7.38685 14.8096L7.8925 14.5189C6.99912 12.1212 6.5021 9.59528 6.28345 6.70833C6.82473 6.36816 7.35279 6.09341 7.85042 5.87134C8.04098 9.05343 8.64502 12.2263 9.65872 14.7689L9.72637 14.7297L9.65353 5.22694C10.1944 5.08887 10.7247 4.9971 11.2609 4.9453V19.9885Z" fill="black"/>
<path fill-rule="evenodd" clip-rule="evenodd" d="M12.1904 1.02557C15.1067 1.41003 17.6353 2.13265 19.9221 3.21483L20.7269 3.59525V4.8134L22.2955 5.65666V6.82165L24 7.72892L23.8652 8.69598C23.4137 11.9403 22.2217 14.8764 20.3245 17.4245C18.4069 19.9993 15.8183 22.1057 12.6308 23.6867L11.9999 24L11.3692 23.6867C8.18166 22.1057 5.59309 19.9993 3.67554 17.4245C1.77831 14.8764 0.586297 11.9403 0.134751 8.69598L0 7.72892L1.7045 6.82165V5.65666L3.27333 4.8134V3.59525L4.07813 3.21483C6.36463 2.13285 8.89293 1.41003 11.8094 1.02557L11.9999 1L12.1904 1.02557ZM11.9979 2.41572C9.24751 2.77833 6.85661 3.45365 4.68645 4.48081V5.64893L3.11763 6.49237V7.66123L1.53472 8.50374C1.69415 9.58536 2.20678 13.1209 4.81212 16.5908C7.46208 20.1638 10.9467 21.8972 11.9981 22.4307C13.0494 21.8974 16.534 20.1638 19.184 16.5908C21.7893 13.121 22.3021 9.58574 22.4614 8.50374L20.8781 7.66123V6.49237L19.3095 5.64893V4.48081C17.1393 3.45381 14.7483 2.77834 11.9979 2.41572Z" fill="black"/>
</svg>
