<svg width="20" height="20" viewBox="0 0 20 20" fill="none" xmlns="http://www.w3.org/2000/svg">
<g clip-path="url(#clip0_822_5322)">
<mask id="mask0_822_5322" style="mask-type:luminance" maskUnits="userSpaceOnUse" x="-1" y="4" width="21" height="12">
<path d="M-0.000183105 4.552H19.9998V15.4536H-0.000183105V4.552Z" fill="white"/>
</mask>
<g mask="url(#mask0_822_5322)">
<path d="M13.8037 10.9158C13.9194 10.8332 14.0449 10.737 14.1618 10.6449C15.062 9.92464 15.7496 9.13522 15.886 8.69861C15.8901 8.68434 15.9022 8.64376 15.9022 8.61182C15.9022 8.56673 15.8807 8.53517 15.8398 8.53517C15.4265 8.53517 14.1005 9.8555 13.7796 10.9245V10.9282L13.8037 10.9158ZM10.4799 10.764C11.7334 9.81718 13.0503 8.43861 13.1909 7.87275C13.195 7.85434 13.1991 7.8363 13.1987 7.81902C13.1969 7.78144 13.1766 7.74838 13.1292 7.74838C12.7325 7.74838 10.8955 9.44257 10.4799 10.764ZM2.78374 11.5963C2.45272 11.3667 1.94097 11.1661 1.4837 11.1661C1.04033 11.1661 0.756276 11.3404 0.756276 11.5602C0.756276 11.8123 1.10045 11.9228 1.48595 11.9228C1.95337 11.9228 2.37757 11.7965 2.78374 11.5963ZM6.62338 8.6261C7.52214 8.33791 8.3743 7.7356 9.01042 7.10662C9.5977 6.52461 10.0681 5.83363 10.0681 5.49134C10.0681 5.41319 10.0125 5.36622 9.94112 5.36622C9.66946 5.36622 9.1532 5.7273 8.45847 6.42279C7.91779 6.96497 7.28768 7.70517 6.62338 8.6261ZM19.9995 10.7986C19.2278 11.5666 16.8231 13.6775 16.1866 15.4536L15.3983 15.2503C15.656 14.5146 16.4319 13.3705 17.2965 12.4879C17.1124 12.557 16.9208 12.583 16.7667 12.583C16.533 12.583 16.3515 12.5123 16.2422 12.3801C16.164 12.2846 16.1242 12.1603 16.1242 12.0122C16.1242 11.9799 16.1265 11.9476 16.131 11.9111C15.3716 12.3737 14.761 12.5826 14.1629 12.5826C13.6973 12.5826 13.3055 12.3797 13.124 12.0239C12.3702 12.3977 11.6473 12.5826 11.0431 12.5826C10.4807 12.5826 10.0272 12.3598 9.81901 11.954C9.05701 12.3823 8.40849 12.5826 7.89261 12.5826C7.59578 12.5826 7.36019 12.5003 7.20915 12.3444C7.09793 12.2294 7.03932 12.075 7.03067 11.8965C6.54222 12.2185 5.82832 12.5826 5.09677 12.5826C4.3483 12.5826 3.84632 12.3256 3.45668 12.0708C2.83522 12.415 2.15138 12.5826 1.42847 12.5826C0.882147 12.5826 0.000672829 12.3553 0.000672829 11.5719C-0.000454376 10.9395 0.659336 10.5112 1.54231 10.5112C2.29303 10.5112 3.01632 10.8275 3.47021 11.1559C3.9008 10.8129 4.35281 10.3331 4.88598 9.65486C4.76875 9.66162 4.65415 9.66463 4.54143 9.66463C3.52056 9.66463 2.66802 9.36366 2.20248 8.83688C1.95111 8.55208 1.83201 8.21805 1.83201 7.85847C1.83201 6.43819 3.62614 5.33616 5.19559 5.17384C5.29929 5.40905 5.39172 5.59016 5.48753 5.80545C3.93725 5.98581 2.64585 6.90335 2.64585 7.80023C2.64585 8.38976 3.30827 8.98192 4.71464 8.98192C4.95549 8.98192 5.19746 8.95862 5.43568 8.92593C6.67711 7.21258 8.57908 4.552 10.2162 4.552C10.7005 4.552 10.9537 4.84658 10.9537 5.24035C10.9537 6.05043 10.2567 6.92251 9.80285 7.37753C9.0897 8.09406 7.79943 9.16039 5.99778 9.51358C5.29703 10.4886 4.72103 11.1353 4.14465 11.6023C4.49371 11.7905 4.82135 11.9063 5.21174 11.9063C6.18151 11.9063 7.12235 11.0188 7.85692 10.2662L7.88284 10.241L8.45546 10.6889L8.42916 10.7204C8.10453 11.0928 7.80506 11.4866 7.80506 11.7071C7.80506 11.8743 7.94672 11.9074 8.06808 11.9074C8.43931 11.9074 9.01193 11.6669 9.68562 11.2529V11.2472C9.76001 9.58272 12.0317 7.03711 13.4107 7.03711C13.7999 7.03711 14.0235 7.23099 14.0235 7.57066C14.0235 8.40516 12.584 10.194 10.4901 11.5632V11.5643C10.5983 11.7973 10.8478 11.9096 11.2712 11.9096C11.6015 11.9096 12.2478 11.7624 13.0158 11.3611C13.1044 10.4988 13.5933 9.57257 14.2132 8.91241C14.8351 8.25149 15.5321 7.82202 16.1347 7.82202C16.5063 7.82202 16.7258 8.02642 16.7258 8.34768C16.7258 9.07548 15.8807 10.3199 13.845 11.623C13.9352 11.7973 14.1099 11.9074 14.3819 11.9074C14.9884 11.9074 16.0566 11.2604 16.8885 10.4649L17.4859 10.9286C17.2308 11.2382 16.9726 11.5782 16.9809 11.774C16.9831 11.8375 17.026 11.8803 17.1263 11.8803C17.7395 11.8803 18.7048 11.0706 19.4284 10.356L19.9995 10.7986ZM8.89996 9.12921C9.17086 9.12921 9.38954 9.34901 9.38954 9.61954C9.38954 9.89045 9.17086 10.1099 8.89996 10.1099C8.62792 10.1099 8.40849 9.89045 8.40849 9.61954C8.40887 9.34901 8.6283 9.12921 8.89996 9.12921Z" fill="white"/>
</g>
</g>
<defs>
<clipPath id="clip0_822_5322">
<rect width="20" height="20" fill="white"/>
</clipPath>
</defs>
</svg>
