<svg width="20" height="20" viewBox="0 0 20 20" fill="none" xmlns="http://www.w3.org/2000/svg">
<g clip-path="url(#clip0_822_5045)">
<path d="M10.6324 0C10.8066 0 11.0151 0.0587858 11.0749 0.265152C11.4577 1.56183 11.9316 2.9156 12.3729 4.21101L16.4177 16.0532C17.2738 18.5857 17.6582 19.0272 18.9278 19.175L19.7242 19.2627C19.9312 19.4107 19.8717 19.8814 19.7242 20C18.5146 19.9401 17.4804 19.9113 16.1525 19.9113C14.7354 19.9113 13.6144 19.9697 12.7582 19.9991C12.5204 19.8819 12.4922 19.4102 12.6981 19.2637L13.5546 19.175C14.174 19.1164 14.5874 18.9389 14.5875 18.6447C14.5875 18.3211 14.4397 17.7894 14.2031 17.0824L12.906 13.0774C12.7 12.4305 12.58 12.3411 11.6948 12.3411H7.23713C6.49951 12.3411 6.32288 12.4298 6.11555 13.0488L5.08081 16.1401C4.63942 17.4662 4.43225 18.2616 4.43225 18.5865C4.43238 18.939 4.58044 19.1164 5.28868 19.175L6.26337 19.2627C6.47028 19.4109 6.46991 19.8815 6.20424 20C5.43594 19.9401 4.521 19.9406 3.13329 19.9113C2.15909 19.9113 1.09724 19.9697 0.299768 19.9991C0.122989 19.8819 0.062697 19.4102 0.24064 19.2637L1.21533 19.175C1.92387 19.1164 2.57297 18.7908 2.98639 17.731C3.51811 16.3756 4.34454 14.4622 5.5834 11.1632L8.5943 3.21046C9.00773 2.15058 9.18593 1.59107 9.09689 1.11973C9.80533 0.913382 10.3066 0.382163 10.6324 0ZM9.62996 3.59387C9.54073 3.74091 9.24555 4.44809 8.92135 5.33167H8.91858L7.05882 10.4564C6.82238 11.1336 6.85208 11.1632 7.67874 11.1632H11.3133C12.1678 11.1631 12.2275 11.0459 11.9618 10.2513L10.3681 5.44808C10.1316 4.74241 9.86629 3.94669 9.68817 3.59387H9.62996Z" fill="white"/>
</g>
<defs>
<clipPath id="clip0_822_5045">
<rect width="20" height="20" fill="white"/>
</clipPath>
</defs>
</svg>
