<svg width="24" height="24" viewBox="0 0 24 24" fill="none" xmlns="http://www.w3.org/2000/svg">
<path d="M12.7319 1.36272C11.7072 1.12934 10.6267 1.0039 9.48468 1H3V23H9.48468C13.1383 22.9942 15.9945 22.0512 18.0533 20.1707C18.9721 19.3298 19.6789 18.298 20.1932 17.0984C19.4111 17.3434 18.2749 17.2835 17.4871 17.2893C15.852 17.2759 14.6483 16.7918 13.8779 15.839C13.1055 14.8881 12.7241 13.5497 12.7319 11.8275V1.36272ZM20.8845 14.84C21.0733 13.9065 21.1812 12.9036 21.1928 11.8101C21.1697 9.54393 20.64 7.60564 19.6038 5.99711C18.5695 4.3867 17.1733 3.15434 15.4147 2.2961C15.3051 2.24205 15.1855 2.20549 15.072 2.15535V10.8553C15.0565 12.3347 15.2491 13.4475 15.6517 14.1919C16.0523 14.9344 16.7572 15.3355 17.7626 15.3935C19.0126 15.3704 20.224 15.6038 20.8845 14.84Z" fill="black"/>
<mask id="mask0_1691_102" style="mask-type:luminance" maskUnits="userSpaceOnUse" x="3" y="1" width="19" height="22">
<path d="M3 1V22.9981H9.48468C13.1383 22.9942 15.9945 22.0512 18.0533 20.1707C18.9721 19.3318 19.6789 18.298 20.1932 17.0965C19.548 17.3009 18.6581 17.2951 17.9263 17.2912C17.7723 17.2893 17.6238 17.2874 17.4871 17.2893C15.852 17.2759 14.6483 16.7918 13.8779 15.839C13.1055 14.8881 12.7241 13.5497 12.7319 11.8275V1.36272C11.7072 1.12934 10.6267 1.0039 9.48468 1H3ZM15.072 10.8553C15.0565 12.3347 15.2491 13.4455 15.6517 14.1919C16.0523 14.9344 16.7552 15.3355 17.7626 15.3935C18.0186 15.3896 18.273 15.3954 18.5214 15.4012C19.4863 15.4243 20.3588 15.4455 20.8845 14.838C21.0733 13.9046 21.1812 12.9036 21.1928 11.8101C21.1697 9.54393 20.64 7.60564 19.6058 5.99523C18.5695 4.3867 17.1751 3.15434 15.4147 2.2961C15.3051 2.24205 15.1837 2.20549 15.072 2.15535" fill="white"/>
</mask>
<g mask="url(#mask0_1691_102)">
<path d="M14.084 0.546814L14.7773 13.7309L16.919 15.785L20.4204 16.3076L21.212 16.001L21.8052 6.99046L18.5388 3.3221" fill="black"/>
</g>
</svg>
