<svg width="24" height="24" viewBox="0 0 24 24" fill="none" xmlns="http://www.w3.org/2000/svg">
<path d="M9.69543 4C9.63116 4.64057 9.63116 6.40175 9.63116 7.25964V14.6855C9.63116 16.6315 9.19098 17.7002 8.29292 18.5808C8.04391 18.8208 7.7692 19.0349 7.47681 19.2198C7.18442 19.403 6.87275 19.5571 6.54984 19.6787C6.22532 19.8003 5.88955 19.8879 5.54897 19.9398C5.20678 19.9933 4.86136 20.0111 4.51596 19.9933C2.19291 19.9933 0.491599 18.8159 0 16.8099L2.11741 16.1223C2.44996 17.4975 3.40746 18.044 4.78747 18.044C6.5177 18.044 7.48001 16.998 7.48001 15.2612V9.42137C7.48001 8.00724 7.44306 5.16763 7.33061 4.11352C7.52767 4.11568 7.72528 4.11515 7.92342 4.1119C8.12049 4.10866 8.31756 4.10217 8.51462 4.09244C8.71169 4.08379 8.90876 4.07136 9.10582 4.05514C9.30289 4.04001 9.49943 4.02162 9.69543 4Z" fill="black"/>
<path d="M24 4C23.9614 4.64057 23.9389 6.40175 23.902 7.25964V16.4239C23.902 17.2429 23.9245 18.9814 23.9663 19.5976H21.6287C21.7412 18.5289 21.783 15.7039 21.783 14.2914V12.4394H13.715V16.4239C13.715 17.2429 13.7375 18.9814 13.7792 19.5976H11.4417C11.5494 18.5289 11.596 15.7039 11.596 14.2914V9.42137C11.596 8.00886 11.5494 5.16763 11.4417 4.10866C11.6367 4.1119 11.8321 4.1119 12.0281 4.10866C12.223 4.10541 12.418 4.09947 12.6129 4.09083C12.8078 4.0811 13.0022 4.06865 13.1961 4.05351C13.391 4.03946 13.5854 4.02162 13.7792 4C13.715 4.64057 13.715 6.40175 13.715 7.25964V10.6312H21.8167V9.42137C21.8167 8.00886 21.7733 5.16763 21.6625 4.10866C21.8574 4.1119 22.0523 4.1119 22.2473 4.10866C22.4422 4.10541 22.6371 4.09947 22.832 4.09083C23.027 4.0811 23.2219 4.06865 23.4168 4.05351C23.6107 4.03946 23.8051 4.02162 24 4Z" fill="black"/>
</svg>
