<svg width="24" height="24" viewBox="0 0 24 24" fill="none" xmlns="http://www.w3.org/2000/svg">
<path d="M23.4179 0.356319C23.5413 0.452378 23.6479 0.564946 23.7362 0.691022C23.823 0.8186 23.8916 0.958185 23.9357 1.10527C23.9814 1.25236 24.0028 1.40546 23.9997 1.55855C23.9906 2.39155 23.3082 3.05796 22.4766 3.04895C21.645 3.03845 20.9794 2.35703 20.9885 1.52403V1.51802C17.8768 2.33302 14.5458 7.81134 13.21 10.2128L15.4596 14.645C16.4832 16.7478 16.9249 16.9384 18.4678 16.9189L18.4632 17.2326H14.2792L11.9169 12.4251C11.4432 13.2732 7.20286 20.7132 3.33568 22.6298C2.65333 22.969 1.88416 23.0891 1.24902 22.9315C1.17287 22.9165 1.10128 22.8925 1.03122 22.867C1.02665 22.8655 1.02208 22.864 1.01903 22.8625C0.868244 22.8069 0.728118 22.7289 0.6017 22.6313C0.475282 22.5323 0.364095 22.4167 0.274231 22.2846C0.182845 22.154 0.112782 22.01 0.0670883 21.8584C0.021395 21.7068 -0.00145167 21.5492 7.14423e-05 21.3901C0.0107332 20.5316 0.71441 19.8426 1.57344 19.8531C2.43248 19.8621 3.1194 20.5676 3.10874 21.4261V21.4321C6.71089 20.491 10.6283 13.5208 11.5803 11.7437L9.65202 7.81885C8.52035 5.62301 7.95223 5.67104 6.57229 5.64553L6.55097 5.33334L10.604 5.07518L12.8703 9.54189C13.8726 7.82335 17.4336 2.02833 20.8073 0.35782C21.4683 0.029121 22.1842 -0.0849482 22.7949 0.0651428C22.8528 0.0771501 22.9076 0.0981629 22.9625 0.116174C22.9792 0.120677 22.9975 0.125179 23.0143 0.131183L23.0127 0.132684C23.159 0.186717 23.296 0.261762 23.4179 0.356319Z" fill="black"/>
</svg>
