<svg width="24" height="24" viewBox="0 0 24 24" fill="none" xmlns="http://www.w3.org/2000/svg">
<g clip-path="url(#clip0_1782_3152)">
<path d="M12 0C18.6092 0 24 5.35385 24 12C24 18.6092 18.6092 24 12 24C5.39077 24 0 18.6092 0 12C0 5.39077 5.39077 0 12 0ZM12 8.56623C11.8523 8.56623 9.78454 8.5663 9.52608 8.64014C9.37841 8.64017 9.2306 8.71379 9.08293 8.78762C8.49219 9.23069 8.04922 9.82156 7.75385 10.5231C7.75385 10.2277 7.64293 10.1906 7.60601 10.1906H7.49531C6.57229 10.1907 6.3137 10.7077 6.3137 10.7077C6.0923 11.1507 7.38462 11.2248 7.38462 11.2248H7.45853C7.23701 11.594 7.0153 11.9262 6.75685 12.2585C6.60921 12.4062 6.49836 12.5907 6.38762 12.7752C6.31378 12.9968 6.27693 13.1815 6.27692 13.403C6.27692 13.7353 6.3137 15.2124 6.3137 15.2124V17.0585C6.31373 17.1324 6.35081 17.2431 6.46154 17.2431H7.93846C8.01229 17.2431 8.08627 17.1693 8.0863 17.0585V16.8368H15.9137V17.0585C15.9137 17.1324 15.9508 17.2431 16.0615 17.2431H17.5385C17.6123 17.2431 17.6863 17.1693 17.6863 17.0585V15.2124C17.6863 15.2124 17.7231 13.7353 17.7231 13.403C17.7231 13.1815 17.6862 12.9598 17.6124 12.7752C17.5016 12.5907 17.3908 12.4062 17.2431 12.2585C16.9847 11.9262 16.763 11.594 16.5415 11.2248H16.6154C16.6154 11.2248 17.9077 11.1507 17.6863 10.7077C17.6863 10.7077 17.4646 10.1907 16.5047 10.1906H16.3569C16.32 10.1906 16.2831 10.191 16.2462 10.5231C15.9508 9.85848 15.5078 9.26761 14.9171 8.78762C14.7694 8.71379 14.6216 8.67706 14.4739 8.64014C14.2155 8.60322 12.1477 8.56623 12 8.56623ZM12.0371 13.5876C13.6232 13.5876 14.7303 13.6247 14.7692 13.6248C15.1013 13.6618 14.8799 14.1785 14.8799 14.2154V14.1786C13.9938 14.2524 12.7384 14.2522 12 14.2522C11.2246 14.2522 9.96926 14.2524 9.12007 14.1786C9.12007 14.1786 8.89868 13.6248 9.26791 13.6248C9.30925 13.6246 10.4159 13.5876 12.0371 13.5876ZM16.8 12.6278C17.0215 12.5909 17.2432 12.7017 17.3171 12.8863C17.3909 13.1078 17.4279 13.3663 17.391 13.6615C17.391 13.6985 17.3168 13.8091 17.0953 13.8829C16.5415 13.9937 15.9508 14.1045 15.397 14.1415C15.3979 14.1318 15.4736 13.2907 15.9508 13.0338C16.2092 12.8492 16.5047 12.7385 16.8 12.6278ZM6.68329 12.8492C6.75717 12.6647 6.97856 12.5538 7.2 12.5906C7.49534 12.7014 7.79109 12.8124 8.04952 12.997C8.56555 13.2553 8.60291 14.1026 8.56623 14.1047C8.01244 14.0308 7.45847 13.9569 6.90469 13.8462C6.64809 13.7728 6.6099 13.5902 6.60938 13.5876C6.57247 13.3292 6.60945 13.0707 6.68329 12.8492ZM12.7756 8.93546C13.8832 8.93546 14.7325 8.97224 14.7325 8.97224C15.1386 9.56298 15.4709 10.1539 15.7662 10.7816C15.8387 10.9991 15.6618 11.0029 15.6555 11.003H8.38161C8.37857 11.003 8.19773 11.0012 8.27091 10.7816C8.56629 10.1539 8.89869 9.52607 9.26791 8.97224C9.28442 8.97152 10.128 8.93546 11.2248 8.93546V9.19399C11.2249 9.26779 11.2988 9.34147 11.3726 9.34147H12.6649C12.7386 9.34136 12.8124 9.30451 12.8124 9.23077V9.00938L12.7756 8.93546ZM12.0368 5.64916C11.2615 5.64916 10.5231 5.68612 9.74784 5.83377C9.4894 5.90761 9.2309 5.94478 9.00938 6.05553C8.89861 6.12937 8.82469 6.1663 8.75084 6.24014C8.67702 6.31398 8.63992 6.38779 8.60301 6.53546C8.63992 6.64621 8.677 6.75693 8.75084 6.83077C9.12006 7.05229 9.52618 7.19986 9.96923 7.23678C10.6338 7.34754 11.3353 7.38461 12.0368 7.38462C12.8121 7.38462 13.5876 7.31076 14.3261 7.2C14.5845 7.16308 14.843 7.08934 15.0645 6.97861C15.1753 6.94168 15.2492 6.90462 15.3231 6.83077C15.3969 6.75694 15.4709 6.6462 15.4709 6.53546C15.4709 6.42472 15.3969 6.31399 15.3231 6.24014C14.9539 5.9817 14.5477 5.83393 14.1047 5.797C13.4401 5.68623 12.7383 5.64916 12.0368 5.64916ZM12.0371 6.12909C12.7755 6.1291 13.5141 6.20294 14.2525 6.3137C14.474 6.35064 14.6957 6.42449 14.8803 6.49832H14.9538C14.6586 6.60905 14.3632 6.68314 14.0679 6.72007C13.4033 6.83083 12.7385 6.86754 12.0739 6.86755C11.3355 6.86754 10.5969 6.79369 9.85853 6.68293C9.63707 6.64601 9.41534 6.57238 9.23077 6.53546H9.15721C9.41563 6.38785 9.74785 6.31384 10.0431 6.27692C10.7077 6.16617 11.3726 6.12909 12.0371 6.12909Z" fill="black"/>
</g>
<defs>
<clipPath id="clip0_1782_3152">
<rect width="24" height="24" fill="white"/>
</clipPath>
</defs>
</svg>
