<svg width="20" height="20" viewBox="0 0 20 20" fill="none" xmlns="http://www.w3.org/2000/svg">
<path d="M13.3803 12.6885L14.0723 9.33485L14.3358 12.6885H15.829L15.137 7.36523H13.54L12.7947 10.5592L12.0495 7.36523H10.4525L9.76044 12.6885H11.251L11.5172 9.33485L12.2092 12.6885H13.3803Z" fill="white"/>
<path d="M18.0116 7.36523H16.5743V12.6885H19.9812V11.5706H18.0116V7.36523Z" fill="white"/>
<path d="M3.42571 7.36523H1.61578L0.0187988 12.6885H1.61579L1.82871 11.7303H3.21277L3.42571 12.6885H5.02271L3.42571 7.36523ZM2.52075 8.53635L2.99985 10.7189L2.04165 10.7189L2.52075 8.53635Z" fill="white"/>
<path d="M8.85556 8.8558C7.53289 7.69892 5.46891 8.16926 5.44867 9.22844C5.14855 7.26327 7.52497 6.853 8.85543 7.47174C8.87913 7.78727 8.90288 8.12699 8.85556 8.8558Z" fill="white"/>
<path d="M7.75814 9.48259C7.4249 9.35252 6.94008 9.23419 6.93938 8.8553C6.9391 8.70054 7.00276 8.5325 7.31178 8.42993C6.24712 8.53639 5.89208 9.83149 7.0696 10.4752C7.27482 10.5874 7.63118 10.7064 7.63118 11.0915C7.63118 11.5414 7.1369 11.7041 6.81176 11.6972C6.27165 11.6858 5.83739 11.4971 5.34216 11.1447V12.4223C5.92821 12.6746 6.8828 12.9656 7.83974 12.6713C8.61313 12.4334 9.28139 11.7842 9.28139 11.0915C9.28143 9.96434 8.30316 9.69534 7.75814 9.48259Z" fill="white"/>
</svg>
