<svg width="20" height="20" viewBox="0 0 20 20" fill="none" xmlns="http://www.w3.org/2000/svg">
<path d="M10.114 5.17196C9.40301 5.17196 8.30276 4.36347 7.14402 4.39197C5.61403 4.41222 4.21154 5.27921 3.4233 6.65245C1.83556 9.40869 3.0138 13.4797 4.56254 15.7199C5.32228 16.8104 6.21853 18.0374 7.40652 17.9991C8.54651 17.9504 8.97401 17.2589 10.3577 17.2589C11.731 17.2589 12.1202 17.9991 13.3277 17.9699C14.5555 17.9504 15.3347 16.8599 16.0847 15.7589C16.9517 14.4929 17.3117 13.2652 17.3312 13.1977C17.302 13.1879 14.9447 12.2819 14.9162 9.55493C14.8967 7.27495 16.7762 6.18446 16.864 6.13571C15.7922 4.56822 14.1467 4.39272 13.5715 4.35372C12.0715 4.23672 10.8152 5.17196 10.114 5.17196ZM12.6475 2.87248C13.2797 2.11349 13.6975 1.05224 13.5812 0C12.676 0.0389997 11.5847 0.603746 10.9322 1.36349C10.3472 2.03549 9.84175 3.11698 9.9775 4.14897C10.981 4.22697 12.0137 3.63298 12.6467 2.87323" fill="white"/>
</svg>
