<svg width="20" height="20" viewBox="0 0 20 20" fill="none" xmlns="http://www.w3.org/2000/svg">
<g clip-path="url(#clip0_822_4927)">
<path d="M18.5039 5.78174V14.1003H19.9999V5.78174H18.5039ZM-6.10352e-05 5.89954V7.47355H1.57395V5.89863L-6.10352e-05 5.89954ZM8.86225 6.21851V11.7035C8.86225 12.1684 8.90212 12.5599 8.98005 12.8743C9.05889 13.1824 9.193 13.4343 9.37876 13.6246C9.56271 13.8149 9.80919 13.9499 10.1064 14.0333C10.4091 14.1176 10.7897 14.1565 11.2437 14.1565H11.4394V12.7674C11.2219 12.7674 11.0361 12.7565 10.902 12.7338C10.7703 12.7214 10.6463 12.6663 10.5486 12.5771C10.4627 12.4819 10.408 12.3627 10.3919 12.2355C10.3668 12.0535 10.3556 11.87 10.3583 11.6863V9.70906H11.4394V8.42593H10.3583V6.21851H8.86225ZM5.68613 8.31357C5.32729 8.31357 4.99745 8.38606 4.70566 8.53195C4.40935 8.67785 4.16196 8.87992 3.96079 9.13727L3.88196 9.24329V8.42593H2.40853V14.0949H3.89374V11.1825C3.91005 10.6497 4.03872 10.2582 4.28611 10.0054C4.54889 9.73625 4.86787 9.60214 5.23214 9.60214C5.66348 9.60214 5.99423 9.73716 6.21262 9.99451C6.42557 10.2519 6.53793 10.6161 6.53793 11.0819V14.094H8.04489V10.8789C8.05032 10.0724 7.83737 9.43359 7.42326 8.98504C7.00823 8.53648 6.42647 8.31357 5.68613 8.31357ZM14.8067 8.31901C14.4191 8.31746 14.0351 8.39238 13.6765 8.53948C13.3179 8.68657 12.9919 8.90296 12.7171 9.17624C12.4543 9.43903 12.2413 9.75347 12.09 10.1123C11.9339 10.4766 11.8555 10.8695 11.8598 11.2659C11.8598 11.6754 11.9323 12.0615 12.0782 12.4203C12.2241 12.7783 12.4316 13.0927 12.689 13.3555C12.9463 13.6183 13.2662 13.8321 13.6359 13.9835C14.0056 14.1402 14.4152 14.2191 14.852 14.2191C16.1179 14.2191 16.9018 13.6418 17.373 13.1045L16.2973 12.2853C16.0726 12.5544 15.5353 12.9187 14.8629 12.9187C14.4424 12.9187 14.0954 12.8236 13.8317 12.6278C13.5678 12.4333 13.3782 12.1546 13.2943 11.8376L13.2771 11.7869H17.7309V11.255C17.7309 10.8463 17.6584 10.4648 17.518 10.1069C17.3768 9.76106 17.1738 9.44385 16.919 9.1708C16.6574 8.90032 16.3427 8.68683 15.9947 8.54373C15.6178 8.38981 15.2138 8.31338 14.8067 8.31901ZM0.0389041 8.42593V14.0949H1.53499V8.42593H0.0389041ZM14.7895 9.59126C15.8153 9.59126 16.2973 10.3135 16.2973 10.7285L13.2889 10.7339C13.2889 10.3189 13.7646 9.5967 14.7895 9.59126Z" fill="white"/>
</g>
<defs>
<clipPath id="clip0_822_4927">
<rect width="20" height="20" fill="white"/>
</clipPath>
</defs>
</svg>
