<svg width="20" height="20" viewBox="0 0 20 20" fill="none" xmlns="http://www.w3.org/2000/svg">
<path d="M11.563 2.45825C14.2799 2.45825 16.3871 3.09655 17.8232 4.35268C19.2512 5.59654 20 7.55236 20 9.99916C20 12.4419 19.2512 14.3936 17.8232 15.6416C16.3912 16.8936 14.2799 17.5319 11.563 17.5319H8.35924V2.45825H11.563ZM6.6694 2.46237V12.1964C6.6694 13.9722 6.14158 15.3224 5.1023 16.2144C4.08757 17.0818 2.44681 17.5278 0.355982 17.5278C0.339617 17.5278 0.294609 17.5319 0.241424 17.5278H0V15.3429H0.249575C0.973798 15.3388 1.59167 15.2733 2.08267 15.1465C2.58594 15.0156 3.02374 14.815 3.38381 14.5409C3.68249 14.3077 3.89526 14.0008 4.01801 13.6326C4.14895 13.2439 4.2144 12.5483 4.2144 11.554V2.46237H6.6694ZM10.7283 4.65548V15.347H11.8412C13.7643 15.347 15.2209 14.901 16.1784 14.0254C17.1195 13.1702 17.6146 11.7791 17.6146 10.0033C17.6146 8.21932 17.1195 6.82816 16.1784 5.973C15.2209 5.10148 13.7602 4.65548 11.8412 4.65548H10.7283Z" fill="white"/>
</svg>
