<svg width="20" height="20" viewBox="0 0 20 20" fill="none" xmlns="http://www.w3.org/2000/svg">
<g clip-path="url(#clip0_822_4841)">
<path fill-rule="evenodd" clip-rule="evenodd" d="M1.81548 7.70313C1.837 7.44178 1.69933 7.29172 1.44078 7.29172C1.15084 7.29172 0.932532 7.53936 0.847038 8.02388C0.784981 8.37602 0.803407 8.70724 1.22277 8.70724C1.48824 8.70724 1.64656 8.52254 1.7204 8.28183H2.51329C2.3255 8.93085 1.7919 9.32191 1.12814 9.32191C0.296339 9.32191 -0.117276 8.81204 0.0267376 7.99587C0.170014 7.18323 0.811809 6.67676 1.51419 6.67676C2.2826 6.67676 2.64521 7.0575 2.59775 7.70298L1.81548 7.70313ZM3.86262 8.40167H3.34214L3.75634 7.49927L3.86262 8.40167ZM2.93987 9.2569L3.09258 8.92569H3.91347L3.95298 9.2569H4.77402L4.31603 6.7425H3.4776L2.13269 9.2569H2.93987ZM14.1551 9.12616L13.9783 8.81396C13.8377 8.58848 13.6755 8.37715 13.4941 8.18292C13.3774 8.05859 13.2526 7.942 13.1207 7.83387L13.0957 7.81324C13.0337 7.76273 12.9699 7.71444 12.9045 7.66849C12.729 7.54454 12.5406 7.43996 12.3426 7.35658L12.0037 9.27798H12.8373L12.9934 8.39194H13.2477C13.6358 8.39194 13.6729 8.50146 13.6144 8.83341C13.5744 9.05953 13.5669 9.22182 13.5784 9.27798H14.2276C14.2045 9.22688 14.1803 9.17626 14.1551 9.12616Z" fill="white"/>
<path fill-rule="evenodd" clip-rule="evenodd" d="M13.6519 6.73853H12.4513L12.4084 6.98159C12.5567 7.05235 12.7032 7.13828 12.8445 7.23719C12.9521 7.31262 13.0554 7.39387 13.1541 7.48055L13.1806 7.33005H13.5687C13.7627 7.33005 13.8889 7.41466 13.8575 7.59435C13.8298 7.75001 13.7101 7.81752 13.5051 7.83093C13.6579 8.00302 13.7962 8.18752 13.9185 8.38251L14.0953 8.69486C14.1908 8.88204 14.27 9.07715 14.3318 9.27799H14.4213C14.4213 9.27799 14.3666 9.08769 14.425 8.75574C14.5154 8.24351 14.3643 8.17998 14.1135 8.08122C14.4241 8 14.5983 7.75295 14.6499 7.46051C14.737 6.96744 14.4987 6.73853 13.6519 6.73853ZM11.5214 7.27507C11.3451 7.28244 11.1852 7.32091 11.0431 7.38666C11.3059 7.45284 11.3584 7.77212 11.3049 8.07518C11.2311 8.4941 11.0355 8.80409 10.6764 8.80409C10.4461 8.80409 10.3406 8.66848 10.303 8.49144C10.2995 8.47883 10.2969 8.46597 10.2953 8.45297L10.2952 8.45032C10.2867 8.38974 10.2839 8.32849 10.2869 8.26739C10.2852 8.04938 10.3146 7.84847 10.3733 7.67056C10.4582 7.41334 10.6024 7.20771 10.7953 7.06561C10.9778 6.93118 11.2028 6.85453 11.4617 6.84377C11.4927 6.84244 11.5237 6.8423 11.5549 6.84289C11.4106 6.78569 11.239 6.75341 11.0381 6.75341C10.2485 6.75341 9.61655 7.27198 9.47607 8.0681C9.32395 8.93115 9.77014 9.4251 10.567 9.4251C11.3177 9.4251 11.9865 8.93822 12.1386 8.07533C12.1842 7.81722 12.1653 7.56162 12.0732 7.34479C11.8882 7.29306 11.7023 7.26756 11.5214 7.27507Z" fill="white"/>
<path fill-rule="evenodd" clip-rule="evenodd" d="M6.14275 8.42579C6.0857 8.43699 6.03042 8.44864 5.97485 8.46367L6.35604 9.25921H6.41603C6.43726 9.19921 6.45465 9.13951 6.46762 9.08055C6.49961 8.92431 6.50035 8.91473 6.47028 8.75671C6.46364 8.72664 6.48045 8.69672 6.50772 8.69008C6.52997 8.68463 6.55724 8.69642 6.5683 8.73666C6.59365 8.86092 6.59645 8.92888 6.59645 9.0412C6.59645 9.11372 6.59336 9.18624 6.58569 9.25921H7.12829L7.244 8.60238C6.80591 8.41311 6.47234 8.36019 6.14275 8.42579Z" fill="white"/>
<path fill-rule="evenodd" clip-rule="evenodd" d="M5.60551 8.50924L5.70029 7.89118L5.92965 8.3698C6.31393 8.25556 6.747 8.26602 7.21692 8.4009L7.27603 8.41873L7.57113 6.74512H6.78164L6.57115 8.117L5.91609 6.74526H5.14413L4.70074 9.25937H4.94426C5.00985 9.13143 5.08311 9.01601 5.15313 8.92654C5.2908 8.74553 5.4385 8.60844 5.60551 8.50924Z" fill="white"/>
<path fill-rule="evenodd" clip-rule="evenodd" d="M5.58437 8.64723C5.47057 8.72359 5.35972 8.82972 5.26258 8.9556C5.19036 9.04611 5.12344 9.15032 5.06506 9.25954H5.49032L5.58437 8.64723ZM7.68413 6.74146L7.56798 7.39991H8.30853L8.11425 8.5016C8.21817 8.47477 8.32651 8.43173 8.45063 8.371C8.46052 8.36653 8.47151 8.3651 8.48222 8.36688C8.49293 8.36867 8.50286 8.37359 8.51077 8.38102C8.51559 8.38542 8.51945 8.39077 8.52212 8.39673C8.52478 8.40269 8.52619 8.40913 8.52625 8.41566C8.5263 8.42111 8.5253 8.42651 8.5233 8.43158C8.44237 8.67067 8.31841 8.78314 8.09715 8.81925C8.08404 8.82205 8.07062 8.82412 8.05691 8.82588L7.98115 9.25571H8.80646L9.13384 7.39991H9.8744L9.99055 6.74146H7.68413Z" fill="white"/>
<path fill-rule="evenodd" clip-rule="evenodd" d="M5.60571 8.50907L5.58448 8.64719C5.58758 8.64498 5.59068 8.64262 5.59392 8.64056C5.70945 8.55967 5.83834 8.49979 5.97466 8.46367L5.92956 8.36963L5.92867 8.36978C5.8155 8.4022 5.70696 8.44902 5.60571 8.50907ZM7.40905 8.45822L7.27623 8.41857L7.24381 8.60253C7.27314 8.6152 7.30277 8.62847 7.33284 8.64218L7.52785 8.73003C7.74527 8.81272 7.91847 8.84382 8.05703 8.82584L8.11422 8.50141C7.89518 8.55772 7.69545 8.54047 7.40905 8.45822ZM5.35586 10.446C5.21642 10.4869 5.08611 10.4717 4.99973 10.4035C4.84378 10.2713 4.83641 10.0664 4.84069 9.98443C4.84334 9.78278 4.93193 9.50788 5.06518 9.25921H4.94475C4.78821 9.56463 4.67707 9.94213 4.76639 10.2126C4.82713 10.4026 4.92824 10.509 5.09407 10.558C5.4614 10.66 5.97805 10.3736 6.24633 10.0499C6.47112 9.77762 6.55823 9.51613 6.58565 9.25906H6.41614C6.23542 9.77305 5.77522 10.3002 5.35586 10.446Z" fill="white"/>
<path fill-rule="evenodd" clip-rule="evenodd" d="M6.94834 10.2342L6.97944 10.1515L7.01585 10.0725L7.16605 9.99219L7.3366 9.89859C7.3195 9.95022 7.29896 10.0006 7.27513 10.0495C7.23062 10.1338 7.20055 10.2109 7.17401 10.2789C7.10267 10.4617 7.05108 10.5939 6.78929 10.7266C6.76851 10.737 6.76364 10.7491 6.76364 10.7584C6.76364 10.7628 6.76482 10.7665 6.76585 10.769C6.77676 10.7941 6.81435 10.7879 6.83499 10.7804C6.93699 10.7409 7.25391 10.597 7.37139 10.4575C7.47413 10.3402 7.46956 10.2378 7.46484 10.1291L7.4644 10.0156L7.46676 9.9322C7.47236 9.82696 7.51201 9.79114 7.57215 9.73689C7.62094 9.69282 7.68167 9.63798 7.7399 9.52979C7.75536 9.50755 7.76155 9.48016 7.75714 9.45344C7.7544 9.4406 7.74912 9.42844 7.7416 9.41768C7.73408 9.40692 7.72448 9.39777 7.71336 9.39079C7.65263 9.35615 7.59264 9.4045 7.57451 9.42602C7.53235 9.48115 7.46808 9.58153 7.39659 9.74913L7.34176 9.77787L7.08469 9.90965C7.24654 9.52389 7.54208 9.16983 7.8932 8.95565L7.88597 8.9586C7.89402 8.957 7.90142 8.95307 7.90726 8.94731C7.91311 8.94155 7.91713 8.9342 7.91884 8.92617C7.92045 8.91933 7.92004 8.91216 7.91766 8.90554C7.91528 8.89892 7.91103 8.89314 7.90543 8.88888C7.89968 8.88461 7.88391 8.8762 7.86091 8.88903C7.49182 9.06149 7.18315 9.30367 6.86211 9.67336C6.74846 9.80263 6.61255 9.98556 6.56229 10.0683L6.5023 10.1007L6.25068 10.2415C5.95012 10.4245 5.53061 10.7186 5.35505 11.1561C5.30287 11.2824 5.27325 11.4328 5.26706 11.6027C5.27015 11.6416 5.29167 11.6571 5.31142 11.6565C5.33118 11.6559 5.35284 11.6385 5.35417 11.6014C5.37569 10.9323 6.05213 10.4652 6.48638 10.2335C6.43891 10.3303 6.3459 10.5162 6.2719 10.6362L6.22636 10.7084C5.88718 11.2473 5.59414 11.7128 5.04551 11.7711C4.8925 11.7899 4.64649 11.7506 4.4727 11.6797C4.4298 11.6577 4.32529 11.6039 4.34269 11.5485C4.35079 11.513 4.36259 11.5107 4.42037 11.5155L4.43555 11.5166C4.52193 11.5303 4.59165 11.4755 4.60683 11.38C4.61248 11.3529 4.61213 11.3249 4.60581 11.2979C4.5995 11.2709 4.58737 11.2457 4.57028 11.2239C4.53019 11.1717 4.47786 11.1512 4.41049 11.1608C4.30893 11.1753 4.24039 11.2591 4.21739 11.3359C4.19935 11.3917 4.19591 11.4512 4.20739 11.5087C4.21887 11.5663 4.2449 11.6199 4.28299 11.6645C4.45442 11.8568 4.89427 11.881 5.03504 11.8742C5.91416 11.8204 6.55787 11.2683 6.94834 10.2342ZM18.8684 10.9754C18.8608 10.9771 18.8538 10.9808 18.8482 10.9862C18.8425 10.9916 18.8385 10.9984 18.8364 11.0059C18.6936 11.4683 18.2813 11.7702 18.1006 11.8022C18.0788 11.8058 18.0402 11.8092 18.0245 11.7886C18.0113 11.7714 18.04 11.723 18.0735 11.6668L18.0962 11.629L19.9986 8.76521H19.5963L18.3681 10.6188C18.3558 10.5659 18.3238 10.4963 18.225 10.4547C18.0434 10.3889 17.7523 10.4925 17.4647 10.7248C17.2865 10.8691 17.1083 11.0666 16.9361 11.2579C16.6715 11.551 16.422 11.8277 16.2468 11.8201L16.2466 11.8165C16.2466 11.7949 16.2695 11.7336 16.3269 11.6568L17.2277 10.4232C17.53 10.203 17.7958 9.98394 17.9327 9.84258C18.2139 9.55735 18.5987 9.05663 18.5987 8.81061C18.5986 8.80437 18.5984 8.79812 18.5981 8.79189C18.5884 8.68134 18.5452 8.62886 18.4538 8.61589C18.2243 8.57418 17.6255 9.34554 17.6002 9.37841L16.7373 10.4876C16.1661 11.1632 15.4314 11.8038 15.3415 11.7815L15.3385 11.7778C15.3383 11.7768 15.3383 11.7758 15.3383 11.7747C15.3383 11.7481 15.3835 11.6856 15.4168 11.6391L16.2367 10.4698H15.835L15.6847 10.6442C15.6746 10.5909 15.6438 10.5164 15.5375 10.4764C15.3052 10.3897 14.9724 10.6052 14.7945 10.7417C14.6347 10.8641 14.5202 10.9997 14.4277 11.1086C14.306 11.2529 14.2254 11.348 14.1321 11.3154C14.065 11.2918 14.0505 11.2515 14.0356 11.2084C14.0356 11.2084 14.0317 11.1987 14.0281 11.189L14.0489 11.1674C14.1109 11.1083 14.163 11.0397 14.2035 10.9642C14.2458 10.8967 14.2594 10.8206 14.2683 10.7708L14.2758 10.7333C14.2781 10.7227 14.2795 10.709 14.2795 10.6935C14.2795 10.6305 14.2573 10.5391 14.1916 10.5175C14.0847 10.4745 14.03 10.5786 14.0122 10.6128C13.9989 10.6409 13.9832 10.6894 13.9538 10.7919C13.9385 10.8598 13.9158 10.9624 13.9133 11.1502L13.6602 11.3182L13.5687 11.3888L13.649 11.2597L13.7438 11.1038C13.819 10.9761 13.8604 10.8405 13.8604 10.7317C13.8604 10.6949 13.8555 10.6613 13.8456 10.6318C13.8175 10.5607 13.7792 10.5289 13.7083 10.517C13.6542 10.5111 13.5974 10.5223 13.5385 10.5507C13.4011 10.6246 13.2947 10.7475 13.1472 10.9176C13.0474 11.035 12.9437 11.149 12.8364 11.2596C12.5326 11.5697 12.1063 11.8114 11.989 11.805L11.9744 11.8011C11.9689 11.7928 11.9663 11.783 11.967 11.7731C11.967 11.7195 12.015 11.6251 12.033 11.59C12.0332 11.5895 12.0787 11.5093 12.0873 11.4942L12.3794 11.3434L12.4172 11.3228C12.6459 11.1978 12.9561 11.0286 12.9561 10.7106C12.9561 10.6986 12.9558 10.6862 12.9546 10.6736C12.9485 10.6019 12.9289 10.5024 12.832 10.4665C12.6021 10.3945 12.1147 10.8265 11.8889 11.0651C11.8654 11.0905 11.8419 11.1158 11.8184 11.1412C11.7012 11.2727 11.4664 11.5336 11.1306 11.7526L11.9755 10.4754H11.6038L11.4272 10.695L11.4275 10.6903C11.4282 10.6484 11.4189 10.6069 11.4005 10.5693C11.3747 10.5192 11.3324 10.4863 11.2749 10.4711C10.9585 10.3934 10.397 10.8527 10.091 11.3135C9.93311 11.5511 9.83715 11.6225 9.68046 11.6178L9.60809 11.6101C9.52708 11.5962 9.44454 11.5936 9.36281 11.6023C9.49149 11.5162 9.67221 11.3809 9.76095 11.1831L9.84526 11.0049C9.89538 10.9113 9.95788 10.8085 10.0401 10.7569L10.0633 10.7437L10.1424 10.7111L10.1536 10.7081C10.1928 10.6966 10.2601 10.6714 10.2801 10.6284L10.2807 10.5783C10.2802 10.5783 10.2534 10.534 10.2534 10.534C10.1986 10.4878 10.1233 10.5681 10.0911 10.6024C10.0674 10.6303 10.0152 10.6658 9.98249 10.662C9.96304 10.6598 9.94697 10.6459 9.92501 10.6265L9.84334 10.5669C9.7891 10.5276 9.74385 10.5183 9.68946 10.5165C9.46334 10.5091 9.35102 10.6604 9.14731 10.9341L8.87962 11.2793C8.68254 11.5172 8.33865 11.8131 8.22117 11.8191C8.22264 11.7951 8.24947 11.7271 8.29693 11.6561L9.26405 10.1806C9.28763 10.1812 9.52436 10.1851 9.52436 10.1851C9.56976 10.1851 9.6588 10.1249 9.6588 10.0859C9.65884 10.0808 9.65753 10.0756 9.655 10.0711C9.65247 10.0666 9.6488 10.0628 9.64435 10.0601L9.6215 10.0544H9.34129L9.8205 9.33183H9.50948C9.50948 9.33183 9.04869 10.0339 9.03498 10.0544H8.83894C8.79 10.0544 8.69655 10.1139 8.69655 10.1543C8.69655 10.1647 8.7017 10.1741 8.7107 10.1795L8.73266 10.1851C8.73281 10.1851 8.87579 10.1825 8.95332 10.1813L8.87608 10.2811C8.82995 10.3414 8.34926 10.8681 7.94803 11.2806C7.6373 11.6005 7.32599 11.8484 7.26835 11.8224C7.26673 11.8216 7.26644 11.8216 7.26644 11.8218C7.26561 11.8199 7.26521 11.8178 7.26526 11.8157C7.26526 11.7974 7.28206 11.746 7.34235 11.6559L8.11563 10.4994H7.72619L7.71955 10.5056C7.69317 10.5301 7.62522 10.6113 7.53913 10.7142L7.3425 10.946L7.32068 10.9708C6.70276 11.6789 6.39749 11.8073 6.25024 11.7902C6.21073 11.7856 6.19245 11.7889 6.18287 11.8023L6.17477 11.8137L6.18066 11.8299C6.19245 11.8545 6.25142 11.871 6.28768 11.8732C6.60135 11.8905 7.11461 11.363 7.40161 11.0357C7.26187 11.2619 7.10503 11.5343 7.10503 11.7205C7.10503 11.738 7.10636 11.7548 7.10945 11.7709C7.12169 11.8449 7.16959 11.8956 7.24801 11.9171C7.41178 11.9742 7.92209 11.458 8.01569 11.3541C8.18451 11.169 8.3563 10.9868 8.53101 10.8073L8.43446 10.9483C8.23635 11.2351 8.05593 11.5255 8.05593 11.7248C8.05593 11.7407 8.05711 11.7559 8.05932 11.7705C8.07789 11.8468 8.12418 11.8956 8.19758 11.9173C8.36061 11.972 8.75344 11.5805 8.95981 11.3406C9.05497 11.2291 9.14432 11.1128 9.22749 10.992C9.28528 10.9102 9.32684 10.8511 9.36134 10.8284C9.4486 10.7703 9.47793 10.7811 9.53085 10.8004L9.60175 10.8216C9.65835 10.8321 9.7039 10.8308 9.75947 10.8224C9.62091 10.9189 9.4539 11.0491 9.35338 11.2666L9.35352 11.2662C9.35352 11.2666 9.32316 11.319 9.32316 11.319L9.30901 11.3462C9.26287 11.4353 9.15556 11.6147 9.12136 11.6521L8.95966 11.7117L8.93062 11.724C8.88434 11.7425 8.80297 11.7752 8.80297 11.8374C8.80306 11.8469 8.80481 11.8562 8.80813 11.8651C8.81112 11.8762 8.81697 11.8863 8.82509 11.8945C8.83321 11.9026 8.84332 11.9085 8.85441 11.9115C8.90114 11.9245 8.96335 11.8885 9.00241 11.8536C9.05783 11.8076 9.12446 11.7604 9.13787 11.756C9.19742 11.738 9.22499 11.766 9.26641 11.8085C9.30326 11.8462 9.3491 11.8931 9.4287 11.9065C9.55355 11.923 9.81416 11.8757 10.1647 11.3757C10.1889 11.3415 10.2119 11.3104 10.2338 11.2818C10.1894 11.3997 10.1638 11.5246 10.1638 11.6328C10.1638 11.6744 10.1675 11.7136 10.1751 11.7488C10.1948 11.8449 10.2519 11.9101 10.332 11.9269C10.4561 11.9577 10.5767 11.8952 10.6883 11.8061L10.5226 12.0216C10.5217 12.0212 10.1474 12.2909 10.1474 12.2909L10.0717 12.3471C9.75535 12.5806 9.32198 12.9005 9.36885 13.1708C9.38212 13.2566 9.43518 13.2918 9.5108 13.3182C9.74753 13.3888 10.4352 12.6774 10.5699 12.4885C10.5827 12.4731 10.9103 12.0858 10.9826 11.983C11.2923 11.7844 11.5766 11.5488 11.8293 11.2815C11.7846 11.4101 11.7618 11.5194 11.7618 11.6126C11.7618 11.6673 11.7695 11.7165 11.7845 11.7613C11.8131 11.8504 11.8843 11.9043 11.9847 11.9121C12.144 11.9247 12.5715 11.6797 12.9051 11.3334L13.1757 11.0323C13.3815 10.7951 13.5595 10.5901 13.6798 10.6207H13.6804C13.6804 10.6212 13.681 10.6222 13.681 10.626C13.681 10.6387 13.6741 10.6754 13.6191 10.7652C13.6188 10.7652 12.8533 11.9226 12.8533 11.9226H13.2215L13.3137 11.7874C13.3968 11.6626 13.6508 11.4571 13.7115 11.4132L13.8302 11.3311L13.9419 11.2544L13.9434 11.2577C13.9705 11.3169 13.9957 11.3728 14.1017 11.4157C14.201 11.4558 14.3081 11.3738 14.3798 11.2998C14.3557 11.381 14.3303 11.4908 14.3303 11.5964C14.3303 11.6306 14.333 11.6645 14.3393 11.6965C14.3598 11.8067 14.4106 11.856 14.4919 11.9034C14.6441 11.9842 14.9193 11.7749 15.1304 11.5896C15.1273 11.6182 15.1223 11.6502 15.1223 11.6735C15.1223 11.8312 15.1888 11.8734 15.2591 11.9014L15.2678 11.9048C15.469 11.9715 15.9885 11.4642 16.3884 11.0273C16.2252 11.2708 16.0838 11.5158 16.0838 11.7077C16.0838 11.7293 16.0856 11.7504 16.0893 11.7706C16.1011 11.8425 16.1521 11.8947 16.2327 11.9168C16.3795 11.968 16.7452 11.6546 17.0388 11.3038C17.0141 11.3883 16.9936 11.4903 16.9936 11.5874C16.9936 11.6242 16.9965 11.6601 17.003 11.6935C17.0235 11.8064 17.0764 11.8564 17.161 11.9046C17.309 11.9826 17.5779 11.783 17.8056 11.5877C17.8019 11.6162 17.7998 11.6449 17.7993 11.6736C17.7993 11.8498 17.8833 11.8819 17.9376 11.9027L17.9466 11.9061C18.1374 11.969 18.7029 11.704 18.9243 11.0342C18.9268 11.0267 18.9273 11.0187 18.9257 11.011C18.9241 11.0033 18.9205 10.9962 18.9151 10.9904C18.9092 10.9842 18.9019 10.9795 18.8937 10.9769C18.8855 10.9743 18.8768 10.9738 18.8684 10.9754ZM17.2871 11.816C17.2583 11.8232 17.2289 11.8184 17.2151 11.8036C17.2004 11.7882 17.2051 11.7621 17.2112 11.743C17.2939 11.5087 17.4245 11.3399 17.5627 11.1611L17.6416 11.0585C17.7078 10.9798 17.8373 10.832 17.9194 10.7515C17.9641 10.7037 18.0478 10.6366 18.1112 10.6061L18.113 10.6052C18.1653 10.5741 18.2163 10.5721 18.2377 10.5862C18.2434 10.5898 18.2507 10.5967 18.2486 10.6131C18.2414 10.7339 18.1582 10.9727 17.8027 11.4326C17.6487 11.6206 17.3656 11.7936 17.2871 11.816ZM17.3466 10.208L17.9193 9.31768L17.9196 9.31738C18.035 9.13121 18.305 8.69564 18.466 8.7344C18.4666 8.7344 18.4706 8.73868 18.4706 8.73868C18.4735 8.74384 18.4757 8.75253 18.4757 8.76418C18.4753 8.77884 18.4727 8.79336 18.4679 8.80722C18.2745 9.2792 18.0502 9.6542 17.5303 10.0607L17.3466 10.208ZM14.6182 11.8137C14.5891 11.8212 14.56 11.8163 14.5463 11.8016C14.5315 11.7858 14.5359 11.7599 14.542 11.7407C14.6248 11.5127 14.7534 11.3477 14.889 11.173L14.9687 11.0694C15.0321 10.9891 15.1798 10.8346 15.243 10.7686C15.2862 10.7174 15.3744 10.653 15.4302 10.6243L15.4317 10.6235C15.4843 10.5914 15.5314 10.5905 15.5523 10.6032C15.5626 10.6094 15.5673 10.619 15.5667 10.633C15.5474 10.8928 15.229 11.302 15.1245 11.4365C14.9786 11.6198 14.6976 11.7905 14.6182 11.8137ZM12.6191 10.6689L12.6361 10.654C12.7198 10.5792 12.7737 10.5504 12.7958 10.5688C12.8062 10.5746 12.8103 10.5849 12.8103 10.5979C12.8103 10.6128 12.8051 10.6307 12.7991 10.6495C12.6462 11.1138 12.3955 11.2504 12.162 11.3501C12.2462 11.1975 12.4858 10.7755 12.6191 10.6689ZM11.3112 10.7765C11.2964 10.8349 11.2858 10.8688 11.2421 10.9596C11.1801 11.0817 11.111 11.1822 10.9468 11.3885C10.8208 11.5432 10.7298 11.6393 10.6429 11.7103C10.6016 11.7487 10.5531 11.777 10.4879 11.8109C10.4359 11.8352 10.3638 11.8372 10.3429 11.8263L10.3427 11.8262C10.3046 11.807 10.3195 11.7168 10.3827 11.585C10.5854 11.162 11.1526 10.5215 11.2752 10.5774C11.3402 10.6114 11.3273 10.7285 11.3112 10.7765ZM10.0118 12.5669L10.0787 12.5022C10.1979 12.3828 10.3346 12.2775 10.4293 12.2085C10.2915 12.4687 10.1219 12.7108 9.92442 12.9291C9.74797 13.1235 9.55768 13.255 9.50903 13.2158C9.50495 13.2125 9.50166 13.2084 9.49941 13.2037C9.49716 13.199 9.49602 13.1938 9.49606 13.1886L9.49592 13.1855C9.49577 13.0653 9.8059 12.7657 10.0118 12.5669Z" fill="white"/>
<path fill-rule="evenodd" clip-rule="evenodd" d="M8.09959 10.2829C8.21323 10.2869 8.33366 10.2238 8.37346 10.1389C8.39174 10.1005 8.391 10.0617 8.3714 10.0296C8.34678 9.98902 8.29519 9.96455 8.23033 9.96234C8.11654 9.95836 7.99626 10.0216 7.95631 10.1062C7.93803 10.1447 7.93877 10.1836 7.95837 10.2156C7.98314 10.2561 8.03458 10.2806 8.09959 10.2829Z" fill="white"/>
</g>
<defs>
<clipPath id="clip0_822_4841">
<rect width="20" height="20" fill="white"/>
</clipPath>
</defs>
</svg>
