<svg width="20" height="20" viewBox="0 0 20 20" fill="none" xmlns="http://www.w3.org/2000/svg">
<path d="M17.5392 11.4866L18.4724 14.1328L19.3864 11.4866H20L18.6066 15.3346C18.3957 15.929 18.1016 16.191 17.5775 16.191C17.373 16.191 17.1875 16.1591 16.9958 16.0632L17.1621 15.5902C17.3026 15.6541 17.4241 15.6861 17.5392 15.6861C17.814 15.6861 17.9227 15.5263 18.0696 15.1428L18.1591 14.9063L16.8936 11.4866H17.5392ZM15.3276 11.4227C16.1522 11.4227 16.7082 12.0043 16.7082 13.0974V13.3147H14.4775C14.5158 14.1009 14.8738 14.4333 15.3595 14.4333C15.7239 14.4333 15.9987 14.2543 16.2096 13.8708L16.6699 14.1393C16.3759 14.625 15.9924 14.8935 15.3468 14.8935C14.4647 14.8935 13.8638 14.3119 13.8638 13.1613C13.8638 12.03 14.4647 11.4227 15.3276 11.4227ZM7.03099 11.4162C7.77254 11.4162 8.18154 11.8382 8.18154 12.4774V14.1648C8.18155 14.3054 8.24548 14.3693 8.38612 14.3693C8.42441 14.3693 8.46282 14.3693 8.50112 14.363V14.804C8.4244 14.8232 8.34134 14.8424 8.25825 14.8424C7.91951 14.8424 7.70859 14.7273 7.61904 14.4844C7.3378 14.7209 6.98622 14.8871 6.65393 14.8871C5.94439 14.8871 5.61841 14.4524 5.61841 13.973C5.61841 13.4553 5.94438 13.0462 6.91596 12.8225L7.58075 12.6691V12.5221C7.58075 12.1898 7.45291 11.9085 6.96073 11.9085C6.64115 11.9085 6.30238 12.0939 6.00831 12.439L5.61841 12.1067C5.95716 11.6848 6.46854 11.4162 7.03099 11.4162ZM1.57883 10.2913C2.24362 10.2913 2.84441 10.5981 3.14482 11.2629L2.63993 11.5249C2.4354 11.084 2.05185 10.8155 1.57883 10.8155C1.1314 10.8155 0.767015 11.0136 0.767014 11.4802C0.767014 11.9212 1.20173 12.0747 1.76421 12.26C2.69737 12.5668 3.24069 12.8225 3.24069 13.6279C3.24069 14.4269 2.54406 14.8807 1.71308 14.8807C0.958784 14.8807 0.313246 14.5419 0 13.9219L0.498659 13.6279C0.728728 14.0945 1.16981 14.3565 1.71308 14.3565C2.19248 14.3565 2.60154 14.1521 2.60154 13.6727C2.60154 13.1805 2.13494 13.0207 1.52137 12.8289C0.671189 12.5605 0.13429 12.2665 0.134283 11.5249C0.134283 10.7388 0.792646 10.2913 1.57883 10.2913ZM4.60853 10.5661V11.4866H5.23491V11.9596H4.60853V14.0306C4.60853 14.2671 4.72356 14.3693 4.9792 14.3693C5.08154 14.3693 5.13269 14.3693 5.23491 14.3565V14.7976C5.09427 14.8232 4.97287 14.8424 4.8514 14.8424C4.25696 14.8424 3.99493 14.593 3.99493 14.1265V11.9596H3.44518V11.4866H3.99493V10.5661H4.60853ZM13.0521 10.3489V14.037C13.0521 14.2607 13.148 14.3502 13.3653 14.3502C13.4356 14.3502 13.506 14.3438 13.5826 14.331V14.7976C13.4676 14.8296 13.3462 14.8424 13.2311 14.8424C12.6877 14.8424 12.4385 14.5739 12.4385 14.1137V10.3489H13.0521ZM10.668 11.4162C11.2625 11.4162 11.646 11.7806 11.646 12.4709V14.8232H11.026V12.4454C11.026 12.0811 10.8087 11.8957 10.5083 11.8957C10.2141 11.8957 9.93296 12.0363 9.6708 12.3176V14.8232H9.0509V11.4866H9.6708V11.8317C9.97771 11.5377 10.3165 11.4162 10.668 11.4162ZM6.97989 13.2699C6.40461 13.417 6.22566 13.6407 6.22565 13.9539C6.22565 14.216 6.39827 14.4461 6.76252 14.4461C7.05014 14.4461 7.33143 14.2991 7.58075 14.0881V13.1229L6.97989 13.2699ZM15.3212 11.8893C14.8865 11.8893 14.5605 12.1769 14.4903 12.8672H16.1138C16.0626 12.1833 15.7494 11.8893 15.3212 11.8893ZM11.7009 4.88216C12.0716 4.88216 12.3338 5.01634 12.583 5.2209V4.94607H13.1902V8.32098C13.1902 9.14558 12.6342 9.65047 11.752 9.65047C11.2726 9.65047 10.7741 9.48431 10.5121 9.3117L10.7613 8.83232C11.0362 9.01126 11.3558 9.14557 11.7201 9.14557C12.3657 9.14557 12.5638 8.80035 12.5638 8.23144V7.9886C12.3146 8.1995 12.0525 8.34014 11.6882 8.34014C10.9787 8.34014 10.3332 7.86073 10.3331 6.61432C10.3331 5.37436 10.9787 4.88217 11.7009 4.88216ZM6.40209 4.88216C7.29062 4.88216 7.87224 5.50219 7.87224 6.62076C7.87224 7.73935 7.29062 8.35292 6.40209 8.35292C5.51369 8.35291 4.93196 7.73934 4.93196 6.62076C4.93196 5.50219 5.51369 4.88217 6.40209 4.88216ZM15.1845 4.87569C15.9259 4.87569 16.3351 5.29763 16.3351 5.93682V7.62423C16.3351 7.76485 16.399 7.82877 16.5396 7.82877C16.5779 7.82877 16.6162 7.82876 16.6546 7.82241V8.26341C16.5779 8.28265 16.4948 8.30182 16.4118 8.30182C16.0729 8.30182 15.862 8.18679 15.7726 7.9438C15.4913 8.18033 15.1397 8.34659 14.8074 8.34659C14.0979 8.34659 13.7719 7.91188 13.7719 7.43246C13.7719 6.91476 14.0979 6.50563 15.0695 6.28191L15.7342 6.12858V5.98159C15.7342 5.64919 15.6063 5.3679 15.1142 5.3679C14.7945 5.3679 14.4558 5.55329 14.1618 5.8984L13.7719 5.56611C14.1107 5.14419 14.6221 4.87569 15.1845 4.87569ZM1.28221 3.80835L2.26028 7.15763L3.24458 3.80835H4.28007V8.28266H3.65367V4.31966L2.47118 8.28266H2.01093L0.828446 4.30686L0.834803 8.28266H0.246814V3.80835H1.28221ZM10.0199 4.84372C10.1031 4.84372 10.1733 4.85654 10.2181 4.86933V5.43828C10.167 5.41903 10.0966 5.41264 10.0199 5.41264C9.7259 5.41264 9.43827 5.54684 9.12502 6.03268V8.28266H8.51145V4.94607H9.12502V5.48293C9.36151 5.06742 9.71311 4.84372 10.0199 4.84372ZM18.8215 4.87569C19.416 4.87569 19.7995 5.24008 19.7995 5.93037V8.28266H19.1795V5.90485C19.1795 5.5405 18.9621 5.35509 18.6617 5.35509C18.3677 5.35509 18.0864 5.49574 17.8244 5.77701V8.28266H17.2043V4.94607H17.8244V5.29116C18.1311 4.99717 18.4699 4.87569 18.8215 4.87569ZM15.1334 6.72935C14.5581 6.87644 14.3791 7.10015 14.3791 7.4133C14.3791 7.67542 14.5517 7.9055 14.916 7.90551C15.2037 7.90551 15.485 7.7585 15.7342 7.54758V6.58235L15.1334 6.72935ZM6.40209 5.3487C5.90353 5.34871 5.54565 5.74507 5.54565 6.62076C5.54565 7.49637 5.90353 7.88631 6.40209 7.88632C6.90711 7.88632 7.25867 7.49638 7.25867 6.62076C7.25867 5.74506 6.90711 5.3487 6.40209 5.3487ZM11.7777 5.35509C11.3302 5.35509 10.9467 5.70029 10.9467 6.62076C10.9467 7.53478 11.3302 7.8799 11.7777 7.8799C12.0844 7.87353 12.2953 7.76484 12.5638 7.53478V5.70663C12.2954 5.47022 12.0909 5.35509 11.7777 5.35509Z" fill="white"/>
</svg>
