<svg width="20" height="20" viewBox="0 0 20 20" fill="none" xmlns="http://www.w3.org/2000/svg">
<g clip-path="url(#clip0_822_4900)">
<path d="M19.9985 6.64429V11.6565H18.8581V6.64429H19.9985ZM18.4382 8.33589V11.6657H17.4245V11.3786C17.2962 11.5038 17.1497 11.5985 16.9878 11.6657C16.8245 11.7359 16.6474 11.7725 16.4581 11.7725C16.2199 11.7725 15.9985 11.7283 15.7955 11.6397C15.5924 11.5466 15.4153 11.4199 15.2657 11.2611C15.1146 11.1008 14.9955 10.9145 14.9069 10.7023C14.823 10.4855 14.7817 10.2519 14.7817 10.0031C14.7817 9.75421 14.823 9.52367 14.9069 9.31146C14.9955 9.09467 15.1146 8.90535 15.2657 8.74505C15.415 8.58596 15.5953 8.45918 15.7955 8.37253C15.9985 8.2794 16.2199 8.23207 16.4581 8.23207C16.6474 8.23207 16.8245 8.26719 16.9878 8.33894C17.1512 8.40612 17.2978 8.50077 17.4245 8.62596V8.33894H18.4382V8.33589ZM16.6413 10.7588C16.8489 10.7588 17.0184 10.6886 17.1512 10.5451C17.2886 10.4031 17.3573 10.2214 17.3573 10C17.3573 9.77864 17.2886 9.59543 17.1512 9.45497C17.0184 9.31299 16.8474 9.24123 16.6413 9.24123C16.4352 9.24123 16.2611 9.31146 16.1237 9.45497C15.9909 9.59696 15.9253 9.77864 15.9253 10C15.9253 10.2214 15.9924 10.4046 16.1237 10.5451C16.2611 10.687 16.4336 10.7588 16.6413 10.7588ZM13.1543 6.64429C13.455 6.64429 13.7115 6.68704 13.9237 6.771C14.1359 6.85497 14.3146 6.97253 14.4611 7.12368C14.6107 7.2794 14.7283 7.4565 14.8123 7.6565C14.8962 7.8565 14.9375 8.07177 14.9375 8.3023C14.9375 8.53284 14.8962 8.74811 14.8123 8.94811C14.7299 9.14626 14.6107 9.32704 14.4611 9.48093C14.3161 9.63208 14.1359 9.74963 13.9237 9.8336C13.7115 9.91757 13.455 9.96032 13.1543 9.96032H12.6046V11.6641H11.4443V6.64429H13.1543ZM12.9878 8.92826C13.1436 8.92826 13.2611 8.91299 13.3466 8.88093C13.4352 8.84581 13.5085 8.80001 13.5649 8.7481C13.684 8.63665 13.7436 8.48856 13.7436 8.3023C13.7436 8.11604 13.684 7.96795 13.5649 7.8565C13.5069 7.80306 13.4352 7.76032 13.3466 7.72978C13.2627 7.69467 13.1436 7.67635 12.9878 7.67635H12.6031V8.92826H12.9878ZM7.16953 8.33589H8.42907L9.28403 9.93284H9.29777L10.0596 8.33589H11.226L8.72678 13.3557H7.56648L8.70694 11.0596L7.16953 8.33589ZM6.9451 8.33589V11.6657H5.93136V11.3786C5.80312 11.5038 5.65655 11.5985 5.49472 11.6657C5.33136 11.7359 5.15426 11.7725 4.96495 11.7725C4.72678 11.7725 4.5054 11.7283 4.30235 11.6397C4.0993 11.5466 3.9222 11.4199 3.77258 11.2611C3.62296 11.1008 3.50235 10.9145 3.4138 10.7023C3.32983 10.4855 3.28861 10.2519 3.28861 10.0031C3.28861 9.75421 3.32983 9.52367 3.4138 9.31146C3.50235 9.09467 3.62143 8.90535 3.77258 8.74505C3.92156 8.58563 4.10194 8.45879 4.30235 8.37253C4.5054 8.2794 4.72678 8.23207 4.96495 8.23207C5.15426 8.23207 5.33136 8.26719 5.49472 8.33894C5.65808 8.40612 5.80464 8.50077 5.93136 8.62596V8.33894H6.9451V8.33589ZM5.14815 10.7588C5.35579 10.7588 5.52525 10.6886 5.6596 10.5451C5.79701 10.4031 5.86571 10.2214 5.86571 10C5.86571 9.77864 5.79701 9.59543 5.6596 9.45497C5.52678 9.31299 5.35579 9.24123 5.14815 9.24123C4.94052 9.24123 4.768 9.31146 4.6306 9.45497C4.49777 9.59696 4.43212 9.77864 4.43212 10C4.43212 10.2214 4.4993 10.4046 4.6306 10.5451C4.768 10.687 4.94052 10.7588 5.14815 10.7588ZM1.70846 6.64429C2.00922 6.64429 2.26571 6.68704 2.47792 6.771C2.69014 6.85497 2.86876 6.97253 3.01533 7.12368C3.16495 7.2794 3.2825 7.4565 3.36647 7.6565C3.45044 7.8565 3.49167 8.07177 3.49167 8.3023C3.49167 8.53284 3.45044 8.74811 3.36647 8.94811C3.28406 9.14626 3.16492 9.32704 3.01533 9.48093C2.87029 9.63208 2.69014 9.74963 2.47792 9.8336C2.26571 9.91757 2.00922 9.96032 1.70846 9.96032H1.15884V11.6641H-0.00146484V6.64429H1.70846ZM1.54357 8.92826C1.6993 8.92826 1.81686 8.91299 1.90235 8.88093C1.9909 8.84581 2.06418 8.80001 2.12067 8.7481C2.23976 8.63665 2.2993 8.48856 2.2993 8.3023C2.2993 8.11604 2.23976 7.96795 2.12067 7.8565C2.06266 7.80306 1.9909 7.76032 1.90235 7.72978C1.81838 7.69467 1.6993 7.67635 1.54357 7.67635H1.15884V8.92826H1.54357Z" fill="white"/>
</g>
<defs>
<clipPath id="clip0_822_4900">
<rect width="20" height="20" fill="white"/>
</clipPath>
</defs>
</svg>
