<svg width="24" height="24" viewBox="0 0 24 24" fill="none" xmlns="http://www.w3.org/2000/svg">
<path d="M8.0332 12.4307V14.5967H7.06836V12.4307H8.0332Z" fill="black"/>
<path d="M21.8506 11.4922C21.8909 11.4922 21.9346 11.5008 21.9346 11.5479C21.9344 11.6073 21.8907 11.6113 21.8418 11.6113H21.7715V11.4922H21.8506Z" fill="black"/>
<path fill-rule="evenodd" clip-rule="evenodd" d="M21.8418 11.3574C21.9927 11.3574 22.1122 11.4759 22.1123 11.6338C22.1123 11.7948 21.9927 11.9131 21.8418 11.9131C21.689 11.9129 21.5703 11.7947 21.5703 11.6338C21.5704 11.476 21.6891 11.3576 21.8418 11.3574ZM21.7129 11.4424V11.8271H21.7715V11.6602H21.8389L21.9404 11.8271H22.0059L21.8965 11.6582C21.9529 11.6511 21.9951 11.6206 21.9951 11.5518C21.995 11.476 21.9504 11.4425 21.8604 11.4424H21.7129Z" fill="black"/>
<path fill-rule="evenodd" clip-rule="evenodd" d="M18.1992 8.65527H22.0645V9.73828H24V17.0186H0V9.73828H1.93652V8.65527H5.80273L12.001 6L18.1992 8.65527ZM19.9004 11.3193C19.343 11.3193 18.9205 11.5215 18.6455 11.9209C18.4148 12.2489 18.389 12.7678 18.585 13.1553C18.8374 13.5932 19.2422 13.777 19.6338 13.9541C19.7952 14.0267 19.9628 14.1025 20.1191 14.1953L20.1201 14.1963C20.2969 14.3025 20.3879 14.4652 20.3506 14.6094C20.3118 14.7589 20.1399 14.8594 19.9238 14.8594C19.8945 14.8594 19.8649 14.8575 19.8359 14.8535L19.8252 14.8525C19.4094 14.7947 18.566 14.4799 18.5576 14.4766L18.5312 14.4668V15.4453L18.5449 15.4502C18.5664 15.4574 19.3747 15.7226 20.0928 15.7227C20.4881 15.7227 20.7875 15.643 20.9805 15.4863C20.9941 15.4757 21.428 15.1206 21.4473 14.5215C21.4526 14.3541 21.4143 14.1827 21.334 14.0127L21.3281 13.999C21.3238 13.9903 21.3188 13.9814 21.3145 13.9727L21.3076 13.96C21.1338 13.6114 20.7448 13.3201 20.1182 13.0693L20.0957 13.0605C19.9713 13.0117 19.5947 12.8638 19.5527 12.624C19.5414 12.5568 19.5687 12.4519 19.6436 12.3877C19.7225 12.3074 19.8433 12.2656 20.0029 12.2656C20.2583 12.2656 20.5486 12.3704 20.6992 12.4326C21.0111 12.5619 21.2855 12.6773 21.2969 12.6826L21.3252 12.6943V11.8018L21.3154 11.7959C21.2974 11.7843 20.7037 11.413 20.1045 11.3271C20.0351 11.3211 19.9664 11.3193 19.9004 11.3193ZM6.49121 11.4697C6.20311 11.4697 5.96973 11.7038 5.96973 11.9922V15.0352C5.96973 15.3233 6.20311 15.5576 6.49121 15.5576H8.61035C8.89857 15.5574 9.13184 15.3231 9.13184 15.0352V11.9922C9.13184 11.7039 8.89856 11.47 8.61035 11.4697H6.49121ZM9.75684 11.4697V15.0352C9.75689 15.3235 9.99089 15.5576 10.2793 15.5576H11.5781C11.7968 15.5575 11.9999 15.4062 12 15.1875C12.0001 15.4062 12.2041 15.5575 12.4229 15.5576H13.7227C14.0106 15.5574 14.2441 15.3234 14.2441 15.0352V11.4697H13.1455V14.6025H12.4824V11.4697H11.5176V14.6025H10.8555V11.4697H9.75684ZM14.8711 11.4697V15.5576H17.4824V14.6006H15.9736V13.9775H17.4824V13.0566H15.9736V12.4307H17.4824V11.4697H14.8711ZM2.73145 10.5908V15.5566H5.52539V14.6016H3.82812V10.5908H2.73145ZM21.8418 11.3008C21.6581 11.3009 21.503 11.4424 21.5029 11.6338C21.5029 11.8266 21.6581 11.9686 21.8418 11.9688C22.0237 11.9688 22.1797 11.8268 22.1797 11.6338C22.1796 11.4423 22.0236 11.3008 21.8418 11.3008ZM17.7246 10.5918V11.7686L18.4863 11.7695L18.6445 10.5918H17.7246Z" fill="black"/>
</svg>
