<svg width="24" height="24" viewBox="0 0 24 24" fill="none" xmlns="http://www.w3.org/2000/svg">
<path fill-rule="evenodd" clip-rule="evenodd" d="M22.6687 11.0153C22.9832 11.0153 23.2488 11.049 23.4639 11.1577C23.9837 11.4163 24 12.0469 24 12.2643V12.8245C24 13.1903 23.9804 13.4689 23.7213 13.7321C23.4134 14.0413 22.7192 13.9969 22.4698 13.9969L20.1526 14V11.0153H22.6687ZM20.573 13.651H22.377C22.7583 13.651 23.1314 13.6832 23.3498 13.5179C23.5405 13.3725 23.5388 13.1015 23.5388 12.8245V12.3087C23.5388 12.1679 23.5568 11.6398 23.2846 11.4806C23.1314 11.3857 22.9571 11.3628 22.6524 11.3628H20.573V13.651Z" fill="black"/>
<path d="M10.4878 11.0153C11.0549 11.0153 11.5779 11.0031 11.9283 11.251C12.1401 11.401 12.2102 11.6964 12.2102 11.8204V11.9811H11.7588V11.8204C11.7588 11.7056 11.7165 11.6245 11.6171 11.5556C11.4655 11.45 11.0972 11.3918 10.7599 11.3918H9.91256C9.73168 11.3918 9.19555 11.401 9.05867 11.5342C8.89245 11.6995 8.8843 12.0439 8.8843 12.1709V12.7097C8.8843 12.999 8.8843 13.3342 9.02281 13.4459C9.1874 13.5775 9.46931 13.6173 9.76426 13.6173H10.9489C11.2292 13.6173 11.5209 13.6143 11.6692 13.5117C11.7963 13.4214 11.8191 13.2255 11.8191 13.0326V12.852H10.2173V12.4847H12.2526V13.1077C12.2526 13.3434 12.2021 13.5362 12.0701 13.6923C11.767 14.052 11.1249 13.9969 10.9652 13.9969H9.95818C9.761 13.9969 9.01631 13.9877 8.77187 13.7597C8.51603 13.5148 8.48344 13.2791 8.48344 12.9515V12.0653C8.48344 11.8326 8.50625 11.4439 8.81423 11.2143C9.08637 11.0122 9.72841 11.0153 10.1374 11.0153H10.4878Z" fill="black"/>
<path fill-rule="evenodd" clip-rule="evenodd" d="M12.8555 11.2418C13.113 10.9969 13.8023 11.0153 14.2488 11.0153H14.9642C15.497 11.0153 16.0185 11.0306 16.245 11.1929C16.4601 11.3444 16.5383 11.7026 16.5383 11.9949V12.9179C16.5383 13.2913 16.4731 13.6617 16.2254 13.8377C15.9826 14.0092 15.295 13.9969 15.0668 13.9969H14.1901C13.6393 13.9969 13.0576 14.0031 12.8392 13.7643C12.6225 13.5301 12.6176 13.1719 12.6176 12.7816V12.1495C12.6176 11.8525 12.6339 11.45 12.8555 11.2418ZM14.2455 11.3628C13.931 11.3628 13.2857 11.3628 13.1668 11.5097C12.9908 11.7209 13.0136 12.0592 13.0136 12.402V12.8459C13.0136 13.0954 13.0413 13.3617 13.1554 13.4781C13.2662 13.599 13.4177 13.651 13.9506 13.651H15.1923C15.4726 13.651 15.7512 13.6388 15.9142 13.5485C16.1228 13.4337 16.1276 13.1076 16.1276 12.8153V12.1311C16.1276 11.8816 16.1325 11.6398 15.9631 11.4837C15.8311 11.3627 15.3813 11.3628 15.1988 11.3628H14.2455Z" fill="black"/>
<path fill-rule="evenodd" clip-rule="evenodd" d="M2.64313 11.0153C2.74579 11.0153 3.26888 11.023 3.4742 11.1577C3.73819 11.3367 3.83107 11.5786 3.82782 11.7362V11.9C3.82782 12.0316 3.82457 12.1617 3.69094 12.2964C3.58176 12.4082 3.46768 12.4755 3.43346 12.4816C3.44813 12.4816 3.63554 12.5551 3.73168 12.6393C3.88486 12.774 3.95167 12.9454 3.95167 13.1092V13.2607C3.95656 13.3832 3.9207 13.5975 3.75286 13.7658C3.52636 13.9939 3.07822 13.9969 2.93156 13.9969H0V11.0153H2.64313ZM0.967958 13.3082H2.75231C2.84031 13.3082 2.9055 13.2944 2.97883 13.25C3.05216 13.2117 3.07333 13.1719 3.07008 13.1107V13.048C3.07333 12.9577 3.02607 12.8612 2.93645 12.8291C2.88593 12.8092 2.82075 12.7939 2.75231 12.7939H0.967958V13.3082ZM0.966335 12.2168H2.62521C2.71158 12.2168 2.79632 12.2015 2.86476 12.1541C2.92342 12.1143 2.94461 12.0592 2.94135 11.9888V11.9413C2.94461 11.8633 2.89572 11.7775 2.82402 11.7393C2.77025 11.7102 2.69365 11.7056 2.62521 11.7056H0.966335V12.2168Z" fill="black"/>
<path d="M6.95981 11C7.19284 11 7.55133 11.023 7.75991 11.1959C8.0076 11.398 8.04182 11.6551 8.04182 11.9735C8.04508 12.2536 8.03857 12.4633 7.83977 12.6684C7.61978 12.8964 7.19609 12.8934 7.08039 12.8995L5.59425 12.999C5.4427 13.0097 5.29604 13.0296 5.26182 13.1934C5.23086 13.3372 5.31234 13.3143 5.39056 13.3143H8.08256V13.9969H4.34112V13.0587C4.34112 12.9102 4.39815 12.7357 4.53014 12.5918C4.68658 12.4265 5.06627 12.3913 5.42151 12.3638L6.82292 12.2505C6.9158 12.2413 7.01847 12.2245 7.05921 12.1755C7.09343 12.1281 7.11461 12.0408 7.11298 11.9459C7.11298 11.8525 7.10321 11.7714 7.02499 11.7194C6.96633 11.6781 6.86366 11.6658 6.761 11.6658H5.66268C5.53884 11.6658 5.43292 11.675 5.35144 11.7423C5.28626 11.7974 5.25856 11.8556 5.25856 11.9383V12.1357H4.35416V11.7071C4.35416 11.5587 4.40956 11.3505 4.57415 11.2127C4.81043 11.0122 5.48504 11 5.53558 11H6.95981Z" fill="black"/>
<path d="M17.4003 13.6495H19.8381V13.9969H16.9473V11.0153H17.4003V13.6495Z" fill="black"/>
</svg>
