<svg width="20" height="20" viewBox="0 0 20 20" fill="none" xmlns="http://www.w3.org/2000/svg">
<path fill-rule="evenodd" clip-rule="evenodd" d="M0.125 10C0.125 13.4513 2.92125 16.25 6.37125 16.25H13.6288C15.2858 16.2493 16.8747 15.5905 18.0461 14.4185C19.2175 13.2464 19.8753 11.6571 19.875 10C19.875 6.54875 17.0788 3.75 13.6288 3.75H6.37125C4.7142 3.75066 3.12525 4.40948 1.95389 5.58154C0.782528 6.75361 0.124669 8.34295 0.125 10ZM17.5138 10C17.5141 10.5311 17.4098 11.0571 17.2068 11.548C17.0038 12.0388 16.7061 12.4848 16.3307 12.8605C15.9553 13.2363 15.5095 13.5344 15.0189 13.7378C14.5283 13.9413 14.0024 14.0461 13.4713 14.0463H6.53375C6.0024 14.0464 5.47623 13.9419 4.98531 13.7386C4.49439 13.5353 4.04836 13.2372 3.67269 12.8614C3.29703 12.4856 2.99911 12.0395 2.79596 11.5485C2.59282 11.0576 2.48842 10.5313 2.48875 10C2.48859 9.46897 2.59302 8.9431 2.79608 8.45243C2.99915 7.96176 3.29687 7.51588 3.67225 7.14027C4.04763 6.76466 4.49332 6.46666 4.98387 6.26329C5.47442 6.05992 6.00022 5.95516 6.53125 5.955H13.47C14.0011 5.955 14.5271 6.05964 15.0178 6.26293C15.5085 6.46623 15.9543 6.7642 16.3298 7.13983C16.7053 7.51546 17.0032 7.96139 17.2063 8.45214C17.4094 8.94289 17.5139 9.46886 17.5138 10Z" fill="white"/>
</svg>
