<svg width="24" height="24" viewBox="0 0 24 24" fill="none" xmlns="http://www.w3.org/2000/svg">
<path d="M11.9985 1.1609C8.5415 1.1611 5.0157 1.9063 1.7028 3.5084C0.5331 6.3093 0 9.1929 0 12.0069C0 14.8129 0.5258 17.6641 1.6956 20.491C5.0248 22.101 8.5371 22.8391 11.9997 22.8391C15.4641 22.8391 18.9771 22.1011 22.3026 20.4911C23.4723 17.6637 24 14.8127 24 12.0068C24 9.1928 23.4655 6.3092 22.2966 3.5083C18.9843 1.9063 15.4594 1.161 11.9997 1.1608L11.9985 1.1609ZM11.9985 2.0769C15.417 2.0769 18.6951 2.8337 21.5713 4.1823C22.5425 6.612 23.0739 9.2494 23.0739 12.0069C23.0739 14.7577 22.546 17.3925 21.5779 19.8165C18.7 21.1671 15.4201 21.9238 11.9985 21.9238C8.5788 21.9238 5.2989 21.1671 2.421 19.8165C1.454 17.3925 0.9243 14.7579 0.9243 12.0069C0.9243 9.2495 1.4547 6.6122 2.4263 4.1823C5.3046 2.8336 8.5813 2.0769 11.9985 2.0769ZM11.9979 2.7639C8.87 2.7639 5.7586 3.4316 2.976 4.6878C2.0763 7.0276 1.6174 9.4874 1.6174 12.0068C1.6174 14.5203 2.0755 16.9748 2.9706 19.3134C5.7536 20.5714 8.8685 21.2361 11.9979 21.2361C15.1289 21.2361 18.2432 20.5714 21.0258 19.3134L21.0299 19.3104C20.425 18.3147 19.612 17.5101 19.6032 17.5025C19.5932 17.4975 19.4341 17.4481 19.4341 17.4481C17.7095 16.9181 16.579 16.5198 16.0793 16.2609C15.3917 15.9038 14.6693 15.0368 14.5898 14.9393C13.7837 14.8785 13.1169 14.8915 12.4753 14.9692L12.0666 15.0223C11.2873 15.1229 10.4826 15.2296 9.694 15.103C9.169 15.017 8.6594 14.8493 8.1191 14.6734C7.2867 14.4008 6.4341 14.121 5.4597 14.1225H5.421L5.4377 14.1572C5.6591 14.5878 6.5335 15.8941 7.6287 16.2532C7.8703 16.3112 8.0452 16.3755 8.121 16.4348C8.121 16.4374 8.5402 17.2904 8.6545 17.521C7.9731 17.2116 5.8655 16.1397 4.1651 14.0706V14.0676C4.1651 14.04 4.1211 13.6376 4.1119 13.5496C5.1245 13.1718 7.4046 12.9526 7.6615 12.9282L7.6801 12.9264L7.6884 12.9061C7.8245 11.7065 8.1085 10.7464 8.6408 9.6952C8.6561 9.6635 8.6653 9.6344 8.6653 9.6092C8.66497 9.59108 8.66045 9.57328 8.6521 9.5572C8.6223 9.5006 8.5495 9.4897 8.5464 9.4897L6.9946 9.219C6.93887 9.04806 6.88294 8.8772 6.8268 8.7064C7.9452 8.2904 9.3242 7.9009 10.1135 7.7295C10.2469 7.5165 10.2843 7.4009 10.2843 7.2617C10.2843 7.1436 10.2274 7.0427 10.1135 6.9654C9.554 6.586 7.792 6.8146 6.0095 7.4984C6.0055 7.4911 6.0058 7.4892 6.0005 7.4816C6.3706 7.2047 7.0322 6.7936 7.5228 6.5656L7.5419 6.5549L7.5359 6.5364C7.4029 6.0855 6.5321 5.7404 6.4342 5.7053C6.4362 5.69 6.4381 5.6801 6.4396 5.6683C7.3248 5.6078 7.9123 6.0219 8.0916 6.3171L8.1006 6.3314L8.1179 6.3261C8.2315 6.2894 8.6314 6.1622 9.0643 6.111L9.09 6.1098L9.0828 6.0835C8.9406 5.3252 8.217 4.8188 7.9703 4.6663C7.9773 4.654 7.9796 4.6493 7.9865 4.6406C8.8411 4.7067 9.6304 5.4429 9.8082 6.065L9.8129 6.0817L9.8309 6.0835C10.0603 6.0915 10.3383 6.1167 10.5245 6.148L10.5437 6.1516L10.5508 6.1355C10.6199 5.9718 10.6551 5.79578 10.6542 5.6181C10.6542 5.0579 10.3378 4.4575 9.9486 4.0778C9.9562 4.0671 9.9596 4.0571 9.9695 4.0479C11.0922 4.4739 11.3777 5.283 11.3777 6.0363C11.3777 6.5636 11.2379 7.066 11.1477 7.386L11.1101 7.5186L12.875 7.3053C12.7068 7.5183 12.3441 7.8975 11.6203 8.2971C11.6203 8.2933 10.8741 8.2021 10.8741 8.2021L10.8549 8.1991L10.8484 8.2183C10.7983 8.3723 10.3614 9.7518 10.359 10.7659C10.359 11.1419 10.4658 11.4335 10.6757 11.6346C11.0497 11.9945 11.669 12.0147 12.1019 11.9979C13.9423 11.9306 15.3784 12.0436 16.375 12.3385L16.4342 12.3546L16.4432 12.3409C16.5051 12.2456 16.5537 12.0689 16.5537 11.8348C16.5537 11.3905 16.3756 10.7281 15.7775 9.979C15.784 9.9737 15.7842 9.9698 15.7919 9.9641C15.8909 10.0188 17.5055 10.9357 17.7211 12.3199C17.6833 12.3345 16.9474 12.6349 16.9474 12.6349L16.9713 12.6587C17.6535 13.373 17.8889 14.2363 18.0778 14.9273C18.2281 15.4749 18.4076 15.8243 18.6454 16.0297C18.9211 16.2675 19.9654 16.7663 20.2789 16.9127C20.5396 17.2832 20.9881 17.977 21.3132 18.5146C22.0209 16.418 22.3813 14.2198 22.3802 12.0069C22.3802 9.4874 21.9202 7.0274 21.0216 4.6878C18.2398 3.4317 15.1256 2.7639 11.9979 2.7639Z" fill="black"/>
</svg>
