<svg width="20" height="20" viewBox="0 0 20 20" fill="none" xmlns="http://www.w3.org/2000/svg">
<path d="M19.9998 6.5L5.36818 12.73C4.15484 13.2433 3.13568 13.5008 2.31151 13.5008C1.37818 13.5008 0.700678 13.1742 0.280678 12.52C0.0165115 12.1 -0.0609885 11.5675 0.0473448 10.9217C0.155678 10.2758 0.444012 9.58833 0.910678 8.85667C1.29984 8.265 1.93734 7.4875 2.82484 6.52333C2.52382 6.99722 2.30307 7.51755 2.17151 8.06333C1.93818 9.05917 2.14818 9.79 2.80151 10.2567C3.11234 10.4742 3.53984 10.5833 4.08485 10.5833C4.51985 10.5833 5.00984 10.5133 5.55484 10.3733L19.9998 6.5Z" fill="white"/>
</svg>
