<svg width="20" height="20" viewBox="0 0 20 20" fill="none" xmlns="http://www.w3.org/2000/svg">
<path d="M17.7734 1.66675C17.9213 1.66675 18.0634 1.72589 18.168 1.83053C18.2726 1.93516 18.3318 2.07726 18.3318 2.22518L18.3257 5.27694C18.3257 5.42492 18.2666 5.56696 18.1619 5.67159C18.0573 5.77623 17.9152 5.83537 17.7673 5.83537H8.94041C8.53205 5.83537 8.12759 5.91594 7.75037 6.07234C7.37307 6.22883 7.0301 6.45841 6.74154 6.74751C6.45298 7.03661 6.2239 7.37962 6.06811 7.75721C5.91232 8.13484 5.83299 8.53962 5.83376 8.94812V17.7759C5.83371 17.849 5.81907 17.9217 5.79107 17.9893C5.76307 18.0568 5.72164 18.1179 5.66998 18.1696C5.61817 18.2214 5.55646 18.2627 5.48877 18.2907C5.42109 18.3188 5.34859 18.3334 5.27533 18.3334H2.22095C2.14781 18.3334 2.07508 18.3187 2.00751 18.2907C1.93996 18.2627 1.87889 18.2214 1.82717 18.1696C1.77545 18.1179 1.73411 18.0569 1.70608 17.9893C1.67809 17.9217 1.66344 17.849 1.66339 17.7759V7.89399C1.66339 6.24247 2.31986 4.65881 3.48766 3.49101C4.65545 2.32324 6.23913 1.66675 7.89063 1.66675H17.7734ZM13.6039 9.98222C13.9134 9.98237 14.1647 10.2328 14.1649 10.5424V13.5915C14.1649 13.9013 13.9136 14.1524 13.6039 14.1526H10.5547C10.2449 14.1526 9.99368 13.9014 9.99368 13.5915V10.5424C9.99391 10.2327 10.245 9.98222 10.5547 9.98222H13.6039Z" fill="white"/>
</svg>
