<svg width="20" height="20" viewBox="0 0 20 20" fill="none" xmlns="http://www.w3.org/2000/svg">
<path d="M12.6419 18.9834L18.3546 17.7476C18.3546 17.7476 16.2931 3.80396 16.2765 3.71133C16.2622 3.6195 16.1862 3.55933 16.1094 3.55933C16.0326 3.55933 14.5823 3.45167 14.5823 3.45167C14.5823 3.45167 13.5729 2.44308 13.4431 2.33463C13.4075 2.30533 13.3837 2.2895 13.3473 2.27604L12.6237 18.9834H12.6419ZM9.77057 8.94979C9.77057 8.94979 9.12932 8.61413 8.36615 8.61413C7.22061 8.61413 7.17548 9.33138 7.17548 9.51742C7.17548 10.4928 9.74048 10.8751 9.74048 13.182C9.74048 14.9989 8.60048 16.1587 7.04407 16.1587C5.18048 16.1587 4.24157 14.9989 4.24157 14.9989L4.75298 13.3475C4.75298 13.3475 5.73861 14.1914 6.55798 14.1914C7.09236 14.1914 7.32986 13.76 7.32986 13.4536C7.32986 12.1719 5.22878 12.1125 5.22878 10.0027C5.20186 8.23175 6.47248 6.50671 9.05015 6.50671C10.0453 6.50671 10.5345 6.7925 10.5345 6.7925L9.7864 8.94188L9.77057 8.94979ZM9.34307 0.657083C9.45073 0.657083 9.55761 0.687167 9.66369 0.763958C8.88469 1.13208 8.02969 2.0615 7.67819 3.92429C7.15886 4.09292 6.65457 4.24492 6.18273 4.38188C6.59361 2.96875 7.58636 0.665 9.34307 0.665V0.657083ZM10.3208 2.99171V3.09858C9.72386 3.28225 9.06757 3.48175 8.42553 3.68125C8.79444 2.27446 9.48082 1.58729 10.0762 1.32921C10.2289 1.72583 10.3208 2.26021 10.3208 2.99171ZM10.7475 1.22312C11.2969 1.28171 11.6508 1.9095 11.8788 2.6125C11.6025 2.70275 11.2969 2.79537 10.962 2.90225V2.70275C10.962 2.10742 10.886 1.61738 10.7475 1.22154V1.22312ZM13.1162 2.24358C13.1003 2.24358 13.0687 2.26021 13.0544 2.26021C13.0402 2.26021 12.8256 2.31958 12.4892 2.42646C12.1543 1.45033 11.5582 0.550208 10.5037 0.550208H10.4126C10.107 0.165458 9.73811 0 9.41828 0C6.95936 0 5.78453 3.06929 5.4164 4.62808C4.47115 4.91704 3.78319 5.13158 3.7064 5.16167C3.17203 5.33029 3.15698 5.34533 3.09523 5.85042C3.03586 6.21617 1.64648 16.9836 1.64648 16.9836L12.3823 19L13.1162 2.24358Z" fill="white"/>
</svg>
