<svg width="20" height="20" viewBox="0 0 20 20" fill="none" xmlns="http://www.w3.org/2000/svg">
<path d="M4.12204 1.85027C5.88848 1.78497 7.55953 2.09122 9.27016 2.60792C10.2494 2.9012 11.5329 3.39412 12.4708 3.84328C13.1433 4.16495 14.2053 4.75909 14.8016 5.14699C14.99 5.27037 16.0902 6.0721 16.2607 6.21307C16.6174 6.5023 17.0837 6.9186 17.4204 7.25148C18.0738 7.89437 18.8867 8.87915 19.2824 9.66033C19.3762 9.84859 19.4505 10.0329 19.5721 10.2495C19.6143 10.3234 19.796 10.7685 19.826 10.8973C19.8554 11.024 19.8984 11.2101 19.9049 11.218C19.914 11.2869 19.9967 11.6678 19.9904 11.8161C20.0294 12.1664 19.9379 12.8293 19.9228 12.9172C19.8938 13.1186 19.7406 13.5834 19.7161 13.6406C19.5923 13.9222 19.4707 14.1551 19.341 14.3853C19.1195 14.7807 18.5945 15.407 18.2814 15.6751C17.1206 16.6717 15.3223 17.2395 13.7794 17.4264C12.7335 17.5521 11.5311 17.5328 10.4217 17.3296C10.0455 17.2607 9.48811 17.1343 9.47361 17.131C9.47362 17.1329 9.47421 17.3568 9.4557 17.5152C9.44708 17.5863 9.39171 17.7773 9.3613 17.839C9.28014 18.0043 9.14856 18.0894 8.95684 18.1255C8.72453 18.1696 8.47775 18.183 8.26267 18.0929C7.91054 17.9447 7.78311 17.6166 7.72231 17.2409C7.67251 16.9388 7.62082 16.4148 7.62058 16.4124C7.62058 16.4124 7.35726 16.2887 7.13718 16.1797C6.46204 15.849 5.8201 15.4498 5.25974 15.0371C5.10458 14.9232 4.43745 14.3683 4.28887 14.229C3.87555 13.8412 3.50349 13.4527 3.22035 12.9554C3.00027 12.5671 2.93699 12.2209 3.10398 11.8096C3.3355 11.2362 4.16363 10.8036 4.73077 10.5571C5.14779 10.3747 6.44194 9.95511 6.98012 9.87762C7.23343 9.84162 7.62645 9.7727 7.6515 9.75636C7.66149 9.74915 7.6683 9.74214 7.6751 9.73358C7.68736 9.7146 7.70845 9.14823 7.7044 8.94093C7.69986 8.73643 7.85664 7.39517 7.90704 7.11151C7.93426 6.95698 8.05173 6.36597 8.17152 6.21144C8.24915 6.10716 8.38785 6.1148 8.5003 6.18458C9.11655 6.56463 9.30323 7.88468 9.3491 8.55682C9.37678 8.96589 9.3906 9.58221 9.3906 9.58221C9.3906 9.58221 10.0984 9.56199 10.534 9.57326C10.9563 9.58364 11.4222 9.65038 11.8613 9.71974C12.4235 9.80804 13.5192 10.0451 14.1473 10.3618C14.665 10.6218 15.1488 11.0611 15.3053 11.5256C15.4514 11.9513 15.4287 12.2448 15.2068 12.6291C14.9578 13.0633 14.4859 13.3852 14.0073 13.412C13.8644 13.4214 13.3283 13.3505 13.1634 13.224C13.0981 13.1727 13.1017 13.0814 13.1487 13.0197C13.1664 12.9972 13.4162 12.867 13.5646 12.7886C13.6384 12.7486 13.7004 12.7056 13.7575 12.6535C13.8808 12.545 13.9918 12.4267 13.9796 12.2889C13.9624 12.1087 13.7707 11.9971 13.5874 11.926C12.7296 11.5881 11.0174 11.3065 10.1889 11.2578C9.86495 11.2389 9.40443 11.2228 9.40443 11.2228L9.50209 15.7606C9.51202 15.7625 9.88729 15.8338 10.1832 15.8818C10.3566 15.9071 11.0858 15.9721 11.2794 15.9771C12.7564 16.0158 14.4049 15.8853 15.7602 15.2487C16.355 14.9708 16.9009 14.6253 17.3138 14.1574C17.8592 13.5361 18.1448 12.688 18.069 11.8023C17.9859 10.8327 17.2995 9.68454 16.7523 8.98488C15.3042 7.13556 12.8224 5.61573 10.6398 4.72462C8.41049 3.81509 6.20761 3.29103 3.84128 3.20363C3.23178 3.18202 1.90167 3.21264 1.23061 3.39731C1.13362 3.42386 1.03751 3.45651 0.948217 3.47544C0.87761 3.49251 0.767809 3.53858 0.736628 3.56251C0.720915 3.57681 0.703719 3.59381 0.702448 3.59507C0.704551 3.5962 0.745385 3.61783 0.783829 3.63494C0.855265 3.66596 1.15434 3.68357 1.30954 3.71144C1.44738 3.73755 1.59335 3.8112 1.64971 3.91245C1.70412 4.00788 1.71208 4.08343 1.64646 4.1631C1.49399 4.34826 0.920113 4.31578 0.668269 4.27703C0.405996 4.23468 0.0800167 4.15577 0.0196685 3.92873C-0.0492322 3.66161 0.0774159 3.39958 0.215795 3.15724C0.493485 2.67324 0.889865 2.42087 1.47231 2.26369C2.29817 2.03843 3.34155 1.88001 4.12204 1.85027ZM7.61977 11.2969C7.60266 11.2981 6.939 11.3447 6.48126 11.3954C5.89006 11.458 4.7798 11.6488 4.13995 11.8771C3.94709 11.9438 3.55631 12.1064 3.52227 12.3019C3.4878 12.5065 3.61381 12.6648 3.75583 12.8301C3.83787 12.9255 4.3004 13.367 4.42966 13.4746C4.97375 13.9247 6.07619 14.6211 6.88979 14.959C7.16476 15.0727 7.62058 15.2341 7.62953 15.2373C7.62909 15.2205 7.5951 13.924 7.60186 12.647C7.60456 11.9731 7.61952 11.3076 7.61977 11.2969Z" fill="white"/>
</svg>
