<svg width="20" height="20" viewBox="0 0 20 20" fill="none" xmlns="http://www.w3.org/2000/svg">
<path fill-rule="evenodd" clip-rule="evenodd" d="M10 0C4.4 0 0 4.4 0 10C0 12.9333 1.19999 15.6 3.06666 17.4667C3.73333 18.1333 4.93333 18.1333 5.73333 17.6C6.79999 16.6667 8.4 16.1333 10 16.1333C11.7333 16.1333 13.0667 16.6667 14.2667 17.6C15.0667 18.2667 16.1333 18.1333 16.9333 17.3333C18.8 15.4667 20 12.9333 20 10C19.8667 4.53333 15.4667 0 10 0ZM9.86666 15.2C6.79999 15.2 4.8 12.9333 4.8 10.1333C4.8 7.33333 6.79999 5.06667 9.86666 5.06667C12.9333 5.06667 14.9333 7.33333 14.9333 10.1333C14.9333 12.9333 12.9333 15.2 9.86666 15.2Z" fill="white"/>
</svg>
