<svg width="24" height="24" viewBox="0 0 24 24" fill="none" xmlns="http://www.w3.org/2000/svg">
<g clip-path="url(#clip0_1767_702)">
<path fill-rule="evenodd" clip-rule="evenodd" d="M16.7178 12.896C16.8406 12.9006 17.0433 12.8905 17.061 13.0546C17.0961 13.413 17.1113 13.7864 16.9948 14.1328C16.8645 14.1296 16.7361 14.1265 16.6066 14.1233C16.5979 16.0653 16.6092 18.0062 16.6011 19.9479C16.8447 19.9133 17.0976 19.8056 17.3421 19.8904C17.433 20.1641 17.3676 20.4571 17.3581 20.7377C17.3293 20.8517 17.3676 21.0237 17.2358 21.0834C17.0355 21.1668 16.8159 21.1849 16.6043 21.2249C16.6034 21.8158 16.6011 22.4076 16.6075 22.9994C16.1563 22.9931 15.7051 22.9946 15.2532 23C15.2413 22.4916 15.25 21.9833 15.2445 21.474C14.5552 21.5975 13.8694 21.7387 13.1827 21.8741C13.0183 21.8952 12.8426 21.9455 12.6829 21.8795C12.552 21.5369 12.5288 21.166 12.4466 20.8116C12.4753 20.7668 12.532 20.6771 12.5598 20.6325C12.6127 20.6254 12.7187 20.6096 12.7723 20.6017C12.7683 18.4659 12.7764 16.3308 12.7683 14.1948C12.4242 13.9725 12.5462 13.5293 12.5383 13.1883C12.5232 13.0335 12.6246 12.8811 12.7962 12.9023C14.1034 12.8912 15.4106 12.9037 16.7178 12.896ZM15.0241 18.9908C14.7924 18.9908 14.5618 18.9908 14.3302 18.9917C14.3293 19.4412 14.3255 19.8913 14.3365 20.3408C14.5714 20.3031 14.8061 20.2645 15.0416 20.227C15.0471 19.8152 15.0488 19.4026 15.0241 18.9908ZM15.0424 16.5806C14.8052 16.5814 14.568 16.5814 14.3319 16.5839C14.3285 16.9783 14.3285 17.372 14.3302 17.7664C14.5593 17.7681 14.7892 17.775 15.0177 17.7469C15.0695 17.3603 15.0392 16.9697 15.0424 16.5806ZM15.0369 14.1259C14.8037 14.1265 14.5697 14.1273 14.3365 14.1288C14.3261 14.5336 14.3285 14.9391 14.331 15.3446C14.568 15.3469 14.8046 15.3486 15.0424 15.3492C15.0456 14.9414 15.0464 14.5336 15.0369 14.1259Z" fill="black"/>
<path d="M17.4324 18.0093C19.5764 18.0227 21.7202 18.0022 23.8642 18.0202C23.8906 18.0533 23.9432 18.121 23.9704 18.1539C23.9568 18.4973 24.0192 18.8525 23.9281 19.1889C23.798 19.258 23.6455 19.2517 23.5033 19.2563C22.3456 19.2501 21.1876 19.2549 20.0299 19.2532C20.0067 19.4049 19.9835 19.5566 19.9603 19.7083C20.8474 19.6918 21.7346 19.7084 22.6209 19.6972C22.7982 19.7021 22.9826 19.687 23.1536 19.7427C23.3165 19.7892 23.2565 19.9801 23.2716 20.105C23.2399 20.6834 23.2199 21.2618 23.1728 21.8393C23.1409 22.2504 22.886 22.6471 22.4861 22.7965C21.7402 23.0817 20.9234 22.9671 20.1432 22.9914C19.8223 22.9748 19.4861 23.0409 19.1754 22.9489C19.0166 22.6496 18.9693 22.3039 18.8856 21.9793C18.8456 21.8621 18.8752 21.6564 19.0332 21.6595C19.5898 21.635 20.1479 21.6807 20.7062 21.6689C20.9608 21.6564 21.2411 21.7089 21.4736 21.5792C21.6914 21.4481 21.6731 21.1668 21.7251 20.9514C20.6406 20.9437 19.5564 20.9491 18.471 20.9506C18.3401 20.9468 18.1717 20.9546 18.1103 20.8108C18.1542 20.2842 18.3107 19.7727 18.4008 19.2524C17.9538 19.24 17.5018 19.2878 17.057 19.228C17.0346 19.2054 16.989 19.1597 16.9669 19.1377C16.9181 18.7911 16.9117 18.4305 16.9748 18.0864C17.1072 17.9936 17.279 18.0172 17.4324 18.0093Z" fill="black"/>
<path fill-rule="evenodd" clip-rule="evenodd" d="M4.99245 12.1642C5.45004 12.1171 5.91636 12.0976 6.37395 12.1487C6.52087 12.1384 6.5145 12.2971 6.52961 12.3993C6.54239 12.5643 6.53918 12.7309 6.54174 12.8975C7.93665 12.8966 9.33158 12.9029 10.7265 12.8943C10.887 12.9157 11.1234 12.8434 11.2209 13.01C11.272 13.343 11.2639 13.6887 11.2273 14.0236C11.1115 14.1759 10.8934 14.1336 10.7258 14.1485C9.32987 14.1376 7.93347 14.1564 6.53685 14.1384C6.536 14.3874 6.5328 14.6374 6.52812 14.8872C7.77611 14.896 9.02496 14.8888 10.2738 14.8911C10.273 17.1709 10.2753 19.4506 10.273 21.7301C10.61 21.7301 10.9486 21.7098 11.2848 21.7452C11.41 21.7475 11.473 21.8835 11.4669 21.9919C11.4811 22.277 11.4971 22.5679 11.4411 22.8491C11.3725 23.0025 11.1826 22.9703 11.0459 22.9803C7.412 22.9726 3.77811 22.982 0.144215 22.9757C0.111424 22.9443 0.0458377 22.8814 0.0130461 22.85C0.0490298 22.4899 -0.089172 22.0713 0.112899 21.7515C0.483399 21.705 0.858802 21.7387 1.23079 21.7295C1.22611 19.4498 1.23655 17.17 1.22526 14.8911C2.47325 14.888 3.7221 14.8983 4.9701 14.8857C4.96946 14.6334 4.96776 14.3819 4.96457 14.1305C3.66632 14.1659 2.36637 14.1328 1.06791 14.1485C0.816439 14.143 0.553672 14.1722 0.313272 14.0825C0.189558 13.7298 0.273461 13.3455 0.246419 12.9792C0.405264 12.9251 0.570501 12.8897 0.73978 12.8951C2.14683 12.9029 3.55452 12.8952 4.96222 12.9C4.96711 12.654 4.97584 12.4088 4.99245 12.1642ZM8.71834 21.0662C6.74276 21.0543 4.76653 21.0629 2.79031 21.0614C2.78946 21.2838 2.78883 21.5063 2.78628 21.7295C4.76505 21.7372 6.74361 21.7333 8.72302 21.731C8.71919 21.5095 8.71834 21.2877 8.71834 21.0662ZM2.79436 19.4041C2.79117 19.6289 2.78945 19.8536 2.78881 20.0784C4.76652 20.0776 6.74445 20.0767 8.72238 20.0784C8.71918 19.8552 8.71919 19.6321 8.72302 19.4095C6.7468 19.4081 4.77058 19.4183 2.79436 19.4041ZM2.79266 17.7532C2.78947 17.9779 2.78883 18.2019 2.78563 18.4273C4.76419 18.4242 6.74275 18.4353 8.72152 18.4219C8.71833 18.1987 8.71684 17.9762 8.71684 17.7547C6.74212 17.7564 4.76739 17.7593 2.79266 17.7532ZM8.72238 16.1399C6.74361 16.143 4.76505 16.1376 2.78628 16.143C2.78883 16.3528 2.79117 16.5625 2.79436 16.7731C4.76888 16.774 6.74361 16.774 8.71834 16.7725C8.71834 16.5619 8.71918 16.3505 8.72238 16.1399Z" fill="black"/>
<path fill-rule="evenodd" clip-rule="evenodd" d="M20.0578 12.1745C20.3979 12.1785 20.7428 12.1462 21.079 12.2068C21.2236 12.4182 21.1287 12.7003 21.1844 12.9391C21.1781 13.0538 21.3241 13.0923 21.4167 13.0946C21.9582 13.1254 22.5012 13.0697 23.0425 13.112C23.2118 13.1223 23.3779 13.2417 23.4043 13.4129C23.453 13.6763 23.4313 13.9458 23.4338 14.2113C23.4313 15.1552 23.4298 16.0982 23.4362 17.0411C23.4322 17.174 23.4362 17.31 23.4011 17.4404C23.3674 17.5692 23.2118 17.5401 23.1104 17.5552C21.3752 17.5581 19.6409 17.5495 17.9057 17.559C17.7533 17.5535 17.5912 17.5652 17.4507 17.4952C17.39 17.2966 17.4013 17.086 17.3996 16.8808C17.4092 15.7807 17.3972 14.6805 17.4036 13.5804C17.39 13.3935 17.4937 13.1914 17.6815 13.13C18.3394 13.0075 19.0396 13.2306 19.6792 13.0043C19.6792 12.7648 19.6496 12.5196 19.7016 12.283C19.775 12.1604 19.9364 12.1864 20.0578 12.1745ZM18.6429 15.8798C18.642 16.0887 18.6412 16.2976 18.6412 16.5076C18.9861 16.5147 19.3311 16.5139 19.676 16.5131C19.6745 16.3033 19.6737 16.0933 19.6713 15.8844C19.3287 15.8821 18.9853 15.8827 18.6429 15.8798ZM21.1668 15.8804C21.1638 16.091 21.1621 16.301 21.1612 16.5114C21.5053 16.5139 21.8503 16.5139 22.1946 16.5114C22.1993 16.3016 22.2001 16.0919 22.2018 15.8813C21.8569 15.8804 21.5119 15.8836 21.1668 15.8804ZM22.2018 14.3365C21.8552 14.3325 21.5085 14.3325 21.1629 14.3339C21.1621 14.5408 21.1621 14.748 21.1629 14.9548C21.5085 14.9548 21.856 14.9571 22.2025 14.9557C22.201 14.7489 22.2001 14.5431 22.2018 14.3365ZM19.676 14.3411C19.3302 14.3308 18.9853 14.3316 18.6397 14.3371C18.642 14.5288 18.6429 14.7206 18.6476 14.9123C18.9902 14.9077 19.3328 14.9068 19.6754 14.9068C19.6754 14.7183 19.6754 14.5297 19.676 14.3411Z" fill="black"/>
<path fill-rule="evenodd" clip-rule="evenodd" d="M8.59846 2.08451C9.41314 1.92588 10.2947 1.97617 11.0404 2.35882C11.9425 2.8169 12.5558 3.73641 12.7212 4.7123C12.8426 5.42813 12.8154 6.17625 12.5967 6.87112C12.2947 7.81725 11.5529 8.64541 10.5891 8.96833C9.91841 9.19947 9.1806 9.22064 8.48836 9.08003C7.34172 8.85915 6.39482 7.93501 6.08799 6.8357C5.85568 5.99958 5.87485 5.09265 6.14804 4.26827C6.50492 3.18718 7.45119 2.29511 8.59846 2.08451ZM10.4663 3.62242C10.0389 3.27896 9.44485 3.21294 8.9204 3.33553C8.15129 3.50925 7.66986 4.25423 7.55722 4.98431C7.42712 5.76699 7.51739 6.63684 8.02694 7.27975C8.66637 8.11335 10.1277 8.09134 10.7506 7.25061C11.1888 6.68712 11.2631 5.93672 11.2088 5.25065C11.1641 4.64881 10.9526 4.01847 10.4663 3.62242Z" fill="black"/>
<path d="M21.665 2.01137C22.3438 1.97051 23.0274 2.05308 23.6774 2.2488C23.6934 2.68425 23.6949 3.12034 23.6774 3.55558C23.1504 3.39611 22.6337 3.15638 22.0683 3.17523C21.6476 3.17838 21.1261 3.23748 20.8921 3.63332C20.7022 3.93361 20.8714 4.31939 21.1533 4.4971C21.8752 4.99457 22.7997 5.16263 23.4417 5.78102C24.0158 6.30993 24.1316 7.19152 23.8601 7.89583C23.6853 8.3648 23.2724 8.71371 22.811 8.90084C22.1156 9.19002 21.3401 9.1892 20.5999 9.13974C20.1496 9.08463 19.6754 9.01715 19.2832 8.77658C19.2329 8.34218 19.2344 7.89647 19.2864 7.46207C19.4556 7.42267 19.5921 7.55155 19.7352 7.61839C20.2759 7.94131 20.933 8.04356 21.5566 7.97273C21.8694 7.93187 22.2225 7.81076 22.3653 7.50838C22.5204 7.2018 22.3438 6.83633 22.0828 6.64774C21.3593 6.12134 20.3859 5.9956 19.7608 5.32524C19.0413 4.62428 19.0436 3.31668 19.8255 2.66203C20.3284 2.22763 21.0071 2.04218 21.665 2.01137Z" fill="black"/>
<path d="M15.5941 2.06251C16.4254 1.93616 17.2837 2.00677 18.088 2.24796C18.0927 2.67482 18.1365 3.10692 18.0639 3.53043C17.7805 3.51555 17.5346 3.35062 17.2622 3.28378C16.7919 3.15888 16.2817 3.12808 15.8098 3.26094C15.5128 3.34664 15.2134 3.58637 15.2228 3.91704C15.2134 4.20245 15.4329 4.42396 15.6612 4.56541C16.356 4.9975 17.1992 5.18463 17.8139 5.7433C18.6659 6.49623 18.6022 8.0419 17.6374 8.67768C16.8877 9.17746 15.9376 9.19778 15.0663 9.14435C14.5961 9.09259 14.1002 9.02657 13.6931 8.77511C13.6435 8.34134 13.6466 7.89729 13.6954 7.46352C13.8455 7.42496 13.9692 7.53581 14.0955 7.59637C14.6487 7.93354 15.3243 8.04503 15.9655 7.97273C16.2761 7.92642 16.6322 7.81159 16.775 7.50899C16.9309 7.20347 16.7552 6.83717 16.494 6.64774C15.7787 6.13475 14.8333 5.99791 14.2007 5.35982C13.4765 4.68884 13.4439 3.42522 14.1545 2.7337C14.5369 2.35483 15.068 2.15535 15.5941 2.06251Z" fill="black"/>
<path fill-rule="evenodd" clip-rule="evenodd" d="M0.00984378 2.15135C0.543451 2.08995 1.08153 2.1262 1.61727 2.11824C2.3504 2.12536 3.10886 2.06167 3.81238 2.31334C4.24847 2.46171 4.65006 2.77206 4.8104 3.20918C5.02695 3.7339 4.87767 4.3659 4.47992 4.76657C4.22844 5.0392 3.8835 5.19952 3.54004 5.32923C4.02084 5.3944 4.50143 5.583 4.81763 5.95957C5.21539 6.39711 5.25116 7.04233 5.10509 7.58696C4.93985 8.18879 4.43053 8.65714 3.83964 8.85601C3.21192 9.0972 2.52607 9.04147 1.86641 9.04608C1.27957 9.03287 0.690367 9.06975 0.104166 9.03517C-0.0108038 8.96748 0.0219786 8.82541 0.00984378 8.71687C0.0130378 6.5283 0.0147412 4.33992 0.00984378 2.15135ZM1.51122 6.04674C1.49823 6.67917 1.50719 7.31266 1.50548 7.94592C1.97734 7.93419 2.46218 7.99871 2.92531 7.87843C3.35415 7.77009 3.65992 7.33695 3.61989 6.90485C3.5888 6.49224 3.2511 6.10876 2.82545 6.06475C2.38873 6.03018 1.94944 6.06162 1.51122 6.04674ZM2.86463 3.31752C2.43429 3.14694 1.95348 3.24753 1.50228 3.22238C1.50782 3.79048 1.50081 4.35795 1.50868 4.92605C2.04612 4.90803 2.71047 5.04234 3.11759 4.60312C3.49128 4.22509 3.35011 3.53294 2.86463 3.31752Z" fill="black"/>
</g>
<defs>
<clipPath id="clip0_1767_702">
<rect width="24" height="24" fill="white"/>
</clipPath>
</defs>
</svg>
