<svg width="20" height="20" viewBox="0 0 20 20" fill="none" xmlns="http://www.w3.org/2000/svg">
<path d="M6.81736 9.23986C7.30786 9.23988 7.63232 9.44073 7.80613 9.80378L7.28462 10.0741C7.18807 9.87332 7.0336 9.78066 6.82893 9.78065C6.56628 9.78065 6.34998 9.98539 6.34998 10.3253C6.35 10.6652 6.53925 10.8737 6.83279 10.8737C7.06064 10.8736 7.2035 10.7655 7.29619 10.5956L7.80613 10.8582C7.62845 11.2406 7.25371 11.4183 6.80952 11.4183C6.17612 11.4183 5.72039 11.0282 5.72036 10.3253C5.72036 9.603 6.23799 9.23986 6.81736 9.23986ZM13.7273 9.236C14.3376 9.236 14.859 9.65321 14.859 10.3253C14.859 10.9935 14.3375 11.4183 13.7273 11.4183C13.117 11.4183 12.5956 10.9973 12.5956 10.3253C12.5956 9.65708 13.1132 9.23601 13.7273 9.236ZM16.1529 9.23986C16.6434 9.23986 16.9679 9.44073 17.1417 9.80378L16.6203 10.0741C16.5237 9.8733 16.3692 9.78065 16.1645 9.78065C15.9019 9.78067 15.6855 9.98541 15.6855 10.3253C15.6855 10.6651 15.8748 10.8736 16.1683 10.8737C16.3962 10.8737 16.5392 10.7656 16.6319 10.5956L17.1417 10.8582C16.964 11.2406 16.5894 11.4183 16.1452 11.4183C15.5118 11.4183 15.0561 11.0282 15.056 10.3253C15.056 9.60301 15.5736 9.23987 16.1529 9.23986ZM4.42258 9.24371C5.02123 9.24372 5.38432 9.52955 5.38435 10.0703V10.7925C5.38435 10.8659 5.42679 10.9085 5.50788 10.9085C5.55037 10.9085 5.58908 10.9008 5.61611 10.8931V11.3295C5.50024 11.3797 5.36114 11.399 5.24141 11.3952C5.06761 11.3952 4.88998 11.3411 4.80885 11.1364C4.67367 11.2909 4.41481 11.4106 4.12513 11.4106C3.70026 11.4106 3.42597 11.1943 3.42597 10.781C3.42599 10.3793 3.75438 10.1359 4.26035 10.1359C4.46119 10.1359 4.62727 10.1669 4.75859 10.1978V10.1321C4.75858 9.90422 4.62726 9.76522 4.34918 9.76522C4.16766 9.76522 3.98227 9.84242 3.84323 9.96601L3.49166 9.57202C3.70023 9.38662 4.03247 9.24371 4.42258 9.24371ZM19.7914 10.978C19.9227 10.978 20 11.0591 20 11.1827C20 11.3063 19.9227 11.3875 19.7914 11.3875C19.6601 11.3874 19.5829 11.3063 19.5829 11.1827C19.5829 11.0591 19.6601 10.9781 19.7914 10.978ZM1.25922 8.58711C1.9158 8.58326 2.20928 8.91929 2.2093 9.32483C2.2093 9.55656 2.11278 9.75354 1.83857 9.90418C2.12826 10.0123 2.29041 10.2519 2.29041 10.5648C2.29038 11.036 1.97367 11.3643 1.31321 11.3682H0V8.58711H1.25922ZM8.59012 8.58711V10.1282L9.32026 9.3094H10.0309L9.33183 10.0703L10.0773 11.3642V11.3682H9.36268L8.89143 10.5454L8.59012 10.8659V11.3682H7.96064V8.58711H8.59012ZM17.9181 8.58711V10.1282L18.6558 9.3094H19.3588L18.6597 10.0703L19.4052 11.3642V11.3682H18.6906L18.2194 10.5454L17.9181 10.8659V11.3682H17.2885V8.58711H17.9181ZM3.17878 11.3642H2.54544V8.58325H3.17878V11.3642ZM11.4214 8.58325C12.0587 8.58327 12.5029 8.8884 12.5029 9.48705C12.5029 9.86944 12.3136 10.1398 11.9775 10.3059L12.5879 11.3642H11.8309L11.3016 10.4295H10.8961V11.3642H10.2433V8.58325H11.4214ZM19.7914 11.005C19.6871 11.005 19.6176 11.0668 19.6176 11.1827C19.6137 11.3024 19.6871 11.3603 19.7914 11.3603C19.8957 11.3603 19.9652 11.2986 19.9652 11.1827C19.9652 11.0668 19.8918 11.005 19.7914 11.005ZM19.7952 11.0784C19.8454 11.0784 19.8725 11.1055 19.8725 11.1441C19.8725 11.1789 19.8571 11.1982 19.8301 11.2098L19.8686 11.2831H19.8301L19.7952 11.2175H19.749V11.2831H19.7103V11.0784H19.7952ZM19.749 11.1827H19.7914C19.8184 11.1827 19.8339 11.175 19.8339 11.148C19.8339 11.1248 19.8223 11.1131 19.7952 11.1131H19.749V11.1827ZM4.40715 10.4952C4.18699 10.4952 4.07885 10.6034 4.07885 10.7501C4.07886 10.8892 4.17535 10.9896 4.37232 10.9896C4.58089 10.9896 4.76245 10.866 4.76245 10.6767V10.5415C4.66204 10.5183 4.54232 10.4952 4.40715 10.4952ZM13.7234 9.78065C13.4492 9.78065 13.2136 9.96994 13.2136 10.3253C13.2136 10.6767 13.4492 10.8737 13.7234 10.8737C13.9976 10.8737 14.2332 10.6767 14.2332 10.3253C14.2332 9.96994 13.9977 9.78065 13.7234 9.78065ZM0.660462 10.2209V10.8235H1.2321C1.46771 10.8235 1.59524 10.7038 1.59524 10.5222C1.59524 10.3368 1.45999 10.2209 1.2321 10.2209H0.660462ZM10.8999 9.87718H11.3866C11.6879 9.87718 11.8347 9.70718 11.8347 9.50633C11.8347 9.26689 11.6956 9.13561 11.3866 9.13561H10.8999V9.87718ZM0.660462 9.12404V9.70339H1.18582C1.41755 9.70338 1.53727 9.59519 1.53727 9.40594C1.53725 9.2167 1.39823 9.12405 1.18582 9.12404H0.660462Z" fill="white"/>
</svg>
