<svg width="20" height="20" viewBox="0 0 20 20" fill="none" xmlns="http://www.w3.org/2000/svg">
<path d="M1.08563 5.49389C1.24894 4.87442 1.6847 4.51673 2.22447 4.21094C4.50666 2.91799 6.78021 1.6099 9.04514 0.28668C9.70132 -0.0961519 10.3048 -0.0952189 10.9611 0.287435C13.284 1.64196 15.6146 2.98333 17.9529 4.31155C18.6116 4.6859 18.9172 5.20009 18.9117 5.96482C18.8923 8.66224 18.8919 11.3598 18.9105 14.0574C18.9148 14.7985 18.6144 15.3022 17.9751 15.6662C15.6137 17.0107 13.2584 18.3658 10.9092 19.7317C10.2924 20.0896 9.71188 20.0895 9.09448 19.7309C6.80998 18.404 4.51957 17.0873 2.22324 15.7809C1.68288 15.4747 1.24842 15.1153 1.08563 14.4955V5.49389ZM17.928 10.0012C17.928 8.62364 17.9259 7.24604 17.9299 5.86846C17.9307 5.60235 17.8549 5.3944 17.611 5.25431C15.1801 3.85811 12.7503 2.45984 10.3218 1.05951C10.2262 0.99805 10.115 0.965449 10.0013 0.965609C9.88769 0.965769 9.77651 0.998683 9.68111 1.06041C7.2608 2.45611 4.83914 3.84949 2.41614 5.24054C2.31043 5.29356 2.22236 5.3761 2.1626 5.47815C2.10284 5.58021 2.07395 5.69741 2.07945 5.81554C2.08155 8.59903 2.08144 11.3825 2.07913 14.166C2.07341 14.2887 2.10356 14.4105 2.1659 14.5164C2.22825 14.6223 2.32008 14.7077 2.43019 14.7623C4.8289 16.1389 7.22576 17.5187 9.62077 18.9016C9.73483 18.9768 9.86852 19.0166 10.0051 19.0163C10.1417 19.0159 10.2752 18.9752 10.3888 18.8994C12.7662 17.5238 15.1466 16.1534 17.5301 14.7882C17.6606 14.7237 17.7688 14.6214 17.8405 14.4947C17.9123 14.3679 17.9443 14.2225 17.9324 14.0774C17.9222 12.7187 17.9281 11.3599 17.928 10.0012Z" fill="white"/>
<path d="M3.93323 10.7995C4.23249 10.9715 4.52015 11.128 4.7958 11.3032C4.82317 11.3317 4.84454 11.3654 4.85865 11.4023C4.87277 11.4392 4.87935 11.4785 4.87799 11.518C4.88696 11.829 4.86226 12.1423 4.89152 12.4509C4.89967 12.5206 4.92199 12.588 4.9571 12.6488C4.99221 12.7096 5.03938 12.7627 5.09571 12.8046C6.66756 13.7243 8.24891 14.628 9.82501 15.5405C9.89148 15.584 9.96958 15.6062 10.049 15.6043C10.1284 15.6023 10.2053 15.5763 10.2695 15.5296C11.8076 14.6266 13.3481 13.7279 14.8911 12.8334C14.9678 12.7976 15.0318 12.7393 15.0744 12.6662C15.1171 12.5931 15.1364 12.5087 15.1298 12.4243C15.1199 12.1039 15.1186 11.7826 15.1301 11.4623C15.1375 11.369 15.1156 11.2757 15.0675 11.1954C15.0193 11.1151 14.9474 11.0518 14.8616 11.0143C13.3149 10.1261 11.7752 9.22606 10.2285 8.33803C10.0619 8.2424 9.97916 8.14498 9.99324 7.94465C10.0122 7.67394 9.99795 7.4009 9.99795 7.08594C10.1089 7.14247 10.191 7.17956 10.2685 7.22441C11.9755 8.21233 13.6796 9.20521 15.39 10.1871C15.8804 10.4686 16.1257 10.8692 16.1142 11.4337C16.1067 11.8014 16.118 12.1695 16.1109 12.5373C16.1156 12.756 16.0604 12.9719 15.9514 13.1616C15.8423 13.3513 15.6835 13.5076 15.4922 13.6137C13.8879 14.553 12.2822 15.4899 10.6751 16.4243C10.4854 16.5433 10.2662 16.6068 10.0423 16.6075C9.81843 16.6081 9.59883 16.546 9.40849 16.4281C7.77936 15.4942 6.15159 14.5578 4.52517 13.6192C4.2245 13.446 3.96748 13.195 3.94588 12.8565C3.90307 12.1854 3.93323 11.5096 3.93323 10.7995Z" fill="white"/>
<path d="M16.1127 8.68357C15.7836 8.49384 15.4958 8.33686 15.2199 8.16123C15.1916 8.13318 15.1692 8.09974 15.1541 8.06289C15.1389 8.02604 15.1313 7.98652 15.1316 7.94668C15.1206 7.69243 15.1262 7.43745 15.1263 7.18275C15.131 7.06909 15.103 6.95645 15.0456 6.85827C14.9881 6.76008 14.9036 6.68049 14.8022 6.62898C13.3038 5.77036 11.8071 4.90884 10.3121 4.04441C10.2093 3.97701 10.089 3.94117 9.96603 3.94132C9.84308 3.94147 9.72286 3.9776 9.6202 4.04526C8.15531 4.90525 6.68835 5.76173 5.21934 6.61471C5.10971 6.66991 5.0189 6.75636 4.95838 6.86314C4.89786 6.96993 4.87034 7.09226 4.87931 7.21467C4.90161 8.50781 4.71554 8.2357 5.84612 8.89552C7.15832 9.66135 8.47339 10.4223 9.79133 11.1783C9.93837 11.2627 10.0124 11.3504 10.0023 11.5287C9.98623 11.8103 9.99798 12.0934 9.99798 12.4265C9.87828 12.362 9.79007 12.3175 9.70469 12.2681C8.07951 11.3271 6.46033 10.3757 4.82698 9.44901C4.17406 9.07857 3.85542 8.55666 3.89457 7.80943C3.90789 7.55537 3.89375 7.29994 3.90458 7.04568C3.90747 6.79827 3.97547 6.55597 4.10173 6.34318C4.22799 6.13039 4.40807 5.9546 4.62384 5.8335C6.15152 4.93144 7.68378 4.03712 9.22062 3.15055C9.44857 3.01156 9.7107 2.93873 9.97768 2.94021C10.2447 2.94169 10.506 3.01742 10.7324 3.15894C12.2643 4.03498 13.794 4.91475 15.3217 5.79826C15.5686 5.9315 15.7734 6.13106 15.9131 6.37445C16.0527 6.61783 16.1216 6.89538 16.112 7.17582C16.1155 7.65665 16.1127 8.1375 16.1127 8.68357Z" fill="white"/>
</svg>
