<svg width="20" height="20" viewBox="0 0 20 20" fill="none" xmlns="http://www.w3.org/2000/svg">
<path d="M6.45327 2.97004C4.85727 2.97004 3.52305 3.39649 2.53927 4.27471C1.20083 5.47382 0.499939 7.47937 0.499939 10.0507C0.499939 13.5256 1.18816 17.0343 6.03527 17.0343H14.5895C17.8279 17.0343 19.4999 15.434 19.4999 13.0105C19.4999 11.1274 18.3937 10.1394 16.6499 8.93182L14.7457 7.61026C13.5213 6.7616 13.1708 6.13249 13.1708 5.32182C13.1708 4.30004 13.8464 3.64138 15.1806 3.64138C16.5528 3.64138 17.5197 4.49426 18.2459 6.78271H18.9299V2.96582H15.227C13.9308 2.96582 12.643 3.25715 11.7522 4.18182C11.2202 4.73493 10.8655 5.50338 10.8655 6.53782C10.8655 7.30204 10.9879 7.85938 11.2919 8.42938C11.807 9.3836 12.6473 9.98737 13.0104 10.2365L14.5008 11.2667C15.7168 12.1069 16.8779 12.8543 16.8779 14.2265C16.8779 15.5945 15.911 16.3587 14.3826 16.3587C11.5326 16.3587 10.6755 13.8887 10.6755 10.7727V9.63693H6.13238V10.2956C7.34416 10.4856 7.96061 10.8276 7.96061 12.1196V13.7367C7.96061 15.396 7.53838 16.3587 6.09438 16.3587C5.45261 16.3587 5.03038 16.1476 4.70105 15.7338C4.11416 14.9907 3.87349 13.3314 3.87349 10.0507C3.87349 8.37449 3.98327 7.04449 4.19438 6.0396C4.54061 4.39293 5.20349 3.59915 6.27172 3.59915C7.54261 3.59915 8.21816 4.57449 8.97816 6.78271L9.66216 6.78693V2.97004H6.45327Z" fill="white" fill-opacity="0.95"/>
</svg>
