<svg width="20" height="20" viewBox="0 0 20 20" fill="none" xmlns="http://www.w3.org/2000/svg">
<path fill-rule="evenodd" clip-rule="evenodd" d="M2.99207 9.94723C3.71258 10.6389 4.40427 11.2193 4.40427 12.4363C4.40427 13.7633 3.74009 14.6764 2.21655 14.6764C1.13578 14.6764 0.111351 14.2336 0.0275103 12.5188L0 11.8834L1.46853 11.7996L1.49604 12.1874C1.55106 12.9616 1.82878 13.2105 2.21655 13.2105C2.54798 13.2105 2.71435 13.0166 2.71435 12.6026C2.71435 12.0485 2.10519 11.5507 1.49604 11.0529C0.609157 10.2787 0.111351 9.61449 0.111351 8.45381C0.111351 7.26432 0.803039 6.32373 2.24406 6.32373C3.35233 6.32373 4.21039 6.82154 4.29423 8.45381L4.32174 8.89529L2.90823 8.97913V8.59137C2.90823 8.09356 2.74186 7.73462 2.29908 7.73462C2.05017 7.73462 1.80127 7.89968 1.80127 8.31495C1.77245 8.92411 2.10519 9.14419 2.99207 9.94723ZM18.1712 14.5663L17.4507 11.3018H17.3132V14.5663H15.4844V6.4901H17.8385C19.1131 6.4901 19.9437 7.29183 19.9437 8.81276C19.9437 9.72584 19.6122 10.4725 19.0581 10.8878L20 14.5663H18.1712ZM17.3118 10.2512H17.4782C17.7835 10.2512 18.1149 10.0848 18.1149 9.06166C18.1149 8.01103 17.8385 7.84466 17.5332 7.84466H17.3118V10.2512ZM10.0819 6.4901H12.4085C14.0434 6.4901 14.8739 7.78964 14.8739 10.5276C14.8739 13.2655 14.0434 14.5663 12.4085 14.5663H10.0819V6.4901ZM12.1871 7.84466H11.9107V13.238H12.1871C12.7137 13.238 13.0189 12.7677 13.0189 10.5276C13.0189 8.28744 12.7137 7.84466 12.1871 7.84466ZM6.86972 11.7996V14.5663H5.04094V6.4901H7.42254C8.7247 6.4901 9.55656 7.26432 9.55656 9.1455C9.55656 10.9704 8.7247 11.7996 7.28499 11.7996H6.86972ZM7.14613 7.84466H6.89723V10.4725H7.14613C7.42385 10.4725 7.72778 10.2787 7.72778 9.1455C7.72778 8.03854 7.42385 7.84466 7.14613 7.84466Z" fill="white"/>
</svg>
