<svg width="24" height="24" viewBox="0 0 24 24" fill="none" xmlns="http://www.w3.org/2000/svg">
<path d="M8.77347 7.54488C8.88759 7.54488 8.97737 7.57123 8.97737 7.64714C8.97736 7.98489 8.05072 7.59602 7.32645 9.40716L4.55867 16.297C4.49477 16.4535 4.44456 16.5433 4.31675 16.5433C4.19046 16.5433 4.13872 16.4535 4.07634 16.297L0.888613 8.44969C0.55843 7.63475 3.95626e-06 7.97094 0 7.68588C0 7.60841 0.0502124 7.54488 0.152159 7.54488C0.824701 7.54488 1.49877 7.56968 2.17131 7.56968C2.8195 7.56968 3.46618 7.54488 4.11438 7.54488C4.30457 7.54488 4.39283 7.56968 4.39283 7.67348C4.39281 7.91982 3.61834 7.77729 3.61833 8.397C3.61833 8.64335 3.82223 9.17322 5.39707 13.22H5.42141C6.52609 10.3631 6.94605 9.50942 6.94605 8.91448C6.94605 7.62235 5.85356 8.02362 5.85355 7.68588C5.85355 7.58362 5.90377 7.54488 6.06962 7.54488C6.51392 7.54488 7.0343 7.57122 7.36448 7.57122C7.94877 7.57122 8.34286 7.54488 8.77347 7.54488Z" fill="black"/>
<path fill-rule="evenodd" clip-rule="evenodd" d="M10.8048 10.3616C12.2016 10.3616 12.6961 10.9425 12.6961 11.9899V15.4696C12.6961 15.6246 12.7737 15.7144 12.9122 15.7144C13.2561 15.7144 13.3063 15.2497 13.4965 15.2497C13.5604 15.2497 13.6106 15.3132 13.6106 15.3659C13.6106 15.4945 13.18 16.438 11.8212 16.438C10.995 16.438 10.6268 16.1281 10.4746 15.6106C9.7899 16.1668 9.19192 16.438 8.55742 16.438C7.49078 16.438 7.05865 15.8182 7.05865 15.262C7.05865 14.2534 7.79509 13.9436 10.3864 13.0124V11.2028C10.3864 10.7876 10.2585 10.6714 10.0044 10.6714C9.59818 10.6714 9.29385 10.8914 9.29385 11.2803C9.29386 11.5778 9.34406 11.9 9.34406 12.2099C9.34406 12.7924 8.9515 13.2061 8.26527 13.2061C7.56686 13.2061 7.28689 12.8962 7.28689 12.4175C7.2869 11.3825 9.15387 10.3616 10.8048 10.3616ZM10.3864 13.2836C9.59817 13.6074 9.36993 13.9823 9.36993 14.5649C9.36994 15.417 9.56014 15.637 9.89032 15.637C10.1064 15.637 10.2722 15.4821 10.3864 15.3659V13.2836Z" fill="black"/>
<path d="M18.7155 10.3616C19.9861 10.3616 20.3284 11.1641 20.3284 12.2889V15.5719C20.3284 15.9097 20.5369 15.998 20.7316 16.0476C21.2688 16.0847 21.9535 15.9035 22.3826 15.6865C22.8451 15.4542 23.1236 15.3116 23.3853 14.9894C23.5831 14.7446 23.682 14.5044 23.7429 14.3247C23.7703 14.2457 23.8828 14.2674 23.8828 14.3495L23.8752 16.314C23.8752 16.3156 23.8752 16.3233 23.8707 16.3326C23.8646 16.3466 23.8494 16.3574 23.8311 16.3574L17.6748 16.3605C17.5591 16.3605 17.5348 16.297 17.5348 16.2319C17.5348 15.9608 18.1693 16.2056 18.1693 15.5719V11.9388C18.1693 11.3702 17.8771 11.1641 17.5728 11.1641C17.2426 11.1641 16.8866 11.4089 16.6203 11.6676V15.5719C16.6203 16.2056 17.2548 15.9608 17.2548 16.2319C17.2548 16.297 17.2305 16.3605 17.1163 16.3605C16.7344 16.3605 16.1882 16.3357 15.5415 16.3357C14.8933 16.3357 14.3471 16.3605 13.8647 16.3605C13.7506 16.3605 13.7247 16.297 13.7247 16.2319C13.7247 15.9608 14.4612 16.2056 14.4612 15.5719V11.8737C14.4612 10.9952 13.6243 11.1501 13.6243 10.9054C13.6243 10.6977 14.4231 10.9302 16.6203 10.3616V11.254C17.5089 10.5552 18.0171 10.3616 18.7155 10.3616Z" fill="black"/>
<path d="M22.5545 10.013C22.623 10.013 22.6686 10.0331 22.6686 10.1415V13.3641C22.6686 13.4726 22.623 13.4927 22.5545 13.4927C22.4282 13.4927 22.4282 13.3455 22.4054 13.1875C22.3004 12.4872 21.7526 11.9821 21.0268 11.8396C21.0055 11.8365 20.9903 11.821 20.9888 11.804C20.9781 11.728 20.9736 11.6909 20.9644 11.5948C20.9629 11.57 20.9766 11.5468 21.004 11.5421C21.7587 11.4104 22.3171 10.9069 22.4054 10.3182C22.4282 10.1601 22.4282 10.013 22.5545 10.013Z" fill="black"/>
<path d="M23.9391 7.54333C23.9574 7.54333 23.9711 7.55263 23.9787 7.56812C23.9833 7.57586 23.9833 7.58362 23.9833 7.58517L24 9.5497C24 9.63337 23.8874 9.65351 23.86 9.57604C23.7976 9.39633 23.6987 9.15618 23.4994 8.91294C23.2377 8.59068 22.9562 8.45124 22.4936 8.22039C21.9976 7.9725 21.1851 7.87644 20.5962 7.8563C20.5308 7.85475 20.4775 7.90743 20.4775 7.97404V10.061C20.4775 10.1648 20.3543 10.219 20.2812 10.1446C19.8978 9.74802 19.3759 9.50322 18.8007 9.50322C18.5512 9.50322 18.3123 9.54971 18.0917 9.63337C18.0171 9.66126 17.938 9.60393 17.938 9.52336V8.52561C17.938 7.62081 16.8714 8.11194 16.8714 7.69827C16.8714 7.58207 16.9216 7.54334 17.0616 7.54333C17.5576 7.54333 18.2804 7.56812 19.2085 7.56812C20.8305 7.56812 22.3917 7.55573 23.9391 7.54333Z" fill="black"/>
</svg>
