<svg width="24" height="24" viewBox="0 0 24 24" fill="none" xmlns="http://www.w3.org/2000/svg">
<path d="M8.7 15.0984C10.35 15.0984 11.7 16.4262 11.7 18.0492C11.7 19.6721 10.35 21 8.7 21C7.05 21 5.7 19.6721 5.7 18.0492C5.7 16.4262 7.05 15.0984 8.7 15.0984Z" fill="black"/>
<path d="M14.85 15.0984C16.5 15.0984 17.85 16.4262 17.85 18.0492C17.85 19.6721 16.5 21 14.85 21C13.2 21 11.85 19.6721 11.85 18.0492C11.85 16.4262 13.2 15.0984 14.85 15.0984Z" fill="black"/>
<path d="M21 15.0984C22.65 15.0984 24 16.4262 24 18.0492C24 19.6721 22.65 21 21 21C19.35 21 18 19.6721 18 18.0492C18 16.4262 19.35 15.0984 21 15.0984Z" fill="black"/>
<path d="M8.7 9.04918C10.35 9.04918 11.7 10.377 11.7 12C11.7 13.623 10.35 14.9508 8.7 14.9508C7.05 14.9508 5.7 13.623 5.7 12C5.7 10.377 7.05 9.04918 8.7 9.04918Z" fill="black"/>
<path d="M14.85 9.04918C16.5 9.04918 17.85 10.377 17.85 12C17.85 13.623 16.5 14.9508 14.85 14.9508C13.2 14.9508 11.85 13.623 11.85 12C11.85 10.377 13.2 9.04918 14.85 9.04918Z" fill="black"/>
<path d="M21 9.04918C22.65 9.04918 24 10.377 24 12C24 13.623 22.65 14.9508 21 14.9508C19.35 14.9508 18 13.623 18 12C18 10.377 19.35 9.04918 21 9.04918Z" fill="black"/>
<path d="M3 3C4.65 3 6 4.32787 6 5.95082C6 7.57377 4.65 8.90164 3 8.90164C1.35 8.90164 0 7.57377 0 5.95082C0 4.32787 1.35 3 3 3Z" fill="black"/>
<path d="M14.85 3C16.5 3 17.85 4.32787 17.85 5.95082C17.85 7.57377 16.5 8.90164 14.85 8.90164C13.2 8.90164 11.85 7.57377 11.85 5.95082C11.85 4.32787 13.2 3 14.85 3Z" fill="black"/>
<path d="M21 3C22.65 3 24 4.32787 24 5.95082C24 7.57377 22.65 8.90164 21 8.90164C19.35 8.90164 18 7.57377 18 5.95082C18 4.32787 19.35 3 21 3Z" fill="black"/>
</svg>
