<svg width="24" height="24" viewBox="0 0 24 24" fill="none" xmlns="http://www.w3.org/2000/svg">
<g clip-path="url(#clip0_1696_901)">
<path d="M-0.00146484 10.4303V9.54023H1.09087V10.4303H-0.00146484ZM-0.00146484 14.4355V10.8187H1.09087V14.4355H-0.00146484ZM19.4987 12.9143H17.0389C17.0875 13.2946 17.3626 13.594 17.9047 13.594C18.2365 13.6021 18.552 13.4726 18.7786 13.2299L19.434 13.9177C19.0941 14.306 18.5601 14.5407 17.9047 14.5407C16.6506 14.5407 15.9062 13.8044 15.9062 12.6069C15.9062 11.5064 16.6182 10.7054 17.751 10.7054C18.8838 10.7054 19.5392 11.4093 19.5392 12.4531C19.5473 12.6069 19.5311 12.7606 19.4987 12.9143ZM18.4468 12.2185C18.4226 11.8463 18.1798 11.5793 17.7591 11.5793C17.3383 11.5793 17.0956 11.8463 17.0389 12.2185H18.4468ZM21.3678 14.5245C20.8257 14.5245 20.1622 14.3789 19.6767 13.9015L20.2998 13.2137C20.591 13.4888 20.9713 13.6426 21.3678 13.6506C21.7481 13.6506 21.918 13.5455 21.918 13.3917C21.918 13.2704 21.8371 13.2056 21.6267 13.1409C21.4406 13.0842 21.1574 13.0357 20.9147 12.9629C20.3888 12.8091 19.8628 12.5826 19.8628 11.822C19.8628 11.118 20.4211 10.6892 21.3597 10.6892C21.8776 10.6892 22.4602 10.7944 22.9537 11.2394L22.3226 11.911C22.0475 11.6359 21.6591 11.5388 21.3516 11.5388C21.0684 11.5388 20.9147 11.644 20.9147 11.7815C20.9147 11.8948 20.9956 11.9676 21.2141 12.0405C21.4002 12.0971 21.7077 12.1618 21.9423 12.2266C22.444 12.3722 22.9699 12.5907 22.9699 13.3108C22.9699 14.1361 22.2983 14.5245 21.3678 14.5245ZM4.48924 10.9562C4.21413 10.6245 3.80147 10.4465 3.37263 10.4546C2.91142 10.4546 2.66868 10.6245 2.66868 10.8672C2.66868 11.1909 3.0328 11.3042 3.73674 11.5064C4.50542 11.7249 5.37929 11.9757 5.37929 13.0114C5.37929 14.0471 4.5297 14.5245 3.46973 14.5245C2.57159 14.5245 1.84337 14.2656 1.36598 13.6102L2.1832 12.9224C2.49877 13.3513 2.96806 13.5212 3.45355 13.5212C4.02803 13.5212 4.23841 13.3189 4.23841 13.1004C4.23841 12.7768 3.90666 12.704 3.09753 12.4693C2.27221 12.2347 1.55208 11.911 1.55208 10.9077C1.55208 10.0338 2.25602 9.45932 3.41309 9.45932C4.14131 9.45932 4.81289 9.65351 5.29838 10.2765L4.48924 10.9562ZM15.5016 10.7458C15.712 10.7378 15.9142 10.8268 16.0518 10.9805L15.6149 11.9272C15.5097 11.8463 15.3721 11.7977 15.2346 11.8058C14.9514 11.8058 14.7167 12.0486 14.7167 12.5017V14.4355H13.6082V10.8187H14.6924V11.3203C14.8866 10.9724 15.1375 10.7458 15.5016 10.7458ZM9.10941 11.9919V14.4274H8.01707V12.3884C8.01707 12 7.81479 11.7573 7.44259 11.7573C7.07038 11.7573 6.82764 11.9919 6.82764 12.4046V14.4355H5.7434V9.54023H6.83573V11.2961C7.09466 10.94 7.49923 10.7297 7.92807 10.7378C8.59965 10.7458 9.10941 11.1909 9.10941 11.9919ZM13.2522 13.594V14.3627C13.0499 14.4436 12.8314 14.4841 12.613 14.4841C12.3136 14.4841 12.0061 14.387 11.8686 14.0309C11.6339 14.306 11.1889 14.5083 10.6872 14.5083C9.959 14.5083 9.48161 14.128 9.48161 13.3998C9.48161 12.6878 10.048 12.267 10.9138 12.267C11.2051 12.267 11.4883 12.3075 11.7715 12.3722V12.2508C11.7715 11.8463 11.5449 11.6035 11.0675 11.6035C10.7439 11.6116 10.4364 11.7411 10.2017 11.9596L9.60298 11.2637C9.959 10.9319 10.5416 10.6892 11.2132 10.6892C12.2408 10.6892 12.8638 11.199 12.8638 12.1457V13.416C12.8638 13.5535 12.9285 13.6183 13.0742 13.6183C13.1308 13.6183 13.1955 13.6102 13.2522 13.594ZM11.7715 12.971C11.5692 12.9224 11.3669 12.8901 11.1565 12.8901C10.7762 12.8901 10.5901 13.0762 10.5901 13.3351C10.5901 13.5778 10.752 13.7558 11.0918 13.7558C11.4478 13.7558 11.7634 13.5374 11.7634 13.2056V12.971H11.7715ZM23.9975 14.1119C24.0056 14.2089 23.9651 14.306 23.9004 14.3789C23.8276 14.4517 23.7386 14.4841 23.6415 14.476C23.4149 14.476 23.2855 14.3303 23.2855 14.1119C23.2855 13.8934 23.4149 13.7477 23.6415 13.7477C23.7386 13.7397 23.8357 13.772 23.9004 13.8448C23.9651 13.9177 23.9975 14.0148 23.9975 14.1119ZM23.9328 14.1119C23.9409 13.9986 23.8923 13.8853 23.7952 13.8206C23.6981 13.7558 23.5768 13.7558 23.4797 13.8206C23.3826 13.8853 23.3259 13.9905 23.3421 14.1119C23.3421 14.3141 23.4635 14.4274 23.6415 14.4274C23.8195 14.4274 23.9328 14.3141 23.9328 14.1119ZM23.7062 14.1523L23.771 14.2818H23.7062L23.6415 14.1604H23.5606V14.2818H23.4958V13.9258H23.6415C23.7305 13.9258 23.771 13.9743 23.771 14.039C23.779 14.0876 23.7548 14.1361 23.7062 14.1523ZM23.7143 14.0471C23.7143 14.0067 23.69 13.9824 23.6496 13.9824H23.5687V14.1119H23.6415C23.6819 14.1038 23.7143 14.0876 23.7143 14.0471Z" fill="black"/>
</g>
<defs>
<clipPath id="clip0_1696_901">
<rect width="24" height="24" fill="white"/>
</clipPath>
</defs>
</svg>
