<svg width="20" height="20" viewBox="0 0 20 20" fill="none" xmlns="http://www.w3.org/2000/svg">
<path fill-rule="evenodd" clip-rule="evenodd" d="M6.77451 7.48299C5.37214 7.48299 4.23529 8.6099 4.23529 10C4.23529 11.3901 5.37214 12.517 6.77451 12.517H9.38235V10V7.48299H6.77451ZM13.1569 6.2585L13.2255 6.2585C14.6279 6.2585 15.7647 5.1316 15.7647 3.7415C15.7647 2.35139 14.6279 1.22449 13.2255 1.22449H10.6176V6.2585L13.1569 6.2585ZM15.2954 6.87075C16.3221 6.20208 17 5.05026 17 3.7415C17 1.67512 15.3101 0 13.2255 0H10.6176H10H9.38235H6.77451C4.68991 0 3 1.67512 3 3.7415C3 5.05026 3.67791 6.20208 4.70464 6.87075C3.67791 7.53942 3 8.69123 3 10C3 11.3088 3.67791 12.4606 4.70464 13.1293C3.67791 13.7979 3 14.9497 3 16.2585C3 18.3292 4.71131 20 6.79157 20C8.89079 20 10.6176 18.3139 10.6176 16.2245V13.7415V13.1293V12.7683C11.2881 13.3729 12.1791 13.7415 13.1569 13.7415H13.2255C15.3101 13.7415 17 12.0664 17 10C17 8.69123 16.3221 7.53942 15.2954 6.87075ZM13.2255 7.48299L13.1569 7.48299C11.7545 7.48299 10.6176 8.6099 10.6176 10C10.6176 11.3901 11.7545 12.517 13.1569 12.517H13.2255C14.6279 12.517 15.7647 11.3901 15.7647 10C15.7647 8.6099 14.6279 7.48299 13.2255 7.48299ZM4.23529 16.2585C4.23529 14.8684 5.37214 13.7415 6.77451 13.7415H9.38235V16.2245C9.38235 17.6291 8.21724 18.7755 6.79157 18.7755C5.38486 18.7755 4.23529 17.6443 4.23529 16.2585ZM9.38235 6.2585H6.77451C5.37214 6.2585 4.23529 5.1316 4.23529 3.7415C4.23529 2.35139 5.37214 1.22449 6.77451 1.22449H9.38235V6.2585Z" fill="white"/>
</svg>
