<svg width="24" height="24" viewBox="0 0 24 24" fill="none" xmlns="http://www.w3.org/2000/svg">
<path fill-rule="evenodd" clip-rule="evenodd" d="M3.79363 3.62891C5.54609 5.71877 7.81389 7.72759 13.5042 9.33049C20.6584 11.2783 20.1017 12.3537 19.5863 13.5914C19.2152 14.4841 19.6482 14.5856 19.8337 14.6465C20.7615 14.9711 23.1528 15.4174 23.0086 16.4115C23.2973 16.6956 24.3281 17.7913 23.8953 18.542C23.7463 18.3057 23.3809 17.9159 22.8625 17.5126C22.3214 17.488 21.5838 17.5231 20.6997 17.9131C19.5245 18.4609 19.0501 18.4812 18.4729 18.4203C18.6378 18.7044 18.9884 19.0899 20.0604 19.1711C21.1325 19.232 21.6685 19.2725 21.0913 20.5101C21.1119 20.1449 21.0088 19.4146 19.9368 19.5363C18.8647 19.658 18.6173 20.5507 19.7719 20.9768C19.4008 21.0376 18.5966 21.0783 18.04 19.7392C17.6483 19.9015 17.0503 20.2058 15.937 19.4348C16.3287 19.5566 16.803 19.5769 16.803 19.5769C15.834 19.1508 14.8856 18.3594 14.3084 17.6087C14.7825 17.9333 15.2979 18.258 15.8339 18.3189C15.2154 17.629 13.7722 16.229 11.9992 14.8088C13.1331 15.4783 14.5145 16.5536 16.7411 16.3101C17.892 16.1854 18.8481 16.0022 19.8921 16.1147C19.8385 16.1047 19.7847 16.0954 19.7306 16.087C17.6483 15.7623 15.7514 16.4522 14.1845 15.4377C12.8445 14.5044 12.6382 14.1595 11.2981 12.0088C10.7002 11.0349 10.5766 10.1623 8.53557 8.5391C6.49447 6.91591 4.5977 6.04341 3.79363 3.62891ZM21.4623 16.0464C21.4623 16.0464 22.1634 16.2697 22.7201 16.6755C22.7201 16.3508 22.7818 16.1681 21.4623 16.0464Z" fill="black"/>
<path d="M5.0512 13.571C5.93773 14.1391 7.77263 15.255 9.64877 15.1333C9.36013 14.7681 8.84468 14.5043 8.20557 14.2203C8.90656 14.3623 11.0509 14.8291 13.896 17.2842C12.391 16.7363 12.0817 16.6144 10.1437 16.2086C8.22627 15.7826 6.32946 14.9304 5.0512 13.571Z" fill="black"/>
<path d="M1.25756 6.73342C3.27802 8.88413 5.50469 10.0203 6.82419 10.7508C9.64863 12.2725 10.3909 13.3478 10.7414 14.1797C9.38072 12.5362 7.50461 11.968 6.39131 11.3391C2.3711 9.20869 1.44315 7.50446 1.25756 6.73342Z" fill="black"/>
<path d="M0 3C2.90701 6.04349 5.11309 7.2203 6.63875 8.17392C9.7313 10.0609 10.3703 11.3189 10.7414 12.3131C9.25703 10.3248 7.27792 9.71597 5.75226 8.72179C1.13402 5.94208 0.206171 3.8116 0 3Z" fill="black"/>
</svg>
