<svg width="24" height="24" viewBox="0 0 24 24" fill="none" xmlns="http://www.w3.org/2000/svg">
<g clip-path="url(#clip0_1782_2918)">
<path d="M4.584 21.438C6.69245 23.0556 9.27555 23.9325 11.933 23.933C14.8342 23.9299 17.6361 22.8759 19.82 20.966C18.876 21.573 16.18 22.989 11.933 22.989C8.225 22.989 5.865 22.178 4.584 21.438ZM12.742 22.045C15.708 22.045 18.944 21.236 20.832 19.618C21.371 19.213 21.842 18.607 22.315 17.865C22.585 17.393 22.854 16.854 23.056 16.382C21.236 19.012 16.045 20.697 10.652 20.697C6.876 20.697 2.764 19.483 1.146 17.124C2.629 20.36 7.146 22.045 12.742 22.045ZM9.506 16.787C3.37 16.787 0.472 13.955 0 12C0 12.674 0.067 13.483 0.202 14.09C0.27 14.36 0.472 14.764 0.809 15.169C2.292 16.719 6 18.876 12.404 18.876C21.101 18.876 23.124 15.978 23.528 15.034C23.798 14.36 24 13.146 24 12.067V11.393C23.393 13.685 15.978 16.787 9.506 16.787ZM1.079 6.877C0.742 7.55 0.337 8.763 0.202 9.37C0.135 9.64 0.202 9.774 0.27 9.977C1.011 11.527 4.72 14.021 13.348 14.021C18.607 14.021 22.719 12.741 23.393 10.381C23.528 9.977 23.528 9.505 23.393 8.898C23.191 8.224 22.921 7.415 22.584 6.808C22.652 9.909 14.022 11.932 9.64 11.932C4.921 11.932 0.944 10.044 0.944 7.684C1.011 7.347 1.079 7.078 1.079 6.875M19.82 3.034C19.888 3.101 19.888 3.169 19.888 3.304C19.888 4.652 15.843 6.944 9.371 6.944C4.584 6.944 3.708 5.191 3.708 4.044C3.708 3.64 3.843 3.236 4.18 2.831C3.573 3.438 3.034 3.978 2.494 4.651C2.292 4.921 2.157 5.191 2.157 5.326C2.157 7.686 8.022 9.303 13.416 9.303C19.213 9.303 21.843 7.416 21.843 5.73C21.843 5.124 21.64 4.787 21.033 4.112C20.6458 3.73389 20.241 3.37416 19.82 3.034ZM18.067 1.753C16.2154 0.639772 14.0935 0.0565546 11.933 0.0670019C9.64 0.0670019 7.55 0.674002 5.73 1.82C5.191 2.09 4.854 2.36 4.854 2.697C4.854 3.707 7.214 4.787 11.394 4.787C15.506 4.787 18.742 3.573 18.742 2.427C18.809 2.225 18.539 2.022 18.067 1.753Z" fill="black"/>
</g>
<defs>
<clipPath id="clip0_1782_2918">
<rect width="24" height="24" fill="white"/>
</clipPath>
</defs>
</svg>
