<svg width="20" height="20" viewBox="0 0 20 20" fill="none" xmlns="http://www.w3.org/2000/svg">
<g clip-path="url(#clip0_822_5138)">
<path d="M8.33836 4.5125C8.66527 4.16832 9.05886 3.89431 9.49511 3.7072C9.93137 3.52009 10.4012 3.42379 10.8759 3.42417C12.1759 3.42417 13.3375 4.17417 13.9509 5.26167C14.4759 5.01167 15.0759 4.88667 15.7009 4.88667C18.0759 4.88667 20 6.83667 20 9.23667C20 11.6367 18.075 13.5867 15.6867 13.5867C15.3992 13.5867 15.1117 13.55 14.8367 13.5C14.5669 13.9932 14.169 14.4044 13.685 14.6904C13.201 14.9764 12.6489 15.1265 12.0867 15.125C11.5867 15.125 11.1242 15 10.7117 14.8125C10.4354 15.4619 9.974 16.0157 9.38509 16.4047C8.79619 16.7937 8.10581 17.0007 7.40003 17C6.66432 17.0019 5.94582 16.7775 5.34205 16.3571C4.73828 15.9367 4.27847 15.3407 4.02503 14.65C3.80003 14.7017 3.57503 14.7133 3.33753 14.7133C1.50086 14.7133 3.05176e-05 13.2133 3.05176e-05 11.3383C3.05176e-05 10.0883 0.675864 9.00083 1.67503 8.41333C1.46253 7.93833 1.35003 7.41333 1.35003 6.875C1.35003 4.725 3.10003 3 5.22503 3C6.50003 3 7.60003 3.5875 8.32503 4.5" fill="white"/>
</g>
<defs>
<clipPath id="clip0_822_5138">
<rect width="20" height="20" fill="white"/>
</clipPath>
</defs>
</svg>
