<svg width="24" height="24" viewBox="0 0 24 24" fill="none" xmlns="http://www.w3.org/2000/svg">
<path fill-rule="evenodd" clip-rule="evenodd" d="M23.9486 6C23.9767 6 24 6.02425 24 6.05334V12.458C24 12.4806 23.986 12.5016 23.9658 12.5081L6.30702 18.9806C6.27434 18.9935 6.23854 19 6.20274 19H0.0513652C0.0233478 19 0 18.9758 0 18.9467V12.542C0 12.5194 0.0140087 12.4984 0.0342435 12.4903L17.7179 6.0097C17.7345 6.00323 17.7516 6 17.7692 6L23.9486 6ZM19.2651 7.58742V11.2003C19.2651 11.2294 19.2822 11.2504 19.3086 11.2504H19.9266C19.9546 11.2504 19.9764 11.2294 19.9764 11.2003V9.37043L20.7671 11.223C20.7733 11.2407 20.7951 11.2521 20.8169 11.2521H21.4177C21.4457 11.2521 21.4675 11.2294 21.4675 11.2003V7.58742C21.4675 7.55832 21.4457 7.53569 21.4177 7.53569H20.7951C20.7671 7.53569 20.7453 7.55832 20.7453 7.58742V9.38336L19.9873 7.56479C19.9811 7.55347 19.9702 7.53569 19.9484 7.53569H19.3086C19.2822 7.53569 19.2651 7.55832 19.2651 7.58742ZM13.6912 9.58543V13.1983C13.6912 13.2274 13.7067 13.2501 13.7347 13.2501H15.5777C15.6057 13.2501 15.6259 13.2274 15.6259 13.1983V12.597C15.6259 12.5679 15.6057 12.5453 15.5777 12.5453H14.4072V11.7176H15.3177C15.3442 11.7176 15.3613 11.6966 15.3613 11.6675V11.0548C15.3613 11.0257 15.3442 11.0031 15.3177 11.0031H14.4072V10.2385H15.5777C15.6057 10.2385 15.6259 10.2159 15.6259 10.1868V9.58543C15.6259 9.55633 15.6057 9.5337 15.5777 9.5337H13.7347C13.7067 9.5337 13.6912 9.55633 13.6912 9.58543ZM7.79506 11.7257V15.3386C7.79506 15.3661 7.81062 15.3887 7.83241 15.3887H8.45191C8.47837 15.3887 8.50016 15.3661 8.50016 15.3386V14.0325H8.77411L9.36403 15.3612C9.37026 15.3774 9.38115 15.3887 9.40139 15.3887H10.0645C10.0972 15.3887 10.1189 15.3564 10.1018 15.3224L9.47921 13.9096C9.6302 13.8369 9.7376 13.6849 9.81387 13.5233C9.87768 13.3826 9.91037 13.1983 9.91037 13.0027V12.681C9.91037 12.0264 9.54926 11.674 8.95155 11.674H7.83241C7.81062 11.674 7.79506 11.6966 7.79506 11.7257ZM8.65581 12.4176C9.06518 12.4176 9.20527 12.458 9.20527 12.8492V12.8589C9.19437 13.2953 8.99514 13.3002 8.65581 13.3002H8.50016V12.4176H8.65581ZM2.17757 13.8239V14.4253C2.17757 14.4544 2.19936 14.477 2.22583 14.477H2.89669V16.7838H2.22583C2.19936 16.7838 2.17757 16.8064 2.17757 16.8355V17.4368C2.17757 17.4659 2.19936 17.4886 2.22583 17.4886H4.2602C4.28666 17.4886 4.30845 17.4659 4.30845 17.4368V16.8355C4.30845 16.8064 4.28666 16.7838 4.2602 16.7838H3.60646V14.477H4.2602C4.28666 14.477 4.30845 14.4544 4.30845 14.4253V13.8239C4.30845 13.7948 4.28666 13.7722 4.2602 13.7722H2.22583C2.19936 13.7722 2.17757 13.7948 2.17757 13.8239Z" fill="black"/>
</svg>
