<svg width="24" height="24" viewBox="0 0 24 24" fill="none" xmlns="http://www.w3.org/2000/svg">
<path d="M8.60864 10C8.96628 10 9.3051 10.0988 9.6 10.2963C9.60627 10.3086 9.6251 10.3148 9.63137 10.321H9.63762C9.65017 10.3272 9.66276 10.3395 9.67531 10.3457C9.74433 10.395 9.81961 10.4568 9.88235 10.5185L9.91373 10.5432L9.26115 11.2222L9.22978 11.1976C9.19214 11.1667 9.14824 11.1297 9.1106 11.105C8.96001 11.0062 8.79058 10.9568 8.61489 10.9568C8.13176 10.9568 7.73647 11.3518 7.73646 11.8395V13.1481C7.73646 13.6358 8.13176 14.0308 8.61489 14.0309C9.09803 14.0309 9.49332 13.6358 9.49332 13.1481V12.9506H8.90355V12H10.4408V13.1605C10.4408 14.179 9.61883 15 8.60864 15C7.59845 15 6.77648 14.1728 6.77647 13.1605V11.8395C6.77648 10.821 7.59845 10 8.60864 10Z" fill="black"/>
<path d="M12.2792 13.1729C12.2792 13.642 12.662 14.0247 13.1325 14.0247C13.6031 14.0247 13.9859 13.642 13.9859 13.1729V10H14.9585V13.216C14.9396 14.2037 14.1239 15 13.1263 15C12.1161 15 11.2941 14.179 11.2941 13.1729V10H12.2792V13.1729Z" fill="black"/>
<path d="M2.89252 12.926H0.959988V14.8148H0V11.9815H2.89252V12.926Z" fill="black"/>
<path d="M5.36471 14.7222H4.23529V10H5.36471V14.7222Z" fill="black"/>
<path fill-rule="evenodd" clip-rule="evenodd" d="M18.1585 10C19.0118 10 19.7082 10.6976 19.7082 11.5556C19.7082 12.1358 19.3882 12.642 18.9176 12.9136L19.7647 14.7161H18.7357L17.9702 13.1111H17.3114V14.7222H16.3765V10H18.1585ZM17.3176 12.179H18.1521C18.491 12.179 18.7608 11.9012 18.7608 11.5617C18.7608 11.216 18.4847 10.9444 18.1521 10.9444H17.3176V12.179Z" fill="black"/>
<path d="M24 10V10.9444H22.1176V11.8889H24V12.8334H22.1176V13.7778H24V14.7222H21.1765V10H24Z" fill="black"/>
<path d="M2.89252 11.037H0V10.0926H2.89252V11.037Z" fill="black"/>
</svg>
