<svg width="20" height="20" viewBox="0 0 20 20" fill="none" xmlns="http://www.w3.org/2000/svg">
<g clip-path="url(#clip0_822_5060)">
<path d="M15.2699 7.61426L16.5691 8.91426H18.6991V11.0451L19.9999 12.3451V7.61426H15.2699ZM1.66661 7.93342L-6.10352e-05 12.0668H1.09077L1.39911 11.2484H3.24994L3.58994 12.0668H4.70494L2.85994 7.93342H1.66661ZM5.17411 7.93342V12.0626H6.20577V9.48592L7.32077 10.7876H7.47744L8.59244 9.49092V12.0668H9.62411V7.93342H8.72494L7.39827 9.47092L6.07244 7.93342H5.17411ZM10.4099 7.93342V12.0668H12.1241C13.7733 12.0668 14.5241 11.1951 14.5241 10.0068C14.5241 8.87342 13.7433 7.93342 12.2349 7.93342H10.4099ZM11.4408 8.69176H12.1008C13.0758 8.69176 13.4591 9.28426 13.4591 10.0001C13.4591 10.6068 13.1491 11.3101 12.1124 11.3101H11.4408V8.69176ZM2.28661 8.91926L2.94577 10.5293H1.67327L2.28661 8.91926ZM16.5674 9.17509L15.2308 10.5109V12.3859H17.1024L18.4391 11.0468H16.5674V9.17509Z" fill="white"/>
</g>
<defs>
<clipPath id="clip0_822_5060">
<rect width="20" height="20" fill="white"/>
</clipPath>
</defs>
</svg>
