<svg width="24" height="24" viewBox="0 0 24 24" fill="none" xmlns="http://www.w3.org/2000/svg">
<path fill-rule="evenodd" clip-rule="evenodd" d="M11.4812 23.5079L10.9767 23.0234V1.83713L10.8978 1.90215C10.8512 1.92127 10.5821 2.14693 10.3001 2.39936L9.80854 2.85195V12.3206C9.80854 17.5324 9.7956 21.7944 9.76973 21.7944C9.7555 21.7944 9.28978 21.3482 8.73868 20.8115L7.72833 19.8222L7.71539 5.27044L7.29495 5.88494C5.62872 8.37482 4.56662 11.1885 4.19922 14.0469C4.06727 15.0107 4.02846 15.9477 4.02846 17.9468V19.7954H2V17.7071C2 15.6379 2.02717 14.9138 2.15136 13.9627C2.62354 10.0628 4.19922 6.35155 6.68564 3.25992C7.47219 2.2961 8.66624 1.08622 9.55239 0.349323L9.98577 0H14.0078L14.4282 0.349323C15.0116 0.822311 16.1798 1.94677 16.7309 2.57402C19.4929 5.7243 21.3105 9.71347 21.8228 13.8008C21.9599 14.887 22 15.5857 22 17.7326V19.7954H19.9651L19.9521 17.4878C19.9392 16.2193 19.9004 14.9839 19.8797 14.7582C19.6248 12.2875 18.9741 10.0896 17.912 7.96175C17.5175 7.18534 16.9082 6.17689 16.5006 5.60064L16.2587 5.26406V19.8222L15.2549 20.8115C14.7102 21.3482 14.238 21.7944 14.2238 21.7944C14.1979 21.7944 14.1915 17.5324 14.1915 12.3206V2.85195L13.6934 2.39936C13.4179 2.16096 13.1488 1.92127 13.0957 1.90215L13.0103 1.83713V23.0234L12.5123 23.5079C12.2432 23.7731 12.0065 24 11.9935 24C11.9806 24 11.7503 23.7731 11.4812 23.5079Z" fill="black"/>
</svg>
