<svg width="20" height="20" viewBox="0 0 20 20" fill="none" xmlns="http://www.w3.org/2000/svg">
<path d="M14.738 1.9165C14.738 1.9165 13.8969 4.87168 12.9696 8.34391H20C19.9831 8.35184 15.9366 10.2462 11.8905 12.2909C11.0064 15.6116 10.3587 17.8546 10.2507 18.2218L10.2295 18.2869C10.2328 18.2483 11.3298 12.5708 11.3298 12.5708C9.39365 13.5523 3.87949 16.4378 0 18.4709V18.2959L11.4591 11.8172L11.9556 9.20736L8.6556 9.12109C8.62132 9.15224 4.88469 12.5465 4.79492 12.6359C4.84027 12.5902 5.93997 11.3174 8.02979 9.09831L0 8.89404V8.36426L8.76302 8.34391C11.5667 5.30295 14.738 1.9165 14.738 1.9165ZM12.7108 9.20736C12.4952 9.98345 12.3225 10.6733 12.1069 11.4494L15.9237 9.29362L12.7108 9.20736ZM9.49707 8.34391H12.1281L12.688 5.43294L9.49707 8.34391Z" fill="white"/>
</svg>
