<svg width="20" height="20" viewBox="0 0 20 20" fill="none" xmlns="http://www.w3.org/2000/svg">
<path d="M14.0108 7.34495C14.0108 7.34495 13.6358 7.49495 13.1999 7.97495C12.7633 8.45578 12.5099 8.99578 12.6974 9.13911C12.7699 9.19411 12.9366 9.20495 13.2391 8.93078C13.5175 8.68879 13.736 8.38558 13.8774 8.04495C14.0724 7.56995 14.0108 7.35078 14.0108 7.34495ZM16.3966 8.20995C15.9124 7.96078 15.5583 7.65661 15.1899 7.46828C14.8383 7.28828 14.6108 7.21245 14.3266 7.25078C14.2871 7.25783 14.2481 7.26758 14.2099 7.27995C14.2099 7.27995 14.3566 7.77995 13.7741 8.61911C13.1841 9.47078 12.6491 9.46495 12.4966 9.23078C12.3374 8.98411 12.5433 8.48078 12.8866 8.03328C13.2466 7.56495 13.8783 7.17661 13.8783 7.17661C13.8783 7.17661 13.6774 7.05328 13.1824 7.33495C12.6991 7.60661 11.8683 8.25745 11.0974 9.35411C10.3258 10.4508 10.1724 11.0541 10.0624 11.5291C9.95243 12.0041 10.0524 12.5124 10.5791 12.5124C11.1058 12.5124 11.7191 11.7091 11.8924 11.4299C12.2141 10.9099 12.4233 10.1124 11.9858 10.2216C11.7699 10.2758 11.5958 10.5141 11.4858 10.7441C11.4163 10.8918 11.3632 11.0466 11.3274 11.2058C11.1743 11.2687 11.0305 11.3523 10.8999 11.4541C10.7549 11.5618 10.6194 11.6816 10.4949 11.8124C10.4949 11.8124 10.4966 11.4324 10.7991 10.8174C11.1024 10.2033 11.6574 9.92245 11.9724 9.89578C12.2558 9.87328 12.6249 10.1141 12.3124 11.0016C11.9999 11.8891 11.0766 12.9683 10.1074 12.9816C9.21327 12.9941 8.62743 11.8524 9.87243 9.86078C11.2508 7.65828 12.8674 6.98328 13.3916 6.90828C13.9166 6.83328 14.0874 7.06411 14.0874 7.06411C14.4032 6.93469 14.7443 6.87856 15.0849 6.89995C15.7266 6.94328 16.2216 7.39661 16.8766 7.71578C16.7058 7.87828 16.5433 8.04911 16.3974 8.20911M19.2758 7.46745C18.8316 7.75245 18.2174 8.01078 17.6266 7.95578C17.4774 8.10995 17.3174 8.28911 17.1574 8.48411C18.1808 8.68661 19.0783 8.05161 19.5549 7.51161C19.7288 7.31783 19.8783 7.10345 19.9999 6.87328C19.7827 7.09935 19.5397 7.29823 19.2758 7.46745ZM17.9124 10.3533C17.9203 10.3398 17.9267 10.3256 17.9316 10.3108C17.9286 10.2873 17.9176 10.2655 17.9005 10.2491C17.8833 10.2327 17.8611 10.2227 17.8374 10.2208C17.7399 10.2166 17.6066 10.2349 17.2583 10.6208C16.9688 10.9399 16.7197 11.2934 16.5166 11.6733C16.3166 12.0383 16.2358 12.3099 16.3499 12.3799C16.3874 12.3995 16.4309 12.4039 16.4716 12.3924C16.5491 12.3741 16.6374 12.3008 16.7716 12.1466C16.8341 12.0733 16.9033 11.9699 16.9866 11.8558C17.2174 11.5424 17.7974 10.5533 17.9124 10.3533ZM14.2883 10.7733C14.3466 10.6216 14.4208 10.3224 14.2666 10.2049C14.1008 10.0799 13.6791 10.3724 13.6766 10.6724C13.6741 10.9799 13.9741 11.1183 14.0458 11.1383C14.0874 11.1491 14.1008 11.1466 14.1208 11.1141C14.1844 11.0045 14.2404 10.8906 14.2883 10.7733ZM13.9691 11.3316C13.8645 11.2833 13.767 11.2211 13.6791 11.1466C13.5912 11.0727 13.5177 10.9831 13.4624 10.8824C13.4558 10.8724 13.4499 10.8799 13.4433 10.8891C13.4374 10.8974 13.4108 10.9216 13.1858 11.2508C12.9608 11.5808 12.6158 12.2641 12.9274 12.3799C13.1283 12.4549 13.4616 12.1041 13.6441 11.8716C13.7677 11.7091 13.8796 11.5382 13.9791 11.3599C13.9891 11.3408 13.9791 11.3358 13.9691 11.3316ZM17.5174 12.1208C17.4324 12.2566 17.3358 12.5174 17.6149 12.3549C17.9566 12.1583 18.4433 11.4191 18.4433 11.4191H18.6641C18.4632 11.7281 18.2396 12.0217 17.9949 12.2974C17.6491 12.6808 17.2266 13.0299 16.9283 12.9949C16.5816 12.9549 16.6899 12.4983 16.6899 12.4983C16.6899 12.4983 16.1933 13.0274 15.8483 12.9899C15.3841 12.9383 15.5258 12.3641 15.5258 12.3641C15.5258 12.3641 15.0008 13.0091 14.6424 12.9891C14.0816 12.9558 14.2224 12.2733 14.3791 11.7924C14.4624 11.5358 14.5399 11.3341 14.5399 11.3341C14.5399 11.3341 14.4841 11.3483 14.3649 11.3658C14.3016 11.3749 14.1883 11.3816 14.1883 11.3816C14.1883 11.3816 13.9549 11.7941 13.7674 12.0416C13.5808 12.2891 12.7858 13.1433 12.3174 12.9724C11.8858 12.8141 12.0291 12.1524 12.2808 11.6266C12.6474 10.8599 13.6808 9.75745 14.2774 9.90328C14.8949 10.0533 14.2916 11.1799 14.2916 11.1799C14.2916 11.1799 14.2916 11.1841 14.2974 11.1874C14.3099 11.1916 14.3424 11.1958 14.4166 11.1808C14.4937 11.1652 14.5693 11.1429 14.6424 11.1141C14.6424 11.1141 15.2641 9.81328 15.9499 8.96161C16.6358 8.11161 18.0041 6.64495 18.5416 6.99995C18.6716 7.08745 18.6133 7.38745 18.4366 7.75161C18.357 7.77748 18.276 7.79918 18.1941 7.81661C18.3124 7.60161 18.3908 7.42078 18.4141 7.29411C18.4949 6.85411 17.4683 7.78161 16.7349 8.77745C16.293 9.37808 15.9003 10.0135 15.5608 10.6774C15.6932 10.5967 15.8197 10.5065 15.9391 10.4074C16.2664 10.1363 16.5775 9.84603 16.8708 9.53828C17.1529 9.24933 17.4176 8.94379 17.6633 8.62328C17.7414 8.61948 17.8193 8.61141 17.8966 8.59911C17.6285 8.96285 17.3362 9.30807 17.0216 9.63245C16.7299 9.92828 16.4133 10.2466 16.1374 10.4783C15.8917 10.687 15.6325 10.8794 15.3616 11.0541C15.3616 11.0541 14.7199 12.3483 15.0691 12.4308C15.2741 12.4808 15.6791 11.8558 15.6791 11.8558C15.6791 11.8558 16.2083 11.0499 16.5266 10.6858C16.9616 10.1916 17.3349 9.90578 17.7099 9.90078C17.9274 9.89661 18.0558 10.1283 18.0558 10.1283L18.1583 9.96995H18.7891C18.7891 9.96995 17.6108 11.9683 17.5166 12.1191M19.2758 7.46911C18.8316 7.75328 18.2174 8.01161 17.6266 7.95661C17.4766 8.11078 17.3174 8.28995 17.1566 8.48495C18.1808 8.68745 19.0774 8.05328 19.5549 7.51245C19.7289 7.31841 19.8783 7.10375 19.9999 6.87328C19.7827 7.09935 19.5397 7.29823 19.2758 7.46745M10.4174 8.44911H9.81743L9.47827 8.99745H10.0783L10.4174 8.44911ZM7.57577 10.3466C7.8316 9.99661 8.53577 8.77078 8.53577 8.77078C8.53282 8.74738 8.52195 8.72569 8.50497 8.70932C8.48799 8.69295 8.46593 8.68288 8.44243 8.68078C8.34493 8.67578 8.18243 8.70911 7.8591 9.11328C7.5366 9.51745 7.28577 9.83828 7.10327 10.1733C6.90327 10.5383 6.81493 10.7958 6.93077 10.8658C6.96792 10.8844 7.01058 10.8888 7.05077 10.8783C7.12577 10.8599 7.2241 10.7841 7.35827 10.6299C7.43466 10.5383 7.50749 10.4438 7.5766 10.3466M4.35743 8.68828C4.1916 8.56328 3.76993 8.85578 3.76743 9.15495C3.76493 9.46245 4.14743 9.55661 4.1966 9.55828C4.211 9.55958 4.22547 9.55668 4.23827 9.54995C4.24709 9.54468 4.25407 9.53682 4.25827 9.52745C4.30342 9.4393 4.34402 9.34891 4.37993 9.25661C4.43827 9.10411 4.5116 8.80578 4.35743 8.68828ZM4.10743 9.74661C3.99312 9.71074 3.88389 9.66033 3.78243 9.59661C3.68387 9.53244 3.60374 9.44369 3.54993 9.33911C3.5441 9.32911 3.53743 9.33661 3.5316 9.34578C3.52577 9.35411 3.49243 9.39661 3.2666 9.72745C3.0416 10.0591 2.7066 10.7358 3.01993 10.8524C3.21993 10.9274 3.5566 10.5741 3.73993 10.3424C3.87693 10.1606 4.00352 9.97112 4.1191 9.77495C4.1266 9.75495 4.1191 9.74995 4.10743 9.74661ZM9.00743 9.94995H9.2266C9.2266 9.94995 8.12577 11.5433 7.50327 11.4691C7.1566 11.4283 7.2591 10.9999 7.2591 10.9999C7.2591 10.9999 6.7716 11.5708 6.32327 11.4549C5.91743 11.3508 6.17993 10.6749 6.17993 10.6749C6.13327 10.6933 5.2541 11.6841 4.63577 11.4466C3.9891 11.1966 4.32493 10.3666 4.44827 10.1174C4.55243 9.90661 4.66743 9.70161 4.66743 9.70161C4.66743 9.70161 4.56827 9.72995 4.50493 9.74411L4.34993 9.77745C4.34993 9.77745 4.0441 10.2741 3.85743 10.5224C3.66993 10.7699 2.87577 11.6224 2.40743 11.4533C1.9391 11.2833 2.05493 10.6283 2.31827 10.1074C2.74493 9.26411 3.7566 8.22745 4.3666 8.38411C4.98243 8.54161 4.47243 9.54078 4.47243 9.54078C4.47243 9.54078 4.59493 9.55661 4.8891 9.35578C5.3116 9.06745 5.8691 8.29161 6.47327 8.38328C6.75827 8.42578 7.02327 8.71661 6.66077 9.26995C6.54493 9.44745 6.35077 9.60578 6.20243 9.44911C6.10993 9.35078 6.19077 9.17411 6.28827 9.05161C6.32609 9.00205 6.3755 8.96252 6.43217 8.93651C6.48884 8.9105 6.55102 8.89881 6.61327 8.90245C6.61327 8.90245 6.71327 8.67495 6.4591 8.67828C6.25327 8.68245 5.73327 9.16161 5.43993 9.64495C5.17077 10.0891 4.76243 10.8458 5.1716 11.0108C5.54743 11.1624 6.26243 10.3141 6.59327 9.86911C6.9241 9.42495 7.67827 8.41745 8.3116 8.37745C8.5291 8.36328 8.6591 8.56161 8.6591 8.56161L8.73243 8.44578H9.36493C9.36493 8.44578 8.17327 10.4349 8.07993 10.5849C8.0066 10.7024 7.90993 10.9683 8.17743 10.8191C8.44577 10.6708 9.00743 9.94995 9.00743 9.94995ZM8.66243 13.1366C8.19657 12.814 7.63868 12.6512 7.07243 12.6724C6.91934 12.6767 6.7694 12.7169 6.63476 12.7899C6.50011 12.8628 6.38455 12.9665 6.29743 13.0924C6.05577 12.6716 5.5791 12.4133 4.8416 12.4191C3.64993 12.4324 2.46743 12.9824 1.5316 12.9816C0.6341 12.9816 -0.0209004 12.4174 0.000766256 11.4149C0.0399329 9.65745 1.52577 8.07411 2.6341 7.36161C3.27327 6.95328 3.80827 6.83078 4.15743 6.86995C4.41243 6.89828 4.7191 7.19328 4.52577 7.62745C4.2416 8.26161 3.8491 8.20995 3.86327 7.90661C3.8716 7.70911 4.00327 7.58495 4.1016 7.51578C4.1729 7.4779 4.25253 7.45843 4.33327 7.45911C4.38993 7.41161 4.43077 7.06411 3.97577 7.17828C3.52077 7.29245 2.96743 7.74161 2.44243 8.32078C1.91743 8.90078 1.10077 9.99661 0.8991 11.1474C0.804933 11.6808 0.8666 12.6541 2.13243 12.6433C3.20493 12.6349 4.7866 11.9274 6.23993 11.9424C6.74595 11.9405 7.24293 12.0764 7.67743 12.3358C8.05327 12.5674 8.5041 12.9058 8.6641 13.1366" fill="white"/>
</svg>
