<svg width="24" height="24" viewBox="0 0 24 24" fill="none" xmlns="http://www.w3.org/2000/svg">
<path d="M0.685534 14.3231C0.840913 14.3161 0.996303 14.3231 1.14462 14.3301C1.3 14.3442 1.46953 14.3021 1.58253 14.3513C1.54015 14.4075 1.40596 14.3653 1.37064 14.4215C1.37065 14.6042 1.40597 14.7868 1.47659 14.9625C1.61784 15.4753 1.76611 15.9672 1.91443 16.4801C2.06981 16.1358 2.20405 15.7634 2.34531 15.4051C2.48656 15.0468 2.61371 14.6814 2.78322 14.3442C2.86795 14.3934 2.88206 14.5058 2.91737 14.5901C3.14338 15.2084 3.38355 15.8547 3.61662 16.473C3.79318 15.9812 3.94148 15.4824 4.10392 14.9695C4.17454 14.8009 4.21696 14.6253 4.21696 14.4426C4.18165 14.3723 4.04747 14.4004 3.9839 14.3653C4.01923 14.3021 4.10395 14.3372 4.16751 14.3372C4.3582 14.3442 4.59834 14.3231 4.76785 14.3442C4.7396 14.4074 4.66896 14.3723 4.61245 14.3934C4.42178 14.4637 4.32996 14.8782 4.25228 15.103C4.06864 15.644 3.89204 16.1639 3.69428 16.7119C3.65897 16.8032 3.60953 16.9929 3.55303 16.9999C3.46828 17.0069 3.34118 16.5645 3.31997 16.4941C3.12221 15.9461 2.92442 15.4192 2.72666 14.8852C2.4724 15.4964 2.23932 16.1147 1.98506 16.7611C1.9568 16.8384 1.9003 16.9929 1.8438 16.9929C1.78025 16.9929 1.73079 16.8032 1.70254 16.7049C1.49772 16.0585 1.29996 15.4543 1.1022 14.8009C1.03158 14.562 1.01748 14.4145 0.756162 14.3653C0.734974 14.3582 0.664331 14.3864 0.671394 14.3301C0.678457 14.3301 0.678471 14.3231 0.685534 14.3231Z" fill="black"/>
<path fill-rule="evenodd" clip-rule="evenodd" d="M11.2798 14.8571C11.9508 14.843 12.4805 15.2295 12.4311 15.9672C12.3957 16.5573 11.8943 17.014 11.294 16.9929C10.6795 16.9929 10.1639 16.5925 10.178 15.8969C10.185 15.6159 10.3052 15.356 10.5029 15.1592C10.7077 14.9625 10.9902 14.85 11.2798 14.8571ZM12.1627 15.9391C12.1627 15.37 11.8095 14.8993 11.2092 14.9485C10.7007 14.9976 10.4464 15.3349 10.4535 15.8477C10.4535 16.4098 10.7995 16.9016 11.3787 16.8875C11.8731 16.8805 12.1697 16.473 12.1627 15.9391Z" fill="black"/>
<path d="M6.03213 15.3349C6.04626 14.8852 6.55478 14.7798 7.02093 14.8993C7.02093 15.0187 7.01384 15.1452 6.99265 15.2646C6.95027 15.2225 6.95731 15.1522 6.92906 15.103C6.79483 14.8431 6.15215 14.8923 6.22277 15.3349C6.25104 15.5175 6.48416 15.658 6.63247 15.7704C6.8373 15.918 7.07032 16.0866 7.07032 16.4098C7.0703 16.9227 6.47707 17.1194 5.98268 16.8945C5.95443 16.7611 5.96146 16.6135 6.01089 16.4801C6.03207 16.5573 6.03209 16.6346 6.06034 16.6908C6.23692 17.0491 7.0562 16.8946 6.83726 16.3606C6.68893 16.0093 6.01803 15.8688 6.03213 15.3349Z" fill="black"/>
<path fill-rule="evenodd" clip-rule="evenodd" d="M7.55064 14.8922C8.30636 14.8852 9.07621 14.822 9.44348 15.2014C9.64123 15.4121 9.74013 15.7002 9.70482 15.9883C9.66243 16.6065 9.19626 16.9648 8.54648 16.9719C8.24984 16.9789 7.88256 16.9367 7.57886 16.9297C7.59301 16.9016 7.70595 16.9086 7.74129 16.8665C7.79779 16.8032 7.78371 16.5643 7.78371 16.4168V15.4262C7.78371 15.2787 7.80489 15.0398 7.74839 14.9765C7.70602 14.9274 7.59301 14.9344 7.53651 14.9133V14.8993C7.54356 14.8993 7.54359 14.8922 7.55064 14.8922ZM9.45762 15.9672C9.45055 15.3138 8.90669 14.8923 8.12271 14.9836C8.09447 14.9906 8.06623 14.9976 8.04504 15.0117C8.02386 15.3067 8.01678 15.6019 8.03091 15.8969C8.0309 16.2061 8.00972 16.5222 8.06622 16.7752C8.22866 16.8946 8.44762 16.9016 8.66656 16.8805C9.16801 16.8314 9.45761 16.473 9.45762 15.9672Z" fill="black"/>
<path d="M23.0324 14.8641C23.0465 14.9906 23.0324 15.11 22.9759 15.2224C22.9406 15.1662 22.9617 15.103 22.9264 15.0608C22.8275 14.9414 22.5309 15.0187 22.3402 14.9906C22.319 15.2435 22.3403 15.5316 22.3332 15.7985C22.5027 15.7845 22.7145 15.8267 22.8558 15.7915C22.9194 15.7775 22.9406 15.7213 22.9971 15.7283C22.9618 15.8407 22.983 16.0093 22.9477 16.1217C22.8982 16.0796 22.9264 16.0093 22.8982 15.9672C22.8064 15.8478 22.5168 15.9391 22.3473 15.8969C22.3403 16.0023 22.3403 16.1358 22.3332 16.2622C22.3261 16.4379 22.2979 16.7189 22.3826 16.8032C22.4604 16.8875 22.9406 16.8805 23.0253 16.7611C23.0607 16.7049 23.0536 16.6346 23.0889 16.5854C23.1313 16.6206 23.103 16.7119 23.096 16.7752C23.096 16.8384 23.0748 16.8946 23.0465 16.9508C22.6651 16.9789 22.2625 16.9367 21.8953 16.9437C21.8812 16.8946 22.0012 16.9226 22.0436 16.8805C22.086 16.8384 22.086 16.6767 22.093 16.5784C22.1072 16.2341 22.093 15.7494 22.093 15.3349C22.093 15.1944 22.1001 15.0187 22.0507 14.9695C22.0083 14.9203 21.8741 14.9414 21.8529 14.9063C22.1213 14.8711 22.5239 14.9133 22.8417 14.8993C22.9053 14.8993 22.9688 14.8852 23.0324 14.8641Z" fill="black"/>
<path d="M21.2879 14.8641C21.2949 14.8642 21.2949 14.8711 21.302 14.8711C21.2808 14.9836 21.2879 15.1311 21.2526 15.2295C21.2032 15.1803 21.2243 15.1171 21.189 15.0749C21.0901 14.9485 20.8006 15.0257 20.6028 14.9976C20.5816 15.2505 20.6027 15.5386 20.5957 15.8055C20.8288 15.7915 21.1255 15.8477 21.2526 15.7283C21.2455 15.8618 21.2314 15.9953 21.2102 16.1288C21.1607 16.0866 21.189 16.0163 21.1607 15.9742C21.0689 15.8548 20.7793 15.9461 20.6098 15.9039C20.6028 16.0374 20.5957 16.1779 20.6028 16.3114C20.5957 16.466 20.5604 16.7259 20.6451 16.8032C20.7299 16.8875 21.1325 16.8735 21.2384 16.8032C21.3091 16.754 21.3161 16.6697 21.3514 16.5854C21.4009 16.6206 21.3727 16.7119 21.3585 16.7752C21.3585 16.8384 21.3373 16.8946 21.3091 16.9508C20.9277 16.9719 20.5251 16.9367 20.1578 16.9437C20.1437 16.8946 20.2637 16.9297 20.3061 16.8805C20.3415 16.7892 20.3627 16.6908 20.3556 16.5924C20.3768 16.192 20.3838 15.5316 20.3556 15.1311C20.3415 14.9625 20.2708 14.9274 20.1084 14.9133C20.1649 14.8642 20.3485 14.8922 20.4474 14.8993C20.6734 14.9063 21.1608 14.9133 21.2879 14.8641Z" fill="black"/>
<path d="M4.83144 14.9063C5.05038 14.9063 5.28345 14.8711 5.47414 14.9063C5.46001 14.9414 5.35405 14.9274 5.31874 14.9555C5.25519 15.0117 5.26929 15.2857 5.26929 15.4262C5.25516 15.7775 5.27639 16.1007 5.27639 16.4449C5.27639 16.6135 5.26933 16.8384 5.34702 16.8875C5.39646 16.9156 5.50945 16.8946 5.54477 16.9227C5.50239 16.9718 5.41762 16.9508 5.35405 16.9508C5.18455 16.9508 4.98678 16.9508 4.82434 16.9437C4.82436 16.9016 4.94441 16.9156 4.97974 16.8805C5.0433 16.8173 5.02919 16.5644 5.02919 16.4239V15.4191C5.02919 15.2575 5.04329 15.0257 4.97974 14.9695C4.9303 14.9274 4.8314 14.9555 4.82434 14.9203C4.82434 14.9133 4.82438 14.9063 4.83144 14.9063Z" fill="black"/>
<path fill-rule="evenodd" clip-rule="evenodd" d="M17.9684 14.8993C18.5616 14.9133 19.3103 14.7869 19.3738 15.3349C19.4162 15.651 19.1973 15.8337 19.0348 16.0093C19.1478 16.1639 19.2821 16.3185 19.4162 16.4801C19.5928 16.6838 19.7482 16.9016 20.1084 16.9227C20.0731 16.9718 19.9883 16.9508 19.9247 16.9508C19.6846 16.9508 19.5292 16.9367 19.4021 16.8103C19.1902 16.6065 18.9995 16.2693 18.8159 16.0796C18.6817 16.0796 18.5687 16.0656 18.4345 16.0726C18.4204 16.2131 18.4204 16.3536 18.4274 16.5011C18.4345 16.6346 18.4204 16.8172 18.4768 16.8735C18.5333 16.9297 18.6181 16.8946 18.7029 16.9227C18.6605 16.9718 18.5828 16.9508 18.5192 16.9508C18.3568 16.9508 18.159 16.9508 17.9966 16.9437C17.9825 16.9016 18.1025 16.9156 18.1378 16.8945C18.2226 16.6838 18.2014 16.3325 18.2014 15.9601V15.4473C18.2014 15.2927 18.2297 15.0679 18.1661 14.9906C18.1167 14.9274 17.9825 14.9554 17.9542 14.9063C17.9613 14.9063 17.9613 14.8993 17.9684 14.8993ZM19.1337 15.4191C19.0984 15.0889 18.8017 14.8922 18.4345 15.0047C18.4133 15.2997 18.4345 15.63 18.4274 15.9321C18.5899 16.0093 18.7735 16.0163 18.943 15.9601C19.1055 15.8758 19.1549 15.6088 19.1337 15.4191Z" fill="black"/>
<path d="M15.002 14.8501C15.0726 14.8993 15.0584 14.9976 15.0655 15.0819C15.1149 15.5105 15.1573 15.939 15.2138 16.4027C15.228 16.5432 15.235 16.7821 15.3339 16.8594C15.4045 16.9156 15.5175 16.9016 15.6023 16.9227C15.5246 16.9718 15.3833 16.9438 15.2703 16.9367C15.1715 16.9438 15.0725 16.9367 14.9807 16.9086C14.9807 16.8735 15.0231 16.8805 15.016 16.8383C14.9666 16.3465 14.9171 15.8688 14.8748 15.377C14.5852 15.8758 14.3663 16.4449 14.0696 16.9367C13.9072 16.6979 13.773 16.4449 13.6529 16.185C13.5187 15.925 13.3845 15.6651 13.2574 15.4051C13.2221 15.7143 13.1868 16.1288 13.1515 16.5011C13.1444 16.6135 13.102 16.7891 13.1515 16.8594C13.1868 16.9156 13.2927 16.9016 13.3422 16.9227C13.2716 16.9718 13.1373 16.9367 13.0314 16.9367C12.9255 16.9367 12.8054 16.9789 12.7347 16.9227C12.7701 16.9016 12.8478 16.9156 12.8901 16.8875C12.9749 16.8313 12.982 16.5503 12.9961 16.4098C13.0173 16.2201 13.0455 16.0445 13.0597 15.8969C13.102 15.4965 13.1373 15.1522 13.1797 14.8641C13.1797 14.8571 13.1938 14.8641 13.1938 14.8501C13.2009 14.8501 13.2009 14.8501 13.2009 14.8571H13.215C13.5187 15.4332 13.8154 16.0163 14.1191 16.6065C14.4299 16.0304 14.6912 15.4192 15.002 14.8501Z" fill="black"/>
<path d="M15.567 14.281C15.8354 14.3653 16.1885 14.3442 16.5416 14.3442C16.9513 14.3583 17.3539 14.3442 17.7565 14.3091C17.7635 14.4566 17.7494 14.6112 17.7282 14.7658C17.6717 14.7728 17.6929 14.6534 17.6787 14.6182C17.5799 14.4004 17.0784 14.5129 16.7888 14.4777C16.7959 15.0117 16.7535 15.6932 16.7817 16.3114C16.7888 16.473 16.7747 16.7751 16.8524 16.8524C16.9371 16.9297 17.0855 16.8594 17.142 16.9297C16.8312 16.9578 16.5275 16.9578 16.2167 16.9297C16.2379 16.8805 16.3438 16.9156 16.3933 16.8805C16.4851 16.8173 16.4781 16.5011 16.4781 16.3395V14.4918C16.2026 14.5058 15.8354 14.4215 15.6376 14.5339C15.5387 14.5901 15.5458 14.6815 15.461 14.7447C15.454 14.5831 15.4893 14.4286 15.567 14.281Z" fill="black"/>
<path fill-rule="evenodd" clip-rule="evenodd" d="M23.6469 14.836C23.7457 14.836 23.7952 14.8852 23.7952 14.9625C23.8023 15.0187 23.7599 15.0749 23.6963 15.0749H23.6893L23.8023 15.2506H23.7175L23.6115 15.0749H23.5551V15.2506H23.4774V14.836H23.6469ZM23.5621 15.0187H23.6186C23.6681 15.0187 23.7175 15.0187 23.7175 14.9625C23.7175 14.9063 23.6681 14.9063 23.6186 14.9063H23.5621V15.0187Z" fill="black"/>
<path fill-rule="evenodd" clip-rule="evenodd" d="M23.6257 14.6814C23.8305 14.6814 24 14.8501 24 15.0538C24 15.2576 23.8305 15.4262 23.6257 15.4262C23.4209 15.4262 23.2514 15.2576 23.2514 15.0538C23.2584 14.8431 23.4209 14.6814 23.6257 14.6814ZM23.6257 14.7517C23.4562 14.7517 23.322 14.8852 23.322 15.0538C23.322 15.2154 23.4562 15.3559 23.6257 15.3559C23.7952 15.3559 23.9294 15.2225 23.9294 15.0538C23.9294 14.8852 23.7952 14.7517 23.6257 14.7517Z" fill="black"/>
<path fill-rule="evenodd" clip-rule="evenodd" d="M8.53944 8C8.59594 8.02108 8.65244 8.0492 8.70188 8.08432C8.80782 8.07729 8.98441 8.01407 9.06916 8.08432C9.01266 8.18268 8.87841 8.21079 8.7654 8.25997C8.76541 8.30913 8.80076 8.3302 8.80782 8.37235H9.07619C9.13976 8.32317 9.16803 8.23889 9.23159 8.18971C9.31634 8.19674 9.37993 8.21781 9.45762 8.22484V8.38641C9.57061 8.42155 9.6765 8.50584 9.59177 8.63931C9.69065 8.73767 9.80367 8.64637 9.88842 8.59719C9.97317 8.53396 10.072 8.49183 10.178 8.4848C10.2133 8.51993 10.178 8.57609 10.1851 8.63931C10.2769 8.66038 10.3969 8.58314 10.3263 8.4848C10.4888 8.44265 10.6018 8.30912 10.8066 8.33722C10.8419 8.40748 10.8136 8.4918 10.743 8.52693C10.7362 8.52694 10.7294 8.53346 10.7289 8.53393C10.7431 8.56203 10.7572 8.59015 10.7642 8.61825C10.8843 8.66741 10.969 8.56911 11.0538 8.55506C11.1809 8.54101 11.301 8.62528 11.4211 8.65338C11.407 8.73066 11.3292 8.73773 11.2657 8.76583C11.2798 8.7939 11.3222 8.7939 11.3363 8.81496C11.4634 8.73065 11.633 8.7166 11.7742 8.77983C11.6965 8.86414 11.5764 8.90629 11.4634 8.88521C11.4352 8.94142 11.3575 8.98361 11.3858 9.06792C11.4493 9.07493 11.527 8.98361 11.633 8.96254C11.7954 8.92741 12.0073 8.92741 12.0709 9.03279C12.0638 9.06791 12.0355 9.08195 12.0285 9.11005C11.979 9.08898 11.9296 9.07495 11.8802 9.04686C11.8095 9.07496 11.746 9.10302 11.6824 9.13111C11.6189 9.21542 11.5623 9.30681 11.5058 9.39815C11.5624 9.45434 11.746 9.5105 11.8095 9.42621C11.7883 9.30677 11.866 9.19439 11.9861 9.17331C12.0285 9.15927 12.0497 9.23651 12.092 9.25056C12.085 9.29974 12.0143 9.29273 11.9931 9.33489C12.1414 9.39109 12.1627 9.23654 12.2615 9.19437C12.2968 9.22248 12.3463 9.23653 12.3746 9.26463C12.3746 9.39109 12.2333 9.37003 12.2262 9.48947C12.3957 9.60187 12.6076 9.44732 12.6429 9.29276C12.7913 9.29276 12.8265 9.42624 12.7912 9.55972C12.7559 9.56675 12.7206 9.5808 12.6853 9.59485C12.7065 9.74941 12.8125 9.83371 12.9961 9.79156V9.68617C13.1232 9.63699 13.2927 9.55271 13.441 9.64405C13.4057 9.73536 13.2927 9.81965 13.2291 9.90394C13.3633 9.93907 13.4975 9.98125 13.6317 10.0375V10.1218C13.547 10.1358 13.3987 10.1499 13.3845 10.0585C13.3351 10.0585 13.2857 10.0586 13.2362 10.0656C13.1868 10.1358 13.2292 10.1709 13.2433 10.2482C13.1585 10.2763 13.0879 10.3185 13.0102 10.3536C13.0102 10.3887 13.0314 10.4239 13.0173 10.4379C12.9537 10.466 12.8831 10.4801 12.876 10.5714C12.9819 10.5925 13.095 10.5644 13.1727 10.4941C13.2503 10.445 13.321 10.4028 13.328 10.3044C13.4057 10.3185 13.5046 10.3115 13.5823 10.3326C13.66 10.2904 13.7377 10.2482 13.8083 10.199C13.8436 10.2201 13.886 10.2412 13.9213 10.2623C13.8789 10.3044 13.8083 10.3185 13.773 10.3677C13.8578 10.5011 14.2179 10.2764 14.2179 10.5223C14.1403 10.5363 14.0626 10.5504 13.9849 10.5574C14.0131 10.6557 14.1332 10.6627 14.2109 10.7119C14.4087 10.6417 14.6347 10.6909 14.7759 10.8454C14.7265 10.8735 14.67 10.8946 14.6135 10.9087C14.7053 10.9297 14.8183 10.9368 14.9101 10.9508C14.9383 11.014 14.9807 11.0562 15.009 11.1264C14.9525 11.1686 14.8748 11.1827 14.896 11.3021C14.8536 11.281 14.8183 11.267 14.7759 11.26C14.7477 11.2951 14.7335 11.3513 14.6912 11.3723C14.5428 11.3864 14.5146 11.288 14.444 11.2178C14.4652 11.1756 14.5004 11.1405 14.5216 11.1054C14.4651 11.0843 14.4086 11.0702 14.3451 11.0632C14.3097 11.0983 14.3027 11.1615 14.2744 11.2037C14.3027 11.2599 14.3027 11.3161 14.3239 11.3583C14.3804 11.4566 14.5216 11.4918 14.4863 11.6393C14.4228 11.6534 14.3592 11.6674 14.2957 11.6744C14.2745 11.6463 14.2391 11.6253 14.2533 11.5621C14.2109 11.555 14.1897 11.5269 14.1332 11.5339C14.0837 11.6182 14.0908 11.6956 13.9849 11.6815C13.8719 11.6675 13.8577 11.5059 13.8083 11.4215C13.7589 11.4496 13.7165 11.4918 13.6741 11.5339C13.6812 11.5691 13.6953 11.6042 13.7165 11.6393C13.5541 11.6604 13.3846 11.6042 13.2716 11.6815C13.2362 11.7166 13.2221 11.7798 13.1868 11.815C13.0879 11.822 12.989 11.7939 12.9043 11.7377C12.9325 11.7096 12.9678 11.6885 13.0031 11.6744C13.0031 11.6182 13.0102 11.562 13.0173 11.5129C12.989 11.4496 12.9254 11.4286 12.8972 11.3723C12.8124 11.4918 12.5653 11.6674 12.53 11.3793C12.4523 11.3512 12.3887 11.4355 12.311 11.4496C12.1627 11.4707 12.0285 11.3934 11.9013 11.4496C11.7954 11.4988 11.7813 11.6042 11.6753 11.6464C11.6612 11.7447 11.5764 11.822 11.4776 11.829C11.414 11.836 11.3504 11.7869 11.2798 11.815C11.188 11.8431 11.1173 11.9414 11.0255 12.0047C10.9266 12.096 10.7995 12.1592 10.6653 12.1873C10.5312 12.2014 10.404 12.1662 10.2345 12.1873C10.1074 12.2014 10.0367 12.3138 9.9096 12.3841C9.68359 12.5105 9.37989 12.5105 9.18214 12.5948C9.11152 12.7354 9.08329 12.897 9.10447 13.0515C9.11154 13.0866 9.13273 13.1218 9.13979 13.1639C9.16804 13.3114 9.14684 13.3817 9.30222 13.3957C9.65536 13.4379 10.0721 13.4028 10.4393 13.4309C10.7925 13.459 11.1951 13.459 11.5482 13.4801C12.6429 13.5644 13.7377 13.6346 14.7688 13.7681C15.1078 13.7962 15.4398 13.8524 15.7718 13.9227C15.5811 13.9297 15.3904 13.9227 15.2067 13.8875C14.1968 13.7962 13.1374 13.74 12.0709 13.6978C8.32756 13.5503 4.22398 13.6205 0.713744 13.9437C0.727873 13.9016 0.784374 13.9086 0.819686 13.9016C1.41297 13.7962 2.04865 13.74 2.68431 13.6768C3.58129 13.5925 4.49239 13.5152 5.42468 13.466C5.60831 13.459 5.8202 13.452 6.01089 13.4379C6.43466 13.4028 6.92909 13.3958 7.34579 13.3395C7.43055 13.3255 7.55765 13.2903 7.56472 13.206C7.57177 13.1639 7.55064 13.1006 7.55064 13.0304C7.55065 12.925 7.58593 12.8196 7.55768 12.7424C7.51531 12.63 7.26813 12.5878 7.18336 12.5105C7.03504 12.5035 6.90787 12.5597 6.75249 12.5527C6.64656 12.5456 6.54063 12.4895 6.44176 12.4895C6.31464 12.4895 6.19456 12.5597 6.06744 12.5597C5.905 12.5597 5.74253 12.5386 5.58008 12.5316C5.43176 12.5246 5.29049 12.5175 5.14217 12.4965C4.99385 12.4754 4.83846 12.3981 4.68308 12.3841C4.5277 12.37 4.3723 12.4262 4.20986 12.3981C4.111 12.384 4.0192 12.2786 3.91327 12.2576C3.76495 12.2435 3.61658 12.2505 3.46826 12.2716C3.3482 12.3068 3.27051 12.4613 3.10808 12.4824C2.91738 12.5105 2.79022 12.4332 2.62072 12.37C2.57129 12.3981 2.55011 12.4403 2.50774 12.4754C2.28173 12.4473 2.30289 12.1592 2.02037 12.1803C1.90032 12.1873 1.82968 12.2787 1.71668 12.3138L1.53308 12.1944C1.60371 11.8642 1.21523 11.9555 1.13048 12.089V12.2506C1.06691 12.2576 0.98216 12.2084 0.918594 12.2154C0.88328 12.2225 0.840875 12.2716 0.784372 12.2857C0.650172 12.3138 0.367735 12.2786 0.34653 12.1803C0.318279 12.0468 0.494823 12.0398 0.494823 11.9203C0.494815 11.836 0.39594 11.8571 0.445369 11.7588C0.33943 11.7728 0.233466 11.7517 0.148715 11.6885C0.205214 11.5972 0.275854 11.5129 0.360601 11.4426C0.311159 11.3794 0.155833 11.4215 0.0640159 11.4005C0.00752016 11.2951 0.0781011 11.2248 0.12754 11.1546C0.0864828 11.1069 -0.00100661 11.0922 8.76235e-06 11.0147L0.000836441 10.9993C0.00958476 10.9214 0.151367 10.9001 0.233483 10.8524C0.311173 10.7962 0.374755 10.726 0.424194 10.6416C0.501885 10.6697 0.579591 10.6346 0.614905 10.5644C0.692588 10.5784 0.749105 10.5995 0.826791 10.6136C0.840916 10.5855 0.798539 10.5503 0.791476 10.5152C0.819728 10.459 0.862123 10.4098 0.911559 10.3747C0.960998 10.4168 1.03162 10.445 1.07399 10.4871C1.15874 10.445 1.2576 10.452 1.32823 10.5152C1.39885 10.4801 1.45536 10.4379 1.52597 10.4028C1.47653 10.3536 1.40595 10.3115 1.42713 10.2131C1.46245 10.0445 1.85792 10.1218 2.05569 10.0305C2.11924 10.0024 2.1334 9.94614 2.17577 9.91101C2.27464 9.89696 2.38059 9.89694 2.47946 9.91801C2.55715 9.86883 2.62782 9.81264 2.69845 9.75643C2.66313 9.70725 2.61365 9.71425 2.55009 9.7283C2.57127 9.69317 2.58542 9.65804 2.59954 9.62291C2.73373 9.62291 2.86796 9.58779 2.98096 9.51753C2.92446 9.60184 2.91033 9.70726 2.94565 9.80562C3.04452 9.7705 3.13632 9.7213 3.2352 9.68617C3.2352 9.64402 3.17163 9.60189 3.12925 9.57379V9.43327C3.20694 9.3841 3.34115 9.38407 3.42591 9.27869C3.48241 9.20844 3.49654 9.10307 3.60248 9.11712C3.68723 9.12415 3.71549 9.20843 3.70842 9.33489H3.89203C3.8779 9.59483 3.44711 9.28571 3.46122 9.56672C3.62367 9.65806 3.83554 9.63697 3.9768 9.51753C4.07567 9.53158 4.18867 9.52459 4.28049 9.54566C4.31579 9.52459 4.34407 9.50351 4.36525 9.4684C4.224 9.4122 4.04745 9.38407 3.99094 9.24357C4.04744 9.23654 4.10397 9.22949 4.12516 9.18031C4.13221 9.12413 4.04749 9.15922 4.04039 9.11712C4.05452 9.05389 4.1181 9.03983 4.16047 9.01173C4.16754 8.86419 3.95561 8.90635 3.87085 8.94147C3.68016 8.87122 3.86381 8.55501 4.02625 8.60418C4.08981 8.61823 4.08984 8.70957 4.11102 8.77983C4.17457 8.7447 4.22403 8.68853 4.28759 8.64638C4.47826 8.68152 4.34411 8.85011 4.30173 8.94847C4.37235 8.94145 4.45003 8.92739 4.52065 8.91334C4.4924 8.86417 4.47828 8.80797 4.48534 8.75177C4.5489 8.70962 4.62657 8.68851 4.70426 8.68851C4.7537 8.66743 4.78198 8.61826 4.80317 8.56206C4.92323 8.63934 5.02211 8.73768 5.14217 8.81496C5.14923 8.85711 5.13515 8.91333 5.14927 8.93441C5.19164 8.94142 5.23398 8.93439 5.26929 8.92034C5.31873 8.95547 5.36821 8.99764 5.41765 9.03979C5.46708 9.01169 5.50947 8.98361 5.55891 8.96254C5.51653 8.87824 5.46708 8.80095 5.41765 8.7307C5.33996 8.71665 5.28345 8.68852 5.20576 8.66744C5.15632 8.59016 5.09982 8.51286 5.02919 8.44261H4.85262C4.87381 8.37939 4.90204 8.32318 4.93028 8.25997C5.04329 8.31617 5.29757 8.23186 5.33288 8.36535C5.44589 8.35833 5.60128 8.38643 5.66485 8.33022C5.66485 8.23889 5.58713 8.21777 5.60125 8.11238C5.67188 8.07726 5.75663 8.07028 5.83432 8.08432C5.86962 8.12647 5.84143 8.16158 5.84142 8.21777C5.93324 8.25289 6.1733 8.17564 6.15214 8.28803C6.14508 8.35126 6.06742 8.31615 6.00385 8.33722C5.99679 8.40045 6.05331 8.39347 6.05331 8.44967C5.98269 8.53398 6.00387 8.68854 6.01799 8.82202C6.06037 8.82201 6.131 8.77281 6.19456 8.75876C6.10275 8.6323 6.17339 8.51289 6.2087 8.36535H6.39231C6.44175 8.28104 6.44176 8.14049 6.54771 8.11238C6.62539 8.14049 6.6819 8.19673 6.75959 8.22484C6.70309 8.33022 6.60417 8.40048 6.5406 8.50587C6.6748 8.66746 6.9432 8.47071 7.01383 8.37235C6.98557 8.33021 6.92199 8.32315 6.89374 8.28803C6.95732 8.1405 7.20455 8.2459 7.32462 8.28103C7.39524 8.2459 7.4376 8.18264 7.50823 8.14751C7.58592 8.20372 7.67775 8.23887 7.76957 8.2459C7.77663 8.3021 7.76955 8.3583 7.75543 8.40748C7.88962 8.42153 7.88256 8.3021 7.96731 8.26696C8.07325 8.33019 8.19332 8.35129 8.30632 8.33022C8.34869 8.2389 8.27104 8.1897 8.20748 8.17564C8.31342 8.11241 8.42644 8.0562 8.53944 8ZM6.27223 12.2295C6.13804 12.2014 6.02503 12.089 5.82728 12.1311C5.7849 12.1873 5.76371 12.2576 5.72134 12.3068C5.60834 12.3208 5.50241 12.3419 5.39647 12.377C5.62954 12.37 5.86262 12.4332 6.08862 12.4121C6.22281 12.3981 6.32171 12.3349 6.4559 12.3419C6.64659 12.3559 6.83024 12.4402 6.98562 12.3419C6.85142 12.1943 6.49824 12.2787 6.27223 12.2295ZM3.68725 11.9203C3.53187 11.829 3.41884 12.0538 3.24934 12.0749C3.09395 12.096 3.04449 12.0258 2.90323 11.9977C2.82556 12.0749 2.78321 12.1944 2.71259 12.2787C2.8397 12.3068 2.94565 12.377 3.07277 12.3559C3.19989 12.3349 3.26346 12.1873 3.41177 12.1592C3.53889 12.1311 3.63072 12.1592 3.78609 12.1311C3.75078 12.0538 3.7508 11.9625 3.68725 11.9203ZM4.7184 11.6464C4.62659 11.6253 4.54185 11.6323 4.46416 11.6464C4.42888 11.7658 4.59835 11.8361 4.49948 11.9625C4.37235 11.9977 4.25931 11.8923 4.18868 11.822C4.20281 11.7869 4.23812 11.7307 4.21696 11.6815C4.13222 11.6604 4.04745 11.7166 4.02625 11.8009C4.01919 11.822 4.01919 11.8361 4.02625 11.8571C4.03334 11.9133 4.11102 11.9696 4.11102 12.0187C4.11101 12.0749 4.06154 12.103 4.03329 12.1311C4.15335 12.2716 4.35819 12.2295 4.563 12.2295C4.73251 12.2295 4.88085 12.3068 5.03623 12.3138C5.24104 12.3279 5.45999 12.2225 5.65774 12.2295C5.69306 12.1733 5.71425 12.0889 5.76369 12.0468C5.82019 12.0468 5.86262 12.0328 5.92619 12.0398C5.84143 11.836 5.28345 12.1452 5.31874 11.8431C5.16337 11.815 5.05743 11.7447 4.86676 11.7588C4.8809 11.8079 4.97974 11.8431 5.01505 11.8993C4.92323 11.9485 4.81728 11.9695 4.7184 11.9485C4.62659 11.8712 4.76781 11.7588 4.7184 11.6464ZM11.0821 11.0351C11.0538 11.1054 10.9054 11.1475 10.8843 11.2529C10.8631 11.3583 10.9479 11.4778 10.9267 11.5761C10.8984 11.7096 10.5876 11.7376 10.4746 11.6604C10.4887 11.6182 10.4888 11.5761 10.4888 11.5269C10.404 11.5199 10.3122 11.4918 10.2698 11.555C10.2769 11.5831 10.2839 11.6112 10.2769 11.6393C10.2133 11.6885 10.1144 11.6815 10.065 11.6112C10.0438 11.5902 10.0367 11.562 10.0367 11.5339C10.072 11.5269 10.1074 11.5059 10.1356 11.4707V11.3302H10.065C10.0438 11.3583 10.0579 11.4145 10.0226 11.4285C9.95908 11.4285 9.91665 11.4426 9.86014 11.4426V11.3372C9.74716 11.3162 9.71185 11.3794 9.67654 11.4426C9.76835 11.5199 9.86019 11.6042 9.93788 11.6955C9.8955 11.7166 9.8743 11.7588 9.83193 11.7728C9.53529 11.5831 9.44345 12.0187 9.13268 11.8923C9.10444 12.0117 9.07616 12.1311 9.04792 12.2576C9.17505 12.2365 9.26689 12.1663 9.39402 12.1452C9.52115 12.1241 9.66239 12.1522 9.78952 12.117C9.86721 12.096 9.94494 12.0187 10.0438 11.9836C10.1003 11.9695 10.1568 11.9555 10.2063 11.9485C10.3616 11.9344 10.5947 12.0047 10.7289 11.9344C10.7854 11.9063 10.8278 11.7939 10.8843 11.7588C10.9125 11.7447 10.962 11.7447 11.0043 11.7236C11.0397 11.7096 11.075 11.6674 11.1103 11.6534C11.2233 11.6042 11.3363 11.569 11.4564 11.555C11.4917 11.4637 11.4705 11.3653 11.5199 11.3021C11.5482 11.2599 11.6329 11.267 11.6259 11.1967C11.527 11.1405 11.4069 11.1546 11.3222 11.2248C11.3151 11.2529 11.308 11.288 11.308 11.3232C11.2657 11.3302 11.2374 11.3513 11.1951 11.3583C11.1527 11.3161 11.1315 11.2529 11.1527 11.1967C11.2021 11.1686 11.2586 11.1545 11.2374 11.0562C11.1809 11.0702 11.1244 11.0562 11.0821 11.0351ZM5.54477 11.4637C5.48119 11.3864 5.15628 11.3864 5.12803 11.4918C5.26222 11.6042 5.37525 11.7377 5.62243 11.7377C5.64361 11.7728 5.65776 11.815 5.67188 11.8501C5.74957 11.8501 5.80612 11.8642 5.89087 11.8571C6.00387 11.9625 6.14511 12.0398 6.2934 12.0819C6.50529 12.117 6.74547 12.0468 6.93616 12.089C7.04209 12.1101 7.10569 12.1874 7.1975 12.2084C7.141 12.0258 7.02088 11.8782 6.85843 11.7798C6.85137 11.8641 6.78075 11.9274 6.696 11.8782C6.696 11.8431 6.70307 11.7939 6.68896 11.7728C6.55477 11.7377 6.3429 11.7869 6.38527 11.5831C6.32877 11.5129 6.15922 11.4215 6.06034 11.4988C6.05328 11.6744 6.24399 11.6534 6.26519 11.8009C6.25107 11.843 6.18747 11.836 6.13097 11.836C6.06743 11.8009 6.05331 11.7236 6.03213 11.6464C6.01094 11.6464 5.99679 11.6604 5.96854 11.6534C6.01091 11.8641 5.84844 11.8501 5.799 11.7096C5.71426 11.6955 5.64364 11.6534 5.58008 11.5972C5.58008 11.548 5.56595 11.5058 5.54477 11.4637ZM8.4335 11.4707C8.36994 11.4637 8.2922 11.4566 8.21451 11.4637C8.18626 11.5409 8.15805 11.6112 8.11567 11.6815C8.13685 11.7166 8.15096 11.7588 8.15802 11.8009C8.00264 11.8782 7.82606 11.8992 7.64948 11.8711C7.67773 11.9344 7.78368 11.9906 7.82606 12.0679C7.97437 12.1101 8.12976 12.1873 8.34163 12.1452C8.43345 12.0047 8.55357 11.8922 8.61007 11.7306C8.56064 11.7236 8.51119 11.7096 8.46882 11.6885C8.46882 11.6042 8.4829 11.5059 8.4335 11.4707ZM2.68431 11.3232C2.35942 11.3091 2.18992 11.4848 2.27468 11.829C2.18287 11.7939 2.09103 11.7518 1.99216 11.7166V11.8641C2.12635 11.9133 2.26761 11.9204 2.40179 11.8993C2.42298 11.9344 2.43708 11.9695 2.44414 12.0117C2.55009 11.9765 2.62077 12.0117 2.71259 11.9765C2.79025 11.9484 2.83263 11.8571 2.90323 11.8431C2.98092 11.829 3.03744 11.8852 3.12925 11.8852C3.12218 11.6042 2.65604 11.6604 2.4936 11.7728C2.50772 11.6956 2.50774 11.6183 2.50774 11.541C2.5713 11.5199 2.61368 11.4847 2.68431 11.4637V11.3232ZM1.79442 11.7096C1.75204 11.6042 1.63193 11.6604 1.57543 11.7518C1.60368 11.7728 1.64609 11.7798 1.65316 11.815C1.63903 11.8993 1.53308 11.8922 1.49776 11.9555C1.61076 12.0257 1.75202 12.0258 1.87208 11.9625C1.87914 11.9204 1.80856 11.8922 1.79442 11.8431C1.78029 11.7939 1.80854 11.7517 1.79442 11.7096ZM1.43417 11.4567C1.32118 11.4637 1.25055 11.562 1.14462 11.5691C1.05987 11.5761 0.953936 11.4778 0.876245 11.5621C0.897445 11.7588 1.10929 11.815 1.29291 11.822C1.29997 11.7799 1.2859 11.7166 1.30002 11.6815C1.42713 11.6955 1.55426 11.6604 1.66019 11.5972C1.58957 11.548 1.51186 11.5058 1.43417 11.4567ZM3.82851 11.6112C3.85676 11.4988 3.44001 11.3794 3.46826 11.548C3.48239 11.6534 3.70844 11.6112 3.82851 11.6112ZM2.10514 11.3583C1.98509 11.3302 1.8721 11.2038 1.7591 11.288V11.4777C1.84384 11.5199 1.92858 11.562 2.02037 11.5901C2.04862 11.5128 2.07689 11.4356 2.10514 11.3583ZM12.3675 11.0913C12.2615 11.0773 12.1556 11.1686 12.0779 11.1756C11.9579 11.1897 11.9296 11.0984 11.8237 11.1264C11.8095 11.274 11.7036 11.3864 11.6753 11.4918C11.7601 11.4496 11.8307 11.3021 11.9296 11.281C12.0497 11.2529 12.3392 11.3583 12.4381 11.267C12.4805 11.2248 12.4805 11.1616 12.4381 11.1194C12.4169 11.0984 12.3957 11.0913 12.3675 11.0913ZM4.28049 10.9016C4.21694 10.8103 4.26637 10.5785 4.08984 10.6768C4.02628 10.8524 3.91325 10.9719 3.63076 10.9297C3.67313 10.9719 3.70844 11.0773 3.77905 11.1054C3.82143 11.1194 3.8709 11.0983 3.91327 11.1124C3.96975 11.1405 3.95563 11.2108 4.02625 11.26C4.19575 11.3794 4.53472 11.2178 4.63363 11.1405C4.66894 11.1124 4.7325 11.0632 4.7184 11.0351C4.5277 10.9859 4.36524 11.0281 4.28049 10.9016ZM12.9537 10.9508C12.8125 11.0351 12.6853 11.1545 12.5935 11.288C12.7418 11.274 12.876 11.2599 12.9537 11.1756C13.0173 11.1897 13.0879 11.2037 13.1515 11.2108C13.1868 11.1756 13.2715 11.1054 13.2574 11.0773C13.1515 11.0562 13.0455 11.014 12.9537 10.9508ZM1.28588 10.6768C1.2435 10.7751 1.18697 10.8665 1.15165 10.9789C1.19403 11.0703 1.26471 11.1616 1.37064 11.1546C1.46246 11.1475 1.63191 10.993 1.70254 10.9649C1.53304 10.9016 1.36357 10.8313 1.28588 10.6768ZM1.0104 10.7752C0.968026 10.6136 0.720915 10.7962 0.720848 10.8524C0.720848 10.8805 0.805571 10.9227 0.833826 10.9508C0.91858 10.9086 1.03865 10.8876 1.0104 10.7752ZM3.44708 10.4801C3.40471 10.5995 3.17166 10.5363 3.05159 10.5925C3.0163 10.6979 3.11517 10.733 3.22816 10.7119C3.29173 10.7541 3.29879 10.8454 3.40473 10.8454V10.733C3.54597 10.726 3.69425 10.7189 3.71546 10.5925C3.63777 10.5293 3.54596 10.4941 3.44708 10.4801ZM10.7077 10.2904C10.7148 10.4168 10.6936 10.5433 10.6442 10.6628C10.6724 10.7049 10.6936 10.7541 10.743 10.7752C10.7995 10.7541 10.849 10.733 10.9055 10.7119C10.8914 10.5503 11.0397 10.5503 11.0821 10.4449C11.0397 10.3536 10.9055 10.3887 10.8278 10.4309C10.7783 10.3957 10.7571 10.3255 10.7077 10.2904ZM7.83316 9.98826C7.82609 9.91801 7.75542 9.91101 7.6848 9.94614C7.67066 10.0094 7.61416 10.0305 7.54354 10.0305C7.5506 9.99533 7.52944 9.98826 7.53651 9.95314C7.45881 9.91098 7.38817 9.96721 7.31048 9.98127C7.39523 10.0867 7.43762 10.2201 7.43056 10.3536C7.64949 10.3747 7.7625 10.4941 7.95317 10.5363C8.03793 10.4941 8.12272 10.4449 8.20748 10.3957C8.30636 10.4168 8.47588 10.4519 8.50413 10.3606C8.53235 10.2623 8.40522 10.2342 8.36991 10.1639C8.39816 10.1358 8.47587 10.1498 8.52531 10.1498C8.54649 10.0936 8.57475 10.0374 8.59593 9.98826C8.48293 9.98124 8.37696 10.0515 8.28514 10.0375C8.20746 10.0234 8.17212 9.95312 8.09443 9.93907C8.045 9.98122 8.03792 10.0655 8.0238 10.1498C8.05911 10.185 8.10857 10.2061 8.14388 10.2342C8.07326 10.2833 8.00969 10.3466 7.932 10.3887C7.84018 10.3536 7.69891 10.3677 7.67066 10.2693C7.69185 10.2552 7.7272 10.2482 7.74839 10.2342C7.74839 10.192 7.72015 10.178 7.71308 10.1358C7.76252 10.0937 7.79784 10.0445 7.83316 9.98826ZM6.93616 9.58779C6.71016 9.60184 6.65363 9.78451 6.56888 9.93907C6.52651 9.89692 6.48411 9.84773 6.4488 9.79856C6.40644 9.80558 6.39231 9.84071 6.34996 9.84775C6.41352 9.90396 6.50528 10.0936 6.38527 10.1147C6.27227 10.1428 6.21574 9.99532 6.12393 9.9672C6.09568 10.0164 6.03208 10.0375 6.01089 10.1007C6.05326 10.1218 6.10273 10.1429 6.14511 10.171C6.12391 10.2131 6.07446 10.2272 6.06034 10.2764C6.16627 10.3255 6.28635 10.3326 6.39934 10.3115C6.39228 10.3607 6.38528 10.4168 6.38527 10.466C6.40646 10.4941 6.44175 10.5012 6.46294 10.5293C6.61832 10.3747 6.99265 10.4379 7.13391 10.2693C7.07741 10.2482 7.02799 10.2061 6.98562 10.1639C7.0633 10.1147 7.16219 10.0937 7.1975 10.0023C7.11981 9.9672 6.96437 9.99529 6.85843 9.98826C6.84431 9.94612 6.83728 9.91096 6.83022 9.86881C6.93615 9.85475 6.95029 9.70019 6.93616 9.58779ZM5.81314 9.99533C5.7637 9.9321 5.55888 9.92506 5.46 9.94614C5.29756 9.97425 5.21988 10.1358 5.22694 10.3044C5.33993 10.3114 5.44588 10.2763 5.53063 10.2061C5.55888 10.2834 5.60127 10.3606 5.65071 10.4239C5.73545 10.4098 5.81314 10.3817 5.90494 10.3747C5.92613 10.2904 5.93322 10.2061 5.93322 10.1218C5.89085 10.1499 5.8414 10.171 5.79197 10.192C5.76371 10.171 5.72843 10.1639 5.7143 10.1288C5.7496 10.0866 5.7849 10.0445 5.81314 9.99533ZM4.28049 9.9742C4.28049 10.0023 4.27342 10.0375 4.24517 10.0515C4.15337 10.0937 4.04745 10.0515 3.94859 10.0656C3.84971 10.0867 3.7649 10.1639 3.68014 10.178C3.71546 10.2342 3.75081 10.2904 3.79319 10.3396C3.95563 10.2974 4.0757 10.2131 4.30877 10.2342C4.36526 10.2693 4.44999 10.3887 4.49237 10.3817C4.49943 10.3326 4.47829 10.2623 4.49948 10.2272C4.59837 10.2553 4.83141 10.2974 4.85965 10.199C4.89496 10.0445 4.44999 9.98123 4.28049 9.9742ZM3.18574 9.9672C3.07978 10.1007 2.62778 10.0024 2.69134 10.2623C2.71962 10.3887 3.13631 10.3606 3.21402 10.2623C3.17871 10.2272 3.14339 10.185 3.10808 10.1428C3.15752 10.1077 3.20696 10.0585 3.24934 10.0093C3.22109 10.0023 3.20693 9.98125 3.18574 9.9672ZM11.979 9.74236C11.9649 9.8899 11.859 9.95314 11.7601 10.0234C11.8166 10.0866 11.8731 10.1569 11.9225 10.2201C11.9931 10.185 12.0002 10.1078 12.0849 10.1007C12.1697 10.0937 12.2686 10.178 12.3463 10.1077C12.3392 10.0445 12.3322 9.98124 12.311 9.91801C12.2262 9.93206 12.1415 9.93912 12.0567 9.92507C12.0144 9.88292 12.0143 9.79857 11.979 9.74236ZM9.29512 9.9672C9.3163 9.7213 9.0126 9.8056 8.87134 9.84775V9.94614C8.92785 9.94614 9.00558 9.91799 9.05502 9.93907C9.04796 9.96717 9.04792 10.0023 9.04792 10.0375C9.1468 10.0234 9.24573 10.0515 9.31636 10.1147C9.37991 10.0936 9.43644 10.0656 9.49293 10.0305C9.4223 10.0164 9.35868 9.9953 9.29512 9.9672ZM4.98677 9.84075C4.97971 9.88993 4.97264 9.95317 4.95146 10.0164C5.0009 10.0375 5.02918 10.0726 5.08568 10.0937C5.12099 10.0656 5.16335 10.0445 5.19866 10.0164C5.18453 9.9321 5.234 9.91802 5.24108 9.85482C5.14926 9.85482 5.07859 9.84075 4.98677 9.84075ZM9.78248 9.41921C9.71185 9.38408 9.63413 9.29976 9.54232 9.37002C9.55644 9.43324 9.57767 9.48241 9.58473 9.55266C9.52117 9.60183 9.45053 9.65102 9.37285 9.69317C9.43641 9.80557 9.52114 9.89693 9.59177 10.0093C9.64827 10.0164 9.71184 10.0304 9.76834 10.0515C9.89547 9.98829 10.0156 9.91099 10.0226 9.7213C9.9732 9.64402 9.8743 9.60889 9.78248 9.65104V9.41921ZM4.54183 9.84775C4.55594 9.72832 4.25934 9.6862 4.14633 9.74943C4.17458 9.80563 4.20991 9.86184 4.25228 9.91101C4.36528 9.91101 4.5277 9.93205 4.54183 9.84775ZM7.53651 9.03279C7.45882 9.07494 7.38113 9.11708 7.30344 9.14518C7.28226 9.20841 7.2469 9.25057 7.22571 9.32082C7.28221 9.3981 7.35288 9.46138 7.40939 9.53866C7.38114 9.64403 7.33874 9.74236 7.28931 9.83369C7.39524 9.82667 7.43764 9.87587 7.51533 9.89694C7.56477 9.81967 7.68482 9.78452 7.65659 9.66511C7.72014 9.64403 7.79779 9.59484 7.79074 9.52459C7.73424 9.48947 7.65657 9.58076 7.60713 9.52459C7.60713 9.42623 7.68483 9.40514 7.71308 9.33489C7.69895 9.26463 7.69186 9.19437 7.6848 9.12411C7.62831 9.09602 7.58593 9.06089 7.53651 9.03279ZM10.3828 9.58779C10.3969 9.44027 10.1498 9.43325 10.1144 9.54566C10.1356 9.5597 10.1638 9.56673 10.178 9.58779C10.1427 9.61588 10.1145 9.64401 10.0933 9.67211C10.1074 9.70021 10.1286 9.72133 10.1356 9.74943C10.3263 9.79861 10.5664 9.8056 10.6512 9.65104C10.5523 9.64402 10.4676 9.62291 10.3828 9.58779ZM5.75665 8.94847C5.72134 9.0117 5.67192 9.06792 5.64367 9.13818C5.65779 9.15925 5.6719 9.18737 5.68602 9.20844C5.65778 9.22248 5.62247 9.2295 5.61539 9.27163C5.58714 9.46835 5.34698 9.44024 5.16334 9.41214V9.48947C5.26929 9.53162 5.38233 9.56676 5.48828 9.60892C5.52358 9.5457 5.573 9.48947 5.62243 9.43327C5.67187 9.44733 5.72135 9.46138 5.77079 9.4684C5.76373 9.42626 5.77076 9.38408 5.77783 9.34895C6.00383 9.3349 6.22982 9.3138 6.25809 9.10305C6.22277 8.99064 5.99682 8.90633 5.99682 9.10305C5.91206 9.05387 5.8414 8.99063 5.75665 8.94847ZM4.64777 8.96254C4.65483 9.02576 4.65481 9.096 4.63363 9.16624C4.66894 9.18732 4.70426 9.20141 4.73957 9.2295C4.80313 9.20843 4.8526 9.16629 4.89497 9.11712C4.88084 9.00471 4.72546 8.98361 4.64777 8.96254ZM9.09033 8.43561C9.04089 8.52694 8.98435 8.61825 8.83603 8.58312C8.82897 8.68148 8.75128 8.69552 8.69477 8.7447C8.83603 8.85008 9.14685 8.80093 9.21042 8.66744C9.1751 8.58314 9.18213 8.4567 9.09033 8.43561ZM7.4376 8.46367C7.40229 8.50582 7.35287 8.54096 7.30344 8.56906C7.24694 8.54095 7.19038 8.50587 7.14094 8.47074C7.0915 8.53396 6.98562 8.57611 7.05624 8.68851C7.16924 8.69553 7.26811 8.71661 7.38111 8.72364C7.45174 8.66743 7.55063 8.63228 7.57182 8.53393C7.52238 8.51285 7.50116 8.46367 7.4376 8.46367Z" fill="black"/>
</svg>
