<svg width="24" height="24" viewBox="0 0 24 24" fill="none" xmlns="http://www.w3.org/2000/svg">
<path d="M11.9998 0C12.8432 0 13.652 0.335016 14.2483 0.931347C14.8446 1.52768 15.1796 2.33648 15.1796 3.17982C15.1796 4.02316 14.8446 4.83196 14.2483 5.42829C13.652 6.02462 12.8432 6.35964 11.9998 6.35964C11.1565 6.35964 10.3477 6.02462 9.75135 5.42829C9.15502 4.83196 8.82001 4.02316 8.82001 3.17982C8.82001 2.33648 9.15502 1.52768 9.75135 0.931347C10.3477 0.335016 11.1565 0 11.9998 0ZM11.9998 4.8113C12.4325 4.8113 12.8475 4.63941 13.1535 4.33345C13.4594 4.02749 13.6313 3.61251 13.6313 3.17982C13.6313 2.74712 13.4594 2.33215 13.1535 2.02619C12.8475 1.72022 12.4325 1.54834 11.9998 1.54834C11.5671 1.54834 11.1522 1.72022 10.8462 2.02619C10.5402 2.33215 10.3683 2.74712 10.3683 3.17982C10.3683 3.61251 10.5402 4.02749 10.8462 4.33345C11.1522 4.63941 11.5671 4.8113 11.9998 4.8113ZM11.1837 24V9.54026H12.8152V24H11.1837Z" fill="black"/>
</svg>
