<svg width="24" height="24" viewBox="0 0 24 24" fill="none" xmlns="http://www.w3.org/2000/svg">
<g clip-path="url(#clip0_1779_733)">
<path fill-rule="evenodd" clip-rule="evenodd" d="M17.9994 6.00012C17.9994 2.68606 15.3138 0 11.9994 0C8.68601 0 5.99938 2.68606 5.99938 6.00012H17.9994ZM5.99938 17.9999C5.99938 14.6865 8.68601 11.9998 11.9994 11.9998C8.68601 11.9998 5.99938 9.31417 5.99938 6.00012C2.68601 6.00012 0 8.68634 0 11.9998C0 15.3143 2.68601 17.9999 5.99938 17.9999ZM5.99938 17.9999C5.99938 21.3144 8.68601 24 11.9994 24C15.3138 24 17.9994 21.3144 17.9994 17.9999H5.99938ZM11.9994 11.9998C15.3138 11.9998 17.9994 14.6865 17.9994 17.9999C21.3134 17.9999 24 15.3143 24 11.9998C24 8.68634 21.3134 6.00012 17.9994 6.00012C17.9994 9.31417 15.3138 11.9998 11.9994 11.9998Z" fill="black"/>
</g>
<defs>
<clipPath id="clip0_1779_733">
<rect width="24" height="24" fill="white"/>
</clipPath>
</defs>
</svg>
