<svg width="20" height="20" viewBox="0 0 20 20" fill="none" xmlns="http://www.w3.org/2000/svg">
<g clip-path="url(#clip0_822_5096)">
<path d="M17.9518 5.44968L17.5542 4.76495C17.4438 4.56616 17.2008 4.49989 17.002 4.61033C16.9799 4.63242 16.9358 4.65451 16.9137 4.6766L16.008 5.58221C15.8755 5.71474 15.8534 5.93562 15.9639 6.09024C16.2952 6.59826 16.5603 7.15047 16.759 7.72476C18.0181 11.4576 16.008 15.4998 12.2752 16.7588C11.5462 17.0018 10.7732 17.1343 10.0001 17.1343C8.82941 17.1343 7.68083 16.8471 6.66478 16.2949L8.21094 14.7488C10.8394 15.7427 13.7771 14.4175 14.7711 11.789C15.2571 10.4858 15.1908 9.02796 14.5944 7.76893C14.5061 7.57014 14.2631 7.48179 14.0422 7.57014C13.998 7.59223 13.9539 7.61432 13.9318 7.65849L13.0041 8.56411C12.8936 8.67455 12.8715 8.80707 12.8936 8.9396L12.982 9.27093C13.3575 10.9054 12.3414 12.5621 10.7069 12.9376C9.95591 13.1143 9.16073 13.0038 8.49809 12.6062L8.1005 12.3633C7.94589 12.2749 7.74709 12.297 7.61456 12.4295L3.85958 16.1845C3.70497 16.3391 3.70497 16.6042 3.85958 16.7588C3.88167 16.7809 3.88167 16.7809 3.90376 16.803L4.45596 17.2226C6.02422 18.5038 7.99006 19.1664 10.0001 19.1664C15.0583 19.1664 19.1666 15.058 19.1666 9.97775C19.1666 8.3874 18.747 6.84123 17.9518 5.44968Z" fill="white"/>
<path d="M15.5661 2.73283C13.9757 1.4959 12.0099 0.833252 9.99988 0.833252C4.9417 0.833252 0.833313 4.94164 0.833313 10.0219C0.833313 11.6123 1.25299 13.1805 2.02607 14.55L2.42366 15.2347C2.5341 15.4335 2.77707 15.4998 2.97586 15.3893C2.99795 15.3672 3.04212 15.3451 3.06421 15.3231L3.96983 14.4174C4.10235 14.2849 4.12444 14.064 4.014 13.9094C3.68268 13.4014 3.41762 12.8492 3.21883 12.2749C1.95981 8.54201 3.96983 4.49988 7.70272 3.24086C8.43162 2.99789 9.20471 2.86536 9.97779 2.86536C11.1485 2.86536 12.297 3.1525 13.3131 3.70471L11.7669 5.25088C9.13844 4.25691 6.20073 5.5822 5.20676 8.21068C4.98588 8.78497 4.87544 9.40344 4.87544 10.0219C4.87544 10.1103 4.89753 10.4858 4.89753 10.552C4.96379 11.1263 5.11841 11.7006 5.38347 12.2307C5.47182 12.4295 5.71479 12.5179 5.93567 12.4295C5.97984 12.4074 6.02402 12.3853 6.04611 12.3412L6.97381 11.4135C7.08425 11.303 7.10634 11.1705 7.08425 11.038L7.01799 10.7066C6.64249 9.07212 7.65854 7.41551 9.29306 7.04001C10.0441 6.86331 10.8392 6.97375 11.5019 7.37134L11.8995 7.6143C12.0541 7.70266 12.2529 7.68057 12.3854 7.54804L16.1404 3.79306C16.295 3.63844 16.295 3.37339 16.1404 3.21877C16.1183 3.19668 16.1183 3.19668 16.0962 3.17459L15.5661 2.73283Z" fill="white"/>
</g>
<defs>
<clipPath id="clip0_822_5096">
<rect width="20" height="20" fill="white"/>
</clipPath>
</defs>
</svg>
