<svg width="24" height="24" viewBox="0 0 24 24" fill="none" xmlns="http://www.w3.org/2000/svg">
<path d="M8.07509 16.458C9.33275 18.6677 11.711 20.8579 15.709 20.9718C18.491 20.9718 20.762 19.8295 22.4667 17.7727C22.7513 17.3724 23.091 16.8582 23.2609 16.458H23.4889C21.6486 20.8909 17.4539 23.946 12.7332 24H12.4709C10.4265 23.943 8.55342 23.5428 6.73548 22.5144C6.73548 22.5144 3.15769 20.8579 1.45449 16.458H8.07509Z" fill="black"/>
<path d="M8.09894 16.458H8.07509C8.06416 16.439 8.05323 16.42 8.0423 16.401L8.09894 16.458Z" fill="black"/>
<path fill-rule="evenodd" clip-rule="evenodd" d="M6.68034 9.37169C8.04307 9.31476 8.0438 10.5142 8.0438 10.5155V13.4298C8.04406 13.4326 8.15533 14.6291 6.68034 14.6291H2.42008C1.45449 14.6291 1 13.944 1 13.4298V10.5155C1.07905 10.12 1.27859 9.84625 1.52081 9.66616C1.80402 9.45495 2.14595 9.37169 2.42158 9.37169H6.68034ZM3.77034 10.9145C3.21581 10.8677 3.21581 11.43 3.21581 11.43V12.5153C3.21581 12.5155 3.21582 12.5205 3.21628 12.5294C3.21659 12.5355 3.21711 12.5434 3.21798 12.5528C3.21928 12.5669 3.22135 12.5845 3.22467 12.6046C3.22634 12.6146 3.22832 12.6253 3.23067 12.6365C3.2424 12.6923 3.26337 12.761 3.30093 12.8276C3.30593 12.8365 3.31125 12.8454 3.31686 12.8542C3.34914 12.9047 3.39172 12.9529 3.44791 12.9922C3.4528 12.9956 3.4578 12.9989 3.46289 13.0022C3.47308 13.0088 3.48368 13.015 3.49473 13.021C3.50025 13.0239 3.50588 13.0268 3.51162 13.0296C3.54034 13.0437 3.57186 13.0556 3.60643 13.0648C3.61334 13.0666 3.62037 13.0684 3.62753 13.07C3.64185 13.0733 3.65668 13.0761 3.67201 13.0784C3.67968 13.0796 3.68747 13.0806 3.6954 13.0815C3.72314 13.0848 3.75249 13.0865 3.78354 13.0865H5.3735C5.41702 13.0865 5.45713 13.0844 5.49406 13.0803C5.50462 13.0791 5.51491 13.0777 5.52494 13.0762C5.56509 13.07 5.60117 13.0611 5.63352 13.0492C5.64564 13.0448 5.65724 13.0399 5.66834 13.0346C5.83108 12.9573 5.88461 12.7905 5.88461 12.5153C5.88461 12.2149 5.92796 11.7401 5.9388 11.5497C5.93996 11.5294 5.94075 11.5122 5.94107 11.4989C5.94118 11.4945 5.94123 11.4905 5.94123 11.4869C5.88593 11.1517 5.66863 10.9266 5.39341 10.9162C5.3912 10.9161 5.38899 10.916 5.38677 10.9159L5.3735 10.9158H3.78354L3.77034 10.9145Z" fill="black"/>
<path d="M11.3936 9.37319C11.8466 10.0583 12.1878 10.5155 12.4724 10.9727C12.8122 10.4585 13.0402 10.1152 13.5513 9.37319H16.1068C15.3677 10.3431 14.6301 11.373 14.119 12.0011C14.8 12.9156 15.4244 13.7731 16.1068 14.6291H13.4947C13.1534 14.1149 12.8688 13.6576 12.4724 13.0865C12.1878 13.5437 11.7333 14.1718 11.3936 14.6291H8.83803C9.46239 13.7731 10.1434 12.8586 10.8244 12.0011C10.2 11.2006 9.40577 10.2292 8.83803 9.37319H11.3936Z" fill="black"/>
<path d="M20.3656 10.9158C20.763 10.4011 21.1603 9.88688 21.5577 9.37319H24C22.9778 10.6864 21.8423 12.1151 21.4444 12.6293V14.6291H19.2301V12.6293C18.7756 12.0011 17.1857 10.0013 16.7312 9.37319H19.172L20.3656 10.9158Z" fill="black"/>
<path d="M16.8132 7.54427C16.8231 7.56326 16.8335 7.58225 16.8444 7.60123L16.7878 7.54427H16.8132Z" fill="black"/>
<path d="M12.2459 0.000749511C12.3214 -0.000249841 12.3964 -0.000249833 12.4709 0.000749511C14.5154 0.114682 16.39 0.514953 18.2064 1.48638C18.2099 1.48802 21.7284 3.14508 23.4889 7.54278H16.8132C15.6091 5.39006 13.2309 3.19835 9.2344 3.02895C6.39572 3.02895 4.17991 4.22974 2.4767 6.22955C2.19209 6.62981 1.85235 7.14402 1.62437 7.54278H1.45449C3.29925 3.09942 7.51034 0.0412255 12.2459 0.000749511Z" fill="black"/>
</svg>
