<svg width="20" height="20" viewBox="0 0 20 20" fill="none" xmlns="http://www.w3.org/2000/svg">
<path d="M9.31094 7.75383C9.58438 7.75383 9.84533 7.79387 10.0943 7.87466C10.3433 7.95511 10.5627 8.07447 10.7523 8.23229C10.9414 8.39009 11.092 8.58314 11.2042 8.81062C11.3164 9.03853 11.3725 9.29977 11.3725 9.59433C11.3725 9.83983 11.3375 10.0586 11.267 10.2516C11.1973 10.4443 11.0986 10.6197 10.9726 10.7776C10.8466 10.935 10.6972 11.0808 10.5256 11.2141C10.3536 11.3477 10.1663 11.4732 9.96297 11.5923L11.2565 13.0022C11.3197 12.8831 11.3633 12.7444 11.3878 12.5866C11.4124 12.4288 11.4317 12.2623 11.4458 12.0868C11.46 11.9187 11.4672 11.7539 11.4672 11.5923V11.173H13.3918V12.214H12.5296C12.515 12.5086 12.4768 12.7995 12.414 13.0868C12.3508 13.3748 12.2385 13.6407 12.0773 13.8866L13.4547 15.3799H11.8562L11.3306 14.7907C11.0288 15.0573 10.6975 15.2535 10.3367 15.3799C9.97545 15.5059 9.60166 15.5688 9.21592 15.5688C8.88653 15.5688 8.57092 15.5163 8.26949 15.4109C7.96805 15.3064 7.70538 15.157 7.48092 14.9639C7.25684 14.7712 7.07779 14.5347 6.94449 14.2543C6.8112 13.9739 6.74474 13.6579 6.74473 13.3075C6.74473 12.8447 6.86549 12.4488 7.10759 12.1186C7.3493 11.7892 7.67057 11.5019 8.0701 11.2564C7.9506 11.13 7.84196 11.006 7.7439 10.8827C7.64546 10.7605 7.5615 10.6354 7.4914 10.509C7.42095 10.383 7.36697 10.2496 7.3283 10.1094C7.29002 9.9693 7.27032 9.81156 7.27031 9.6366C7.27031 9.34202 7.325 9.07865 7.43379 8.84728C7.54219 8.61596 7.68766 8.41792 7.86997 8.25324C8.05231 8.08852 8.26814 7.96417 8.51713 7.8799C8.76567 7.79605 9.03024 7.75385 9.31094 7.75383ZM3.02933 7.77553C3.42883 7.77554 3.81266 7.83701 4.18076 7.95958C4.54885 8.08254 4.85944 8.263 5.11148 8.50125C5.3359 8.71151 5.51641 8.94997 5.65315 9.21613C5.7899 9.48273 5.86171 9.7736 5.869 10.0892H4.48077C4.47349 9.95632 4.43989 9.82442 4.38052 9.69495C4.32077 9.56517 4.24531 9.45144 4.15457 9.35304C4.03507 9.22705 3.86707 9.12874 3.64993 9.05826C3.43235 8.98855 3.22189 8.95352 3.01848 8.95352C2.80824 8.95352 2.59264 8.98142 2.37206 9.03732C2.15104 9.09363 1.96306 9.20262 1.80907 9.36389C1.73175 9.44774 1.67058 9.53895 1.62502 9.63734C1.57946 9.73539 1.55694 9.85444 1.55694 9.99459C1.55694 10.2401 1.62698 10.4274 1.76717 10.5572C1.90737 10.6871 2.08961 10.7696 2.31408 10.8045C2.55231 10.8401 2.8204 10.8716 3.11836 10.8991C3.41632 10.9275 3.68799 10.9589 3.93349 10.9938C4.21387 11.0359 4.47869 11.1117 4.72767 11.2201C4.97666 11.3289 5.1939 11.4725 5.38007 11.651C5.56544 11.8303 5.71308 12.0454 5.82186 12.2978C5.92988 12.5503 5.98459 12.8343 5.98459 13.15C5.98458 13.5008 5.92665 13.8018 5.81101 14.0541C5.69534 14.3066 5.5463 14.5242 5.36398 14.7066C5.07672 14.9938 4.72786 15.1993 4.31767 15.3215C3.90741 15.4441 3.47074 15.5052 3.00801 15.5052C2.60815 15.5052 2.21391 15.4477 1.82478 15.332C1.43562 15.2163 1.08681 15.018 0.778468 14.7376C0.553998 14.5342 0.368177 14.2833 0.221083 13.9857C0.0736367 13.6881 1.98436e-05 13.3603 0 13.003H1.3886C1.38862 13.1856 1.42504 13.3555 1.49895 13.5128C1.57248 13.6706 1.66509 13.8058 1.77764 13.9176C1.93853 14.0796 2.13329 14.1857 2.36122 14.2389C2.58913 14.2914 2.81175 14.3175 3.02933 14.3175C3.28863 14.3175 3.53418 14.2878 3.76552 14.2281C3.99686 14.1687 4.18272 14.0655 4.32291 13.9176C4.40716 13.8272 4.47684 13.7307 4.53314 13.6284C4.58945 13.5269 4.61694 13.3851 4.61694 13.2027C4.61693 12.9296 4.52797 12.7245 4.34909 12.5877C4.17023 12.4514 3.96544 12.3617 3.73373 12.3195C3.4813 12.2705 3.20434 12.2351 2.90289 12.2144C2.60142 12.1937 2.32768 12.1612 2.08252 12.119C1.82289 12.0769 1.57941 12.0032 1.35194 11.8983C1.12402 11.793 0.923902 11.6547 0.751908 11.4827C0.580363 11.3111 0.443401 11.1045 0.341912 10.8625C0.240027 10.6208 0.189295 10.3456 0.189286 10.0369C0.189286 9.74229 0.248966 9.47252 0.368098 9.22698C0.487222 8.98145 0.645196 8.76097 0.841688 8.56447C1.08685 8.31893 1.40238 8.12597 1.78812 7.98577C2.17386 7.84557 2.58767 7.77553 3.02933 7.77553ZM17.3706 7.91245C17.798 7.91245 18.1769 7.97035 18.5063 8.08602C18.8361 8.20171 19.1112 8.36286 19.3319 8.56971C19.5529 8.77655 19.7194 9.02707 19.8317 9.32162C19.9439 9.61617 20 9.94211 20 10.2995C20 10.6573 19.9439 10.9831 19.8317 11.2781C19.7194 11.5726 19.5529 11.825 19.3319 12.0352C19.1112 12.2455 18.8361 12.4092 18.5063 12.5245C18.1769 12.6402 17.798 12.6981 17.3706 12.6981H15.7931V15.3694H14.4467V7.91245H17.3706ZM8.83772 12.0771C8.71174 12.1545 8.59589 12.2281 8.49057 12.2978C8.38561 12.3679 8.29195 12.4494 8.21151 12.5402C8.13115 12.6313 8.06815 12.7344 8.02259 12.8503C7.97703 12.9664 7.95415 13.1008 7.95414 13.2555C7.95414 13.4447 7.99096 13.613 8.06449 13.7605C8.13842 13.9076 8.23669 14.0301 8.35927 14.1286C8.48181 14.2266 8.6234 14.2999 8.78498 14.3493C8.94625 14.3983 9.11455 14.4226 9.28999 14.4226C9.51405 14.4226 9.73852 14.3912 9.96297 14.328C10.1874 14.2648 10.3801 14.1425 10.5413 13.9599L8.83772 12.0771ZM15.7934 11.5093H17.3186C17.774 11.5093 18.1075 11.3988 18.3177 11.1778C18.5276 10.9572 18.6331 10.668 18.6331 10.3103C18.6331 9.95257 18.528 9.66168 18.3177 9.43721C18.1075 9.21312 17.774 9.10091 17.3186 9.10091H15.7934V11.5093ZM9.31094 8.83793C9.09379 8.83795 8.90074 8.90262 8.7326 9.03245C8.5645 9.16228 8.48013 9.35679 8.4801 9.61602C8.4801 9.73512 8.503 9.84739 8.54856 9.95232C8.59413 10.0576 8.64988 10.1577 8.71689 10.2523C8.78315 10.3469 8.85859 10.4359 8.94284 10.5206C9.02669 10.6044 9.10753 10.6853 9.18487 10.7622C9.29673 10.6994 9.41072 10.6343 9.52678 10.5677C9.64203 10.5014 9.74539 10.426 9.83653 10.3414C9.92769 10.2571 10.0013 10.1588 10.0576 10.0466C10.1139 9.93514 10.1418 9.80177 10.1418 9.64745C10.1417 9.38826 10.0631 9.18833 9.90536 9.04816C9.74792 8.90796 9.5492 8.83793 9.31094 8.83793ZM19.9192 4.16675V5.31593H0V4.16675H19.9192Z" fill="white"/>
</svg>
