<svg width="20" height="20" viewBox="0 0 20 20" fill="none" xmlns="http://www.w3.org/2000/svg">
<path d="M2.74837 19.5H3.16796C3.24396 19.5 3.31996 19.462 3.3453 19.3987C6.50961 11.3426 9.95258 7.3526 12.1138 4.96333C12.2025 4.862 12.1645 4.78521 12.0378 4.78521H8.17449C8.10522 4.78442 8.03676 4.80017 7.9748 4.83115C7.91284 4.86213 7.85917 4.90744 7.81824 4.96333L5.04897 8.39444C4.64205 8.90269 4.54072 9.37294 4.54072 10.0459V13.553C3.63821 16.0816 3.06663 17.7971 2.64704 19.348C2.62171 19.447 2.65971 19.5 2.74917 19.5M16.6873 1.01131C16.0904 0.376391 13.3964 0.351058 12.1511 0.833977C11.9261 0.924211 11.7162 1.04836 11.5288 1.2021C10.6055 1.99088 9.72723 2.83084 8.89808 3.71804C8.80941 3.80749 8.84741 3.89616 8.97487 3.89616H13.257C13.6505 3.89616 13.8793 4.12495 13.8793 4.51841V9.34761C13.8793 9.47428 13.9806 9.51228 14.0574 9.39828L16.6367 6.03051C17.0562 5.48425 17.1829 5.31959 17.2977 4.55721C17.4497 3.43858 17.3603 1.72302 16.6873 1.01131ZM11.1607 13.8206L12.9269 10.9104C12.96 10.8383 12.9773 10.7601 12.9776 10.6808V5.82784C12.9776 5.70117 12.8889 5.64971 12.8002 5.75105C10.1442 8.7119 8.07316 11.8247 6.15415 15.5733C6.10664 15.6683 6.16681 15.7514 6.28081 15.7134L10.2463 14.4943C10.6936 14.3565 10.9445 14.1768 11.1607 13.8206Z" fill="white"/>
</svg>
