<svg width="20" height="20" viewBox="0 0 20 20" fill="none" xmlns="http://www.w3.org/2000/svg">
<g clip-path="url(#clip0_822_4937)">
<path d="M7.95658 7.90559L9.87267 9.86624C9.91723 9.9108 9.96179 9.93626 9.99998 9.93626C10.0382 9.93626 10.0827 9.9108 10.1273 9.86624L12.0434 7.90559C12.0879 7.86103 12.1134 7.81647 12.1134 7.77828C12.1134 7.71462 12.0816 7.68916 12.0116 7.68916H7.99477C7.92475 7.68916 7.89292 7.72098 7.89292 7.77828C7.88655 7.81647 7.91202 7.86103 7.95658 7.90559ZM19.1666 0.935104C19.1666 0.865081 19.1348 0.833252 19.0712 0.833252C19.033 0.833252 18.9948 0.852349 18.9566 0.890544L17.3842 2.48198V17.5051L18.9566 19.1093C18.9948 19.1475 19.033 19.1666 19.0712 19.1666C19.1348 19.1666 19.1666 19.1348 19.1666 19.0647V0.935104ZM0.833313 19.0647C0.833313 19.1348 0.865142 19.1666 0.928799 19.1666C0.966994 19.1666 1.00519 19.1475 1.04338 19.1093L2.61572 17.5051V2.48198L1.04338 0.890544C1.00519 0.852349 0.960628 0.833252 0.928799 0.833252C0.865142 0.833252 0.833313 0.865081 0.833313 0.935104V19.0647ZM4.92012 4.83094H15.0862L16.5121 3.37955C16.5503 3.34135 16.5694 3.30316 16.5694 3.26497C16.5694 3.20131 16.5376 3.16948 16.4676 3.16948H3.53239C3.46236 3.16948 3.43054 3.20131 3.43054 3.26497C3.43054 3.30316 3.44963 3.34135 3.48783 3.37955L4.92012 4.83094ZM3.48783 16.6203C3.44963 16.6585 3.43054 16.6967 3.43054 16.7349C3.43054 16.7985 3.46236 16.824 3.53239 16.824H16.4612C16.5312 16.824 16.5631 16.7922 16.5631 16.7349C16.5631 16.6967 16.544 16.6585 16.5058 16.6203L15.0798 15.1689H4.92012L3.48783 16.6203ZM14.316 14.3923C14.3541 14.4305 14.3923 14.4496 14.4305 14.4496C14.4942 14.4496 14.5197 14.4177 14.5197 14.3477V5.65212C14.5197 5.58209 14.4878 5.55027 14.4305 5.55027C14.3923 5.55027 14.3541 5.56936 14.316 5.60756L12.8264 7.1226V12.8836L14.316 14.3923ZM7.17359 12.8772V7.1226L5.68401 5.60756C5.64581 5.56936 5.60762 5.55027 5.56942 5.55027C5.50577 5.55027 5.4803 5.58846 5.4803 5.65212V14.3477C5.4803 14.4177 5.51213 14.4496 5.56942 14.4496C5.60762 14.4496 5.64581 14.4305 5.68401 14.3923L7.17359 12.8772Z" fill="white"/>
</g>
<defs>
<clipPath id="clip0_822_4937">
<rect width="20" height="20" fill="white"/>
</clipPath>
</defs>
</svg>
