<svg width="24" height="24" viewBox="0 0 24 24" fill="none" xmlns="http://www.w3.org/2000/svg">
<g clip-path="url(#clip0_1691_143)">
<path d="M12.9704 21.6331C14.3432 23.8343 16.4497 23.8343 17.0414 23.8343H24L15.787 13.9172C11.9764 14.0828 10.0119 16.4734 10.4379 17.4911L12.9704 21.6331Z" fill="black"/>
<path d="M13.6568 10.0828C10.1775 10.0828 7.64496 10.6746 7.64496 12.0237C7.64496 12.5444 7.81064 12.9467 8.23667 13.7278L10.5325 17.5385C10.5325 17.5385 10.2722 17.0178 10.2722 16.426C10.2722 14.1302 12.3077 12.8521 14.6035 12.355C15.2899 12.1893 15.9527 12.1893 16.639 12.1893C17.2308 12.1893 17.7515 12.1893 18.1775 12.355C17.8225 11.3609 17.2308 10.0828 13.6568 10.0828Z" fill="black"/>
<path d="M4.59172 7.71598C5.51479 9.25444 5.86982 9.6568 8.16568 9.6568C9.86982 9.6568 12.497 9.6568 12.497 9.6568L6.53254 2.10651C5.18343 0.497041 4.49704 0.16568 3.21893 0.16568H0L4.59172 7.71598Z" fill="black"/>
</g>
<defs>
<clipPath id="clip0_1691_143">
<rect width="24" height="24" fill="white"/>
</clipPath>
</defs>
</svg>
