<svg width="24" height="24" viewBox="0 0 24 24" fill="none" xmlns="http://www.w3.org/2000/svg">
<path fill-rule="evenodd" clip-rule="evenodd" d="M7.62901 9.80041C8.30029 9.80041 8.79526 10.0015 9.11384 10.4036C9.43243 10.8058 9.59163 11.4889 9.59163 12.4527C9.59162 13.4164 9.41539 14.0861 9.06458 14.4617C8.71187 14.8373 8.13526 15.0251 7.33122 15.0251C7.11128 15.0251 6.87616 15.0062 6.62399 14.9663L6.50454 14.9473V17H5.16767V9.9199H6.49306V10.1893C6.92542 9.92938 7.30284 9.80041 7.62901 9.80041ZM7.36919 10.9956C7.1227 10.9956 6.87431 11.0449 6.62214 11.1454L6.50251 11.1947V13.8053C6.80213 13.8451 7.04312 13.8659 7.23085 13.8659C7.61577 13.8659 7.87934 13.752 8.02346 13.5263C8.16566 13.3005 8.23772 12.9154 8.23772 12.371C8.23582 11.4547 7.94756 10.9956 7.36919 10.9956Z" fill="black"/>
<path fill-rule="evenodd" clip-rule="evenodd" d="M15.3301 9.79855C16.153 9.79856 16.7409 10.0262 17.0936 10.4814C17.4463 10.9368 17.6208 11.5761 17.6208 12.3995C17.6208 14.1467 16.8566 15.0212 15.3301 15.0212C13.8016 15.0212 13.0393 14.1467 13.0393 12.3995C13.0393 11.5761 13.2157 10.9368 13.5665 10.4814C13.9192 10.0262 14.5071 9.79855 15.3301 9.79855ZM15.3301 10.935C14.9773 10.935 14.7345 11.0507 14.598 11.284C14.4615 11.5174 14.3932 11.8892 14.3932 12.3995C14.3932 12.9116 14.4615 13.2872 14.598 13.5263C14.7345 13.7653 14.9773 13.885 15.3301 13.885C15.6828 13.8849 15.9256 13.7653 16.0621 13.5263C16.1986 13.2872 16.2667 12.9116 16.2667 12.3995C16.2667 11.8873 16.1986 11.5155 16.0621 11.284C15.9256 11.0507 15.6809 10.935 15.3301 10.935Z" fill="black"/>
<path d="M19.6347 9.91805H21.4305V8.53319H22.7655V9.91805H23.9906V11.0545H22.7637V13.0976C22.7637 13.2968 22.7694 13.4391 22.7789 13.5207C22.7884 13.6041 22.8242 13.6744 22.8887 13.7351C22.9513 13.7939 23.05 13.8242 23.1828 13.8242L23.9393 13.8053L24 14.8713C23.5544 14.97 23.2167 15.0212 22.9835 15.0212C22.3862 15.0212 21.9766 14.8865 21.7585 14.6171C21.5386 14.3477 21.4305 13.8507 21.4305 13.128V11.0545H19.6347V13.0976C19.6347 13.2968 19.6405 13.4391 19.6499 13.5207C19.6594 13.6042 19.6955 13.6744 19.7599 13.7351C19.8225 13.7938 19.9211 13.8242 20.0538 13.8242L20.8105 13.8053L20.8692 14.8713C20.4236 14.97 20.086 15.0212 19.8527 15.0212C19.2554 15.0212 18.8458 14.8865 18.6277 14.6171C18.4078 14.3477 18.2997 13.8507 18.2997 13.128V11.0545H17.7119V9.91805H18.2997V8.53319H19.6347V9.91805Z" fill="black"/>
<path d="M2.3117 8C2.80284 8 3.42674 8.06637 4.18525 8.19916L4.54377 8.26938L4.43377 9.35651C3.49509 9.25407 2.83314 9.20089 2.44819 9.20089C1.72383 9.2009 1.36169 9.43999 1.36169 9.91805C1.36169 10.1305 1.45081 10.2937 1.63095 10.4057C1.81113 10.5195 2.23032 10.6806 2.89208 10.8931C3.55196 11.1056 4.01644 11.3466 4.28192 11.616C4.5474 11.8854 4.68026 12.299 4.68026 12.8567C4.68024 13.5681 4.46403 14.1069 4.03358 14.4711C3.60123 14.8373 3.03804 15.0193 2.34022 15.0193C1.82253 15.0193 1.1872 14.9397 0.438155 14.7803L0.079816 14.7101L0.220003 13.6439C1.10938 13.7634 1.79026 13.8223 2.26244 13.8223C2.96595 13.8223 3.31875 13.5301 3.31875 12.9458C3.31875 12.7334 3.23716 12.5664 3.07412 12.4469C2.91105 12.3274 2.5867 12.1984 2.10318 12.058C1.33333 11.838 0.789068 11.578 0.474267 11.2764C0.159477 10.9748 0 10.5535 0 10.0148C4.8589e-06 9.3375 0.206845 8.83281 0.618343 8.49892C1.02984 8.16696 1.59493 8 2.3117 8Z" fill="black"/>
<path d="M13.0108 11.1417C12.4722 11.2556 12.0114 11.3713 11.6265 11.4908L11.4274 11.561V14.8998H10.0905V9.91805H11.4159V10.4455C11.9734 10.1135 12.5044 9.89725 13.0108 9.7967V11.1417Z" fill="black"/>
</svg>
