<svg width="20" height="20" viewBox="0 0 20 20" fill="none" xmlns="http://www.w3.org/2000/svg">
<path d="M9.99815 0.833252C10.6024 0.834251 11.1818 1.07439 11.6091 1.50166C12.0364 1.92893 12.2765 2.50832 12.2775 3.11258C12.2767 3.60717 12.1154 4.08483 11.8226 4.47628L11.8415 4.51107L16.8367 13.504C17.1138 13.387 17.414 13.3248 17.7207 13.3242C18.3247 13.3254 18.9039 13.566 19.3311 13.9932C19.7581 14.4202 19.9988 14.9991 20 15.603C19.999 16.2072 19.7582 16.7867 19.3311 17.2139C18.9039 17.6411 18.3247 17.8817 17.7207 17.8829C17.1165 17.8818 16.5375 17.6411 16.1103 17.2139C15.683 16.7867 15.4423 16.2073 15.4413 15.603C15.4423 15.0979 15.6109 14.6105 15.9158 14.2146C14.2645 13.7998 12.1964 13.5709 10.0667 13.5709C7.72629 13.5709 5.65894 13.7914 4.0758 14.2035C4.38623 14.6014 4.55818 15.0931 4.55918 15.603C4.55819 16.2072 4.31797 16.7867 3.89078 17.2139C3.46352 17.6412 2.88409 17.8819 2.27986 17.8829C1.6756 17.8819 1.09621 17.6412 0.668933 17.2139C0.241694 16.7867 0.000999084 16.2073 0 15.603C0.00119267 14.9989 0.242246 14.4197 0.66946 13.9926C1.0967 13.5656 1.67579 13.3252 2.27986 13.3242C2.57759 13.3247 2.86922 13.3835 3.13961 13.494L8.1263 4.51107L8.15687 4.45361C7.8747 4.06647 7.71963 3.59763 7.71883 3.11258C7.71997 2.50842 7.9605 1.92934 8.38776 1.50219C8.81501 1.07508 9.39403 0.834255 9.99815 0.833252ZM2.27986 14.2588C1.92242 14.2593 1.57949 14.4014 1.3268 14.6542C1.07421 14.907 0.932259 15.2499 0.931973 15.6072C0.932467 15.9645 1.0747 16.3072 1.32732 16.5598C1.57999 16.8124 1.92259 16.9542 2.27986 16.9546C2.63713 16.9541 2.97974 16.8124 3.23239 16.5598C3.48501 16.3072 3.62724 15.9645 3.62774 15.6072C3.62745 15.2498 3.48508 14.907 3.23239 14.6542C2.97972 14.4014 2.63725 14.2593 2.27986 14.2588ZM17.7207 14.2588C17.3632 14.2592 17.0204 14.4009 16.7676 14.6537C16.5148 14.9065 16.3725 15.2497 16.3723 15.6072C16.3728 15.9646 16.5154 16.3071 16.7681 16.5598C17.0209 16.8124 17.3634 16.9543 17.7207 16.9546C18.078 16.9542 18.4211 16.8125 18.6737 16.5598C18.9263 16.3072 19.0681 15.9645 19.0686 15.6072C19.0683 15.2499 18.9264 14.907 18.6737 14.6542C18.421 14.4014 18.0781 14.2593 17.7207 14.2588ZM8.8917 5.11727L4.43425 13.1413C5.9381 12.7921 7.87901 12.6057 10.0635 12.6057C12.045 12.6058 13.9785 12.7958 15.5331 13.1439L11.0767 5.11885C10.748 5.29578 10.3781 5.39128 9.99815 5.39191C9.6096 5.39126 9.23161 5.29141 8.8975 5.10673L8.8917 5.11727ZM9.99815 1.76733C9.64083 1.76777 9.29829 1.91003 9.04562 2.16268C8.79296 2.41535 8.65072 2.7579 8.65027 3.11522C8.6507 3.47254 8.79297 3.81507 9.04562 4.06775C9.2983 4.32042 9.64082 4.46267 9.99815 4.4631C10.3555 4.46267 10.698 4.32042 10.9507 4.06775C11.2033 3.81507 11.3456 3.47254 11.346 3.11522C11.3465 2.93816 11.3118 2.76283 11.2443 2.59915C11.1767 2.4354 11.0775 2.28636 10.9523 2.1611C10.8271 2.03591 10.6784 1.93662 10.5147 1.86907C10.351 1.80151 10.1753 1.76684 9.99815 1.76733Z" fill="white"/>
</svg>
