<svg width="24" height="24" viewBox="0 0 24 24" fill="none" xmlns="http://www.w3.org/2000/svg">
<path d="M6.56704 7.04393H4.81235V14.3599C4.81235 15.549 4.35872 16.2555 3.28352 16.2555C2.20832 16.2555 1.75468 15.5046 1.75468 14.2171V12.8581L0 13.2963V13.9044C0 15.7575 0.920775 17.1744 3.28352 17.1744C5.64626 17.1744 6.56704 15.7594 6.56704 13.9044V7.04393ZM24 7.04393H22.2453V14.3599C22.2453 15.549 21.7917 16.2555 20.7165 16.2555C19.6413 16.2555 19.1876 15.5046 19.1876 14.2171V12.8581L17.433 13.2963V13.9044C17.433 15.7575 18.3537 17.1744 20.7165 17.1744C23.0792 17.1744 24 15.7594 24 13.9044V7.04393ZM11.3755 16.1436C10.0166 16.1436 9.18266 15.0394 9.18266 13.8658C9.18266 13.1303 9.50889 12.4508 10.0455 12.0686L13.2441 15.5645C12.6496 15.9177 11.9836 16.1455 11.3755 16.1455M14.4892 14.4043L11.7153 11.3467C12.2114 11.1478 12.692 11.0784 13.0878 11.0784C14.2344 11.0784 14.9409 11.7443 14.9409 12.8909C14.9409 13.4006 14.8 13.9237 14.4873 14.4043M11.3311 10.9374L10.7231 10.258C10.1845 9.66341 10.0301 9.29471 10.0301 8.85652C10.0301 8.03613 10.5532 7.56898 11.3736 7.56898C12.194 7.56898 12.7036 8.04964 12.7036 8.92795C12.7036 9.73483 12.3079 10.4992 11.3311 10.9374ZM11.4161 6.82001C9.46256 6.82001 8.50125 7.91065 8.50125 9.26769C8.50125 10.0031 8.81203 10.7405 9.63436 11.6304L9.64787 11.6594C8.26188 12.3254 7.62487 13.4006 7.62487 14.5047C7.62487 15.9621 8.74254 17.1802 10.4702 17.1802C11.4605 17.1802 12.6206 16.769 13.6688 16.0336L14.5181 16.9543H16.74V16.8829L14.9293 14.8869C15.6937 13.9816 16.1319 12.9913 16.1319 12.1265C16.1319 11.0513 15.41 10.3294 14.2788 10.3294C13.6842 10.3294 13.0183 10.4992 12.5801 10.6691L12.5511 10.6131C13.6263 10.0321 14.0799 9.49547 14.0799 8.74456C14.0799 7.66936 13.1167 6.82001 11.4199 6.82001" fill="black"/>
</svg>
