<svg width="24" height="24" viewBox="0 0 24 24" fill="none" xmlns="http://www.w3.org/2000/svg">
<path d="M0.193921 8.2764C6.52817 6.89288 21.4243 4.59599 23.7388 7.15305L23.7425 7.14939C24.7721 8.28906 22.5944 10.343 19.3494 12.4959L19.349 12.497C19.349 12.497 15.7786 14.7326 14.3482 15.4983C14.3486 15.4991 14.3492 15.4998 14.3496 15.5005C14.3395 15.5046 14.3296 15.5097 14.3203 15.5155L9.07121 18.3353L9.00897 18.3682C8.98387 18.3858 8.94898 18.3797 8.93134 18.3547C8.91372 18.3295 8.91977 18.2947 8.94489 18.277L9.01849 18.2342C10.8902 17.0876 12.6293 15.9951 14.1028 14.9517H14.1036C14.2491 14.8373 17.7917 12.049 18.4384 11.1909C19.2704 10.1104 19.4416 9.19709 18.7244 8.48583C16.3765 6.15785 5.46204 7.45225 0.214791 8.38697L0.06467 8.41626C0.0358642 8.42179 0.00697201 8.40227 0.000959995 8.37123C-0.00465987 8.34238 0.0149171 8.31355 0.0459964 8.30752L0.193921 8.2764Z" fill="black"/>
</svg>
