<svg width="20" height="20" viewBox="0 0 20 20" fill="none" xmlns="http://www.w3.org/2000/svg">
<path d="M18.4211 2.10414C18.0725 1.76367 17.7038 1.44425 17.3169 1.14758C17.251 1.09905 17.176 1.06429 17.0963 1.0454C17.0166 1.0265 16.9339 1.02386 16.8531 1.03763C14.571 1.41111 12.264 1.61326 9.95152 1.64235C7.63463 1.60489 5.32387 1.39355 3.03889 1.01014C2.95729 0.994928 2.87339 0.99685 2.79258 1.01578C2.71177 1.03472 2.63581 1.07024 2.56958 1.12009C2.17609 1.42691 1.80179 1.75738 1.44877 2.10964C1.33903 2.20371 1.26821 2.33494 1.25 2.47798V3.81937C1.25 3.81937 1.25 4.76494 1.28313 5.31469C1.43442 9.06947 2.16823 12.7783 3.45851 16.3097C3.49236 16.4029 3.54934 16.4862 3.62415 16.5516C5.37991 18.0744 8.10742 19.3333 9.95152 19.3333C11.7956 19.3333 14.501 18.0799 16.2678 16.5516C16.3427 16.4862 16.3996 16.4029 16.4335 16.3097C17.72 12.7777 18.4501 9.06889 18.5978 5.31469C18.5978 4.76494 18.631 4.28116 18.631 3.83036V2.48347C18.6126 2.33767 18.5397 2.20415 18.4267 2.10964L18.4211 2.10414ZM8.6485 12.4614L8.61537 12.5164C7.92521 13.7369 6.80992 13.8908 5.55659 13.396C4.30326 12.9012 3.2487 11.8787 3.67936 10.4494C4.09897 9.16294 6.10872 9.67971 7.04733 9.89961C8.36139 10.2295 9.36626 10.9991 8.65954 12.3955C8.68715 12.3625 8.69819 12.3515 8.63746 12.4614H8.6485ZM16.2237 11.5709C15.9034 12.8738 14.5949 13.55 13.2974 13.6929C12.1159 13.8138 11.0668 12.6704 11.0226 11.4939V11.4389V11.4059C11.0613 10.0151 13.1207 9.75667 14.1587 9.66322C15.528 9.53128 16.6046 9.99307 16.2237 11.5709Z" fill="white"/>
</svg>
