<svg width="20" height="20" viewBox="0 0 20 20" fill="none" xmlns="http://www.w3.org/2000/svg">
<path d="M16.4497 14.75L10 17.2659L3.55031 14.75L2.47919 16.6049L10 19.5L17.5209 16.6049L16.4497 14.75ZM10 0.5C8.00537 0.5 6.09242 1.29237 4.68199 2.7028C3.27156 4.11323 2.47919 6.02618 2.47919 8.02083C2.47919 10.0155 3.27156 11.9284 4.68199 13.3389C6.09242 14.7493 8.00537 15.5417 10 15.5417C11.9947 15.5417 13.9076 14.7493 15.3181 13.3389C16.7285 11.9284 17.5209 10.0155 17.5209 8.02083C17.5209 6.02618 16.7285 4.11323 15.3181 2.7028C13.9076 1.29237 11.9947 0.5 10 0.5ZM10 13.2284C8.62098 13.2284 7.29843 12.6806 6.3233 11.7055C5.34817 10.7303 4.80035 9.40779 4.80035 8.02875C4.80035 6.64971 5.34817 5.32716 6.3233 4.35203C7.29843 3.3769 8.62098 2.82908 10 2.82908C11.3791 2.82908 12.7016 3.3769 13.6767 4.35203C14.6519 5.32716 15.1997 6.64971 15.1997 8.02875C15.1997 9.40779 14.6519 10.7303 13.6767 11.7055C12.7016 12.6806 11.3791 13.2284 10 13.2284Z" fill="white"/>
</svg>
