<svg width="24" height="24" viewBox="0 0 24 24" fill="none" xmlns="http://www.w3.org/2000/svg">
<path d="M15.8948 17.4412H8.09995V14.8756H15.8948V17.4412Z" fill="black"/>
<path d="M15.8948 8.67547H8.09995V6.10988H15.8948V8.67547Z" fill="black"/>
<path fill-rule="evenodd" clip-rule="evenodd" d="M15.1469 1C16.3378 1 17.3988 1.22457 18.3299 1.67355C19.2825 2.12251 20.0295 2.7532 20.5708 3.56559C21.1121 4.37802 21.3828 5.32956 21.3828 6.41993C21.3828 7.25371 21.2204 8.01263 20.8956 8.69676C20.5708 9.38092 20.1271 9.95831 19.5641 10.4287C19.0228 10.8776 18.4057 11.2197 17.7129 11.4549V11.5831C18.5356 11.7541 19.2717 12.0856 19.9212 12.5773C20.5708 13.0477 21.0798 13.6569 21.4479 14.4052C21.816 15.1322 22 15.9768 22 16.9389C22 18.3072 21.6859 19.4402 21.058 20.3382C20.4517 21.2361 19.629 21.9096 18.5897 22.3586C17.5721 22.7862 16.4244 23 15.1469 23H3V1H15.1469ZM7.22222 9.97956H7.23385V13.4753H7.22222V19.4402H14.5948C15.4826 19.4402 16.2079 19.205 16.7709 18.7347C17.3555 18.2429 17.6477 17.484 17.6477 16.4578C17.6477 15.8592 17.5288 15.3353 17.2906 14.8863C17.0524 14.4373 16.6842 14.0953 16.1862 13.8601C15.7098 13.6036 15.0928 13.4753 14.335 13.4753H9.39909V9.97956H14.0427C14.6923 9.97955 15.2336 9.86208 15.6667 9.62691C16.1213 9.39175 16.4569 9.071 16.6734 8.66482C16.9115 8.25862 17.0307 7.80963 17.0307 7.31793C17.0307 6.37727 16.7709 5.68237 16.2513 5.23339C15.7533 4.78442 15.0928 4.55984 14.27 4.55984H7.22222V9.97956Z" fill="black"/>
</svg>
