<svg width="24" height="24" viewBox="0 0 24 24" fill="none" xmlns="http://www.w3.org/2000/svg">
<path d="M9.5077 17.2173C8.68882 17.1732 8.07778 16.8363 7.72042 16.2317C7.48066 15.8259 7.4077 15.2921 7.51738 14.7467C7.63894 14.1424 8.05162 13.5978 8.68498 13.2062C9.04894 12.9809 9.36046 12.8411 9.99478 12.6182C10.1543 12.5621 10.2919 12.5105 10.3008 12.5033C10.3135 12.4932 10.3153 12.4575 10.3089 12.3414C10.2907 12.0113 10.3458 11.497 10.439 11.1258C10.5959 10.5012 10.8977 9.99735 11.2982 9.69171C11.5857 9.47211 11.9627 9.30699 12.3379 9.23619C12.5451 9.19719 12.8922 9.19731 13.0872 9.23655C13.9227 9.40479 14.3917 10.0488 14.207 10.7745C14.1681 10.9275 14.0453 11.1783 13.9412 11.317C13.6747 11.6724 13.2738 11.9885 12.7076 12.2892C12.6365 12.3272 12.4034 12.4416 12.1899 12.5439C11.9765 12.646 11.7951 12.7364 11.7867 12.7448C11.7749 12.7566 11.7779 12.7913 11.8009 12.908C11.9071 13.4472 12.0857 13.9029 12.3906 14.4124C12.5118 14.6152 12.6794 14.8709 12.6985 14.8828C12.7261 14.8998 12.8389 14.7176 12.9125 14.5372C13.0034 14.314 13.0555 14.0188 13.0298 13.8722C13.0113 13.7672 12.954 13.6563 12.8808 13.5846C12.8472 13.5515 12.8193 13.5202 12.8192 13.515C12.8191 13.51 13.1033 13.5071 13.4509 13.5089L14.0829 13.5122L14.0793 13.5923C14.0744 13.7019 14.0337 13.9355 13.9909 14.1018C13.8701 14.5695 13.6423 14.9694 13.2486 15.4062C13.2021 15.4577 13.1641 15.5082 13.1641 15.5186C13.1641 15.5289 13.2294 15.6005 13.3091 15.6778C13.8067 16.1602 14.6882 16.7165 15.4059 17.001C15.4757 17.0288 15.5325 17.057 15.5323 17.0637C15.5321 17.0718 15.1177 17.0771 14.3214 17.0793L13.1108 17.0824L13.0419 17.0436C12.9013 16.9646 12.5899 16.7129 12.2907 16.4364C12.2274 16.3779 12.1674 16.33 12.1574 16.33C12.1475 16.33 12.077 16.3709 12.0012 16.421C11.6125 16.6773 11.148 16.9076 10.7551 17.0386C10.3082 17.1878 9.93934 17.2404 9.5077 17.2173ZM10.527 16.1685C10.7082 16.1362 10.9308 16.0704 11.1355 15.9887C11.3413 15.9066 11.5964 15.7811 11.6055 15.7574C11.6091 15.748 11.562 15.6692 11.5009 15.582C11.2193 15.1808 10.9184 14.6164 10.7162 14.1102C10.6417 13.9236 10.5025 13.5104 10.4759 13.3971C10.4675 13.361 10.4522 13.3282 10.442 13.3242C10.4138 13.3134 10.1826 13.4367 9.98278 13.5692C9.27262 14.0399 8.93218 14.6146 9.00778 15.2151C9.04138 15.482 9.12586 15.6765 9.27958 15.8408C9.56374 16.1444 10.008 16.2611 10.527 16.1685ZM11.7324 11.993C11.9952 11.8391 12.4121 11.4656 12.6452 11.1752C12.9437 10.8035 13.1023 10.4567 13.1024 10.1754C13.1024 10.0146 13.0796 9.94263 13.0052 9.86823C12.9312 9.79431 12.8477 9.76371 12.7201 9.76359C12.3416 9.76359 11.9323 10.2129 11.754 10.8242C11.664 11.1323 11.6421 11.2982 11.6415 11.6746C11.6411 11.9621 11.6457 12.0261 11.6673 12.0261C11.672 12.0261 11.7013 12.0112 11.7324 11.993ZM17.9919 17.2101C17.3683 17.1473 16.9573 17.0541 16.4936 16.8705C15.8627 16.6204 15.4687 16.3107 15.1359 15.8032C15.0363 15.6513 14.8765 15.3323 14.8119 15.156C14.5233 14.3706 14.46 13.3818 14.6319 12.3503C14.8061 11.3063 15.2027 10.3001 15.7499 9.51363C16.1048 9.00363 16.6329 8.46651 17.1781 8.06091C18.0783 7.39131 19.1145 6.97971 20.2657 6.83499C20.6149 6.79107 20.8105 6.77979 21.2229 6.78003C21.8468 6.78039 22.322 6.82791 22.9495 6.95259C23.3498 7.03227 23.9875 7.20435 23.9997 7.23615C24.006 7.25223 23.6019 8.54715 23.5853 8.56455C23.5801 8.56995 23.5181 8.52855 23.4476 8.47215C22.8801 8.01975 22.292 7.74435 21.6973 7.65279C21.5073 7.62351 21.1503 7.62315 20.9641 7.65207C20.1303 7.78119 19.3573 8.31387 18.671 9.23223C18.4481 9.53055 18.2024 9.93039 18.0114 10.3058C17.7525 10.8146 17.5746 11.2643 17.3946 11.8658C16.8212 13.7793 16.7922 15.1162 17.3082 15.8399C17.5207 16.1381 17.8314 16.3281 18.2256 16.4007C18.4519 16.4424 19.0013 16.4171 19.056 16.3625C19.0647 16.3539 19.3329 15.5147 19.6519 14.4977C20.1761 12.8272 20.2327 12.6388 20.2387 12.5441C20.2466 12.4169 20.223 12.3033 20.1657 12.1938C20.1138 12.0944 19.9765 11.9594 19.8633 11.8966C19.8145 11.8695 19.7744 11.8431 19.7743 11.838C19.7742 11.833 20.6535 11.8288 21.7286 11.8288C22.8036 11.8288 23.6832 11.833 23.6831 11.838C23.6831 11.8431 23.6354 11.8691 23.5772 11.8956C23.2729 12.0348 23.0523 12.2434 22.9212 12.5163C22.8927 12.5753 22.6467 13.3395 22.2773 14.5162L21.6793 16.4206L21.5065 16.5034C20.8027 16.8412 19.9417 17.0844 19.0829 17.1882C18.9251 17.2074 18.1241 17.2234 17.9921 17.2101H17.9919ZM0.000459147 17.0709C-0.00350085 17.0646 0.0225391 17.0427 0.0581791 17.0222C0.270579 16.8999 0.509019 16.6462 0.610059 16.4348C0.639339 16.3736 3.3205 7.83435 3.37966 7.61367C3.3901 7.57503 3.39886 7.49343 3.39898 7.43247C3.39982 7.24623 3.34198 7.11195 3.20578 6.98307C3.16858 6.94791 3.13822 6.91395 3.13822 6.90759C3.13822 6.89067 7.82002 6.89211 8.0347 6.90915C8.49958 6.94599 8.96494 7.06959 9.32086 7.25055C9.92854 7.55955 10.2924 8.02851 10.4042 8.64687C10.4354 8.81895 10.4414 9.20175 10.4159 9.38703C10.3117 10.1423 9.96946 10.9434 9.5035 11.523C8.7487 12.4619 7.51426 13.0623 5.99926 13.2274C5.51902 13.2797 4.91386 13.2929 4.48534 13.2603C4.3615 13.2508 4.25758 13.2456 4.25446 13.2488C4.23922 13.2641 3.27262 16.3655 3.26158 16.4348C3.2275 16.6482 3.33742 16.8882 3.5269 17.014C3.56434 17.0388 3.5917 17.0644 3.58786 17.0706C3.57826 17.0861 0.00993915 17.0862 0.000339147 17.0708L0.000459147 17.0709ZM5.31478 12.4644C5.66674 12.402 5.9773 12.2717 6.27694 12.0609C6.4225 11.9585 6.72154 11.6598 6.8449 11.4936C7.15354 11.0781 7.38058 10.5878 7.5637 9.94191C7.68034 9.53031 7.73002 9.21675 7.7299 8.89359C7.7299 8.64447 7.70734 8.49567 7.6447 8.32875C7.5517 8.08107 7.36234 7.88535 7.12174 7.78815C6.9151 7.70463 6.7387 7.68267 6.31438 7.68759L5.99446 7.69119L5.25082 10.059C4.84198 11.3614 4.50958 12.4332 4.51234 12.4409C4.51522 12.4486 4.56658 12.4616 4.62634 12.4697C4.68634 12.4779 4.74358 12.4865 4.75378 12.489C4.80034 12.5004 5.21482 12.4822 5.31478 12.4644Z" fill="white"/>
</svg>
