<svg width="24" height="24" viewBox="0 0 24 24" fill="none" xmlns="http://www.w3.org/2000/svg">
<path d="M14.5325 3.69987C15.4326 3.69988 17.0658 3.81988 19.4257 4.0332L19.6588 4.06641C19.758 4.08384 19.8597 4.08384 19.9589 4.06641C20.0771 4.1611 20.1745 4.27948 20.2453 4.41341C20.2587 4.44005 20.2589 4.46647 20.2323 4.47982L19.7922 4.77344C19.7856 4.75344 19.772 4.74659 19.7453 4.75326C19.752 4.70661 19.7323 4.67318 19.6789 4.67318C18.7482 4.57907 17.814 4.5214 16.8789 4.5C14.739 4.45334 12.5457 4.45983 10.4792 5.0931C10.0993 5.21309 9.75917 5.36659 9.45253 5.5599C9.03254 5.91323 8.67262 6.23333 8.69929 6.83333C8.72596 7.33991 9.07909 7.55983 9.43235 7.78646C9.57681 7.89453 9.7469 7.96394 9.92583 7.98698C10.144 8.09328 10.3749 8.17146 10.6127 8.22005C12.1925 8.48003 13.2457 8.66022 14.5456 9.32682L15.4323 9.88021C16.0669 10.3556 16.5582 10.9966 16.8522 11.7331L16.9589 12.1536C17.0989 12.6536 17.1324 13.1603 17.0657 13.6868C16.919 15.3468 15.639 16.5469 14.3457 17.3535C13.5949 17.8449 12.7896 18.2476 11.946 18.5534C10.8554 18.8603 9.87139 19.4652 9.10553 20.3001C7.31905 19.4935 5.68589 18.3268 4.61928 16.627C5.53926 15.767 6.63279 15.3533 7.83277 15.14C8.75933 14.96 9.67944 14.8065 10.6127 14.6732C11.6659 14.5198 12.6992 14.2996 13.5924 13.6797L13.8594 13.4199C14.3459 12.9133 14.4126 12.1864 13.9993 11.6198C13.7327 11.2598 13.3191 10.9535 12.7591 10.6868C12.0058 10.3468 11.2591 10.1 10.5124 9.86003L9.7123 9.5931C9.01233 9.35307 8.06574 8.86647 7.67912 8.19987C7.50585 7.97322 7.41887 7.67325 7.4122 7.30664C7.4034 6.77786 7.56254 6.25996 7.86597 5.82682C8.47309 5.0659 9.29906 4.50932 10.2325 4.23307C10.8324 4.03976 11.3592 3.91302 11.8125 3.84635C12.7143 3.73106 13.6236 3.68221 14.5325 3.69987Z" fill="black"/>
<path fill-rule="evenodd" clip-rule="evenodd" d="M19.1523 1C19.552 1.08666 19.8718 1.30007 20.1184 1.61979L21.5454 3.45312C22.0854 4.15313 22.0787 5.00029 21.4387 5.62695C21.3852 5.68025 21.2584 5.76001 21.0656 5.87305C20.6658 6.09306 20.4851 6.47359 20.5318 6.99349C20.5385 7.14016 20.5654 7.49972 20.6653 7.70638C20.7319 7.85301 20.7518 8.02699 20.8117 8.15365C22.0231 10.4045 22.3216 13.0351 21.6451 15.5C20.3917 19.7532 16.1054 21.9533 12.2455 23H11.7923C7.72581 21.9066 3.32526 19.5729 2.25863 15.013C2.21872 14.8665 2.19231 14.6799 2.15903 14.4603L2.08546 13.9069C1.978 13.2988 1.97171 12.6767 2.06593 12.0664L2.15252 11.5332C2.30585 10.3666 2.66592 9.27966 3.17919 8.23307C3.31243 7.93993 3.39241 7.73975 3.40575 7.61979C3.44577 7.32652 3.53884 7.01316 3.49885 6.72656C3.45217 6.30666 3.29905 6.05969 2.93245 5.87305C2.53266 5.67308 2.27238 5.35339 2.15903 4.93359C2.06574 4.60705 2.07264 4.29353 2.17921 3.98698C2.24587 3.807 2.39908 3.55317 2.65902 3.22656L4.03204 1.4668C4.212 1.23352 4.49903 1.08002 4.88555 1H19.1523ZM5.06914 2.38802C5.0555 2.39375 5.04286 2.40268 5.03268 2.41341L3.47216 4.41341C3.41245 4.49321 3.42614 4.55366 3.51252 4.60026C4.99224 5.36693 5.09248 6.95332 4.59258 8.36654C4.53924 8.51988 4.43224 8.7735 4.27228 9.10677C3.91276 9.91325 3.65754 10.7625 3.51252 11.6335C3.35256 12.3934 3.38597 13.2536 3.45263 14.0202C3.46598 14.1933 3.53205 14.3666 3.55874 14.5397C4.25205 18.7396 8.59261 20.6333 11.9792 21.6934C11.9792 21.6602 11.999 21.6403 12.0254 21.627L12.3854 21.5202L12.4987 21.487C14.1674 21.0327 15.746 20.2949 17.1653 19.3066C18.1114 18.66 18.9188 17.8302 19.539 16.8665C20.0744 16.0299 20.4265 15.0893 20.5722 14.1068C20.7728 12.4056 20.4911 10.6821 19.759 9.13346C19.5991 8.80685 19.4989 8.54652 19.4322 8.36654C18.9723 6.98668 19.0457 5.4734 20.3254 4.72005C20.4097 4.67245 20.4922 4.6209 20.5722 4.56641C20.5875 4.55274 20.5972 4.5335 20.5988 4.51302C20.6016 4.50171 20.6018 4.48993 20.5995 4.47852C20.5972 4.46702 20.5921 4.45605 20.5852 4.44661L19.0058 2.42643C18.9941 2.41129 18.9782 2.39937 18.9609 2.39128C18.9436 2.3833 18.9245 2.37943 18.9055 2.38021H5.11211C5.09747 2.37993 5.08267 2.38243 5.06914 2.38802Z" fill="black"/>
</svg>
