<svg width="24" height="24" viewBox="0 0 24 24" fill="none" xmlns="http://www.w3.org/2000/svg">
<path d="M5.05661 6.19828C6.94879 6.19828 8.56424 6.76379 9.8796 7.78103L7.81671 9.48104C6.87152 8.93449 5.93172 8.61379 5.02246 8.61379C3.92633 8.61379 3.34951 9.09828 3.34951 9.69828V9.73276C3.34951 10.5517 3.91196 10.8172 6.15275 11.3707C8.78527 12.0328 10.2713 12.9397 10.2713 15.1104V15.1448C10.2713 17.6155 8.30189 19 5.50585 19C3.5346 19 1.55795 18.3448 0 17.0138L2.02695 15.3362C3.09434 16.1069 4.21743 16.5845 5.56155 16.5845C6.72956 16.5845 7.43397 16.1414 7.43397 15.4103V15.3759C7.43397 14.681 6.98472 14.3259 4.81581 13.7931C2.20485 13.1517 0.519324 12.4552 0.519324 9.98448V9.95173C0.519324 7.69311 2.40432 6.19828 5.05661 6.19828Z" fill="black"/>
<path d="M15.8347 11.3707H21.2399V6H24V18.9397H21.2399V13.8069H15.8347V18.9397H13.0674V6H15.8347V11.3707Z" fill="black"/>
</svg>
