<svg width="24" height="24" viewBox="0 0 24 24" fill="none" xmlns="http://www.w3.org/2000/svg">
<path fill-rule="evenodd" clip-rule="evenodd" d="M12.1335 10.4723C12.1364 10.222 12.1547 9.97209 12.1883 9.72384C12.2218 9.47543 12.2707 9.22947 12.3343 8.98731C12.3982 8.74501 12.4766 8.50666 12.5696 8.27366C12.6625 8.04096 12.7696 7.8139 12.8903 7.59401C13.5829 6.38781 15.0519 5.00961 18.0496 5.00961H18.0793C21.0816 5.00961 22.5308 6.38781 23.2432 7.59401C23.3662 7.81299 23.475 8.03943 23.5691 8.27198C23.6633 8.50468 23.7426 8.74287 23.8064 8.98533C23.8703 9.22794 23.9183 9.47437 23.9506 9.72277C23.9831 9.97133 23.9995 10.2219 24 10.4723V14.5424C23.9962 14.7926 23.9774 15.0425 23.9437 15.2906C23.9097 15.5387 23.8607 15.7846 23.797 16.0269C23.7333 16.2692 23.655 16.5074 23.5624 16.7402C23.4699 16.9732 23.3633 17.2006 23.2432 17.4206C22.5457 18.6223 21.0816 20 18.0793 20H18.0496C15.0519 20 13.5978 18.6223 12.8903 17.4206C12.7695 17.201 12.6621 16.9738 12.5691 16.7411C12.476 16.5083 12.3972 16.2699 12.3337 16.0275C12.27 15.7852 12.221 15.5392 12.1878 15.2911C12.1543 15.0428 12.1363 14.7928 12.1335 14.5424V10.4723ZM15.1015 14.6798C15.1802 15.4007 15.5252 16.0674 16.0698 16.552C16.6142 17.0365 17.3201 17.3044 18.0519 17.3044C18.7836 17.3044 19.4894 17.0365 20.0341 16.552C20.5786 16.0674 20.9235 15.4007 21.0023 14.6798V10.3448C20.9235 9.62381 20.5786 8.95681 20.0341 8.47251C19.4894 7.98804 18.7836 7.72012 18.0519 7.72012C17.3201 7.72012 16.6142 7.98804 16.0698 8.47251C15.5252 8.95681 15.1802 9.62381 15.1015 10.3448V14.6798ZM11.253 17.0579C11.253 17.107 11.253 17.1216 11.253 17.1509C11.2038 17.2491 11.1591 17.3276 11.1097 17.4206C10.4022 18.6223 8.94809 20 5.95057 20H5.9161C2.91843 20 1.44936 18.6223 0.75692 17.4206C0.636126 17.2007 0.529028 16.9737 0.436241 16.7407C0.343453 16.508 0.264976 16.2696 0.201271 16.0273C0.137412 15.785 0.0887869 15.5391 0.0550879 15.2908C0.0215427 15.0425 0.00323141 14.7928 0 14.5424V10.4627C0.00046163 10.212 0.0170803 9.96157 0.0493944 9.71301C0.0817085 9.46445 0.129718 9.21803 0.193577 8.97572C0.257436 8.73311 0.336682 8.49477 0.430855 8.26207C0.525027 8.02952 0.633972 7.80307 0.75692 7.5841C1.46429 6.3779 2.91843 5 5.9161 5H5.95057C8.94809 5 10.4171 6.3779 11.1097 7.5841C11.1591 7.66263 11.2333 7.81954 11.2333 7.83433C11.2333 7.84882 11.2333 7.87825 11.2333 7.91256C11.2332 7.93086 11.2302 7.9487 11.2247 7.96609C11.2196 7.98332 11.2116 7.99963 11.2016 8.01488C11.1918 8.02998 11.1795 8.0437 11.1656 8.05529C11.1516 8.06719 11.1362 8.07695 11.1194 8.08427L8.87884 9.24151C8.87192 9.24578 8.86438 9.2496 8.85699 9.2531C8.8493 9.25646 8.8416 9.25936 8.8336 9.2618C8.82575 9.26424 8.81775 9.26622 8.8096 9.26789C8.80144 9.26942 8.79313 9.27049 8.78498 9.27095C8.76497 9.2714 8.74512 9.26896 8.72589 9.26332C8.70665 9.25798 8.68819 9.2496 8.67157 9.23862C8.65495 9.22794 8.64002 9.21437 8.62741 9.19912C8.61463 9.18387 8.60448 9.16679 8.59709 9.14849C8.48384 8.8975 8.33304 8.66525 8.14993 8.45924C7.96651 8.25323 7.75308 8.07573 7.51626 7.933C7.2796 7.79011 7.02247 7.68367 6.7538 7.61704C6.48483 7.5504 6.20739 7.52432 5.93087 7.54003C5.55003 7.51883 5.16872 7.57449 4.81034 7.70396C4.45196 7.83342 4.1242 8.03379 3.84646 8.29303C3.56886 8.55241 3.34728 8.86486 3.19525 9.21178C3.04337 9.55839 2.96444 9.93229 2.96305 10.3105V14.6455C2.96444 15.0233 3.04337 15.3972 3.19525 15.7442C3.34728 16.0911 3.56886 16.4034 3.84646 16.6626C4.1242 16.922 4.45196 17.1225 4.81034 17.252C5.16872 17.3814 5.55003 17.4371 5.93087 17.4157C6.20523 17.4321 6.48052 17.4077 6.74765 17.3438C7.01478 17.2797 7.27083 17.177 7.50734 17.0383C7.744 16.8999 7.95866 16.7271 8.14408 16.526C8.3295 16.3248 8.48384 16.0976 8.60171 15.8517C8.60986 15.8356 8.62017 15.8212 8.63218 15.8079C8.64433 15.7946 8.65818 15.7832 8.67326 15.7737C8.6885 15.7643 8.70481 15.757 8.72204 15.7518C8.73927 15.7467 8.75712 15.7442 8.77497 15.7437C8.78328 15.7446 8.79144 15.7457 8.79959 15.7472C8.8076 15.7489 8.81575 15.7509 8.8236 15.7533C8.8316 15.7557 8.83929 15.7586 8.84668 15.7621C8.85437 15.7655 8.86191 15.769 8.86899 15.7731L11.1245 16.8862C11.1408 16.8958 11.1558 16.9075 11.169 16.9208C11.1824 16.9342 11.1939 16.9491 11.2035 16.9653C11.213 16.9815 11.2202 16.999 11.2252 17.017C11.2304 17.0351 11.2332 17.0537 11.2333 17.0726L11.253 17.0579Z" fill="black"/>
</svg>
