<svg width="20" height="20" viewBox="0 0 20 20" fill="none" xmlns="http://www.w3.org/2000/svg">
<path d="M18.3999 11.125C18.5124 10.8037 18.8659 10.1157 19.2948 10.1157C19.3746 10.1157 19.427 10.1539 19.4527 10.2096C19.4803 10.269 19.4758 10.3512 19.4463 10.4217C19.2966 10.7807 18.8681 11.0471 18.3999 11.125ZM15.7513 10.5274C15.7358 10.8315 15.3069 11.7855 14.7694 11.7855C14.5346 11.7855 14.5236 11.5518 14.5707 11.3459C14.6462 11.0163 15.1023 10.2131 15.5221 10.2131C15.6945 10.2131 15.7593 10.3702 15.7513 10.5274ZM3.08749 11.5845C2.68779 11.8405 2.28572 11.996 1.87907 11.996C1.26632 11.996 0.922067 11.7601 0.922067 11.461C0.922067 11.2492 1.12253 11.0581 1.48025 11.0581C1.95862 11.0581 2.50308 11.3068 3.08749 11.5845ZM18.3535 11.3417C18.7029 11.2857 19.8114 11.1093 19.9674 10.5548C20.0959 10.0986 19.6668 9.8755 19.2289 9.8755C18.3562 9.8755 17.4732 10.4161 17.2489 11.305C17.2369 11.351 17.2289 11.3987 17.2246 11.4469C16.9536 11.6793 16.6894 11.8052 16.5422 11.8052C16.3808 11.8052 16.3601 11.6935 16.4346 11.5492L17.8242 8.85619H16.6929L15.9508 10.2934C15.8959 10.0926 15.6685 9.85834 15.1686 9.85834C14.218 9.85834 13.6628 10.6471 13.4671 11.1831C13.4332 11.2766 13.4114 11.3673 13.401 11.4543C13.1336 11.6819 12.8734 11.8051 12.7277 11.8051C12.5666 11.8051 12.5457 11.6934 12.6201 11.5491L13.023 10.7689C13.2308 10.3665 13.0455 9.92417 12.4886 9.92417C12.0052 9.92417 11.5622 10.1849 11.0203 10.5806L11.3239 9.99245H10.1559L9.81194 10.6594C9.43794 11.3839 8.77565 11.8051 8.50637 11.8051C8.34524 11.8051 8.32166 11.6916 8.39901 11.5491L9.24337 9.99245H8.07623L7.60613 10.8586C7.43074 11.1818 6.99655 11.6605 6.28718 11.6605C5.80776 11.6605 5.31487 11.537 4.80517 11.3799C5.61495 10.8886 6.43361 10.2072 7.18795 9.33536C8.68624 7.6036 9.67809 6.94659 11.3199 6.94659C13.4398 6.94659 14.2317 7.74818 14.2317 8.40977C14.2317 8.9185 13.9902 9.08104 13.7913 9.17203L13.8208 9.34389C14.761 9.30852 15.2878 8.84563 15.2878 8.31015C15.2878 7.37788 13.6859 6.66675 11.1588 6.66675C8.98351 6.66675 7.0967 7.56558 5.82518 8.91419C5.13482 9.64565 4.45616 10.45 3.77618 11.0529C3.20171 10.8791 2.60498 10.736 1.98177 10.736C0.770707 10.736 0 11.0415 0 11.5697C0 12.0388 0.858795 12.3296 1.87361 12.3296C2.44808 12.3296 3.09858 12.188 3.77856 11.905C4.31421 12.1387 4.87293 12.3296 5.43666 12.3296C6.17736 12.3296 6.7982 11.9513 7.20458 11.6007C7.00993 12.0008 7.25809 12.3296 7.70548 12.3296C8.12735 12.3296 8.7848 12.0825 9.34484 11.5646L8.98536 12.2607H10.1536L10.2569 12.0599C10.4981 11.5903 11.0998 10.5175 11.6909 10.5175C11.8638 10.5175 11.9024 10.677 11.8181 10.8406L11.4425 11.5678C11.2259 11.9872 11.4671 12.3296 11.9268 12.3296C12.3112 12.3296 12.8824 12.1242 13.4012 11.6958C13.4505 12.0707 13.7334 12.3296 14.1313 12.3296C14.5925 12.3296 15.1421 11.9494 15.3316 11.7705C15.3016 12.0401 15.4395 12.3296 15.8327 12.3296C16.1537 12.3296 16.7157 12.1194 17.2347 11.6814C17.3002 12.0422 17.6062 12.3735 18.2821 12.3735C18.8384 12.3735 19.5435 12.1331 20 11.8385L19.996 11.6292C19.6188 11.8105 19.2766 11.9553 18.8901 11.9553C18.5024 11.9553 18.2802 11.6825 18.3535 11.3417ZM9.736 9.09899C9.78123 8.80392 9.55419 8.56509 9.22815 8.56509C8.90211 8.56509 8.6015 8.80392 8.55591 9.09899C8.51042 9.39432 8.73737 9.63315 9.0635 9.63315C9.38937 9.63315 9.69024 9.39432 9.736 9.09899Z" fill="white"/>
</svg>
