<svg width="20" height="20" viewBox="0 0 20 20" fill="none" xmlns="http://www.w3.org/2000/svg">
<path d="M0 0H19.9503V10.7966L18.9628 12.3434L19.9503 13.72V20H0V9.82212L0.61718 9.11059L0 8.43001V0Z" fill="#016FD0"/>
<path d="M3.8728 13.9364V10.7964H7.18921L7.54502 11.2614L7.9126 10.7964H19.9503V13.7198C19.9503 13.7198 19.6355 13.9332 19.2714 13.9364H12.6059L12.2047 13.4414V13.9364H10.8901V13.0914C10.8901 13.0914 10.7106 13.2094 10.3223 13.2094H9.87488V13.9364H7.88447L7.52917 13.4614L7.1684 13.9364H3.8728Z" fill="white"/>
<path d="M0 8.42975L0.747863 6.68188H2.04121L2.46563 7.66097V6.68188H4.07339L4.32604 7.38954L4.57099 6.68188H11.7881V7.03765C11.7881 7.03765 12.1675 6.68188 12.7911 6.68188L15.1327 6.69009L15.5498 7.65636V6.68188H16.8953L17.2656 7.23693V6.68188H18.6234V9.82187H17.2656L16.9107 9.26502V9.82187H14.934L14.7352 9.32689H14.2037L14.0082 9.82187H12.6676C12.1311 9.82187 11.7881 9.47337 11.7881 9.47337V9.82187H9.76687L9.3657 9.32689V9.82187H1.84961L1.65096 9.32689H1.12123L0.923978 9.82187H0V8.42975Z" fill="white"/>
<path d="M1.01255 7.06909L0.00384521 9.42021H0.660563L0.846681 8.94941H1.92867L2.11383 9.42021H2.78501L1.77727 7.06909H1.01255ZM1.38575 7.61627L1.71555 8.43897H1.05498L1.38575 7.61627Z" fill="#016FD0"/>
<path d="M2.85443 9.41972V7.0686L3.78766 7.07208L4.33046 8.58793L4.86027 7.0686H5.78603V9.41972H5.19971V7.68732L4.5782 9.41972H4.064L3.44075 7.68732V9.41972H2.85443Z" fill="#016FD0"/>
<path d="M6.18726 9.41972V7.0686H8.10051V7.59451H6.77975V7.99668H8.06965V8.49165H6.77975V8.90928H8.10051V9.41972H6.18726Z" fill="#016FD0"/>
<path d="M8.43994 7.06909V9.42021H9.02626V8.58495H9.27313L9.97614 9.42021H10.6926L9.92117 8.55401C10.2378 8.52723 10.5644 8.2548 10.5644 7.83185C10.5644 7.3371 10.177 7.06909 9.7447 7.06909H8.43994ZM9.02626 7.595H9.69648C9.85726 7.595 9.97421 7.72108 9.97421 7.84249C9.97421 7.99868 9.82268 8.08997 9.70516 8.08997H9.02626V7.595Z" fill="#016FD0"/>
<path d="M11.4024 9.41972H10.8037V7.0686H11.4024V9.41972Z" fill="#016FD0"/>
<path d="M12.8219 9.41972H12.6927C12.0675 9.41972 11.6879 8.92591 11.6879 8.25383C11.6879 7.56515 12.0632 7.0686 12.8528 7.0686H13.5008V7.62545H12.8291C12.5086 7.62545 12.2819 7.8762 12.2819 8.25963C12.2819 8.71495 12.5411 8.90619 12.9145 8.90619H13.0688L12.8219 9.41972Z" fill="#016FD0"/>
<path d="M14.0978 7.06909L13.0891 9.42021H13.7458L13.9319 8.94941H15.0139L15.199 9.42021H15.8702L14.8625 7.06909H14.0978ZM14.471 7.61627L14.8008 8.43897H14.1402L14.471 7.61627Z" fill="#016FD0"/>
<path d="M15.9387 9.41972V7.0686H16.6841L17.6359 8.54579V7.0686H18.2222V9.41972H17.5009L16.525 7.90387V9.41972H15.9387Z" fill="#016FD0"/>
<path d="M4.27399 13.5342V11.1831H6.18724V11.709H4.86648V12.1112H6.15639V12.6062H4.86648V13.0238H6.18724V13.5342H4.27399Z" fill="#016FD0"/>
<path d="M13.6489 13.5342V11.1831H15.5622V11.709H14.2414V12.1112H15.5252V12.6062H14.2414V13.0238H15.5622V13.5342H13.6489Z" fill="#016FD0"/>
<path d="M6.2615 13.5342L7.19305 12.3732L6.23932 11.1831H6.97801L7.546 11.9188L8.11593 11.1831H8.82569L7.88449 12.3587L8.81776 13.5342H8.07919L7.52768 12.8101L6.98958 13.5342H6.2615Z" fill="#016FD0"/>
<path d="M8.88739 11.1836V13.5347H9.48914V12.7923H10.1063C10.6285 12.7923 11.0244 12.5145 11.0244 11.9744C11.0244 11.527 10.7139 11.1836 10.1825 11.1836H8.88739ZM9.48914 11.7153H10.1391C10.3078 11.7153 10.4284 11.819 10.4284 11.986C10.4284 12.1429 10.3084 12.2567 10.1372 12.2567H9.48914V11.7153Z" fill="#016FD0"/>
<path d="M11.2789 11.1831V13.5342H11.8653V12.699H12.1121L12.8151 13.5342H13.5316L12.7602 12.668C13.0768 12.6412 13.4034 12.3688 13.4034 11.9459C13.4034 11.4511 13.016 11.1831 12.5837 11.1831H11.2789ZM11.8653 11.709H12.5355C12.6962 11.709 12.8132 11.8351 12.8132 11.9565C12.8132 12.1127 12.6617 12.204 12.5441 12.204H11.8653V11.709Z" fill="#016FD0"/>
<path d="M15.8337 13.5342V13.0238H17.0071C17.1808 13.0238 17.2559 12.9297 17.2559 12.8266C17.2559 12.7277 17.181 12.6278 17.0071 12.6278H16.4769C16.016 12.6278 15.7593 12.3463 15.7593 11.9236C15.7593 11.5467 15.9943 11.1831 16.6793 11.1831H17.821L17.5742 11.7121H16.5867C16.3979 11.7121 16.3398 11.8114 16.3398 11.9062C16.3398 12.0037 16.4116 12.1112 16.5558 12.1112H17.1113C17.6251 12.1112 17.848 12.4034 17.848 12.786C17.848 13.1973 17.5996 13.5342 17.0833 13.5342H15.8337Z" fill="#016FD0"/>
<path d="M17.9857 13.5342V13.0238H19.1591C19.3327 13.0238 19.4079 12.9297 19.4079 12.8266C19.4079 12.7277 19.333 12.6278 19.1591 12.6278H18.6289C18.1679 12.6278 17.9113 12.3463 17.9113 11.9236C17.9113 11.5467 18.1463 11.1831 18.8312 11.1831H19.973L19.7261 11.7121H18.7387C18.5499 11.7121 18.4918 11.8114 18.4918 11.9062C18.4918 12.0037 18.5636 12.1112 18.7078 12.1112H19.2633C19.7771 12.1112 20 12.4034 20 12.786C20 13.1973 19.7516 13.5342 19.2353 13.5342H17.9857Z" fill="#016FD0"/>
</svg>
