<svg width="20" height="20" viewBox="0 0 20 20" fill="none" xmlns="http://www.w3.org/2000/svg">
<path d="M14.3689 5.2749V5.46518H14.0829C13.7969 5.46518 13.6057 5.56025 13.4148 5.65654C13.3191 5.75172 13.224 5.84779 13.1283 6.03928C13.0331 6.13446 13.0332 6.4201 13.0332 6.89824V9.5719H16.3733V6.89878C16.3733 6.42138 16.3733 6.13507 16.2776 5.94359C16.2776 5.84841 16.1821 5.75227 15.9911 5.65709C15.8003 5.56085 15.6095 5.46574 15.3235 5.46572H15.037V5.2749H20V5.46518H19.6178C19.3323 5.46518 19.1411 5.56024 18.9502 5.65654C18.8545 5.75172 18.7589 5.84779 18.6637 6.03928V13.9635C18.7589 14.1544 18.8545 14.2505 19.0459 14.3457C19.1405 14.4414 19.4269 14.4414 19.6178 14.4414H20V14.7279H15.037V14.4414H15.3235C15.6094 14.4414 15.8958 14.4412 15.9911 14.3457C16.0869 14.2505 16.2776 14.1544 16.2776 13.9635C16.3732 13.8676 16.3733 13.5822 16.3733 13.1045V10.1444H13.0332V13.1051C13.0332 13.5824 13.0332 13.8683 13.1283 13.964C13.1283 14.155 13.3191 14.251 13.4148 14.3462C13.6057 14.442 13.7969 14.4419 14.0829 14.4419H14.3689V14.7284H9.40594V14.4419H9.78758C10.074 14.4419 10.2649 14.4419 10.4557 14.3462C10.5509 14.251 10.6465 14.155 10.7417 13.964V5.94359C10.6465 5.84842 10.5509 5.75226 10.36 5.65709C10.2648 5.56088 9.97842 5.46581 9.78758 5.46572H9.40594V5.2749H14.3689ZM4.48454 5.27709C5.53413 5.27709 6.29678 5.37219 6.77438 5.56305C7.25189 5.75394 7.63321 6.04081 7.82416 6.42201C8.11022 6.80435 8.20632 7.18567 8.20635 7.66316C8.20635 8.045 8.11032 8.5225 7.72848 8.80972C7.44234 9.1914 6.87021 9.47723 6.01165 9.66923C6.86976 9.9547 7.53744 10.1459 7.9193 10.4331C8.39632 10.9095 8.68312 11.3874 8.68312 12.0553C8.68307 12.8189 8.39631 13.3914 7.82416 13.8689C7.15626 14.4411 6.10679 14.7278 4.77104 14.7279H0V14.4414C0.381841 14.4414 0.668602 14.4414 0.858963 14.3457C1.04969 14.2506 1.1453 14.1548 1.14547 14.0597C1.24063 13.8688 1.33626 13.582 1.33629 13.0094V6.90043C1.33629 6.42291 1.24063 6.04159 1.14547 5.94578C1.14547 5.85004 1.04988 5.75391 0.858963 5.65873C0.668602 5.56299 0.381827 5.46791 0 5.46791V5.27709H4.48454ZM3.43476 13.3916C3.43477 13.6769 3.52993 13.8682 3.62558 13.964C3.8165 14.1544 4.00712 14.1549 4.19804 14.1549C4.57986 14.1549 4.86655 14.0592 5.24782 13.964C5.5344 13.7731 5.72562 13.4868 5.91651 13.2008C6.1074 12.9141 6.20244 12.5328 6.20247 12.1504C6.20247 11.7687 6.10735 11.3862 5.91651 11.005C5.72561 10.6237 5.43878 10.4326 5.057 10.2417C4.67628 10.1454 4.19844 10.0503 3.43476 10.0503V13.3916ZM3.4353 9.47731C4.10325 9.47731 4.58002 9.47741 4.96186 9.28649C5.2479 9.0956 5.43855 8.90443 5.63001 8.6178C5.82093 8.42688 5.91706 8.045 5.91706 7.66316C5.91703 7.1857 5.8209 6.90001 5.63001 6.61283C5.53477 6.32747 5.24838 6.13664 4.96241 6.04146C4.67631 5.84998 4.10325 5.75441 3.4353 5.75441V9.47731Z" fill="white"/>
</svg>
