<svg width="20" height="20" viewBox="0 0 20 20" fill="none" xmlns="http://www.w3.org/2000/svg">
<path d="M10.0163 13.4473C9.64188 13.792 9.14029 14.0064 8.58561 14.0064L4.44336 14.0007V13.4473H10.0163ZM13.8908 14.0064H11.1117V13.4482H13.8908V14.0064ZM20 14.0064H17.2209V13.4482H20V14.0064ZM3.88835 14.0056H0V13.4465H3.88835V14.0056ZM15.5542 14.0007L15.363 13.4482H15.7471L15.5542 14.0007ZM3.88835 12.9387H0V12.3796H3.88835V12.9387ZM10.6462 12.3796C10.6006 12.5777 10.525 12.7664 10.424 12.9387H4.44336V12.3796H10.6462ZM13.8908 12.9387H11.1117V12.3796H13.8908V12.9387ZM15.9229 12.9387H15.1864L14.9902 12.3796H16.1214L15.9229 12.9387ZM20 12.9387H17.2209V12.3796H20V12.9387ZM2.77751 11.8726H1.10921V11.3144H2.77751V11.8726ZM7.22087 11.8726H5.55501V11.3144H7.22087V11.8726ZM10.6323 11.3144C10.6818 11.4925 10.7072 11.6806 10.7072 11.8726H8.88916V11.3144H10.6323ZM13.8883 11.8726H12.2209V11.3144H13.8883V11.8726ZM16.298 11.8726H14.812L14.6159 11.3144H16.4933L16.298 11.8726ZM18.8883 11.3144V11.8726H17.2209V11.3144H18.8883ZM2.77751 10.8074H1.10921V10.2483H2.77751V10.8074ZM9.9585 10.2483C10.1407 10.4048 10.2972 10.5935 10.424 10.8074H5.55501V10.2483H9.9585ZM13.8883 10.8074H12.2209V10.2483H13.8883V10.8074ZM16.6724 10.8074H14.4393L14.2472 10.2483H16.862L16.6724 10.8074ZM18.8883 10.8074H17.2209V10.2483H18.8883V10.8074ZM2.77751 9.74129H1.10921V9.18221H2.77751V9.74129ZM10.424 9.18221C10.3012 9.39615 10.1447 9.58479 9.9585 9.74129H5.55501V9.18221H10.424ZM15.555 9.63387L15.7113 9.18221H18.8883V9.74129H17.2209V9.22778L17.0443 9.74129H14.0649L13.8883 9.22778V9.74129H12.2209V9.18221H15.3979L15.555 9.63387ZM2.77751 8.67358H1.10921V8.11532H2.77751V8.67358ZM7.22087 8.67358H5.55501V8.11532H7.22087V8.67358ZM10.7072 8.11532C10.7072 8.30732 10.6818 8.49544 10.6323 8.67358H8.88916V8.11532H10.7072ZM15.2222 8.67358H12.2209V8.11532H15.0301L15.2222 8.67358ZM18.8883 8.67358H15.8879L16.0799 8.11532H18.8883V8.67358ZM3.88835 7.6075H0V7.04923H3.88835V7.6075ZM10.424 7.04923C10.519 7.22153 10.5947 7.40949 10.6462 7.6075H4.44336V7.04923H10.424ZM14.8535 7.6075H11.1117V7.04923H14.6615L14.8535 7.6075ZM20 7.6075H16.2581L16.4478 7.04923H20V7.6075ZM3.88835 6.54224H0V5.98315H3.88835V6.54224ZM8.58561 5.98315C9.13633 5.98315 9.64141 6.19754 10.0138 6.54224H4.44336V5.98315H8.58561ZM14.4849 6.54224H11.1117V5.98315H14.2928L14.4849 6.54224ZM20 6.54224H16.6268L16.8188 5.98315H20V6.54224Z" fill="white"/>
</svg>
