<svg width="20" height="20" viewBox="0 0 20 20" fill="none" xmlns="http://www.w3.org/2000/svg">
<g clip-path="url(#clip0_822_5351)">
<path d="M9.26262 13.7325C9.06159 13.7346 8.86759 13.6588 8.72159 13.521C8.57558 13.3832 8.489 13.1943 8.48012 12.9941C8.47845 12.9591 8.47512 12.865 8.39429 12.865C8.36096 12.865 8.33262 12.8841 8.30012 12.9141C8.20679 13 8.08846 13.0858 7.91679 13.0858C7.82931 13.0839 7.74301 13.0653 7.66262 13.0308C7.21679 12.8525 7.21096 12.5491 7.22846 12.4266C7.23346 12.395 7.23429 12.36 7.21179 12.335L7.18512 12.31H7.15679C7.13429 12.31 7.11096 12.32 7.07929 12.3425C6.97021 12.4252 6.83792 12.4718 6.70096 12.4758C6.6287 12.4751 6.55721 12.4609 6.49012 12.4341C5.90012 12.2091 5.94846 11.6608 5.97596 11.4958C5.98012 11.4616 5.97179 11.4358 5.95095 11.4191L5.90929 11.3858L5.87012 11.4216C5.75707 11.5302 5.60623 11.5908 5.44929 11.5908C5.28809 11.5912 5.13331 11.5279 5.01894 11.4146C4.90457 11.3013 4.83995 11.1474 4.83929 10.9866C4.83929 10.6533 5.11262 10.385 5.44929 10.385C5.75262 10.385 6.01179 10.61 6.05012 10.91L6.07179 11.0725L6.16346 10.935C6.17179 10.92 6.41929 10.5516 6.87346 10.5516C6.95846 10.5516 7.04846 10.565 7.13679 10.5933C7.49846 10.7016 7.56012 11.0266 7.56929 11.16C7.57596 11.2383 7.63179 11.2433 7.64429 11.2433C7.67512 11.2433 7.69762 11.2233 7.71345 11.2058C7.77192 11.1459 7.84192 11.0984 7.91925 11.0662C7.99658 11.034 8.07965 11.0177 8.16346 11.0183C8.27012 11.0183 8.38262 11.0433 8.49846 11.0933C9.07345 11.3375 8.81429 12.0583 8.81012 12.0658C8.76179 12.1858 8.75929 12.2383 8.80596 12.2691L8.82845 12.28H8.84512C8.87012 12.28 8.90346 12.2683 8.95679 12.2508C9.03429 12.2241 9.15262 12.1841 9.26262 12.1841C9.46896 12.185 9.66669 12.2667 9.81322 12.4117C9.95975 12.5566 10.0433 12.7532 10.046 12.9591C10.0446 13.1653 9.96141 13.3625 9.81455 13.5074C9.6677 13.6524 9.4692 13.7333 9.26262 13.7325ZM15.3476 10.2566C14.3993 9.43995 12.2076 7.55662 11.6135 7.11495C11.2751 6.86329 11.0426 6.72995 10.8401 6.67079C10.7171 6.63266 10.589 6.613 10.4601 6.61245C10.3085 6.61245 10.1468 6.63912 9.97679 6.69162C9.59346 6.81245 9.21179 7.11245 8.84179 7.40329L8.82262 7.41829C8.47762 7.68829 8.12262 7.96829 7.85262 8.02662C7.73503 8.05321 7.61487 8.0669 7.49429 8.06745C7.19262 8.06745 6.92179 7.98079 6.81929 7.85245C6.80262 7.83162 6.81346 7.79745 6.85262 7.74829L6.85929 7.74162L7.69262 6.85245C8.34512 6.20745 8.96346 5.59745 10.3843 5.56495H10.4551C11.3401 5.56495 12.2218 5.95579 12.3218 6.00162C13.1143 6.3922 13.9849 6.59846 14.8685 6.60495C15.7651 6.60495 16.6918 6.38579 17.6635 5.94245C17.5535 5.85125 17.4409 5.76316 17.326 5.67829C16.4718 6.04495 15.6568 6.22829 14.871 6.22829C14.0693 6.22829 13.2668 6.03745 12.4893 5.66162C12.4476 5.64329 11.4726 5.18912 10.456 5.18662C10.4293 5.18662 10.4018 5.18662 10.376 5.18829C9.18095 5.21579 8.50929 5.63495 8.05762 6.00162C7.61762 6.01245 7.23929 6.11662 6.90096 6.20995C6.60012 6.29329 6.34012 6.36495 6.08512 6.36412C5.98096 6.36412 5.79346 6.35579 5.77679 6.35412C5.48512 6.34579 4.01429 5.98995 2.84512 5.55245C2.72596 5.63579 2.61179 5.72162 2.49929 5.81079C3.72096 6.30495 5.20762 6.68829 5.67596 6.71829C5.80679 6.72662 5.94512 6.74079 6.08512 6.74079C6.39512 6.74079 6.70512 6.65495 7.00512 6.57162C7.18262 6.52245 7.37679 6.46912 7.58179 6.42995L7.41846 6.59162L6.57096 7.49745C6.50429 7.56412 6.35929 7.74245 6.45429 7.96162C6.50382 8.06239 6.58134 8.14685 6.67762 8.20495C6.88012 8.33995 7.24179 8.42995 7.57762 8.43079C7.70429 8.43079 7.82512 8.41829 7.93596 8.39412C8.29179 8.31495 8.66429 8.02079 9.06012 7.71079C9.37429 7.46412 9.82096 7.15079 10.1626 7.05912C10.2632 7.03243 10.3668 7.01843 10.471 7.01745C10.4974 7.01679 10.5239 7.01818 10.5501 7.02162C10.7751 7.04995 10.9943 7.12579 11.386 7.41495C12.0818 7.93162 15.1618 10.5941 15.191 10.62C15.1926 10.6216 15.3893 10.7891 15.3743 11.0675C15.3685 11.2225 15.2826 11.3608 15.1293 11.4558C15.0096 11.5351 14.8696 11.5784 14.726 11.5808C14.5997 11.5806 14.476 11.5447 14.3693 11.4775C14.3576 11.4691 13.3026 10.5133 12.9143 10.1916C12.8526 10.1416 12.7926 10.0958 12.731 10.0958C12.7157 10.0956 12.7005 10.0989 12.6867 10.1054C12.6728 10.1119 12.6606 10.1214 12.651 10.1333C12.5901 10.2083 12.6593 10.31 12.7385 10.3783L13.9718 11.6033C13.9735 11.6033 14.1251 11.745 14.1418 11.9325C14.1518 12.1358 14.0535 12.305 13.8501 12.4375C13.7213 12.527 13.5688 12.5766 13.4118 12.58C13.2873 12.5795 13.1656 12.5427 13.0618 12.4741L12.8835 12.3025C12.5934 12.0117 12.2933 11.7313 11.9835 11.4616C11.9235 11.4133 11.8601 11.3683 11.7993 11.3683C11.7848 11.3679 11.7703 11.3705 11.7568 11.376C11.7433 11.3814 11.7311 11.3896 11.721 11.4C11.6935 11.4308 11.6743 11.4858 11.7443 11.5766C11.7632 11.6013 11.7841 11.6244 11.8068 11.6458L12.7051 12.6441C12.7135 12.6525 12.8901 12.8608 12.7251 13.07L12.6935 13.11C12.6673 13.1382 12.6394 13.1649 12.6101 13.19C12.4568 13.315 12.2518 13.3266 12.171 13.3266C12.1299 13.3271 12.0889 13.3237 12.0485 13.3166C11.9601 13.3016 11.9001 13.2766 11.8718 13.2425L11.861 13.2316C11.811 13.1816 11.3593 12.7241 10.9826 12.415C10.9335 12.3733 10.8718 12.3233 10.8076 12.3233C10.7926 12.3231 10.7777 12.3262 10.7639 12.3322C10.7501 12.3383 10.7377 12.3471 10.7276 12.3583C10.6526 12.4383 10.7643 12.5583 10.811 12.6025L11.5776 13.4383C11.5715 13.457 11.5622 13.4745 11.5501 13.49C11.5226 13.5266 11.4301 13.6191 11.151 13.6533C11.1172 13.6575 11.0833 13.6594 11.0493 13.6591C10.7618 13.6591 10.456 13.5225 10.2976 13.4391C10.3691 13.2891 10.4061 13.1252 10.406 12.9591C10.4052 12.8066 10.3736 12.6558 10.3133 12.5157C10.2529 12.3755 10.1649 12.249 10.0545 12.1435C9.94409 12.038 9.81355 11.9557 9.67064 11.9015C9.52774 11.8474 9.37537 11.8225 9.22262 11.8283C9.24262 11.5433 9.20179 11.0033 8.64179 10.7666C8.49084 10.6997 8.32779 10.6642 8.16262 10.6625C8.04096 10.6625 7.92346 10.6833 7.81262 10.725C7.69563 10.5009 7.49467 10.332 7.25346 10.255C7.12111 10.2088 6.982 10.1849 6.84179 10.1841C6.60846 10.1841 6.39429 10.2508 6.20262 10.3858C6.11164 10.2742 5.99693 10.1841 5.86679 10.1222C5.73665 10.0602 5.59433 10.0279 5.45012 10.0275C5.19451 10.0278 4.94921 10.128 4.76679 10.3066C4.52762 10.1258 3.57929 9.53162 1.04429 8.96245C0.851001 8.91392 0.658738 8.8614 0.467622 8.80495C0.439123 8.94097 0.417705 9.07838 0.403455 9.21662L0.961789 9.34745C3.55179 9.91579 4.40846 10.5066 4.55262 10.6183C4.50332 10.7349 4.47782 10.8601 4.47762 10.9866C4.47828 11.1283 4.5102 11.2682 4.57111 11.3962C4.63202 11.5242 4.72042 11.6372 4.83004 11.7273C4.93966 11.8173 5.0678 11.8822 5.20536 11.9172C5.34292 11.9522 5.48652 11.9566 5.62596 11.93C5.70596 12.3191 5.96429 12.6141 6.35846 12.7658C6.46869 12.8089 6.5859 12.8315 6.70429 12.8325C6.77929 12.8325 6.85346 12.8225 6.92596 12.8041C6.99762 12.9875 7.16096 13.215 7.52762 13.3608C7.64841 13.4108 7.77767 13.4374 7.90845 13.4391C8.01012 13.4391 8.10929 13.4208 8.20429 13.3866C8.29152 13.5946 8.4385 13.7721 8.62669 13.8968C8.81489 14.0215 9.03587 14.0879 9.26179 14.0875C9.57012 14.0891 9.86679 13.965 10.0826 13.7458C10.2668 13.8466 10.656 14.03 11.0518 14.03C11.1018 14.03 11.1501 14.0283 11.1976 14.0216C11.5893 13.9725 11.7718 13.8216 11.8551 13.7033C11.8702 13.6827 11.8836 13.661 11.8951 13.6383C11.9868 13.665 12.0901 13.6866 12.206 13.6866C12.4185 13.6866 12.6235 13.615 12.831 13.4658C13.0343 13.3208 13.1793 13.1125 13.201 12.935V12.9266C13.2701 12.9408 13.3401 12.9483 13.4101 12.9483C13.631 12.9483 13.8493 12.88 14.0543 12.7466C14.4543 12.4883 14.5226 12.1508 14.516 11.93C14.6557 11.9589 14.7999 11.9594 14.9399 11.9317C15.0799 11.9039 15.2128 11.8483 15.331 11.7683C15.4492 11.6974 15.5489 11.5994 15.6216 11.4823C15.6944 11.3651 15.7381 11.2324 15.7493 11.095C15.7637 10.9041 15.717 10.7135 15.616 10.5508C16.286 10.2658 17.8126 9.71495 19.6118 9.31495C19.6004 9.17741 19.5818 9.04055 19.556 8.90495C18.1134 9.21991 16.7045 9.67197 15.3485 10.255L15.3476 10.2566ZM19.6168 9.62079C19.6168 12.9766 15.3118 15.6983 10.0026 15.6983C4.69262 15.6983 0.387622 12.9766 0.387622 9.62079C0.387622 6.26412 4.69179 3.54329 10.0035 3.54329C15.3126 3.54329 19.6168 6.26412 19.6168 9.62079ZM20.0001 9.62412C20.0001 6.06412 15.5218 3.16162 10.0001 3.16162C4.47846 3.16162 0.00178874 6.06412 0.00178874 9.62495L0.00012207 10.0033C0.00012207 13.7808 3.91262 16.8391 9.99929 16.8391C16.1218 16.8391 19.9993 13.7808 19.9993 10.0025L20.0001 9.62412Z" fill="white"/>
</g>
<defs>
<clipPath id="clip0_822_5351">
<rect width="20" height="20" fill="white"/>
</clipPath>
</defs>
</svg>
