<svg width="20" height="20" viewBox="0 0 20 20" fill="none" xmlns="http://www.w3.org/2000/svg">
<g clip-path="url(#clip0_822_5188)">
<path d="M19.2257 7.00741C18.7918 6.1924 18.1438 5.5112 17.3514 5.03719C16.5591 4.56318 15.6524 4.31432 14.7291 4.31741H0.486567C0.39009 4.31822 0.29599 4.34744 0.216028 4.40143C0.136066 4.45542 0.0737886 4.53177 0.0369776 4.62096C0.000166542 4.71014 -0.00954487 4.80819 0.00905696 4.90286C0.0276588 4.99753 0.0737488 5.08462 0.141567 5.15324L3.2449 8.27491C3.38059 8.41123 3.54188 8.51939 3.7195 8.59318C3.89711 8.66697 4.08756 8.70494 4.2799 8.70491H14.3207C14.6642 8.70149 14.9949 8.83464 15.2402 9.07507C15.4855 9.31551 15.6252 9.64354 15.6286 9.98699C15.6321 10.3304 15.4989 10.6612 15.2585 10.9065C15.018 11.1518 14.69 11.2915 14.3466 11.2949H7.4249C7.32835 11.2956 7.23414 11.3247 7.15405 11.3786C7.07396 11.4325 7.01156 11.5089 6.97464 11.5981C6.93773 11.6873 6.92795 11.7854 6.94652 11.8802C6.9651 11.9749 7.0112 12.0621 7.07907 12.1307L10.1832 15.2532C10.3189 15.3896 10.4801 15.4978 10.6578 15.5716C10.8354 15.6454 11.0259 15.6834 11.2182 15.6832H14.3491C18.4216 15.6832 21.5024 11.3291 19.2257 7.00574" fill="white"/>
</g>
<defs>
<clipPath id="clip0_822_5188">
<rect width="20" height="20" fill="white"/>
</clipPath>
</defs>
</svg>
