<svg width="24" height="24" viewBox="0 0 24 24" fill="none" xmlns="http://www.w3.org/2000/svg">
<path fill-rule="evenodd" clip-rule="evenodd" d="M13.6604 1C17.2873 1.56444 20.3408 3.91554 21.8878 7.13007H16.5174C15.7259 6.37165 14.7422 5.82326 13.6604 5.53593V1ZM22.3789 8.28958C22.5753 8.83943 22.7313 9.41408 22.8339 9.99894H18.3128C18.1164 9.38783 17.8463 8.81318 17.4953 8.28958H22.3789ZM22.974 11.1643C23 11.4356 23 11.7229 23 12C23 12.2975 22.9884 12.5863 22.9624 12.8736H18.544C18.5801 12.5863 18.596 12.2975 18.596 12C18.596 11.7127 18.5801 11.4356 18.544 11.1643H22.974ZM22.8194 14.0229C22.7155 14.5976 22.5609 15.162 22.3789 15.7104H17.4953C17.8319 15.1985 18.1164 14.6238 18.2912 14.0229H22.8194ZM21.9037 16.8714C20.3524 20.1005 17.3046 22.4516 13.6719 23V18.4641C14.7581 18.1767 15.7418 17.6283 16.529 16.8714H21.9037ZM2.10643 16.8714H7.48257C8.26978 17.6283 9.25199 18.1767 10.3382 18.4641V23C6.70691 22.4356 3.65918 20.0845 2.10643 16.8714ZM1.63121 15.7104C1.43477 15.162 1.29466 14.5976 1.19066 14.0229H5.72326C5.9197 14.6238 6.18981 15.1883 6.52492 15.7104H1.63121ZM1.03611 12.8736C1.01011 12.5863 1 12.2873 1 12C1 11.7127 1.01011 11.4356 1.026 11.1643H5.44449C5.40404 11.4356 5.39393 11.7229 5.39393 12C5.39393 12.2975 5.40404 12.5863 5.44449 12.8736H1.03611ZM1.17622 9.99894C1.28022 9.41408 1.43477 8.83943 1.63121 8.28958H6.51625C6.16381 8.81318 5.89515 9.38783 5.70448 9.99894H1.17622ZM2.10209 7.12424C3.6534 3.90095 6.70114 1.5484 10.3339 1V5.53156C9.24765 5.81888 8.26978 6.36728 7.47824 7.12424H2.10209Z" fill="black"/>
</svg>
