<svg width="24" height="24" viewBox="0 0 24 24" fill="none" xmlns="http://www.w3.org/2000/svg">
<g clip-path="url(#clip0_1691_76)">
<path d="M23.2622 17.7261C23.1637 17.4003 22.6926 17.1706 22.6926 17.1706C22.6481 17.1472 22.6082 17.1261 22.5754 17.1097C21.7902 16.73 21.0941 16.2729 20.5081 15.7549C20.037 15.3377 19.6339 14.8783 19.3104 14.3908C18.9143 13.7954 18.7291 13.2985 18.6494 13.029C18.6049 12.8532 18.6119 12.7829 18.6494 12.6915C18.6799 12.6141 18.7713 12.5414 18.8135 12.5063C19.0784 12.3188 19.5049 12.0422 19.7675 11.8734C19.9948 11.7258 20.1894 11.5992 20.3042 11.5195C20.6722 11.2617 20.9253 10.9992 21.073 10.7156C21.2652 10.3499 21.2886 9.94676 21.1386 9.55064C20.9371 9.01624 20.4378 8.69747 19.8026 8.69747C19.662 8.69747 19.5167 8.71387 19.3713 8.74434C19.008 8.82404 18.6635 8.95295 18.3752 9.06546C18.3541 9.07483 18.3307 9.05843 18.333 9.03499C18.3635 8.3201 18.3986 7.35911 18.3189 6.44734C18.2486 5.62229 18.0775 4.92615 17.8009 4.31909C17.522 3.70967 17.1587 3.25965 16.8751 2.93385C16.6056 2.62445 16.1297 2.1674 15.4125 1.75722C14.4046 1.18062 13.2561 0.887634 11.9998 0.887634C10.7458 0.887634 9.59968 1.18062 8.58946 1.75722C7.83004 2.19084 7.34486 2.68071 7.12453 2.93385C6.84092 3.25965 6.47762 3.70967 6.1987 4.31909C5.91977 4.92615 5.75101 5.61994 5.6807 6.44734C5.601 7.3638 5.63382 8.24744 5.66663 9.03499C5.66663 9.05843 5.64554 9.07483 5.6221 9.06546C5.3338 8.95295 4.98925 8.82404 4.62595 8.74434C4.48297 8.71387 4.33765 8.69747 4.19467 8.69747C3.56182 8.69747 3.06258 9.01624 2.85866 9.55064C2.70865 9.94676 2.73209 10.3499 2.92429 10.7156C3.07429 10.9992 3.32509 11.2617 3.69308 11.5195C3.80559 11.5992 4.00247 11.7258 4.22983 11.8734C4.48531 12.0399 4.90018 12.3094 5.16739 12.4946C5.2002 12.518 5.31271 12.6024 5.34786 12.6915C5.38537 12.7852 5.3924 12.8555 5.34318 13.043C5.26114 13.3149 5.07597 13.8071 4.68689 14.3908C4.36343 14.8806 3.96028 15.3377 3.48916 15.7549C2.90319 16.2729 2.20706 16.73 1.42185 17.1097C1.38435 17.1284 1.33982 17.1495 1.29294 17.1777C1.29294 17.1777 0.824163 17.4167 0.735095 17.7261C0.603837 18.1832 0.953077 18.6121 1.307 18.8418C1.88829 19.2168 2.59614 19.4184 3.00632 19.5286C3.12117 19.559 3.2243 19.5872 3.31806 19.6153C3.37666 19.634 3.52432 19.6903 3.58761 19.7723C3.6673 19.8755 3.67667 20.002 3.7048 20.145C3.74933 20.3864 3.85012 20.6841 4.14779 20.8904C4.47594 21.1154 4.89081 21.1318 5.41818 21.1529C5.96899 21.174 6.65341 21.1998 7.43861 21.4599C7.80191 21.5795 8.1324 21.7834 8.51211 22.0178C9.30903 22.5077 10.3005 23.1171 11.9928 23.1171C13.6874 23.1171 14.6859 22.5053 15.4875 22.0131C15.8672 21.781 16.193 21.5795 16.5493 21.4623C17.3345 21.2021 18.0189 21.1763 18.5697 21.1552C19.0971 21.1341 19.512 21.1201 19.8401 20.8927C20.1589 20.6724 20.2503 20.3442 20.2925 20.0981C20.3159 19.9763 20.33 19.8661 20.4003 19.777C20.4612 19.6997 20.5972 19.6458 20.6605 19.6247C20.7566 19.5942 20.8644 19.5661 20.9839 19.5333C21.3941 19.4231 21.9098 19.2942 22.5356 18.9403C23.2903 18.5113 23.3419 17.9863 23.2622 17.7261Z" fill="white"/>
<path d="M23.9138 17.473C23.7474 17.0183 23.4286 16.7769 23.0677 16.5753C22.9997 16.5354 22.9364 16.5026 22.8848 16.4792C22.777 16.4229 22.6669 16.369 22.5567 16.3128C21.4293 15.7151 20.548 14.9603 19.9386 14.0673C19.7323 13.765 19.5893 13.4931 19.4885 13.2704C19.437 13.1204 19.4393 13.036 19.4768 12.9587C19.505 12.9001 19.58 12.8391 19.6222 12.8087C19.8167 12.6797 20.0159 12.5508 20.1519 12.4641C20.3933 12.3071 20.5855 12.1828 20.7074 12.0985C21.1715 11.775 21.4949 11.4304 21.6965 11.0461C21.9824 10.5046 22.0176 9.88583 21.7973 9.30454C21.4926 8.49825 20.7285 7.99665 19.805 7.99665C19.6128 7.99665 19.4182 8.01775 19.226 8.05994C19.1745 8.07166 19.1252 8.08338 19.076 8.0951C19.0854 7.54663 19.0713 6.96066 19.0221 6.38875C18.8487 4.37301 18.1432 3.31591 17.4072 2.47446C17.1001 2.12287 16.5657 1.60956 15.7641 1.15016C14.6461 0.507935 13.3804 0.184479 11.9998 0.184479C10.624 0.184479 9.35827 0.507935 8.24023 1.14782C7.43394 1.60722 6.89953 2.12287 6.59483 2.47211C5.85884 3.31357 5.15334 4.37066 4.97989 6.3864C4.93067 6.95831 4.91895 7.54428 4.92598 8.09275C4.87676 8.08103 4.82519 8.06931 4.77597 8.0576C4.58377 8.01541 4.38688 7.99431 4.19703 7.99431C3.27354 7.99431 2.50943 8.4959 2.20473 9.3022C1.9844 9.88348 2.01956 10.5023 2.30551 11.0437C2.50709 11.4281 2.83289 11.7727 3.29463 12.0961C3.41886 12.1828 3.60871 12.3071 3.85013 12.4618C3.98139 12.5461 4.17125 12.6704 4.35876 12.7946C4.38688 12.8133 4.48767 12.8883 4.52283 12.9587C4.56268 13.0384 4.56268 13.1251 4.50408 13.2845C4.40564 13.5024 4.26266 13.7696 4.06108 14.065C3.46339 14.9392 2.60787 15.6799 1.51797 16.2706C0.939026 16.5776 0.338991 16.7815 0.0858514 17.4706C-0.106347 17.991 0.0202225 18.584 0.505407 19.0832C0.664792 19.2543 0.866366 19.4067 1.11951 19.5473C1.71485 19.8755 2.22113 20.0372 2.61959 20.1474C2.68991 20.1685 2.85164 20.22 2.92195 20.2833C3.10009 20.438 3.07431 20.6724 3.31104 21.0146C3.45402 21.2279 3.61809 21.3732 3.75403 21.467C4.24859 21.8092 4.80644 21.8303 5.3971 21.8537C5.92916 21.8748 6.53389 21.8982 7.22299 22.1256C7.50894 22.2194 7.80662 22.4022 8.14882 22.6131C8.97387 23.1218 10.106 23.8155 11.9975 23.8155C13.8913 23.8155 15.0281 23.1171 15.8602 22.6084C16.2024 22.3998 16.4977 22.217 16.7743 22.1256C17.4634 21.8982 18.0682 21.8748 18.6002 21.8537C19.1909 21.8303 19.7464 21.8092 20.2433 21.467C20.398 21.3592 20.5949 21.1834 20.7496 20.9162C20.9183 20.6279 20.916 20.4239 21.0754 20.2857C21.141 20.2294 21.284 20.1802 21.3613 20.1567C21.7621 20.0466 22.2754 19.8848 22.8825 19.5497C23.152 19.402 23.3606 19.2403 23.5271 19.0551C23.5294 19.0528 23.5318 19.0504 23.5341 19.0481C23.9865 18.5559 24.1013 17.9816 23.9138 17.473ZM22.2332 18.3754C21.2066 18.9426 20.5245 18.8817 19.9948 19.2215C19.5448 19.5122 19.8097 20.138 19.4839 20.363C19.0807 20.6419 17.8924 20.3442 16.3571 20.8505C15.0914 21.2701 14.2828 22.4725 12.0022 22.4725C9.71688 22.4725 8.93168 21.2748 7.64723 20.8505C6.11198 20.3442 4.92129 20.6419 4.52049 20.363C4.19469 20.138 4.45955 19.5122 4.00952 19.2215C3.4798 18.8793 2.79773 18.9403 1.77111 18.3754C1.11716 18.0144 1.4875 17.7918 1.70548 17.6863C5.42288 15.8885 6.01354 13.1087 6.04167 12.9001C6.07448 12.6516 6.10964 12.4547 5.83541 12.1992C5.57055 11.9531 4.39157 11.2242 4.06577 10.9968C3.52433 10.6195 3.2876 10.2421 3.46339 9.77801C3.58527 9.4569 3.88529 9.33736 4.20172 9.33736C4.30016 9.33736 4.40095 9.34908 4.49705 9.37017C5.09005 9.49909 5.66665 9.79676 5.99948 9.87645C6.04636 9.88817 6.0862 9.89286 6.12136 9.89286C6.2995 9.89286 6.36044 9.80379 6.34872 9.59987C6.31121 8.95062 6.21746 7.68492 6.32059 6.50125C6.46122 4.8746 6.98626 4.0683 7.60973 3.35341C7.90975 3.01121 9.31608 1.52518 12.0045 1.52518C14.7 1.52518 16.0993 3.01121 16.3993 3.35341C17.0228 4.06596 17.5478 4.87225 17.6884 6.50125C17.7916 7.68492 17.7025 8.95062 17.6603 9.59987C17.6463 9.81317 17.7119 9.89286 17.8877 9.89286C17.9228 9.89286 17.965 9.88817 18.0096 9.87645C18.3424 9.79676 18.919 9.49909 19.512 9.37017C19.6081 9.34908 19.7089 9.33736 19.8073 9.33736C20.1237 9.33736 20.4238 9.45924 20.5456 9.77801C20.7214 10.2421 20.4824 10.6195 19.9433 10.9968C19.6175 11.2242 18.4385 11.9531 18.1736 12.1992C17.8994 12.4524 17.9346 12.6493 17.9674 12.9001C17.9931 13.1087 18.5862 15.8885 22.3036 17.6863C22.5145 17.7918 22.8872 18.0144 22.2332 18.3754Z" fill="black"/>
</g>
<defs>
<clipPath id="clip0_1691_76">
<rect width="24" height="24" fill="white"/>
</clipPath>
</defs>
</svg>
