<svg width="24" height="24" viewBox="0 0 24 24" fill="none" xmlns="http://www.w3.org/2000/svg">
<g clip-path="url(#clip0_1691_65)">
<path d="M23.9801 11.9854L16.3388 10.3795C16.265 10.364 16.2223 10.2883 16.2456 10.2164L17.4933 6.5464C17.5011 6.525 17.4797 6.50755 17.4603 6.51335L13.8007 7.80855C13.7289 7.8338 13.6513 7.7911 13.6358 7.71534L12.0291 0.0218456C12.0233 -0.00728185 11.9806 -0.00728185 11.9748 0.0218456L10.3332 7.73284C10.3176 7.8066 10.24 7.84935 10.1682 7.8241L6.46399 6.51335C6.44461 6.5056 6.42517 6.525 6.43102 6.5464L7.69425 10.2572C7.71753 10.329 7.67481 10.4048 7.60106 10.4203L0.0218297 11.9854C-0.00727656 11.9913 -0.00727656 12.034 0.0218297 12.0398L3.76101 12.8184L6.30295 11.8398L6.86957 11.5854L8.18321 11.0728C8.50339 11.4281 9.02533 11.4805 9.19027 11.4883C9.06026 11.3485 8.97102 11.2417 8.93999 11.1407C8.85265 10.9543 8.86235 10.8048 8.86235 10.7485C8.87009 10.5271 8.98461 10.0611 9.46778 9.89993C10.11 9.68437 10.5757 10.4611 10.5757 10.4611L13.4204 10.6631L13.3505 11.0805C13.3428 11.1194 13.3719 11.1582 13.4126 11.1601L15.4481 11.3368C15.4442 11.6184 15.3919 11.8981 15.2929 12.1621L15.289 12.1738L15.2289 12.8961C15.2114 13.0942 15.1629 13.2884 15.0794 13.4709C14.9592 13.7389 14.7728 13.9719 14.538 14.1505C13.5232 14.9234 10.6844 17.275 11.0007 19.2342L11.9748 23.9781C11.9806 24.0073 12.0233 24.0073 12.0291 23.9781L13.5853 16.3662C13.6008 16.2924 13.6785 16.2477 13.7502 16.273L17.4545 17.5837C17.4739 17.5915 17.4933 17.572 17.4875 17.5507L16.2204 13.8263C16.1971 13.7544 16.2398 13.6787 16.3135 13.6632L23.9782 12.0379C24.0073 12.032 24.0073 11.9893 23.9782 11.9835" fill="black"/>
</g>
<defs>
<clipPath id="clip0_1691_65">
<rect width="24" height="24" fill="white"/>
</clipPath>
</defs>
</svg>
