<svg width="24" height="24" viewBox="0 0 24 24" fill="none" xmlns="http://www.w3.org/2000/svg">
<path fill-rule="evenodd" clip-rule="evenodd" d="M6.32147 11.741C6.37538 9.3593 7.16319 7.23671 8.37923 5.80122V5.80177C9.95731 3.75279 12.3032 2.45302 14.9228 2.45302C16.5344 2.45302 18.0423 2.94501 19.3316 3.79985C17.3951 2.06773 14.8421 1.01094 12.0414 1.00055L12.0002 1C5.92496 1 1 5.92462 1 12.0002C1 17.8993 5.64422 22.7139 11.4762 22.9877C11.6501 22.9957 11.8243 23 12.0002 23C14.816 23 17.3849 21.9411 19.3312 20.2008C18.0414 21.0559 16.534 21.5475 14.9228 21.5475C12.3032 21.5475 9.95731 20.2487 8.37923 18.1992C7.16319 16.7633 6.3751 14.641 6.32147 12.2593V11.741ZM19.3316 20.1996C21.5825 18.1857 23 15.2586 23 12.0002C23 8.74116 21.5831 5.81408 19.3316 3.80013C16.5099 2.42565 13.8802 3.38802 13.01 3.9881C15.782 4.59667 17.8753 7.94653 17.8753 11.9996C17.8753 16.0528 15.7814 19.4035 13.01 20.0117C13.8808 20.612 16.5105 21.5744 19.3316 20.1996Z" fill="black"/>
</svg>
