<svg width="24" height="24" viewBox="0 0 24 24" fill="none" xmlns="http://www.w3.org/2000/svg">
<path d="M20.9554 9C22.3768 9 23.5787 9.65705 23.9809 10.8756C23.9809 10.8756 24.1732 11.6115 23.3383 11.7026C22.7213 11.7026 22.6268 11.2246 22.6268 11.2246C22.388 10.5706 21.731 10.3308 20.9586 10.3308C19.9843 10.3308 19.1943 11.0774 19.1943 12C19.1943 12.9226 19.9843 13.6707 20.9586 13.6707C21.7214 13.6707 22.3704 13.3505 22.6172 12.7071C22.6178 12.7056 22.7688 12.2929 23.3159 12.3035C24.0697 12.3778 23.9763 13.0469 23.9761 13.0486C23.569 14.2595 22.3704 15 20.9554 15C19.2055 15 17.7874 13.6571 17.7873 12C17.7873 10.3429 19.2055 9 20.9554 9Z" fill="black"/>
<path d="M4.30421 9.37329C5.1407 9.14263 6.01405 9.06374 6.92264 9.13506C7.09571 9.15934 7.24955 9.261 7.36332 9.35964C7.51555 9.54628 7.56363 9.78149 7.55241 10.0243L7.55562 14.0303C7.55562 14.0303 7.61651 14.7314 6.85374 14.7314C6.1134 14.7314 6.07493 14.0076 6.07493 14.0076V10.8164C6.07493 10.5797 6.07493 10.5099 5.91469 10.4977C5.15352 10.4507 4.4196 10.7724 3.78022 11.0819C3.00623 11.4568 2.28351 12.3156 1.9566 13.0834C1.91814 13.217 1.93738 13.3308 2.09602 13.3308H4.76573C4.76824 13.3308 5.50767 13.335 5.50767 14.041C5.50767 14.7715 4.78027 14.7466 4.77855 14.7466L0.471131 14.7253C0.133012 14.7253 0.0096155 14.3976 0 14.1168C0.00961478 13.5326 0.249981 12.8983 0.50958 12.4143C1.26915 10.9939 2.75303 9.80121 4.30421 9.37329Z" fill="black"/>
<path d="M9.46576 9.31411C10.0859 9.08346 10.8134 9.08801 11.4656 9.22762C11.8999 9.37784 12.2749 9.57967 12.6418 9.87861L12.7107 9.93627L12.7829 9.87861C13.9302 8.95903 15.1337 8.97724 16.156 9.45523C17.1079 9.9302 17.4476 10.613 17.4636 11.61V14.0561C17.4636 14.0578 17.4532 14.7466 16.7057 14.7466C15.9958 14.7466 15.9621 14.0607 15.9621 14.0607L15.9525 11.6434C15.9525 11.6434 15.9093 10.5205 14.7234 10.5205C13.5338 10.5205 13.4384 11.6354 13.4383 11.6373V14.0167C13.4383 14.0167 13.4383 14.7375 12.6835 14.7375C11.9464 14.7375 11.9303 14.0167 11.9303 14.0167V11.6449C11.9303 11.6428 11.9067 10.5205 10.6468 10.5205C9.39365 10.5205 9.4257 11.6616 9.4257 11.6616V14.1017C9.42549 14.1031 9.3368 14.7435 8.67734 14.7435C7.99149 14.7435 7.92259 14.0956 7.92259 14.0956L7.91778 11.6328C7.91778 10.7253 8.10206 9.8255 9.46576 9.31411Z" fill="black"/>
</svg>
