<svg width="24" height="24" viewBox="0 0 24 24" fill="none" xmlns="http://www.w3.org/2000/svg">
<path fill-rule="evenodd" clip-rule="evenodd" d="M11.6652 14.632C6.35267 14.1833 3.96419 14.0696 1.94005 15.0526C1.85598 15.0822 1.80304 15.1055 1.71896 15.1663C1.71896 15.1663 1.40755 15.615 1.04165 16.2023C0.70689 16.7117 0.340989 17.3286 0.113663 17.7772C0.0840794 17.8318 0 18 0 18C0.62281 17.5498 1.35306 17.3286 2.33554 17.2149C3.51577 17.0466 4.91553 17.0778 6.35267 17.1307C7.58739 17.1853 8.93422 17.274 10.2873 17.3582C12.5636 17.4657 15.4846 16.316 17.0837 14.741C17.0837 14.741 16.4671 14.8002 15.5687 14.8002C14.6703 14.8251 12.7847 14.741 11.6652 14.632ZM21.694 6.78982C20.4842 6.92847 19.1078 6.90354 17.6769 6.84435C16.4126 6.78982 15.0891 6.7057 13.7423 6.6465C11.4675 6.53901 8.51538 7.68869 6.93967 9.26522C6.93967 9.26522 7.56248 9.20447 8.46088 9.20447C9.35928 9.1811 11.2153 9.26522 12.3659 9.34779C17.6769 9.798 20.0654 9.93509 22.0833 8.95365C22.144 8.89913 22.197 8.86953 22.281 8.83993C22.281 8.83993 22.622 8.36012 22.9879 7.80241C23.2931 7.26964 23.659 6.6465 23.8863 6.19784C23.9097 6.14332 24 6 24 6C23.4068 6.42529 22.6765 6.6761 21.694 6.78982ZM5.47918 10.6673C4.54496 11.6217 3.67458 12.6063 2.86804 13.6209C6.93967 12.1285 13.378 14.0696 18.5208 13.339C19.0782 12.8046 20.7365 10.9181 21.132 10.3604C17.0603 11.8466 10.6532 9.90549 5.47918 10.6673Z" fill="black"/>
</svg>
