<svg width="20" height="20" viewBox="0 0 20 20" fill="none" xmlns="http://www.w3.org/2000/svg">
<g clip-path="url(#clip0_822_4855)">
<path d="M19.0771 8.69206C19.2217 8.69206 19.3487 8.72186 19.4571 8.78809C19.5657 8.85441 19.6324 8.93316 19.6565 9.01758C19.6866 9.10197 19.6988 9.24661 19.6988 9.45133V10.5369C19.6988 10.778 19.6861 10.9406 19.65 11.0431C19.6199 11.1456 19.5474 11.2245 19.4449 11.2848C19.3425 11.345 19.216 11.3752 19.0714 11.3752C18.9568 11.3752 18.8484 11.3567 18.7459 11.3084C18.6494 11.2602 18.5593 11.1938 18.4749 11.1034V11.9839H17.6122V8.70426H18.4684V8.96305C18.5528 8.87264 18.6434 8.8062 18.7459 8.75798C18.8482 8.71585 18.9567 8.6921 19.0771 8.69206ZM1.10915 8.0166C1.39857 8.0166 1.63398 8.06513 1.82692 8.17367C2.01978 8.27615 2.14018 8.39683 2.20046 8.5415C2.26068 8.68014 2.28508 8.88484 2.2851 9.15592L1.30202 9.29508V8.99967C1.30202 8.81276 1.29 8.69195 1.27191 8.64974C1.25381 8.60154 1.21159 8.57731 1.13926 8.57731C1.07919 8.57736 1.03722 8.59551 1.01312 8.63753C0.98902 8.67971 0.98302 8.78222 0.983012 8.95085V10.5247C0.983012 10.6694 0.995034 10.7722 1.01312 10.8145C1.03726 10.8626 1.07954 10.8869 1.14577 10.8869C1.218 10.8868 1.26654 10.8622 1.29063 10.8079C1.3146 10.7536 1.32642 10.6513 1.32644 10.5011V10.1146H1.13357V9.69873H2.2851V11.3809H1.64626L1.57383 11.1457C1.5076 11.248 1.42305 11.3204 1.32074 11.3687C1.21824 11.4169 1.09728 11.4411 0.958598 11.4411C0.79588 11.4411 0.639379 11.4048 0.494731 11.3385C0.350022 11.2722 0.240751 11.1823 0.168396 11.0798C0.0961159 10.9773 0.0481589 10.8687 0.0300496 10.7542C0.0119619 10.6397 -5.98801e-05 10.4706 -6.10352e-05 10.2415V9.27067C-5.81062e-05 8.95726 0.0179833 8.7282 0.0601603 8.58952C0.0963376 8.44481 0.210972 8.31786 0.397888 8.19727C0.578717 8.07675 0.819887 8.01663 1.10915 8.0166ZM12.2639 8.0166C12.517 8.0166 12.7342 8.05259 12.915 8.12484C13.0959 8.19719 13.2111 8.28812 13.2714 8.39665C13.3316 8.50517 13.3617 8.69198 13.3618 8.95085V9.0835H12.4511V8.84261C12.4511 8.72807 12.4386 8.65547 12.4145 8.62533C12.3904 8.59543 12.3545 8.57736 12.3006 8.57731C12.2404 8.57731 12.198 8.59546 12.1679 8.63753C12.1378 8.67371 12.1256 8.74029 12.1256 8.82471C12.1256 8.93317 12.144 9.01786 12.1801 9.0721C12.2105 9.12626 12.3066 9.19254 12.4568 9.27067C12.8967 9.49967 13.1682 9.6867 13.2828 9.83138C13.3974 9.97607 13.4521 10.2053 13.4521 10.5247C13.4521 10.7598 13.4155 10.9346 13.3552 11.0431C13.2889 11.1517 13.1683 11.2483 12.9874 11.3206C12.8066 11.399 12.6018 11.4354 12.3608 11.4354C12.0955 11.4354 11.8722 11.3928 11.6853 11.3084C11.4985 11.218 11.3778 11.1098 11.3175 10.9772C11.2632 10.8446 11.2329 10.7239 11.2328 10.4767V10.362H12.1435V10.5915C12.1435 10.7179 12.156 10.7962 12.1801 10.8324C12.2103 10.8684 12.2522 10.8869 12.3185 10.8869C12.3848 10.8869 12.4332 10.8623 12.4633 10.8201C12.4934 10.772 12.5113 10.7058 12.5113 10.6216C12.5113 10.4287 12.4813 10.3019 12.421 10.2415C12.3607 10.1813 12.2038 10.079 11.9628 9.94043C11.7218 9.79579 11.5587 9.69913 11.4802 9.63281C11.3959 9.56656 11.3359 9.48188 11.2817 9.36751C11.2274 9.25905 11.2028 9.11416 11.2027 8.93945C11.2027 8.68621 11.2394 8.499 11.3118 8.38444C11.3842 8.26993 11.5047 8.17975 11.6674 8.11344C11.8302 8.04715 12.0289 8.01662 12.2639 8.0166ZM16.171 8.68555C16.388 8.68555 16.5688 8.71028 16.7195 8.76449C16.8702 8.81272 16.985 8.88515 17.0694 8.96956C17.1538 9.05395 17.2086 9.14445 17.2387 9.23486C17.2688 9.32525 17.2867 9.46374 17.2867 9.64421V10.2839C17.2867 10.5189 17.2745 10.6937 17.2444 10.8022C17.2143 10.9108 17.1542 11.0134 17.0637 11.1099C16.9673 11.2063 16.8527 11.2724 16.7081 11.3206C16.5694 11.3628 16.4002 11.3874 16.2133 11.3874C16.0023 11.3874 15.8274 11.3633 15.6827 11.3271C15.538 11.285 15.4234 11.2305 15.345 11.1522C15.2667 11.0739 15.2127 10.9773 15.1765 10.869C15.1404 10.7545 15.122 10.5914 15.122 10.3685V9.69873C15.122 9.45775 15.1521 9.27096 15.2123 9.13232C15.2786 8.99972 15.3874 8.8912 15.5501 8.8068C15.7128 8.72843 15.9178 8.68556 16.171 8.68555ZM3.67832 8.68555C3.99154 8.68558 4.23254 8.73407 4.39528 8.8304C4.55808 8.92688 4.65485 9.04166 4.685 9.18034C4.71514 9.31903 4.73301 9.60271 4.73301 10.0308V11.3328H3.81667V11.0977C3.75641 11.1941 3.68405 11.2602 3.59369 11.3084C3.50328 11.3567 3.39473 11.3808 3.26817 11.3809C3.1054 11.3809 2.95435 11.3453 2.81569 11.2669C2.67705 11.1886 2.61065 11.0194 2.61062 10.7542V10.5369C2.61062 10.344 2.64731 10.2114 2.71967 10.139C2.7921 10.0667 2.9726 9.98796 3.26166 9.8916C3.56916 9.7891 3.73233 9.7227 3.75645 9.68652C3.77446 9.65031 3.78654 9.57819 3.78656 9.47005C3.78656 9.33782 3.77472 9.24713 3.75075 9.20475C3.72663 9.16255 3.68376 9.14372 3.6295 9.14372C3.56953 9.14378 3.53366 9.16229 3.51556 9.19824C3.49748 9.23442 3.49115 9.32534 3.49115 9.47005H3.50336V9.61409H2.61713V9.50016C2.61713 9.29539 2.6468 9.21057 2.70095 9.10221C2.75521 8.99368 2.86415 8.89691 3.03298 8.8125C3.19577 8.72811 3.41306 8.68555 3.67832 8.68555ZM9.78591 8.67985C10.0512 8.67985 10.2686 8.72239 10.4435 8.8068C10.6181 8.8912 10.7325 9.00595 10.8048 9.14453C10.871 9.28921 10.9073 9.48228 10.9073 9.73535H10.9016V10.0731H9.67767V10.6338C9.6777 10.7542 9.68971 10.8263 9.70778 10.8625C9.7319 10.8926 9.76798 10.9105 9.82823 10.9105C9.90053 10.9105 9.94898 10.8868 9.97308 10.8446C9.99719 10.8023 10.0089 10.7116 10.0089 10.585V10.2839H10.9016V10.4401C10.9016 10.5967 10.8891 10.7235 10.865 10.8079C10.8409 10.8983 10.7869 10.989 10.6966 11.0854C10.6061 11.1819 10.4975 11.2545 10.3588 11.3027C10.2201 11.351 10.0511 11.3752 9.84613 11.3752C9.64735 11.3752 9.47267 11.3509 9.32204 11.3027C9.1713 11.2545 9.05001 11.1878 8.9656 11.1034C8.88147 11.0191 8.82159 10.9289 8.79144 10.8267C8.7613 10.7242 8.74261 10.5728 8.74261 10.3799V9.62061C8.74261 9.39751 8.77931 9.21615 8.85166 9.0835C8.93002 8.95108 9.0444 8.85467 9.21299 8.78239C9.37578 8.71607 9.56885 8.67985 9.78591 8.67985ZM7.79616 8.68555C7.95291 8.68555 8.08559 8.71608 8.19411 8.78239C8.29656 8.84868 8.36933 8.92688 8.39349 9.02327C8.42364 9.11975 8.435 9.27089 8.435 9.48796V11.3328H7.51866V9.63851C7.51866 9.41544 7.51314 9.28262 7.49506 9.22835C7.47695 9.17414 7.43407 9.15023 7.3738 9.15023C7.30777 9.15032 7.26575 9.17433 7.24766 9.22835C7.22957 9.28262 7.21755 9.42147 7.21755 9.63851V11.3328H6.30121V9.68083C6.30121 9.42779 6.29485 9.27704 6.27679 9.22266C6.26474 9.16843 6.22259 9.14375 6.15635 9.14372C6.11414 9.14372 6.07745 9.15589 6.0473 9.18604C6.0172 9.21015 5.99929 9.24673 5.99929 9.28288C5.99327 9.31911 5.99359 9.40377 5.99359 9.53027V11.3328H5.08295V8.73438H5.99929V8.98096C6.07162 8.88456 6.16247 8.80618 6.25889 8.75798C6.36131 8.70983 6.47583 8.68556 6.60231 8.68555C6.85552 8.68555 7.05494 8.78204 7.19965 8.98096C7.27796 8.88466 7.3686 8.80615 7.46495 8.75798C7.56132 8.70987 7.67575 8.68556 7.79616 8.68555ZM14.6638 8.66195H14.9649V8.98747H14.6638V10.5915C14.6639 10.7598 14.6759 10.856 14.6939 10.8804C14.712 10.8985 14.8025 10.9105 14.9592 10.9105V11.3328H14.5792C14.3623 11.3328 14.2659 11.3265 14.1756 11.3084C14.0851 11.2964 14.0002 11.2602 13.9339 11.2059C13.8618 11.1517 13.8193 11.0857 13.8012 11.0195C13.7831 10.9472 13.7776 10.784 13.7776 10.5247V8.99316H13.5969V8.66764H13.7776V8.31201H14.6638V8.66195ZM3.78656 10.0967C3.63582 10.1932 3.55108 10.2716 3.52696 10.3319C3.50285 10.3982 3.49115 10.4891 3.49115 10.6037C3.49117 10.736 3.50321 10.8263 3.52126 10.8625C3.53933 10.9046 3.5815 10.9227 3.6417 10.9227C3.70197 10.9227 3.73835 10.9048 3.75645 10.8747C3.76549 10.8596 3.7714 10.8324 3.77517 10.7925L3.78656 10.6338V10.0967ZM18.6132 9.14372C18.5529 9.14372 18.5109 9.16255 18.4928 9.20475C18.4748 9.24107 18.4684 9.33747 18.4684 9.48796V10.5671C18.4684 10.7237 18.4804 10.8202 18.4985 10.8625C18.5165 10.9046 18.5588 10.9226 18.6189 10.9227C18.6732 10.9227 18.7159 10.9043 18.728 10.8682C18.7369 10.85 18.7429 10.8186 18.7467 10.7746L18.7459 10.6029V9.48145C18.7459 9.32523 18.74 9.22889 18.728 9.19255C18.7159 9.16241 18.6735 9.14373 18.6132 9.14372ZM16.2011 9.14372C16.1469 9.14376 16.1044 9.16211 16.0864 9.19824C16.0683 9.23441 16.0563 9.31889 16.0563 9.45133V10.6216C16.0563 10.7478 16.0683 10.8262 16.0864 10.8625C16.1105 10.8986 16.1469 10.917 16.2011 10.917C16.2612 10.917 16.2977 10.9049 16.3159 10.869C16.3249 10.8539 16.3326 10.8279 16.3378 10.7917L16.3403 10.6517V9.45133C16.3403 9.31885 16.3339 9.23439 16.3159 9.19824C16.2977 9.16214 16.2553 9.14372 16.2011 9.14372ZM9.83392 9.14453C9.76173 9.14457 9.72585 9.16243 9.70778 9.19255C9.68972 9.22874 9.68337 9.31899 9.68337 9.46354V9.67513H9.96657V9.46354C9.96657 9.33143 9.96091 9.24116 9.94297 9.20475C9.92488 9.16255 9.88819 9.14453 9.83392 9.14453Z" fill="white"/>
</g>
<defs>
<clipPath id="clip0_822_4855">
<rect width="20" height="20" fill="white"/>
</clipPath>
</defs>
</svg>
