<svg width="20" height="20" viewBox="0 0 20 20" fill="none" xmlns="http://www.w3.org/2000/svg">
<path d="M1.26355 11.82C1.85567 11.5366 2.68123 11.6 3.22438 11.95L8.78488 15.8186L2.14738 15.8143C1.45573 15.8329 0.868697 15.5411 0.428479 15.0071C-0.0159903 14.4497 -0.137391 13.5524 0.172038 12.897C0.374505 12.4483 0.805459 11.9997 1.26355 11.82ZM16.7751 11.95C17.3184 11.6 18.1441 11.5366 18.737 11.82C19.1949 11.9997 19.6259 12.4484 19.8275 12.897C20.1378 13.5524 20.0156 14.4497 19.5719 15.0071C19.1318 15.5411 18.543 15.8329 17.8523 15.8143L11.2147 15.8186L16.7751 11.95ZM14.4863 8.00456C14.9308 7.21513 15.7793 6.81534 16.6766 6.93591C17.2914 7.04818 17.9063 7.4479 18.2031 8.03994C18.5666 8.65976 18.4849 9.59772 18.0807 10.1729C17.8304 10.5769 17.417 10.7785 17.067 11.0433L11.4695 14.8857H11.4567L11.5192 14.7019L14.4863 8.00456ZM2.88372 7.05737C3.86281 6.69896 4.96591 7.08014 5.48722 8.00456L8.57495 14.885H8.52527L2.30014 10.5946C1.66664 10.0608 1.40702 9.26119 1.62206 8.45323C1.78316 7.84768 2.28576 7.28183 2.88372 7.05737ZM11.3716 4.33341C12.0853 3.92104 13.0905 4.03312 13.7095 4.56195C13.9609 4.78618 14.1726 5.04675 14.2931 5.33862C14.6204 5.99902 14.4281 6.86431 14.0865 7.45721L11.4433 13.404L11.4205 13.4319L10.465 7.39911C10.3883 6.8198 11.0073 6.57257 11.3716 6.29423C11.3531 6.20913 11.2594 6.21332 11.2005 6.17369L10.3074 6.16435L10.2803 6.13738C10.2853 5.38844 10.6885 4.69688 11.3716 4.33341ZM6.16437 4.68318C6.7345 4.10467 7.67241 3.94776 8.41803 4.26155C8.81275 4.43197 9.18976 4.74576 9.42331 5.13194C9.6393 5.53172 9.76413 5.98553 9.68818 6.48808L8.61034 13.3956C8.61617 13.404 8.60613 13.4133 8.59759 13.4174L8.31851 12.8617L5.61703 6.8289C5.36567 6.05212 5.59853 5.23994 6.16437 4.68318Z" fill="white"/>
</svg>
