<svg width="20" height="20" viewBox="0 0 20 20" fill="none" xmlns="http://www.w3.org/2000/svg">
<g clip-path="url(#clip0_822_5369)">
<path d="M0 8.80914V8.06743H0.910278V8.80914H0ZM0 12.1468V9.13279H0.910278V12.1468H0ZM16.2502 10.8792H14.2003C14.2408 11.1961 14.4701 11.4456 14.9218 11.4456C15.1983 11.4523 15.4612 11.3444 15.65 11.1421L16.1962 11.7153C15.913 12.0389 15.468 12.2345 14.9218 12.2345C13.8767 12.2345 13.2563 11.6209 13.2563 10.6229C13.2563 9.70593 13.8497 9.03839 14.7937 9.03839C15.7377 9.03839 16.2839 9.62502 16.2839 10.4948C16.2906 10.6229 16.2771 10.7511 16.2502 10.8792ZM15.3736 10.2993C15.3534 9.98913 15.1511 9.76661 14.8004 9.76661C14.4498 9.76661 14.2475 9.98913 14.2003 10.2993H15.3736ZM17.8077 12.221C17.356 12.221 16.8031 12.0996 16.3985 11.7018L16.9177 11.1287C17.1604 11.3579 17.4773 11.486 17.8077 11.4928C18.1246 11.4928 18.2662 11.4051 18.2662 11.277C18.2662 11.1759 18.1988 11.1219 18.0235 11.068C17.8684 11.0208 17.6324 10.9803 17.4301 10.9196C16.9919 10.7915 16.5536 10.6027 16.5536 9.9689C16.5536 9.38227 17.0188 9.02491 17.801 9.02491C18.2325 9.02491 18.718 9.11256 19.1293 9.48342L18.6034 10.0431C18.3741 9.81381 18.0505 9.7329 17.7943 9.7329C17.5583 9.7329 17.4301 9.82056 17.4301 9.93518C17.4301 10.0296 17.4976 10.0903 17.6796 10.151C17.8347 10.1982 18.0909 10.2521 18.2865 10.306C18.7045 10.4274 19.1428 10.6095 19.1428 11.2096C19.1428 11.8973 18.5832 12.221 17.8077 12.221ZM3.74225 9.24742C3.513 8.97096 3.16912 8.82262 2.81175 8.82936C2.42741 8.82936 2.22512 8.97096 2.22512 9.17325C2.22512 9.44296 2.52855 9.53736 3.11517 9.70593C3.75574 9.88798 4.48396 10.097 4.48396 10.9601C4.48396 11.8232 3.77597 12.221 2.89266 12.221C2.14421 12.221 1.53736 12.0052 1.13953 11.4591L1.82056 10.8859C2.08353 11.2433 2.47461 11.3849 2.87918 11.3849C3.35791 11.3849 3.53323 11.2163 3.53323 11.0343C3.53323 10.7645 3.25677 10.7039 2.58249 10.5083C1.89473 10.3128 1.29462 10.0431 1.29462 9.20696C1.29462 8.47874 1.88124 8 2.84546 8C3.45231 8 4.01197 8.16183 4.41653 8.68102L3.74225 9.24742ZM12.9192 9.07211C13.0945 9.06536 13.2631 9.13953 13.3777 9.26765L13.0136 10.0566C12.9259 9.98913 12.8113 9.94867 12.6967 9.95541C12.4607 9.95541 12.2652 10.1577 12.2652 10.5353V12.1468H11.3414V9.13279H12.2449V9.55084C12.4068 9.2609 12.6158 9.07211 12.9192 9.07211ZM7.59239 10.1105V12.1401H6.68212V10.4409C6.68212 10.1172 6.51355 9.91496 6.20338 9.91496C5.89321 9.91496 5.69092 10.1105 5.69092 10.4544V12.1468H4.78739V8.06743H5.69767V9.53062C5.91344 9.23393 6.25058 9.05862 6.60794 9.06536C7.1676 9.07211 7.59239 9.44296 7.59239 10.1105ZM11.0447 11.4456V12.0861C10.8761 12.1536 10.6941 12.1873 10.512 12.1873C10.2625 12.1873 10.0063 12.1064 9.89169 11.8097C9.69615 12.0389 9.32529 12.2075 8.90724 12.2075C8.30039 12.2075 7.90256 11.8906 7.90256 11.2837C7.90256 10.6904 8.37456 10.3398 9.09604 10.3398C9.33878 10.3398 9.57478 10.3735 9.81077 10.4274V10.3263C9.81077 9.98913 9.62198 9.78684 9.22415 9.78684C8.95444 9.79359 8.69821 9.90147 8.50267 10.0835L8.0037 9.50364C8.30039 9.22719 8.78587 9.02491 9.34552 9.02491C10.2019 9.02491 10.7211 9.4497 10.7211 10.2386V11.2972C10.7211 11.4119 10.775 11.4658 10.8964 11.4658C10.9436 11.4658 10.9975 11.4591 11.0447 11.4456ZM9.81077 10.9264C9.64221 10.8859 9.47363 10.8589 9.29832 10.8589C8.98141 10.8589 8.82633 11.014 8.82633 11.2298C8.82633 11.4321 8.96118 11.5804 9.24438 11.5804C9.54106 11.5804 9.80403 11.3984 9.80403 11.1219V10.9264H9.81077ZM19.9991 11.8771C20.0059 11.958 19.9722 12.0389 19.9182 12.0996C19.8575 12.1603 19.7834 12.1873 19.7025 12.1805C19.5137 12.1805 19.4058 12.0592 19.4058 11.8771C19.4058 11.6951 19.5137 11.5737 19.7025 11.5737C19.7834 11.5669 19.8643 11.5939 19.9182 11.6546C19.9722 11.7153 19.9991 11.7962 19.9991 11.8771ZM19.9452 11.8771C19.9519 11.7827 19.9115 11.6883 19.8306 11.6344C19.7497 11.5804 19.6485 11.5804 19.5676 11.6344C19.4867 11.6883 19.4395 11.776 19.453 11.8771C19.453 12.0457 19.5541 12.1401 19.7025 12.1401C19.8508 12.1401 19.9452 12.0457 19.9452 11.8771ZM19.7564 11.9108L19.8103 12.0187H19.7564L19.7025 11.9176H19.635V12.0187H19.5811V11.722H19.7025C19.7766 11.722 19.8103 11.7625 19.8103 11.8164C19.8171 11.8569 19.7969 11.8973 19.7564 11.9108ZM19.7631 11.8232C19.7631 11.7895 19.7429 11.7692 19.7092 11.7692H19.6418V11.8771H19.7025C19.7362 11.8704 19.7631 11.8569 19.7631 11.8232Z" fill="white"/>
</g>
<defs>
<clipPath id="clip0_822_5369">
<rect width="20" height="20" fill="white"/>
</clipPath>
</defs>
</svg>
