<svg width="20" height="20" viewBox="0 0 20 20" fill="none" xmlns="http://www.w3.org/2000/svg">
<g clip-path="url(#clip0_822_4860)">
<path d="M2.39958 14.2989H6.40059C8.13493 14.2989 8.43582 13.8945 8.78783 13.5964C9.25728 13.1991 9.51043 12.2609 9.29774 11.606C9.14735 11.1424 8.71076 10.863 8.66309 10.8482C9.20555 10.5982 9.52121 10.0429 9.55818 9.96148C9.75987 9.54203 9.91394 8.78399 9.41517 8.17322C9.0526 7.72899 8.38954 7.56662 7.83638 7.52553L7.60726 7.51447H11.8906L9.92874 14.31H11.9125L12.639 11.7345H13.7721C14.5972 11.7345 14.5205 12.2499 14.5425 12.4706L14.6082 14.3652H16.4532C16.4528 14.354 16.3687 12.2382 16.3614 12.0841C16.3357 11.536 15.9763 11.2932 15.6682 11.2932C16.2585 11.135 16.7717 10.5943 16.9772 10.2521C17.2155 9.85486 17.3919 9.22192 17.1573 8.5929C16.8199 7.68044 15.943 7.52921 15.3306 7.51816H19.163V7.51447H19.1666V19.1666H0.833313V7.51447H4.35416L2.39958 14.2989ZM6.51802 11.4327C7.16311 11.4328 7.19993 11.6095 7.2915 11.7603C7.37951 11.9111 7.33919 12.2275 7.27688 12.3379C7.19988 12.474 7.06798 12.9008 6.24297 12.9008H4.77586C4.78017 12.8859 5.19757 11.4364 5.19757 11.4327H6.51802ZM14.8869 8.88357C15.5724 8.88357 15.5983 9.35005 15.5983 9.48282C15.5983 9.79184 15.327 10.4028 14.4945 10.4028H13.0237C13.0235 10.3907 13.4288 8.92727 13.4418 8.88357H14.8869ZM7.44964 8.87252C7.75396 8.87262 8.02896 9.06754 8.02896 9.39119C8.02888 9.82519 7.68414 10.1304 7.20382 10.1305H5.56813L5.9199 8.87252H7.44964ZM19.1666 0.833252V5.28863H0.833313V0.833252H19.1666Z" fill="white"/>
</g>
<defs>
<clipPath id="clip0_822_4860">
<rect width="20" height="20" fill="white"/>
</clipPath>
</defs>
</svg>
