<svg width="20" height="20" viewBox="0 0 20 20" fill="none" xmlns="http://www.w3.org/2000/svg">
<g clip-path="url(#clip0_822_4997)">
<path d="M4.51565 7.11166H5.86065V12.8708H4.51565V12.2708C3.92398 12.9558 3.20482 13.0483 2.79065 13.0483C1.01482 13.0483 -0.000183105 11.5683 -0.000183105 9.98749C-0.000183105 8.10999 1.28482 6.95999 2.80815 6.95999C3.23065 6.95999 3.97482 7.06999 4.51565 7.77999V7.11166ZM1.37815 10.0208C1.37815 11.0192 2.00398 11.8558 2.97648 11.8558C3.82232 11.8558 4.60898 11.2392 4.60898 10.0383C4.60898 8.77833 3.83065 8.17749 2.97648 8.17749C2.00398 8.16916 1.37815 8.98916 1.37815 10.0208ZM7.45898 7.11249H8.80315V7.62749C8.96443 7.44022 9.15259 7.2779 9.36148 7.14583C9.62315 6.99333 9.87732 6.95166 10.1815 6.95166C10.5115 6.95166 10.8665 7.00166 11.239 7.22166L10.689 8.43999C10.4868 8.30384 10.2477 8.23288 10.004 8.23666C9.71648 8.23666 9.42898 8.27833 9.16648 8.54999C8.79482 8.94749 8.79482 9.49666 8.79482 9.87749V12.8625H7.44982L7.45898 7.11249ZM12.0923 7.11249H13.4373V7.64499C13.8856 7.09499 14.4181 6.95999 14.8581 6.95999C15.4581 6.95999 16.0248 7.24749 16.3465 7.80583C16.829 7.12083 17.5473 6.95999 18.0548 6.95999C18.7565 6.95999 19.3657 7.28999 19.6957 7.86499C19.8057 8.05916 19.9998 8.48166 19.9998 9.31916V12.8792H18.6548V9.70833C18.6548 9.06583 18.5882 8.80333 18.5281 8.68499C18.444 8.46499 18.2407 8.17749 17.759 8.17749C17.429 8.17749 17.1415 8.35499 16.964 8.60083C16.7273 8.92999 16.7015 9.42083 16.7015 9.91083V12.8792H15.3582V9.70833C15.3582 9.06583 15.2906 8.80333 15.2315 8.68499C15.1465 8.46499 14.944 8.17749 14.4615 8.17749C14.1315 8.17749 13.8448 8.35499 13.6665 8.60083C13.4298 8.92999 13.4048 9.42083 13.4048 9.91083V12.8792H12.094L12.0923 7.11249Z" fill="white"/>
</g>
<defs>
<clipPath id="clip0_822_4997">
<rect width="20" height="20" fill="white"/>
</clipPath>
</defs>
</svg>
