<svg width="20" height="20" viewBox="0 0 20 20" fill="none" xmlns="http://www.w3.org/2000/svg">
<g clip-path="url(#clip0_822_5292)">
<path d="M10 4.74492L11.9594 2.34933C11.9594 2.34933 15.32 2.42058 18.6656 3.97542C17.809 5.27058 16.1077 5.9055 16.1077 5.9055C15.9921 4.76629 15.1941 4.48842 12.6608 4.48842L10 19.5L7.32338 4.48525C4.80588 4.48525 4.00787 4.7655 3.8915 5.90392C3.8915 5.90392 2.19258 5.27454 1.33521 3.98017C4.68 2.42454 8.04062 2.3525 8.04062 2.3525L10 4.74492L9.99683 4.7465H10V4.74492ZM10 1.65821C12.7035 1.63446 15.7997 2.07621 18.968 3.46321C19.3915 2.69687 19.5 2.35883 19.5 2.35883C16.0365 0.9845 12.793 0.511875 10 0.5C7.207 0.511875 3.96354 0.982917 0.5 2.35962C0.5 2.35962 0.654375 2.77525 1.032 3.46479C4.20025 2.07462 7.29646 1.63604 10 1.65583V1.65821Z" fill="white"/>
</g>
<defs>
<clipPath id="clip0_822_5292">
<rect width="20" height="20" fill="white"/>
</clipPath>
</defs>
</svg>
