<svg width="24" height="24" viewBox="0 0 24 24" fill="none" xmlns="http://www.w3.org/2000/svg">
<path d="M13.8916 7.30374C14.4248 7.37957 14.9382 7.54942 15.4136 7.81482C18.2656 9.46033 18.3037 14.3059 15.508 18.6206C12.6941 22.9368 8.09307 25.0935 5.24106 23.448C2.38904 21.8009 2.35097 16.9751 5.14661 12.6406C5.44979 12.1675 5.79257 11.7125 6.13536 11.2772C4.59509 14.0981 4.76573 17.0509 6.6107 18.1095C8.6065 19.2652 11.8196 17.7501 13.7971 14.7411C15.7167 11.808 15.7365 8.5337 13.8916 7.30374Z" fill="black"/>
<path d="M2.02798 4.78617C2.46523 1.49211 7.50348 -0.588664 13.2837 0.148403C19.0639 0.886987 23.3221 4.16133 22.9808 7.47358C22.8087 8.96895 21.6676 10.255 21.2684 10.5022C21.9921 8.49578 19.5575 4.55868 15.6223 4.06731C11.5728 3.5365 8.05499 4.99394 7.75029 7.30372C7.48519 9.42241 10.0508 11.5426 13.6265 12.2615C12.9988 12.2433 12.3711 12.1857 11.7251 12.1098C5.94493 11.3728 1.60901 8.09842 2.02798 4.78617Z" fill="black"/>
</svg>
