<svg width="24" height="24" viewBox="0 0 24 24" fill="none" xmlns="http://www.w3.org/2000/svg">
<path d="M10.9271 9.79457C9.3743 8.5752 7.73718 8.01321 5.65016 7.72414C3.76627 7.47469 2.63925 7.11519 0.993103 6L0 7.44094C1.4716 8.50477 2.85592 9.03302 4.72025 9.34556C6.05191 9.56273 7.08865 9.5818 8.45793 10.2905C8.18708 10.6354 7.94031 11.1313 7.79586 11.4659C7.10219 11.0741 6.09103 10.7718 4.73981 10.7572V12.4637C5.39887 12.496 5.98871 12.5723 6.7832 12.9024C7.74621 13.3133 8.42934 13.9281 8.42934 13.9281C9.19975 11.2957 10.9271 9.79457 10.9271 9.79457ZM19.0661 9.38371C21.0764 9.10492 22.5194 8.50477 24 7.44094L23.0024 6C21.3562 7.11519 20.2247 7.47469 18.3498 7.72414C16.2628 8.01321 14.549 8.62216 12.9856 9.83125C10.569 11.6889 9.43147 14.4094 9.43147 17.1548V18H14.3895V17.1548C14.3654 14.6266 16.326 13.4028 16.326 13.4028C17.0287 12.945 18.0835 12.4299 19.2602 12.4725V10.763C17.9391 10.7572 16.5683 11.1636 15.2757 12.0293C13.8523 13.0536 12.9705 14.5943 12.7343 16.2949H11.2717C12.0752 10.0968 17.9481 9.53925 19.0661 9.38371Z" fill="black"/>
</svg>
