<svg width="20" height="20" viewBox="0 0 20 20" fill="none" xmlns="http://www.w3.org/2000/svg">
<g clip-path="url(#clip0_822_5123)">
<path d="M11.9924 13.5166C11.1899 13.5532 11.2715 13.1341 11.7407 12.4882C12.8407 11.0149 14.924 8.95824 14.9957 7.50324C15.1215 5.60074 13.2099 4.98157 11.2449 4.99991C9.87402 5.01824 8.45819 5.40991 7.49402 5.75491C4.16652 6.92907 2.07402 8.81324 0.757352 10.8966C-0.640148 12.9616 -0.180148 14.9357 2.76819 14.9999C5.03152 14.9091 6.50152 14.2816 8.03485 13.4982C8.04319 13.4982 3.79652 14.7091 2.23652 13.8174L2.22985 13.8157C2.06902 13.7241 1.89319 13.5957 1.84902 13.2466C1.83902 12.5091 3.06569 11.7449 3.75152 11.4991V10.2216C4.27087 10.4237 4.82338 10.5272 5.38069 10.5266C6.43937 10.528 7.46436 10.1545 8.27402 9.4724C8.30485 9.58074 8.32069 9.70407 8.31069 9.84491H8.61985C8.65985 9.51657 8.47652 9.25657 8.47652 9.25657C8.19902 8.81574 7.71402 8.82324 7.71402 8.82324C7.71402 8.82324 7.97652 8.93741 8.15485 9.21157C7.62412 9.65689 6.98983 9.96145 6.31045 10.0972C5.63107 10.2329 4.92845 10.1954 4.26735 9.98824L5.27569 8.98824L4.99569 8.25991C7.02485 7.54991 8.72902 7.00407 11.5057 6.52241L10.884 6.00241L11.2082 5.80241C12.8832 6.27574 13.979 6.62324 13.919 7.51157C13.8836 7.68746 13.8271 7.85842 13.7507 8.02074C13.264 8.98574 11.8124 10.5957 11.2265 11.2691C10.839 11.7149 10.4599 12.1524 10.189 12.5707C9.90985 12.9899 9.73902 13.3799 9.72985 13.7541C9.76569 16.6741 18.3415 12.3874 19.9999 11.2516C17.5474 12.3066 14.9057 13.3257 11.9924 13.5166Z" fill="white"/>
</g>
<defs>
<clipPath id="clip0_822_5123">
<rect width="20" height="20" fill="white"/>
</clipPath>
</defs>
</svg>
