<svg width="20" height="20" viewBox="0 0 20 20" fill="none" xmlns="http://www.w3.org/2000/svg">
<path d="M13.6092 15.1425V14.2166L13.5908 14.225C13.3825 14.3258 13.1558 14.3833 12.9233 14.3941C12.6828 14.4125 12.444 14.3422 12.2517 14.1966C12.1145 14.0908 12.0124 13.9462 11.9583 13.7816C11.9 13.6018 11.8933 13.4092 11.9392 13.2258C11.9825 13.0383 12.0875 12.8708 12.2367 12.7516C12.37 12.64 12.5325 12.57 12.705 12.55C13.0096 12.5159 13.3174 12.5733 13.5892 12.715L13.6092 12.7258V11.795L13.5667 11.7833C13.2947 11.6965 13.0093 11.6592 12.7242 11.6733C12.4644 11.6798 12.2086 11.7382 11.9717 11.845C11.7325 11.955 11.5217 12.1175 11.3558 12.3208C11.1028 12.6404 10.9624 13.0346 10.9564 13.4422C10.9503 13.8498 11.079 14.248 11.3225 14.575C11.5683 14.89 11.9133 15.1125 12.3017 15.205C12.7108 15.305 13.14 15.29 13.5408 15.1616L13.6092 15.1425ZM4.44667 15.1425V14.2166L4.42833 14.225C4.22 14.3258 3.99333 14.3833 3.76083 14.3941C3.52032 14.4127 3.28135 14.3424 3.08917 14.1966C2.95205 14.091 2.85009 13.9463 2.79667 13.7816C2.73766 13.602 2.73073 13.4092 2.77667 13.2258C2.82 13.0383 2.92417 12.8708 3.07417 12.7516C3.2075 12.64 3.37 12.57 3.5425 12.55C3.84707 12.5159 4.1549 12.5733 4.42667 12.715L4.44667 12.7258V11.795L4.40417 11.7833C4.13218 11.6965 3.84682 11.6592 3.56167 11.6733C3.30191 11.6799 3.04609 11.7383 2.80917 11.845C2.57017 11.9547 2.35929 12.1175 2.1925 12.3208C1.93976 12.6405 1.79944 13.0346 1.79326 13.4421C1.78708 13.8496 1.9154 14.2477 2.15833 14.575C2.40392 14.8902 2.74957 15.1124 3.13833 15.205C3.5475 15.305 3.97583 15.29 4.3775 15.1616L4.44667 15.1425ZM7.71667 14.3741L7.71333 15.1716L7.77167 15.1816C7.955 15.2158 8.13917 15.2391 8.325 15.2525C8.4875 15.2683 8.65083 15.2708 8.81417 15.2625C8.97 15.2508 9.12417 15.2216 9.27333 15.1758C9.44833 15.1258 9.61083 15.04 9.74917 14.9216C9.87404 14.8146 9.96956 14.6775 10.0267 14.5233C10.126 14.2655 10.1239 13.9796 10.0208 13.7233C9.96714 13.5899 9.88193 13.4716 9.7725 13.3783C9.66647 13.2835 9.54229 13.2112 9.4075 13.1658L8.80583 12.9425C8.73398 12.9118 8.67566 12.8561 8.64167 12.7858C8.62853 12.7569 8.6223 12.7254 8.62346 12.6938C8.62461 12.6621 8.63313 12.6311 8.64833 12.6033C8.67925 12.5527 8.7237 12.5117 8.77667 12.485C8.84408 12.4525 8.91648 12.4317 8.99083 12.4233C9.11833 12.405 9.2475 12.4058 9.37417 12.4275C9.52417 12.4441 9.6725 12.47 9.81833 12.5075L9.85 12.5141V11.7783L9.7925 11.7658C9.64336 11.7301 9.49227 11.7031 9.34 11.685C9.14256 11.6591 8.94265 11.6583 8.745 11.6825C8.495 11.705 8.2575 11.8016 8.06083 11.9575C7.9275 12.0625 7.82667 12.2016 7.76833 12.3608C7.68167 12.6025 7.68083 12.8675 7.76833 13.11C7.81333 13.2308 7.885 13.3383 7.97833 13.4275C8.05917 13.505 8.15083 13.5716 8.25083 13.6241C8.38167 13.6941 8.52083 13.7483 8.665 13.7866C8.7125 13.8008 8.76 13.8158 8.80667 13.8316L8.8775 13.8575L8.8975 13.8658C8.9675 13.8908 9.0325 13.9308 9.08583 13.9825C9.12333 14.0175 9.1525 14.0608 9.17 14.1083C9.18153 14.1522 9.18181 14.1984 9.17083 14.2425C9.14831 14.3136 9.09858 14.3729 9.0325 14.4075C8.96071 14.4441 8.88322 14.4684 8.80333 14.4791C8.68567 14.4975 8.5664 14.5033 8.4475 14.4966C8.29178 14.4844 8.13683 14.4639 7.98333 14.435C7.90332 14.4176 7.82359 14.399 7.74417 14.3791L7.71667 14.3741ZM5.65417 15.2033H6.52917V11.7308H5.65417V15.2033ZM15.7892 12.7566C15.8821 12.6809 15.9891 12.6243 16.1039 12.5899C16.2188 12.5555 16.3393 12.5442 16.4585 12.5564C16.5778 12.5686 16.6935 12.6042 16.799 12.6612C16.9044 12.7181 16.9977 12.7953 17.0733 12.8883C17.1492 12.9811 17.206 13.0881 17.2405 13.2029C17.275 13.3177 17.2865 13.4382 17.2743 13.5575C17.2622 13.6768 17.2266 13.7925 17.1697 13.898C17.1127 14.0036 17.0355 14.0968 16.9425 14.1725L16.9283 14.1841C16.7385 14.3297 16.4992 14.3949 16.2618 14.3659C16.0244 14.3369 15.8079 14.216 15.6587 14.029C15.5095 13.8421 15.4396 13.6041 15.464 13.3662C15.4884 13.1283 15.6052 12.9094 15.7892 12.7566ZM14.5183 13.4683C14.5226 13.7393 14.5871 14.006 14.7071 14.2491C14.8272 14.4921 14.9998 14.7054 15.2125 14.8735C15.4251 15.0416 15.6725 15.1602 15.9367 15.2209C16.2009 15.2815 16.4753 15.2826 16.74 15.2241C17.0952 15.1569 17.4216 14.9833 17.6758 14.7263C17.9301 14.4693 18.1002 14.1411 18.1635 13.7852C18.2269 13.4293 18.1805 13.0625 18.0306 12.7335C17.8807 12.4046 17.6343 12.129 17.3242 11.9433C17.0484 11.7728 16.7325 11.6783 16.4084 11.6692C16.0844 11.6602 15.7637 11.7369 15.4788 11.8918C15.194 12.0466 14.9551 12.2739 14.7864 12.5508C14.6178 12.8277 14.5253 13.1442 14.5183 13.4683ZM19.1342 8.93996C19.1391 9.05149 19.1868 9.15683 19.2675 9.23402C19.3481 9.31121 19.4554 9.3543 19.5671 9.3543C19.6787 9.3543 19.7861 9.31121 19.8667 9.23402C19.9474 9.15683 19.9951 9.05149 20 8.93996V7.97746C19.9951 7.86593 19.9474 7.76059 19.8667 7.6834C19.7861 7.60621 19.6787 7.56313 19.5671 7.56313C19.4554 7.56313 19.3481 7.60621 19.2675 7.6834C19.1868 7.76059 19.1391 7.86593 19.1342 7.97746V8.93996ZM16.7642 8.93996C16.7725 9.04931 16.8218 9.15149 16.9022 9.22604C16.9826 9.30059 17.0883 9.34201 17.1979 9.34201C17.3076 9.34201 17.4132 9.30059 17.4936 9.22604C17.5741 9.15149 17.6234 9.04931 17.6317 8.93996V6.78246C17.6248 6.67218 17.5762 6.56866 17.4957 6.49298C17.4152 6.41731 17.3088 6.37518 17.1983 6.37518C17.0878 6.37518 16.9815 6.41731 16.901 6.49298C16.8205 6.56866 16.7718 6.67218 16.765 6.78246L16.7642 8.93996ZM14.3592 9.80913C14.3675 9.91826 14.4167 10.0202 14.4969 10.0946C14.5772 10.169 14.6826 10.2104 14.7921 10.2104C14.9015 10.2104 15.0069 10.169 15.0872 10.0946C15.1675 10.0202 15.2167 9.91826 15.225 9.80913V5.14163C15.2201 5.0301 15.1724 4.92476 15.0917 4.84757C15.0111 4.77038 14.9037 4.72729 14.7921 4.72729C14.6804 4.72729 14.5731 4.77038 14.4925 4.84757C14.4118 4.92476 14.3641 5.0301 14.3592 5.14163V9.80913ZM11.9942 8.93996C12.001 9.05024 12.0496 9.15377 12.1302 9.22944C12.2107 9.30511 12.317 9.34724 12.4275 9.34724C12.538 9.34724 12.6443 9.30511 12.7248 9.22944C12.8054 9.15377 12.854 9.05024 12.8608 8.93996V6.78246C12.8559 6.67093 12.8082 6.56559 12.7275 6.4884C12.6469 6.41121 12.5396 6.36813 12.4279 6.36813C12.3163 6.36813 12.2089 6.41121 12.1283 6.4884C12.0476 6.56559 11.9999 6.67093 11.995 6.78246V8.93996M9.57833 8.93996C9.58889 9.04745 9.63906 9.14717 9.71908 9.21972C9.7991 9.29226 9.90324 9.33244 10.0112 9.33244C10.1193 9.33244 10.2234 9.29226 10.3034 9.21972C10.3834 9.14717 10.4336 9.04745 10.4442 8.93996V7.97746C10.4393 7.86593 10.3915 7.76059 10.3109 7.6834C10.2302 7.60621 10.1229 7.56313 10.0112 7.56313C9.89961 7.56313 9.79228 7.60621 9.71163 7.6834C9.63098 7.76059 9.58323 7.86593 9.57833 7.97746V8.93996ZM7.18667 8.93996C7.19156 9.05149 7.23931 9.15683 7.31996 9.23402C7.40061 9.31121 7.50795 9.3543 7.61958 9.3543C7.73122 9.3543 7.83855 9.31121 7.9192 9.23402C7.99986 9.15683 8.04761 9.05149 8.0525 8.93996V6.78246C8.04761 6.67093 7.99986 6.56559 7.9192 6.4884C7.83855 6.41121 7.73122 6.36813 7.61958 6.36813C7.50795 6.36813 7.40061 6.41121 7.31996 6.4884C7.23931 6.56559 7.19156 6.67093 7.18667 6.78246V8.93996ZM4.78083 9.80913C4.78573 9.92066 4.83348 10.026 4.91413 10.1032C4.99478 10.1804 5.10211 10.2235 5.21375 10.2235C5.32539 10.2235 5.43272 10.1804 5.51337 10.1032C5.59402 10.026 5.64177 9.92066 5.64667 9.80913V5.14163C5.64177 5.0301 5.59402 4.92476 5.51337 4.84757C5.43272 4.77038 5.32539 4.72729 5.21375 4.72729C5.10211 4.72729 4.99478 4.77038 4.91413 4.84757C4.83348 4.92476 4.78573 5.0301 4.78083 5.14163V9.80913ZM2.39667 8.93996C2.40618 9.04833 2.45595 9.1492 2.53617 9.22268C2.61638 9.29616 2.72122 9.33692 2.83 9.33692C2.93878 9.33692 3.04362 9.29616 3.12383 9.22268C3.20405 9.1492 3.25382 9.04833 3.26333 8.93996V6.78246C3.25844 6.67093 3.21069 6.56559 3.13004 6.4884C3.04939 6.41121 2.94205 6.36813 2.83042 6.36813C2.71878 6.36813 2.61145 6.41121 2.5308 6.4884C2.45014 6.56559 2.40239 6.67093 2.3975 6.78246V8.93996M0 8.93996C0.0082993 9.0491 0.0575107 9.15107 0.137784 9.22547C0.218056 9.29987 0.323467 9.34121 0.432917 9.34121C0.542366 9.34121 0.647777 9.29987 0.72805 9.22547C0.808323 9.15107 0.857534 9.0491 0.865833 8.93996V7.97746C0.860939 7.86593 0.813189 7.76059 0.732537 7.6834C0.651886 7.60621 0.544555 7.56313 0.432917 7.56313C0.321279 7.56313 0.213948 7.60621 0.133296 7.6834C0.0526441 7.76059 0.00489447 7.86593 0 7.97746L0 8.93996Z" fill="white"/>
</svg>
