<svg width="20" height="20" viewBox="0 0 20 20" fill="none" xmlns="http://www.w3.org/2000/svg">
<path d="M5.7625 3.35826C4.1225 3.35826 2.69333 4.42492 1.70333 5.95242C0.586667 7.67326 0 9.90242 0 12.0408C0 12.6291 0.0583333 13.1816 0.175 13.6849C0.23228 13.9285 0.306061 14.168 0.395833 14.4016C0.481804 14.6209 0.585189 14.833 0.705 15.0358C1.285 16.0016 2.22 16.6416 3.69917 16.6416C4.94667 16.6416 5.89333 16.0824 7.00333 14.6049C7.63667 13.7616 7.95667 13.2499 9.2225 11.0049L9.8525 9.88909L10.0075 9.61826C10.0583 9.70159 10.1083 9.78159 10.16 9.86826L11.9533 12.8641C12.5567 13.8724 13.3408 14.9941 14.0117 15.6258C14.8833 16.4483 15.6717 16.6424 16.5617 16.6424C17.4575 16.6424 18.125 16.3466 18.6075 15.9399C18.8769 15.7099 19.1052 15.4357 19.2825 15.1291C19.7342 14.3466 20 13.3566 20 12.0083C20 9.74159 19.4325 7.54409 18.2633 5.79992C17.195 4.20659 15.7992 3.35826 14.3333 3.35826C13.4608 3.35826 12.5933 3.74742 11.7892 4.44826C11.2458 4.92326 10.7417 5.52326 10.2725 6.15659C9.6975 5.42742 9.16 4.86742 8.64083 4.44326C7.65583 3.63826 6.71167 3.35742 5.7625 3.35742V3.35826ZM14.2292 5.06909C15.185 5.06909 16.0525 5.70076 16.7225 6.73492C17.6658 8.19159 18.095 10.2308 18.095 12.0683C18.095 13.3583 17.7883 14.4849 16.5625 14.4849C16.0792 14.4849 15.7067 14.2933 15.1758 13.6483C14.7625 13.1474 14.0567 12.0833 12.8158 10.0166L12.3017 9.15992C11.9675 8.60091 11.6187 8.05073 11.2558 7.50992C11.3142 7.41909 11.3733 7.32326 11.4317 7.23742C12.365 5.84826 13.1958 5.06909 14.2292 5.06909ZM5.72833 5.52992C6.7825 5.52992 7.44333 6.18909 7.9575 6.73492C8.21333 7.00742 8.57167 7.46076 8.98583 8.05076L8.13583 9.35576C7.505 10.3249 6.5675 11.8699 5.77167 12.9708C4.77917 14.3449 4.26333 14.4849 3.7 14.4849C3.26333 14.4849 2.835 14.2874 2.5475 13.8233C2.32833 13.4683 2.16083 12.8816 2.16083 12.1183C2.16083 10.2674 2.68583 8.33909 3.54417 7.04492C3.9225 6.47242 4.3475 6.02326 4.82167 5.76742C5.0991 5.61325 5.41094 5.53156 5.72833 5.52992Z" fill="white"/>
</svg>
