<svg width="24" height="24" viewBox="0 0 24 24" fill="none" xmlns="http://www.w3.org/2000/svg">
<path d="M15.194 7.57C15.681 7.407 16.241 7.263 16.728 7.119C15.32 6.523 13.552 5.892 11.964 5.494C11.711 5.567 10.954 5.765 10.43 5.928C10.971 6.09 12.758 6.505 15.194 7.57ZM6.298 14.355C6.875 14.698 7.488 15.167 8.084 15.564C12.036 12.496 15.934 10.132 20.211 8.797C19.615 8.49 19.092 8.219 18.424 7.895C15.862 8.545 11.477 10.295 6.298 14.355ZM5.54 7.895C3.428 8.869 1.209 10.205 0 10.98C0.433 11.179 0.866 11.341 1.461 11.63C4.132 9.825 6.225 8.725 7.055 8.364C6.46 8.147 5.901 8.004 5.54 7.895ZM13.606 8.129C12.92 7.75 10.538 6.866 8.896 6.487C8.409 6.667 7.723 6.938 7.254 7.137C7.849 7.299 10.069 7.895 11.964 8.851C12.451 8.616 13.137 8.328 13.606 8.129ZM10.232 9.681C9.672 9.411 9.059 9.158 8.589 8.941C7.164 9.645 5.305 10.71 2.959 12.388C3.464 12.658 4.006 12.983 4.583 13.308C6.388 11.973 8.21 10.71 10.232 9.681ZM11.964 18.506C15.754 15.257 21.077 12.099 24 10.962C23.3595 10.5617 22.7097 10.1766 22.051 9.807C18.28 11.053 13.877 13.814 9.943 16.936C10.61 17.441 11.315 17.964 11.964 18.506ZM14.815 18.271H14.707L14.527 18.001H14.418V18.271H14.346V17.675H14.616C14.671 17.675 14.725 17.675 14.761 17.711C14.815 17.73 14.833 17.784 14.833 17.838C14.833 17.946 14.743 18 14.635 18L14.815 18.271ZM14.526 17.928C14.616 17.928 14.725 17.946 14.725 17.838C14.725 17.766 14.653 17.748 14.581 17.748H14.418V17.928H14.526ZM14.003 17.964C14.003 17.675 14.238 17.441 14.544 17.441C14.851 17.441 15.086 17.675 15.086 17.964C15.0857 18.1077 15.0285 18.2454 14.927 18.347C14.8254 18.4485 14.6877 18.5057 14.544 18.506C14.4726 18.5071 14.4017 18.4938 14.3356 18.4669C14.2695 18.44 14.2094 18.4001 14.159 18.3495C14.1086 18.299 14.0689 18.2388 14.0423 18.1725C14.0157 18.1063 14.0016 18.0354 14.003 17.964ZM14.111 17.964C14.111 18.199 14.31 18.397 14.562 18.397C14.6177 18.397 14.6728 18.386 14.7243 18.3647C14.7757 18.3434 14.8224 18.3122 14.8618 18.2728C14.9012 18.2334 14.9324 18.1867 14.9537 18.1353C14.975 18.0838 14.986 18.0287 14.986 17.973C14.986 17.9173 14.975 17.8622 14.9537 17.8107C14.9324 17.7593 14.9012 17.7126 14.8618 17.6732C14.8224 17.6338 14.7757 17.6026 14.7243 17.5813C14.6728 17.56 14.6177 17.549 14.562 17.549C14.292 17.549 14.112 17.748 14.112 17.964" fill="black"/>
</svg>
