<svg width="24" height="24" viewBox="0 0 24 24" fill="none" xmlns="http://www.w3.org/2000/svg">
<path fill-rule="evenodd" clip-rule="evenodd" d="M4.5204 16.0109C6.4183 16.0109 8.01653 17.6084 8.01654 19.5054C8.01654 21.4025 6.41831 23 4.5204 23C2.6225 23 1.02426 21.4025 1.02426 19.5054C1.02427 17.6084 2.62251 16.0109 4.5204 16.0109ZM4.5204 17.0093C3.12196 17.0093 1.92328 18.1076 2.02316 19.5054C2.02316 20.9033 3.12195 22.0015 4.5204 22.0016C5.91886 22.0016 7.01764 20.9033 7.01764 19.5054C7.01764 18.8065 6.81766 18.2076 6.31822 17.7084C5.81878 17.3091 5.21961 17.0093 4.5204 17.0093Z" fill="black"/>
<path d="M17.8231 16.4272C19.5193 15.5053 21.6425 16.1319 22.5649 17.8274C23.4873 19.5229 22.8594 21.6451 21.1632 22.5671C19.467 23.489 17.3438 22.8623 16.4213 21.1669C15.4989 19.4714 16.1268 17.3492 17.8231 16.4272Z" fill="black"/>
<path d="M8.78913 18.078C9.57104 16.3134 11.6359 15.5162 13.4012 16.2975C15.1665 17.0791 15.9641 19.143 15.1825 20.9075C14.4005 22.6722 12.3348 23.4696 10.5694 22.688C8.80432 21.9063 8.00748 19.8424 8.78913 18.078Z" fill="black"/>
<path fill-rule="evenodd" clip-rule="evenodd" d="M12.0121 8.5225C13.91 8.5225 15.5083 10.12 15.5083 12.0171C15.5083 13.9141 13.91 15.5116 12.0121 15.5116C10.1142 15.5116 8.51599 13.9141 8.51599 12.0171C8.516 10.12 10.1142 8.52251 12.0121 8.5225ZM12.0121 9.52095C10.6137 9.52096 9.41501 10.6193 9.51489 12.0171C9.51489 12.716 9.71488 13.3149 10.2143 13.8141C10.7138 14.2135 11.3129 14.5132 12.0121 14.5132C13.4106 14.5132 14.5094 13.4149 14.5094 12.0171C14.5094 11.3182 14.3094 10.7193 13.8099 10.2201C13.3105 9.82069 12.7113 9.52095 12.0121 9.52095Z" fill="black"/>
<path d="M17.828 8.93884C19.5242 8.0168 21.6474 8.64351 22.5698 10.339C23.4921 12.0345 22.8642 14.1567 21.168 15.0787C19.4718 16.0004 17.3496 15.3729 16.4272 13.6776C15.5048 11.9821 16.1318 9.8609 17.828 8.93884Z" fill="black"/>
<path d="M1.30032 10.574C2.08229 8.80936 4.14796 8.01293 5.91339 8.79454C7.67852 9.5763 8.47556 11.6401 7.69366 13.4046C6.91175 15.1691 4.8469 15.9663 3.08156 15.185C1.31612 14.4034 0.518358 12.3386 1.30032 10.574Z" fill="black"/>
<path fill-rule="evenodd" clip-rule="evenodd" d="M19.5039 1.03414C21.4018 1.03414 23 2.63166 23 4.52871C23 6.42576 21.4018 8.02327 19.5039 8.02327C17.606 8.02326 16.0077 6.42575 16.0077 4.52871C16.0077 2.63167 17.606 1.03415 19.5039 1.03414ZM19.5039 1.93313C18.1054 1.93314 17.0066 3.03143 17.0066 4.42925C17.0068 5.8269 18.1055 6.92536 19.5039 6.92537C20.9022 6.92537 22.0009 5.8269 22.0011 4.42925C22.0011 3.03142 20.9023 1.93313 19.5039 1.93313Z" fill="black"/>
<path d="M8.80766 3.08856C9.58977 1.32421 11.6545 0.527552 13.4198 1.3091C15.1851 2.09066 15.9827 4.15457 15.201 5.91912C14.419 7.68377 12.3534 8.48117 10.5879 7.69956C8.82251 6.91793 8.0257 4.85319 8.80766 3.08856Z" fill="black"/>
<path d="M1.31008 3.07979C2.0921 1.31526 4.15679 0.518735 5.92217 1.30033C7.68749 2.082 8.48438 4.14576 7.70244 5.91035C6.92039 7.67483 4.8557 8.47139 3.09034 7.68981C1.32506 6.90812 0.528145 4.84436 1.31008 3.07979Z" fill="black"/>
</svg>
