<svg width="20" height="20" viewBox="0 0 20 20" fill="none" xmlns="http://www.w3.org/2000/svg">
<g clip-path="url(#clip0_822_5150)">
<path d="M6.82501 10.3332C6.85668 10.2074 6.88834 10.0799 6.88834 9.95325C6.88834 9.85824 6.85668 9.76325 6.85668 9.66825C6.76168 9.38241 6.60334 9.12908 6.31834 8.96991L2.26001 6.65575C1.68918 6.33908 0.960011 6.52908 0.643344 7.09991C0.325844 7.67075 0.515844 8.39991 1.08668 8.71658L3.33751 10.0166L1.08668 11.3166C0.515844 11.6332 0.325844 12.3632 0.64251 12.9332C0.959177 13.5041 1.68918 13.6949 2.25918 13.3774L6.28584 11.0632C6.57168 10.8407 6.76168 10.6191 6.82501 10.3332ZM7.93501 12.5216C7.71334 12.4899 7.46001 12.5532 7.23751 12.6799L3.21084 14.9941C2.64001 15.3107 2.45001 16.0407 2.76751 16.6107C3.08418 17.1824 3.81334 17.3724 4.38418 17.0549L6.63501 15.7549V18.3549C6.63501 19.0216 7.17418 19.5282 7.84001 19.5282C8.50584 19.5282 9.01251 18.9891 9.01251 18.3549V13.6949C9.01251 13.0607 8.53751 12.5532 7.93501 12.5216ZM12.0567 7.44824C12.2783 7.47991 12.5317 7.41658 12.7542 7.28991L16.7808 4.97575C17.3517 4.65908 17.5417 3.92908 17.2242 3.35908C16.9075 2.78741 16.1783 2.59741 15.6075 2.91491L13.3567 4.21491V1.64575C13.3567 0.979912 12.8175 0.472412 12.1517 0.472412C11.4858 0.472412 10.9467 0.979912 10.9467 1.64575V6.27491C10.9467 6.90825 11.4542 7.41741 12.0567 7.44824ZM3.21084 4.97491L7.23751 7.28908C7.45918 7.41574 7.68168 7.44741 7.93501 7.44741C8.53751 7.41575 9.04418 6.87741 9.04418 6.27491V1.64575C9.04418 0.979912 8.50584 0.472412 7.87168 0.472412C7.20584 0.472412 6.66668 1.01158 6.66668 1.64575V4.24575L4.41584 2.94575C3.84501 2.62908 3.11584 2.81908 2.79918 3.38991C2.45001 3.92825 2.64084 4.65741 3.21084 4.97491ZM10.7883 9.98408C10.7845 9.90113 10.7508 9.82238 10.6933 9.76241L10.2183 9.28658C10.1904 9.25557 10.156 9.23102 10.1175 9.21461C10.0791 9.19821 10.0376 9.19035 9.99584 9.19158C9.9129 9.1954 9.83415 9.22915 9.77418 9.28658L9.29834 9.76158C9.24066 9.82172 9.20689 9.90082 9.20334 9.98408C9.20334 10.0474 9.23501 10.1424 9.29834 10.2066L9.77334 10.6816C9.8013 10.7126 9.83569 10.7372 9.87411 10.7536C9.91254 10.77 9.95408 10.7779 9.99584 10.7766C10.0592 10.7766 10.1542 10.7449 10.2175 10.6816L10.6933 10.2066C10.751 10.1464 10.7847 10.0673 10.7883 9.98408ZM12.12 10.4282L10.44 12.1082C10.4075 12.1399 10.3125 12.2032 10.2492 12.2032H9.74251C9.65926 12.1997 9.58015 12.1659 9.52001 12.1082L7.84001 10.4282C7.80014 10.3725 7.77807 10.306 7.77668 10.2374V9.73075C7.77668 9.66741 7.80834 9.57241 7.87168 9.50824L9.55168 7.82825C9.61177 7.7705 9.69091 7.73671 9.77418 7.73324H10.2808C10.3641 7.73671 10.4432 7.7705 10.5033 7.82825L12.1833 9.50824C12.2143 9.53627 12.2388 9.57067 12.2552 9.60908C12.2716 9.64749 12.2795 9.689 12.2783 9.73075V10.2374C12.215 10.3016 12.1833 10.3957 12.12 10.4282ZM16.7808 14.9616L12.7542 12.6474C12.5325 12.5207 12.2792 12.4891 12.0567 12.5207C11.4542 12.5524 10.9467 13.0907 10.9467 13.6941V18.3224C10.9467 18.9891 11.4858 19.4957 12.12 19.4957C12.7858 19.4957 13.325 18.9566 13.325 18.3224V15.7224L15.575 17.0224C16.1467 17.3391 16.8758 17.1491 17.1925 16.5782C17.5417 16.0399 17.3508 15.3107 16.7808 14.9616ZM18.905 8.68408L16.6542 9.98408L18.9042 11.2841C19.4758 11.6007 19.6658 12.3307 19.3483 12.9007C19.0317 13.4716 18.3025 13.6616 17.7317 13.3449L13.705 11.0299C13.4589 10.8715 13.2699 10.6385 13.1658 10.3649C13.135 10.2374 13.1025 10.1107 13.1025 9.98408C13.1025 9.88908 13.135 9.79408 13.135 9.69908C13.23 9.41325 13.42 9.15991 13.6733 9.00158L17.7 6.68658C18.2708 6.36991 19 6.55991 19.3167 7.13075C19.6975 7.63825 19.475 8.36741 18.905 8.68408Z" fill="white"/>
</g>
<defs>
<clipPath id="clip0_822_5150">
<rect width="20" height="20" fill="white"/>
</clipPath>
</defs>
</svg>
