<svg width="24" height="24" viewBox="0 0 24 24" fill="none" xmlns="http://www.w3.org/2000/svg">
<g clip-path="url(#clip0_1782_2982)">
<path d="M4.50232 23.9935C4.50232 23.9891 4.51544 23.9618 4.53073 23.9323C4.56789 23.8612 4.59302 23.7804 4.59302 23.7268C4.59302 23.6765 4.56898 23.5935 4.5515 23.5826C4.54494 23.5782 4.53948 23.5705 4.53948 23.564C4.53948 23.5498 0.453511 19.466 0.431655 19.4583C0.422912 19.4551 0.416355 19.4485 0.416355 19.4441C0.416355 19.4398 0.402149 19.4321 0.384664 19.4288C0.36718 19.4256 0.350788 19.419 0.347509 19.4146C0.340953 19.4037 0.23823 19.4048 0.194518 19.4157C0.150806 19.4277 0.0480831 19.4682 0.0207631 19.4857L0 19.4988V18.7163L0.864402 17.8519C1.33977 17.3766 1.73318 16.9875 1.73864 16.9875C1.7441 16.9875 1.75066 16.9821 1.75394 16.9744C1.7594 16.9613 1.77689 16.9504 1.85885 16.9099C1.92879 16.8761 2.02604 16.8739 2.08396 16.9056C2.13095 16.9307 2.20089 16.9941 2.20089 17.0116C2.20089 17.0181 2.20636 17.0258 2.21291 17.0301C2.2446 17.0487 2.25225 17.1897 2.22384 17.2356C2.21838 17.2454 2.20745 17.2706 2.20089 17.2924C2.19434 17.3132 2.18559 17.3307 2.18231 17.3307C2.17904 17.3307 2.17029 17.3471 2.16374 17.3667C2.15718 17.3864 2.14844 17.4028 2.14516 17.4028C2.14188 17.4028 2.13314 17.4257 2.12658 17.4531C2.12003 17.4804 2.11238 17.5055 2.108 17.5077C2.09817 17.5143 2.09817 17.6465 2.108 17.6465C2.11238 17.6465 2.11893 17.6607 2.12221 17.6782C2.12549 17.6957 2.13423 17.7121 2.14079 17.7153C2.14844 17.7186 2.1539 17.7274 2.1539 17.735C2.1539 17.7547 6.23222 21.833 6.25189 21.833C6.26063 21.833 6.27047 21.8385 6.27375 21.845C6.28467 21.8636 6.37428 21.8964 6.41362 21.8964C6.44859 21.8964 6.5841 21.8614 6.59284 21.8505C6.59503 21.8472 6.61251 21.8395 6.63109 21.833C6.64967 21.8264 6.66497 21.8188 6.66497 21.8155C6.66497 21.8122 6.68136 21.8046 6.70103 21.798C6.7207 21.7915 6.73709 21.7827 6.73709 21.7794C6.73709 21.7762 6.76441 21.7674 6.79829 21.762C6.84528 21.7532 6.87041 21.7532 6.91085 21.762C6.93926 21.7674 6.96221 21.7762 6.96221 21.7816C6.96221 21.7871 6.96767 21.7904 6.97423 21.7904C6.99171 21.7904 7.06384 21.8701 7.08897 21.9171C7.10755 21.951 7.11083 21.9696 7.11083 22.0253C7.10973 22.0865 7.10646 22.0996 7.07149 22.1685C7.05072 22.21 7.02668 22.2461 7.02013 22.2483C7.01357 22.2504 7.0081 22.2581 7.0081 22.2636C7.0081 22.269 6.61907 22.6624 6.1437 23.1378L5.2793 24.0022H4.88917C4.67826 24 4.50232 23.9967 4.50232 23.9935ZM12.153 23.9902C12.153 23.9847 12.1617 23.9661 12.1716 23.9486C12.1869 23.9235 12.1901 23.9071 12.1869 23.859C12.1847 23.8263 12.1792 23.7978 12.1748 23.7946C12.1705 23.7913 12.1606 23.7782 12.1541 23.7651C12.1475 23.7519 11.6295 23.2296 11.0034 22.6045C10.151 21.7532 9.85484 21.4625 9.82533 21.4483C9.76414 21.4199 9.71278 21.4232 9.63847 21.4625C9.59366 21.4866 9.56088 21.4964 9.51935 21.4997L9.46253 21.5041L9.41772 21.4593C9.3609 21.4024 9.35325 21.3686 9.38166 21.3063C9.39805 21.2702 9.50733 21.1555 9.93898 20.7227C10.2351 20.4266 10.4799 20.1851 10.4843 20.1861C10.4887 20.1872 11.1553 20.8528 11.9661 21.6636L13.4414 23.1378L13.0108 23.5694L12.5803 24.0011H12.3661C12.2142 24 12.153 23.9978 12.153 23.9902ZM13.5419 22.8307L13.4403 22.7291L13.4523 22.7018C13.4589 22.6865 13.4665 22.6744 13.4709 22.6744C13.4753 22.6744 13.4829 22.6548 13.4895 22.6318C13.496 22.6078 13.5048 22.5848 13.5092 22.5805C13.519 22.5695 13.519 22.4067 13.5092 22.4002C13.5048 22.398 13.4982 22.3805 13.4949 22.3619C13.4884 22.3269 13.4578 22.2625 13.4392 22.2461C13.4337 22.2406 13.4272 22.2319 13.4261 22.2253C13.4174 22.1947 13.2064 21.9783 12.4054 21.1762C11.9257 20.6954 11.5301 20.302 11.5268 20.302C11.5235 20.302 11.4962 20.279 11.4645 20.2506C11.4328 20.2222 11.3738 20.1807 11.3323 20.1577L11.2569 20.1173H11.1356C11.0241 20.1173 11.0099 20.1195 10.9728 20.1392C10.9509 20.1512 10.9247 20.1676 10.9159 20.1752C10.9006 20.1883 10.8919 20.1818 10.7957 20.0845C10.7367 20.0255 10.6941 19.9752 10.6974 19.9698C10.7007 19.9643 10.7411 19.9272 10.787 19.8867C10.8329 19.8463 10.8788 19.8059 10.8897 19.796C10.9006 19.7862 10.9116 19.7785 10.9149 19.7785C10.9181 19.7785 10.9345 19.7687 10.9509 19.7556C10.9673 19.7436 10.9848 19.7326 10.9913 19.7326C10.9979 19.7326 11.0023 19.7283 11.0023 19.7239C11.0023 19.7152 11.0121 19.7086 11.0886 19.6693C11.1126 19.6561 11.1411 19.6419 11.1509 19.6365C11.1935 19.6124 11.3061 19.5622 11.3312 19.5567C11.3465 19.5534 11.3618 19.548 11.3673 19.5436C11.3858 19.5305 11.5596 19.4911 11.6645 19.4758C11.7235 19.4671 11.8099 19.4605 11.8536 19.4605C11.9454 19.4594 12.1672 19.4857 12.2284 19.5031C12.2502 19.5097 12.2907 19.5195 12.318 19.525C12.3453 19.5305 12.3716 19.5381 12.377 19.5425C12.3825 19.5469 12.4065 19.5545 12.4317 19.5611C12.4568 19.5676 12.4808 19.5753 12.4863 19.5786C12.4918 19.5818 12.5125 19.5906 12.5333 19.5971C12.554 19.6037 12.5715 19.6124 12.5715 19.6168C12.5715 19.6212 12.5792 19.6244 12.5868 19.6244C12.6032 19.6244 12.8502 19.7447 12.8589 19.7578C12.8622 19.7621 12.8742 19.7698 12.8863 19.7763C12.9136 19.7895 12.9332 19.8015 12.9824 19.8343C13.0032 19.8485 13.0229 19.8594 13.0261 19.8594C13.0294 19.8594 13.06 19.8813 13.0939 19.9086C13.1278 19.9359 13.1595 19.9578 13.1649 19.9578C13.1704 19.9578 13.178 19.9654 13.1835 19.9763C13.189 19.9862 13.1977 19.9949 13.2032 19.9949C13.2119 19.9949 13.2753 20.0441 13.3824 20.1359C13.4436 20.1883 13.6895 20.4375 13.6895 20.4484C13.6895 20.4528 13.7059 20.4768 13.7255 20.4998C13.7452 20.5238 13.7616 20.5468 13.7616 20.5511C13.7616 20.5555 13.7692 20.5643 13.7802 20.5708C13.7911 20.5774 13.7987 20.5861 13.7987 20.5905C13.7987 20.5949 13.8129 20.6189 13.8304 20.6429C13.8479 20.667 13.8621 20.6899 13.8621 20.6932C13.8621 20.6965 13.8741 20.7162 13.8873 20.7369C13.9102 20.7708 13.9692 20.8877 14.002 20.9664C14.0086 20.9828 14.0206 21.009 14.0271 21.0254C14.0348 21.0418 14.0446 21.0735 14.0501 21.0954C14.0555 21.1172 14.0632 21.1402 14.0676 21.1445C14.0807 21.1609 14.1135 21.3248 14.1408 21.5008C14.155 21.5959 14.1561 21.7926 14.1419 21.8712C14.1364 21.904 14.1266 21.9641 14.1211 22.0067C14.1157 22.0494 14.108 22.0876 14.1036 22.092C14.1004 22.0974 14.0916 22.127 14.0861 22.1597C14.0796 22.1925 14.0719 22.222 14.0676 22.2275C14.0643 22.233 14.0577 22.2483 14.0545 22.2636C14.0512 22.2789 14.0403 22.3073 14.0304 22.328C14.0206 22.3488 14.0129 22.3685 14.0129 22.3717C14.0129 22.375 14.0031 22.3991 13.99 22.4264C13.9769 22.4537 13.967 22.4788 13.967 22.4832C13.967 22.4876 13.9638 22.493 13.9605 22.4941C13.9572 22.4963 13.9463 22.5116 13.9375 22.5291C13.9288 22.5466 13.9113 22.5772 13.8993 22.5969C13.8873 22.6165 13.872 22.6428 13.8654 22.6559C13.8512 22.6832 13.7933 22.7608 13.7681 22.787C13.7583 22.7968 13.7496 22.8089 13.7496 22.8132C13.7496 22.8176 13.7255 22.846 13.696 22.8766L13.6425 22.9323L13.5419 22.8307ZM7.33048 21.7368C7.2507 21.7062 7.16328 21.6374 7.16328 21.6046C7.16328 21.5969 7.16 21.5904 7.15454 21.5904C7.15017 21.5904 7.14143 21.5674 7.13487 21.5401C7.12613 21.5008 7.12613 21.4756 7.13378 21.4308C7.13924 21.3981 7.14689 21.3696 7.15126 21.3664C7.15563 21.3631 7.16437 21.3467 7.17202 21.3292C7.17858 21.3117 7.18732 21.2953 7.18951 21.2931C7.21027 21.2757 7.27038 21.0877 7.27038 21.0418C7.27038 21.0101 7.23868 20.9205 7.21792 20.8932C7.21027 20.8823 6.78299 20.4528 6.26937 19.9381C5.64867 19.3152 5.32957 19.0016 5.31755 19.0016C5.30553 19.0016 5.19406 19.1065 4.99845 19.3021L4.69793 19.6026L4.50341 19.4092L4.3089 19.2157L4.6116 18.9119C4.7788 18.7447 4.91431 18.6027 4.91431 18.595C4.91431 18.583 3.15381 16.8181 3.10464 16.7799C3.07513 16.758 2.98661 16.7274 2.95164 16.7274C2.91995 16.7274 2.78445 16.7624 2.7757 16.7733C2.77352 16.7766 2.75603 16.7843 2.73746 16.7908C2.71888 16.7974 2.70358 16.8061 2.70358 16.8105C2.70358 16.8149 2.69921 16.8181 2.69484 16.8181C2.69047 16.8181 2.66315 16.8291 2.63364 16.8422C2.59211 16.8619 2.56807 16.8662 2.51343 16.8673C2.45442 16.8673 2.43912 16.864 2.3976 16.8411C2.34733 16.8127 2.30471 16.7668 2.27411 16.7067C2.25335 16.6652 2.24898 16.5559 2.26646 16.5198C2.27192 16.5078 2.28394 16.4838 2.29159 16.4663C2.29924 16.4488 2.31236 16.4226 2.32001 16.4073C2.32766 16.392 2.8063 15.9089 3.38221 15.333L4.4302 14.2861L4.50779 14.249C4.57554 14.2162 4.59302 14.2118 4.64657 14.2118C4.69465 14.2118 4.7187 14.2173 4.75694 14.2359C4.81923 14.2665 4.88917 14.343 4.90447 14.3976C4.91977 14.4533 4.91103 14.5408 4.88262 14.5965C4.8695 14.6216 4.85967 14.6468 4.85967 14.6511C4.85967 14.6555 4.85639 14.6621 4.85311 14.6632C4.84327 14.6675 4.80066 14.7724 4.78317 14.8369C4.76459 14.9036 4.76896 14.9429 4.80612 15.0205C4.83344 15.0784 4.94163 15.1877 6.87041 17.1165C8.47464 18.7207 8.91722 19.1578 8.95765 19.1808C9.06365 19.2398 9.13469 19.2354 9.29642 19.1578C9.34232 19.136 9.38603 19.1185 9.39368 19.1185C9.40133 19.1185 9.40789 19.1152 9.40789 19.1108C9.40789 19.0999 9.4811 19.0824 9.53028 19.0824C9.6024 19.0824 9.64174 19.0999 9.70294 19.16C9.73463 19.1906 9.75977 19.2223 9.75977 19.2299C9.75977 19.2387 9.76632 19.2551 9.77397 19.2671C9.7849 19.2846 9.78818 19.3043 9.7849 19.3545C9.78271 19.3906 9.77616 19.4277 9.77069 19.4376C9.76523 19.4474 9.7543 19.4704 9.74665 19.4868C9.739 19.5042 9.72589 19.5305 9.71824 19.5458C9.70076 19.5775 7.64958 21.6341 7.63428 21.6341C7.62881 21.6341 7.62116 21.6396 7.61898 21.6472C7.6157 21.6549 7.6004 21.6669 7.58401 21.6745C7.56762 21.6822 7.54795 21.692 7.5403 21.6964C7.48784 21.7259 7.45724 21.7357 7.40479 21.739C7.37528 21.7423 7.34031 21.7412 7.33048 21.7368ZM14.9079 21.5041C14.8631 21.4767 14.8325 21.4297 14.8325 21.3882C14.8325 21.3587 14.8555 21.2953 14.885 21.2429C14.9068 21.2035 14.9068 21.0691 14.885 21.0571C14.8762 21.0527 14.8697 21.0429 14.8697 21.0374C14.8697 21.0254 12.5956 18.748 12.5836 18.748C12.5792 18.748 12.5661 18.7404 12.553 18.7294C12.5136 18.6989 12.4382 18.7043 12.3541 18.7447C12.2972 18.7721 12.2743 18.7786 12.2295 18.7786C12.1814 18.7786 12.1705 18.7753 12.1497 18.7546C12.1038 18.7087 12.0743 18.6234 12.0994 18.6081C12.1038 18.6049 12.1104 18.5896 12.1137 18.5743C12.118 18.5513 12.2317 18.4333 12.6622 18.0016L13.2054 17.4574L14.685 18.9371L16.1646 20.4167L15.6325 20.9478C15.0762 21.5019 15.0478 21.527 14.9757 21.527C14.9593 21.527 14.9287 21.5172 14.9079 21.5041ZM16.2597 20.1075L16.157 20.0047L16.1789 19.9741C16.2193 19.9184 16.3133 19.7359 16.3133 19.7141C16.3133 19.7064 16.3165 19.6955 16.3209 19.6911C16.3253 19.6867 16.3406 19.6376 16.3537 19.5829C16.3766 19.4922 16.3788 19.4693 16.3788 19.3163C16.3788 19.1076 16.357 19.0005 16.2772 18.8114C16.2313 18.701 16.2051 18.6256 16.2051 18.6005C16.2051 18.5502 16.2553 18.489 16.3122 18.4705C16.3821 18.4475 16.3788 18.4442 16.8356 18.9021L17.2585 19.325L16.8149 19.7687C16.5712 20.0124 16.369 20.2124 16.3668 20.2124C16.3646 20.2102 16.3165 20.1643 16.2597 20.1075ZM17.3831 19.0638C17.3613 19.0507 17.3328 19.0234 17.3077 18.9895C17.2782 18.9502 17.2815 18.9021 17.3186 18.8267C17.3438 18.7753 17.3503 18.7535 17.3503 18.7098V18.6562L16.2335 17.5394C15.6193 16.9252 15.085 16.393 15.0456 16.357L14.9746 16.2925H14.8948C14.8489 16.2925 14.8118 16.2969 14.8085 16.3023C14.8052 16.3078 14.7877 16.3176 14.7702 16.3242C14.7528 16.3308 14.7364 16.3395 14.7342 16.3439C14.7254 16.357 14.6577 16.3668 14.6293 16.3592C14.614 16.3548 14.5834 16.3329 14.5626 16.31C14.5244 16.2685 14.5244 16.2674 14.5276 16.2116C14.5309 16.169 14.5375 16.1461 14.555 16.1199C14.5681 16.1002 14.8161 15.8488 15.1057 15.5592L15.6314 15.0336L16.9394 16.3406C17.6585 17.0597 18.2606 17.6563 18.2759 17.6672C18.2989 17.6836 18.3164 17.6869 18.3644 17.6869C18.4169 17.6869 18.4355 17.6825 18.5021 17.6498C18.5666 17.6181 18.5841 17.6137 18.6191 17.617C18.642 17.6192 18.6628 17.6257 18.665 17.6301C18.6682 17.6345 18.6781 17.641 18.6868 17.6443C18.6956 17.6476 18.7054 17.6585 18.7076 17.6683C18.7098 17.6782 18.7174 17.688 18.724 17.6902C18.7415 17.6968 18.748 17.7536 18.7371 17.7995C18.7316 17.8224 18.724 17.841 18.7207 17.841C18.7174 17.841 18.7098 17.8519 18.7043 17.8661C18.689 17.9011 17.5306 19.0562 17.499 19.0682C17.4684 19.077 17.405 19.0759 17.3831 19.0638ZM15.6849 18.9305C15.6598 18.9218 15.6193 18.9032 15.5942 18.889C15.4532 18.8059 15.3057 18.7579 15.1899 18.7579C15.1363 18.7579 15.0194 18.7841 14.9888 18.8038C14.9691 18.8158 14.9637 18.8103 14.8522 18.6999L14.7353 18.5841L14.7495 18.5513C14.7571 18.5338 14.7681 18.5087 14.7735 18.4967C14.7866 18.4672 14.7866 18.2235 14.7735 18.206C14.7681 18.1994 14.7593 18.1743 14.7528 18.1514C14.7429 18.1131 14.7254 18.0749 14.6413 17.9186C14.6249 17.888 14.6129 17.8497 14.6096 17.8191C14.6052 17.7743 14.6074 17.7656 14.6336 17.7306C14.6489 17.7099 14.6752 17.6858 14.6926 17.6771C14.7189 17.664 14.7287 17.664 14.767 17.6738C14.8074 17.6847 14.8445 17.7197 15.3265 18.2005C15.8794 18.7524 15.9013 18.7764 15.8783 18.8344C15.8652 18.8693 15.8171 18.9174 15.7811 18.9327C15.745 18.9502 15.7428 18.9502 15.6849 18.9305ZM9.98379 17.959C9.79911 17.9448 9.55541 17.9011 9.40679 17.8563C9.37729 17.8476 9.34232 17.8377 9.3303 17.8355C9.30516 17.8301 9.23413 17.8071 9.18605 17.7886C9.16856 17.782 9.12048 17.7634 9.07786 17.7481C9.03524 17.7328 8.98388 17.7121 8.96312 17.7022C8.94235 17.6924 8.92268 17.6847 8.9205 17.6847C8.90192 17.6847 8.48557 17.476 8.47464 17.4618C8.47136 17.4574 8.45934 17.4487 8.44732 17.4432C8.40251 17.4203 8.36973 17.4006 8.34241 17.3809C8.32711 17.37 8.30962 17.3602 8.30416 17.3602C8.2987 17.3602 8.29433 17.3558 8.29433 17.3514C8.29433 17.346 8.28995 17.3427 8.2834 17.3427C8.27793 17.3427 8.26045 17.3329 8.24515 17.3219C8.22985 17.311 8.21018 17.2979 8.20144 17.2946C8.1927 17.2913 8.18614 17.2848 8.18614 17.2793C8.18614 17.2738 8.18067 17.2695 8.17412 17.2695C8.16756 17.2695 8.14898 17.2575 8.1315 17.2432C8.11401 17.229 8.09544 17.2159 8.08997 17.2159C8.08451 17.2159 8.07686 17.2094 8.07467 17.2017C8.0714 17.1941 8.06484 17.1886 8.05937 17.1886C8.05391 17.1886 8.02987 17.1722 8.00583 17.1525C7.98179 17.1329 7.95884 17.1165 7.95337 17.1165C7.94791 17.1165 7.93917 17.1088 7.9337 17.0979C7.92824 17.0881 7.9195 17.0793 7.91403 17.0793C7.9042 17.0793 7.80257 16.9974 7.74137 16.9394C7.72279 16.922 7.70312 16.9078 7.69766 16.9078C7.68455 16.9078 7.09444 16.3166 7.09444 16.3045C7.09444 16.2991 7.08023 16.2794 7.06274 16.2608C7.00592 16.1996 6.92287 16.098 6.92287 16.0882C6.92287 16.0827 6.91522 16.074 6.90429 16.0685C6.89445 16.063 6.88571 16.0543 6.88571 16.0488C6.88571 16.0434 6.86932 16.0193 6.84965 15.9964C6.82998 15.9723 6.81359 15.9483 6.81359 15.9428C6.81359 15.9374 6.80703 15.9297 6.80047 15.9275C6.79282 15.9242 6.78627 15.9177 6.78627 15.9122C6.78627 15.9068 6.77425 15.8882 6.75895 15.8707C6.74365 15.8532 6.73272 15.8346 6.73272 15.8292C6.73272 15.8237 6.72616 15.8161 6.71961 15.8139C6.71196 15.8106 6.70649 15.804 6.70649 15.7986C6.70649 15.7931 6.69666 15.7756 6.68354 15.7592C6.67043 15.7428 6.6606 15.7254 6.6606 15.7188C6.6606 15.7122 6.65622 15.7079 6.65185 15.7079C6.64748 15.7079 6.63655 15.6948 6.6289 15.6784C6.62125 15.662 6.60486 15.6325 6.59284 15.6128C6.58082 15.5931 6.56552 15.5658 6.55897 15.5516C6.55241 15.5385 6.54476 15.5265 6.54148 15.5265C6.5382 15.5265 6.52072 15.497 6.50214 15.4609C6.48465 15.4248 6.45078 15.3614 6.42892 15.3188C6.40707 15.2762 6.36991 15.1997 6.34696 15.1473C6.32729 15.1025 6.30871 15.0587 6.28904 15.015C6.27921 14.9943 6.27265 14.9746 6.27265 14.9702C6.27265 14.9659 6.265 14.9473 6.25517 14.9265C6.23768 14.8894 6.21911 14.8347 6.19616 14.7593C6.1896 14.7375 6.17976 14.7069 6.1743 14.6916C6.16447 14.661 6.13496 14.5561 6.1142 14.4752C6.10655 14.4457 6.09453 14.3823 6.08688 14.3353C6.07923 14.2883 6.06939 14.2359 6.06502 14.2184C6.05737 14.1878 6.04316 14.0381 6.03005 13.8479C6.02349 13.755 6.03661 13.496 6.05628 13.3518C6.06611 13.272 6.09671 13.1125 6.11201 13.0546C6.14698 12.9223 6.18741 12.7956 6.23113 12.6754C6.29997 12.4907 6.46608 12.1694 6.55022 12.0568C6.56224 12.0415 6.57099 12.0262 6.57099 12.023C6.57099 12.0197 6.57536 12.012 6.57973 12.0055C6.61579 11.9618 6.6606 11.8995 6.6606 11.8929C6.6606 11.8885 6.68682 11.8536 6.71961 11.8142C6.75239 11.7749 6.78736 11.7312 6.79719 11.7181L6.81577 11.694L7.01138 11.8896C7.15891 12.0372 7.2059 12.0885 7.19934 12.0984C7.18295 12.1268 7.1611 12.1989 7.12831 12.3235C7.11192 12.3847 7.11848 12.5366 7.13924 12.6153C7.15017 12.6557 7.16219 12.6907 7.16547 12.6928C7.16875 12.695 7.1764 12.7125 7.18404 12.7311C7.1906 12.7497 7.19934 12.765 7.20372 12.765C7.20809 12.765 7.21464 12.7737 7.21901 12.7857C7.22339 12.7977 7.24306 12.8251 7.26382 12.848C7.28458 12.871 7.30097 12.8917 7.30097 12.8939C7.30097 12.8994 11.1006 16.699 11.1061 16.699C11.1083 16.699 11.129 16.7154 11.152 16.7351C11.305 16.8662 11.5137 16.911 11.7224 16.8575C11.8219 16.8324 11.8962 16.8061 11.9038 16.7952C11.9071 16.7908 11.9989 16.8761 12.1082 16.9853L12.3071 17.1831L12.2863 17.2028C12.2754 17.2137 12.2634 17.2225 12.2601 17.2225C12.2568 17.2225 12.2218 17.2487 12.1836 17.2815C12.1453 17.3143 12.1093 17.3405 12.106 17.3405C12.1027 17.3405 12.0732 17.3613 12.0415 17.3853C12.0098 17.4094 11.9803 17.4301 11.9771 17.4301C11.9738 17.4301 11.953 17.4421 11.9344 17.4574C11.9148 17.4716 11.8962 17.4848 11.8929 17.4848C11.8896 17.4848 11.8667 17.4979 11.8437 17.5143C11.7935 17.5481 11.7301 17.5831 11.5968 17.6487C11.4427 17.7252 11.4121 17.7383 11.3957 17.7383C11.3869 17.7383 11.3804 17.7427 11.3804 17.747C11.3804 17.7525 11.376 17.7558 11.3705 17.7558C11.3651 17.7558 11.3356 17.7656 11.305 17.7776C11.2066 17.8159 11.1443 17.8355 11.0143 17.8694C10.9848 17.8771 10.94 17.8891 10.9149 17.8956C10.8176 17.9219 10.6548 17.947 10.4952 17.959C10.2952 17.9754 10.1892 17.9754 9.98379 17.959ZM13.5124 17.3613L13.4075 17.2564L13.8403 16.8236L14.273 16.3909L14.6795 16.7974C14.9648 17.0826 15.0882 17.2126 15.0959 17.2334C15.1101 17.2771 15.0981 17.3219 15.0609 17.3624C15.0216 17.4061 14.9746 17.4279 14.9331 17.4214C14.9167 17.4192 14.8697 17.4006 14.8292 17.3809C14.6216 17.2815 14.4653 17.2411 14.2774 17.24C14.1113 17.2389 13.9714 17.2717 13.8173 17.3482C13.7146 17.3995 13.6851 17.4159 13.6479 17.4443L13.6173 17.4673L13.5124 17.3613ZM12.4491 16.6488C12.3464 16.546 12.2623 16.4553 12.2623 16.4477C12.2623 16.44 12.2677 16.4236 12.2743 16.4116C12.2808 16.3996 12.2907 16.3712 12.2983 16.3482C12.3049 16.3264 12.3136 16.2991 12.318 16.2892C12.3508 16.2149 12.3508 15.968 12.318 15.8925C12.3136 15.8827 12.3049 15.8598 12.2983 15.8434C12.2918 15.8259 12.2754 15.7942 12.2612 15.7734C12.247 15.7516 12.236 15.7308 12.236 15.7254C12.236 15.7133 8.51289 11.9782 8.38175 11.8579C8.32602 11.8066 8.27684 11.7651 8.27356 11.7651C8.27028 11.7651 8.24952 11.753 8.22876 11.7399C8.2069 11.7257 8.17521 11.7093 8.15882 11.7028C8.14243 11.6962 8.11401 11.6853 8.09762 11.6787C8.03643 11.6514 7.74793 11.6558 7.71296 11.6831C7.70749 11.6875 7.68782 11.694 7.66815 11.6973C7.64848 11.7006 7.61898 11.7115 7.6004 11.7213C7.58292 11.7312 7.56215 11.7388 7.5545 11.7388C7.53811 11.7388 7.16656 11.3695 7.16656 11.3531C7.16656 11.3465 7.17749 11.3345 7.19169 11.3258C7.21574 11.3105 7.31846 11.2285 7.34796 11.2012C7.35561 11.1935 7.36545 11.1881 7.36982 11.1881C7.37419 11.1881 7.39933 11.1706 7.42665 11.1498C7.47691 11.1116 7.49549 11.0984 7.53702 11.0777C7.54904 11.0711 7.56325 11.0613 7.56652 11.0547C7.5709 11.0482 7.57745 11.0438 7.58292 11.0438C7.58838 11.0438 7.60914 11.0329 7.62991 11.0187C7.65067 11.0045 7.68345 10.9859 7.70422 10.9761C7.72389 10.9662 7.74246 10.9553 7.74574 10.952C7.7523 10.9433 7.949 10.846 7.95993 10.846C7.9643 10.846 7.99162 10.834 8.02003 10.8198C8.04845 10.8056 8.08669 10.7881 8.10418 10.7826C8.12166 10.7772 8.1468 10.7662 8.15991 10.7597C8.17303 10.7531 8.18942 10.7477 8.19707 10.7466C8.20472 10.7466 8.22111 10.7411 8.23313 10.7345C8.24515 10.728 8.27575 10.7171 8.30088 10.7116C8.32602 10.705 8.35006 10.6974 8.35443 10.693C8.35989 10.6887 8.39049 10.681 8.42218 10.6744C8.45497 10.6679 8.48447 10.6602 8.48994 10.6559C8.4954 10.6526 8.52709 10.6449 8.56206 10.6384C8.59703 10.6329 8.63528 10.6242 8.64839 10.6187C8.66041 10.6143 8.71942 10.6045 8.77953 10.5969C8.83854 10.5892 8.92268 10.5794 8.96421 10.5739C9.05819 10.5619 9.48985 10.5684 9.55978 10.5826C9.5871 10.5881 9.65049 10.599 9.69966 10.6056C9.82643 10.6242 9.94008 10.646 9.96084 10.6559C9.97068 10.6602 10.0056 10.669 10.0373 10.6744C10.0701 10.6799 10.0996 10.6876 10.1051 10.6919C10.1106 10.6952 10.1346 10.7039 10.1586 10.7094C10.1838 10.716 10.2078 10.7236 10.2133 10.728C10.2187 10.7324 10.2428 10.74 10.2679 10.7466C10.2931 10.7531 10.3171 10.7608 10.3226 10.7651C10.328 10.7695 10.3455 10.775 10.363 10.7794C10.3805 10.7837 10.4023 10.7903 10.4122 10.7968C10.422 10.8023 10.4471 10.8132 10.469 10.8198C10.4908 10.8263 10.5072 10.8351 10.5072 10.8395C10.5072 10.8438 10.5138 10.8471 10.5225 10.8471C10.5411 10.8471 10.5761 10.8635 10.7848 10.9673C10.9793 11.0657 11.0045 11.0788 11.058 11.1127C11.1137 11.1487 11.1301 11.1586 11.164 11.1771C11.1804 11.1859 11.1935 11.1957 11.1935 11.2001C11.1935 11.2045 11.1979 11.2077 11.2034 11.2077C11.2143 11.2077 11.2951 11.2624 11.3006 11.2733C11.3028 11.2766 11.3083 11.2799 11.3148 11.2799C11.3203 11.2799 11.34 11.2919 11.3574 11.3061C11.3749 11.3203 11.3935 11.3334 11.399 11.3334C11.4044 11.3334 11.4121 11.34 11.4143 11.3476C11.4175 11.3553 11.4241 11.3607 11.4296 11.3607C11.4394 11.3607 11.5268 11.4263 11.5607 11.4602C11.5705 11.47 11.5826 11.4787 11.5869 11.4787C11.5913 11.4787 11.6219 11.5028 11.6558 11.5334C11.6896 11.5629 11.7191 11.588 11.7224 11.588C11.7257 11.588 11.741 11.6022 11.7574 11.6197C11.7738 11.6372 11.7913 11.6514 11.7978 11.6514C11.8131 11.6514 12.3508 12.188 12.3508 12.2044C12.3508 12.2109 12.3672 12.2317 12.3868 12.2492C12.4065 12.2677 12.4229 12.2852 12.4229 12.2885C12.4229 12.2918 12.447 12.3213 12.4776 12.3552C12.5071 12.389 12.5322 12.4196 12.5322 12.424C12.5322 12.4284 12.5409 12.4393 12.5508 12.4502C12.5814 12.4819 12.6404 12.5606 12.6404 12.5715C12.6404 12.577 12.648 12.5868 12.659 12.5923C12.6688 12.5989 12.6775 12.6076 12.6775 12.6131C12.6775 12.6185 12.6896 12.636 12.7049 12.6535C12.7191 12.671 12.7311 12.6896 12.7311 12.6961C12.7311 12.7016 12.7344 12.7081 12.7376 12.7103C12.7486 12.7147 12.8032 12.7967 12.8032 12.8076C12.8032 12.813 12.8065 12.8174 12.8109 12.8174C12.8152 12.8174 12.8251 12.8305 12.8338 12.8469C12.8425 12.8633 12.8568 12.8885 12.8666 12.9037C12.8764 12.919 12.8917 12.9453 12.9005 12.9628C12.9092 12.9802 12.919 12.9966 12.9212 12.9988C12.9475 13.0218 13.1638 13.46 13.1638 13.4906C13.1638 13.4982 13.1671 13.5037 13.1726 13.5037C13.1769 13.5037 13.1835 13.5168 13.1868 13.5332C13.1901 13.5496 13.1977 13.5704 13.2043 13.5802C13.2097 13.59 13.2207 13.6163 13.2272 13.6392C13.2338 13.6621 13.2425 13.684 13.2458 13.6884C13.2491 13.6938 13.2567 13.7157 13.2633 13.7376C13.2687 13.7594 13.2797 13.79 13.2862 13.8053C13.2928 13.8206 13.3015 13.849 13.3048 13.8687C13.3081 13.8884 13.3146 13.9091 13.3179 13.9135C13.3212 13.919 13.3299 13.9474 13.3354 13.9769C13.3409 14.0064 13.3496 14.0392 13.354 14.049C13.3649 14.073 13.3879 14.1954 13.4042 14.32C13.4119 14.3747 13.4228 14.4413 13.4283 14.4686C13.4425 14.5353 13.4436 15.0402 13.4283 15.109C13.4228 15.1363 13.4119 15.2008 13.4042 15.2533C13.3857 15.3833 13.3638 15.4991 13.354 15.5155C13.3496 15.5232 13.3409 15.5538 13.3354 15.5833C13.3299 15.6128 13.3212 15.6412 13.3179 15.6456C13.3146 15.651 13.3059 15.6784 13.2993 15.7068C13.2928 15.7352 13.284 15.7614 13.2797 15.7636C13.2753 15.7658 13.2676 15.7855 13.2633 15.8062C13.2578 15.827 13.2469 15.8587 13.2392 15.8762C13.2316 15.8936 13.2196 15.9199 13.2141 15.9352C13.2086 15.9505 13.1922 15.9854 13.1791 16.0128C13.166 16.0401 13.1551 16.0674 13.1551 16.0718C13.1551 16.0827 13.0972 16.1953 13.0764 16.2269C13.0677 16.2401 13.0524 16.2652 13.0447 16.2827C13.036 16.3002 13.0196 16.3308 13.0065 16.3504C12.9934 16.3701 12.9781 16.3996 12.9704 16.416C12.9628 16.4324 12.9529 16.4455 12.9475 16.4455C12.9431 16.4455 12.9387 16.4499 12.9387 16.4553C12.9387 16.4608 12.9289 16.4783 12.9158 16.4947C12.9026 16.5111 12.8928 16.5275 12.8928 16.5307C12.8928 16.5351 12.8721 16.5635 12.848 16.5952C12.8229 16.6269 12.8032 16.6564 12.8032 16.6597C12.8032 16.6641 12.7824 16.6914 12.7573 16.7209C12.7322 16.7504 12.7016 16.7897 12.6896 16.8083C12.6775 16.8269 12.6622 16.8422 12.6568 16.8422C12.6415 16.8367 12.5519 16.7515 12.4491 16.6488ZM17.5481 16.5406L17.4432 16.4346L17.4694 16.3865C17.5197 16.2947 17.5328 16.1974 17.5088 16.098C17.5 16.0619 17.4891 16.0324 17.4847 16.0324C17.4804 16.0324 17.4771 16.0281 17.4771 16.0215C17.4771 16.0149 17.4673 15.9975 17.4541 15.9811C17.4421 15.9647 17.4312 15.9472 17.4312 15.9417C17.4312 15.9363 17.4235 15.9286 17.4126 15.9231C17.4028 15.9177 17.394 15.9089 17.394 15.9024C17.394 15.8882 16.6007 15.097 16.5799 15.0904C16.5712 15.0872 16.5646 15.0817 16.5646 15.0773C16.5646 15.0675 16.4805 15.0128 16.4663 15.0128C16.4608 15.0128 16.4564 15.0096 16.4564 15.0052C16.4564 15.0008 16.4357 14.9921 16.4116 14.9866C16.3865 14.9812 16.3646 14.9724 16.3613 14.968C16.3548 14.9571 16.1974 14.9571 16.1909 14.968C16.1887 14.9724 16.1712 14.979 16.1515 14.9822C16.133 14.9855 16.1024 14.9986 16.0838 15.0107C16.0652 15.0227 16.0466 15.0325 16.0433 15.0325C16.039 15.0325 15.9909 14.9866 15.9352 14.9309L15.8335 14.8293L15.9035 14.7615C15.9876 14.6806 16.0914 14.5845 16.1275 14.5561C16.1417 14.5451 16.1799 14.5134 16.2127 14.4872C16.2455 14.461 16.2816 14.4337 16.2936 14.4271C16.3056 14.4206 16.3329 14.4042 16.3526 14.3889C16.4127 14.3451 16.4947 14.296 16.5285 14.2829C16.546 14.2763 16.5788 14.2632 16.6007 14.2534C16.6225 14.2435 16.6498 14.2326 16.6597 14.2282C16.6695 14.2238 16.6957 14.2162 16.7187 14.2107C16.7416 14.2053 16.7679 14.1976 16.7777 14.1932C16.8553 14.1583 17.2411 14.1572 17.3186 14.1922C17.3285 14.1965 17.3558 14.2053 17.3798 14.2107C17.4039 14.2173 17.4246 14.2249 17.4279 14.2293C17.4301 14.2337 17.4388 14.237 17.4465 14.237C17.4651 14.237 17.5995 14.3036 17.6356 14.332C17.6519 14.3441 17.6683 14.355 17.6716 14.355C17.6749 14.355 17.7077 14.379 17.7437 14.4096C17.7798 14.4391 17.8137 14.4643 17.817 14.4643C17.8213 14.4643 17.8323 14.4719 17.841 14.4828C17.8661 14.5113 17.8902 14.5069 17.8902 14.4741C17.8902 14.4588 17.8858 14.4468 17.8814 14.4468C17.8771 14.4468 17.8727 14.4424 17.8727 14.4369C17.8727 14.4315 17.8629 14.4063 17.8508 14.3801C17.8126 14.2982 17.782 14.2228 17.782 14.2129C17.782 14.2075 17.7765 14.19 17.7689 14.1736C17.7263 14.0752 17.6847 13.8763 17.6727 13.7124C17.6607 13.554 17.6727 13.366 17.7011 13.2524C17.7317 13.13 17.7558 13.0447 17.7689 13.0152C17.7754 12.9999 17.782 12.9835 17.782 12.9802C17.782 12.977 17.794 12.9475 17.8093 12.9158C17.8246 12.8841 17.8366 12.8546 17.8366 12.8491C17.8366 12.8436 17.8399 12.8404 17.8443 12.8404C17.8486 12.8404 17.8574 12.8251 17.8639 12.8065C17.8705 12.7879 17.8869 12.7562 17.9 12.7366C17.9131 12.7169 17.9262 12.6939 17.9295 12.6863C17.9372 12.6655 18.0432 12.5147 18.0683 12.4874C18.0803 12.4743 18.0902 12.459 18.0902 12.4535C18.0902 12.4284 18.1164 12.4481 18.2136 12.5464L18.3175 12.6502L18.2967 12.7027C18.2792 12.7453 18.2759 12.7726 18.2759 12.8546C18.2759 12.9507 18.277 12.9551 18.3065 13.0108C18.324 13.0425 18.347 13.0764 18.3579 13.0873C18.3688 13.0983 18.3787 13.1114 18.3787 13.1158C18.3787 13.1278 20.4735 15.2227 20.4856 15.2227C20.491 15.2227 20.5096 15.238 20.5271 15.2565C20.5697 15.3013 20.6254 15.3309 20.6801 15.3374C20.7052 15.3407 20.7271 15.3461 20.7304 15.3505C20.7369 15.3604 20.7839 15.3604 20.8047 15.3505C20.8134 15.3461 20.8484 15.3374 20.8833 15.3319C20.9183 15.3265 20.9511 15.3166 20.9577 15.3123C20.9664 15.3046 20.9948 15.3276 21.0746 15.4084L21.1806 15.5144L21.1402 15.5494C21.1183 15.5691 21.0888 15.5909 21.0746 15.5986C21.0604 15.6062 21.0309 15.6248 21.0101 15.6412C20.9544 15.6827 20.8921 15.7199 20.8801 15.7199C20.8746 15.7199 20.8702 15.7243 20.8702 15.7286C20.8702 15.7341 20.8659 15.7374 20.8615 15.7374C20.856 15.7374 20.8374 15.7472 20.8189 15.7592C20.8003 15.7712 20.7719 15.7844 20.7555 15.7876C20.7391 15.7909 20.726 15.7964 20.726 15.7997C20.726 15.8029 20.7085 15.8117 20.6877 15.8182C20.667 15.8248 20.6407 15.8357 20.6309 15.8412C20.6211 15.8477 20.5981 15.8554 20.5785 15.8587C20.5588 15.8619 20.5424 15.8685 20.5402 15.8718C20.538 15.8762 20.5129 15.8838 20.4834 15.8893C20.455 15.8947 20.4222 15.9035 20.4091 15.9089C20.3719 15.9242 20.1293 15.9527 20.0342 15.9527C19.9392 15.9527 19.6802 15.9231 19.6529 15.9089C19.6441 15.9046 19.6212 15.898 19.6015 15.8947C19.549 15.886 19.4441 15.8543 19.4026 15.8357C19.3829 15.827 19.3534 15.8161 19.337 15.8128C19.3206 15.8095 19.3075 15.8029 19.3075 15.7997C19.3075 15.7953 19.2966 15.7898 19.2824 15.7865C19.2441 15.7778 19.0256 15.6663 19.0201 15.6532C19.0179 15.6499 19.0125 15.6467 19.007 15.6467C19.0015 15.6467 18.9841 15.6368 18.9677 15.6237C18.9513 15.6117 18.9338 15.6008 18.9294 15.6008C18.9251 15.6008 18.901 15.5855 18.877 15.5658C18.8529 15.5472 18.8256 15.5286 18.8169 15.5254C18.8081 15.5221 18.8016 15.5155 18.8016 15.5101C18.8016 15.5046 18.7972 15.5002 18.7917 15.5002C18.7863 15.5002 18.76 15.4817 18.7338 15.4598C18.7076 15.4379 18.6835 15.4194 18.6803 15.4194C18.677 15.4194 18.6606 15.4052 18.6442 15.3877C18.6278 15.3702 18.6103 15.356 18.606 15.356C18.6016 15.356 18.5306 15.2893 18.4486 15.2074C18.3666 15.1254 18.2923 15.0587 18.2836 15.0587C18.2705 15.0587 18.2683 15.0642 18.2737 15.0992C18.277 15.121 18.2869 15.1615 18.2956 15.1877C18.3087 15.227 18.312 15.2664 18.3109 15.4248C18.3109 15.603 18.3087 15.6204 18.2858 15.709C18.2716 15.7614 18.2574 15.8073 18.2519 15.8128C18.2475 15.8171 18.2431 15.827 18.2431 15.8346C18.2431 15.8565 18.1677 16.0138 18.1339 16.063C18.1251 16.0761 18.1175 16.0914 18.1175 16.0969C18.1175 16.1024 18.1131 16.1067 18.1087 16.1067C18.1033 16.1067 18.1 16.1122 18.1 16.1188C18.1 16.1253 18.088 16.1439 18.0738 16.1614C18.0596 16.1789 18.0464 16.1953 18.0464 16.1996C18.0464 16.2029 18.0399 16.2138 18.0322 16.2226C17.9667 16.298 17.9011 16.3777 17.9011 16.3821C17.9011 16.3876 17.8858 16.404 17.7284 16.5701L17.653 16.6488L17.5481 16.5406ZM21.2844 15.2139C21.2319 15.1615 21.186 15.1134 21.1828 15.1068C21.1795 15.1003 21.185 15.0719 21.1959 15.0434C21.2134 14.9997 21.2166 14.9735 21.2166 14.885C21.2166 14.8205 21.2134 14.7757 21.2068 14.7724C21.2013 14.7692 21.1915 14.7517 21.185 14.7342C21.1784 14.7167 21.1675 14.6992 21.1609 14.6948C21.1544 14.6905 21.1489 14.6828 21.1489 14.6763C21.1489 14.6708 20.6549 14.1714 20.0506 13.5671C19.0453 12.5628 18.9469 12.4666 18.8934 12.4404C18.8606 12.4251 18.8278 12.4076 18.819 12.4032C18.7994 12.3934 18.6562 12.3923 18.6453 12.4032C18.6409 12.4076 18.6136 12.4164 18.5852 12.4218C18.5568 12.4284 18.5316 12.436 18.5284 12.4415C18.524 12.4491 18.3076 12.2404 18.3076 12.2295C18.3076 12.2273 18.312 12.2251 18.3175 12.2251C18.3229 12.2251 18.3459 12.2087 18.3699 12.1891C18.394 12.1694 18.4169 12.153 18.4213 12.153C18.4256 12.153 18.4344 12.1453 18.4409 12.1344C18.4475 12.1246 18.4562 12.1158 18.4617 12.1158C18.4672 12.1158 18.4847 12.106 18.5 12.094C18.5644 12.0459 18.8212 11.9148 18.8824 11.8995C18.9065 11.894 18.9294 11.8853 18.9349 11.882C18.9403 11.8776 18.9644 11.87 18.9895 11.8634C19.0147 11.8568 19.0431 11.8481 19.0529 11.8437C19.0715 11.835 19.1982 11.8131 19.3053 11.8C19.3862 11.7902 19.5403 11.7902 19.6212 11.8C19.7392 11.8153 19.8649 11.8372 19.8823 11.8448C19.9053 11.8558 19.9752 11.8711 20.0015 11.8711C20.0146 11.8711 20.0222 11.8656 20.0222 11.8558C20.0222 11.847 19.8867 11.705 19.7228 11.5399L19.4234 11.2394L19.6944 10.9684C19.843 10.8198 19.9676 10.6974 19.972 10.6974C19.9752 10.6974 20.0255 10.7444 20.0823 10.8012L20.1861 10.905V11.0154C20.1861 11.1301 20.1993 11.2449 20.2146 11.2711C20.2178 11.2766 20.2222 11.2919 20.2266 11.3072C20.2342 11.3367 20.302 11.5006 20.3129 11.5148C20.3173 11.5203 20.3315 11.5443 20.3446 11.5694C20.373 11.6208 20.5052 11.823 20.526 11.8459C20.5533 11.8765 20.6189 12.0066 20.6189 12.0295C20.6189 12.0361 20.6123 12.0525 20.6058 12.0667C20.5861 12.1049 20.5795 12.1497 20.5916 12.1639C20.597 12.1705 20.6156 12.1836 20.6331 12.1912C20.6506 12.1989 20.6648 12.2098 20.6648 12.2142C20.6648 12.2186 20.6692 12.2229 20.6746 12.2229C20.6801 12.2229 20.7041 12.2393 20.7282 12.259C20.7522 12.2787 20.7741 12.2951 20.7784 12.2951C20.7817 12.2951 20.7937 12.3027 20.8047 12.3136C20.8156 12.3246 20.8626 12.3661 20.9107 12.4076C21.0014 12.4874 21.2789 12.7704 21.2789 12.7835C21.2789 12.7879 21.2877 12.7999 21.2975 12.812C21.3281 12.8447 21.4232 12.9693 21.4232 12.9759C21.4232 12.9792 21.4385 13.0032 21.4571 13.0283C21.4756 13.0546 21.4964 13.0852 21.5019 13.0983C21.5139 13.1234 21.527 13.1453 21.5521 13.1824C21.5729 13.2141 21.6483 13.3638 21.6483 13.3737C21.6483 13.3813 21.6767 13.4469 21.6975 13.4862C21.704 13.4982 21.7128 13.5234 21.7161 13.5408C21.7193 13.5583 21.7259 13.5769 21.7292 13.5813C21.7324 13.5867 21.7412 13.613 21.7477 13.6403C21.7543 13.6676 21.763 13.6938 21.7663 13.6993C21.7696 13.7048 21.7773 13.7408 21.7838 13.7802C21.7893 13.8195 21.798 13.8589 21.8024 13.8676C21.821 13.9037 21.8319 14.1539 21.821 14.296C21.8155 14.3725 21.8068 14.4413 21.8024 14.4501C21.798 14.4588 21.7893 14.4949 21.7838 14.5309C21.7783 14.567 21.7696 14.5987 21.7663 14.6009C21.762 14.603 21.7565 14.6216 21.7532 14.6424C21.7477 14.6741 21.7324 14.7178 21.6942 14.8085C21.6756 14.8522 21.598 15.0085 21.5849 15.0292L21.5215 15.1265C21.4953 15.1669 21.4702 15.2008 21.4658 15.2008C21.4614 15.2008 21.4582 15.2063 21.4582 15.2117C21.4582 15.2183 21.4407 15.2423 21.4199 15.2653L21.3817 15.3079L21.2844 15.2139ZM14.5626 14.4883C14.5353 14.4774 14.5112 14.4654 14.5102 14.461C14.508 14.4566 14.497 14.449 14.485 14.4446C14.473 14.4402 14.461 14.4293 14.4566 14.4206C14.4533 14.4118 14.4457 14.3998 14.4402 14.3932C14.4348 14.3867 14.4205 14.367 14.4096 14.3495C14.3921 14.3211 14.3899 14.3091 14.3943 14.2457C14.3965 14.2064 14.4031 14.1692 14.4074 14.1627C14.4118 14.1561 14.4205 14.131 14.4271 14.1069C14.4337 14.0829 14.4413 14.0577 14.4457 14.0523C14.4501 14.0468 14.4577 14.0108 14.4643 13.9714C14.4697 13.9321 14.4785 13.8916 14.4828 13.884C14.4938 13.8621 14.4927 13.708 14.4817 13.7015C14.4763 13.6982 14.473 13.6829 14.473 13.6665C14.473 13.6261 14.4544 13.5343 14.4457 13.5343C14.4424 13.5343 14.4358 13.519 14.4326 13.5004C14.4293 13.4818 14.4162 13.4447 14.4042 13.4185C14.3921 13.3922 14.3823 13.3671 14.3823 13.3627C14.3823 13.3584 14.379 13.3529 14.3757 13.3518C14.3725 13.3496 14.3561 13.3223 14.3397 13.2906C14.3047 13.2218 14.3058 13.2228 14.2304 13.1081C14.1987 13.06 14.167 13.0163 14.1605 13.0098C14.1539 13.0043 14.1473 12.9955 14.1473 12.9901C14.1473 12.9846 13.6108 12.4448 12.9562 11.7902C12.3005 11.1345 11.7661 10.5979 11.7683 10.5958C11.7716 10.5925 11.9322 10.6723 12.7365 11.0711C12.9453 11.1749 13.1212 11.2602 13.1256 11.2602C13.131 11.2602 13.1365 11.2635 13.1376 11.2667C13.1409 11.2733 13.2556 11.3323 13.2644 11.3323C13.2666 11.3323 13.5441 11.6088 13.8818 11.9454C14.2195 12.283 14.4981 12.5584 14.5014 12.5584C14.5047 12.5584 14.5353 12.5803 14.5681 12.6054C14.6009 12.6316 14.6347 12.6568 14.6435 12.6622C14.6522 12.6677 14.6763 12.683 14.6981 12.6983C14.7801 12.7529 14.9921 12.8622 15.0434 12.8753C15.0642 12.8808 15.0882 12.8885 15.0981 12.8928C15.1243 12.9048 15.2161 12.9201 15.2631 12.9201C15.2849 12.9201 15.3112 12.9245 15.321 12.93C15.3308 12.9354 15.3461 12.9365 15.3538 12.9333C15.3625 12.93 15.3888 12.9256 15.4139 12.9234C15.4795 12.919 15.5713 12.9027 15.5887 12.8939C15.5975 12.8895 15.6401 12.8742 15.6849 12.8611C15.8292 12.8174 15.9046 12.8305 15.9832 12.9136C16.0226 12.9551 16.0586 13.0305 16.0586 13.072C16.0586 13.1147 16.0226 13.2108 15.9898 13.2567C15.9734 13.2808 15.9592 13.3048 15.9592 13.3103C15.9592 13.3157 15.7144 13.566 15.415 13.8654C15.1156 14.1648 14.8664 14.4096 14.8598 14.4096C14.8533 14.4096 14.8292 14.4238 14.8063 14.4402C14.7691 14.4664 14.6511 14.5091 14.6194 14.508C14.6162 14.508 14.5899 14.4992 14.5626 14.4883ZM22.8329 13.5846C22.7783 13.554 22.7597 13.5234 22.7608 13.4633C22.7608 13.4239 22.7684 13.3988 22.7903 13.3562C22.8056 13.3256 22.8187 13.295 22.8187 13.2862C22.8187 13.2775 22.8231 13.2698 22.8274 13.2666C22.8416 13.2578 22.8384 13.1824 22.822 13.1562C22.8132 13.1431 22.2144 12.5377 21.4888 11.812L20.1708 10.493L20.644 10.0199C20.9041 9.75977 21.1205 9.54668 21.1249 9.54668C21.1281 9.54668 21.7117 10.127 22.4209 10.8373C23.1301 11.5465 23.7126 12.1279 23.717 12.1279C23.7202 12.1279 23.7399 12.1421 23.7585 12.1596C23.7913 12.1902 23.7967 12.1912 23.859 12.1912C23.9038 12.1912 23.9355 12.1858 23.9607 12.1738L23.9967 12.1563L23.9989 12.3694L24.0011 12.5825L23.5115 13.0709C23.1105 13.4709 23.0132 13.5638 22.9728 13.5835C22.9138 13.6108 22.8799 13.6119 22.8329 13.5846ZM15.9658 12.188C15.1024 11.7563 13.7845 11.1006 13.719 11.0711C13.6184 11.0252 13.4305 10.9302 13.4272 10.9247C13.425 10.9214 13.4195 10.9181 13.4152 10.9181C13.4042 10.9181 13.1442 10.7903 13.1376 10.7815C13.1354 10.7783 13.1179 10.7706 13.0994 10.7641C13.0808 10.7575 13.0655 10.7498 13.0655 10.7466C13.0655 10.7433 13.0491 10.7356 13.0294 10.7291C13.0097 10.7225 12.9934 10.7138 12.9934 10.7094C12.9934 10.705 12.989 10.7018 12.9835 10.7018C12.9704 10.7018 12.8546 10.6449 12.8502 10.6362C12.848 10.6329 12.8425 10.6296 12.8382 10.6296C12.8251 10.6296 12.6371 10.5368 12.6338 10.528C12.6316 10.5247 12.6262 10.5215 12.6218 10.5215C12.612 10.5215 12.3519 10.3947 12.3442 10.3859C12.342 10.3827 12.3257 10.375 12.3082 10.3685C12.2907 10.3619 11.9333 10.186 11.5137 9.97724C10.6504 9.54777 10.6351 9.54012 10.5979 9.53247C10.5826 9.52919 10.563 9.52154 10.5531 9.51499C10.5433 9.50843 10.5193 9.50078 10.4985 9.4975C10.4788 9.49422 10.4581 9.48876 10.4537 9.48548C10.4395 9.47674 10.3652 9.45816 10.3444 9.45816C10.3335 9.45816 10.3236 9.4527 10.3215 9.44723C10.3193 9.44068 10.2821 9.43521 10.2166 9.43303C10.1237 9.42975 10.1106 9.43084 10.0723 9.44942C10.0494 9.46035 10.0122 9.48548 9.98925 9.50515C9.93243 9.55433 9.92478 9.55979 9.89964 9.574C9.77288 9.64394 9.7401 9.65377 9.66906 9.64284C9.633 9.63738 9.6188 9.62755 9.56088 9.57181C9.50515 9.51608 9.49312 9.49859 9.48001 9.45379C9.45378 9.36418 9.47345 9.28659 9.54776 9.18278C9.55541 9.17294 9.98051 8.74347 10.4941 8.22877L11.4274 7.29333L11.5869 7.37311C11.6743 7.41682 11.7497 7.45288 11.7519 7.45288C11.7541 7.45288 11.8459 7.4955 11.9541 7.54905C12.0623 7.6015 12.2295 7.68346 12.3267 7.73045C12.424 7.77744 12.5846 7.85612 12.6841 7.9053C12.7835 7.95447 12.8677 7.99491 12.8721 7.99491C12.883 7.99491 13.2163 8.16101 13.2196 8.16866C13.2217 8.17194 13.2294 8.17522 13.237 8.17522C13.2447 8.17522 13.3354 8.21565 13.437 8.26592C13.5387 8.31619 13.7037 8.39706 13.8031 8.44514C13.9026 8.49432 13.9987 8.53912 14.0173 8.54568C14.0359 8.55223 14.0512 8.55988 14.0512 8.56316C14.0512 8.56644 14.0676 8.57409 14.0872 8.58065C14.1069 8.5872 14.1233 8.59485 14.1233 8.59922C14.1233 8.6025 14.1397 8.61124 14.1594 8.6178C14.179 8.62436 14.1954 8.63201 14.1954 8.63638C14.1954 8.64075 14.2118 8.6484 14.2315 8.65496C14.2512 8.66151 14.2676 8.66916 14.2676 8.67244C14.2676 8.68337 14.3539 8.7096 14.3692 8.70413C14.3878 8.69758 14.3889 8.66588 14.3714 8.64731C14.3648 8.63966 14.3397 8.59704 14.3156 8.55223C14.2916 8.50743 14.2555 8.43858 14.2337 8.39924C14.2118 8.3599 14.1801 8.29652 14.1616 8.25936C14.143 8.22221 14.1233 8.18615 14.1167 8.1785C14.1102 8.17085 14.0861 8.12823 14.0632 8.08342C14.0403 8.03862 14.0031 7.96977 13.9812 7.93043C13.9594 7.89109 13.9288 7.83208 13.9124 7.7993C13.896 7.76651 13.8796 7.7381 13.8752 7.73591C13.8709 7.73264 13.8512 7.69876 13.8315 7.65942C13.8119 7.62008 13.7714 7.54358 13.7419 7.48894C13.7124 7.4343 13.6753 7.36327 13.6589 7.33158C13.6425 7.2988 13.6261 7.27038 13.6217 7.2682C13.6173 7.26601 13.5977 7.23104 13.578 7.1917C13.5583 7.15236 13.5179 7.07586 13.4884 7.02122C13.4589 6.96659 13.4283 6.90757 13.4195 6.89009C13.4119 6.8726 13.3966 6.84747 13.3868 6.83326C13.3769 6.81906 13.3529 6.77644 13.3332 6.73819C13.307 6.68901 13.2818 6.63875 13.2556 6.58957C13.2327 6.54586 13.1999 6.48357 13.1824 6.44969C13.1649 6.41582 13.1431 6.37757 13.1343 6.36336C13.1256 6.34915 13.1015 6.30654 13.0819 6.26829C13.0567 6.2213 13.0327 6.17321 13.0065 6.12622C12.9846 6.08688 12.9507 6.02132 12.93 5.98198C12.9092 5.94264 12.8863 5.89892 12.8775 5.88472L12.8622 5.85958L13.7966 4.92524C14.8096 3.91113 14.8161 3.90566 14.9309 3.88271C14.9986 3.8696 15.0445 3.87397 15.1003 3.90129C15.1768 3.93845 15.2303 4.0062 15.2489 4.08597C15.2631 4.14935 15.2412 4.23678 15.1855 4.34824C15.1003 4.51763 15.0959 4.63128 15.1713 4.72307C15.1921 4.74821 15.2161 4.77881 15.2259 4.79192C15.2511 4.8258 19.1895 8.76314 19.1983 8.76314C19.2026 8.76314 19.219 8.77735 19.2365 8.79483C19.313 8.87351 19.3895 8.89756 19.4966 8.87461C19.5632 8.8604 19.5818 8.85384 19.6856 8.80139C19.8452 8.72052 19.9545 8.73036 20.0539 8.83199C20.1009 8.88007 20.1238 8.93908 20.1238 9.01121C20.1238 9.06585 20.1096 9.12814 20.0933 9.14234C20.09 9.14453 20.0801 9.16529 20.0703 9.18715C20.0561 9.21993 19.8506 9.43084 19.0147 10.2679C18.4442 10.8395 17.971 11.3083 17.9656 11.3083C17.959 11.3083 17.9546 11.3115 17.9546 11.317C17.9546 11.3214 17.9437 11.3312 17.9295 11.3378C17.9164 11.3443 17.8924 11.3574 17.8782 11.3651C17.7831 11.4165 17.712 11.4219 17.6345 11.3848C17.6082 11.3727 17.582 11.3563 17.5765 11.3487C17.57 11.3411 17.5591 11.3345 17.5525 11.3345C17.5459 11.3345 17.5405 11.329 17.5405 11.3225C17.5405 11.3159 17.5317 11.3028 17.5208 11.293C17.4869 11.2635 17.4651 11.2001 17.4662 11.1389C17.4673 11.0897 17.4738 11.0689 17.5164 10.9815C17.5864 10.8384 17.6039 10.7837 17.6039 10.7116C17.6039 10.6493 17.5897 10.6089 17.5459 10.5477C17.5044 10.4909 14.1189 7.11302 14.1025 7.11302C14.0687 7.11302 14.0905 7.18187 14.1583 7.28896C14.1714 7.30863 14.1867 7.33923 14.1932 7.35671C14.1998 7.3742 14.2085 7.39059 14.2129 7.39278C14.2173 7.39605 14.238 7.43212 14.2599 7.47364C14.332 7.61352 14.3637 7.67035 14.3801 7.69657C14.3899 7.71078 14.4031 7.73591 14.4096 7.7534C14.4162 7.77088 14.4238 7.78727 14.4271 7.78946C14.4337 7.79602 14.4566 7.83645 14.5003 7.9206C14.5211 7.95994 14.555 8.02551 14.5768 8.06485C14.5987 8.10419 14.6216 8.1468 14.6282 8.15992C14.6347 8.17303 14.6424 8.18396 14.6446 8.18724C14.6478 8.18942 14.6555 8.20582 14.6621 8.2233C14.6686 8.24079 14.6774 8.25718 14.6795 8.25936C14.6894 8.26811 14.7691 8.41563 14.8205 8.51836C14.838 8.55442 14.8555 8.58392 14.8598 8.58392C14.8631 8.58392 14.8719 8.60032 14.8784 8.61999C14.885 8.63966 14.8926 8.65605 14.897 8.65605C14.9014 8.65605 14.909 8.67244 14.9156 8.69211C14.9221 8.71178 14.9309 8.72817 14.9342 8.72817C14.9374 8.72817 14.956 8.75768 14.9735 8.79374C15.0325 8.91176 15.1035 9.0429 15.1134 9.05273C15.1156 9.05492 15.1298 9.08005 15.1429 9.10737C15.1571 9.13469 15.1877 9.1937 15.2128 9.23851C15.2369 9.28331 15.274 9.35216 15.2937 9.3915C15.3363 9.47565 15.3593 9.51608 15.3658 9.52264C15.3691 9.52482 15.3767 9.54121 15.3833 9.5587C15.3899 9.57618 15.3997 9.59258 15.403 9.59585C15.4073 9.59913 15.4259 9.63082 15.4456 9.66798C15.5101 9.79365 15.5571 9.87889 15.5647 9.88982C15.5691 9.89528 15.5898 9.93244 15.6095 9.97068C15.6303 10.01 15.6663 10.0789 15.6904 10.1226C15.7144 10.1674 15.7472 10.2297 15.7647 10.2625C15.7811 10.2952 15.8051 10.3379 15.8182 10.3575C15.8303 10.3772 15.8466 10.4078 15.8532 10.4253C15.8598 10.4428 15.8674 10.4592 15.8707 10.4613C15.8794 10.469 15.9035 10.5127 15.9974 10.6919C16.0237 10.7411 16.0477 10.7837 16.051 10.787C16.0597 10.7936 16.1155 10.9105 16.1155 10.9214C16.1155 10.9269 16.1187 10.9313 16.1242 10.9313C16.1297 10.9313 16.1472 10.9608 16.1657 10.9968C16.1843 11.0329 16.2193 11.0984 16.2433 11.1433C16.2674 11.1881 16.2903 11.2318 16.2936 11.2405C16.2969 11.2493 16.3023 11.2558 16.3056 11.2558C16.3089 11.2558 16.3176 11.2711 16.3242 11.2897C16.3308 11.3083 16.3384 11.3258 16.3417 11.3279C16.3493 11.3345 16.3745 11.3782 16.4116 11.4492C16.4291 11.4842 16.4597 11.541 16.4794 11.576C16.499 11.611 16.5242 11.658 16.5351 11.6798C16.546 11.7017 16.557 11.7224 16.5602 11.7246C16.5635 11.7268 16.5723 11.7432 16.581 11.7607C16.5897 11.7782 16.6149 11.8252 16.6367 11.8645C16.6586 11.9038 16.6925 11.9694 16.7143 12.0087C16.7351 12.0481 16.7591 12.0907 16.7679 12.1038C16.7766 12.1169 16.7886 12.141 16.7963 12.1585C16.8028 12.1759 16.8105 12.1923 16.8138 12.1945C16.8203 12.2011 16.8444 12.2426 16.8815 12.3158L16.9132 12.3792L16.8214 12.4721C16.7712 12.5235 16.7253 12.5639 16.7198 12.5639C16.71 12.5584 16.3723 12.3912 15.9658 12.188ZM5.39295 11.9967C5.37437 11.9858 5.35907 11.9738 5.35907 11.9694C5.35907 11.965 5.35252 11.9563 5.34487 11.9508C5.31646 11.9301 5.32083 11.8164 5.35033 11.7924C5.36017 11.7847 5.38749 11.6995 5.39295 11.6623C5.39623 11.6383 5.39295 11.6164 5.38093 11.5946C5.37219 11.5771 4.81814 11.0154 4.12968 10.3258L2.89482 9.0888L3.34286 8.63966L3.79091 8.19052L5.03779 9.43631C6.21364 10.6111 6.28686 10.681 6.32183 10.6876C6.36663 10.6952 6.42018 10.6821 6.48793 10.6493C6.524 10.6318 6.55131 10.6253 6.58519 10.6253C6.62672 10.6253 6.63655 10.6296 6.66497 10.657C6.68245 10.6744 6.70103 10.6963 6.70649 10.705C6.7207 10.7313 6.71633 10.7837 6.69666 10.8209C6.68682 10.8405 6.43985 11.0941 6.11966 11.4143C5.47491 12.0579 5.48584 12.0492 5.39295 11.9967ZM2.64238 10.2439L2.19106 9.79365L2.44786 9.53575L2.70467 9.27785L2.79756 9.37402L2.89045 9.47018L2.89591 9.59695C2.90138 9.71278 2.91886 9.82206 2.93853 9.86796C2.9429 9.8778 2.95164 9.90074 2.9582 9.91714C2.97678 9.9685 3.04344 10.1018 3.07404 10.1466C3.08934 10.1696 3.10245 10.1914 3.10245 10.1914C3.10245 10.1936 3.11556 10.2144 3.13196 10.2373C3.14835 10.2603 3.16583 10.2865 3.1702 10.2942C3.17567 10.3018 3.19206 10.3258 3.20845 10.3466C3.29915 10.4635 3.32101 10.5608 3.27074 10.6209C3.22594 10.6744 3.20299 10.6876 3.14507 10.6919L3.09152 10.6963L2.64238 10.2439ZM7.34469 10.0494C7.30207 10.0253 7.28021 9.99254 7.27475 9.94555C7.27038 9.91058 7.28458 9.85485 7.29988 9.84283C7.30972 9.83518 7.33704 9.74994 7.3425 9.71497C7.34578 9.69202 7.34141 9.66907 7.32829 9.64284C7.30316 9.59148 5.16346 7.45288 5.11538 7.43102C5.05965 7.40589 5.01594 7.41245 4.91868 7.45944C4.84765 7.49441 4.78536 7.49331 4.74711 7.45616C4.71651 7.42774 4.69356 7.38075 4.69356 7.35016C4.69356 7.29333 4.73399 7.24853 5.29241 6.6912C5.60058 6.38303 5.86613 6.12404 5.88362 6.1153C5.9317 6.09016 5.96885 6.08688 5.99945 6.10218C6.03879 6.12295 6.09125 6.18742 6.09125 6.21583C6.09125 6.24315 6.07158 6.29998 6.04644 6.34915C6.0224 6.39396 6.01366 6.46608 6.02677 6.50542C6.03442 6.52837 6.32729 6.82671 7.13487 7.63428C8.22548 8.72489 8.23422 8.73254 8.27575 8.73801C8.32274 8.74457 8.36099 8.73582 8.43639 8.69867C8.50305 8.66588 8.5708 8.66588 8.60468 8.69648C8.66806 8.75549 8.68008 8.80467 8.64621 8.87024C8.63637 8.88991 8.3894 9.14344 8.06921 9.46362C7.50096 10.0319 7.46052 10.069 7.40042 10.0668C7.38621 10.0679 7.36217 10.0592 7.34469 10.0494ZM22.5794 9.94664C22.5542 9.93353 22.5324 9.91932 22.5313 9.91495C22.5291 9.91058 22.5236 9.9073 22.5171 9.9073C22.5105 9.9073 22.4985 9.89965 22.4898 9.88982C22.481 9.87998 22.4602 9.86577 22.4428 9.85812C22.4264 9.85048 22.4122 9.83955 22.4122 9.83518C22.4122 9.8308 22.4067 9.82643 22.4001 9.82643C22.3936 9.82643 22.3827 9.82097 22.3772 9.81332C22.3717 9.80676 22.3532 9.79365 22.3357 9.786C22.3182 9.77835 22.304 9.76742 22.304 9.76414C22.304 9.76087 22.2974 9.75431 22.2887 9.75103C22.2799 9.74775 22.2526 9.73355 22.2275 9.71825C22.2023 9.70404 22.1717 9.68656 22.1597 9.68C22.1477 9.67344 22.1346 9.66689 22.1324 9.66361C22.1302 9.66033 22.1138 9.65268 22.0963 9.64612C22.0603 9.63301 22.0242 9.61771 21.9794 9.59695C21.9619 9.5893 21.9237 9.57837 21.8942 9.57181C21.8647 9.56635 21.8308 9.5576 21.8199 9.55214C21.8089 9.54668 21.7423 9.54231 21.6723 9.54231L21.5445 9.54121L21.4385 9.43631L21.3325 9.3314L21.6057 9.0582C21.8494 8.8145 21.8811 8.78609 21.8942 8.79702C21.9281 8.82434 22.7695 9.67016 22.7968 9.70404C22.8329 9.74775 22.8449 9.80786 22.8274 9.85375C22.8209 9.87015 22.7979 9.90184 22.7761 9.92369C22.7389 9.96194 22.7334 9.96413 22.681 9.9674C22.6329 9.97068 22.6176 9.96741 22.5794 9.94664ZM8.75658 8.63201C8.68008 8.5883 8.66806 8.52382 8.71615 8.4211C8.72598 8.40033 8.73472 8.37848 8.73472 8.37301C8.73472 8.36755 8.738 8.36427 8.74237 8.36427C8.75439 8.36427 8.76204 8.29652 8.75549 8.2539C8.75002 8.21784 8.7227 8.18833 8.24406 7.7075C7.96539 7.42884 7.73154 7.20044 7.72389 7.20044C7.71624 7.20044 7.63865 7.27148 7.55232 7.35781L7.39495 7.51517L7.2977 7.41791L7.20044 7.32065L7.3578 7.1622C7.44413 7.07477 7.51516 6.99828 7.51516 6.99063C7.51516 6.97314 6.57864 6.03661 6.54694 6.0235C6.53383 6.01694 6.52181 6.00929 6.52181 6.00602C6.52181 6.00274 6.50214 5.99946 6.47701 5.99946C6.43329 5.99946 6.41144 6.00602 6.31636 6.05191C6.22348 6.09563 6.14042 6.06284 6.11638 5.97433C6.10436 5.92952 6.1142 5.88253 6.14479 5.841C6.18523 5.78746 7.25726 4.72198 7.29114 4.7034C7.34359 4.67171 7.37747 4.66953 7.42446 4.69357C7.49331 4.72854 7.52718 4.8094 7.49331 4.85858C7.48675 4.86841 7.47036 4.90557 7.45615 4.94163C7.42883 5.01266 7.42665 5.08807 7.45178 5.12085C7.45834 5.12959 7.95228 5.62572 8.54786 6.2213C9.51935 7.19389 9.6341 7.30644 9.67016 7.31628C9.71933 7.33049 9.7696 7.32284 9.83408 7.29333C9.89746 7.26383 9.91494 7.25618 9.93789 7.25071C9.96084 7.24415 10.0319 7.28022 10.045 7.30426C10.0505 7.31409 10.0603 7.32721 10.0657 7.33376C10.081 7.35016 10.08 7.41572 10.0636 7.44414C10.0559 7.45616 10.0472 7.47255 10.0439 7.4802C10.0406 7.48785 9.78381 7.74793 9.47236 8.05938C8.99153 8.54021 8.90192 8.62654 8.87132 8.63419C8.8287 8.64621 8.78062 8.64512 8.75658 8.63201ZM20.4408 8.60469C20.4003 8.59048 20.3719 8.57081 20.3304 8.52928C20.2998 8.49869 20.2736 8.46809 20.2736 8.46044C20.2736 8.45279 20.267 8.4353 20.2604 8.4211C20.2528 8.40689 20.2473 8.38176 20.2473 8.36646C20.2473 8.3293 20.2779 8.24079 20.3173 8.16538C20.3741 8.0572 20.3949 7.98179 20.3905 7.90311C20.3872 7.85066 20.3817 7.82662 20.3664 7.80585C20.3555 7.79055 20.3468 7.77525 20.3468 7.77307C20.3468 7.77088 20.3348 7.75558 20.3195 7.74138C20.3042 7.72717 20.2921 7.71187 20.2921 7.7075C20.2921 7.69767 16.31 3.71661 16.3002 3.71661C16.2958 3.71661 16.2783 3.7024 16.2619 3.68492C16.2455 3.66743 16.2291 3.65322 16.2258 3.65322C16.2226 3.65322 16.2073 3.64448 16.1909 3.63246C16.1657 3.61498 16.1515 3.6117 16.0718 3.6117C16.0215 3.6117 15.9712 3.61607 15.9592 3.62153C15.7221 3.73409 15.7068 3.74065 15.6554 3.74721C15.6117 3.75267 15.5975 3.74939 15.5199 3.71224C15.4816 3.69366 15.4161 3.6117 15.3942 3.55597C15.3735 3.50133 15.368 3.44887 15.3822 3.44013C15.3866 3.43794 15.3931 3.41827 15.3964 3.39642C15.3997 3.37565 15.4128 3.34287 15.4248 3.32429C15.4368 3.30572 15.4467 3.28823 15.4467 3.28495C15.4467 3.27402 15.45 3.27184 16.4171 2.30034L17.3634 1.3507L20.0047 3.99199L22.646 6.63328L21.7008 7.57637C21.1806 8.09544 20.7478 8.52491 20.738 8.53256C20.7085 8.55551 20.6222 8.59485 20.5861 8.60141C20.5675 8.60469 20.55 8.61124 20.5468 8.61562C20.5402 8.63091 20.4987 8.62545 20.4408 8.60469ZM5.16237 8.58065C5.14052 8.57081 5.10664 8.54895 5.08478 8.53147C5.06293 8.51399 5.04216 8.49978 5.03889 8.49978C5.03561 8.49978 5.00829 8.4812 4.97987 8.45934C4.95146 8.43749 4.92414 8.41891 4.91977 8.41891C4.9154 8.41891 4.89573 8.40689 4.87606 8.39268C4.83344 8.36099 4.64548 8.26592 4.6269 8.26592C4.61925 8.26592 4.60942 8.26155 4.60395 8.25609C4.59849 8.25062 4.57008 8.23969 4.54166 8.23314C4.51216 8.22549 4.475 8.21565 4.45752 8.21128C4.44003 8.20691 4.37009 8.20145 4.30125 8.20035L4.17667 8.19817L4.08269 8.10419C4.03133 8.05282 3.98871 8.00693 3.98871 8.00365C3.98871 8.00037 4.10236 7.88235 4.24224 7.74247L4.49577 7.48894L4.93288 7.92497C5.19953 8.19052 5.37547 8.37301 5.38312 8.39159C5.39077 8.40798 5.39623 8.43093 5.39623 8.44186C5.39623 8.49213 5.3394 8.573 5.29023 8.59157C5.25526 8.60359 5.20499 8.59922 5.16237 8.58065ZM10.187 7.22448C10.1466 7.21028 10.0963 7.14471 10.0963 7.10646C10.0963 7.09116 10.1106 7.04964 10.1291 7.01467C10.1718 6.93052 10.1816 6.84201 10.1521 6.80267C10.1412 6.78846 10.1324 6.77425 10.1324 6.77207C10.1324 6.76442 7.98616 4.62035 7.97851 4.62035C7.97523 4.62035 7.96539 4.61379 7.95556 4.60505C7.94354 4.59412 7.92387 4.58975 7.88234 4.59084C7.83644 4.59194 7.81459 4.5974 7.76104 4.62472C7.65941 4.67718 7.6004 4.67062 7.54904 4.60068C7.5392 4.58866 7.52937 4.56134 7.52718 4.54058C7.51735 4.46627 7.52718 4.45425 8.06375 3.91768L8.56425 3.41718L9.9521 4.80503L11.3399 6.19288L10.8373 6.69557C10.5608 6.97205 10.3226 7.20372 10.3073 7.21137C10.2679 7.23213 10.222 7.2376 10.187 7.22448ZM22.787 6.09563C22.599 5.90766 22.5947 5.9022 22.6111 5.8869C22.6209 5.87816 22.6285 5.86614 22.6285 5.85958C22.6285 5.85302 22.6351 5.84428 22.6427 5.83991C22.657 5.83117 22.6722 5.80931 22.6963 5.75904C22.7039 5.74265 22.7127 5.72954 22.7171 5.72954C22.7203 5.72954 22.728 5.7208 22.7334 5.70878C22.7389 5.69785 22.7684 5.63993 22.799 5.58092C22.8296 5.52191 22.8537 5.46508 22.8537 5.45634C22.8537 5.4476 22.8569 5.43995 22.8613 5.43995C22.8657 5.43995 22.8744 5.42028 22.8799 5.39733C22.8853 5.37329 22.8941 5.35034 22.8974 5.34597C22.9017 5.3405 22.9094 5.31646 22.9159 5.29133C22.9225 5.26619 22.9301 5.24215 22.9345 5.23669C22.9389 5.23122 22.9465 5.19953 22.9531 5.16456C22.9586 5.12959 22.9673 5.09353 22.9717 5.0837C22.9848 5.0531 23.0077 4.80613 23.0077 4.6892C23.0077 4.57008 22.9848 4.31 22.9717 4.28049C22.9673 4.27066 22.9586 4.23241 22.952 4.19634C22.9454 4.16028 22.9378 4.12859 22.9334 4.12641C22.9291 4.12422 22.9258 4.11439 22.9258 4.10455C22.9258 4.08488 22.8766 3.92861 22.8624 3.90457C22.8569 3.89583 22.8537 3.88381 22.8537 3.87834C22.8537 3.87288 22.8449 3.84884 22.834 3.82589C22.7684 3.68601 22.752 3.64776 22.7356 3.59968C22.7302 3.58219 22.7214 3.56034 22.7171 3.5505C22.693 3.49258 22.6843 3.39095 22.6996 3.33631C22.7116 3.29151 22.7892 3.21392 22.8547 3.18114C22.9006 3.15819 22.9127 3.156 22.9684 3.16037C23.0121 3.16365 23.0394 3.17021 23.058 3.18442C23.0733 3.19534 23.0886 3.20409 23.0919 3.20409C23.0952 3.20409 23.3006 3.40625 23.5487 3.65432L23.9989 4.10455V5.28477L23.4962 5.78746C23.2197 6.06393 22.9903 6.29014 22.9859 6.29014C22.9837 6.28905 22.893 6.20163 22.787 6.09563ZM11.4416 5.89674L11.3476 5.80276L11.3673 5.77216C11.3782 5.75577 11.3913 5.73172 11.3979 5.7197C11.4044 5.70768 11.4121 5.69457 11.4154 5.69238C11.4274 5.68364 11.4656 5.60605 11.4722 5.57655C11.4755 5.56125 11.482 5.54813 11.4853 5.54813C11.4886 5.54813 11.4973 5.52409 11.5039 5.49349C11.5104 5.46399 11.5181 5.43886 11.5214 5.43886C11.5334 5.43886 11.552 5.26073 11.552 5.14599C11.552 5.02796 11.5377 4.90229 11.5224 4.87279C11.5181 4.86404 11.5093 4.83672 11.5039 4.81159C11.4984 4.78646 11.4875 4.75367 11.4809 4.73728C11.4722 4.71761 11.4634 4.69794 11.4558 4.67827C11.4492 4.66188 11.435 4.63019 11.4241 4.60833C11.3979 4.55478 11.3858 4.48703 11.3957 4.45206C11.4044 4.42146 11.4372 4.38212 11.4547 4.38212C11.4612 4.38212 11.4678 4.37556 11.4711 4.36901C11.4787 4.34824 11.5476 4.35152 11.576 4.37338C11.588 4.38321 11.6022 4.39086 11.6055 4.39086C11.6099 4.39086 11.7847 4.56243 11.9945 4.77334L12.3759 5.15473L11.9585 5.57108C11.729 5.80057 11.5399 5.98744 11.5377 5.98744C11.5367 5.99072 11.4929 5.94919 11.4416 5.89674ZM10.9127 4.80066C10.8974 4.79629 10.8646 4.78208 10.8384 4.76788C10.7892 4.74165 10.7072 4.70012 10.6602 4.67827C10.6231 4.66078 10.4745 4.62909 10.4329 4.62909C10.3914 4.62909 10.2614 4.66188 10.2439 4.67608C10.234 4.68482 10.2111 4.66625 10.1215 4.57773L10.0122 4.46845L10.0242 4.42911C10.0308 4.40725 10.0406 4.38431 10.0461 4.37775C10.0515 4.37119 10.0559 4.31983 10.0559 4.26519C10.0559 4.16575 10.0439 4.10236 10.0122 4.02915C10.0056 4.01385 9.99472 3.98762 9.98816 3.97014C9.9816 3.95265 9.97395 3.93626 9.97177 3.93407C9.96521 3.92861 9.94773 3.89801 9.91385 3.83463C9.89637 3.80185 9.88653 3.77015 9.88653 3.74283C9.88544 3.70459 9.88872 3.69694 9.9215 3.66306C9.96521 3.61826 10.0067 3.59531 10.0199 3.60842C10.0253 3.61388 10.0373 3.61716 10.0472 3.61716C10.0592 3.61716 10.2308 3.78218 10.5466 4.09799C10.811 4.36245 11.0405 4.59412 11.0558 4.6127C11.0984 4.66625 11.0952 4.70887 11.0438 4.75914C11.0001 4.80175 10.9618 4.81378 10.9127 4.80066ZM21.7849 4.01057C21.7018 3.98325 21.6035 3.93735 21.5816 3.9155C21.5642 3.89801 21.3784 3.80512 21.3292 3.78982C21.3073 3.78217 21.2789 3.77125 21.2658 3.76469C21.2538 3.75813 21.2385 3.75267 21.2319 3.75267C21.2254 3.75267 21.2035 3.74721 21.1828 3.73956C21.1303 3.72207 20.9697 3.69803 20.9008 3.69803C20.8254 3.69803 20.6692 3.72207 20.6375 3.73846C20.6233 3.74611 20.6058 3.75158 20.5992 3.75158C20.5927 3.75158 20.5741 3.75923 20.5588 3.76906C20.4954 3.80731 20.5085 3.81605 20.2801 3.58766L20.0692 3.37675L20.0987 3.32101C20.1523 3.21938 20.1785 3.06967 20.1697 2.92214C20.1654 2.83581 20.1391 2.69266 20.1195 2.64676C20.1151 2.63692 20.1096 2.61835 20.1064 2.60633C20.0976 2.57354 20.078 2.52764 20.008 2.39104C19.8386 2.05774 19.8463 2.07632 19.8452 2.00201C19.8441 1.91677 19.8605 1.88071 19.9315 1.81077C19.9916 1.75067 20.0331 1.73646 20.1129 1.74302C20.1479 1.74629 20.1763 1.75504 20.2003 1.77143C20.22 1.78454 20.2386 1.79438 20.2419 1.79438C20.2451 1.79438 20.255 1.79984 20.2626 1.80749C20.2703 1.81514 20.2987 1.83918 20.3238 1.86322C20.3501 1.88617 20.3708 1.90912 20.3708 1.9124C20.3708 1.92114 21.9259 3.4751 21.9849 3.52537C22.01 3.54722 22.0308 3.56799 22.0308 3.57345C22.0308 3.57891 22.0384 3.58984 22.0483 3.59749C22.0581 3.60623 22.081 3.6412 22.0985 3.67617C22.1543 3.78436 22.1412 3.85758 22.0472 3.94828C21.9958 3.99746 21.9226 4.03352 21.8723 4.03133C21.8603 4.03133 21.8199 4.02259 21.7849 4.01057ZM8.86258 3.31774C8.81231 3.26638 8.77079 3.22266 8.77079 3.21829C8.77079 3.21392 8.9511 3.03142 9.17184 2.81177L9.5729 2.41181L9.9663 2.80521C10.2264 3.0653 10.3597 3.20518 10.3597 3.2172C10.3597 3.23578 10.3258 3.30899 10.3062 3.33194C10.2996 3.33959 10.2788 3.3538 10.2592 3.36363C10.2253 3.38112 10.2198 3.38112 10.1849 3.3691C10.1641 3.36254 10.1259 3.34615 10.1007 3.33304C10.0756 3.31992 10.0483 3.30899 10.0417 3.30899C10.0352 3.30899 10.022 3.30244 10.0122 3.29588C10.0024 3.28823 9.98816 3.28277 9.98051 3.28277C9.97286 3.28277 9.95538 3.2773 9.94336 3.27075C9.93024 3.26419 9.89746 3.25326 9.87123 3.2467C9.845 3.24015 9.81878 3.2325 9.81331 3.22813C9.79255 3.21174 9.57946 3.20081 9.4658 3.21064C9.40461 3.21611 9.34888 3.22376 9.3445 3.22703C9.33904 3.23141 9.315 3.23905 9.28986 3.24452C9.21665 3.262 9.0866 3.32429 9.00137 3.3833C8.9817 3.39642 8.96312 3.40844 8.96093 3.40844C8.95656 3.41062 8.91285 3.3691 8.86258 3.31774ZM17.8989 1.20973C17.7962 1.10592 17.712 1.01849 17.712 1.01412C17.712 1.00975 17.9383 0.780263 18.2147 0.503785L18.7174 0.00109863H19.8004L20.2659 0.467723C20.6353 0.838181 20.7336 0.940904 20.738 0.963852C20.7413 0.980244 20.7478 0.995544 20.7522 0.997729C20.7631 1.00429 20.7631 1.04253 20.7522 1.0633C20.7478 1.07204 20.7391 1.09717 20.7325 1.11794C20.7172 1.1693 20.6112 1.28404 20.5533 1.31136C20.5107 1.33213 20.4353 1.3365 20.4145 1.31901C20.408 1.31464 20.3872 1.30481 20.3675 1.29934C20.3479 1.29278 20.2812 1.26328 20.2189 1.23377C20.1566 1.20318 20.0933 1.17367 20.0769 1.16711C20.0605 1.16056 20.0342 1.14963 20.0178 1.14198C20.0015 1.13433 19.972 1.12449 19.9501 1.11903C19.9293 1.11357 19.9097 1.10592 19.9075 1.10154C19.9053 1.09717 19.8856 1.09171 19.8649 1.08734C19.8441 1.08406 19.8146 1.07532 19.7993 1.06876C19.7742 1.05674 19.6944 1.03926 19.5818 1.01959C19.4671 0.998822 19.2649 0.991172 19.1305 1.0021C19.0562 1.00756 18.9775 1.01631 18.9556 1.02068C18.8606 1.03816 18.7775 1.05893 18.7524 1.06985C18.7371 1.07641 18.712 1.08515 18.6956 1.08843C18.6792 1.09171 18.6551 1.10045 18.6409 1.10701C18.6278 1.11357 18.6038 1.12231 18.5874 1.12559C18.571 1.12886 18.5579 1.13433 18.5579 1.13761C18.5579 1.14089 18.5415 1.14963 18.5218 1.15618C18.5021 1.16274 18.4857 1.17148 18.4857 1.17476C18.4857 1.17804 18.4726 1.1846 18.4562 1.18788C18.4398 1.19115 18.4071 1.20755 18.3819 1.22285C18.3568 1.23814 18.3262 1.25672 18.3142 1.26328C18.2661 1.28732 18.2333 1.30699 18.1896 1.33977C18.1645 1.35835 18.1393 1.37365 18.135 1.37365C18.1306 1.37365 18.1218 1.38021 18.1153 1.38676C18.1087 1.39441 18.1 1.39988 18.0934 1.39988C18.0869 1.39988 18.0016 1.31245 17.8989 1.20973Z" fill="black"/>
</g>
<defs>
<clipPath id="clip0_1782_2982">
<rect width="24" height="24" fill="white"/>
</clipPath>
</defs>
</svg>
