<svg width="20" height="20" viewBox="0 0 20 20" fill="none" xmlns="http://www.w3.org/2000/svg">
<g clip-path="url(#clip0_822_4907)">
<path d="M17.3434 2H6.15592e-05V4.66417H16.4776V4.66667C16.5905 4.66645 16.7024 4.68852 16.8067 4.7316C16.9111 4.77469 17.006 4.83796 17.0859 4.91777C17.1658 4.99759 17.2291 5.09238 17.2723 5.19672C17.3155 5.30107 17.3377 5.41291 17.3376 5.52583V14.4775L17.3342 14.4833C17.3323 14.7106 17.2406 14.9278 17.0792 15.0878C16.9178 15.2478 16.6998 15.3375 16.4726 15.3375H3.52506C3.05089 15.3375 2.66423 14.9542 2.66423 14.4767V10.86C2.66423 10.385 3.05089 10 3.52506 10H14.6667V7.33583H2.65673C2.30783 7.33551 1.96229 7.40397 1.63987 7.53731C1.31745 7.67065 1.02449 7.86625 0.777743 8.11293C0.530994 8.3596 0.335301 8.6525 0.201858 8.97487C0.0684155 9.29725 -0.000157686 9.64277 6.15592e-05 9.99167V15.3442C0.000282528 16.0486 0.280278 16.7241 0.778476 17.2222C1.27667 17.7202 1.95228 18 2.65673 18H17.3434C17.6923 18.0001 18.0378 17.9315 18.3602 17.798C18.6826 17.6645 18.9755 17.4688 19.2222 17.2221C19.4689 16.9754 19.6646 16.6825 19.7981 16.3601C19.9315 16.0378 20.0002 15.6922 20.0001 15.3433V4.65583C20.0002 4.30696 19.9315 3.96149 19.798 3.63917C19.6646 3.31684 19.4689 3.02399 19.2221 2.77734C18.9754 2.53069 18.6825 2.33508 18.3601 2.2017C18.0378 2.06832 17.6923 1.99978 17.3434 2Z" fill="white"/>
</g>
<defs>
<clipPath id="clip0_822_4907">
<rect width="20" height="20" fill="white"/>
</clipPath>
</defs>
</svg>
