<svg width="20" height="20" viewBox="0 0 20 20" fill="none" xmlns="http://www.w3.org/2000/svg">
<path d="M18.9112 12.9806C18.9112 12.0142 18.5125 11.4516 17.7754 11.4516C17.038 11.4516 16.6396 12.0142 16.6396 12.9806C16.6396 13.9528 17.0326 14.5097 17.7754 14.5097C18.5179 14.5097 18.9112 13.9528 18.9112 12.9806ZM19.8068 12.9806C19.8068 14.1711 18.9604 15.0066 17.7754 15.0066C16.5958 15.0066 15.7441 14.1711 15.7441 12.9806C15.7441 11.7956 16.6012 10.9547 17.7754 10.9547C18.9547 10.9547 19.8068 11.7956 19.8068 12.9806ZM13.6686 13.1553C13.6686 13.2644 13.6851 13.3355 13.7286 13.4229H14.3786V14.3893C14.1657 14.477 13.9526 14.5151 13.7343 14.5151C12.9477 14.5151 12.5382 13.9528 12.5382 12.9806C12.5382 12.0085 12.9477 11.4461 13.6905 11.4461C14.1874 11.4461 14.4768 11.692 14.6461 12.1178L14.7062 12.2706H15.0995V11.2933C14.608 11.0586 14.1657 10.9547 13.6523 10.9547C12.4508 10.9547 11.6429 11.7575 11.6429 12.986C11.6429 14.2203 12.4292 15.0066 13.6523 15.0066C14.1381 15.0066 14.6407 14.87 15.1811 14.6025V12.8987H13.7286C13.6851 12.986 13.6686 13.0518 13.6686 13.1553ZM10.3483 12.1616C10.3483 11.7629 10.1024 11.55 9.61093 11.55H8.96663V12.7786H9.61093C10.097 12.7786 10.3483 12.5546 10.3483 12.1616ZM6.0724 13.2755L5.53709 11.8283L5.00208 13.2755H6.0724ZM11.4075 14.4659C11.4405 14.5259 11.4568 14.597 11.4568 14.6899C11.4568 14.7826 11.4405 14.8538 11.4075 14.9138C11.2874 14.93 11.1346 14.9408 10.9818 14.9408C10.4522 14.9408 10.1955 14.7226 10.1351 14.2146L10.1135 14.0236C10.0481 13.4721 9.86763 13.2592 9.26717 13.2592H8.96663V14.4223H9.48543V14.8973H6.05049V14.4223H6.49843L6.24714 13.7396H4.82735L4.57605 14.4223H5.03481V14.8973H3.58769V14.4223H3.96988L5.30772 11.0748H6.03397L7.39943 14.4223H8.15301V11.55H7.68885V11.0748H9.88414C10.665 11.0748 11.1727 11.4626 11.1727 12.085C11.1727 12.702 10.665 13.0299 10.1736 13.0518V13.068C10.6704 13.1061 10.8725 13.3847 10.9217 13.8162L10.9434 14.0182C10.9761 14.335 11.0418 14.477 11.2928 14.477C11.3367 14.477 11.3748 14.4713 11.4075 14.4659ZM3.0851 11.55C3.45079 11.55 3.57658 11.7082 3.69667 12.167L3.7348 12.3144H4.12811V11.0748H0.835471V11.55H1.29963V14.4223H0.835471V14.8973H2.65908V14.4223H2.11296V13.3082H3.23792C3.28175 13.2154 3.29797 13.1446 3.29797 13.0353C3.29797 12.9314 3.28175 12.8659 3.23792 12.7732H2.11296V11.55H3.0851ZM19.6759 8.03822C19.6759 7.43746 19.3099 7.02255 18.6218 6.86432L17.9282 6.7058C17.5241 6.61303 17.3551 6.45451 17.3551 6.1873C17.3551 5.86485 17.6118 5.66279 18.1141 5.66279C18.6164 5.66279 18.9112 5.84323 19.0259 6.26896L19.0751 6.45451H19.4681V5.50998C19.0259 5.28598 18.5563 5.17162 18.0811 5.17162C17.1473 5.17162 16.5469 5.61926 16.5469 6.33982C16.5469 6.89705 16.896 7.30656 17.568 7.45397L18.2615 7.6068C18.7037 7.70528 18.8677 7.88 18.8677 8.16942C18.8677 8.5243 18.5999 8.72096 18.0648 8.72096C17.4587 8.72096 17.1473 8.48047 17.011 8.02202L16.9399 7.78693H16.5469V8.85755C17.0438 9.10314 17.5187 9.21241 18.1576 9.21241C19.0751 9.21241 19.6759 8.75367 19.6759 8.03822ZM16.1806 7.79804H15.7876L15.7438 7.98929C15.6345 8.47507 15.4817 8.62789 15.1214 8.62789H14.3624V5.75585H14.8812V5.2806H13.0843V5.75585H13.5488V8.62789H13.0843V9.10314H16.1806V7.79804ZM12.7402 7.79804H12.3469L12.3034 7.98929C12.1941 8.47507 12.0413 8.62789 11.681 8.62789H10.9217V5.75585H11.4405V5.2806H9.64396V5.75585H10.1081V8.62789H9.64396V9.10314H12.7402V7.79804ZM1.62718 9.10314L0.665841 5.75585H0.229004V5.2806H2.00938V5.75585H1.49598L2.13487 8.06014L2.89926 5.2806H3.68587L4.46647 8.06554L5.09455 5.75585H4.55954V5.2806H9.19061V6.52026H8.7973L8.75917 6.37284C8.63878 5.91408 8.51328 5.75585 8.1476 5.75585H7.24121V6.90786H8.33885C8.38238 7.00063 8.3986 7.06638 8.3986 7.16996C8.3986 7.27924 8.38238 7.35006 8.33885 7.44316H7.24121V8.62789H8.18573C8.5406 8.62789 8.69913 8.47507 8.80841 7.98929L8.85194 7.79804H9.24525V9.10314H5.96342V8.62789H6.42758V5.75585H5.6734L4.71776 9.10314H3.95878L3.18328 6.32932L2.38617 9.10314H1.62718Z" fill="white"/>
</svg>
