<svg width="20" height="20" viewBox="0 0 20 20" fill="none" xmlns="http://www.w3.org/2000/svg">
<g clip-path="url(#clip0_822_4836)">
<path d="M17.4701 5.74519C17.5609 6.41549 18.5721 7.3206 18.8523 7.29788C19.0379 7.28276 19.1061 6.42309 19.1061 5.74519C19.1061 5.35885 19.1288 5.05216 18.9243 4.98392C18.5986 5.6391 17.7465 5.77163 17.4701 5.74519ZM17.5268 5.44594C18.2615 5.44594 18.9318 4.859 18.9318 4.34394C18.9318 4.10533 18.8182 3.90456 18.5304 3.87052C18.5797 3.93488 18.6024 3.9804 18.6024 4.09773C18.6024 4.48786 18.0116 4.91576 17.3678 4.91576C17.133 4.91576 17.0648 5.0786 17.0648 5.16197C17.061 5.36645 17.2504 5.44594 17.5268 5.44594ZM17.3715 4.65071C17.2731 4.65071 17.133 4.65071 17.0534 4.49538C17.0269 4.44622 17.0156 4.38558 17.0042 4.32122C16.9853 4.22273 16.9663 4.12425 16.8906 4.07129C17.0117 4.10913 17.133 4.10913 17.2352 4.10913C17.5534 4.10913 17.8563 3.88944 18.0911 3.88944C18.2464 3.88944 18.2918 3.98793 18.2918 4.08641C18.2994 4.39698 17.667 4.65071 17.3791 4.65071H17.3715ZM1.58688 10.1837C1.82548 10.1837 1.77624 8.71433 2.16638 8.71433C2.25726 8.71433 2.2837 8.80514 2.2837 8.92254C2.2837 9.25583 2.12085 9.74057 2.12085 10.0095C2.12085 10.1458 2.15878 10.1913 2.21934 10.1875C2.38978 10.1875 2.68516 8.57033 2.97301 8.57033C3.06389 8.57033 3.10933 8.66129 3.10933 8.7559C3.10933 9.09299 2.67756 10.0701 2.67756 10.3427C2.67756 10.3882 2.69656 10.4223 2.72308 10.4223C2.90104 10.4223 3.25326 9.66109 3.36686 9.27855C3.43122 9.08159 3.51458 8.97558 3.59407 8.97558C3.66603 8.97558 3.73039 9.05515 3.73039 9.21799C3.73039 9.60045 3.37818 10.4942 3.06769 11.0964C2.82908 11.5622 2.45415 12.2325 2.45415 12.6074C2.45415 12.7968 2.49199 12.9975 2.76092 13.2323C2.31022 13.2058 2.12465 13.1603 1.95801 12.8081C1.20434 14.3079 3.35174 14.1639 2.61699 15.497C2.48447 15.2584 1.42403 15.0123 1.42403 13.6148C1.42403 12.4067 2.48067 11.7023 2.48067 11.2024C2.48067 11.104 2.44663 11.0206 2.35566 10.9411C2.12085 10.7442 2.11713 10.5813 1.93149 10.5813C1.79896 10.5813 1.6362 10.8919 1.80276 11.1683C1.8596 11.2592 1.91257 11.3123 1.91257 11.4032C1.91257 11.6 1.60208 12.1303 1.38239 12.1265C1.16278 12.1265 0.996055 11.5849 0.996055 10.7101C0.996055 9.93374 1.1741 9.14975 1.38999 9.14975C1.45435 9.14975 1.46947 9.19527 1.46947 9.24823C1.46947 9.33912 1.44295 9.52468 1.44295 9.83525C1.44675 10.1647 1.51871 10.1913 1.58688 10.1837ZM3.38578 12.2515C3.68115 12.2515 3.92728 12.0318 3.92728 11.5471V10.8275C3.92728 10.551 3.95008 10.2405 4.13185 10.0246C4.10913 10.1155 4.10913 10.214 4.10913 10.3049C4.10913 10.9108 4.44242 11.3274 4.44242 11.9143C4.44242 12.134 4.37798 12.2514 4.21141 12.2476C4.04856 12.2476 4.06368 12.1 4.02584 12.1C3.99932 12.1 3.9538 12.1909 3.9538 12.2893C3.9538 12.4332 4.06368 12.668 4.35153 12.6718C4.60526 12.6718 4.80975 12.4408 4.80975 12.1795C4.80975 11.5433 4.31741 10.8389 4.31741 10.1609C4.31741 9.86558 4.39698 9.66861 4.45754 9.51336C4.45754 10.9146 5.6505 11.9371 5.6505 12.5241C5.6505 12.6567 5.55202 12.7627 5.40429 12.7627C5.24145 12.7627 5.16576 12.634 5.16576 12.5355C5.16576 12.4862 5.15816 12.4711 5.13924 12.4711C5.0976 12.4711 4.9688 12.6112 4.9688 12.7968C4.9688 13.0316 5.15816 13.3119 5.5103 13.3119C5.91183 13.3119 6.13144 12.971 6.13144 12.668C6.13144 11.9257 4.68475 10.8047 4.68475 9.60425C4.68475 9.39976 4.71879 9.06647 4.86651 8.81274C3.93488 9.41108 3.64711 10.2102 3.64711 10.9108C3.64711 11.5168 3.62439 11.8196 3.31382 11.8196C3.15097 11.8196 3.10933 11.672 3.05257 11.672C3.01085 11.672 2.98813 11.8008 2.98813 11.8348C2.99573 12.1 3.18129 12.2439 3.37446 12.2439H3.38578V12.2515ZM16.2014 4.17341C16.065 4.17341 15.8415 4.32114 15.6636 4.32114C15.4401 4.31734 15.5045 4.03709 15.2583 4.03709C15.2053 4.03709 15.1409 4.05221 15.0766 4.08633C14.5653 4.34386 14.1676 4.24545 14.0767 4.30602C14.054 4.31734 14.0351 4.33626 14.0275 4.3779C14.0275 4.90816 14.5918 5.72611 15.531 5.72611C16.1748 5.72611 16.7164 5.5065 16.7164 5.14669C16.7164 4.8324 16.4134 4.17341 16.2014 4.17341ZM15.6143 5.20353C15.0955 5.20353 14.7546 4.92328 14.7585 4.73771C14.7585 4.71499 14.7736 4.69987 14.8001 4.69987C14.8834 4.69987 15.1107 4.81348 15.4061 4.86272C15.7507 4.91948 15.9362 4.92708 16.0271 4.92708C16.118 4.92708 16.1596 4.9498 16.1596 4.97632C16.1596 5.0634 15.9249 5.20353 15.6143 5.20353ZM3.53343 14.9138C3.30242 14.9706 2.92748 15.338 2.92748 15.9174C2.92748 16.6066 3.66975 17.6709 4.88923 17.6709C5.91927 17.6709 6.173 16.9588 6.173 16.4778C6.173 15.4137 5.51782 14.6639 4.66195 14.6639C4.19613 14.6639 3.77956 15.0047 3.77956 15.5046C3.77956 15.9742 4.13177 16.671 4.97252 16.671C5.36637 16.671 5.6011 16.387 5.6011 16.0651C5.6011 15.7469 5.31333 15.3115 4.88916 15.3115C4.76043 15.3115 4.66955 15.3947 4.66955 15.5311C4.66955 15.7015 4.90436 15.8643 5.19601 15.8681C5.26789 15.8681 5.32473 15.853 5.35117 15.8416C5.36637 15.8606 5.37017 15.8947 5.37017 15.925C5.37017 16.0878 5.21485 16.1862 4.97632 16.1862C4.61651 16.1862 4.27189 15.9174 4.27189 15.4932C4.27189 15.2395 4.49158 15.0577 4.80967 15.0577C5.43826 15.0577 5.81327 15.6182 5.81327 16.1711C5.81327 16.6711 5.53682 16.9626 4.97252 16.9588C3.8364 16.9626 3.29102 15.9401 3.53343 14.9138ZM12.2855 17.1596C12.2134 17.0232 12.2703 16.7884 12.0583 16.7884C11.9143 16.7884 11.9029 16.9021 11.8878 16.993C11.581 16.9059 11.3273 16.8603 11.1001 16.8603C10.9373 16.8603 10.7971 16.8831 10.6759 16.9248C10.5964 16.7809 10.2479 16.5082 9.94498 16.4097C9.82757 17.0459 9.25575 17.5458 8.4074 17.6178C8.35824 18.0344 8.03247 18.1404 7.77882 18.1404C7.59697 18.1442 7.3054 18.0798 7.2902 18.0079C7.1918 17.4095 6.7373 17.0724 6.54041 16.993C6.54793 17.0573 6.55546 17.1255 6.55546 17.1898C6.55546 17.6973 6.20712 18.0155 5.55954 18.0155C5.46106 18.0155 5.32473 18.0079 5.22625 17.9889C5.96851 18.8145 6.49869 18.5115 6.84338 18.6668C7.294 18.8713 7.66133 19.5 9.10803 19.5C9.63448 19.5 10.1723 19.2955 10.5244 19.0683C10.5888 19.2803 10.8084 19.4697 11.1683 19.4697C11.7818 19.4697 12.1264 19.2803 12.1264 19.1251C12.1264 19.0834 12.1226 19.019 12.0165 19.019C11.9104 19.019 11.9256 19.0456 11.5886 19.0456C11.1985 19.0418 10.5623 18.8903 10.2631 18.2086C10.2101 18.0949 10.1268 18.095 10.1003 18.095C9.90333 18.095 9.60036 18.7956 8.35816 18.7956C7.83938 18.7994 7.59697 18.6024 7.59697 18.557C7.59697 18.5494 7.59697 18.5418 7.62349 18.5418C7.67273 18.5418 7.8659 18.5646 8.10443 18.5646C8.88842 18.5646 9.52088 18.2048 9.90333 17.7883C10.0359 17.6405 10.1003 17.6178 10.2139 17.6178C10.3124 17.6178 10.4184 17.7049 10.4676 17.8374C10.6418 18.2881 11.0433 18.6479 11.4826 18.6479C12.0771 18.6479 12.0847 17.633 12.2248 17.5837C12.2516 17.5931 12.2798 17.5982 12.3082 17.5989C12.3801 17.5989 12.4937 17.5459 12.4937 17.4133C12.4937 17.2694 12.3196 17.2315 12.2855 17.1596ZM11.3236 17.9208C11.1683 17.917 11.0433 17.792 11.0433 17.6367C11.0433 17.4776 11.1683 17.3527 11.3236 17.3527C11.4788 17.3527 11.6076 17.4815 11.6076 17.6367C11.6076 17.6741 11.6003 17.711 11.586 17.7455C11.5718 17.78 11.5509 17.8113 11.5245 17.8377C11.4981 17.8641 11.4668 17.885 11.4323 17.8993C11.3978 17.9135 11.3609 17.9208 11.3236 17.9208ZM16.4096 13.8193C15.3719 13.8193 15.6409 14.7281 14.4289 15.0047C14.2055 15.0539 14.1411 15.1258 14.1411 15.2244C14.1411 15.4099 14.2434 15.6485 14.3721 15.6485C14.8986 15.6485 15.7203 14.554 15.8681 14.554V14.5469C15.9301 14.5505 15.9929 14.5561 15.9892 14.7017C15.9892 15.0994 14.8456 15.6182 14.8456 15.9023C14.8456 16.0726 15.2507 16.4325 15.6447 16.4325C16.2165 16.4363 16.7277 15.266 16.8489 15.266C16.9436 15.266 16.9777 15.3341 16.9777 15.4061C16.9777 15.7242 16.5913 16.3453 15.9135 16.6142C15.7734 16.671 15.7507 16.7353 15.7507 16.7847C15.7507 16.9399 15.9286 17.1709 16.0915 17.1709C16.2884 17.1709 17.6139 16.0159 17.6139 15.0842C17.6139 14.2094 16.9815 13.8193 16.4096 13.8193ZM16.8868 14.8229C16.8141 14.8221 16.7427 14.8039 16.6786 14.7699C16.5876 14.7282 16.4248 14.5919 16.4248 14.3835C16.4248 14.1943 16.5309 14.1147 16.6293 14.1147C16.9322 14.1147 17.2504 14.3836 17.2541 14.5957C17.2541 14.7661 17.0913 14.8229 16.8868 14.8229ZM3.45006 5.94208C3.45006 6.0974 3.57507 6.22232 3.73031 6.22612C3.88564 6.22612 4.01056 6.0974 4.01056 5.94208C4.01056 5.78683 3.88184 5.66183 3.73031 5.66183C3.57887 5.66563 3.44626 5.79063 3.44626 5.94208H3.45006ZM3.08273 5.30961C3.08273 5.46494 3.20773 5.58986 3.36298 5.58986C3.51823 5.58986 3.64703 5.46114 3.64703 5.30589C3.64703 5.15057 3.51823 5.02184 3.36298 5.02184C3.20773 5.02184 3.08273 5.15817 3.08273 5.30961ZM2.829 7.23732C2.66615 7.27896 2.32906 7.47585 2.32906 7.82806C2.32906 8.08179 2.52983 8.24464 2.77216 8.24464C2.90096 8.24464 2.99185 8.2182 3.04869 8.17268C2.85172 7.98339 2.77976 7.7713 2.77976 7.55913C2.77976 7.41901 2.80248 7.3282 2.829 7.23732ZM1.09826 7.33952C1.09074 7.37357 1.09074 7.41157 1.09074 7.44561C1.09074 7.7789 1.2611 7.96067 1.49591 7.96067C1.67008 7.96067 1.87845 7.85458 2.06021 7.62358C1.98445 7.6387 1.88977 7.6463 1.80648 7.6463C1.55275 7.6463 1.26498 7.57433 1.09826 7.33952ZM0.852051 7.97207C0.852051 8.50597 1.01498 8.75978 1.30283 8.7635C1.53003 8.7635 1.833 8.60065 2.19274 8.29008C1.91629 8.35452 1.70428 8.39616 1.51483 8.39996C1.2611 8.39608 1.06786 8.29776 0.852051 7.97207ZM2.68128 5.14677C2.71532 5.03316 2.74572 4.89304 2.74572 4.73779C2.74572 4.4007 2.59039 3.88572 2.10945 3.88572C1.833 3.88572 1.63604 4.10533 1.63604 4.36666C1.63604 4.92716 2.19654 5.15057 2.68128 5.14677ZM3.03729 5.85879C2.94641 5.73767 2.98045 5.62778 2.92368 5.57094C2.88964 5.5369 2.79116 5.5369 2.66243 5.5217C2.61079 5.51692 2.55897 5.51441 2.50711 5.51418C2.2761 5.51418 1.99965 5.54442 1.68908 5.74139C1.07934 6.12772 1.16642 6.77902 1.07174 6.93815C1.06042 6.96087 1.04902 6.98731 1.04902 7.01763C1.04902 7.082 1.12106 7.15396 1.18542 7.15016C1.24218 7.15016 1.2763 7.13504 1.30655 7.13504C1.47699 7.13504 1.67016 7.25244 1.93909 7.25616C2.10185 7.25616 2.29122 7.207 2.52983 7.0858C3.03729 6.83207 3.23426 6.2034 3.23426 6.0974C3.23426 5.9648 3.12817 5.98 3.03729 5.85879ZM2.07913 6.92675C1.84813 6.92675 1.5944 6.6389 1.5944 6.37765C1.5944 6.23752 1.70048 6.05948 1.77616 6.05948C1.80268 6.05948 1.8216 6.07848 1.8216 6.13152C1.86325 6.47605 2.09433 6.67302 2.30262 6.77523C2.32534 6.79423 2.34046 6.79423 2.34046 6.80935C2.34046 6.85099 2.20786 6.92295 2.07913 6.92675ZM2.74192 6.49125C2.49571 6.49125 2.29882 6.11632 2.29882 5.90423C2.29882 5.77171 2.37831 5.75651 2.48059 5.75651C2.52983 5.75651 2.55255 5.76411 2.59039 5.78303C2.65103 5.81707 2.65103 5.95347 2.73052 6.06328C2.77976 6.12764 2.91228 6.2072 2.91228 6.26397C2.91228 6.36245 2.85552 6.49125 2.74192 6.49125ZM3.41602 6.6579C3.2607 6.83967 3.09785 7.15016 3.09785 7.47213C3.09785 7.85078 3.33266 8.16895 3.69627 8.16895C4.04088 8.16895 4.20373 7.8735 4.20373 7.57053C4.19993 7.0934 3.77196 6.7601 3.41602 6.6579ZM1.90497 5.30209C1.90497 5.30209 1.7004 5.45734 1.44667 5.45734C1.1437 5.45734 0.905172 5.23013 0.905172 4.91584C0.905172 4.69615 1.01878 4.47266 1.28003 4.35906C1.27251 4.4007 1.2725 4.43482 1.2725 4.48026C1.2687 4.87792 1.49211 5.18477 1.90497 5.30209ZM14.3456 7.64242C14.3456 7.80526 14.4819 7.94167 14.6449 7.93787C14.8076 7.93787 14.9402 7.80526 14.9402 7.64242C14.9402 7.47957 14.8076 7.34705 14.6449 7.34705C14.4782 7.34705 14.3456 7.48337 14.3456 7.64242ZM14.3646 8.53241C14.3646 8.71418 14.5085 8.8657 14.6979 8.8657C14.7862 8.86555 14.8709 8.83039 14.9334 8.76791C14.9958 8.70544 15.031 8.62075 15.0311 8.53241C15.031 8.44405 14.9958 8.35935 14.9334 8.29687C14.8709 8.2344 14.7862 8.19924 14.6978 8.19912C14.5161 8.20672 14.3646 8.35064 14.3646 8.53241ZM13.3497 9.13455C13.3497 9.4072 13.5655 9.62309 13.8382 9.62309C14.1071 9.62309 14.3267 9.40348 14.3267 9.13463C14.3267 8.86578 14.1071 8.64601 13.8382 8.64601C13.5693 8.64981 13.3497 8.8657 13.3497 9.13455ZM13.6109 8.13475C13.6109 8.29 13.736 8.415 13.8912 8.4188C14.0464 8.4188 14.1752 8.29 14.1752 8.13475C14.1752 7.97951 14.0464 7.8507 13.8912 7.8507C13.7397 7.8507 13.6147 7.97951 13.6147 8.13855L13.6109 8.13475ZM12.6869 8.70285C12.6869 8.8581 12.8118 8.9831 12.9672 8.9831C13.1225 8.9831 13.2511 8.8581 13.2511 8.70285C13.2511 8.54761 13.1224 8.4226 12.9672 8.4226C12.8156 8.4226 12.6906 8.55133 12.6869 8.70285ZM13.414 7.04787C13.414 7.2902 13.6223 7.49849 13.8647 7.49849C14.1071 7.49849 14.3154 7.294 14.3154 7.04787C14.3154 6.80175 14.1108 6.59718 13.8647 6.59718C13.6185 6.59718 13.414 6.80547 13.414 7.04787ZM13.9404 6.1844C13.9404 6.32833 14.0578 6.45705 14.2131 6.45325C14.2843 6.45298 14.3526 6.42457 14.4029 6.37422C14.4533 6.32386 14.4817 6.25563 14.482 6.1844C14.4817 6.11316 14.4533 6.04492 14.403 5.99454C14.3526 5.94417 14.2843 5.91575 14.2131 5.91548C14.0616 5.91928 13.9366 6.03668 13.9404 6.1844ZM12.6642 6.86231C12.6642 7.00623 12.7816 7.13496 12.9254 7.13116C12.9967 7.13089 13.0649 7.10248 13.1153 7.05212C13.1657 7.00176 13.1941 6.93354 13.1944 6.86231C13.1941 6.79107 13.1657 6.72282 13.1153 6.67245C13.0649 6.62207 12.9967 6.59365 12.9254 6.59338C12.7853 6.59718 12.6642 6.71458 12.6642 6.86231ZM12.6301 7.78254C12.6301 8.02495 12.8194 8.21812 13.0542 8.21432C13.111 8.21466 13.1673 8.20373 13.2199 8.18216C13.2724 8.16058 13.3201 8.12879 13.3603 8.08862C13.4005 8.04846 13.4322 8.00072 13.4538 7.94818C13.4754 7.89564 13.4863 7.83934 13.4859 7.78254C13.4863 7.72575 13.4754 7.66946 13.4538 7.61693C13.4322 7.5644 13.4004 7.51667 13.3603 7.47651C13.3201 7.43636 13.2724 7.40457 13.2199 7.383C13.1673 7.36143 13.111 7.3505 13.0542 7.35085C12.8194 7.34705 12.6263 7.53641 12.6301 7.78254ZM11.7401 8.22944C11.7401 8.44533 11.9218 8.62709 12.1377 8.63081C12.3574 8.63081 12.5391 8.44913 12.5391 8.22944C12.5391 8.00975 12.3536 7.82806 12.1377 7.82806C11.9256 7.82806 11.7401 8.00603 11.7401 8.22944ZM11.9787 7.23344C11.9787 7.38869 12.1037 7.51369 12.2589 7.51369C12.4142 7.51369 12.543 7.38489 12.543 7.22964C12.543 7.0744 12.4142 6.94559 12.2589 6.94559C12.1074 6.94179 11.9825 7.0706 11.9825 7.22964H11.9787V7.23344ZM14.4592 9.411C14.4592 9.27087 14.588 9.14975 14.7244 9.14975C14.8796 9.14975 14.997 9.26707 14.997 9.411C14.997 9.57385 14.8759 9.68745 14.7205 9.68373C14.6853 9.68363 14.6504 9.67642 14.618 9.66253C14.5856 9.64865 14.5563 9.62837 14.5319 9.60291C14.5076 9.57745 14.4885 9.54733 14.4761 9.51435C14.4636 9.48138 14.4578 9.44623 14.4592 9.411ZM14.6978 16.8262C14.7547 16.777 14.7699 16.6974 14.7699 16.6217V16.4589C14.7699 16.2543 14.4592 16.1332 14.0351 16.1332C13.5201 16.1332 13.2436 16.3642 13.2436 16.4626V16.7883C13.2436 16.9247 13.5504 17.061 13.9404 17.061C14.2396 17.061 14.5161 16.9815 14.6978 16.8262ZM15.065 16.9021C14.8832 17.0423 14.4515 17.3602 13.7398 17.364C13.3572 17.364 13.1906 17.2428 13.1337 17.2428C13.0618 17.2428 12.9861 17.3148 12.9065 17.4056C12.7399 17.6025 12.5202 17.9699 12.5202 18.3751C12.5202 18.6554 12.7361 18.9356 13.1451 18.9394C14.4668 18.9394 15.4515 18.1139 15.4515 17.4435C15.4552 17.0638 15.2276 16.9007 15.065 16.9021ZM14.3987 18.1972C14.2207 18.3183 13.9821 18.4168 13.6299 18.4206C13.6867 18.2502 13.7284 18.076 13.7284 17.9055C13.7284 17.8487 13.7208 17.8071 13.7132 17.7427H13.8041C14.357 17.7389 14.5993 17.5193 14.6411 17.5231C14.6751 17.5231 14.7205 17.542 14.7205 17.6708C14.7205 17.8259 14.6486 18.0305 14.3987 18.1972ZM15.3114 10.9675C15.3114 11.1379 15.3644 11.3462 15.5462 11.35C15.6938 11.35 15.8226 11.1228 15.8226 10.8766C15.8226 10.5926 15.7734 10.3768 15.7734 10.2631C15.7734 10.2139 15.7961 10.1912 15.8226 10.1912C15.9287 10.1987 16.0309 10.4904 16.1407 10.4904C16.2695 10.4904 16.4589 10.2556 16.5346 10.2556C16.5573 10.2556 16.5611 10.2821 16.5611 10.2896C16.5611 10.3957 16.3982 10.6305 16.3982 10.7252C16.3982 10.8047 16.8035 10.8161 16.8035 10.888C16.8035 10.9941 16.3755 10.9941 16.171 11.0849C15.9741 11.1683 15.8529 11.2743 15.8529 11.4182C15.8529 11.5621 15.9968 11.5886 16.1976 11.5886C16.671 11.5886 17.0004 11.3349 17.1064 11.3349C17.1292 11.3349 17.1444 11.3538 17.1444 11.369C17.1444 11.441 16.9057 11.6719 16.9057 11.7742C16.9057 11.8916 17.3413 12.0355 17.3413 12.1075C17.3337 12.1301 17.3072 12.1339 17.2579 12.1339C17.1784 12.1339 17.061 12.1112 16.9663 12.1112C16.9095 12.1112 16.8603 12.1188 16.8375 12.1453C16.7883 12.1983 16.8565 12.577 16.7543 12.577C16.6634 12.577 16.421 11.7439 15.8795 11.7439C15.7999 11.7439 15.7469 11.8082 15.7469 11.9143C15.7469 12.1946 16.0195 12.5203 16.2808 12.6755C16.3982 12.7551 16.599 12.8308 16.599 12.8762C16.599 12.9596 16.1483 12.8838 16.1483 13.0239C16.1483 13.1489 16.2014 13.342 16.2014 13.4557C16.2014 13.4897 16.1938 13.5314 16.1521 13.5352C16.0688 13.5352 15.8605 13.1489 15.7621 13.1489C15.6787 13.1489 15.4931 13.3799 15.4174 13.3799C15.3985 13.3799 15.3833 13.3572 15.3833 13.3383C15.3833 13.1755 15.6446 12.808 15.6446 12.4483C15.6446 12.2779 15.6219 11.9105 15.4174 11.9105C15.247 11.9105 15.0576 12.1794 14.9743 12.4445C14.925 12.5998 14.9592 13.1982 14.8456 13.1982C14.7395 13.1982 14.766 12.7967 14.6259 12.7967C14.5198 12.7967 14.2964 12.9861 14.2169 12.9861C14.2018 12.9861 14.1904 12.9785 14.1904 12.9634C14.1904 12.88 14.3949 12.6036 14.3949 12.5468C14.3949 12.4407 13.929 12.4256 13.929 12.3422C13.929 12.293 14.1108 12.2589 14.2813 12.2286C14.6411 12.1643 15.1712 11.9029 15.1712 11.5356C15.1712 11.1266 14.7774 10.9486 14.5161 10.7819C14.3835 10.6986 14.232 10.6267 14.232 10.5698C14.232 10.5131 14.4025 10.5131 14.4706 10.5131C14.5767 10.5131 14.6827 10.5055 14.6827 10.4222C14.6827 10.3578 14.6676 10.2328 14.6676 10.1343C14.6676 10.0624 14.6751 10.0056 14.7016 10.0056C14.8077 10.0056 14.9554 10.3502 15.0273 10.3502C15.1409 10.3502 15.2962 10.0662 15.4023 10.0662C15.4363 10.0662 15.4477 10.0852 15.4477 10.1495C15.4439 10.4146 15.3114 10.7138 15.3114 10.9675ZM11.9446 8.90362C12.0241 9.50188 12.8308 9.20271 12.8308 9.92606C12.8308 10.0321 12.8043 10.1874 12.8043 10.3199C12.8043 10.4752 12.8232 10.6078 12.9406 10.6078C13.0618 10.6078 13.0883 10.5244 13.0883 10.4108C13.0883 10.2972 13.0618 10.1571 13.0618 10.0775C13.0618 9.83138 13.2398 9.77461 13.3458 9.77461C13.6147 9.77461 13.8154 10.0473 14.2245 10.0511C14.1335 10.5017 13.2019 10.3844 13.2019 10.8766C13.2019 11.119 13.4443 11.1834 13.6072 11.1834C13.7549 11.1834 13.8041 11.1607 13.8041 11.0357C13.8041 10.9637 13.7889 10.888 13.7889 10.8388C13.7889 10.8123 13.8116 10.7819 13.8458 10.7819C14.001 10.7819 14.7585 11.3614 14.7585 11.5356C14.7585 11.6984 13.9556 11.8613 13.7208 11.8613C13.6488 11.8613 13.6375 11.812 13.6375 11.7855C13.6375 11.7363 13.7586 11.5886 13.7586 11.5016C13.7586 11.4371 13.6526 11.3955 13.3685 11.3955C13.236 11.3955 13.1337 11.4106 13.1337 11.5166C13.1337 11.706 13.4405 11.9409 13.4405 12.1151C13.4405 12.2552 13.3572 12.3423 13.13 12.3423C12.9406 12.3423 12.6528 12.1946 12.6528 11.9484C12.6528 11.7515 12.8573 11.5545 12.8573 11.4333C12.8573 11.3993 12.8308 11.3424 12.7475 11.3424C12.4862 11.3424 12.4142 12.0355 11.4902 12.1112C11.6379 11.9787 11.7666 11.8272 11.7666 11.5243C11.7666 11.3765 11.7326 11.2553 11.7326 11.0925C11.7326 10.8804 11.831 10.7744 11.9711 10.7744C12.2324 10.7744 12.3612 11.1455 12.5316 11.1455C12.6225 11.1455 12.721 11.0622 12.721 10.9334C12.721 10.3957 11.6908 10.4752 11.6908 9.72157C11.6833 9.50948 11.759 9.25583 11.9446 8.90362ZM14.3154 13.3004C14.3646 13.3799 14.3873 13.4557 14.3873 13.5276C14.3873 13.7246 14.2547 13.9101 14.2547 14.1146C14.2547 14.3494 14.4365 14.5388 14.6978 14.5388C14.9857 14.5388 15.1864 14.3078 15.1864 14.0313C15.1826 13.6526 14.8418 13.3345 14.3154 13.3004ZM11.9787 13.7511C12.0507 13.823 12.0696 13.895 12.0696 13.9632C12.0696 14.0692 12.0203 14.1828 12.0203 14.3002C12.0203 14.4706 12.1453 14.6183 12.3271 14.6183C12.5241 14.6183 12.6604 14.463 12.6604 14.2813C12.6642 14.0162 12.3915 13.7511 11.9825 13.7511H11.9787ZM12.1491 12.9179C12.4748 12.9634 12.5543 13.0732 12.5543 13.1641C12.5543 13.3193 12.4142 13.3685 12.2779 13.3685C12.1794 13.3685 12.0658 13.3458 11.9446 13.3458C11.7894 13.3458 11.6341 13.3799 11.5053 13.5276C11.5962 13.5466 11.7325 13.6072 11.7325 13.7473C11.7325 14.1563 10.5964 13.8192 10.5964 14.8683C10.5964 15.4288 11.1758 16.0347 12.0545 16.0309C12.5051 16.0309 12.7967 15.8832 12.7967 15.7128C12.7967 15.5802 12.5581 15.6711 12.5581 15.5575C12.5581 15.5083 12.6415 15.4174 12.6415 15.3379C12.6415 15.3039 12.615 15.2394 12.5581 15.2394C12.4294 15.2394 12.1908 15.4439 11.7022 15.4477C11.3197 15.4477 10.9486 15.228 10.9486 14.9326C10.9486 14.8683 10.9751 14.8342 11.0206 14.8342C11.0622 14.8342 11.119 14.8607 11.1645 14.8607C11.2061 14.8607 11.2137 14.8342 11.2137 14.7546C11.2137 14.675 11.2137 14.4593 11.3462 14.4593C11.4788 14.4593 11.7363 14.9554 12.7134 14.9554C13.0353 14.9554 13.664 14.891 13.8988 14.6789C13.8912 15.4553 13.2853 16.4778 12.0128 16.4778C10.6948 16.4778 9.9867 15.4174 9.9867 14.4441C9.9867 13.3648 10.8691 12.3839 12.0772 12.3839C12.3877 12.3839 12.6452 12.4938 12.6452 12.6225C12.6452 12.8194 12.1832 12.702 12.1491 12.9179ZM12.9178 12.5468C13.0163 12.6642 13.0504 12.793 13.0466 12.9065C13.0466 13.2095 12.8156 13.5201 12.8156 13.8154C12.8156 14.2131 13.0769 14.4592 13.4367 14.4592C13.8306 14.4592 14.0578 14.1259 14.0578 13.7662C14.0578 13.2436 13.6602 12.6906 12.9178 12.5468ZM13.4557 13.664C13.3572 13.6564 13.2853 13.5844 13.2853 13.4859C13.2853 13.4329 13.3193 13.3458 13.3307 13.2777C13.3458 13.183 13.3231 13.0996 13.3799 13.0996C13.5087 13.0996 13.6412 13.3042 13.6412 13.4519C13.6412 13.5655 13.5693 13.664 13.4557 13.664ZM7.58565 4.8628C7.22584 4.87032 6.89255 5.16577 6.66534 5.56714C6.68023 5.48722 6.68783 5.40611 6.68806 5.32481C6.68806 4.77563 6.39269 4.27958 5.83599 4.27958C5.38529 4.27958 4.97624 4.54083 4.80587 5.04828C4.85511 4.99524 5.00284 4.90444 5.12396 4.90444C5.26409 4.90444 5.30581 5.02556 5.30581 5.21501C5.30581 5.34373 5.27549 5.49146 5.22625 5.63158C5.13916 5.86259 4.98384 5.93455 4.90056 5.93455C4.54834 5.93455 4.70739 5.35505 4.52942 5.35505C4.3817 5.35505 4.34005 5.66563 4.34005 5.78683C4.34005 6.1882 4.60131 6.61238 5.18081 6.61238C5.79435 6.61238 6.14268 6.32081 6.51769 5.92695C6.58958 6.35113 6.82066 7.0782 7.44173 7.0782C7.77874 7.0782 8.02115 6.79795 8.04767 6.47233C8.00223 6.51398 7.94158 6.54802 7.86962 6.54802C7.7409 6.54802 7.71445 6.36625 7.71445 6.2034C7.71445 5.94215 7.79014 5.6619 7.91134 5.6619C7.97571 5.6619 8.00975 5.70355 8.02495 5.89283C8.03627 6.04056 8.02495 6.2034 8.11583 6.2034C8.20671 6.2034 8.26355 5.91183 8.26355 5.71487C8.26355 5.26045 8.05139 4.8628 7.58565 4.8628ZM5.4951 6.22612C5.43453 6.22612 5.41941 6.16936 5.41561 6.12004C5.41561 5.84367 5.71858 4.60907 5.93819 4.60907C5.99123 4.60907 6.01023 4.65071 6.01023 4.70747C6.01023 4.92716 5.73371 6.22612 5.4951 6.22612ZM6.43433 5.69967C6.25256 5.90423 6.15408 5.98752 6.0746 5.98752C6.03288 5.99132 5.99123 5.91943 5.99123 5.83607C5.99123 5.68455 6.09732 5.12033 6.30933 5.12033C6.39269 5.12033 6.44945 5.27549 6.44945 5.41562C6.44945 5.5217 6.44937 5.6087 6.43433 5.69967ZM6.84711 6.18828C6.77514 6.19208 6.7373 6.07468 6.72218 5.82095C6.83578 5.63158 6.91155 5.54822 6.98343 5.54822C7.01375 5.54822 7.04027 5.57474 7.04027 5.69595V5.69975H7.04407C7.04407 5.94595 6.92667 6.19216 6.84711 6.18828ZM7.22584 6.61618C7.1804 6.61618 7.14636 6.55182 7.15008 6.40409C7.15008 6.02164 7.39628 5.32481 7.54393 5.32481C7.58565 5.32481 7.60077 5.4233 7.60077 5.51418C7.60077 5.93828 7.4038 6.61618 7.22584 6.61618ZM6.26396 6.7639C5.96091 6.7639 5.94579 7.13124 5.94579 7.8735C5.71858 7.38505 5.34745 6.86619 4.90815 6.86619C4.6127 6.86619 4.4991 7.06308 4.4991 7.40769C4.4991 7.47973 4.5067 7.58953 4.5181 7.6463C4.55214 7.52517 4.66575 7.47585 4.80587 7.47585C5.10884 7.47585 5.47618 7.71066 5.71858 8.02503C5.44213 7.97579 5.17321 7.92655 4.9498 7.92655C4.80967 7.92655 4.68087 7.94167 4.57486 7.99091C4.37038 8.08179 4.09393 8.38476 4.09393 8.84306C4.09393 8.91502 4.10145 8.98698 4.11285 9.07407C4.35906 8.52489 5.01416 8.27496 5.43833 8.27496C5.52162 8.27496 5.58226 8.28256 5.63902 8.29008C5.41941 8.48705 5.37017 8.83166 5.35497 9.06647C5.34745 9.18007 5.30581 9.18759 5.22625 9.18387C5.22625 9.41868 5.40801 9.76337 5.40801 9.93754C5.40801 10.0019 5.37397 10.0587 5.33605 10.0701C5.33605 10.3768 5.64282 10.604 5.64282 10.801C5.64282 10.8502 5.6277 10.8919 5.60878 10.9146C5.6315 11.0395 5.97231 11.2592 6.01396 11.3615C6.067 11.4864 6.13136 11.5167 6.16928 11.5167C6.29041 11.5167 6.47977 11.3765 6.47977 11.2478C6.47977 11.2062 6.44573 11.1569 6.41541 11.1342C6.28288 11.0358 6.21092 10.8237 6.15416 10.6836C6.10484 10.6836 6.04048 10.6646 6.01776 10.5813C5.97991 10.4336 5.97611 10.1647 5.91927 10.0018C5.82839 9.97918 5.78675 9.94506 5.78675 9.75569C5.78675 9.66481 5.84359 9.30508 5.84359 9.17627C5.80187 9.17627 5.74511 9.14983 5.74511 9.06267C5.74511 8.83546 5.97231 8.66129 6.03288 8.36964C6.43433 8.66889 6.52901 8.96798 6.52901 9.23691C6.52901 9.37704 6.50629 9.51336 6.47977 9.63829C6.77522 9.49064 7.22204 9.27095 7.22204 8.82786C7.22204 8.56661 7.10091 8.27876 6.3056 8.16515C6.55181 8.07427 6.86231 8.02503 7.12363 8.02503C7.57425 8.02503 7.8393 8.16895 7.89234 8.48705C7.9833 8.34692 8.05527 8.18408 8.05527 8.03635C8.05527 7.69174 7.76742 7.46453 7.40008 7.46453C6.96831 7.46453 6.58958 7.69174 6.1806 7.96067C6.36617 7.57813 6.49117 7.35472 6.71838 7.35472C6.75242 7.35472 6.79034 7.36225 6.82818 7.36985C6.75242 7.06687 6.43061 6.7601 6.26396 6.7639ZM18.1555 11.85C18.5077 11.85 18.788 12.3121 18.788 12.846C18.788 13.4179 18.519 14.039 18.0419 14.4669C18.0343 13.5163 16.8679 13.8193 16.8679 13.1263C16.8679 12.8308 17.08 12.6339 17.3337 12.6339C17.5609 12.6339 17.7313 12.6983 17.8677 12.8233C17.7389 12.7021 17.6783 12.5355 17.6783 12.3726C17.6745 12.0962 17.8449 11.85 18.1555 11.85ZM12.9178 4.63179C12.8611 4.54082 12.649 4.49166 12.5505 4.49166C12.24 4.49166 12.0279 4.71127 11.9863 4.90824C11.9598 4.8362 11.937 4.75291 11.937 4.66963C11.937 4.35906 12.1491 3.9766 12.6642 3.9766C13.1148 3.9766 13.2891 4.21141 13.3534 4.21141C13.4254 4.21141 13.4935 4.13937 13.5504 4.13937C13.6261 4.13937 13.6299 4.25685 13.6299 4.34394C13.6299 4.62419 13.5011 5.11265 13.183 5.29449C13.1262 5.17337 13.0126 5.04076 12.8308 4.95748C12.7816 4.93476 12.7589 4.89304 12.7589 4.8514C12.7626 4.76811 12.8345 4.66963 12.9178 4.63179ZM11.8537 5.14677C12.0355 5.32861 12.1984 5.40058 12.3953 5.40058C12.4748 5.40058 12.5657 5.37785 12.615 5.37785C12.6793 5.37785 12.7248 5.4043 12.7248 5.45734C12.7248 5.5369 12.6528 5.66183 12.5695 5.73379C12.6528 5.77171 12.7513 5.77923 12.8422 5.78303C13.2435 5.78303 13.7018 5.5293 13.7018 4.89304C13.7851 5.00292 13.8382 5.23773 13.8382 5.34373C13.8382 6.11252 13.2739 6.40789 12.7512 6.40789C12.4104 6.40789 12.2437 6.29429 12.1984 6.29429C12.0658 6.29429 12.0733 6.56322 11.9787 6.55554C11.8158 6.5291 11.6681 6.16936 11.6681 5.78683C11.6681 5.55962 11.7288 5.31341 11.8575 5.13925H11.8537V5.14677ZM5.81327 0.659125C5.81327 0.617483 5.6011 0.575842 5.31333 0.575842C4.85511 0.575842 4.91948 0.958296 4.56726 0.954496C4.19993 0.954496 4.29081 0.560642 3.825 0.560642C3.54095 0.560642 3.2835 0.609883 3.2835 0.674325C3.2835 0.753808 3.61679 0.719767 3.61679 0.954575C3.61679 1.2007 2.90476 1.27267 2.90476 1.42031C2.90476 1.46583 2.9578 1.49235 3.02969 1.49235C3.18501 1.49235 3.43114 1.42031 3.60919 1.42031C3.70759 1.42031 3.79848 1.43931 3.79848 1.534C3.79848 1.71196 3.41602 2.02625 3.41602 2.17018C3.41602 2.21562 3.45386 2.22322 3.48798 2.22702C3.62811 2.22702 3.87044 1.86721 4.09393 1.86721C4.46886 1.86721 4.21885 2.66252 4.42722 2.66632C4.63923 2.66632 4.54834 1.88241 4.85131 1.88241C5.09752 1.88241 5.28681 2.42391 5.44966 2.42391C5.49138 2.42391 5.52542 2.38987 5.52542 2.34063C5.52542 2.1929 5.31333 1.88993 5.31333 1.69304C5.31333 1.57184 5.39669 1.515 5.5103 1.515C5.67314 1.515 5.88903 1.61348 6.00643 1.61348C6.04808 1.61348 6.08972 1.59836 6.08972 1.54912C6.08972 1.37867 5.46105 1.1969 5.46105 0.977296C5.46866 0.76125 5.81707 0.761329 5.81327 0.659125ZM7.47205 1.37875C7.47205 1.50367 7.91514 1.77632 8.12343 1.78013C8.24455 1.78013 8.2786 1.61728 8.2786 1.44683C8.2786 1.23475 8.18779 1.22723 8.00223 1.22723C7.76742 1.23103 7.47205 1.29539 7.47205 1.37875ZM8.20671 2.77612C8.20671 2.35195 7.06299 1.58316 7.04787 1.25375C7.04787 1.22343 7.06299 1.1931 7.08951 1.16666C7.28648 0.958138 8.10071 0.810492 8.10071 0.632446C8.10071 0.541563 7.93026 0.541563 7.8469 0.541563C7.1918 0.541563 6.22984 0.780171 6.22984 1.01498C6.22984 1.25731 7.08951 1.83673 7.08951 2.12838C7.08951 2.20794 7.04027 2.23446 6.96079 2.23818C6.72218 2.23818 6.19952 1.95041 5.95339 1.95041C5.83979 1.95041 5.79807 2.0261 5.79807 2.13978C5.79807 2.47307 6.19572 3.11685 6.19572 3.30614C6.19572 3.32894 6.1882 3.35538 6.16168 3.35538C6.03288 3.35538 5.43453 2.65104 5.22245 2.65104C5.14668 2.65104 5.13916 2.75712 5.13916 2.91229V3.1509C5.13916 3.31374 5.13156 3.41215 5.0558 3.41215C4.87403 3.41215 4.78695 2.89717 4.6127 2.89717C4.43094 2.89717 4.3931 3.81368 4.21885 3.80988C4.01436 3.80988 4.19233 2.80248 3.99164 2.80248C3.77196 2.80248 3.52583 3.47279 3.37058 3.47279C3.31374 3.47279 3.29854 3.41602 3.29854 3.3667C3.29854 3.1623 3.41982 2.829 3.41982 2.63204C3.41982 2.53363 3.3933 2.47687 3.30614 2.47687C3.08653 2.47687 2.60551 2.829 2.42375 2.829C2.3973 2.829 2.35938 2.81388 2.35938 2.78736C2.35938 2.61692 3.12817 2.08294 3.12817 1.84053C3.12817 1.6058 2.06781 1.76105 2.06781 1.49592C2.06781 1.26871 2.82148 1.0377 2.82148 0.802892C2.82148 0.598404 1.92389 0.507521 1.57928 0.507521C1.1627 0.5076 0.935334 0.556842 0.935334 0.677967C0.935334 0.859812 1.88589 0.920375 1.88589 1.07562C1.88589 1.23087 0.905013 1.64752 0.905013 1.88605C0.905013 2.09442 2.28734 1.90505 2.28734 2.12086C2.28734 2.35947 1.07926 3.39718 1.07926 3.7418C1.07926 3.82128 1.1323 3.8516 1.21558 3.8554C1.58292 3.8554 2.53355 3.15858 2.7948 3.15858C2.88576 3.15858 2.89328 3.26838 2.89328 3.36678C2.89328 3.55243 2.82892 3.83268 2.82892 4.03717C2.82892 4.20001 2.87436 4.30982 3.01069 4.31362C3.27194 4.31362 3.51063 3.87052 3.68859 3.87052C3.9158 3.87052 3.77948 5.17329 4.12409 5.17709C4.41194 5.17709 4.53314 3.76452 4.71491 3.76452C4.89668 3.76452 5.0482 4.16969 5.21105 4.16969C5.42313 4.16969 5.32465 3.45775 5.55186 3.45775C5.79807 3.45775 6.50241 4.30982 6.81678 4.3061C6.91519 4.3061 6.94931 4.22653 6.94931 4.12805C6.94931 3.75312 6.42665 2.90865 6.42665 2.63972C6.42665 2.56775 6.44565 2.54883 6.52513 2.54883C6.80158 2.54883 7.60069 2.92757 7.98323 2.92757C8.12707 2.94269 8.20291 2.8708 8.20671 2.77612ZM1.76096 2.36715C1.76096 2.50727 1.22326 2.98069 1.0339 2.98069C0.961934 2.98069 0.943013 2.89733 0.943013 2.81776C0.943013 2.67764 1.00738 2.48075 1.08314 2.41639C1.17402 2.33303 1.38611 2.29138 1.54895 2.29138C1.65124 2.29138 1.76096 2.31038 1.76096 2.36715ZM6.94939 3.09429C6.94939 3.33662 7.83558 4.5523 7.99835 4.54858C8.13847 4.54858 8.24455 4.30238 8.24455 4.09021C8.24455 4.03345 8.22943 3.97668 8.20291 3.93504C8.07419 3.757 7.1804 3.05257 6.98351 3.05257C6.96451 3.04885 6.94559 3.06777 6.94939 3.09429ZM19.1099 0.636325C18.7576 0.636325 18.697 0.526521 18.4585 0.526521C18.1706 0.526521 17.9661 0.723408 17.9661 1.01886C17.9661 1.11734 18.0002 1.27259 18.0002 1.47708C18.0002 1.727 17.9509 1.95801 17.7313 1.95801C17.5306 1.95801 17.4511 1.82549 17.4511 1.67024C17.4511 1.38999 17.5988 1.20063 17.5988 1.01506C17.5988 0.677967 17.1822 0.579563 16.7467 0.579563C16.2241 0.579563 15.6597 0.719687 15.6597 0.791571C15.6597 0.912775 16.4134 0.840813 16.9436 1.51872C16.599 1.52632 15.9287 1.68156 15.9287 1.77245C15.9287 1.88605 17.1292 2.01485 17.1292 2.51471C17.133 2.8442 16.8679 2.87832 16.7656 2.88205C16.368 2.88205 16.1559 2.47687 16.0499 2.47687C16.0424 2.47672 16.0349 2.47809 16.028 2.48089C16.021 2.48369 16.0147 2.48787 16.0094 2.49318C16.0041 2.49849 15.9999 2.50482 15.9971 2.51178C15.9943 2.51875 15.9929 2.52621 15.9931 2.53371C15.9931 2.59808 16.0498 2.76472 16.0498 2.94269C16.0498 3.39338 15.55 3.44263 15.55 3.53351C15.55 3.56755 15.5651 3.58275 15.6219 3.59027C15.9841 3.64569 16.35 3.67356 16.7164 3.67363C17.9926 3.67363 19.0379 3.27598 19.0379 2.16258C19.0379 1.54904 18.8485 1.35207 18.8485 1.0529C18.8485 0.954417 18.9206 0.749929 19.1099 0.636325ZM17.2996 3.04877C17.2201 3.04877 17.1292 3.04877 17.0383 3.04117C17.8639 2.90865 18.3222 2.43143 18.3222 1.80277C18.5077 1.85581 18.6213 2.04518 18.6174 2.24586C18.6174 2.6132 18.2653 3.04877 17.2996 3.04877ZM18.4623 1.12858C18.36 1.12478 18.2804 1.05282 18.2804 0.954417C18.2804 0.852133 18.3638 0.780171 18.4623 0.776371C18.4857 0.77635 18.5088 0.780939 18.5304 0.789875C18.552 0.798812 18.5716 0.81192 18.5882 0.82845C18.6047 0.84498 18.6178 0.864607 18.6267 0.886208C18.6357 0.907809 18.6403 0.930961 18.6402 0.954338C18.6402 1.05282 18.5607 1.13238 18.4623 1.12858ZM18.9054 10.2972C18.5759 10.2972 18.3827 10.8767 18.0608 10.9107C18.2653 10.0624 19.1061 9.62689 19.1061 8.83538C19.1061 7.93787 18.3524 7.6235 18.0381 7.42281C17.5116 6.68054 17.1367 6.09352 16.2922 6.09352C15.9324 6.09352 15.7052 6.15788 15.4591 6.15788C14.9819 6.15408 14.8342 5.97232 14.8001 5.97232C14.7925 5.97232 14.785 5.97992 14.785 6.00636C14.785 6.66154 15.1296 8.16508 16.6482 8.16508C17.4587 8.16508 17.8071 7.8545 17.9964 7.8545C18.201 7.8545 18.8561 8.07799 18.8561 8.82778C18.8561 9.24436 18.5266 9.66853 18.4054 9.66853C18.288 9.67233 18.163 9.48296 18.163 9.2822C18.163 9.05879 18.2842 8.64981 18.2842 8.39608C18.2842 8.3014 18.2691 8.25596 18.2123 8.25596C18.0835 8.25596 17.4776 8.63469 17.4776 9.12323C17.4776 9.5398 18.0911 9.79353 18.3222 9.91474C18.0911 10.2972 17.951 10.5433 17.8373 10.8956C17.8373 10.6304 17.5836 10.0889 17.504 9.8617C17.114 8.80126 16.9777 8.60437 16.1748 8.51349C16.296 8.93766 17.6783 9.96018 17.6783 11.0054C17.6783 11.0698 17.6708 11.1607 17.6632 11.1948C17.2466 9.9753 16.5309 9.69505 16.2695 9.39588C15.8453 8.93006 16.0878 8.47937 15.4098 8.22564C15.4515 8.28248 15.4666 8.35444 15.4666 8.43013C15.4666 8.65361 15.3379 8.93758 15.3379 9.13455C15.3379 9.86922 16.2014 9.64961 16.7012 10.0511C17.1936 10.4487 17.47 11.0963 17.6745 11.8158C17.8715 11.5016 17.9851 11.119 18.3373 11.119C18.5645 11.119 18.6402 11.4031 18.6402 11.6C18.6402 11.6416 18.6402 11.6795 18.6326 11.706C18.9697 11.4182 19.1477 10.9524 19.1477 10.6418C19.1477 10.4336 19.0757 10.2972 18.9054 10.2972ZM17.5912 7.52881C17.5192 7.52881 17.3829 7.49097 17.292 7.49097C17.0497 7.49097 16.8793 7.82426 16.7543 7.82426C16.7088 7.82426 16.6899 7.78254 16.6899 7.7447C16.6899 7.60838 16.9284 7.44545 16.9284 7.35465C16.9284 7.2902 16.8262 7.27128 16.7846 7.27128C16.5422 7.27128 16.2051 7.60078 16.0158 7.60078C15.9818 7.60078 15.9362 7.58177 15.9362 7.53641C15.9362 7.44553 16.19 7.31673 16.19 7.21824C16.19 7.13116 16.0802 7.11224 16.0082 7.11224C15.8908 7.11224 15.656 7.1766 15.5083 7.1766C15.4288 7.1766 15.3644 7.16148 15.3644 7.09712C15.3644 6.95319 15.8226 7.04788 15.8226 6.87743C15.8226 6.79415 15.6787 6.63882 15.6787 6.55934C15.6787 6.52902 15.7165 6.5063 15.7507 6.5063C15.9135 6.5063 16.084 6.94939 16.2733 6.94939C16.3566 6.94939 16.3793 6.88503 16.3793 6.79415C16.3793 6.70326 16.3603 6.65782 16.3603 6.57826C16.3603 6.49498 16.3944 6.47218 16.421 6.47218C16.5384 6.47218 16.6445 7.10844 16.9701 7.10844C17.114 7.10464 17.0118 6.71838 17.1405 6.71838C17.2201 6.71838 17.239 6.83199 17.2466 6.89635C17.2806 7.31293 17.6556 7.32812 17.6556 7.47585C17.6556 7.49089 17.6329 7.52881 17.5912 7.52881ZM13.9632 0.545442C13.4897 0.545442 13.1451 0.77645 12.9596 0.77645C12.8498 0.78405 12.6793 0.5 12.5922 0.5C12.5582 0.5 12.5202 0.571962 12.5202 0.689367C12.5202 0.76885 12.5202 1.01506 12.4369 1.01506C12.2665 1.01506 11.6114 0.530321 11.6114 0.704488C11.6114 0.867333 12.0469 1.36347 12.0469 1.4922C12.0469 1.62092 11.6152 1.7384 11.6152 1.82549C11.6152 1.98073 12.0772 2.00725 12.0772 2.20802C12.0772 2.40491 11.5962 2.56023 11.5962 2.70408C11.5962 2.82148 12.0772 2.742 12.0772 2.88593C12.0772 3.03357 11.7249 3.52971 11.7249 3.66983C11.7249 3.70768 11.7326 3.70767 11.7629 3.70767C11.8954 3.71147 12.3006 3.24946 12.3953 3.24946C12.5089 3.24946 12.5316 3.52211 12.5505 3.68883C12.5657 3.76832 12.577 3.77964 12.615 3.77964C12.6982 3.77964 12.8346 3.45395 12.9254 3.45395C13.058 3.45395 13.4216 3.82508 14.0199 3.82888C14.8721 3.82888 15.6787 3.23054 15.6787 2.1701C15.6787 1.14758 14.9592 0.545442 13.9632 0.545442ZM12.7551 2.82148C12.7324 2.82148 12.721 2.79496 12.721 2.75712L12.7058 2.47687C12.7058 2.45035 12.6906 2.42011 12.6566 2.42011C12.5732 2.42011 12.4104 2.41251 12.3612 2.41251C12.3272 2.41251 12.312 2.40491 12.312 2.38979C12.3195 2.33675 12.5998 2.13606 12.6036 2.09054C12.6036 2.01105 12.3271 1.86333 12.3271 1.78005C12.3271 1.76493 12.3422 1.75733 12.3611 1.75733C12.4407 1.75733 12.5695 1.78385 12.6793 1.78385C12.7702 1.78385 12.7854 1.38999 12.8535 1.38999C12.9027 1.38999 12.9899 1.76113 13.0618 1.76113C13.1527 1.76113 13.3231 1.65504 13.3951 1.65504C13.4103 1.65504 13.4216 1.66264 13.4216 1.67776C13.4216 1.727 13.2436 1.91637 13.2436 1.97701C13.2436 2.04138 13.6413 2.12086 13.6413 2.1739C13.6413 2.24586 13.2398 2.23826 13.2398 2.3027C13.2398 2.34815 13.3837 2.54503 13.3837 2.6094C13.3837 2.6246 13.3761 2.63212 13.361 2.63212C13.3042 2.63212 13.0845 2.53371 13.0201 2.53371C12.9406 2.53371 12.8156 2.82148 12.7551 2.82148ZM13.9783 3.43123C13.4821 3.43123 13.1603 3.18502 13.1603 3.05629C13.1603 2.99193 13.2019 2.95021 13.2587 2.95021C13.414 2.95021 13.7549 3.1851 13.8647 3.1851C13.8912 3.1851 13.9139 3.1699 13.9139 3.12825C13.9139 2.99953 13.7928 2.79124 13.7928 2.68516C13.7928 2.65864 13.8154 2.63592 13.8571 2.63592C14.0464 2.63592 14.3267 2.71548 14.4819 2.71548C14.5312 2.71548 14.5464 2.68896 14.5464 2.65864C14.5464 2.50339 14.0881 2.20042 14.0881 2.10954C14.0881 2.02617 14.66 1.89745 14.66 1.76493C14.66 1.6248 13.8836 1.7232 13.8836 1.58688C13.8836 1.48848 14.0313 1.31803 14.0313 1.24227C14.0313 1.20823 14.0048 1.19303 13.9556 1.19303C13.8912 1.19303 13.5542 1.32563 13.4103 1.32563C13.3382 1.32563 13.2549 1.31043 13.2549 1.21195C13.2549 1.0491 13.5314 0.874933 13.9632 0.874933C14.66 0.874933 15.0766 1.35587 15.0766 2.15878C15.0728 3.1775 14.3646 3.43123 13.9783 3.43123ZM9.19899 15.6409C9.19899 15.7053 9.17619 15.7735 9.11943 15.8454C9.04366 15.7053 8.82398 15.6333 8.72557 15.6333C7.99843 15.6333 8.27488 16.6862 7.49849 16.6862C7.1728 16.6862 7.14636 16.6445 7.02507 16.6445C6.97591 16.6445 6.94559 16.6673 6.94559 16.7089C6.94559 16.8907 7.20684 17.3414 7.93026 17.3452C8.65741 17.3452 9.35423 16.9021 9.35423 16.3491C9.35423 16.2582 9.33151 16.1597 9.28979 16.0613C9.31631 16.0196 9.38828 15.9893 9.45264 15.9893C9.56632 15.9893 9.62308 16.1144 9.73289 16.1181C9.84657 16.1181 9.92985 16.0348 9.92985 15.9212C9.92985 15.8303 9.88061 15.7659 9.79733 15.7242C9.85409 15.6826 9.89573 15.6106 9.89573 15.5349C9.89573 15.4137 9.81245 15.3039 9.66853 15.3039C9.60416 15.3039 9.56244 15.3266 9.51328 15.372C9.49816 15.2471 9.42992 15.1258 9.29359 15.1258C9.18751 15.1258 9.10803 15.2016 9.10803 15.3266C9.12323 15.4251 9.19899 15.516 9.19899 15.6409ZM6.92667 15.1297C6.87743 15.1297 6.81306 15.1372 6.7449 15.1372C6.68054 15.1372 6.58958 15.1221 6.53273 15.0728C6.41921 14.9744 6.38509 14.4443 6.173 14.126C5.94199 13.7739 5.68826 13.6754 5.33985 13.6754C5.09364 13.6754 4.81727 13.8079 4.81727 14.0087C4.81727 14.1298 4.88535 14.2132 5.33225 14.3306C5.89655 14.4745 6.1844 14.7737 6.23744 15.1335C6.29421 15.4781 6.36237 15.7583 6.49869 15.9022C6.67674 16.103 7.02515 16.2734 7.32052 16.2734C7.57425 16.2734 7.77874 16.19 7.77874 15.9552C7.77874 15.7015 7.43413 15.1297 6.92667 15.1297ZM7.3016 15.906C7.08951 15.906 6.77142 15.6788 6.77142 15.5538C6.77142 15.4478 6.86983 15.3909 6.94939 15.3909C7.12736 15.3909 7.44553 15.6068 7.44553 15.7924C7.44173 15.8416 7.40761 15.9023 7.3016 15.906ZM8.99062 12.8006C8.66493 12.6832 8.521 12.4938 8.45664 12.1227C8.2976 12.3386 8.22183 12.5431 8.22183 12.6642C8.22183 13.1414 8.87702 13.149 8.87702 13.4671C8.87322 13.6527 8.54373 13.842 8.10831 13.8458C7.60077 13.842 7.25996 13.7625 6.94179 13.4445C6.85851 13.3535 6.82066 13.2739 6.71458 13.2739C6.59346 13.2739 6.54413 13.4861 6.54413 13.6754C6.54413 14.3684 7.20312 15.1864 8.11955 15.1864C9.26335 15.1826 9.70645 14.3949 9.70645 13.7588C9.70645 13.3876 9.61936 13.0354 8.99062 12.8006ZM8.65361 14.732C8.56273 14.732 8.5438 14.6752 8.5438 14.5957C8.5438 14.5313 8.56653 14.4101 8.56653 14.3193C8.56653 14.0692 8.66121 14.0882 8.90354 13.9784H8.89974C9.07018 13.8989 9.13455 13.7928 9.18759 13.7928C9.25195 13.7928 9.30871 13.8344 9.30871 13.9329C9.30871 14.3003 8.90734 14.732 8.65361 14.732ZM6.65402 10.4109C6.65402 9.96026 7.72578 9.71785 7.72578 9.16115C7.72578 9.07027 7.69173 8.90742 7.62729 8.78622C8.00223 8.9945 8.27868 9.33912 8.27868 9.61937C8.27868 10.1079 7.77122 10.3314 7.77122 10.6343C7.77122 10.9866 8.31272 11.0396 8.31272 11.4826C8.31272 11.8424 7.79774 12.259 7.79774 12.7248C7.79774 13.0884 8.05147 13.3838 8.44152 13.4293C8.31272 13.4558 8.20291 13.4785 8.08171 13.4785C7.36976 13.4785 6.63502 12.8915 6.63502 12.1947C6.63502 11.85 6.78274 11.5471 7.00995 11.3274C7.20692 11.4978 7.4076 11.6076 7.53641 11.6076C7.65001 11.6076 7.69925 11.5508 7.69925 11.4675C7.69165 11.21 6.65782 10.9639 6.65402 10.4109ZM4.63163 13.3838C4.6051 13.1301 4.3741 12.9407 4.13921 12.971C4.04841 12.9824 3.96124 13.0164 3.90448 13.0657C3.84012 12.8536 3.64315 12.6718 3.3705 12.7134C3.12429 12.7552 2.96145 12.9634 2.98797 13.2285C2.99177 13.2739 3.00697 13.3194 3.02581 13.3686C3.02581 13.3686 2.98417 13.3762 2.95393 13.38C2.74936 13.4179 2.52215 13.6262 2.56007 13.8951C2.59031 14.1374 2.8138 14.3193 3.06753 14.2889C3.15841 14.2775 3.2455 14.2549 3.30234 14.2169C3.3591 14.4442 3.54467 14.5881 3.7984 14.554C4.05973 14.5199 4.23397 14.3155 4.20745 14.0541C4.19985 13.9822 4.18473 13.9405 4.16581 13.8913C4.16581 13.8913 4.19985 13.8875 4.22637 13.8837C4.4801 13.8344 4.65435 13.6299 4.63163 13.3838ZM3.64315 13.914C3.49543 13.933 3.3629 13.8269 3.3439 13.6792C3.3249 13.5315 3.43106 13.3989 3.57879 13.3799C3.73023 13.3611 3.86284 13.4709 3.87796 13.6148C3.89696 13.7625 3.79088 13.8951 3.64315 13.914Z" fill="white"/>
</g>
<defs>
<clipPath id="clip0_822_4836">
<rect width="20" height="20" fill="white"/>
</clipPath>
</defs>
</svg>
