<svg width="24" height="24" viewBox="0 0 24 24" fill="none" xmlns="http://www.w3.org/2000/svg">
<path d="M17.7132 20.0816C17.9897 20.0816 18.2475 20.2014 18.3979 20.3999C18.3979 20.3999 20.0005 22.5156 20.4166 23.0647C20.4806 23.1491 20.5143 23.2472 20.5143 23.3477V23.7544C20.5143 23.89 20.4038 24 20.2675 24H5.21816C5.08187 24 4.97147 23.89 4.97147 23.7544V23.3477C4.97147 23.2472 5.00544 23.1488 5.06947 23.0643L7.08791 20.3999C7.23829 20.2014 7.49595 20.0816 7.77245 20.0816H17.7132Z" fill="black"/>
<path fill-rule="evenodd" clip-rule="evenodd" d="M12.6007 0C16.9261 1.45295e-05 21 2.53308 21 8.63186C21 15.1487 16.4483 17.6327 12.3994 17.6327C8.07406 17.6327 4 14.9275 4 9.02535C4.00001 2.55757 8.55184 0 12.6007 0ZM12.4498 1.03298C10.0103 1.03298 8.77808 2.70511 8.77807 8.50891C8.77807 14.2388 9.73374 16.5997 12.5503 16.5997C15.04 16.5997 16.222 14.9519 16.222 9.17283C16.222 3.41831 15.216 1.03298 12.4498 1.03298Z" fill="black"/>
</svg>
