<svg width="24" height="24" viewBox="0 0 24 24" fill="none" xmlns="http://www.w3.org/2000/svg">
<path d="M7.22084 7.62968L1.34994 7.55027C3.3507 3.6589 7.36731 1 12.0015 1C16.6342 1 20.6508 3.6589 22.6501 7.54874L16.5798 7.62968L12.0015 12.4343L7.22084 7.62968ZM11.9169 18.4348L6.50208 23.9328C2.641 21.9153 0 17.8422 0 13.143C0 11.1469 0.480181 9.26381 1.32276 7.60372L11.9169 18.4348ZM17.3696 24L11.9169 18.4348L22.6516 7.55027C23.5123 9.2241 24 11.124 24 13.1414C24 17.8942 21.3001 22.0054 17.3696 24Z" fill="black"/>
</svg>
