<svg width="20" height="20" viewBox="0 0 20 20" fill="none" xmlns="http://www.w3.org/2000/svg">
<g clip-path="url(#clip0_822_4932)">
<path d="M11.6145 4.86834C11.207 4.86251 10.7911 4.87001 10.3695 4.89334C7.04447 5.07501 3.84364 6.15168 1.83947 7.76251C1.44864 8.07834 0.856138 8.70668 0.628639 9.04834C0.179472 9.71501 0.000305176 10.2517 0.000305176 10.925C0.000305176 12.2167 0.855305 13.3 2.50531 14.09C3.52031 14.5783 4.7303 14.8983 6.1653 15.06C7.1678 15.1708 8.83031 15.155 9.97197 15.0217C13.2745 14.6342 16.2361 13.4208 17.9053 11.7775C18.107 11.5758 18.547 11.0683 18.5628 11.0158C18.5628 11.0125 18.6503 11.0417 18.7578 11.0775C19.2195 11.2342 19.7145 11.0125 19.9228 10.5533C20.0336 10.32 20.0236 9.94334 19.9036 9.69918C19.7975 9.481 19.6126 9.31123 19.3861 9.22418L19.2295 9.16834V9.00251C19.2295 8.29001 18.8778 7.56334 18.227 6.93251C16.9203 5.66584 14.4661 4.91501 11.6145 4.86834ZM11.4845 5.19751C12.0161 5.19084 12.532 5.20834 13.0145 5.25084C14.9111 5.41751 16.5253 5.90251 17.6703 6.65418C18.0903 6.93084 18.6503 7.48918 18.852 7.83418C19.047 8.16918 19.1645 8.54084 19.1878 8.89251L19.2045 9.16834L19.0045 9.17168C18.872 9.17442 18.7418 9.20649 18.6232 9.26556C18.5046 9.32464 18.4006 9.40926 18.3186 9.51334C18.1553 9.72168 18.107 9.86501 18.1103 10.1617C18.1103 10.4417 18.1786 10.625 18.3511 10.8242L18.4586 10.9442L18.1686 11.2375C17.5995 11.8125 16.952 12.2725 16.1003 12.6958C13.9461 13.7758 11.047 14.3408 8.38531 14.2008C6.57031 14.1067 5.12197 13.7825 3.91447 13.2033C2.64197 12.595 1.84947 11.7675 1.64781 10.8533C1.13697 8.54001 4.26364 6.17501 8.80864 5.43001C9.69333 5.28638 10.5874 5.20839 11.4836 5.19668L11.4845 5.19751ZM19.167 6.48668L19.1586 6.48834C19.1336 6.48834 19.1095 6.48834 19.0853 6.49668C19.052 6.50251 19.0195 6.51834 18.9878 6.53168C18.9425 6.5578 18.9033 6.59332 18.8728 6.63584C18.8595 6.65834 18.8436 6.67918 18.837 6.70418C18.822 6.73617 18.813 6.77062 18.8103 6.80584C18.8078 6.84851 18.8123 6.8913 18.8236 6.93251C18.8492 7.01038 18.9003 7.07734 18.9686 7.12251C19.0162 7.15172 19.0692 7.17073 19.1245 7.17834C19.1957 7.18499 19.2673 7.17142 19.3311 7.13918C19.3767 7.1161 19.4164 7.08306 19.4474 7.04253C19.4784 7.00199 19.4999 6.95499 19.5103 6.90501C19.5145 6.87584 19.5211 6.84751 19.517 6.81834C19.5178 6.79668 19.512 6.77334 19.5086 6.75168C19.4853 6.66172 19.4283 6.58416 19.3495 6.53501C19.2956 6.50584 19.2357 6.48931 19.1745 6.48668H19.167ZM19.1411 6.55834H19.1911C19.2238 6.56113 19.2555 6.57049 19.2845 6.58584C19.3011 6.59251 19.3153 6.60251 19.3295 6.61501C19.3486 6.63168 19.3695 6.64918 19.382 6.67168C19.3951 6.69097 19.4055 6.71201 19.4128 6.73418C19.4228 6.75668 19.4236 6.78168 19.4295 6.80584C19.4278 6.83168 19.4328 6.85918 19.4261 6.88501C19.4236 6.91251 19.4111 6.93668 19.3995 6.96168C19.3945 6.97751 19.3836 6.99001 19.3753 7.00334C19.3581 7.02783 19.3367 7.04901 19.312 7.06584C19.2978 7.07834 19.2786 7.08251 19.2628 7.09084C19.2445 7.09584 19.2261 7.10418 19.2061 7.10501C19.2011 7.10501 19.197 7.10501 19.1911 7.10668C19.1661 7.10668 19.1403 7.11001 19.1153 7.10501C19.067 7.09653 19.0224 7.07391 18.987 7.04001C18.9729 7.02882 18.9605 7.01563 18.9503 7.00084C18.9353 6.98418 18.9286 6.96334 18.9178 6.94418C18.9103 6.92751 18.9078 6.90918 18.9036 6.89168C18.897 6.86918 18.8986 6.84501 18.8986 6.82168C18.897 6.78918 18.907 6.75751 18.9161 6.72751C18.9278 6.70584 18.9361 6.68251 18.952 6.66418C18.9645 6.64418 18.9845 6.63084 18.9995 6.61501C19.0163 6.60141 19.0348 6.58993 19.0545 6.58084C19.0736 6.57501 19.092 6.56584 19.112 6.56334C19.1214 6.56045 19.1312 6.55877 19.1411 6.55834ZM19.1803 6.65834L19.1345 6.66084H19.0903L19.0736 6.66418L19.0578 6.66584L19.0453 6.66751L19.032 6.66834V7.01418H19.1103V6.87251L19.1411 6.87418L19.1703 6.87584L19.1803 6.87834L19.1911 6.88001L19.2011 6.89001L19.2045 6.89668L19.2078 6.90251L19.2095 6.91084L19.2111 6.91751L19.2203 6.94918L19.2253 6.96084L19.2303 6.97251H19.317L19.312 6.96251L19.3053 6.93334L19.297 6.90251L19.292 6.88418L19.287 6.86751L19.2811 6.85501L19.2745 6.84418L19.2661 6.83418L19.2578 6.82584L19.2453 6.81918L19.2336 6.81084V6.80834L19.2436 6.80334L19.2545 6.79834L19.2645 6.79334L19.2745 6.78668L19.2828 6.77834L19.2886 6.76751L19.2936 6.75584L19.2953 6.73918V6.72334L19.2936 6.71251L19.292 6.70084L19.2853 6.68918L19.2786 6.67834L19.2703 6.66834L19.262 6.66001L19.2495 6.65501L19.237 6.64834L19.222 6.64501L19.207 6.64084L19.1828 6.63918L19.1803 6.65834ZM19.1345 6.71668H19.1786L19.1928 6.72084L19.2061 6.72584L19.2178 6.73584L19.2261 6.74418L19.227 6.75001L19.2303 6.75834V6.77584L19.2253 6.78751L19.2211 6.79584L19.2128 6.80084L19.2045 6.80918L19.1895 6.81168L19.1786 6.81834L19.1453 6.82001H19.112V6.71918L19.1228 6.71751L19.1345 6.71668ZM3.50281 8.59834C3.44364 8.60168 3.41614 8.61834 3.41614 8.64334C3.41614 8.72501 3.36781 8.72834 3.17864 8.66334C2.99157 8.58904 2.78451 8.58197 2.59281 8.64334C2.44887 8.68986 2.32415 8.78229 2.23775 8.90646C2.15136 9.03064 2.10805 9.17971 2.11447 9.33084C2.11447 9.66918 2.26114 9.83501 2.85364 10.1733C2.99947 10.2583 3.16614 10.3775 3.21781 10.4392C3.37781 10.6175 3.34197 10.81 3.13947 10.895C2.79197 11.0375 2.42031 10.8033 2.35614 10.3933C2.33614 10.2633 2.32947 10.2583 2.22531 10.2583H2.11447V11.2333H2.22531C2.30614 11.2333 2.33947 11.2167 2.35197 11.1717C2.36864 11.1092 2.37197 11.1092 2.57031 11.1717C3.16864 11.3567 3.67031 11.1317 3.77447 10.6308C3.85947 10.2308 3.67697 9.98501 3.04531 9.63918C2.57031 9.37918 2.43697 9.19418 2.61197 9.02751C2.6592 8.97691 2.71989 8.94085 2.78692 8.92358C2.85394 8.90631 2.92451 8.90854 2.99031 8.93001C3.20781 8.98584 3.41614 9.27168 3.41614 9.51584C3.41614 9.56168 3.44281 9.57418 3.53031 9.57418H3.64447V8.60001H3.50281V8.59834ZM16.0411 9.08501L16.0086 9.08668C15.9436 9.08668 15.9086 9.10584 15.8953 9.15168C15.8753 9.21334 15.8686 9.21334 15.7711 9.16168C15.6278 9.09001 15.2503 9.07334 15.062 9.13501C14.857 9.20001 14.6028 9.43834 14.492 9.66251C14.4203 9.80918 14.3978 9.90418 14.3878 10.125C14.3711 10.4667 14.4528 10.7158 14.6478 10.9275C15.0745 11.3892 15.8686 11.3017 16.1586 10.7608L16.2203 10.6408L16.142 10.5792L16.0645 10.5142L15.9145 10.6833C15.6895 10.9433 15.4778 10.9992 15.2045 10.8783C14.9378 10.755 14.8045 10.395 14.8728 9.97168C14.9445 9.51001 15.1786 9.29501 15.537 9.36001C15.687 9.38918 15.8595 9.56168 15.9178 9.74334C15.9595 9.86418 15.9795 9.88418 16.0678 9.89334L16.172 9.90334L16.1553 9.69834C16.1045 9.11168 16.107 9.08251 16.0411 9.08501ZM9.04614 9.11251V9.22918C9.04614 9.34334 9.0478 9.34668 9.15864 9.34668C9.2528 9.34668 9.27864 9.36334 9.30531 9.43168C9.32447 9.47668 9.3378 9.80668 9.3378 10.1608C9.3378 10.515 9.32447 10.8425 9.30447 10.8883C9.27947 10.9567 9.2528 10.9725 9.15864 10.9725C9.05114 10.9725 9.04614 10.9792 9.04614 11.0867V11.2008H10.0211V11.09C10.0211 10.9825 10.0145 10.9758 9.9003 10.9667L9.77697 10.9567L9.76697 10.6208C9.76364 10.4392 9.7703 10.2908 9.78364 10.2942C9.79614 10.2942 9.95281 10.4975 10.1286 10.7483L10.4445 11.2008H11.7136V11.0867C11.7136 10.9825 11.7036 10.9725 11.622 10.9725C11.4636 10.9725 11.4536 10.9367 11.4536 10.3867L11.457 9.88418L11.7461 10.5333C12.1336 11.405 12.1045 11.4017 12.4653 10.5825L12.7395 9.96584L12.7486 10.4258C12.752 10.68 12.7486 10.9075 12.742 10.9308C12.7328 10.9533 12.6736 10.9725 12.6086 10.9725C12.5011 10.9725 12.4953 10.9792 12.4953 11.0867V11.2008H14.3486V11.0867C14.3486 10.9825 14.342 10.9725 14.2511 10.9725C14.1895 10.9725 14.1436 10.95 14.1211 10.9108C14.0853 10.8425 14.0753 9.54834 14.1078 9.41918C14.1245 9.36334 14.1536 9.34668 14.2378 9.34668C14.342 9.34668 14.3486 9.34001 14.3486 9.23334V9.11918H12.7945L12.5111 9.76084C12.3553 10.115 12.2153 10.4158 12.2028 10.4292C12.1886 10.4425 12.0453 10.1608 11.8828 9.79584L11.587 9.13501L11.2578 9.12584L10.9328 9.11584V9.23251C10.9328 9.33668 10.9395 9.34668 11.0303 9.34668C11.1086 9.34668 11.1378 9.36668 11.1603 9.43168C11.1803 9.47668 11.1936 9.80668 11.1936 10.1608C11.1936 10.515 11.1803 10.8425 11.1603 10.8883C11.1378 10.9567 11.1086 10.9725 11.0236 10.9725C10.9489 10.968 10.8764 10.9457 10.812 10.9075C10.7145 10.8492 10.467 10.5475 10.337 10.3267C10.2845 10.235 10.2845 10.235 10.402 10.1575C10.5645 10.05 10.6361 9.94251 10.6595 9.76334C10.6737 9.65617 10.6551 9.54721 10.6062 9.45082C10.5572 9.35442 10.4802 9.27511 10.3853 9.22334C10.2353 9.13834 10.2161 9.13501 9.6403 9.12584L9.04614 9.11251ZM16.1711 9.11251V9.22668C16.1711 9.33668 16.1778 9.34334 16.2953 9.35334L16.4161 9.36334V10.9567L16.2953 10.9667C16.1786 10.9758 16.172 10.9833 16.172 11.09V11.2008H17.1461V11.09C17.1461 10.9825 17.1403 10.9758 17.0261 10.9667L16.902 10.9567L16.8928 10.615C16.8828 10.2083 16.8595 10.1983 17.2703 10.7775L17.557 11.1842L17.872 11.1942L18.1886 11.2042V11.0933C18.1886 10.9892 18.1786 10.9792 18.0645 10.9633C17.9211 10.9367 17.8203 10.8392 17.5695 10.4842C17.4136 10.2633 17.4036 10.2425 17.4561 10.2092C17.4886 10.1925 17.5628 10.1342 17.622 10.0858C17.892 9.85501 17.8203 9.38251 17.4911 9.20668C17.3711 9.14501 17.2995 9.13501 16.7661 9.12584L16.1711 9.11251ZM3.77447 9.11918V9.23251C3.77447 9.34084 3.78114 9.34668 3.88531 9.34668C3.95697 9.34668 4.00197 9.36668 4.01531 9.39918C4.0253 9.42834 4.03531 9.71834 4.03531 10.0467C4.03531 10.8275 4.08364 10.9725 4.40947 11.145C4.51364 11.2008 4.59864 11.2133 4.8328 11.2133C5.2328 11.2133 5.39697 11.1292 5.54947 10.8425C5.60197 10.745 5.61531 10.6325 5.62864 10.0467L5.64531 9.36334L5.84281 9.35334C6.02864 9.34334 6.0453 9.35001 6.06447 9.41834C6.09781 9.54251 6.08697 10.8 6.05114 10.8883C6.02864 10.9533 5.99947 10.9725 5.92114 10.9725C5.82947 10.9725 5.82364 10.9825 5.82364 11.0867V11.2008H6.76781V11.09C6.76781 10.9825 6.76114 10.9758 6.64697 10.9658L6.52364 10.9567L6.51364 10.64L6.50364 10.3267L6.69531 10.3283C7.03114 10.3317 7.22697 10.2225 7.33364 9.95918C7.47364 9.62334 7.27864 9.25584 6.90114 9.15084C6.83614 9.13501 6.39947 9.11918 5.93114 9.11918H5.07697V9.23001C5.07697 9.33668 5.0828 9.34334 5.2003 9.35334L5.32114 9.36334L5.33031 9.97501C5.3403 10.6917 5.3203 10.7642 5.09614 10.875C4.87114 10.9825 4.64364 10.9433 4.5328 10.7833C4.48114 10.7058 4.47447 10.6225 4.47447 10.0308V9.36334L4.59781 9.35334C4.71197 9.34334 4.71864 9.33668 4.71864 9.23001V9.11918H4.24697H3.77447ZM7.35364 9.11918V9.23001C7.35364 9.33668 7.36031 9.34334 7.47697 9.35334L7.5978 9.36334L7.6078 10.1408C7.61697 10.9808 7.61697 10.9725 7.44447 10.9725C7.36364 10.9725 7.35281 10.9858 7.35281 11.0867V11.2008H8.93614L9.03614 10.8758L9.13447 10.55H9.02614C8.94281 10.55 8.90947 10.5725 8.85114 10.6633C8.72114 10.875 8.64864 10.9075 8.32614 10.9075H8.03697V10.2575H8.28114C8.4503 10.2575 8.53114 10.2717 8.53864 10.2975C8.5478 10.32 8.56114 10.3775 8.57114 10.4258C8.5878 10.5008 8.6103 10.5175 8.68781 10.5175H8.78614V9.70501H8.88614C8.96447 9.70501 8.98447 9.69501 8.9678 9.65251C8.95253 9.5558 8.94611 9.45789 8.94864 9.36001V9.11834H8.1503L7.35364 9.11918ZM13.3311 9.34834C13.3603 9.34834 13.3961 9.35084 13.4436 9.35334L13.6486 9.36334V10.9567H13.437C13.242 10.9567 13.2261 10.95 13.2061 10.875C13.1703 10.7483 13.1736 9.52251 13.2095 9.42834C13.2311 9.36751 13.2453 9.34918 13.3311 9.34834ZM8.03697 9.37334L8.33031 9.38584C8.53531 9.39251 8.63614 9.40834 8.66864 9.44418C8.70218 9.48978 8.72549 9.54208 8.73697 9.59751C8.75614 9.69501 8.75364 9.70501 8.6753 9.70501C8.6103 9.70501 8.58697 9.72418 8.57114 9.79251C8.56404 9.83705 8.55288 9.88084 8.5378 9.92334C8.53197 9.95251 8.4503 9.96501 8.28114 9.96501H8.03697V9.66918V9.37334ZM9.88114 9.38251C9.9244 9.38514 9.96653 9.39738 10.0045 9.41834C10.1545 9.48668 10.2295 9.72084 10.1511 9.87084C10.1095 9.94918 9.9528 10.03 9.8428 10.03H9.7603V9.72418C9.7603 9.41834 9.77031 9.38918 9.88114 9.38251ZM17.0061 9.38251C17.0497 9.38502 17.0921 9.39726 17.1303 9.41834C17.2245 9.46001 17.3095 9.59751 17.3095 9.70501C17.3095 9.88001 17.1428 10.03 16.9478 10.03C16.8928 10.03 16.8861 10.0008 16.8861 9.72418C16.8861 9.41834 16.8961 9.38918 17.0061 9.38251ZM6.50697 9.41168H6.61781C6.70281 9.41168 6.75114 9.43834 6.81614 9.51584C6.89114 9.60751 6.90447 9.64334 6.89114 9.77668C6.87197 9.97834 6.79364 10.0633 6.63114 10.0633H6.50697V9.73751V9.41168Z" fill="white"/>
</g>
<defs>
<clipPath id="clip0_822_4932">
<rect width="20" height="20" fill="white"/>
</clipPath>
</defs>
</svg>
