<svg width="24" height="24" viewBox="0 0 24 24" fill="none" xmlns="http://www.w3.org/2000/svg">
<path fill-rule="evenodd" clip-rule="evenodd" d="M0.642086 15.4115C0.695625 15.1851 0.801216 15.0524 0.949936 15.0005C1.08825 14.9601 1.21466 15.0005 1.30984 15.1346C1.3842 15.2572 1.3842 15.4115 1.30984 15.6163C1.28902 15.7605 1.28902 15.9032 1.29943 16.0575C1.34256 16.2118 1.33215 16.346 1.2682 16.4786C1.21466 16.6127 1.12989 16.7353 1.03471 16.8377C0.981167 16.9617 0.918705 17.0944 0.875576 17.2487C0.832447 17.4131 0.759575 17.5155 0.662907 17.5573C0.567726 17.6179 0.441314 17.6395 0.292594 17.6078C0.154284 17.5674 0.0591035 17.4751 0.0263851 17.3309C-0.0152565 17.1766 -0.00484613 17.0122 0.0382827 16.8377C0.100745 16.705 0.154284 16.5608 0.175105 16.3863C0.175105 16.1296 0.259875 15.9032 0.441314 15.7086C0.546905 15.6062 0.610855 15.5038 0.642086 15.4115ZM2.15903 15.3293C2.21257 15.3091 2.25421 15.2875 2.28693 15.2572C2.30775 15.2053 2.41334 15.2053 2.58288 15.2572C2.70037 15.2976 2.78514 15.3697 2.82678 15.472C2.86991 15.6163 2.88032 15.7504 2.88032 15.8629C2.86991 16.0676 2.89073 16.2638 2.94427 16.4383C2.95468 16.6027 2.92345 16.767 2.84909 16.9415C2.83719 17.054 2.82678 17.1362 2.82678 17.1867C2.80596 17.2588 2.77473 17.3309 2.71078 17.4131C2.60519 17.5256 2.50852 17.5876 2.42375 17.5876C2.33948 17.5982 2.25471 17.5266 2.16944 17.3727C2.05344 17.2083 1.9999 17.0742 2.01031 16.9516C1.94686 16.52 1.92554 16.2325 1.94636 16.0893C1.96867 15.9753 1.9999 15.7908 2.03113 15.5139C2.08467 15.3908 2.1273 15.3293 2.15903 15.3293ZM3.49602 14.9702C3.53766 14.9385 3.57038 14.8981 3.60161 14.8462C3.61202 14.7842 3.71761 14.7539 3.89905 14.764C4.02547 14.764 4.14295 14.8159 4.22772 14.9183C4.32291 15.0524 4.37644 15.1649 4.39726 15.2875C4.40768 15.3495 4.4285 15.4014 4.4508 15.4519C4.46072 15.5038 4.46072 15.5552 4.4508 15.6062C4.47163 15.7086 4.49245 15.8008 4.50286 15.873C4.51327 15.9451 4.50286 16.0273 4.47162 16.1397C4.39726 16.2839 4.31249 16.3661 4.23813 16.3863C4.15336 16.4166 4.04777 16.3762 3.90946 16.2421C3.72951 16.1195 3.63284 15.9854 3.61202 15.8629C3.51684 15.6682 3.47371 15.5442 3.47371 15.472C3.47371 15.4216 3.4633 15.3293 3.43207 15.1952C3.43207 15.0524 3.4633 14.9803 3.49602 14.9702ZM0.567726 13.6146C0.578136 13.5223 0.557315 13.4199 0.526084 13.306C0.503776 13.1834 0.526084 13.0493 0.610855 12.8965C0.748668 12.6186 0.875576 12.4542 0.991578 12.4033C1.07784 12.3614 1.11948 12.2792 1.12989 12.1668C1.1403 12.0543 1.19384 11.9202 1.29943 11.7774C1.36338 11.6433 1.37379 11.5092 1.30984 11.3866C1.29943 11.3246 1.2682 11.264 1.22507 11.2121C1.17252 11.14 1.11948 11.0991 1.06594 11.0895C0.929115 11.0376 0.832447 10.9756 0.801216 10.8934C0.769489 10.853 0.727352 10.8222 0.674804 10.8011C0.610855 10.7708 0.578136 10.7189 0.588547 10.6468C0.600444 10.5963 0.578136 10.5444 0.515674 10.4939C0.462135 10.4319 0.419006 10.3699 0.419006 10.2978C0.408595 10.0728 0.429416 9.93873 0.482955 9.90844C0.546905 9.85653 0.567726 9.80605 0.557315 9.75414C0.557315 9.67194 0.621265 9.50754 0.759575 9.26094C0.918705 8.97396 1.0243 8.80956 1.07784 8.75765C1.10907 8.73746 1.1403 8.68699 1.16261 8.60479C1.19384 8.54278 1.23697 8.48077 1.29943 8.44039C1.35297 8.40866 1.37379 8.36828 1.3842 8.30627C1.40601 8.23417 1.44864 8.18273 1.5121 8.15197C1.56564 8.13178 1.61769 8.08131 1.66082 7.98901C1.78723 7.74241 1.89431 7.62849 1.96867 7.62849C2.04303 7.62849 2.10549 7.61839 2.15903 7.57801C2.2438 7.53619 2.33898 7.5261 2.46688 7.56792C2.57297 7.59868 2.64733 7.60878 2.68996 7.5982C2.81637 7.56792 2.9755 7.5982 3.15545 7.6905C3.35771 7.82461 3.4633 7.96738 3.4633 8.12168C3.47371 8.26589 3.44248 8.35819 3.38894 8.38847C3.25212 8.49086 3.14504 8.54278 3.06027 8.53268C2.96509 8.52259 2.89073 8.53268 2.8595 8.57306C2.79605 8.62498 2.72169 8.64565 2.63642 8.63507C2.56206 8.61488 2.49811 8.63507 2.43416 8.68699C2.38161 8.72736 2.33948 8.74755 2.30775 8.74755C2.25421 8.73746 2.21257 8.76919 2.15903 8.81966C2.09508 8.90186 2.05344 8.96387 2.04303 9.01434C2.02072 9.10808 1.98949 9.15855 1.94636 9.17874C1.89431 9.23066 1.84077 9.30276 1.80954 9.39506C1.76641 9.49744 1.73518 9.55945 1.69205 9.55945C1.64 9.59983 1.58646 9.71376 1.55374 9.90844C1.44815 10.1233 1.41692 10.2776 1.46897 10.3901C1.56564 10.5242 1.64 10.6064 1.69205 10.6468C1.756 10.6583 1.78723 10.6886 1.79913 10.7189C1.81995 10.7809 1.8839 10.8213 1.98949 10.8213C2.07426 10.8328 2.13821 10.8429 2.15903 10.8732C2.27602 10.9242 2.3717 10.9141 2.44606 10.8429C2.50852 10.7809 2.57247 10.7391 2.63642 10.7391C2.7316 10.729 2.78514 10.6785 2.82678 10.5761C2.84909 10.5141 2.88032 10.4824 2.91155 10.4521C2.99632 10.4016 3.04986 10.3194 3.09299 10.1954C3.12472 10.1137 3.15644 10.0522 3.18817 10.0108C3.24022 9.94882 3.26253 9.88825 3.24022 9.83634C3.22981 9.77433 3.15545 9.70222 2.99632 9.62002C2.93386 9.57964 2.92345 9.49744 2.98591 9.36333C3.02855 9.28161 3.10291 9.24075 3.20899 9.24075C3.26253 9.23066 3.32648 9.21047 3.36812 9.17874C3.43207 9.13836 3.49602 9.13836 3.57038 9.16865C3.62243 9.18884 3.68638 9.21047 3.77115 9.21047C4.00415 9.23066 4.19501 9.33305 4.34373 9.51763C4.43891 9.64165 4.46121 9.72385 4.4285 9.77433C4.38685 9.83634 4.38686 9.91854 4.43891 10.0209C4.47163 10.1132 4.47163 10.2156 4.43891 10.3079C4.37644 10.4521 4.30208 10.5242 4.21731 10.5343C4.00464 10.5963 3.84551 10.6886 3.73992 10.791C3.66556 10.853 3.62243 10.9251 3.61202 10.9958C3.5912 11.0376 3.57038 11.078 3.55848 11.1299C3.55848 11.1501 3.55848 11.1703 3.57038 11.1818C3.5912 11.264 3.60161 11.3563 3.60161 11.4789C3.61202 11.489 3.62243 11.4991 3.62243 11.4991C3.64474 11.551 3.67597 11.5712 3.7072 11.5813C3.79197 11.613 3.84551 11.6736 3.88864 11.7774C3.91987 11.8582 3.97341 11.9202 4.02547 11.9822C4.079 12.0125 4.13254 12.0846 4.16377 12.187C4.22772 12.3514 4.26937 12.5057 4.27978 12.6282C4.30208 12.7926 4.32291 12.9167 4.35414 12.9989C4.39726 13.1113 4.41809 13.2036 4.40768 13.2858C4.39727 13.4603 4.34373 13.6045 4.23813 13.7271C4.17419 13.7891 4.09982 13.841 4.02547 13.8713C3.98283 13.9223 3.91938 13.9737 3.8351 14.0256C3.67597 14.1179 3.54807 14.2304 3.44248 14.3645C3.28335 14.5491 3.04986 14.6515 2.75242 14.6717C2.63642 14.6717 2.51893 14.6919 2.41334 14.7236C2.27503 14.7539 2.13821 14.7337 2.01031 14.6616C1.84077 14.5693 1.68164 14.539 1.53292 14.539C1.28902 14.5592 1.05553 14.477 0.832447 14.3025C0.652496 13.9636 0.557315 13.7473 0.567726 13.6146ZM2.75242 11.7255C2.74201 11.7255 2.74201 11.7255 2.74201 11.7356C2.67806 11.7875 2.57247 11.8178 2.44606 11.8279C2.32857 11.8481 2.25421 11.9 2.22298 12.0024C2.15903 12.1567 2.04303 12.2792 1.8839 12.3715C1.77682 12.4336 1.71287 12.5158 1.70246 12.608C1.68164 12.7422 1.64 12.8445 1.55374 12.9167C1.44815 13.0089 1.39461 13.1012 1.40651 13.1834C1.43774 13.3277 1.52251 13.4603 1.65041 13.5843C1.74559 13.6348 1.84077 13.655 1.93595 13.655C2.06385 13.6651 2.14862 13.6867 2.20216 13.717C2.28693 13.7689 2.34939 13.779 2.41334 13.7473C2.53083 13.7069 2.6156 13.6968 2.67806 13.7271C2.77473 13.7473 2.89073 13.7271 3.03945 13.6651C3.18817 13.6045 3.31458 13.5021 3.41125 13.3781C3.41125 13.2339 3.43207 13.1214 3.4633 13.0392C3.50643 12.9368 3.51684 12.8143 3.51684 12.66C3.49602 12.5158 3.4633 12.4134 3.39935 12.3614C3.37853 12.3413 3.35771 12.2893 3.33689 12.2187C3.30417 12.1264 3.26253 12.0543 3.19858 12.0024C3.16735 11.9721 3.14504 11.9404 3.13463 11.9202C3.12422 11.9 3.11381 11.8697 3.08109 11.8481C2.98591 11.7976 2.88032 11.7558 2.75242 11.7255ZM11.4927 16.6228C11.5358 16.8175 11.5358 16.9819 11.5031 17.1045C11.4615 17.1867 11.4406 17.2588 11.4287 17.3208C11.3975 17.403 11.3663 17.465 11.3336 17.4953C11.2072 17.5977 11.0688 17.6496 10.9097 17.6496C10.7714 17.6395 10.645 17.5775 10.5498 17.4434C10.4427 17.279 10.3907 17.1463 10.4011 17.0338C10.4115 16.9415 10.4011 16.8593 10.358 16.7872C10.3371 16.7252 10.3371 16.6531 10.358 16.581C10.3798 16.4993 10.3798 16.407 10.358 16.3041C10.294 16.0676 10.2732 15.883 10.294 15.7605C10.3371 15.4014 10.3267 15.0524 10.2732 14.7034C10.2628 14.6097 10.2628 14.5174 10.2732 14.4352C10.2836 14.3429 10.2836 14.2203 10.2732 14.0458C10.2524 13.841 10.2628 13.6766 10.294 13.5526C10.3371 13.3983 10.3476 13.2238 10.3163 13.0493C10.294 12.957 10.2732 12.8345 10.2628 12.6902C10.1884 12.608 10.1245 12.5576 10.0605 12.5258C9.95493 12.4336 9.88057 12.3614 9.83893 12.3312C9.81662 12.3211 9.7958 12.311 9.77498 12.311C9.52067 12.2389 9.25446 12.2288 9.00015 12.2692C8.89456 12.2893 8.79938 12.311 8.71461 12.311C8.61843 12.3206 8.55448 12.3408 8.52276 12.3715C8.47071 12.3932 8.42758 12.4134 8.39635 12.4436C8.40676 12.4537 8.40676 12.4754 8.40676 12.4754C8.40676 12.5677 8.40676 12.66 8.41717 12.7623C8.42758 12.8244 8.41717 12.8849 8.39635 12.9368C8.38593 12.9469 8.38593 12.957 8.38593 12.9888C8.4484 13.071 8.52276 13.1315 8.60753 13.1935C8.61794 13.2036 8.62984 13.2137 8.62984 13.2137C8.73543 13.2036 8.86333 13.2137 9.02097 13.2339C9.1801 13.2455 9.31841 13.2455 9.44631 13.2339C9.58313 13.2455 9.71103 13.2858 9.83893 13.368C9.97575 13.4502 10.0501 13.5843 10.0501 13.7473C10.0605 13.8915 9.97575 14.004 9.80621 14.0862C9.60544 14.1583 9.38236 14.1583 9.11764 14.0761C8.9362 14.0256 8.74584 14.0256 8.54507 14.0559C8.39635 14.0963 8.25804 14.0963 8.11973 14.066H8.10932C7.77023 14.1785 7.53674 14.2722 7.40884 14.353L7.42074 14.3645C7.44156 14.4871 7.42074 14.6414 7.34638 14.8462C7.32407 14.9486 7.32407 15.0207 7.33448 15.0726V15.3293C7.33448 15.4216 7.35679 15.5139 7.38802 15.5759C7.40984 15.6268 7.43115 15.6677 7.45197 15.6985C7.55756 15.7605 7.59028 15.8528 7.52633 15.9753C7.47279 16.0994 7.39843 16.1816 7.29284 16.2219C7.22889 16.232 7.16494 16.232 7.1233 16.2219C7.06976 16.2017 7.00581 16.1811 6.93145 16.1599C6.7515 16.1095 6.62509 15.9652 6.55073 15.7186C6.48678 15.3913 6.46596 15.1231 6.48678 14.9284C6.5076 14.8361 6.51801 14.7539 6.51801 14.6818V14.5895C6.5076 14.539 6.48678 14.4871 6.45555 14.4568C6.43324 14.4049 6.40201 14.3746 6.38119 14.3429C6.30683 14.3429 6.24288 14.3429 6.17893 14.3328C6.10457 14.2924 6.04062 14.2607 5.98857 14.2304C5.98857 14.2405 5.98857 14.2607 5.99898 14.2924C5.99898 14.3948 5.97816 14.5289 5.94544 14.6717C5.89339 14.7957 5.86067 14.9082 5.87108 15.0106C5.86067 15.0827 5.86067 15.1548 5.85026 15.2269C5.82944 15.2875 5.81903 15.3495 5.82944 15.4216C5.82944 15.4937 5.80713 15.5658 5.7759 15.648C5.73327 15.7297 5.71195 15.822 5.71195 15.9249C5.71195 15.9753 5.69113 16.0575 5.6599 16.1599C5.532 16.4584 5.45764 16.6949 5.42641 16.8694C5.38328 16.9819 5.30892 17.0944 5.21374 17.1982C5.06502 17.3213 4.9272 17.3929 4.8003 17.4131C4.69471 17.4232 4.57722 17.3929 4.4508 17.341C4.34373 17.2588 4.26937 17.1665 4.23813 17.0641C4.21731 16.9617 4.2069 16.8593 4.21731 16.7555C4.24904 16.6536 4.28077 16.5613 4.31249 16.4786C4.36455 16.4166 4.43891 16.3243 4.52368 16.1917C4.66199 16.0373 4.73635 15.9032 4.73635 15.8008C4.74676 15.7186 4.77948 15.6581 4.81071 15.6264C4.88507 15.4418 4.93811 15.2778 4.96984 15.1346C5.02338 15.0308 5.0442 14.9385 5.0442 14.8563C5.0442 14.539 5.10815 14.2304 5.24497 13.9333C5.31933 13.7473 5.33123 13.5728 5.27769 13.3882C5.29851 13.2555 5.30892 13.1633 5.30892 13.1012C5.35205 12.9772 5.37287 12.8647 5.36246 12.7422C5.33123 12.546 5.31933 12.3614 5.35205 12.187C5.36246 12.0341 5.36246 11.7457 5.31933 11.3044C5.29851 11.0477 5.22415 10.853 5.11856 10.7088C4.96984 10.504 4.88507 10.2372 4.87466 9.91854C4.83202 9.58974 4.88507 9.29219 5.03379 9.02588C5.1721 8.70718 5.30892 8.52259 5.43682 8.46058C5.62718 8.36828 5.79672 8.36828 5.94544 8.47067C5.93503 8.46058 5.93503 8.46058 5.94544 8.46058C5.97816 8.45048 6.04062 8.45048 6.11498 8.46058C6.16852 8.46058 6.24288 8.46058 6.33806 8.45048C6.52842 8.38847 6.72027 8.36828 6.90022 8.39857C7.03853 8.43029 7.13371 8.44039 7.21848 8.40866C7.38802 8.32646 7.52633 8.29618 7.60069 8.32646C7.65275 8.338 7.7167 8.32646 7.79106 8.28608C7.99331 8.20388 8.16286 8.19379 8.31157 8.23417C8.47071 8.27599 8.62984 8.27599 8.78897 8.24426C9.04328 8.20388 9.26636 8.20388 9.45672 8.23417C9.57272 8.24426 9.66939 8.2558 9.74226 8.24426C9.83893 8.24426 9.91329 8.26589 9.96534 8.31637C10.0605 8.36828 10.1453 8.39857 10.2524 8.38847C10.3907 8.37838 10.4963 8.38847 10.581 8.43029C10.6866 8.48077 10.761 8.54278 10.7937 8.59469C10.8354 8.68699 10.9201 8.75861 11.048 8.80956C11.2592 8.92205 11.3975 9.09654 11.4719 9.34314C11.5036 9.47677 11.5036 9.6205 11.4719 9.77433C11.4511 9.87672 11.4079 9.94882 11.344 10.0007C11.2815 10.0627 11.2488 10.1334 11.2384 10.2156C11.228 10.3079 11.2176 10.3598 11.1848 10.3901C11.1432 10.4824 11.1328 10.5646 11.164 10.6367C11.1848 10.7088 11.1848 10.791 11.164 10.9035C11.112 11.1703 11.1001 11.4587 11.1224 11.7558C11.1224 11.9519 11.0897 12.1148 11.0376 12.249C11.0153 12.3211 11.0153 12.4235 11.048 12.546C11.0688 12.6499 11.0688 12.7724 11.0376 12.9167C11.0049 13.0397 11.0049 13.1628 11.0376 13.2858C11.0897 13.5843 11.112 13.8511 11.0793 14.066C11.0257 14.4352 11.048 14.7034 11.1328 14.8779C11.2919 15.3394 11.3767 15.7086 11.3871 15.997C11.4079 16.2537 11.4406 16.4483 11.4927 16.6228ZM8.49153 15.472C8.55548 15.462 8.67148 15.4418 8.8202 15.4418C8.95851 15.4317 9.0641 15.4115 9.11764 15.3798C9.28718 15.3288 9.45672 15.3495 9.62626 15.4418C9.76457 15.5139 9.84934 15.6364 9.87016 15.8008C9.88057 15.9854 9.82852 16.1095 9.70062 16.1816C9.54149 16.2739 9.31841 16.3041 9.04328 16.2739C8.95851 16.2537 8.91538 16.2537 8.90497 16.2638C8.85143 16.2739 8.79938 16.2739 8.74584 16.2739C8.68189 16.2739 8.61794 16.2839 8.5763 16.3142C8.42758 16.3661 8.23722 16.3561 8.01414 16.3041C7.89665 16.232 7.83418 16.1296 7.82377 16.0071C7.83418 15.9148 7.86542 15.8225 7.91895 15.7186C8.01414 15.6062 8.11973 15.5442 8.25804 15.5442C8.35322 15.5139 8.43799 15.4937 8.49153 15.472ZM10.1884 11.4991C10.242 11.4486 10.2836 11.4068 10.3163 11.3563V11.1919C10.3044 11.0174 10.3163 10.8631 10.358 10.7391C10.3788 10.6064 10.3907 10.4016 10.3788 10.1334C10.358 9.90844 10.2524 9.70222 10.0724 9.49744C9.60544 9.10808 9.22323 8.96387 8.91538 9.06626C8.74584 9.11817 8.53317 9.10808 8.25804 9.05616C7.89665 8.97396 7.55756 9.01434 7.21848 9.15855C7.05935 9.22056 6.94335 9.25085 6.86899 9.24075C6.79463 9.23066 6.73068 9.23066 6.66673 9.24075C6.6355 9.25085 6.61319 9.25085 6.60278 9.26094C6.31724 9.37487 6.12539 9.46716 6.0198 9.54936C6.00939 9.56955 5.99898 9.58974 5.99898 9.62002C5.86067 9.88825 5.78631 10.0829 5.79672 10.1853C5.83985 10.442 5.86067 10.6165 5.87108 10.7189C5.86067 10.9655 5.89339 11.1703 5.99898 11.3145V11.3347L6.0198 11.3462C6.16852 11.4688 6.29642 11.5611 6.41242 11.6332C6.42283 11.6433 6.44365 11.6635 6.45555 11.6635C6.56065 11.6327 6.65583 11.6226 6.74109 11.6332C6.85858 11.6534 6.98499 11.6534 7.11289 11.6332C7.21848 11.6029 7.33448 11.6029 7.44156 11.6231C7.57987 11.6433 7.68546 11.6231 7.77024 11.5611C7.86542 11.5308 8.01414 11.5207 8.22681 11.5308H8.23722C8.32199 11.4789 8.37404 11.4486 8.41717 11.4068C8.43799 11.3765 8.47071 11.3462 8.50194 11.3145C8.51235 11.264 8.53317 11.2121 8.56589 11.1818C8.59712 11.1198 8.62984 11.0477 8.65066 10.9453C8.65066 10.8732 8.64025 10.7708 8.61794 10.6468C8.60753 10.5545 8.60753 10.4723 8.61794 10.4218C8.68189 10.2776 8.72502 10.155 8.73543 10.0627C8.73543 9.8772 8.80979 9.73347 8.95851 9.63156C9.12805 9.50754 9.25446 9.45707 9.36154 9.47725C9.45672 9.49744 9.53108 9.56955 9.58313 9.67194C9.64708 9.80605 9.6798 9.95891 9.66939 10.1233C9.64708 10.2473 9.61585 10.3699 9.58313 10.4723C9.53108 10.5862 9.46713 10.6886 9.38236 10.7809C9.28718 10.8833 9.24405 11.0376 9.23364 11.2323C9.22323 11.2741 9.21282 11.3145 9.21282 11.3664C9.23364 11.3866 9.26636 11.4169 9.28718 11.4486C9.29759 11.4486 9.308 11.4587 9.308 11.4789C9.41359 11.4688 9.5519 11.4789 9.71103 11.4991C9.85975 11.5207 9.99806 11.5207 10.1245 11.5092C10.1349 11.5092 10.1572 11.5207 10.1676 11.5207C10.1716 11.5121 10.1755 11.5053 10.1795 11.5005C10.178 11.5034 10.1795 11.5034 10.1884 11.4991ZM10.1795 11.5005C10.181 11.4962 10.1884 11.489 10.1884 11.489C10.1884 11.489 10.184 11.4933 10.1795 11.5005ZM7.59028 13.1834C7.59028 13.1633 7.59028 13.1315 7.60069 13.1113C7.6111 13.019 7.60069 12.9469 7.57987 12.8748V12.5778C7.55756 12.546 7.52633 12.5258 7.49362 12.5158C7.39843 12.4653 7.29284 12.4235 7.16494 12.3932H7.15453C7.01771 12.4653 6.90022 12.5057 6.81545 12.5158C6.72027 12.5258 6.62509 12.5359 6.54032 12.5359C6.49719 12.5576 6.47637 12.5677 6.46596 12.5677C6.36929 12.6181 6.31724 12.6801 6.27411 12.7321C6.23247 12.7724 6.19975 12.8244 6.17893 12.8748C6.16852 13.0392 6.1477 13.1633 6.11498 13.2555C6.06293 13.3579 6.04062 13.4704 6.05103 13.6045C6.1477 13.5021 6.2637 13.43 6.42283 13.3983C6.56114 13.3478 6.66673 13.3377 6.7515 13.3377C6.84668 13.3579 6.94236 13.3579 7.03853 13.3377C7.13371 13.3161 7.21848 13.3161 7.30325 13.3377H7.33448C7.44156 13.2858 7.53674 13.2339 7.59028 13.1834ZM6.80504 9.98055C6.84668 9.95891 6.8794 9.91854 6.90022 9.87672C6.91063 9.81615 6.9954 9.78442 7.17535 9.79596C7.30325 9.80605 7.40884 9.84643 7.4832 9.92863C7.56798 10.0512 7.62151 10.1651 7.64233 10.2877C7.65275 10.3396 7.67505 10.4016 7.70629 10.442C7.7167 10.4824 7.7167 10.5343 7.70629 10.5862C7.72711 10.6987 7.74941 10.7809 7.75982 10.8328C7.77023 10.8934 7.75982 10.9756 7.7167 11.078C7.65275 11.2121 7.59028 11.2943 7.50551 11.3145C7.43115 11.3462 7.32407 11.3044 7.20807 11.1818C7.02812 11.0679 6.93145 10.9554 6.91063 10.8328C6.82586 10.6468 6.78422 10.5242 6.77232 10.4521C6.77232 10.4016 6.76191 10.3194 6.73068 10.1853C6.7515 10.0627 6.77232 9.99064 6.80504 9.98055ZM16.8288 8.16351C16.5849 8.1015 16.4674 7.97747 16.4674 7.80298C16.457 7.62849 16.5209 7.49581 16.6592 7.39343C16.8184 7.26941 17.0087 7.1973 17.2422 7.18721C17.38 7.17759 17.5282 7.15692 17.6869 7.1252C17.8991 7.04348 18.1435 7.00262 18.4201 7.00262C18.7592 6.99252 19.0239 7.01271 19.2261 7.04444C19.4804 7.10501 19.7556 7.1252 20.0322 7.09491C20.4665 7.04444 20.8487 7.08482 21.1773 7.23912C21.2621 7.30113 21.3781 7.32132 21.5372 7.31123C21.7187 7.32132 21.8882 7.39343 22.0682 7.53619C22.2704 7.66021 22.3864 7.7626 22.3968 7.86499C22.4073 7.95729 22.4504 8.03948 22.5352 8.11159C22.6407 8.22407 22.6943 8.43029 22.6839 8.71727C22.7047 8.86148 22.7463 8.98406 22.7999 9.08645C22.8633 9.18932 22.8951 9.35372 22.8951 9.57964V10.2978C22.8846 10.6367 22.7999 10.8732 22.6407 11.0275C22.5138 11.2121 22.3126 11.3558 22.0369 11.4587C21.8347 11.5712 21.5804 11.613 21.2517 11.5813C21.0286 11.5712 20.8383 11.5712 20.6791 11.6029C20.4977 11.6635 20.3281 11.6736 20.169 11.6231C20.0218 11.5611 19.8731 11.551 19.7139 11.6029C19.5325 11.6952 19.363 11.6952 19.2038 11.6231C19.0878 11.5712 18.9599 11.5712 18.8335 11.6029C18.7904 11.7457 18.7383 11.8798 18.664 12.0125C18.5896 12.1264 18.4825 12.2288 18.3338 12.3312C18.2609 12.3932 18.197 12.4537 18.133 12.5359C18.0795 12.66 17.9947 12.7321 17.8996 12.7623C17.7836 12.8027 17.6869 12.8647 17.6021 12.9368C17.4653 13.0811 17.3062 13.1834 17.1143 13.2339C16.9765 13.2964 16.8387 13.3685 16.7009 13.4502C16.5849 13.5425 16.4153 13.5843 16.1818 13.5944C15.9796 13.6045 15.81 13.655 15.6613 13.7473C15.5022 13.8194 15.3862 13.8511 15.3014 13.841C15.2062 13.8295 15.12 13.841 15.0679 13.8612C14.8657 13.9333 14.6649 13.9434 14.4626 13.8814C14.2931 13.8295 14.2083 13.779 14.1979 13.7271C14.1875 13.6651 14.1667 13.6247 14.134 13.6146C14.1022 13.5944 14.0809 13.543 14.07 13.4603C14.0596 13.3377 14.0923 13.2238 14.1771 13.1214C14.2515 13.0493 14.3675 12.9888 14.5162 12.9469C14.6753 12.9066 14.8344 12.9066 14.9832 12.9368C15.0887 12.957 15.2271 12.9671 15.3862 12.9671C15.5453 12.9469 15.6821 12.9066 15.8204 12.8345C15.9483 12.7422 16.0852 12.6902 16.2443 12.6801C16.4034 12.66 16.5417 12.5879 16.6696 12.4855C16.7856 12.4033 16.9135 12.3413 17.04 12.3211C17.2318 12.2288 17.3909 12.1148 17.5173 11.9721C17.5709 11.8798 17.614 11.7976 17.6661 11.7457C17.4549 11.6837 17.263 11.6952 17.0831 11.7659C16.9552 11.8178 16.7648 11.7976 16.4897 11.7154C16.2027 11.6433 16.0227 11.5409 15.9692 11.4169C15.9483 11.2943 15.8532 11.1703 15.694 11.0679C15.5661 10.9958 15.523 10.8328 15.5453 10.5862C15.5349 10.2055 15.5126 9.90844 15.4814 9.66184C15.4382 9.51763 15.4382 9.37487 15.471 9.23066C15.4814 9.13836 15.4918 9.03597 15.4814 8.93214C15.471 8.71727 15.5126 8.52259 15.5974 8.35819C15.6509 8.23417 15.7253 8.15197 15.81 8.0914C15.8844 8.02939 15.9692 8.0092 16.0435 7.99911C16.1387 8.0193 16.2339 8.03948 16.3082 8.06977C16.3826 8.13226 16.4357 8.22503 16.4674 8.34809C16.5209 8.49086 16.5417 8.71727 16.5001 9.04607C16.4466 9.42534 16.4361 9.72385 16.4674 9.91854C16.5209 10.1752 16.5849 10.3497 16.6696 10.4521C16.7648 10.6165 16.924 10.729 17.1366 10.791C17.443 10.8732 17.7836 10.8732 18.1539 10.7708C18.6313 10.6367 19.1086 10.6165 19.5548 10.7189C19.8403 10.7809 20.1066 10.7708 20.3281 10.6987C20.5512 10.6367 20.8055 10.6064 21.0822 10.6165C21.3157 10.6468 21.506 10.5862 21.6443 10.4319C21.7499 10.3497 21.8451 10.2055 21.9195 9.99064C21.9522 9.75414 21.9299 9.53926 21.8555 9.36333C21.793 9.20037 21.7707 9.05616 21.7707 8.93214C21.7608 8.85042 21.74 8.75813 21.7083 8.65526C21.6116 8.53268 21.5491 8.45048 21.5491 8.40866C21.5164 8.31637 21.4748 8.24426 21.4108 8.21398C21.3261 8.18369 21.2413 8.14187 21.1878 8.0914C21.103 7.98901 20.7312 7.91691 20.053 7.88518C19.586 7.89528 19.2038 7.88518 18.8975 7.8549C18.4825 7.7727 18.1018 7.81308 17.7404 7.98901C17.4013 8.16351 17.1039 8.21398 16.8288 8.16351ZM18.4721 8.94368C18.78 8.88167 19.0982 8.87157 19.4061 8.93214C19.65 8.99415 19.8508 9.00425 20.0426 8.95377C20.2657 8.90186 20.456 8.91195 20.6048 8.99415C20.7535 9.09654 20.8278 9.24075 20.8383 9.41524C20.8055 9.57964 20.7312 9.69213 20.6256 9.75414C20.4769 9.81615 20.3386 9.82624 20.2017 9.76423C19.9474 9.70222 19.7139 9.69213 19.5221 9.75414C19.2782 9.83634 19.0551 9.84643 18.8543 9.76423C18.6521 9.71376 18.3665 9.73395 18.0275 9.81615C17.7717 9.89835 17.5501 9.89835 17.3686 9.81615C17.2318 9.71376 17.1783 9.57964 17.1783 9.43543C17.1991 9.29267 17.2526 9.16865 17.3686 9.06626C17.4757 8.96387 17.6244 8.93214 17.8044 8.99415C17.9531 9.03597 18.1866 9.02588 18.4721 8.94368ZM20.8799 17.9063C20.6791 17.9885 20.52 18.0188 20.4025 17.9885C20.2657 17.9366 20.1482 17.9164 20.0634 17.9063C19.8939 17.8861 19.7764 17.8342 19.7348 17.752C19.703 17.6597 19.65 17.5775 19.5756 17.5054C19.5013 17.4439 19.4586 17.3722 19.4477 17.2905C19.4269 17.2285 19.3957 17.1665 19.3525 17.116C19.2574 16.992 19.2142 16.8694 19.2038 16.7454C19.1939 16.6118 19.2261 16.5195 19.3005 16.4685C19.4165 16.3863 19.5652 16.3964 19.7452 16.4887C19.8299 16.5305 19.9251 16.6027 20.0322 16.6848C20.0947 16.7151 20.1482 16.7353 20.2017 16.7353C20.3609 16.7872 20.5944 16.767 20.9007 16.6848C21.2933 16.6127 21.5491 16.5205 21.6651 16.4166C21.7083 16.3561 21.7603 16.3142 21.8347 16.3142C22.0042 16.2421 22.1961 16.0792 22.4073 15.8326C22.4816 15.7287 22.5456 15.648 22.6095 15.5961C22.7582 15.4519 22.8846 15.2154 22.9798 14.8981C23.0438 14.5592 23.0438 14.3227 22.9694 14.1785C22.8846 13.9218 22.7151 13.6968 22.492 13.4906C22.4504 13.4704 22.4177 13.4502 22.376 13.4401C22.2585 13.4502 22.1738 13.4502 22.1217 13.4603C21.9938 13.4805 21.8986 13.5021 21.8243 13.5122C21.7395 13.5324 21.6756 13.5425 21.622 13.5425C21.57 13.5324 21.5372 13.4603 21.4956 13.306C21.4421 13.1416 21.39 13.0089 21.3365 12.8849C21.3038 12.8345 21.2829 12.8027 21.2725 12.7724C21.219 12.7623 21.1773 12.7623 21.1134 12.7623C20.9007 12.722 20.7535 12.722 20.6687 12.7523C20.5096 12.7926 20.3921 12.8027 20.3073 12.7724H20.2865C20.2434 12.8965 20.1482 12.9989 19.9891 13.0911C19.8939 13.1416 19.8195 13.2137 19.766 13.2959C19.5964 13.43 19.4373 13.5526 19.2782 13.655C19.1622 13.717 19.0551 13.7992 18.9822 13.9016C18.8018 14.0554 18.6427 14.1684 18.5048 14.2405C18.4201 14.2823 18.3338 14.3429 18.2609 14.4251C18.133 14.5491 18.0051 14.6414 17.8787 14.7135C17.7717 14.764 17.6765 14.826 17.5917 14.9284C17.5069 15.0207 17.3805 15.0928 17.1887 15.1447C17.0935 15.1851 16.9775 15.2673 16.8496 15.3798C16.744 15.4418 16.5745 15.524 16.341 15.6163C16.0331 15.7504 15.8204 15.8225 15.694 15.8225C15.6301 15.8109 15.5126 15.8629 15.3535 15.9652C15.1839 16.0792 15.004 16.1397 14.8344 16.1498C14.6218 16.1715 14.4522 16.1397 14.3466 16.0676C14.1979 15.9753 14.1027 15.8528 14.07 15.6783C14.0492 15.5658 14.1131 15.4418 14.2619 15.2976C14.3987 15.1649 14.5697 15.1029 14.7705 15.0928C15.1319 15.0625 15.3758 15.0005 15.5022 14.9284C15.587 14.8779 15.7149 14.8462 15.8948 14.8058C16.3187 14.6717 16.5953 14.5491 16.7113 14.4467C16.7856 14.3645 16.8927 14.3025 17.0191 14.2506C17.1366 14.2001 17.2318 14.128 17.3166 14.0458C17.4757 13.9434 17.6021 13.8713 17.7092 13.8194C17.8891 13.717 18.1122 13.5944 18.3665 13.4401C18.5792 13.306 18.716 13.2036 18.8008 13.1532C18.8647 13.0811 18.9391 13.019 19.0239 12.957C19.2038 12.8647 19.3734 12.7523 19.5325 12.6398L19.5221 12.6282C19.4061 12.5677 19.3525 12.4436 19.3525 12.2692C19.363 12.1048 19.4596 11.9822 19.6396 11.9101C19.8195 11.8582 19.9891 11.8279 20.1482 11.838C20.3078 11.8485 20.4774 11.8692 20.6568 11.9C20.8487 11.962 20.9974 11.9822 21.0926 11.9519C21.1565 11.9303 21.2517 11.9202 21.3573 11.9303C21.4525 11.9822 21.5695 12.0028 21.7083 11.9923C21.793 11.9721 21.8882 12.0024 21.9938 12.0745C22.1738 12.2086 22.3656 12.3009 22.5664 12.3715C22.7463 12.4436 22.8638 12.5359 22.9174 12.6398C23.0334 12.7623 23.1925 12.9066 23.4052 13.0594C23.5003 13.1214 23.542 13.2137 23.5539 13.3377C23.6059 13.43 23.6699 13.5425 23.7442 13.6968C23.829 13.7891 23.8602 13.9016 23.8498 14.0357C23.8707 14.128 23.9034 14.2203 23.9673 14.2823C24.009 14.3429 24.009 14.415 23.9777 14.4871C23.9242 14.5693 23.9242 14.6818 23.9569 14.8058C24.009 14.8981 23.9881 15.0726 23.8826 15.3495C23.8707 15.4115 23.8602 15.4937 23.8602 15.5961C23.8602 15.7287 23.7755 15.9249 23.6268 16.1599C23.4156 16.3964 23.2773 16.5205 23.2029 16.5305C23.1494 16.5709 23.0869 16.643 23.0438 16.7454C22.9174 16.8997 22.7255 17.0641 22.4712 17.2083C21.9626 17.5472 21.6116 17.7318 21.4317 17.7621C21.2725 17.7722 21.0822 17.8241 20.8799 17.9063ZM17.5173 16.0575C17.6021 15.9652 17.7092 15.883 17.846 15.8326C17.9739 15.7807 18.0795 15.6985 18.1866 15.6062C18.3561 15.4836 18.5048 15.4014 18.6104 15.3394C18.8008 15.2269 19.0343 15.0827 19.3213 14.9082C19.5444 14.7539 19.7035 14.6414 19.8091 14.5895C19.8627 14.4972 19.9474 14.415 20.0426 14.3645C20.2761 14.2304 20.4977 14.0761 20.6999 13.9016C20.8695 13.7891 21.0078 13.7473 21.1342 13.779C21.3261 13.8295 21.4212 13.9333 21.4108 14.1078C21.3781 14.2607 21.2725 14.3948 21.0822 14.4972C20.987 14.5491 20.9126 14.6313 20.8383 14.7337C20.6464 14.888 20.4769 15.0207 20.3177 15.1447C20.1794 15.2053 20.0738 15.3091 19.9891 15.4317C19.7987 15.6062 19.6292 15.7287 19.47 15.8008C19.4269 15.883 19.4061 15.9652 19.3957 16.0676C19.3639 16.2013 19.3426 16.2734 19.3317 16.2839C19.2678 16.2739 19.1934 16.2739 19.1191 16.2839C19.067 16.294 18.9822 16.3041 18.8752 16.3041C18.8439 16.3041 18.8231 16.3041 18.8112 16.3142C18.8008 16.3142 18.7904 16.3142 18.7904 16.3243C18.6744 16.3964 18.5792 16.4887 18.4929 16.5911C18.4082 16.6733 18.2609 16.7555 18.0587 16.8276C17.9427 16.8795 17.8148 16.9617 17.6869 17.0944C17.5813 17.1766 17.4013 17.2689 17.1366 17.3727C16.7961 17.5357 16.5626 17.6179 16.4257 17.6179C16.3514 17.6078 16.2235 17.6698 16.0539 17.7823C15.8532 17.9063 15.6613 17.9784 15.4814 17.9885C15.2479 18.0087 15.0679 17.9885 14.9504 17.9164C14.7913 17.8241 14.6857 17.6799 14.6441 17.4852C14.6218 17.3511 14.6857 17.2083 14.8448 17.054C14.9936 16.9098 15.1839 16.8377 15.407 16.8276C15.7887 16.7767 16.0539 16.705 16.2027 16.6127C16.2978 16.5507 16.4466 16.4988 16.6473 16.4685C17.0935 16.3041 17.3909 16.1599 17.5173 16.0575Z" fill="black"/>
</svg>
