<svg width="20" height="20" viewBox="0 0 20 20" fill="none" xmlns="http://www.w3.org/2000/svg">
<path d="M14.4512 12.0876C14.5868 12.1421 14.7877 12.1773 15.054 12.1935V12.3074H12.0484V12.1935C12.3142 12.1773 12.5157 12.1421 12.6513 12.0876C12.7868 12.0336 12.8808 11.9466 12.9322 11.8267C12.9835 11.7073 13.0094 11.5306 13.0094 11.2973V7.66396H12.9851L10.9243 12.4133H10.9L8.6922 7.68071H8.66789V11.2973C8.66789 11.5306 8.6949 11.7073 8.74946 11.8267C8.80348 11.9461 8.89747 12.033 9.03036 12.0876C9.16325 12.1421 9.36312 12.1773 9.62889 12.1935V12.3074H7.33578V12.1935C7.60156 12.1773 7.80143 12.1421 7.93431 12.0876C8.0672 12.0336 8.16119 11.9466 8.21521 11.8267C8.26923 11.7073 8.29678 11.5306 8.29678 11.2973V7.65586C8.29678 7.4225 8.26977 7.24586 8.21521 7.12648C8.16065 7.00709 8.0672 6.92012 7.93431 6.86556C7.80089 6.81154 7.60156 6.77589 7.33578 6.75969V6.64571H9.39283L11.2716 10.7474L13.0937 6.64571H15.054V6.75969C14.7877 6.77589 14.5868 6.81154 14.4512 6.86556C14.3156 6.92012 14.2205 7.00817 14.1659 7.13026C14.1114 7.25234 14.0844 7.42736 14.0844 7.65586V11.2973C14.0844 11.5306 14.1114 11.7073 14.1659 11.8267C14.2205 11.9466 14.3156 12.033 14.4512 12.0876ZM18.279 11.9558C17.0776 11.9639 16.1247 10.998 16.1247 9.43093C16.1247 7.7747 17.0122 6.80884 18.0272 6.80884C19.0422 6.80884 19.4776 7.72339 19.6997 8.62172L19.8623 8.61902V6.96604C19.4809 6.75483 18.8553 6.5166 17.9462 6.5166C16.1927 6.5166 14.8693 7.79955 14.8693 9.5125C14.8693 11.1444 15.9734 12.4349 17.8733 12.4268C18.9207 12.4187 19.651 11.7937 20 11.3146L19.8866 11.193C19.651 11.461 19.18 11.9477 18.279 11.9558ZM4.86333 9.83931V11.2973C4.86333 11.5252 4.89574 11.7003 4.96111 11.8229C5.02647 11.945 5.13505 12.0336 5.28684 12.0876C5.43863 12.1421 5.66984 12.1773 5.97936 12.1935V12.3074H2.82682V12.1935C3.09259 12.1773 3.29246 12.1421 3.42535 12.0876C3.55823 12.0336 3.65223 11.9466 3.70624 11.8267C3.76026 11.7073 3.78781 11.5306 3.78781 11.2973V7.68071C3.78781 6.93579 3.45127 6.78454 2.94025 6.78454C2.37954 6.78454 2.03652 6.93525 2.03652 7.6564V11.703C2.03652 12.6175 1.44231 13.4872 0.269015 13.4872C0.178263 13.4872 0.0885912 13.4818 0 13.4715V13.3738C0.278738 13.357 0.504538 13.2625 0.676318 13.088C0.866465 12.8952 0.961538 12.5792 0.961538 12.1389V7.65586C0.961538 7.4279 0.934529 7.25234 0.87997 7.13026C0.825411 7.00817 0.730337 6.92012 0.594749 6.86556C0.459162 6.81154 0.260912 6.77589 0 6.75969V6.64571H5.56666C6.83287 6.64571 7.61668 7.27881 7.61668 8.23441C7.61668 9.32829 6.54224 9.83931 5.58178 9.83931H4.86333ZM4.86333 9.62053H5.25173C5.91238 9.62053 6.46824 9.23376 6.46824 8.24251C6.46824 7.03086 5.66822 6.86448 5.27172 6.86448H4.86333V9.62053Z" fill="white"/>
</svg>
