<svg width="20" height="20" viewBox="0 0 20 20" fill="none" xmlns="http://www.w3.org/2000/svg">
<g clip-path="url(#clip0_822_4880)">
<path d="M10 0.719238C4.45 0.719238 0 5.20924 0 10.8167C0 11.6467 0.0316667 11.9617 0.205 12.7584L3.25667 15.0167L3.73167 18.7792H8.81667L9.08833 18.9684C9.4025 19.1867 9.67583 19.2809 9.99 19.2809C10.2833 19.2809 10.6 19.1967 10.8433 19.0201L11.1683 18.7792H16.2467L16.7158 15.0167L19.795 12.7584C19.9683 11.9617 20 11.6467 20 10.8167C20 5.21007 15.5508 0.719238 10 0.719238ZM10.83 2.60091C11.58 2.60091 12.3117 2.78757 12.9233 3.14174L10.8692 13.5984L13.7192 3.54674C14.6017 3.84674 15.2717 4.3309 15.8092 5.0584L15.83 5.08674L11.745 13.9326L16.3883 5.83841L16.4158 5.8634C17.0475 6.4534 17.455 7.16924 17.6592 8.07007L12.4967 14.4584L17.86 9.04174L17.8683 9.05924C18.0792 9.52841 18.2158 10.1926 18.2158 10.7226C18.2158 11.1467 18.1958 11.3159 18.0792 11.7642L15.1175 13.9326L14.7283 17.0242H10.9992L10.5683 17.3534C10.4025 17.4851 10.1667 17.5751 10 17.5751C9.83417 17.5751 9.5975 17.4851 9.43167 17.3534L9.00083 17.0251H5.26833L4.8975 14.0167L1.875 11.7951C1.78333 11.4317 1.74167 11.1034 1.74167 10.7442C1.74167 10.1442 1.87417 9.50257 2.09667 9.03341L2.1075 9.0134L7.4825 14.4726L2.29167 8.01757C2.5 7.13174 3.02 6.27591 3.65833 5.75674L8.27667 13.9034L4.14917 5.08341C4.61167 4.40507 5.3575 3.8709 6.27083 3.5609L9.12417 13.6184L6.9625 3.18007L7.00833 3.15507C7.68667 2.78007 8.34 2.60757 9.05583 2.60757C9.21833 2.60757 9.29417 2.6109 9.49583 2.63257L9.985 13.5076L10.3683 2.62507C10.555 2.60424 10.6258 2.60091 10.83 2.60091Z" fill="white"/>
</g>
<defs>
<clipPath id="clip0_822_4880">
<rect width="20" height="20" fill="white"/>
</clipPath>
</defs>
</svg>
