<svg width="20" height="20" viewBox="0 0 20 20" fill="none" xmlns="http://www.w3.org/2000/svg">
<path d="M15.065 0C15.2369 0.0343768 15.9932 0.275014 15.9932 0.275014C15.9932 0.275014 16.7151 1.34069 16.9214 1.58133C17.0933 1.82197 17.0245 1.95948 17.0245 1.95948L16.6807 3.26579C16.5432 3.16266 15.5807 3.23142 15.34 3.26579C15.0994 3.30017 15.5463 2.99078 15.6494 2.88765C15.7526 2.78452 16.1651 2.47513 16.1307 2.33762C16.0963 2.16574 15.4432 0.96255 15.4432 0.96255C15.4432 0.96255 14.3431 0.96255 13.8275 1.0313C13.3118 1.10006 12.2117 2.20011 12.2117 2.20011L11.7992 3.78145C11.7992 3.78145 11.9711 4.05646 12.1774 4.26272C12.418 4.43461 13.0712 4.40023 13.3118 4.36585C13.5524 4.33148 13.4493 4.64087 13.243 4.81275C13.0368 4.98463 12.2805 4.98463 12.2805 4.98463L12.5899 5.08777C12.9337 5.39716 13.5524 7.01287 13.9306 7.39101C14.3087 7.76916 13.9306 9.6255 13.3806 10.1755C12.8305 10.7256 12.5899 11.86 12.2805 12.1694C11.9711 12.4788 11.6273 12.3756 11.9711 12.7194C12.3149 13.0632 12.143 13.4757 12.2117 13.7507C12.2461 13.957 12.3149 14.3007 12.4524 14.4383C12.6243 14.6101 15.0994 16.329 16.0619 16.3977C16.2338 16.3977 16.2338 17.2915 15.2369 18.3572C15.2369 18.3572 15.065 18.976 13.3462 19.0447C11.4898 19.1135 9.66786 18.8041 9.25534 18.8041C8.84282 18.8041 7.60526 18.1166 7.60526 18.1166C7.36462 18.1166 3.75506 12.7538 3.75506 12.3756C3.75506 11.9975 3.48004 11.0006 3.48004 10.6224C3.48004 10.2443 3.92694 6.84098 3.85819 6.42846C3.78943 6.11907 3.96132 6.01594 4.33946 5.67217C4.71761 5.29403 5.37077 4.67524 5.64578 4.40023C5.74891 4.2971 6.64271 4.2971 7.74276 4.09084L7.91465 4.02208L7.70839 3.91895C7.70839 3.91895 7.36462 3.47206 6.81459 3.50643C6.26456 3.54081 6.0583 3.57519 6.36769 3.43768C6.64271 3.30017 7.19274 2.92203 7.19274 2.92203L8.4303 3.47206H9.08346L10.2523 2.50951L12.8993 0.378145L15.065 0ZM6.88334 6.77223C6.57395 6.84098 6.0583 6.73785 5.81766 7.18475L5.40514 9.14423C5.40514 9.14423 5.43952 11.1037 5.50827 11.4818C5.54265 11.86 6.0583 13.1319 6.33332 13.4069C6.57395 13.6476 6.81459 14.4726 7.26149 14.9195C7.36462 15.0227 7.63963 15.0914 7.70839 15.2289C7.88027 15.4696 8.05216 15.2977 7.70839 14.8164C6.5052 13.0288 6.23018 11.4818 6.19581 11.2412C6.0583 10.6568 6.16143 9.31611 6.19581 8.76608C6.23018 8.49107 6.40207 7.83791 6.60833 7.7004C6.71146 7.63165 7.5365 7.52852 7.67401 7.49414C7.94902 7.42539 8.29279 7.42539 8.53343 7.39101C9.28972 7.21913 10.4242 7.63165 10.5273 7.66602C11.6617 8.18168 11.2148 8.38794 11.2492 8.42231C11.2836 8.49107 9.66786 11.6881 9.66786 11.86C9.66786 12.0319 9.73662 13.6132 9.87413 14.0601C9.9085 14.1976 10.4242 15.4008 10.5273 15.6414C10.9398 16.604 9.66786 15.4696 9.59911 15.4352C9.53036 15.4008 8.12091 12.5475 7.88027 11.9287C7.70839 11.5162 7.77714 10.8974 7.81152 10.7943C7.84589 10.6224 7.74276 9.24736 7.9834 9.0411C8.15528 8.90359 8.67094 8.83484 9.04908 9.00672C9.39285 9.14423 9.56473 9.52237 9.53036 9.6255C9.49598 9.69425 8.98033 11.4475 8.8772 11.31C8.84282 11.2756 8.84282 10.7256 8.77407 10.6568C8.67094 10.5537 8.53343 10.4849 8.49905 10.5537C8.46468 10.6224 8.36155 11.2068 8.39592 11.4131C8.63656 12.3756 8.94595 12.0663 9.04908 11.8944C9.22097 11.6194 9.97726 9.48799 9.94288 9.35049C9.9085 9.0411 9.66786 8.49107 9.18659 8.31918C8.8772 8.21605 7.88027 8.28481 7.50213 8.45669C6.9521 8.73171 6.98647 11.2068 7.08961 11.5506C7.19274 11.8944 8.63656 14.782 8.70531 14.9883C8.8772 15.4352 9.9085 16.4321 10.046 16.5352C10.1148 16.5696 11.5242 17.1196 11.6961 16.8446C11.7648 16.7071 11.7305 16.3977 11.3867 16.1571C11.0429 15.9508 10.2523 13.5788 10.2523 13.4069C10.2523 13.2351 10.046 11.9287 10.1835 11.6537C10.4585 11.1381 12.3836 8.25043 12.1774 8.00979C11.9024 7.7004 11.0429 6.25658 10.6304 6.8066C10.2523 7.28788 8.80844 6.8066 8.36155 6.46284C8.36155 6.49721 7.36462 6.70347 6.88334 6.77223ZM12.4524 17.8759C13.0024 17.8759 14.5494 17.0509 13.9993 16.6727C13.6212 16.4321 13.2087 16.1227 12.418 15.5039C12.0742 15.2289 11.9024 15.2977 11.7992 15.2977C11.4898 15.2977 12.0055 14.782 11.8336 14.3351C11.6273 13.8882 11.5242 13.1663 11.3867 12.9944C11.2148 12.8225 11.2836 11.9631 11.6273 11.6194C12.0055 11.2412 12.5211 10.1755 12.8305 9.76301C13.1743 9.28173 13.4149 8.18168 13.2774 8.04417C13.1399 7.90666 12.4868 6.56597 12.2117 6.29095C12.0399 6.11907 11.7305 5.67217 11.4555 5.29403L11.3867 5.1909L11.0773 5.36278C10.7679 5.53466 10.3898 5.87843 10.3898 5.87843C10.3898 5.87843 10.1148 5.94718 9.53036 5.84405C9.22097 5.7753 9.08346 5.56904 9.08346 5.29403C9.08346 5.01901 8.91157 5.08777 8.91157 5.08777C8.91157 5.08777 6.16143 5.22527 5.92079 5.36278C5.71453 5.50029 4.75198 6.8066 4.75198 6.8066C4.75198 6.8066 4.23633 11.8256 4.64885 12.2381C5.13013 12.7194 7.33024 16.604 7.77714 17.0509C8.25842 17.7384 11.9024 17.8759 12.4524 17.8759Z" fill="white"/>
</svg>
