<svg width="20" height="20" viewBox="0 0 20 20" fill="none" xmlns="http://www.w3.org/2000/svg">
<path d="M10.7181 12.6675C10.4282 12.64 10.2107 12.5238 10.1229 12.3482C10.0842 12.2691 10.0761 12.24 10.068 12.1406V12.0599L10.0212 12.3054C9.99539 12.441 9.96956 12.5738 9.96472 12.6018L9.94857 12.6518H9.67642H9.4041V12.6227C9.42024 12.5808 9.48481 12.2024 9.48481 12.1971C9.48481 12.1971 9.4041 12.1971 9.30596 12.1955H9.12727L9.0853 12.4223L9.04333 12.6492H8.77343C8.54841 12.6492 8.50354 12.6492 8.50354 12.6331C8.50354 12.6331 8.55358 12.3527 8.61653 12.0284C8.67787 11.7041 8.72791 11.4376 8.7263 11.4361C8.7263 11.4345 8.55568 11.7067 8.35083 12.0407L7.9786 12.6481H7.73437C7.60039 12.6481 7.48949 12.6468 7.48885 12.6481C7.4882 12.6466 7.47271 12.4867 7.46463 12.2939C7.44849 12.0626 7.43719 11.9411 7.43074 11.9385C7.43074 11.9369 7.40652 11.9724 7.39038 12.0257C7.37424 12.0757 7.3016 12.237 7.22896 12.3837L7.0966 12.6508H6.85656H6.61669L6.60055 12.6105C6.58441 12.5604 6.31145 11.3608 6.31145 11.3533C6.31145 11.3533 6.4422 11.3533 6.60297 11.3533H6.89466L6.91242 11.6604C6.93824 12.077 6.94309 12.1328 6.95116 12.1328C6.95116 12.1328 6.97214 12.0957 6.98828 12.0505C7.00443 12.0053 7.08513 11.8302 7.16762 11.6608L7.31774 11.3529H7.53808H7.75826L7.78731 11.7185C7.81798 12.1064 7.82283 12.1409 7.83574 12.1257C7.83574 12.1257 7.85673 12.0773 7.87287 12.0305C7.88901 11.9837 7.96488 11.8121 8.04268 11.6495L8.18312 11.354H8.47674C8.63816 11.3524 8.8861 11.3524 9.02751 11.3537H9.28465L9.25075 11.532C9.23138 11.6305 9.21363 11.7286 9.20878 11.7509V11.7913H9.3878H9.56698L9.60894 11.575L9.65091 11.3588H9.92194C10.0704 11.3588 10.193 11.3604 10.193 11.3588C10.193 11.3604 10.1688 11.4896 10.1397 11.6428C10.1106 11.7961 10.0864 11.928 10.0864 11.9348C10.0866 11.9348 10.1026 11.9186 10.1123 11.8847C10.1558 11.7782 10.2059 11.7072 10.3005 11.6173C10.5074 11.4205 10.7868 11.3241 11.1165 11.3357C11.3679 11.3519 11.5353 11.4052 11.6688 11.5366C11.7738 11.6399 11.8077 11.7173 11.8157 11.872V11.9898L11.8738 11.6801C11.9061 11.5098 11.9352 11.3667 11.9384 11.3624C11.9384 11.3624 12.0708 11.3624 12.223 11.3624H12.5001L12.4243 11.7627C12.3823 11.9829 12.3452 12.1811 12.3403 12.2031V12.2434H12.5821C12.7712 12.2434 12.8228 12.2434 12.819 12.2596C12.819 12.2757 12.798 12.3612 12.777 12.4678L12.7415 12.6626H12.2211C11.8017 12.6626 11.7005 12.6626 11.7005 12.6465C11.7005 12.6465 11.7247 12.506 11.7537 12.3516C11.7828 12.1966 11.8054 12.065 11.8022 12.0584C11.8022 12.0584 11.8022 12.0568 11.8022 12.0746C11.8017 12.0907 11.7796 12.1407 11.7537 12.1924C11.6714 12.3558 11.5373 12.4815 11.35 12.5693C11.1673 12.6549 10.9218 12.6985 10.7231 12.6791L10.7181 12.6675ZM11.0443 12.2355C11.2498 12.158 11.314 11.8889 11.1492 11.7926C11.0249 11.7199 10.8464 11.7458 10.7352 11.8507C10.6496 11.933 10.619 12.0539 10.6642 12.1451C10.7174 12.2549 10.8847 12.2952 11.0443 12.2355ZM11.8144 12.0105C11.8139 12.0266 11.8144 12.0282 11.8144 12.0266C11.8144 12.0266 11.8144 12.0105 11.8154 12.0056L11.8144 12.0105ZM10.0848 11.9572C10.0843 11.9734 10.0848 11.975 10.0848 11.9734C10.0848 11.9734 10.0848 11.9572 10.0856 11.9524L10.0848 11.9572ZM14.3587 12.6628C14.2538 12.6466 14.0943 12.6144 14.0104 12.5837C13.9361 12.5562 13.9426 12.553 13.9265 12.624V12.6531H13.3926H12.8588V12.6289C12.875 12.5918 13.0993 11.3645 13.0993 11.3571C13.0993 11.3571 13.3363 11.3571 13.6261 11.3571H14.1529L14.1223 11.5198C14.1061 11.6085 14.09 11.6886 14.0867 11.696C14.0867 11.7122 14.0238 11.7122 13.8425 11.7122H13.6031V11.7525C13.6031 11.7751 13.587 11.8042 13.587 11.8171V11.8413H13.807C13.9762 11.8413 14.0269 11.8413 14.0264 11.8575C14.0261 11.8736 14.0102 11.9382 13.9973 12.0202L13.9683 12.1703H13.7478H13.5274L13.5113 12.2236C13.4919 12.3156 13.4709 12.3091 13.7453 12.3091C13.9723 12.3091 13.9909 12.3106 13.9905 12.3285C13.9902 12.3446 13.9744 12.3898 13.9696 12.4431C13.9534 12.4964 13.9502 12.5399 13.9518 12.5416C13.9518 12.5432 14.0018 12.4721 14.06 12.3817C14.1181 12.293 14.1681 12.2147 14.1729 12.2089C14.1729 12.2089 14.2004 12.2089 14.2311 12.2315C14.3586 12.3138 14.4969 12.3477 14.6141 12.3251C14.6884 12.3089 14.7352 12.2299 14.6835 12.2024C14.6674 12.2024 14.598 12.1798 14.5198 12.1653C14.3152 12.1298 14.2164 12.0797 14.1625 11.989C14.1382 11.9487 14.1334 11.9277 14.135 11.8647C14.1353 11.7985 14.135 11.7776 14.1738 11.7098C14.2625 11.5322 14.4537 11.4061 14.7166 11.3527C14.8361 11.3285 15.0709 11.3365 15.1823 11.3688C15.2969 11.4011 15.3809 11.4415 15.3713 11.4576C15.3713 11.4576 15.3197 11.5383 15.2664 11.6208C15.2131 11.7031 15.1696 11.7709 15.1679 11.7725C15.167 11.774 15.1373 11.7564 15.1034 11.7435C14.9292 11.6547 14.7281 11.6628 14.7168 11.7596C14.7168 11.7968 14.7168 11.8016 14.8893 11.8355C14.9652 11.8516 15.0525 11.8742 15.0845 11.8855C15.2516 11.9485 15.3252 12.0881 15.2763 12.2507C15.2601 12.2781 15.2601 12.3007 15.2601 12.3007C15.2601 12.3007 15.3909 12.0893 15.5486 11.831L15.8336 11.3611L16.1502 11.3612L16.4666 11.3614L16.6054 11.9458C16.6813 12.2673 16.7458 12.5364 16.7507 12.5438C16.7507 12.5438 16.8072 12.2943 16.8685 11.9725C16.9298 11.651 16.9815 11.3819 16.9847 11.3745C16.9847 11.3583 17.0558 11.3583 17.2719 11.3583C17.536 11.3583 17.5541 11.3596 17.5489 11.3777C17.5489 11.3939 17.5085 11.5766 17.4666 11.7968C17.4246 12.0169 17.3875 12.2079 17.3842 12.2211V12.2453H17.6269C17.859 12.2453 17.8693 12.2463 17.8643 12.2647C17.8643 12.2809 17.8433 12.3696 17.824 12.473L17.7884 12.661H16.9855H16.1828L16.1667 12.5787L16.1505 12.4964H15.9345H15.7185L15.675 12.5819L15.6314 12.6675H15.3324H15.0335L15.0851 12.5851C15.1126 12.5399 15.1481 12.4834 15.1626 12.4592L15.1884 12.4173L15.1239 12.477C15.0077 12.5835 14.8372 12.6534 14.634 12.6784C14.5258 12.6946 14.4682 12.6946 14.351 12.6786L14.3587 12.6628ZM16.1376 12.1114C16.1376 12.071 16.1215 11.9806 16.1215 11.9085C16.1215 11.8148 16.1053 11.7777 16.1021 11.7777C16.0859 11.7777 15.9156 12.1472 15.9156 12.1725C15.9156 12.1725 15.9592 12.1887 16.0286 12.1887H16.1416V12.116L16.1376 12.1114ZM0.425894 12.4876V12.3222H3.41459C6.25172 12.3222 6.40362 12.3232 6.40895 12.3416C6.40895 12.3642 6.47997 12.6426 6.47997 12.6494C6.47997 12.6494 5.1179 12.6494 3.45317 12.6494H0.426379V12.4838L0.425894 12.4876ZM17.8953 12.6394C17.8953 12.6232 17.955 12.339 18.0212 11.988L18.1423 11.3501H18.6696C19.1667 11.3501 19.1965 11.3512 19.1915 11.3695C19.1915 11.3856 19.1738 11.4583 19.1576 11.5456L19.1286 11.7038H18.8861H18.6438V11.7538C18.6438 11.7813 18.6277 11.8103 18.6277 11.8184C18.6277 11.8345 18.66 11.8345 18.8422 11.8345C18.9633 11.8345 19.0622 11.8345 19.0624 11.8345C19.0625 11.8345 19.0462 11.9136 19.0333 12.0001L19.0043 12.1583H18.7839H18.5636L18.5474 12.2197C18.5474 12.2536 18.5313 12.2842 18.5313 12.2891C18.5313 12.2891 18.6411 12.3052 18.7768 12.3052C19.0036 12.3052 19.0223 12.3065 19.022 12.3246C19.0217 12.3407 19.0059 12.4134 18.9914 12.498L18.9623 12.6529H18.4252C17.9973 12.6545 17.8895 12.6529 17.8934 12.6368L17.8953 12.6394ZM0.425894 12.0121V11.8523H3.36165H6.29757V11.8765C6.29757 11.8926 6.31532 11.954 6.32985 12.0186C6.34599 12.0831 6.35891 12.1445 6.36213 12.1541C6.36213 12.1719 6.2217 12.1735 3.39377 12.1735H0.419599V12.0137L0.425894 12.0121ZM0.425894 11.5262V11.3501H3.30273H6.17973L6.19587 11.3905C6.21524 11.4631 6.26044 11.6733 6.26044 11.6883C6.26044 11.7044 5.802 11.7044 3.34567 11.7044H0.43106V11.5282L0.425894 11.5262ZM5.16972 10.9861C4.6401 10.9393 4.20071 10.7391 3.95971 10.4361C3.80313 10.24 3.73195 10.0261 3.73275 9.75931C3.73275 9.17594 4.10709 8.6313 4.72856 8.30378C4.98586 8.16819 5.28175 8.07537 5.62541 8.02259C5.79958 7.99515 6.22234 7.99515 6.39409 8.02243C7.09208 8.13058 7.54874 8.46859 7.68207 8.97464C7.72081 9.11992 7.72242 9.35786 7.68207 9.51573C7.61266 9.82759 7.48239 10.0709 7.25834 10.3022C7.08804 10.478 6.92888 10.5934 6.6945 10.7109C6.25398 10.932 5.69127 11.0332 5.16342 10.9861H5.16972ZM5.75616 10.0736C5.84171 10.0575 5.99603 10.009 6.07916 9.95737C6.31209 9.81209 6.438 9.55479 6.38974 9.32364C6.36391 9.20257 6.30741 9.11702 6.20862 9.05132C5.99942 8.9125 5.65317 8.91734 5.39184 9.06746C5.29014 9.12396 5.15874 9.25875 5.10999 9.35673C4.97763 9.62275 5.04058 9.89248 5.2585 10.0076C5.40539 10.0851 5.53227 10.1028 5.75552 10.0786L5.75616 10.0736ZM8.39054 10.9906C8.0698 10.968 7.68223 10.8841 7.42154 10.783C7.35858 10.7588 7.30531 10.7378 7.3037 10.7362C7.3037 10.7346 7.42315 10.5503 7.57456 10.3269C7.75099 10.0658 7.85334 9.92331 7.86125 9.92848C7.86125 9.92848 7.91451 9.96399 7.96455 9.99627C8.19635 10.1496 8.41879 10.2221 8.6585 10.2219C8.88497 10.2219 9.03203 10.1428 9.03219 10.0206C9.03219 9.93348 8.98699 9.91411 8.65608 9.86246C8.38861 9.82049 8.29111 9.79789 8.17053 9.74946C7.74938 9.58126 7.62525 9.251 7.82606 8.83211C7.98425 8.50346 8.33082 8.2426 8.79878 8.10136C9.34906 7.9351 9.99022 7.97384 10.4653 8.19983L10.5686 8.24987L10.3281 8.6129C10.1957 8.81242 10.0834 8.97723 10.0784 8.979C10.0784 8.979 10.0251 8.95802 9.96859 8.92896C9.77731 8.82727 9.59135 8.77723 9.39894 8.774C9.20878 8.774 9.08965 8.82081 9.06124 8.91605C9.0451 8.95156 9.0451 8.96125 9.06124 8.98546C9.0903 9.03066 9.15003 9.04841 9.44349 9.10653C9.73049 9.16302 9.86044 9.20015 9.98893 9.2631C10.1529 9.34381 10.2787 9.46714 10.3268 9.59563C10.3994 9.7895 10.3607 10.0499 10.2267 10.2759C10.1056 10.4788 9.91177 10.6437 9.64026 10.774C9.33098 10.9225 8.95535 11.0008 8.57634 10.996C8.49724 10.995 8.41056 10.996 8.38409 10.996L8.39054 10.9906ZM14.1997 10.9906C13.6343 10.9309 13.1902 10.6565 12.992 10.2428C12.7592 9.75705 12.9226 9.13171 13.4047 8.66423C13.5894 8.48522 13.7595 8.36561 13.9904 8.25277C14.3978 8.05374 14.8633 7.97077 15.3303 8.01419C15.5219 8.03195 15.8532 8.09329 15.8937 8.11912C15.9098 8.11912 15.8937 8.24502 15.8211 8.66456C15.7742 8.95996 15.7355 9.20628 15.7355 9.21193C15.7355 9.21193 15.7129 9.19579 15.6855 9.17965C15.566 9.08118 15.4367 9.01145 15.2909 8.96674C15.207 8.94091 15.1796 8.93768 15.0369 8.93768C14.8612 8.9372 14.7807 8.95382 14.6427 9.01516C14.3278 9.15883 14.1471 9.45987 14.2244 9.71427C14.2874 9.91879 14.51 10.0578 14.7967 10.07C15.0495 10.0862 15.3129 10.0055 15.5502 9.85342C15.5825 9.83243 15.6115 9.81629 15.6131 9.81791C15.6131 9.81791 15.3754 10.8755 15.3657 10.8852C15.3495 10.9014 15.1347 10.9449 14.9891 10.9627C14.6963 10.9982 14.3928 11.0095 14.2001 10.9885L14.1997 10.9906ZM17.2041 10.9906C16.9303 10.9632 16.8027 10.939 16.628 10.8825C16.1791 10.7372 15.87 10.4652 15.7583 10.1157C15.7114 9.97045 15.7001 9.87473 15.7082 9.70669C15.7082 9.54688 15.7373 9.43179 15.7905 9.28296C16.069 8.49797 17.027 7.96254 18.0856 7.99999C18.6343 8.01936 19.0717 8.18078 19.362 8.47101C19.5676 8.6765 19.6701 8.90297 19.6838 9.18272C19.7048 9.59644 19.5353 10.0095 19.2127 10.3293C18.8714 10.6681 18.3904 10.8875 17.808 10.9696C17.6918 10.9858 17.2971 10.9987 17.2041 10.9906ZM17.8052 10.0566C18.089 9.99208 18.2976 9.79579 18.3579 9.53881C18.4241 9.25923 18.2595 9.01936 17.9639 8.96286C17.6834 8.90959 17.3955 8.99353 17.2041 9.18643C16.9973 9.39434 16.9512 9.69813 17.0976 9.88974C17.2235 10.0544 17.5158 10.1233 17.8052 10.0566ZM18.9993 10.9851C18.9105 10.9642 18.8685 10.906 18.8782 10.8197C18.8943 10.7261 18.988 10.6458 19.1047 10.6361C19.2435 10.62 19.3397 10.7185 19.3027 10.831C19.2672 10.9407 19.1211 11.0134 18.9993 10.9851ZM19.177 10.9254C19.227 10.8964 19.2593 10.8431 19.2593 10.7898C19.2587 10.714 19.2109 10.6768 19.1156 10.6768C19.0285 10.6771 18.9752 10.7075 18.9403 10.7753C18.9177 10.8221 18.9161 10.8318 18.9242 10.8689C18.9403 10.9028 18.9452 10.9157 18.9823 10.9335C19.0372 10.9593 19.1227 10.9545 19.1742 10.9173L19.177 10.9254ZM18.9931 10.8834C18.9934 10.8673 18.9931 10.8334 19.0093 10.7947L19.0254 10.7253H19.0948C19.1788 10.7253 19.2078 10.7414 19.1965 10.7801C19.1965 10.7963 19.1771 10.814 19.1626 10.8205C19.1384 10.8366 19.1384 10.8366 19.1465 10.8625C19.1658 10.9012 19.1658 10.9044 19.1465 10.9044C19.1303 10.9044 19.119 10.8883 19.1093 10.8657C19.0884 10.8173 19.0496 10.8173 19.0416 10.8663C19.0416 10.9018 18.998 10.9196 18.9996 10.8857L18.9931 10.8834ZM19.1513 10.7801C19.1513 10.764 19.1675 10.7624 19.1513 10.7591C19.1513 10.7591 19.0512 10.743 19.0512 10.7591C19.0512 10.7591 19.0512 10.7753 19.0512 10.7801C19.0512 10.7963 19.0512 10.7963 19.0932 10.7963C19.1206 10.7963 19.1449 10.7963 19.1513 10.7801ZM10.5089 10.9286C10.5089 10.9125 10.6477 10.4671 10.8094 9.93445C10.9712 9.4016 11.101 8.96318 11.0979 8.96012C11.0979 8.96012 10.9358 8.9606 10.7445 8.96012C10.5531 8.97626 10.3946 8.97626 10.392 8.97626C10.392 8.97626 10.4517 8.76189 10.5292 8.5054L10.6696 8.03905H12.0272H13.3847L13.3492 8.1585C13.3298 8.22469 13.2653 8.43469 13.2072 8.62565L13.1022 8.97255H12.8632C12.7324 8.97255 12.5717 8.97255 12.5076 8.97255H12.3913L12.0901 9.96561L11.7888 10.9585H11.1458H10.5027V10.9327L10.5089 10.9286ZM2.00087 10.9286C1.4543 10.8802 1.01798 10.6967 0.708219 10.3869C0.537436 10.216 0.435741 10.0521 0.369397 9.8405C0.327428 9.70814 0.314514 9.60838 0.314514 9.44147C0.314998 9.19111 0.371011 8.96302 0.491915 8.7217C0.595224 8.51492 0.702892 8.36561 0.879486 8.18288C1.45414 7.58901 2.35213 7.25842 3.23558 7.31573C3.45124 7.33187 3.60798 7.34962 3.77828 7.38191C3.92355 7.40935 4.05882 7.44325 4.06996 7.45455C4.06996 7.45455 3.86996 8.76609 3.8606 8.77481C3.85947 8.7761 3.82186 8.74898 3.77505 8.71508C3.38037 8.41645 2.93647 8.3535 2.50225 8.53461C2.15325 8.67989 1.91371 9.01758 1.96036 9.29829C1.9991 9.53268 2.19167 9.71282 2.48029 9.78514C2.60943 9.81742 2.85576 9.81904 3.01411 9.78514C3.2196 9.7464 3.4769 9.6447 3.64672 9.53413C3.68384 9.50992 3.7129 9.49539 3.7129 9.50184C3.7129 9.50184 3.6451 9.79757 3.56278 10.1459C3.48045 10.4943 3.41266 10.7822 3.41266 10.7859C3.41266 10.8085 3.12533 10.8667 2.87351 10.8941C2.57004 10.9264 2.17973 10.9409 1.99813 10.9248L2.00087 10.9286Z" fill="white"/>
</svg>
