<svg width="24" height="24" viewBox="0 0 24 24" fill="none" xmlns="http://www.w3.org/2000/svg">
<path d="M22 8.46094L20.6984 8.68478C20.4505 6.18309 19.7893 4.33208 18.6942 3.13208C17.5578 1.8711 15.9669 1.22038 13.9421 1.15936V18.8543C13.9421 20.4 14.1694 21.3966 14.6239 21.8644C15.0165 22.2712 15.6778 22.5152 16.6075 22.5965C16.8761 22.6169 17.3513 22.6372 18.0124 22.6372V24H5.98757V22.6372C6.6487 22.6372 7.12389 22.6169 7.39249 22.5965C8.32225 22.4948 8.98353 22.2508 9.37609 21.8644C9.83061 21.3966 10.0579 20.4 10.0579 18.8543V1.15936C8.03311 1.20004 6.44215 1.87111 5.30579 3.13208C4.21075 4.33208 3.54955 6.18309 3.30162 8.68478L2 8.46094L2.24797 0H21.752L22 8.46094Z" fill="black"/>
<path d="M6.95869 11.044V15.9051H2.02058V11.044H6.95869Z" fill="black"/>
<path d="M22 15.9051H17.0621V11.044H22V15.9051Z" fill="black"/>
</svg>
