<svg width="20" height="20" viewBox="0 0 20 20" fill="none" xmlns="http://www.w3.org/2000/svg">
<path d="M10.0001 0C5.19117 0 1.31348 3.73871 1.31348 8.72828C1.31348 13.7318 5.19117 17.4566 10.0001 17.4566C10.8201 17.4566 11.6123 17.3454 12.3628 17.1369L13.3079 19.5692C13.4052 19.8332 13.5998 20 13.9472 20H15.4483C15.8097 20 16.0737 19.7637 15.9069 19.3051L14.6839 16.1223C17.0883 14.6074 18.6866 11.9249 18.6866 8.71439C18.6866 3.7387 14.809 0 10.0001 0ZM13.7805 13.8013L12.6825 10.952C12.5852 10.7158 12.3906 10.4934 11.9737 10.4934H10.5421C10.1807 10.4934 9.90277 10.7297 10.0696 11.1883L11.515 14.927C11.0425 15.0521 10.5282 15.1077 10.0001 15.1077C6.48373 15.1077 3.98199 12.3419 3.98199 8.72828C3.98199 5.11467 6.48373 2.34885 10.0001 2.34885C13.5164 2.34885 16.0181 5.11467 16.0181 8.72828C16.0181 10.8409 15.1703 12.6477 13.7805 13.8013Z" fill="white"/>
</svg>
