<svg width="20" height="20" viewBox="0 0 20 20" fill="none" xmlns="http://www.w3.org/2000/svg">
<path d="M8.42168 10.0038C8.42168 11.3217 7.35151 12.3902 6.03126 12.3902C4.7111 12.3902 3.64093 11.3218 3.64093 10.0038C3.64093 8.68592 4.7111 7.61758 6.03126 7.61758C7.35151 7.61758 8.42168 8.686 8.42168 10.0038ZM6.03126 0C4.71118 0 3.64093 1.06808 3.64093 2.38567C3.64093 3.70325 4.7111 4.77142 6.03126 4.77142C7.35143 4.77142 8.42168 3.70333 8.42168 2.38567C8.42168 1.06808 7.35151 0 6.03126 0ZM13.9684 15.2317C12.6486 15.2317 11.5787 16.2954 11.5787 17.6181C11.5787 18.9317 12.6483 20 13.9684 20C15.2888 20 16.3588 18.9317 16.3588 17.6181C16.3588 16.2954 15.2885 15.2317 13.9684 15.2317ZM11.578 10.0038C11.578 8.68592 12.6482 7.61758 13.9684 7.61758C15.2886 7.61758 16.3588 8.68592 16.3588 10.0038C16.3588 11.3217 15.2886 12.3902 13.9684 12.3902C12.6482 12.3902 11.578 11.3218 11.578 10.0038ZM11.9947 10.0038C11.9947 11.0899 12.8801 11.9735 13.9684 11.9735C15.0568 11.9735 15.9421 11.0899 15.9421 10.0038C15.9421 8.91783 15.0568 8.03425 13.9684 8.03425C12.8801 8.03425 11.9947 8.91783 11.9947 10.0038Z" fill="white"/>
</svg>
