<svg width="20" height="20" viewBox="0 0 20 20" fill="none" xmlns="http://www.w3.org/2000/svg">
<path d="M9.4525 15.0259C9.50083 15.0667 9.5525 15.1076 9.60333 15.1476C8.6225 15.8001 7.445 16.1792 6.18083 16.1792C2.76667 16.1801 0 13.4134 0 10.0001C0 6.58757 2.76667 3.82007 6.18 3.82007C7.445 3.82007 8.6225 4.20007 9.60083 4.85173C9.55083 4.89424 9.50083 4.9334 9.46333 4.97674C8 6.2409 7.1625 8.0734 7.1625 10.0001C7.1625 11.9259 7.99667 13.7584 9.4525 15.0259ZM13.82 3.82007C12.5533 3.82007 11.3775 4.20007 10.3992 4.85173C10.4492 4.89424 10.4992 4.9334 10.5367 4.97674C12 6.2409 12.8375 8.0734 12.8375 10.0001C12.8375 11.9251 12.0033 13.7559 10.5475 15.0259C10.4992 15.0667 10.4475 15.1076 10.3967 15.1476C11.3775 15.8001 12.5533 16.1792 13.8192 16.1792C17.2333 16.1801 20 13.4134 20 10.0001C20 6.5884 17.2333 3.82007 13.82 3.82007ZM10 5.14507C9.92 5.20757 9.8425 5.27007 9.76667 5.33757C8.46333 6.47007 7.64083 8.13757 7.64083 10.0001C7.64083 11.8634 8.46333 13.5301 9.76667 14.6626C9.84167 14.7292 9.92083 14.7942 10 14.8559C10.08 14.7942 10.1575 14.7292 10.2333 14.6626C11.5358 13.5301 12.3592 11.8634 12.3592 10.0001C12.3592 8.13757 11.5367 6.47007 10.2333 5.33757C10.1583 5.2709 10.08 5.20757 10 5.14507Z" fill="white"/>
</svg>
