<svg width="20" height="20" viewBox="0 0 20 20" fill="none" xmlns="http://www.w3.org/2000/svg">
<path d="M9.99808 6.73305C10.4667 6.73305 10.8524 6.48928 10.9045 6.17455L11.3675 0.941913C11.3675 0.424601 10.762 0 9.9998 0C9.23871 0 8.63385 0.424601 8.63385 0.941913L9.09565 6.17455C9.14715 6.48928 9.53285 6.73305 9.9998 6.73305H9.99808Z" fill="white"/>
<path d="M7.17006 8.36736C7.40525 7.96221 7.38694 7.50615 7.13976 7.30413L2.83876 4.28727C2.39181 4.02861 1.72114 4.34047 1.3406 5.00028C0.958907 5.65892 1.02643 6.39541 1.47278 6.65406L6.23444 8.87151C6.53258 8.98197 6.9383 8.76964 7.17178 8.36451L7.17006 8.36736Z" fill="white"/>
<path d="M12.8284 8.36451C13.063 8.76966 13.467 8.98197 13.7652 8.87151L18.5274 6.65406C18.976 6.39541 19.0401 5.65895 18.6613 5.00028C18.2791 4.34049 17.6072 4.02861 17.1615 4.28726L12.8605 7.30415C12.6144 7.50614 12.5961 7.96223 12.8302 8.36736L12.8284 8.36451Z" fill="white"/>
<path d="M9.99808 13.2688C10.4667 13.2688 10.8524 13.5109 10.9045 13.8256L11.3675 19.0576C11.3675 19.5761 10.762 20.0001 9.9998 20.0001C9.23871 20.0001 8.63385 19.5761 8.63385 19.0576L9.09565 13.8256C9.14715 13.5109 9.53285 13.2688 9.9998 13.2688H9.99808Z" fill="white"/>
<path d="M12.8284 11.6345C13.063 11.2287 13.467 11.0176 13.7652 11.1297L18.5274 13.3449C18.976 13.6041 19.0401 14.3412 18.6613 15.001C18.2791 15.6585 17.6072 15.9709 17.1615 15.7128L12.8605 12.6988C12.6144 12.4945 12.5961 12.0385 12.8302 11.6339L12.8284 11.6345Z" fill="white"/>
<path d="M7.17006 11.6337C7.40525 12.0382 7.38694 12.4943 7.13975 12.6986L2.83876 15.7126C2.39183 15.9707 1.72116 15.6583 1.34061 15.0007C0.958903 14.3409 1.02643 13.6039 1.47278 13.3447L6.23444 11.1295C6.53257 11.0173 6.93829 11.2285 7.17177 11.6342L7.17006 11.6337Z" fill="white"/>
</svg>
