<svg width="20" height="20" viewBox="0 0 20 20" fill="none" xmlns="http://www.w3.org/2000/svg">
<g clip-path="url(#clip0_822_4885)">
<path d="M2.66115 10.3027C4.14006 9.75659 6.65942 9.61744 10 10.0001L10.9848 6.27806C7.17791 5.75628 3.17964 6.1424 2.24705 7.48163C1.83644 8.08341 1.72509 9.34264 2.65767 10.3027H2.66115ZM17.3389 9.70093C15.86 10.2471 13.3406 10.3862 10 10.0036L9.01524 13.7256C12.8221 14.2474 16.8204 13.8612 17.753 12.522C18.1636 11.9202 18.275 10.661 17.3424 9.70093H17.3389ZM18.6542 11.0123L19.2563 8.76868C19.4755 7.97558 19.5834 7.56511 19.5834 7.23465C19.5834 4.36139 12.0496 0.855042 4.87429 0.416748L3.86168 4.13877C11.2562 4.66055 18.8178 8.24691 18.6229 11.0123H18.6508H18.6542ZM1.34579 8.98783L0.743787 11.2315C0.52456 12.0246 0.416687 12.435 0.416687 12.7655C0.416687 15.6388 7.95043 19.1451 15.1257 19.5834L16.1384 15.8614C8.74034 15.3396 1.18224 11.7533 1.37363 8.98783H1.34579Z" fill="white"/>
</g>
<defs>
<clipPath id="clip0_822_4885">
<rect width="20" height="20" fill="white"/>
</clipPath>
</defs>
</svg>
