<svg width="24" height="24" viewBox="0 0 24 24" fill="none" xmlns="http://www.w3.org/2000/svg">
<path d="M5.27042 21.7798C5.61351 21.7798 5.88025 22.0467 5.88032 22.3897C5.88032 22.7329 5.61356 23 5.27042 23C4.92727 23 4.66052 22.7329 4.66052 22.3897C4.6606 22.0466 4.92732 21.7798 5.27042 21.7798Z" fill="black"/>
<path d="M6.49023 21.7798C6.83333 21.7798 7.10042 22.0466 7.1005 22.3897C7.1005 22.7329 6.83338 23 6.49023 23C6.14714 22.9999 5.88032 22.7328 5.88032 22.3897C5.8804 22.0467 6.14719 21.7799 6.49023 21.7798Z" fill="black"/>
<path d="M7.7104 21.7798C8.0535 21.7798 8.3206 22.0466 8.32067 22.3897C8.32067 22.7329 8.05355 23 7.7104 23C7.36732 22.9999 7.1005 22.7328 7.1005 22.3897C7.10058 22.0467 7.36737 21.7799 7.7104 21.7798Z" fill="black"/>
<path d="M8.93057 21.7798C9.27368 21.7798 9.54077 22.0466 9.54085 22.3897C9.54085 22.7329 9.27373 23 8.93057 23C8.58749 22.9999 8.32067 22.7328 8.32067 22.3897C8.32075 22.0467 8.58754 21.7799 8.93057 21.7798Z" fill="black"/>
<path d="M10.1887 21.7798C10.4937 21.7798 10.7989 22.0466 10.799 22.3897C10.799 22.7329 10.5319 23 10.1887 23C9.84565 22.9999 9.57883 22.7328 9.57883 22.3897C9.5789 22.0467 9.8457 21.7799 10.1887 21.7798Z" fill="black"/>
<path d="M11.4089 21.7798C11.752 21.7798 12.0191 22.0466 12.0192 22.3897C12.0192 22.7329 11.7521 23 11.4089 23C11.0658 22.9999 10.799 22.7328 10.799 22.3897C10.7991 22.0467 11.0659 21.7799 11.4089 21.7798Z" fill="black"/>
<path d="M12.6291 21.7798C12.9722 21.7798 13.2389 22.0467 13.239 22.3897C13.239 22.7329 12.9722 23 12.6291 23C12.2859 23 12.0192 22.7329 12.0192 22.3897C12.0193 22.0466 12.286 21.7798 12.6291 21.7798Z" fill="black"/>
<path d="M13.8493 21.7798C14.1923 21.7798 14.4591 22.0467 14.4592 22.3897C14.4592 22.7329 14.1924 23 13.8493 23C13.5061 23 13.239 22.7329 13.239 22.3897C13.2391 22.0466 13.5061 21.7798 13.8493 21.7798Z" fill="black"/>
<path d="M18.7296 21.7798C19.0727 21.7798 19.3394 22.0467 19.3395 22.3897C19.3395 22.7329 19.0727 23 18.7296 23C18.3864 23 18.1197 22.7329 18.1197 22.3897C18.1198 22.0466 18.3865 21.7798 18.7296 21.7798Z" fill="black"/>
<path d="M19.9498 21.7798C20.2928 21.7798 20.5596 22.0467 20.5597 22.3897C20.5597 22.7329 20.2929 23 19.9498 23C19.6066 23 19.3395 22.7329 19.3395 22.3897C19.3396 22.0466 19.6066 21.7798 19.9498 21.7798Z" fill="black"/>
<path d="M21.1696 21.7798C21.5127 21.7798 21.7797 22.0466 21.7798 22.3897C21.7798 22.7329 21.5127 23 21.1696 23C20.8265 22.9999 20.5597 22.7328 20.5597 22.3897C20.5597 22.0467 20.8265 21.7799 21.1696 21.7798Z" fill="black"/>
<path d="M22.3897 21.7798C22.7328 21.7798 22.9999 22.0466 23 22.3897C23 22.7329 22.7329 23 22.3897 23C22.0466 22.9999 21.7798 22.7328 21.7798 22.3897C21.7799 22.0467 22.0467 21.7799 22.3897 21.7798Z" fill="black"/>
<path d="M4.05025 20.5597C4.39338 20.5597 4.66015 20.8268 4.66015 21.1699C4.66008 21.513 4.39334 21.7798 4.05025 21.7798C3.70714 21.7798 3.44042 21.513 3.44035 21.1699C3.44035 20.8268 3.7071 20.5597 4.05025 20.5597Z" fill="black"/>
<path d="M5.27042 20.5597C5.61356 20.5597 5.88032 20.8268 5.88032 21.1699C5.88026 21.513 5.61352 21.7798 5.27042 21.7798C4.92731 21.7798 4.66022 21.513 4.66015 21.1699C4.66015 20.8268 4.92727 20.5597 5.27042 20.5597Z" fill="black"/>
<path d="M6.49023 20.5597C6.83338 20.5597 7.1005 20.8268 7.1005 21.1699C7.10043 21.513 6.83334 21.7798 6.49023 21.7798C6.14719 21.7797 5.88039 21.513 5.88032 21.1699C5.88032 20.8268 6.14714 20.5597 6.49023 20.5597Z" fill="black"/>
<path d="M7.7104 20.5597C8.05355 20.5597 8.32067 20.8268 8.32067 21.1699C8.32061 21.513 8.05351 21.7798 7.7104 21.7798C7.36736 21.7797 7.10057 21.513 7.1005 21.1699C7.1005 20.8268 7.36732 20.5597 7.7104 20.5597Z" fill="black"/>
<path d="M8.93057 20.5597C9.27373 20.5597 9.54085 20.8268 9.54085 21.1699C9.54078 21.513 9.27368 21.7798 8.93057 21.7798C8.58754 21.7797 8.32074 21.513 8.32067 21.1699C8.32067 20.8268 8.58749 20.5597 8.93057 20.5597Z" fill="black"/>
<path d="M10.1887 20.5597C10.4938 20.5597 10.799 20.8268 10.799 21.1699C10.7989 21.513 10.5318 21.7798 10.1887 21.7798C9.84569 21.7797 9.57889 21.513 9.57883 21.1699C9.57883 20.8268 9.84565 20.5597 10.1887 20.5597Z" fill="black"/>
<path d="M11.4089 20.5597C11.7521 20.5597 12.0192 20.8268 12.0192 21.1699C12.0191 21.513 11.752 21.7798 11.4089 21.7798C11.0659 21.7797 10.7991 21.513 10.799 21.1699C10.799 20.8268 11.0658 20.5597 11.4089 20.5597Z" fill="black"/>
<path d="M12.6291 20.5597C12.9722 20.5597 13.239 20.8268 13.239 21.1699C13.2389 21.513 12.9722 21.7798 12.6291 21.7798C12.286 21.7798 12.0192 21.513 12.0192 21.1699C12.0192 20.8268 12.2859 20.5597 12.6291 20.5597Z" fill="black"/>
<path d="M13.8493 20.5597C14.1924 20.5597 14.4592 20.8268 14.4592 21.1699C14.4591 21.513 14.1923 21.7798 13.8493 21.7798C13.5061 21.7798 13.239 21.513 13.239 21.1699C13.239 20.8268 13.5061 20.5597 13.8493 20.5597Z" fill="black"/>
<path d="M15.0691 20.5597C15.4122 20.5597 15.6793 20.8268 15.6793 21.1699C15.6793 21.513 15.4122 21.7798 15.0691 21.7798C14.726 21.7797 14.4592 21.513 14.4592 21.1699C14.4592 20.8268 14.726 20.5597 15.0691 20.5597Z" fill="black"/>
<path d="M18.7296 20.5597C19.0727 20.5597 19.3395 20.8268 19.3395 21.1699C19.3394 21.513 19.0727 21.7798 18.7296 21.7798C18.3865 21.7798 18.1197 21.513 18.1197 21.1699C18.1197 20.8268 18.3864 20.5597 18.7296 20.5597Z" fill="black"/>
<path d="M19.9498 20.5597C20.2929 20.5597 20.5597 20.8268 20.5597 21.1699C20.5596 21.513 20.2928 21.7798 19.9498 21.7798C19.6066 21.7798 19.3395 21.513 19.3395 21.1699C19.3395 20.8268 19.6066 20.5597 19.9498 20.5597Z" fill="black"/>
<path d="M21.1696 20.5597C21.5127 20.5597 21.7798 20.8268 21.7798 21.1699C21.7798 21.513 21.5127 21.7798 21.1696 21.7798C20.8265 21.7797 20.5597 21.513 20.5597 21.1699C20.5597 20.8268 20.8265 20.5597 21.1696 20.5597Z" fill="black"/>
<path d="M22.3897 20.5597C22.7329 20.5597 23 20.8268 23 21.1699C22.9999 21.513 22.7328 21.7798 22.3897 21.7798C22.0467 21.7797 21.7799 21.513 21.7798 21.1699C21.7798 20.8268 22.0466 20.5597 22.3897 20.5597Z" fill="black"/>
<path d="M2.83008 19.3395C3.17323 19.3395 3.44035 19.6066 3.44035 19.9498C3.44031 20.2929 3.1732 20.5597 2.83008 20.5597C2.48702 20.5596 2.22022 20.2928 2.22017 19.9498C2.22017 19.6066 2.48699 19.3396 2.83008 19.3395Z" fill="black"/>
<path d="M4.05025 19.3395C4.39338 19.3395 4.66015 19.6066 4.66015 19.9498C4.66011 20.2929 4.39336 20.5596 4.05025 20.5597C3.70712 20.5597 3.44039 20.2929 3.44035 19.9498C3.44035 19.6066 3.7071 19.3395 4.05025 19.3395Z" fill="black"/>
<path d="M5.27042 19.3395C5.61356 19.3395 5.88032 19.6066 5.88032 19.9498C5.88028 20.2929 5.61353 20.5596 5.27042 20.5597C4.9273 20.5597 4.66019 20.2929 4.66015 19.9498C4.66015 19.6066 4.92727 19.3395 5.27042 19.3395Z" fill="black"/>
<path d="M6.49023 19.3395C6.83338 19.3395 7.1005 19.6066 7.1005 19.9498C7.10046 20.2929 6.83335 20.5597 6.49023 20.5597C6.14717 20.5596 5.88037 20.2928 5.88032 19.9498C5.88032 19.6066 6.14714 19.3396 6.49023 19.3395Z" fill="black"/>
<path d="M7.7104 19.3395C8.05355 19.3395 8.32067 19.6066 8.32067 19.9498C8.32063 20.2929 8.05353 20.5597 7.7104 20.5597C7.36735 20.5596 7.10054 20.2928 7.1005 19.9498C7.1005 19.6066 7.36732 19.3396 7.7104 19.3395Z" fill="black"/>
<path d="M8.93057 19.3395C9.27373 19.3395 9.54085 19.6066 9.54085 19.9498C9.5408 20.2929 9.2737 20.5597 8.93057 20.5597C8.58752 20.5596 8.32072 20.2928 8.32067 19.9498C8.32067 19.6066 8.58749 19.3396 8.93057 19.3395Z" fill="black"/>
<path d="M10.1887 19.3395C10.4938 19.3395 10.799 19.6066 10.799 19.9498C10.799 20.2929 10.5319 20.5597 10.1887 20.5597C9.84567 20.5596 9.57887 20.2928 9.57883 19.9498C9.57883 19.6066 9.84565 19.3396 10.1887 19.3395Z" fill="black"/>
<path d="M11.4089 19.3395C11.7521 19.3395 12.0192 19.6066 12.0192 19.9498C12.0191 20.2929 11.752 20.5597 11.4089 20.5597C11.0658 20.5596 10.799 20.2928 10.799 19.9498C10.799 19.6066 11.0658 19.3396 11.4089 19.3395Z" fill="black"/>
<path d="M12.6291 19.3395C12.9722 19.3395 13.239 19.6066 13.239 19.9498C13.2389 20.2929 12.9722 20.5596 12.6291 20.5597C12.286 20.5597 12.0192 20.2929 12.0192 19.9498C12.0192 19.6066 12.2859 19.3395 12.6291 19.3395Z" fill="black"/>
<path d="M13.8493 19.3395C14.1924 19.3395 14.4592 19.6066 14.4592 19.9498C14.4591 20.2929 14.1924 20.5596 13.8493 20.5597C13.5061 20.5597 13.239 20.2929 13.239 19.9498C13.239 19.6066 13.5061 19.3395 13.8493 19.3395Z" fill="black"/>
<path d="M15.0691 19.3395C15.4122 19.3395 15.6793 19.6066 15.6793 19.9498C15.6793 20.2929 15.4122 20.5597 15.0691 20.5597C14.726 20.5596 14.4592 20.2928 14.4592 19.9498C14.4592 19.6066 14.726 19.3396 15.0691 19.3395Z" fill="black"/>
<path d="M16.2892 19.3395C16.6324 19.3395 16.8995 19.6066 16.8995 19.9498C16.8995 20.2929 16.6324 20.5597 16.2892 20.5597C15.9462 20.5596 15.6794 20.2928 15.6793 19.9498C15.6793 19.6066 15.9461 19.3396 16.2892 19.3395Z" fill="black"/>
<path d="M18.7296 19.3395C19.0727 19.3395 19.3395 19.6066 19.3395 19.9498C19.3394 20.2929 19.0727 20.5596 18.7296 20.5597C18.3864 20.5597 18.1197 20.2929 18.1197 19.9498C18.1197 19.6066 18.3864 19.3395 18.7296 19.3395Z" fill="black"/>
<path d="M19.9498 19.3395C20.2929 19.3395 20.5597 19.6066 20.5597 19.9498C20.5596 20.2929 20.2929 20.5596 19.9498 20.5597C19.6066 20.5597 19.3395 20.2929 19.3395 19.9498C19.3395 19.6066 19.6066 19.3395 19.9498 19.3395Z" fill="black"/>
<path d="M21.1696 19.3395C21.5127 19.3395 21.7798 19.6066 21.7798 19.9498C21.7798 20.2929 21.5127 20.5597 21.1696 20.5597C20.8265 20.5596 20.5597 20.2928 20.5597 19.9498C20.5597 19.6066 20.8265 19.3396 21.1696 19.3395Z" fill="black"/>
<path d="M22.3897 19.3395C22.7329 19.3395 23 19.6066 23 19.9498C23 20.2929 22.7329 20.5597 22.3897 20.5597C22.0467 20.5596 21.7799 20.2928 21.7798 19.9498C21.7798 19.6066 22.0466 19.3396 22.3897 19.3395Z" fill="black"/>
<path d="M1.6099 18.1197C1.95305 18.1197 2.22017 18.3864 2.22017 18.7296C2.22017 19.0727 1.95305 19.3395 1.6099 19.3395C1.26682 19.3394 1 19.0727 1 18.7296C1 18.3865 1.26682 18.1198 1.6099 18.1197Z" fill="black"/>
<path d="M2.83008 18.1197C3.17323 18.1197 3.44034 18.3864 3.44035 18.7296C3.44035 19.0727 3.17323 19.3395 2.83008 19.3395C2.48699 19.3394 2.22017 19.0727 2.22017 18.7296C2.22018 18.3865 2.487 18.1198 2.83008 18.1197Z" fill="black"/>
<path d="M4.05025 18.1197C4.39338 18.1197 4.66015 18.3864 4.66015 18.7296C4.66015 19.0727 4.39338 19.3395 4.05025 19.3395C3.7071 19.3395 3.44035 19.0727 3.44035 18.7296C3.44035 18.3864 3.7071 18.1197 4.05025 18.1197Z" fill="black"/>
<path d="M5.27042 18.1197C5.61356 18.1197 5.88032 18.3864 5.88032 18.7296C5.88032 19.0727 5.61356 19.3395 5.27042 19.3395C4.92727 19.3395 4.66015 19.0727 4.66015 18.7296C4.66016 18.3864 4.92727 18.1197 5.27042 18.1197Z" fill="black"/>
<path d="M6.49023 18.1197C6.83338 18.1197 7.10049 18.3864 7.1005 18.7296C7.1005 19.0727 6.83338 19.3395 6.49023 19.3395C6.14714 19.3394 5.88032 19.0727 5.88032 18.7296C5.88033 18.3865 6.14715 18.1198 6.49023 18.1197Z" fill="black"/>
<path d="M7.7104 18.1197C8.05355 18.1197 8.32067 18.3864 8.32067 18.7296C8.32067 19.0727 8.05355 19.3395 7.7104 19.3395C7.36732 19.3394 7.1005 19.0727 7.1005 18.7296C7.1005 18.3865 7.36732 18.1198 7.7104 18.1197Z" fill="black"/>
<path d="M8.93057 18.1197C9.27372 18.1197 9.54084 18.3864 9.54085 18.7296C9.54085 19.0727 9.27373 19.3395 8.93057 19.3395C8.58749 19.3394 8.32067 19.0727 8.32067 18.7296C8.32068 18.3865 8.5875 18.1198 8.93057 18.1197Z" fill="black"/>
<path d="M10.1887 18.1197C10.4938 18.1197 10.799 18.3864 10.799 18.7296C10.799 19.0727 10.5319 19.3395 10.1887 19.3395C9.84565 19.3394 9.57883 19.0727 9.57883 18.7296C9.57883 18.3865 9.84565 18.1198 10.1887 18.1197Z" fill="black"/>
<path d="M11.4089 18.1197C11.7521 18.1197 12.0192 18.3864 12.0192 18.7296C12.0192 19.0727 11.7521 19.3395 11.4089 19.3395C11.0658 19.3394 10.799 19.0727 10.799 18.7296C10.799 18.3865 11.0658 18.1198 11.4089 18.1197Z" fill="black"/>
<path d="M12.6291 18.1197C12.9722 18.1197 13.239 18.3864 13.239 18.7296C13.239 19.0727 12.9722 19.3395 12.6291 19.3395C12.2859 19.3395 12.0192 19.0727 12.0192 18.7296C12.0192 18.3864 12.2859 18.1197 12.6291 18.1197Z" fill="black"/>
<path d="M13.8493 18.1197C14.1924 18.1197 14.4591 18.3864 14.4592 18.7296C14.4592 19.0727 14.1924 19.3395 13.8493 19.3395C13.5061 19.3395 13.239 19.0727 13.239 18.7296C13.239 18.3864 13.5061 18.1197 13.8493 18.1197Z" fill="black"/>
<path d="M15.0691 18.1197C15.4122 18.1197 15.6793 18.3864 15.6793 18.7296C15.6793 19.0727 15.4122 19.3395 15.0691 19.3395C14.726 19.3394 14.4592 19.0727 14.4592 18.7296C14.4592 18.3865 14.726 18.1198 15.0691 18.1197Z" fill="black"/>
<path d="M16.2892 18.1197C16.6324 18.1197 16.8995 18.3864 16.8995 18.7296C16.8995 19.0727 16.6324 19.3395 16.2892 19.3395C15.9461 19.3394 15.6793 19.0727 15.6793 18.7296C15.6793 18.3865 15.9461 18.1198 16.2892 18.1197Z" fill="black"/>
<path d="M17.5094 18.1197C17.8526 18.1197 18.1197 18.3864 18.1197 18.7296C18.1197 19.0727 17.8526 19.3395 17.5094 19.3395C17.1663 19.3394 16.8995 19.0727 16.8995 18.7296C16.8995 18.3865 17.1663 18.1198 17.5094 18.1197Z" fill="black"/>
<path d="M18.7296 18.1197C19.0727 18.1197 19.3395 18.3864 19.3395 18.7296C19.3395 19.0727 19.0727 19.3395 18.7296 19.3395C18.3864 19.3395 18.1197 19.0727 18.1197 18.7296C18.1197 18.3864 18.3864 18.1197 18.7296 18.1197Z" fill="black"/>
<path d="M19.9498 18.1197C20.2929 18.1197 20.5596 18.3864 20.5597 18.7296C20.5597 19.0727 20.2929 19.3395 19.9498 19.3395C19.6066 19.3395 19.3395 19.0727 19.3395 18.7296C19.3395 18.3864 19.6066 18.1197 19.9498 18.1197Z" fill="black"/>
<path d="M21.1696 18.1197C21.5127 18.1197 21.7798 18.3864 21.7798 18.7296C21.7798 19.0727 21.5127 19.3395 21.1696 19.3395C20.8265 19.3394 20.5597 19.0727 20.5597 18.7296C20.5597 18.3865 20.8265 18.1198 21.1696 18.1197Z" fill="black"/>
<path d="M22.3897 18.1197C22.7329 18.1197 23 18.3864 23 18.7296C23 19.0727 22.7329 19.3395 22.3897 19.3395C22.0466 19.3394 21.7798 19.0727 21.7798 18.7296C21.7798 18.3865 22.0466 18.1198 22.3897 18.1197Z" fill="black"/>
<path d="M1.6099 16.8995C1.95304 16.8995 2.22015 17.1663 2.22017 17.5094C2.22017 17.8526 1.95305 18.1197 1.6099 18.1197C1.26682 18.1196 1 17.8525 1 17.5094C1.00003 17.1663 1.26684 16.8996 1.6099 16.8995Z" fill="black"/>
<path d="M2.83008 16.8995C3.17321 16.8995 3.44032 17.1663 3.44035 17.5094C3.44035 17.8526 3.17323 18.1197 2.83008 18.1197C2.48699 18.1196 2.22017 17.8525 2.22017 17.5094C2.2202 17.1663 2.48701 16.8996 2.83008 16.8995Z" fill="black"/>
<path d="M4.05025 16.8995C4.39337 16.8995 4.66012 17.1663 4.66015 17.5094C4.66015 17.8525 4.39338 18.1197 4.05025 18.1197C3.7071 18.1197 3.44035 17.8526 3.44035 17.5094C3.44038 17.1663 3.70711 16.8995 4.05025 16.8995Z" fill="black"/>
<path d="M5.27042 16.8995C5.61354 16.8995 5.8803 17.1663 5.88032 17.5094C5.88032 17.8525 5.61356 18.1197 5.27042 18.1197C4.92727 18.1197 4.66015 17.8526 4.66015 17.5094C4.66018 17.1663 4.92729 16.8995 5.27042 16.8995Z" fill="black"/>
<path d="M18.7296 16.8995C19.0727 16.8995 19.3394 17.1663 19.3395 17.5094C19.3395 17.8525 19.0727 18.1197 18.7296 18.1197C18.3864 18.1197 18.1197 17.8526 18.1197 17.5094C18.1197 17.1663 18.3864 16.8995 18.7296 16.8995Z" fill="black"/>
<path d="M19.9498 16.8995C20.2929 16.8995 20.5596 17.1663 20.5597 17.5094C20.5597 17.8525 20.2929 18.1197 19.9498 18.1197C19.6066 18.1197 19.3395 17.8526 19.3395 17.5094C19.3395 17.1663 19.6066 16.8995 19.9498 16.8995Z" fill="black"/>
<path d="M21.1696 16.8995C21.5127 16.8995 21.7798 17.1663 21.7798 17.5094C21.7798 17.8526 21.5127 18.1197 21.1696 18.1197C20.8265 18.1196 20.5597 17.8525 20.5597 17.5094C20.5597 17.1663 20.8265 16.8996 21.1696 16.8995Z" fill="black"/>
<path d="M22.3897 16.8995C22.7329 16.8995 23 17.1663 23 17.5094C23 17.8526 22.7329 18.1197 22.3897 18.1197C22.0466 18.1196 21.7798 17.8525 21.7798 17.5094C21.7799 17.1663 22.0467 16.8996 22.3897 16.8995Z" fill="black"/>
<path d="M1.6099 15.6793C1.953 15.6793 2.2201 15.9461 2.22017 16.2892C2.22017 16.6324 1.95305 16.8995 1.6099 16.8995C1.26682 16.8994 1 16.6323 1 16.2892C1.00008 15.9462 1.26687 15.6794 1.6099 15.6793Z" fill="black"/>
<path d="M2.83008 15.6793C3.17318 15.6793 3.44027 15.9461 3.44035 16.2892C3.44035 16.6324 3.17323 16.8995 2.83008 16.8995C2.48699 16.8994 2.22017 16.6323 2.22017 16.2892C2.22025 15.9462 2.48704 15.6794 2.83008 15.6793Z" fill="black"/>
<path d="M4.05025 15.6793C4.39334 15.6793 4.66007 15.9462 4.66015 16.2892C4.66015 16.6324 4.39338 16.8995 4.05025 16.8995C3.7071 16.8995 3.44035 16.6324 3.44035 16.2892C3.44043 15.9461 3.70715 15.6793 4.05025 15.6793Z" fill="black"/>
<path d="M5.27042 15.6793C5.61351 15.6793 5.88025 15.9462 5.88032 16.2892C5.88032 16.6324 5.61356 16.8995 5.27042 16.8995C4.92727 16.8995 4.66015 16.6324 4.66015 16.2892C4.66023 15.9461 4.92732 15.6793 5.27042 15.6793Z" fill="black"/>
<path d="M18.7296 15.6793C19.0727 15.6793 19.3394 15.9462 19.3395 16.2892C19.3395 16.6324 19.0727 16.8995 18.7296 16.8995C18.3864 16.8995 18.1197 16.6324 18.1197 16.2892C18.1198 15.9461 18.3865 15.6793 18.7296 15.6793Z" fill="black"/>
<path d="M19.9498 15.6793C20.2928 15.6793 20.5596 15.9462 20.5597 16.2892C20.5597 16.6324 20.2929 16.8995 19.9498 16.8995C19.6066 16.8995 19.3395 16.6324 19.3395 16.2892C19.3396 15.9461 19.6066 15.6793 19.9498 15.6793Z" fill="black"/>
<path d="M21.1696 15.6793C21.5127 15.6793 21.7797 15.9461 21.7798 16.2892C21.7798 16.6324 21.5127 16.8995 21.1696 16.8995C20.8265 16.8994 20.5597 16.6323 20.5597 16.2892C20.5597 15.9462 20.8265 15.6794 21.1696 15.6793Z" fill="black"/>
<path d="M22.3897 15.6793C22.7328 15.6793 22.9999 15.9461 23 16.2892C23 16.6324 22.7329 16.8995 22.3897 16.8995C22.0466 16.8994 21.7798 16.6323 21.7798 16.2892C21.7799 15.9462 22.0467 15.6794 22.3897 15.6793Z" fill="black"/>
<path d="M1.6099 14.4592C1.95305 14.4592 2.22017 14.7263 2.22017 15.0694C2.22011 15.4125 1.95301 15.6793 1.6099 15.6793C1.26686 15.6792 1.00007 15.4125 1 15.0694C1 14.7263 1.26682 14.4592 1.6099 14.4592Z" fill="black"/>
<path d="M2.83008 14.4592C3.17323 14.4592 3.44035 14.7263 3.44035 15.0694C3.44028 15.4125 3.17319 15.6793 2.83008 15.6793C2.48704 15.6792 2.22024 15.4125 2.22017 15.0694C2.22017 14.7263 2.48699 14.4592 2.83008 14.4592Z" fill="black"/>
<path d="M4.05025 14.4592C4.39338 14.4592 4.66015 14.7263 4.66015 15.0694C4.66008 15.4125 4.39334 15.6793 4.05025 15.6793C3.70714 15.6793 3.44042 15.4125 3.44035 15.0694C3.44035 14.7263 3.7071 14.4592 4.05025 14.4592Z" fill="black"/>
<path d="M5.27042 14.4592C5.61356 14.4592 5.88032 14.7263 5.88032 15.0694C5.88026 15.4125 5.61352 15.6793 5.27042 15.6793C4.92731 15.6793 4.66022 15.4125 4.66015 15.0694C4.66015 14.7263 4.92727 14.4592 5.27042 14.4592Z" fill="black"/>
<path d="M18.7296 14.4592C19.0727 14.4592 19.3395 14.7263 19.3395 15.0694C19.3394 15.4125 19.0727 15.6793 18.7296 15.6793C18.3865 15.6793 18.1197 15.4125 18.1197 15.0694C18.1197 14.7263 18.3864 14.4592 18.7296 14.4592Z" fill="black"/>
<path d="M19.9498 14.4592C20.2929 14.4592 20.5597 14.7263 20.5597 15.0694C20.5596 15.4125 20.2928 15.6793 19.9498 15.6793C19.6066 15.6793 19.3395 15.4125 19.3395 15.0694C19.3395 14.7263 19.6066 14.4592 19.9498 14.4592Z" fill="black"/>
<path d="M21.1696 14.4592C21.5127 14.4592 21.7798 14.7263 21.7798 15.0694C21.7798 15.4125 21.5127 15.6793 21.1696 15.6793C20.8265 15.6792 20.5597 15.4125 20.5597 15.0694C20.5597 14.7263 20.8265 14.4592 21.1696 14.4592Z" fill="black"/>
<path d="M22.3897 14.4592C22.7329 14.4592 23 14.7263 23 15.0694C22.9999 15.4125 22.7328 15.6793 22.3897 15.6793C22.0467 15.6792 21.7799 15.4125 21.7798 15.0694C21.7798 14.7263 22.0466 14.4592 22.3897 14.4592Z" fill="black"/>
<path d="M1.6099 13.239C1.95305 13.239 2.22017 13.5061 2.22017 13.8493C2.22013 14.1924 1.95303 14.4592 1.6099 14.4592C1.26685 14.4591 1.00004 14.1923 1 13.8493C1 13.5061 1.26682 13.2391 1.6099 13.239Z" fill="black"/>
<path d="M2.83008 13.239C3.17323 13.239 3.44035 13.5061 3.44035 13.8493C3.44031 14.1924 3.1732 14.4592 2.83008 14.4592C2.48702 14.4591 2.22022 14.1923 2.22017 13.8493C2.22017 13.5061 2.48699 13.2391 2.83008 13.239Z" fill="black"/>
<path d="M4.05025 13.239C4.39338 13.239 4.66015 13.5061 4.66015 13.8493C4.66011 14.1924 4.39336 14.4591 4.05025 14.4592C3.70712 14.4592 3.44039 14.1924 3.44035 13.8493C3.44035 13.5061 3.7071 13.239 4.05025 13.239Z" fill="black"/>
<path d="M5.27042 13.239C5.61356 13.239 5.88032 13.5061 5.88032 13.8493C5.88028 14.1924 5.61353 14.4591 5.27042 14.4592C4.9273 14.4592 4.66019 14.1924 4.66015 13.8493C4.66015 13.5061 4.92727 13.239 5.27042 13.239Z" fill="black"/>
<path d="M18.7296 13.239C19.0727 13.239 19.3395 13.5061 19.3395 13.8493C19.3394 14.1924 19.0727 14.4591 18.7296 14.4592C18.3864 14.4592 18.1197 14.1924 18.1197 13.8493C18.1197 13.5061 18.3864 13.239 18.7296 13.239Z" fill="black"/>
<path d="M19.9498 13.239C20.2929 13.239 20.5597 13.5061 20.5597 13.8493C20.5596 14.1924 20.2929 14.4591 19.9498 14.4592C19.6066 14.4592 19.3395 14.1924 19.3395 13.8493C19.3395 13.5061 19.6066 13.239 19.9498 13.239Z" fill="black"/>
<path d="M21.1696 13.239C21.5127 13.239 21.7798 13.5061 21.7798 13.8493C21.7798 14.1924 21.5127 14.4592 21.1696 14.4592C20.8265 14.4591 20.5597 14.1923 20.5597 13.8493C20.5597 13.5061 20.8265 13.2391 21.1696 13.239Z" fill="black"/>
<path d="M22.3897 13.239C22.7329 13.239 23 13.5061 23 13.8493C23 14.1924 22.7329 14.4592 22.3897 14.4592C22.0467 14.4591 21.7799 14.1923 21.7798 13.8493C21.7798 13.5061 22.0466 13.2391 22.3897 13.239Z" fill="black"/>
<path d="M1.6099 11.9808C1.95305 11.9808 2.22017 12.2479 2.22017 12.5911C2.22011 12.9342 1.95301 13.201 1.6099 13.201C1.26686 13.2009 1.00007 12.9341 1 12.5911C1 12.248 1.26682 11.9809 1.6099 11.9808Z" fill="black"/>
<path d="M2.83008 11.9808C3.17323 11.9808 3.44035 12.2479 3.44035 12.5911C3.44028 12.9342 3.17318 13.201 2.83008 13.201C2.48704 13.2009 2.22024 12.9341 2.22017 12.5911C2.22017 12.248 2.48699 11.9809 2.83008 11.9808Z" fill="black"/>
<path d="M4.05025 11.9808C4.39338 11.9808 4.66015 12.248 4.66015 12.5911C4.66008 12.9342 4.39334 13.201 4.05025 13.201C3.70714 13.201 3.44042 12.9342 3.44035 12.5911C3.44035 12.2479 3.7071 11.9808 4.05025 11.9808Z" fill="black"/>
<path d="M5.27042 11.9808C5.61356 11.9808 5.88032 12.248 5.88032 12.5911C5.88026 12.9342 5.61352 13.201 5.27042 13.201C4.92731 13.201 4.66022 12.9342 4.66015 12.5911C4.66015 12.2479 4.92727 11.9808 5.27042 11.9808Z" fill="black"/>
<path d="M18.7296 11.9808C19.0727 11.9808 19.3395 12.248 19.3395 12.5911C19.3394 12.9342 19.0727 13.201 18.7296 13.201C18.3865 13.201 18.1197 12.9342 18.1197 12.5911C18.1197 12.2479 18.3864 11.9808 18.7296 11.9808Z" fill="black"/>
<path d="M19.9498 11.9808C20.2929 11.9808 20.5597 12.248 20.5597 12.5911C20.5596 12.9342 20.2928 13.201 19.9498 13.201C19.6066 13.201 19.3395 12.9342 19.3395 12.5911C19.3395 12.2479 19.6066 11.9808 19.9498 11.9808Z" fill="black"/>
<path d="M21.1696 11.9808C21.5127 11.9808 21.7798 12.2479 21.7798 12.5911C21.7798 12.9342 21.5127 13.201 21.1696 13.201C20.8265 13.2009 20.5597 12.9341 20.5597 12.5911C20.5597 12.248 20.8265 11.9809 21.1696 11.9808Z" fill="black"/>
<path d="M22.3897 11.9808C22.7329 11.9808 23 12.2479 23 12.5911C22.9999 12.9342 22.7328 13.201 22.3897 13.201C22.0467 13.2009 21.7799 12.9341 21.7798 12.5911C21.7798 12.248 22.0466 11.9809 22.3897 11.9808Z" fill="black"/>
<path d="M1.6099 10.7606C1.95305 10.7606 2.22017 11.0278 2.22017 11.3709C2.22013 11.714 1.95303 11.9808 1.6099 11.9808C1.26685 11.9807 1.00004 11.714 1 11.3709C1 11.0278 1.26682 10.7607 1.6099 10.7606Z" fill="black"/>
<path d="M2.83008 10.7606C3.17323 10.7606 3.44035 11.0278 3.44035 11.3709C3.44031 11.714 3.1732 11.9808 2.83008 11.9808C2.48702 11.9807 2.22022 11.714 2.22017 11.3709C2.22017 11.0278 2.48699 10.7607 2.83008 10.7606Z" fill="black"/>
<path d="M4.05025 10.7606C4.39338 10.7607 4.66015 11.0278 4.66015 11.3709C4.66011 11.714 4.39336 11.9808 4.05025 11.9808C3.70712 11.9808 3.44039 11.714 3.44035 11.3709C3.44035 11.0278 3.7071 10.7606 4.05025 10.7606Z" fill="black"/>
<path d="M5.27042 10.7606C5.61356 10.7607 5.88032 11.0278 5.88032 11.3709C5.88028 11.714 5.61353 11.9808 5.27042 11.9808C4.9273 11.9808 4.66019 11.714 4.66015 11.3709C4.66015 11.0278 4.92727 10.7606 5.27042 10.7606Z" fill="black"/>
<path d="M18.7296 10.7606C19.0727 10.7607 19.3395 11.0278 19.3395 11.3709C19.3394 11.714 19.0727 11.9808 18.7296 11.9808C18.3864 11.9808 18.1197 11.714 18.1197 11.3709C18.1197 11.0278 18.3864 10.7606 18.7296 10.7606Z" fill="black"/>
<path d="M19.9498 10.7606C20.2929 10.7607 20.5597 11.0278 20.5597 11.3709C20.5596 11.714 20.2929 11.9808 19.9498 11.9808C19.6066 11.9808 19.3395 11.714 19.3395 11.3709C19.3395 11.0278 19.6066 10.7606 19.9498 10.7606Z" fill="black"/>
<path d="M21.1696 10.7606C21.5127 10.7606 21.7798 11.0278 21.7798 11.3709C21.7798 11.714 21.5127 11.9808 21.1696 11.9808C20.8265 11.9807 20.5597 11.714 20.5597 11.3709C20.5597 11.0278 20.8265 10.7607 21.1696 10.7606Z" fill="black"/>
<path d="M22.3897 10.7606C22.7329 10.7606 23 11.0278 23 11.3709C23 11.714 22.7329 11.9808 22.3897 11.9808C22.0467 11.9807 21.7799 11.714 21.7798 11.3709C21.7798 11.0278 22.0466 10.7607 22.3897 10.7606Z" fill="black"/>
<path d="M1.6099 9.54085C1.95305 9.54085 2.22017 9.84573 2.22017 10.1507C2.22017 10.4939 1.95305 10.7606 1.6099 10.7606C1.26682 10.7606 1 10.4939 1 10.1507C1.00001 9.84577 1.26682 9.54094 1.6099 9.54085Z" fill="black"/>
<path d="M2.83008 9.54085C3.17322 9.54085 3.44034 9.84573 3.44035 10.1507C3.44035 10.4939 3.17323 10.7606 2.83008 10.7606C2.48699 10.7606 2.22017 10.4939 2.22017 10.1507C2.22018 9.80765 2.487 9.54093 2.83008 9.54085Z" fill="black"/>
<path d="M4.05025 9.54085C4.39338 9.54087 4.66015 9.84574 4.66015 10.1507C4.66015 10.4939 4.39338 10.7606 4.05025 10.7606C3.7071 10.7606 3.44035 10.4939 3.44035 10.1507C3.44035 9.8076 3.7071 9.54085 4.05025 9.54085Z" fill="black"/>
<path d="M5.27042 9.54085C5.61356 9.54087 5.88032 9.84574 5.88032 10.1507C5.88032 10.4939 5.61356 10.7606 5.27042 10.7606C4.92727 10.7606 4.66015 10.4939 4.66015 10.1507C4.66016 9.8076 4.92727 9.54085 5.27042 9.54085Z" fill="black"/>
<path d="M18.7296 9.54085C19.0727 9.54087 19.3395 9.84574 19.3395 10.1507C19.3395 10.4939 19.0727 10.7606 18.7296 10.7606C18.3864 10.7606 18.1197 10.4939 18.1197 10.1507C18.1197 9.8076 18.3864 9.54085 18.7296 9.54085Z" fill="black"/>
<path d="M19.9498 9.54085C20.2929 9.54087 20.5596 9.84574 20.5597 10.1507C20.5597 10.4939 20.2929 10.7606 19.9498 10.7606C19.6066 10.7606 19.3395 10.4939 19.3395 10.1507C19.3395 9.8076 19.6066 9.54085 19.9498 9.54085Z" fill="black"/>
<path d="M21.1696 9.54085C21.5127 9.54085 21.7798 9.84573 21.7798 10.1507C21.7798 10.4939 21.5127 10.7606 21.1696 10.7606C20.8265 10.7606 20.5597 10.4939 20.5597 10.1507C20.5597 9.80765 20.8265 9.54093 21.1696 9.54085Z" fill="black"/>
<path d="M22.3897 9.54085C22.7329 9.54085 23 9.84573 23 10.1507C23 10.4939 22.7329 10.7606 22.3897 10.7606C22.0466 10.7606 21.7798 10.4939 21.7798 10.1507C21.7798 9.80765 22.0466 9.54093 22.3897 9.54085Z" fill="black"/>
<path d="M1.6099 8.32067C1.95303 8.32067 2.22013 8.58746 2.22017 8.93057C2.22017 9.27373 1.95305 9.54085 1.6099 9.54085C1.26682 9.54077 1 9.27368 1 8.93057C1.00004 8.58751 1.26685 8.32075 1.6099 8.32067Z" fill="black"/>
<path d="M2.83008 8.32067C3.1732 8.32067 3.44031 8.58746 3.44035 8.93057C3.44035 9.27373 3.17323 9.54085 2.83008 9.54085C2.48699 9.54077 2.22017 9.27368 2.22017 8.93057C2.22021 8.58751 2.48702 8.32075 2.83008 8.32067Z" fill="black"/>
<path d="M4.05025 8.32067C4.39336 8.32069 4.66011 8.58747 4.66015 8.93057C4.66015 9.27372 4.39338 9.54083 4.05025 9.54085C3.7071 9.54085 3.44035 9.27373 3.44035 8.93057C3.44039 8.58746 3.70712 8.32067 4.05025 8.32067Z" fill="black"/>
<path d="M5.27042 8.32067C5.61353 8.32069 5.88028 8.58747 5.88032 8.93057C5.88032 9.27372 5.61356 9.54083 5.27042 9.54085C4.92727 9.54085 4.66015 9.27373 4.66015 8.93057C4.66019 8.58746 4.9273 8.32067 5.27042 8.32067Z" fill="black"/>
<path d="M18.7296 8.32067C19.0727 8.32069 19.3394 8.58747 19.3395 8.93057C19.3395 9.27372 19.0727 9.54083 18.7296 9.54085C18.3864 9.54085 18.1197 9.27373 18.1197 8.93057C18.1197 8.58746 18.3864 8.32067 18.7296 8.32067Z" fill="black"/>
<path d="M19.9498 8.32067C20.2929 8.32069 20.5596 8.58747 20.5597 8.93057C20.5597 9.27372 20.2929 9.54083 19.9498 9.54085C19.6066 9.54085 19.3395 9.27373 19.3395 8.93057C19.3395 8.58746 19.6066 8.32067 19.9498 8.32067Z" fill="black"/>
<path d="M21.1696 8.32067C21.5127 8.32067 21.7798 8.58746 21.7798 8.93057C21.7798 9.27373 21.5127 9.54085 21.1696 9.54085C20.8265 9.54077 20.5597 9.27368 20.5597 8.93057C20.5597 8.58751 20.8265 8.32075 21.1696 8.32067Z" fill="black"/>
<path d="M22.3897 8.32067C22.7329 8.32067 23 8.58746 23 8.93057C23 9.27373 22.7329 9.54085 22.3897 9.54085C22.0466 9.54077 21.7798 9.27368 21.7798 8.93057C21.7799 8.58751 22.0467 8.32075 22.3897 8.32067Z" fill="black"/>
<path d="M2.83008 7.1005C3.17318 7.1005 3.44027 7.36732 3.44035 7.7104C3.44035 8.05355 3.17323 8.32067 2.83008 8.32067C2.48699 8.3206 2.22017 8.0535 2.22017 7.7104C2.22025 7.36737 2.48704 7.10058 2.83008 7.1005Z" fill="black"/>
<path d="M4.05025 7.1005C4.39334 7.10052 4.66007 7.36733 4.66015 7.7104C4.66015 8.05354 4.39338 8.32065 4.05025 8.32067C3.7071 8.32067 3.44035 8.05355 3.44035 7.7104C3.44043 7.36732 3.70715 7.1005 4.05025 7.1005Z" fill="black"/>
<path d="M5.27042 7.1005C5.61351 7.10052 5.88025 7.36733 5.88032 7.7104C5.88032 8.05354 5.61356 8.32065 5.27042 8.32067C4.92727 8.32067 4.66015 8.05355 4.66015 7.7104C4.66023 7.36732 4.92732 7.1005 5.27042 7.1005Z" fill="black"/>
<path d="M18.7296 7.1005C19.0727 7.10052 19.3394 7.36733 19.3395 7.7104C19.3395 8.05354 19.0727 8.32065 18.7296 8.32067C18.3864 8.32067 18.1197 8.05355 18.1197 7.7104C18.1198 7.36732 18.3865 7.1005 18.7296 7.1005Z" fill="black"/>
<path d="M19.9498 7.1005C20.2928 7.10052 20.5596 7.36733 20.5597 7.7104C20.5597 8.05354 20.2929 8.32065 19.9498 8.32067C19.6066 8.32067 19.3395 8.05355 19.3395 7.7104C19.3396 7.36732 19.6066 7.1005 19.9498 7.1005Z" fill="black"/>
<path d="M21.1696 7.1005C21.5127 7.1005 21.7797 7.36732 21.7798 7.7104C21.7798 8.05355 21.5127 8.32067 21.1696 8.32067C20.8265 8.3206 20.5597 8.0535 20.5597 7.7104C20.5597 7.36737 20.8265 7.10058 21.1696 7.1005Z" fill="black"/>
<path d="M22.3897 7.1005C22.7328 7.1005 22.9999 7.36732 23 7.7104C23 8.05355 22.7329 8.32067 22.3897 8.32067C22.0466 8.3206 21.7798 8.0535 21.7798 7.7104C21.7799 7.36737 22.0467 7.10058 22.3897 7.1005Z" fill="black"/>
<path d="M4.05025 5.88032C4.39338 5.88034 4.66015 6.14746 4.66015 6.4906C4.66007 6.83366 4.39333 7.10048 4.05025 7.1005C3.70715 7.1005 3.44043 6.83368 3.44035 6.4906C3.44035 6.14745 3.7071 5.88032 4.05025 5.88032Z" fill="black"/>
<path d="M5.27042 5.88032C5.61356 5.88034 5.88032 6.14746 5.88032 6.4906C5.88025 6.83366 5.61351 7.10048 5.27042 7.1005C4.92732 7.1005 4.66023 6.83368 4.66015 6.4906C4.66015 6.14745 4.92727 5.88032 5.27042 5.88032Z" fill="black"/>
<path d="M18.7296 5.88032C19.0727 5.88034 19.3395 6.14746 19.3395 6.4906C19.3394 6.83366 19.0727 7.10048 18.7296 7.1005C18.3865 7.1005 18.1198 6.83368 18.1197 6.4906C18.1197 6.14745 18.3864 5.88032 18.7296 5.88032Z" fill="black"/>
<path d="M19.9498 5.88032C20.2929 5.88034 20.5597 6.14746 20.5597 6.4906C20.5596 6.83366 20.2928 7.10048 19.9498 7.1005C19.6066 7.1005 19.3396 6.83368 19.3395 6.4906C19.3395 6.14745 19.6066 5.88032 19.9498 5.88032Z" fill="black"/>
<path d="M21.1696 5.88032C21.5127 5.88032 21.7798 6.14745 21.7798 6.4906C21.7797 6.83368 21.5127 7.1005 21.1696 7.1005C20.8265 7.10042 20.5597 6.83363 20.5597 6.4906C20.5597 6.1475 20.8265 5.8804 21.1696 5.88032Z" fill="black"/>
<path d="M22.3897 5.88032C22.7329 5.88032 23 6.14745 23 6.4906C22.9999 6.83368 22.7328 7.1005 22.3897 7.1005C22.0467 7.10042 21.7799 6.83363 21.7798 6.4906C21.7798 6.14749 22.0466 5.8804 22.3897 5.88032Z" fill="black"/>
<path d="M5.27042 4.66015C5.61356 4.66017 5.88032 4.92728 5.88032 5.27042C5.88028 5.61352 5.61353 5.88031 5.27042 5.88032C4.9273 5.88032 4.66057 5.61354 4.66052 5.27042C4.66052 4.92727 4.92727 4.66015 5.27042 4.66015Z" fill="black"/>
<path d="M6.49023 4.66015C6.83338 4.66015 7.1005 4.92727 7.1005 5.27042C7.10046 5.61354 6.83335 5.88032 6.49023 5.88032C6.14717 5.88025 5.88037 5.61349 5.88032 5.27042C5.88032 4.92732 6.14714 4.66023 6.49023 4.66015Z" fill="black"/>
<path d="M7.7104 4.66015C8.05355 4.66015 8.32067 4.92727 8.32067 5.27042C8.32063 5.61354 8.05352 5.88032 7.7104 5.88032C7.36735 5.88025 7.10054 5.61349 7.1005 5.27042C7.1005 4.92732 7.36732 4.66023 7.7104 4.66015Z" fill="black"/>
<path d="M8.93057 4.66015C9.27373 4.66015 9.54085 4.92727 9.54085 5.27042C9.5408 5.61354 9.2737 5.88032 8.93057 5.88032C8.58752 5.88025 8.32072 5.61349 8.32067 5.27042C8.32067 4.92732 8.58749 4.66023 8.93057 4.66015Z" fill="black"/>
<path d="M10.1887 4.66015C10.4938 4.66015 10.799 4.92727 10.799 5.27042C10.799 5.61354 10.5319 5.88032 10.1887 5.88032C9.84567 5.88025 9.57887 5.61349 9.57883 5.27042C9.57883 4.92732 9.84565 4.66023 10.1887 4.66015Z" fill="black"/>
<path d="M11.4089 4.66015C11.7521 4.66015 12.0192 4.92727 12.0192 5.27042C12.0191 5.61354 11.752 5.88032 11.4089 5.88032C11.0658 5.88025 10.799 5.61349 10.799 5.27042C10.799 4.92732 11.0658 4.66023 11.4089 4.66015Z" fill="black"/>
<path d="M12.6291 4.66015C12.9722 4.66017 13.239 4.92728 13.239 5.27042C13.2389 5.61352 12.9722 5.88031 12.6291 5.88032C12.286 5.88032 12.0192 5.61354 12.0192 5.27042C12.0192 4.92727 12.2859 4.66015 12.6291 4.66015Z" fill="black"/>
<path d="M13.8493 4.66015C14.1924 4.66017 14.4592 4.92728 14.4592 5.27042C14.4591 5.61352 14.1924 5.88031 13.8493 5.88032C13.5061 5.88032 13.239 5.61354 13.239 5.27042C13.239 4.92727 13.5061 4.66015 13.8493 4.66015Z" fill="black"/>
<path d="M15.0691 4.66015C15.4122 4.66015 15.6793 4.92727 15.6793 5.27042C15.6793 5.61354 15.4122 5.88032 15.0691 5.88032C14.726 5.88025 14.4592 5.61349 14.4592 5.27042C14.4592 4.92732 14.726 4.66023 15.0691 4.66015Z" fill="black"/>
<path d="M16.2892 4.66015C16.6324 4.66015 16.8995 4.92727 16.8995 5.27042C16.8995 5.61354 16.6324 5.88032 16.2892 5.88032C15.9462 5.88025 15.6794 5.61349 15.6793 5.27042C15.6793 4.92732 15.9461 4.66023 16.2892 4.66015Z" fill="black"/>
<path d="M17.5094 4.66015C17.8526 4.66015 18.1197 4.92727 18.1197 5.27042C18.1196 5.61354 17.8525 5.88032 17.5094 5.88032C17.1663 5.88025 16.8995 5.61349 16.8995 5.27042C16.8995 4.92732 17.1663 4.66023 17.5094 4.66015Z" fill="black"/>
<path d="M18.7296 4.66015C19.0727 4.66017 19.3395 4.92728 19.3395 5.27042C19.3394 5.61352 19.0727 5.88031 18.7296 5.88032C18.3864 5.88032 18.1197 5.61354 18.1197 5.27042C18.1197 4.92727 18.3864 4.66015 18.7296 4.66015Z" fill="black"/>
<path d="M19.9498 4.66015C20.2929 4.66017 20.5597 4.92728 20.5597 5.27042C20.5596 5.61352 20.2929 5.88031 19.9498 5.88032C19.6066 5.88032 19.3395 5.61354 19.3395 5.27042C19.3395 4.92727 19.6066 4.66015 19.9498 4.66015Z" fill="black"/>
<path d="M21.1696 4.66015C21.5127 4.66015 21.7798 4.92727 21.7798 5.27042C21.7798 5.61354 21.5127 5.88032 21.1696 5.88032C20.8265 5.88025 20.5597 5.61349 20.5597 5.27042C20.5597 4.92732 20.8265 4.66023 21.1696 4.66015Z" fill="black"/>
<path d="M22.3897 4.66015C22.7329 4.66015 23 4.92727 23 5.27042C23 5.61354 22.7329 5.88032 22.3897 5.88032C22.0467 5.88025 21.7799 5.61349 21.7798 5.27042C21.7798 4.92732 22.0466 4.66023 22.3897 4.66015Z" fill="black"/>
<path d="M6.49023 3.44035C6.83338 3.44035 7.10049 3.7071 7.1005 4.05025C7.1005 4.3934 6.83338 4.66015 6.49023 4.66015C6.14714 4.66007 5.88032 4.39335 5.88032 4.05025C5.88033 3.70715 6.14715 3.44043 6.49023 3.44035Z" fill="black"/>
<path d="M7.7104 3.44035C8.05355 3.44035 8.32067 3.7071 8.32067 4.05025C8.32067 4.3934 8.05355 4.66015 7.7104 4.66015C7.36732 4.66007 7.1005 4.39335 7.1005 4.05025C7.1005 3.70715 7.36732 3.44043 7.7104 3.44035Z" fill="black"/>
<path d="M8.93057 3.44035C9.27372 3.44035 9.54084 3.7071 9.54085 4.05025C9.54085 4.3934 9.27373 4.66015 8.93057 4.66015C8.58749 4.66007 8.32067 4.39335 8.32067 4.05025C8.32068 3.70715 8.5875 3.44043 8.93057 3.44035Z" fill="black"/>
<path d="M10.1887 3.44035C10.4938 3.44035 10.799 3.7071 10.799 4.05025C10.799 4.3934 10.5319 4.66015 10.1887 4.66015C9.84565 4.66007 9.57883 4.39335 9.57883 4.05025C9.57883 3.70715 9.84565 3.44043 10.1887 3.44035Z" fill="black"/>
<path d="M11.4089 3.44035C11.7521 3.44035 12.0192 3.7071 12.0192 4.05025C12.0192 4.3934 11.7521 4.66015 11.4089 4.66015C11.0658 4.66007 10.799 4.39335 10.799 4.05025C10.799 3.70715 11.0658 3.44043 11.4089 3.44035Z" fill="black"/>
<path d="M12.6291 3.44035C12.9722 3.44037 13.239 3.70711 13.239 4.05025C13.239 4.39339 12.9722 4.66013 12.6291 4.66015C12.2859 4.66015 12.0192 4.3934 12.0192 4.05025C12.0192 3.7071 12.2859 3.44035 12.6291 3.44035Z" fill="black"/>
<path d="M13.8493 3.44035C14.1924 3.44037 14.4591 3.70711 14.4592 4.05025C14.4592 4.39339 14.1924 4.66013 13.8493 4.66015C13.5061 4.66015 13.239 4.3934 13.239 4.05025C13.239 3.7071 13.5061 3.44035 13.8493 3.44035Z" fill="black"/>
<path d="M15.0691 3.44035C15.4122 3.44035 15.6793 3.7071 15.6793 4.05025C15.6793 4.3934 15.4122 4.66015 15.0691 4.66015C14.726 4.66007 14.4592 4.39335 14.4592 4.05025C14.4592 3.70715 14.726 3.44043 15.0691 3.44035Z" fill="black"/>
<path d="M16.2892 3.44035C16.6324 3.44035 16.8995 3.7071 16.8995 4.05025C16.8995 4.3934 16.6324 4.66015 16.2892 4.66015C15.9461 4.66007 15.6793 4.39335 15.6793 4.05025C15.6793 3.70715 15.9461 3.44043 16.2892 3.44035Z" fill="black"/>
<path d="M17.5094 3.44035C17.8526 3.44035 18.1197 3.7071 18.1197 4.05025C18.1197 4.3934 17.8526 4.66015 17.5094 4.66015C17.1663 4.66007 16.8995 4.39335 16.8995 4.05025C16.8995 3.70715 17.1663 3.44043 17.5094 3.44035Z" fill="black"/>
<path d="M18.7296 3.44035C19.0727 3.44037 19.3395 3.70711 19.3395 4.05025C19.3395 4.39339 19.0727 4.66013 18.7296 4.66015C18.3864 4.66015 18.1197 4.3934 18.1197 4.05025C18.1197 3.7071 18.3864 3.44035 18.7296 3.44035Z" fill="black"/>
<path d="M19.9498 3.44035C20.2929 3.44037 20.5596 3.70711 20.5597 4.05025C20.5597 4.39339 20.2929 4.66013 19.9498 4.66015C19.6066 4.66015 19.3395 4.3934 19.3395 4.05025C19.3395 3.7071 19.6066 3.44035 19.9498 3.44035Z" fill="black"/>
<path d="M21.1696 3.44035C21.5127 3.44035 21.7798 3.7071 21.7798 4.05025C21.7798 4.3934 21.5127 4.66015 21.1696 4.66015C20.8265 4.66007 20.5597 4.39335 20.5597 4.05025C20.5597 3.70715 20.8265 3.44043 21.1696 3.44035Z" fill="black"/>
<path d="M22.3897 3.44035C22.7329 3.44035 23 3.7071 23 4.05025C23 4.3934 22.7329 4.66015 22.3897 4.66015C22.0466 4.66007 21.7798 4.39335 21.7798 4.05025C21.7798 3.70715 22.0466 3.44043 22.3897 3.44035Z" fill="black"/>
<path d="M7.7104 2.22017C8.05353 2.22017 8.32063 2.48696 8.32067 2.83008C8.32067 3.17323 8.05355 3.44035 7.7104 3.44035C7.36732 3.44027 7.1005 3.17318 7.1005 2.83008C7.10054 2.48701 7.36735 2.22025 7.7104 2.22017Z" fill="black"/>
<path d="M8.93057 2.22017C9.2737 2.22017 9.54081 2.48696 9.54085 2.83008C9.54085 3.17323 9.27373 3.44035 8.93057 3.44035C8.58749 3.44027 8.32067 3.17318 8.32067 2.83008C8.32071 2.48701 8.58752 2.22025 8.93057 2.22017Z" fill="black"/>
<path d="M10.1887 2.22017C10.4937 2.22017 10.799 2.48696 10.799 2.83008C10.799 3.17323 10.5319 3.44035 10.1887 3.44035C9.84565 3.44027 9.57883 3.17318 9.57883 2.83008C9.57887 2.48701 9.84567 2.22025 10.1887 2.22017Z" fill="black"/>
<path d="M11.4089 2.22017C11.752 2.22017 12.0191 2.48696 12.0192 2.83008C12.0192 3.17323 11.7521 3.44035 11.4089 3.44035C11.0658 3.44027 10.799 3.17318 10.799 2.83008C10.799 2.48701 11.0658 2.22025 11.4089 2.22017Z" fill="black"/>
<path d="M12.6291 2.22017C12.9722 2.22019 13.2389 2.48697 13.239 2.83008C13.239 3.17322 12.9722 3.44033 12.6291 3.44035C12.2859 3.44035 12.0192 3.17323 12.0192 2.83008C12.0192 2.48696 12.2859 2.22017 12.6291 2.22017Z" fill="black"/>
<path d="M13.8493 2.22017C14.1924 2.22019 14.4591 2.48697 14.4592 2.83008C14.4592 3.17322 14.1924 3.44033 13.8493 3.44035C13.5061 3.44035 13.239 3.17323 13.239 2.83008C13.239 2.48696 13.5061 2.22017 13.8493 2.22017Z" fill="black"/>
<path d="M15.0691 2.22017C15.4122 2.22017 15.6793 2.48696 15.6793 2.83008C15.6793 3.17323 15.4122 3.44035 15.0691 3.44035C14.726 3.44027 14.4592 3.17318 14.4592 2.83008C14.4592 2.48701 14.726 2.22025 15.0691 2.22017Z" fill="black"/>
<path d="M16.2892 2.22017C16.6324 2.22017 16.8995 2.48696 16.8995 2.83008C16.8995 3.17323 16.6324 3.44035 16.2892 3.44035C15.9461 3.44027 15.6793 3.17318 15.6793 2.83008C15.6794 2.48701 15.9462 2.22025 16.2892 2.22017Z" fill="black"/>
<path d="M17.5094 2.22017C17.8525 2.22017 18.1196 2.48696 18.1197 2.83008C18.1197 3.17323 17.8526 3.44035 17.5094 3.44035C17.1663 3.44027 16.8995 3.17318 16.8995 2.83008C16.8995 2.48701 17.1663 2.22025 17.5094 2.22017Z" fill="black"/>
<path d="M18.7296 2.22017C19.0727 2.22019 19.3394 2.48697 19.3395 2.83008C19.3395 3.17322 19.0727 3.44033 18.7296 3.44035C18.3864 3.44035 18.1197 3.17323 18.1197 2.83008C18.1197 2.48696 18.3864 2.22017 18.7296 2.22017Z" fill="black"/>
<path d="M19.9498 2.22017C20.2929 2.22019 20.5596 2.48697 20.5597 2.83008C20.5597 3.17322 20.2929 3.44033 19.9498 3.44035C19.6066 3.44035 19.3395 3.17323 19.3395 2.83008C19.3395 2.48696 19.6066 2.22017 19.9498 2.22017Z" fill="black"/>
<path d="M21.1696 2.22017C21.5127 2.22017 21.7798 2.48696 21.7798 2.83008C21.7798 3.17323 21.5127 3.44035 21.1696 3.44035C20.8265 3.44027 20.5597 3.17318 20.5597 2.83008C20.5597 2.48701 20.8265 2.22025 21.1696 2.22017Z" fill="black"/>
<path d="M22.3897 2.22017C22.7329 2.22017 23 2.48696 23 2.83008C23 3.17323 22.7329 3.44035 22.3897 3.44035C22.0466 3.44027 21.7798 3.17318 21.7798 2.83008C21.7799 2.48701 22.0467 2.22025 22.3897 2.22017Z" fill="black"/>
<path d="M8.93057 1C9.27368 1 9.54077 1.26682 9.54085 1.6099C9.54085 1.95305 9.27373 2.22017 8.93057 2.22017C8.58749 2.2201 8.32067 1.953 8.32067 1.6099C8.32075 1.26687 8.58754 1.00008 8.93057 1Z" fill="black"/>
<path d="M10.1887 1C10.4937 1 10.7989 1.26682 10.799 1.6099C10.799 1.95305 10.5319 2.22017 10.1887 2.22017C9.84565 2.2201 9.57883 1.953 9.57883 1.6099C9.5789 1.26687 9.8457 1.00008 10.1887 1Z" fill="black"/>
<path d="M11.4089 1C11.752 1 12.0191 1.26682 12.0192 1.6099C12.0192 1.95305 11.7521 2.22017 11.4089 2.22017C11.0658 2.2201 10.799 1.953 10.799 1.6099C10.7991 1.26687 11.0659 1.00008 11.4089 1Z" fill="black"/>
<path d="M12.6291 1C12.9722 1.00002 13.2389 1.26683 13.239 1.6099C13.239 1.95304 12.9722 2.22016 12.6291 2.22017C12.2859 2.22017 12.0192 1.95305 12.0192 1.6099C12.0193 1.26682 12.286 1 12.6291 1Z" fill="black"/>
<path d="M13.8493 1C14.1923 1.00002 14.4591 1.26683 14.4592 1.6099C14.4592 1.95304 14.1924 2.22016 13.8493 2.22017C13.5061 2.22017 13.239 1.95305 13.239 1.6099C13.2391 1.26682 13.5061 1 13.8493 1Z" fill="black"/>
<path d="M15.0691 1C15.4122 1 15.6792 1.26682 15.6793 1.6099C15.6793 1.95305 15.4122 2.22017 15.0691 2.22017C14.726 2.2201 14.4592 1.953 14.4592 1.6099C14.4592 1.26687 14.726 1.00008 15.0691 1Z" fill="black"/>
<path d="M16.2892 1C16.6323 1 16.8994 1.26682 16.8995 1.6099C16.8995 1.95305 16.6324 2.22017 16.2892 2.22017C15.9461 2.2201 15.6793 1.953 15.6793 1.6099C15.6794 1.26687 15.9462 1.00008 16.2892 1Z" fill="black"/>
<path d="M17.5094 1C17.8525 1 18.1196 1.26682 18.1197 1.6099C18.1197 1.95305 17.8526 2.22017 17.5094 2.22017C17.1663 2.2201 16.8995 1.953 16.8995 1.6099C16.8996 1.26687 17.1664 1.00008 17.5094 1Z" fill="black"/>
<path d="M18.7296 1C19.0727 1.00002 19.3394 1.26683 19.3395 1.6099C19.3395 1.95304 19.0727 2.22015 18.7296 2.22017C18.3864 2.22017 18.1197 1.95305 18.1197 1.6099C18.1198 1.26682 18.3865 1 18.7296 1Z" fill="black"/>
<path d="M19.9498 1C20.2928 1.00002 20.5596 1.26683 20.5597 1.6099C20.5597 1.95304 20.2929 2.22016 19.9498 2.22017C19.6066 2.22017 19.3395 1.95305 19.3395 1.6099C19.3396 1.26682 19.6066 1 19.9498 1Z" fill="black"/>
<path d="M21.1696 1C21.5127 1 21.7797 1.26682 21.7798 1.6099C21.7798 1.95305 21.5127 2.22017 21.1696 2.22017C20.8265 2.2201 20.5597 1.953 20.5597 1.6099C20.5597 1.26687 20.8265 1.00008 21.1696 1Z" fill="black"/>
<path d="M22.3897 1C22.7328 1 22.9999 1.26682 23 1.6099C23 1.95305 22.7329 2.22017 22.3897 2.22017C22.0466 2.2201 21.7798 1.953 21.7798 1.6099C21.7799 1.26687 22.0467 1.00008 22.3897 1Z" fill="black"/>
</svg>
