<svg width="24" height="24" viewBox="0 0 24 24" fill="none" xmlns="http://www.w3.org/2000/svg">
<path fill-rule="evenodd" clip-rule="evenodd" d="M24 17.7937C24 17.8883 23.9182 17.969 23.8222 17.969L21.9204 17.9504C21.8245 17.9504 21.7427 17.8744 21.7427 17.7751C21.7427 17.7751 21.7427 12.4847 21.7427 11.4843C21.7238 10.4824 21.3415 9.39977 20.8413 8.93757C20.2451 8.36681 19.5845 8.01629 18.584 7.98527C17.2453 7.95425 16.344 8.92361 16.344 8.92361C15.7793 9.48042 15.4426 10.4188 15.4426 11.4347C15.4237 12.7546 15.4426 16.7421 15.4426 17.8077C15.4426 17.9054 15.3608 17.9829 15.2649 17.9829H13.3615C13.2655 17.9829 13.1837 17.9054 13.1837 17.8077C13.2026 16.7608 13.2026 11.1958 13.2026 11.1338C13.1837 10.2078 13.3804 8.69872 14.7961 7.34781C15.7478 6.45909 17.022 6 18.584 6C20.1492 6 21.4186 6.45909 22.3703 7.36642C23.8222 8.73129 23.9827 10.2078 23.9685 11.1477L24 17.7937ZM12.1046 12.0271C12.1046 13.1981 11.8451 14.2187 11.3307 15.126C10.8304 16.0287 10.1068 16.7282 9.20076 17.2354C8.29888 17.7451 7.25175 18 6.05938 18C4.86701 18 3.81989 17.7451 2.918 17.2354C2.01193 16.7282 1.28833 16.0287 0.77394 15.126C0.25798 14.2182 0 13.1852 0 12.0271C0 10.8313 0.259553 9.79992 0.77394 8.89259C1.3072 8.00233 2.01193 7.28887 2.918 6.77705C3.81989 6.27039 4.86701 6.01706 6.05938 6.01706C7.23917 6.01706 8.28525 6.26987 9.1866 6.77705C10.1068 7.28887 10.8163 8.00233 11.3448 8.89259C11.8639 9.79992 12.1188 10.8313 12.1046 12.0271ZM9.9747 12.0085C9.9747 11.2315 9.79695 10.5134 9.47762 9.91159C9.15514 9.30516 8.68637 8.829 8.10749 8.47848C7.50973 8.12796 6.83332 7.95269 6.07826 7.95269C5.30432 7.95269 4.62738 8.12796 4.04745 8.47848C3.46543 8.81504 2.99508 9.30516 2.65845 9.91159C2.32182 10.5134 2.15822 11.2144 2.15822 12.0085C2.15822 12.8042 2.32182 13.5037 2.65845 14.1055C2.99508 14.7119 3.46543 15.1881 4.04745 15.5386C4.64207 15.8891 5.319 16.0644 6.07826 16.0644C6.8522 16.0644 7.52861 15.8891 8.10749 15.5386C8.68637 15.1881 9.15514 14.7119 9.47762 14.1055C9.79695 13.5037 9.96054 12.8042 9.9747 12.0085Z" fill="black"/>
</svg>
