<svg width="24" height="24" viewBox="0 0 24 24" fill="none" xmlns="http://www.w3.org/2000/svg">
<path fill-rule="evenodd" clip-rule="evenodd" d="M12.9295 7.93252C13.0564 7.95424 14.0533 7.72612 14.0961 7.80216C14.1587 7.89682 14.6067 11.1511 14.489 11.1744C14.3743 11.1961 13.5457 11.3886 13.5457 11.3886C13.4799 10.9463 12.9387 8.2103 12.9295 7.93252ZM15.8145 7.61904C15.8145 7.61904 16.0392 9.70788 16.1677 11.0347C16.0836 11.0441 15.18 11.1108 14.9553 11.1201L14.5196 7.61904C14.9461 7.53368 15.391 7.53368 15.8145 7.61904ZM13.6603 12.478C13.6603 12.478 15.6249 11.9705 16.3343 12.2188C16.6966 13.5426 17.3556 20.9777 17.4183 21.2772C16.9734 21.3315 15.5072 21.4603 15.391 21.496C15.2947 20.9327 13.6603 12.8318 13.6603 12.478ZM20.9331 8.01787C21.0478 8.04891 22.0889 7.90924 22.1012 7.98528C22.1226 8.24445 22.2281 11.3668 22.1103 11.3793C21.9941 11.3886 21.167 11.4646 21.167 11.4646C21.1456 11.0347 20.9117 8.30807 20.9331 8.01787ZM23.8318 8.01787C23.8318 8.01787 23.8104 10.1052 23.8318 11.432C23.7355 11.4429 22.8442 11.3886 22.621 11.3886L22.5369 7.93252C22.9695 7.90924 23.4053 7.94183 23.8318 8.01787ZM21.167 12.5727C21.167 12.5727 23.1714 12.3042 23.8502 12.627C24 14.1789 23.9786 21.4076 24 21.7102C23.5444 21.7102 22.0889 21.7319 21.9727 21.7521C21.9513 21.1918 21.1349 12.9296 21.167 12.5727ZM19.181 3.55619C19.1719 3.8914 19.9118 14.2006 20.5188 20.6549C19.4883 20.5882 18.5771 20.5664 18.5771 20.5664C18.545 19.91 17.6644 9.67684 16.5055 3.68655C16.5055 3.68655 18.9257 3.26599 19.181 3.55619ZM7.54644 22.5606C4.46732 23.1643 2.67397 22.9703 2.67397 22.9703C1.55026 9.15851 0 2.50091 0 2.50091C1.29494 2.01827 3.69219 0.851254 3.91693 1.01575C3.88483 1.50925 3.7671 4.5044 3.90776 7.588C4.06676 11.1744 4.47955 14.8803 4.47955 14.8803C7.81093 14.2673 13.7353 16.1715 13.96 17.8522C14.2642 20.0745 10.6256 21.9569 7.54644 22.5606ZM9.8596 18.4341C9.52019 18.22 6.32641 17.0126 6.19799 17.0793L6.7178 20.8799C6.7178 20.8799 9.80609 18.6716 9.8596 18.4341Z" fill="black"/>
</svg>
