<svg width="20" height="20" viewBox="0 0 20 20" fill="none" xmlns="http://www.w3.org/2000/svg">
<g clip-path="url(#clip0_822_5071)">
<path d="M7.62778 0C6.42445 0 5.44945 1.38167 5.44945 3.08917C5.44945 4.79833 6.42528 6.18083 7.62861 6.18083C8.83361 6.18083 9.80695 4.79833 9.80695 3.08917C9.80611 1.38167 8.83278 0 7.62778 0ZM13.4819 0.495C12.3828 0.483333 11.1219 2.1575 10.9994 3.2725C10.8436 4.72667 11.2078 6.17833 12.8153 6.385C14.4261 6.59333 15.4611 4.88 15.6669 3.58167C15.8769 2.28583 14.8378 0.778333 13.6986 0.52C13.6272 0.503849 13.5543 0.495467 13.4811 0.495H13.4819ZM2.98445 4.6125C2.94106 4.61352 2.89771 4.61574 2.85445 4.61917C1.08945 4.7775 0.831114 7.31917 0.831114 7.31917C0.591948 8.49417 1.40278 11.0067 3.57861 10.5392C5.75945 10.0717 5.46361 7.4725 5.39778 6.90417C5.29361 6.05583 4.32111 4.59333 2.98445 4.6125ZM16.7628 6.07333C14.8394 6.07333 14.5819 7.83917 14.5819 9.08667C14.5819 10.2783 14.6828 11.9408 17.0719 11.8883C19.4611 11.8358 19.1994 9.19 19.1994 8.565C19.1994 7.94417 18.6828 6.07333 16.7628 6.07333ZM9.87611 8.13833C8.68945 8.15 7.61945 8.90917 7.10695 9.76083C6.17528 11.3175 4.72111 12.3025 4.51361 12.5633C4.30528 12.8208 1.50528 14.3267 2.12695 17.08C2.74861 19.8308 4.93111 19.7775 4.93111 19.7775C4.93111 19.7775 6.53945 19.9358 8.40695 19.5192C10.2736 19.1067 11.8819 19.6217 11.8819 19.6217C11.8819 19.6217 16.2428 21.0783 17.4361 18.275C18.6278 15.4717 16.7628 14.0175 16.7628 14.0175C16.7628 14.0175 14.2711 12.0958 12.8161 10.0192C11.9228 8.63167 10.8594 8.12917 9.87611 8.13833ZM8.01445 11.3383L9.29945 11.3583V18.1892H6.46445C5.23945 17.9467 4.75195 17.1125 4.68945 16.9708C4.62945 16.8267 4.28278 16.1575 4.46611 15.0183C4.99528 13.3108 6.50528 13.1883 6.50528 13.1883H8.01361L8.01445 11.3383ZM11.3178 13.33V16.5642C11.3978 16.9083 11.8278 16.9708 11.8278 16.9708H13.1728V13.3517H14.5803V18.17H11.3178C10.0536 17.845 9.99278 16.9492 9.99278 16.9492V13.3517L11.3178 13.33ZM6.76945 14.2858C6.21945 14.45 5.95445 14.8758 5.89445 15.0592C5.83111 15.2425 5.68861 15.7092 5.81111 16.1167C6.05611 17.0292 6.85111 17.07 6.85111 17.07H7.99278V14.2867L6.76945 14.2858Z" fill="white"/>
</g>
<defs>
<clipPath id="clip0_822_5071">
<rect width="20" height="20" fill="white"/>
</clipPath>
</defs>
</svg>
