<svg width="24" height="24" viewBox="0 0 24 24" fill="none" xmlns="http://www.w3.org/2000/svg">
<path fill-rule="evenodd" clip-rule="evenodd" d="M13.0894 12.7627C13.0894 12.7627 13.0811 13.1183 13.4112 13.1151C13.4148 13.1103 13.7602 13.1636 13.773 12.6776C13.7736 12.6781 13.7738 12.6788 13.7743 12.6788L13.7747 12.3806V11.5861C13.7748 11.5748 13.7951 11.2186 13.5526 11.2026V11.1696L14.7277 11.1247V13.2377C14.7272 13.2467 14.7062 13.6441 14.9609 13.6557V13.6855H13.773L13.7734 13.3856C13.725 13.4342 13.4602 13.6813 13.0604 13.6888C13.0541 13.689 12.1291 13.7179 12.131 12.8392C12.1276 12.8314 12.1295 11.9002 12.1305 11.5821H11.4143C11.4414 11.6041 11.4767 11.6505 11.4768 11.6505C11.8789 12.1565 11.4882 12.5774 11.4846 12.5813C11.2267 12.9361 10.3939 13.0357 10.3939 13.0357L10.3423 13.0415C10.0612 13.0511 10.1494 13.1908 10.1509 13.1924C10.1917 13.2861 10.3948 13.2716 10.3948 13.2716H10.8715C11.8368 13.2684 11.9398 13.8897 11.9437 13.8897C12.1024 14.7615 11.2094 15.0215 10.3178 14.9986C9.43436 15.0042 9.10628 14.6267 9.10886 14.6287C8.88433 14.373 9.00295 14.0161 9.40069 13.9079C9.69479 13.8282 10.0423 13.9079 10.0423 13.9079C9.77813 13.9442 9.82483 14.2085 9.8254 14.2104C9.91385 14.5224 10.3652 14.5257 10.3932 14.5261C10.9702 14.4969 10.987 14.2209 10.987 14.0858C10.987 13.9076 10.8362 13.8004 10.8362 13.8004C10.627 13.6494 10.2312 13.697 9.95568 13.6853C9.56948 13.6637 9.46923 13.307 9.45084 13.1979C9.43285 13.0877 9.45378 13.0433 9.5182 13.0027C9.63478 12.9353 9.89957 12.9058 9.86944 12.9063L9.87518 12.9051C9.87044 12.904 9.86741 12.904 9.86685 12.904C9.53466 12.8003 9.3373 12.5253 9.3337 12.5253C8.9137 11.935 9.39898 11.4689 9.40384 11.4643C9.68638 11.1965 10.0453 11.1363 10.3659 11.1211H13.0894V12.7627ZM10.4054 11.6092C10.0645 11.6092 10.0781 12.0302 10.0741 12.0259C10.0368 12.4928 10.379 12.5227 10.4046 12.517C10.7641 12.5169 10.7224 12.0259 10.7224 12.0184C10.7148 11.5986 10.408 11.6091 10.4054 11.6092Z" fill="black"/>
<path d="M22.7307 13.2383C22.7247 13.6751 22.9591 13.6558 22.9633 13.6555V13.6866L21.7634 13.6859V13.6855L21.763 13.6859V12.1016L21.7627 12.0688C21.7623 12.0561 21.7502 11.6639 21.3885 11.6596C21.3839 11.6641 20.9492 11.6186 20.9492 12.4169C20.9448 12.4212 20.9449 13.3507 21.6798 13.2314C21.6798 13.2351 21.422 13.6842 21.422 13.6842C21.417 13.6859 20.8241 13.8839 20.3322 13.3674C20.3308 13.3662 19.9563 13.0451 19.9563 12.4169C19.9607 12.4212 19.9439 11.8243 20.3322 11.4459C20.3282 11.4582 20.9316 10.7884 21.7627 11.3051V10.4674C21.7627 10.4573 21.7834 10.1 21.5406 10.084V10.0517L22.7298 10.0064L22.7307 13.2383Z" fill="black"/>
<path d="M2.36632 13.7141L1.8291 13.5104C1.8291 13.5104 1.39391 13.3841 1.16234 12.7427L0.322554 10.4638C0.322554 10.4638 0.216775 10.0956 0 10.0438V10.006H1.27541L2.19052 12.6324L2.86745 10.5253C2.86745 10.5253 3.00581 10.1706 2.63558 10.0302V10H3.65709L2.36632 13.7141Z" fill="black"/>
<path d="M19.1598 11.457C19.4204 10.975 19.9204 11.1243 19.9204 11.1243V11.7545C19.1302 11.6257 19.1604 12.208 19.1598 12.2087H19.1595L19.1591 13.2372C19.154 13.6731 19.3813 13.6562 19.3926 13.6557V13.6859H18.2064V13.6855H17.5201C17.4952 13.6885 16.6749 13.7147 16.6427 12.9644V12.5588C16.6427 12.5588 16.3168 12.6297 16.2154 12.7063C16.2154 12.7063 15.9562 12.8682 16.1277 13.1462C16.1277 13.1462 16.2546 13.366 16.6669 13.2848L16.4658 13.687H16.0679C16.0668 13.687 15.1416 13.7048 15.0331 13.0357C15.0327 13.0289 14.9511 12.5098 15.5827 12.3002C15.588 12.2983 15.8041 12.2242 16.2106 12.1536C16.2153 12.1536 16.5626 12.1046 16.595 11.9197C16.6034 11.8822 16.5993 11.8431 16.5835 11.808C16.5884 11.8229 16.4257 11.4005 15.4254 11.8271C15.4311 11.8318 15.6319 11.2104 15.6319 11.2104C15.6385 11.2085 16.5763 10.9397 17.2312 11.3348C17.2275 11.3402 17.5736 11.522 17.5695 12.0897L17.5796 12.8782C17.5779 12.8905 17.5787 13.2818 17.972 13.3034C17.9732 13.3071 18.1296 13.3063 18.2059 13.3059L18.2062 11.5861C18.2063 11.5748 18.2265 11.218 17.9844 11.2022V11.1702L19.1598 11.1249V11.457Z" fill="black"/>
<path d="M3.683 11.2104C3.683 11.2104 4.62489 10.9383 5.28207 11.3348C5.27771 11.3391 5.62544 11.5206 5.62073 12.0903L5.63109 12.8782C5.62977 12.8898 5.63065 13.2818 6.02341 13.3037C6.02475 13.3074 6.16331 13.3063 6.24289 13.3059V11.5861C6.24299 11.5748 6.26366 11.2186 6.02119 11.2026V11.1696L7.1963 11.1247L7.19593 11.4172C7.25979 11.3551 7.5193 11.128 7.90285 11.1209C7.90804 11.1207 8.81761 11.092 8.8161 11.9702C8.81648 11.9765 8.81757 13.2292 8.81758 13.2377C8.81038 13.6489 9.04724 13.6549 9.04724 13.6549L9.04705 13.6859H7.88082V13.2395L7.88915 13.2383H7.88045C7.88083 13.229 7.88045 12.0665 7.88045 12.0665C7.87801 11.998 7.90344 11.693 7.55031 11.6963C7.5451 11.6974 7.18765 11.7055 7.19593 12.1317L7.19482 13.2916C7.2052 13.647 7.42034 13.6558 7.42281 13.6559V13.6857L5.57224 13.6855C5.54628 13.6885 4.72638 13.7147 4.69341 12.9644V12.5588C4.68738 12.5601 4.36765 12.6305 4.26704 12.7063C4.26193 12.7095 4.00891 12.871 4.17858 13.1462C4.17858 13.1462 4.30623 13.366 4.71839 13.2848L4.51723 13.6866H4.1201C4.1201 13.6866 3.19311 13.7052 3.08452 13.0358C3.08417 13.029 3.00242 12.5102 3.63396 12.2998C3.63396 12.2998 3.85063 12.2251 4.26241 12.1536C4.26819 12.1534 4.61443 12.1043 4.64677 11.9195C4.65486 11.8821 4.65073 11.8431 4.63511 11.808C4.6408 11.8225 4.4772 11.4004 3.47722 11.8271C3.48137 11.8317 3.68143 11.2152 3.683 11.2104Z" fill="black"/>
<path fill-rule="evenodd" clip-rule="evenodd" d="M23.544 10.2019C23.6382 10.2019 23.7346 10.2308 23.7346 10.3386C23.7357 10.3691 23.7258 10.399 23.7067 10.423C23.6876 10.4471 23.6604 10.4638 23.6301 10.4701V10.4718C23.6969 10.4872 23.7057 10.5224 23.7145 10.5833C23.723 10.6376 23.7295 10.6957 23.7498 10.7471H23.6663C23.6595 10.7149 23.6505 10.6793 23.6465 10.6466C23.6405 10.5978 23.6404 10.5534 23.6149 10.5256C23.5925 10.501 23.5612 10.5033 23.5303 10.5011H23.4221V10.7471H23.344V10.2019H23.544ZM23.4202 10.4361H23.5483C23.6343 10.4322 23.6538 10.3942 23.6538 10.3514C23.6537 10.3082 23.6343 10.2702 23.5483 10.2666H23.42L23.4202 10.4361Z" fill="black"/>
<path fill-rule="evenodd" clip-rule="evenodd" d="M23.5251 10.0087C23.7868 10.0088 24 10.2168 24 10.4718C24 10.7269 23.7868 10.9346 23.5251 10.9347C23.3997 10.9351 23.2791 10.8867 23.19 10.7999C23.1009 10.7131 23.0505 10.5951 23.0499 10.4718C23.0499 10.2168 23.2627 10.0087 23.5251 10.0087ZM23.5251 10.0726C23.2993 10.0726 23.1156 10.2518 23.1156 10.4718C23.1156 10.6915 23.2993 10.8706 23.5251 10.8706C23.7506 10.8706 23.9337 10.6915 23.9338 10.4718C23.9338 10.252 23.7508 10.0726 23.5251 10.0726Z" fill="black"/>
</svg>
