<svg width="20" height="20" viewBox="0 0 20 20" fill="none" xmlns="http://www.w3.org/2000/svg">
<g clip-path="url(#clip0_822_4895)">
<path d="M7.12542 8.23999C7.89292 8.23999 8.50659 8.43191 8.97617 8.85857C9.29684 9.14899 9.47609 9.56307 9.47109 9.99732C9.46987 10.2115 9.42541 10.4232 9.34036 10.6198C9.25532 10.8163 9.13144 10.9937 8.97617 11.1412C8.53684 11.5452 7.85259 11.7597 7.12534 11.7597C6.39825 11.7597 5.72659 11.5452 5.27967 11.1412C4.954 10.8507 4.77217 10.4342 4.77717 9.99732C4.77717 9.56566 4.959 9.15149 5.27967 8.85857C5.69634 8.47982 6.43359 8.23999 7.12542 8.23999ZM7.12792 11.2977C7.51175 11.2977 7.86775 11.1638 8.11775 10.9164C8.36767 10.6665 8.47875 10.366 8.47875 9.99732C8.47875 9.64382 8.35509 9.31316 8.11767 9.07824C7.87284 8.83591 7.50667 8.69949 7.12792 8.69949C6.74917 8.69949 6.38309 8.83591 6.13567 9.07824C5.89834 9.31307 5.77459 9.64382 5.77459 9.99741C5.76959 10.3382 5.89834 10.6691 6.13567 10.9165C6.38309 11.1614 6.74667 11.2977 7.12792 11.2977ZM3.09309 9.65891C3.22684 9.69424 3.35559 9.73724 3.48192 9.79524C3.59856 9.84833 3.70528 9.92092 3.7975 10.0099C3.96167 10.1816 4.055 10.4113 4.0525 10.6487C4.05414 10.7739 4.02646 10.8979 3.97166 11.0106C3.91687 11.1233 3.83648 11.2216 3.73692 11.2977C3.56049 11.4316 3.35988 11.5302 3.14609 11.5881C2.82436 11.689 2.48835 11.7367 2.15125 11.7295C1.85792 11.7295 1.69567 11.6957 1.47309 11.6493L1.40892 11.636C1.16392 11.5805 0.924169 11.5047 0.694336 11.4037C0.683965 11.3966 0.671563 11.3931 0.659003 11.3937C0.621169 11.3937 0.590836 11.4265 0.590836 11.4643V11.6335H0.101003V10.4013H0.537836C0.540348 10.5261 0.579881 10.6474 0.651419 10.7497C0.828169 10.9669 1.01759 11.0502 1.19934 11.1159C1.50484 11.2169 1.8255 11.2699 2.14617 11.28C2.60667 11.28 2.87584 11.1683 2.93409 11.1442L2.94159 11.1411L2.94675 11.1392C2.99809 11.1203 3.20667 11.0439 3.20667 10.8128C3.20667 10.5842 3.01184 10.5345 2.88417 10.502L2.86584 10.4972C2.7235 10.4588 2.3975 10.4245 2.04109 10.3869L1.91392 10.3736C1.50992 10.3307 1.10592 10.2675 0.916586 10.2271C0.501836 10.1357 0.338086 9.98399 0.236586 9.88999L0.229753 9.88366C0.0816391 9.72569 -0.000544688 9.51712 2.71711e-06 9.30057C2.71711e-06 8.88641 0.282836 8.63641 0.631253 8.48249C1.00242 8.31582 1.44425 8.24249 1.83059 8.24249C2.51484 8.24507 3.07034 8.46724 3.26975 8.57082C3.35059 8.61374 3.391 8.56074 3.391 8.52032V8.39666H3.83034V9.46966H3.43642C3.40113 9.31041 3.3152 9.16688 3.1915 9.06057C3.11608 9.00002 3.03283 8.94993 2.944 8.91166C2.61334 8.77274 2.25984 8.70207 1.90125 8.70707C1.53267 8.70707 1.17917 8.77791 1.00242 8.88649C0.891336 8.95466 0.835753 9.04049 0.835753 9.14149C0.835753 9.28541 0.956919 9.34349 1.01759 9.36116C1.1815 9.41091 1.54492 9.44699 1.82759 9.47524C1.88892 9.48132 1.94642 9.48707 1.99725 9.49241C2.26992 9.52024 2.84059 9.59582 3.09309 9.65891ZM18.2325 8.82841V8.42949H20V8.82082H19.6036C19.4597 8.82082 19.4016 8.84866 19.293 8.96982L18.1038 10.3282C18.0915 10.3449 18.0861 10.3657 18.0886 10.3863V11.0049C18.0906 11.0337 18.094 11.0623 18.0987 11.0907C18.1056 11.109 18.1168 11.1254 18.1313 11.1386C18.1458 11.1517 18.1631 11.1613 18.182 11.1665C18.218 11.1715 18.2543 11.174 18.2906 11.174H18.6946V11.5655H16.5509V11.1741H16.9348C16.9711 11.1741 17.0073 11.1715 17.0433 11.1665C17.0622 11.1609 17.0798 11.1512 17.0946 11.1381C17.1095 11.125 17.1213 11.1088 17.1292 11.0907C17.1341 11.0632 17.1367 11.0353 17.1367 11.0073V10.3888C17.1367 10.3687 17.1367 10.3687 17.1089 10.3358C16.7175 9.88991 16.3253 9.44469 15.9323 9.00016C15.8692 8.93449 15.7606 8.82841 15.594 8.82841H15.2127V8.43707H17.369V8.82841H17.1089C17.0508 8.82841 17.0104 8.88649 17.0609 8.94966C17.0609 8.94966 17.7856 9.81566 17.7932 9.82574C17.8008 9.83591 17.8058 9.83591 17.8159 9.82824C17.826 9.82074 18.5608 8.95716 18.5658 8.94966C18.5778 8.93356 18.583 8.91336 18.5801 8.89349C18.5773 8.87361 18.5667 8.85567 18.5507 8.84357C18.5357 8.83366 18.5181 8.82838 18.5002 8.82841H18.2325ZM12.9958 8.82582H13.3998C13.5842 8.82582 13.617 8.89649 13.6195 9.06824L13.6423 10.3736L11.491 8.43691H9.95334V8.82832H10.2967C10.5442 8.82832 10.5618 8.96466 10.5618 9.08582V10.9307C10.5622 11.0377 10.5626 11.1765 10.4103 11.1765H9.98867V11.5654H11.7915V11.174H11.3521C11.1754 11.174 11.1678 11.0932 11.1653 10.9215V9.35349L13.6423 11.5627H14.2735L14.2407 9.06557C14.2432 8.88391 14.2558 8.82324 14.4427 8.82324H14.8365V8.43182H12.9958V8.82582Z" fill="white"/>
</g>
<defs>
<clipPath id="clip0_822_4895">
<rect width="20" height="20" fill="white"/>
</clipPath>
</defs>
</svg>
