<svg width="20" height="20" viewBox="0 0 20 20" fill="none" xmlns="http://www.w3.org/2000/svg">
<g clip-path="url(#clip0_822_5055)">
<path d="M9.63508 0C10.9858 3.30357e-06 11.9961 0.557776 11.9961 1.60979C11.9961 1.93446 11.9038 2.2739 11.7342 2.61527C12.5302 2.91479 13.2822 3.30355 13.9807 3.76111C14.2196 3.29583 14.3498 2.83682 14.3498 2.40269C14.3498 1.03762 13.2023 0.504099 12.889 0.404993L12.9079 0.345271C13.915 0.517525 15.3656 1.35058 15.3657 2.88296C15.3657 3.41479 15.2255 3.95303 14.9701 4.48277C15.7543 5.11678 16.4516 5.83833 17.045 6.61008C17.4403 5.8978 17.6598 5.17451 17.6599 4.46894C17.6599 3.7927 17.4762 3.37127 17.3724 3.18387L17.4258 3.13817C17.5628 3.24219 18.3857 3.92814 18.3857 5.22516C18.3857 6.03224 18.1545 6.83667 17.7399 7.61287C18.2538 8.43956 18.6511 9.30244 18.9123 10.1625C19.4051 9.26059 19.6815 8.29515 19.6679 7.28488L19.7418 7.26683C19.7706 7.36101 19.9197 7.78442 19.9197 8.44743C19.9197 9.4138 19.649 10.3528 19.1679 11.238C19.238 11.6518 19.2743 12.0608 19.2743 12.4607C19.2682 13.4267 19.1918 14.0253 19.0557 14.4599L18.949 14.4319C18.9884 13.6077 18.9149 12.7679 18.7398 11.9332C18.1441 12.7976 17.349 13.5992 16.4174 14.3115C16.6549 15.0782 16.8479 15.8626 16.9864 16.6592C17.6094 16.1655 18.1412 15.6453 18.5639 15.1288L18.6496 15.1868C17.4518 17.2654 14.4766 20 10.0752 20C8.12934 20 6.85373 19.4646 6.47771 19.3262L6.50383 19.2444C7.80204 19.5124 9.06749 19.552 10.2699 19.4212C9.22536 19.0372 8.25733 18.4049 7.41271 17.5649C7.21054 17.5738 7.00906 17.5787 6.80858 17.5787C3.66964 17.5787 2.03052 16.0539 1.68443 15.4347L1.74031 15.3934C2.60888 16.153 4.31957 16.7301 6.31602 16.7301C6.43066 16.7301 6.54647 16.7276 6.66341 16.724C6.04023 15.9364 5.50924 15.0187 5.09509 13.9933C1.60585 13.9175 0.0136416 12.1577 0.0857776 10.5909H0.15126C0.294414 11.4227 1.48064 12.911 4.678 12.911C4.69003 12.911 4.70207 12.9106 4.7141 12.9106C4.43681 11.9936 4.24755 11.0064 4.16125 9.96179C1.84211 9.82509 0.587563 8.59697 0.587554 7.27969C0.587554 6.52617 0.96308 5.79065 1.05688 5.62842L1.12466 5.65454C1.10024 5.73901 1.0083 6.03016 1.00829 6.47201C1.00829 7.85331 2.20454 8.80591 4.10901 8.82784C4.10842 8.77135 4.10767 8.71468 4.10767 8.6579C4.10767 7.71107 4.21852 6.87867 4.38247 6.16419C3.03778 6.05577 2.38611 5.38808 2.38611 4.60931C2.38611 2.40813 6.2985 0 9.63508 0ZM11.9429 16.6748C10.7274 17.0953 9.45883 17.3824 8.20311 17.5074C9.00963 18.3104 9.9248 18.9398 10.918 19.3333C11.8733 19.1781 12.783 18.918 13.6289 18.5843C13.0481 18.0286 12.4833 17.3838 11.9429 16.6748ZM15.9201 14.6746C14.9028 15.3827 13.7491 15.9883 12.5288 16.4603C13.0174 17.1818 13.5183 17.8428 14.0245 18.4202C15.0004 17.9994 15.8837 17.4809 16.6479 16.9177C16.4441 16.1613 16.199 15.4121 15.9201 14.6746ZM9.79312 13.297C8.49527 13.6926 7.14905 13.9368 5.8298 13.9866C6.26685 14.9716 6.8147 15.8807 7.45304 16.6731C8.6855 16.5549 10.0075 16.2543 11.3104 15.7997C10.7715 15.0152 10.2625 14.172 9.79312 13.297ZM14.3045 11.1691C13.178 11.928 11.8881 12.5744 10.5261 13.0564C10.9788 13.9303 11.4549 14.7747 11.9471 15.5645C13.2088 15.0729 14.4354 14.44 15.5256 13.6916C15.1592 12.8286 14.7484 11.9852 14.3045 11.1691ZM17.3175 8.30494C16.7213 9.17102 15.9027 9.98913 14.9326 10.7213C15.3607 11.5445 15.746 12.4061 16.0737 13.2966C17.0248 12.5772 17.8475 11.7656 18.465 10.882C18.1886 9.99877 17.8017 9.1313 17.3175 8.30494ZM8.05697 9.44734C6.96476 9.76823 5.83866 9.95705 4.74617 9.97292C4.85797 10.9752 5.08105 11.9578 5.40042 12.8906C6.6775 12.8195 7.97229 12.5639 9.21838 12.1698C8.78452 11.2733 8.39424 10.3568 8.05697 9.44734ZM12.0351 7.58925C11.0623 8.24603 9.94054 8.80783 8.76 9.22112C9.12774 10.1223 9.52944 11.0293 9.9575 11.9178C11.2952 11.4283 12.5586 10.7835 13.6604 10.0411C13.147 9.18393 12.6004 8.3634 12.0351 7.58925ZM14.6479 5.05367C14.1714 5.79397 13.4812 6.50642 12.6471 7.14815C13.2282 7.89887 13.7862 8.71539 14.3009 9.58445C15.254 8.86625 16.0552 8.07566 16.6356 7.25761C16.0621 6.46072 15.3948 5.71731 14.6479 5.05367ZM7.00791 5.88536C6.31595 6.06695 5.58803 6.17268 4.84891 6.17916C4.7379 6.85503 4.66341 7.63142 4.66341 8.50082C4.66341 8.60637 4.66508 8.71187 4.66763 8.81728C5.68276 8.7704 6.69198 8.58107 7.65448 8.28709C7.38858 7.46382 7.17054 6.65631 7.00791 5.88536ZM9.66926 4.72357C9.0316 5.13363 8.29435 5.48641 7.49855 5.7421C7.73514 6.49329 8.0063 7.2749 8.307 8.06952C9.38678 7.67859 10.392 7.16031 11.2608 6.57225C10.7369 5.91197 10.203 5.29317 9.66926 4.72357ZM11.5135 2.99626C11.1874 3.48852 10.7094 3.97361 10.1207 4.41114C10.6928 4.92212 11.2699 5.50844 11.8352 6.15862C12.6076 5.56502 13.2401 4.91873 13.6777 4.27076C13.0045 3.77837 12.2805 3.34841 11.5135 2.99626ZM8.99524 0.31205C6.45783 0.31205 3.18503 2.3369 3.18496 4.04628C3.18496 4.73192 3.68889 5.17863 4.63038 5.27355C5.04757 4.00552 5.58301 3.25702 5.71362 3.05943L5.79159 3.09035C5.68409 3.32105 5.3134 4.07829 5.02596 5.29256C5.62047 5.29255 6.2406 5.19322 6.84641 5.02007C6.73375 4.3217 6.67256 3.66308 6.66955 3.06174L6.76883 3.03178C6.8942 3.61418 7.05355 4.23972 7.24276 4.89544C7.87512 4.67931 8.48162 4.38728 9.01482 4.04954C8.50222 3.54032 7.99394 3.07939 7.49932 2.67345L7.57267 2.62218C8.14628 2.90398 8.75951 3.30071 9.38871 3.79626C9.89261 3.43176 10.3086 3.02792 10.5868 2.6168C9.77501 2.3238 8.9224 2.11688 8.03739 2.0121L8.04833 1.93721C8.99218 1.93721 9.90344 2.0668 10.7708 2.30302C10.8974 2.0482 10.9672 1.79399 10.9672 1.54758C10.9672 1.15368 10.6495 0.31206 8.99524 0.31205Z" fill="white"/>
</g>
<defs>
<clipPath id="clip0_822_5055">
<rect width="20" height="20" fill="white"/>
</clipPath>
</defs>
</svg>
