<svg width="24" height="24" viewBox="0 0 24 24" fill="none" xmlns="http://www.w3.org/2000/svg">
<g clip-path="url(#clip0_1779_584)">
<path d="M15.6846 0C11.4635 0 7.87753 3.247 7.42583 7.42584C3.24694 7.87764 0 11.4635 0 15.6847C0 20.273 3.72704 24 8.31526 24C12.5364 24 16.1364 20.7528 16.574 16.574C20.7529 16.1224 24 12.5364 24 8.31532C24 3.72704 20.273 0 15.6846 0ZM22.0518 9.247C21.6423 12.0282 19.4118 14.2588 16.6305 14.6681V9.247H22.0518ZM1.94835 14.7528C2.35767 11.9576 4.58821 9.72704 7.36949 9.31759V14.7387H1.94835V14.7528ZM14.6825 16.6305C14.2165 19.7788 11.5201 22.1224 8.31541 22.1224C5.11069 22.1224 2.41417 19.7788 1.94835 16.6305H14.6825ZM14.7529 9.247V14.7387H9.24706V9.247H14.7529ZM22.0518 7.36936H9.31768C9.7835 4.22119 12.48 1.87764 15.6847 1.87764C18.8895 1.87764 21.586 4.22119 22.0518 7.36936Z" fill="black"/>
</g>
<defs>
<clipPath id="clip0_1779_584">
<rect width="24" height="24" fill="white"/>
</clipPath>
</defs>
</svg>
