<svg width="24" height="24" viewBox="0 0 24 24" fill="none" xmlns="http://www.w3.org/2000/svg">
<path fill-rule="evenodd" clip-rule="evenodd" d="M11.3072 0.542323C11.959 0.236869 12.7135 0.236869 13.3668 0.542323L21.1088 4.00986C22.2755 4.54908 22.9008 5.83947 22.6006 7.09401L20.0495 18.254C19.911 18.9164 19.5206 19.4976 18.9606 19.8764L13.7697 23.4358C12.9126 24.0421 11.7677 24.0421 10.9106 23.4358L5.71968 19.8764C5.15968 19.4961 4.76612 18.9164 4.62146 18.254L2.07501 7.09401C1.77479 5.84102 2.39857 4.55063 3.56368 4.00986L11.3072 0.542323Z" fill="black"/>
<mask id="mask0_1782_3618" style="mask-type:luminance" maskUnits="userSpaceOnUse" x="12" y="0" width="11" height="24">
<path d="M12.2179 0H22.9862V24H12.2179V0Z" fill="white"/>
</mask>
<g mask="url(#mask0_1782_3618)">
<mask id="mask1_1782_3618" style="mask-type:luminance" maskUnits="userSpaceOnUse" x="12" y="0" width="11" height="24">
<path d="M12.3364 0.314026C12.6917 0.314026 13.0436 0.391948 13.3662 0.542026L21.109 4.00925C22.276 4.54847 22.9005 5.83917 22.6014 7.09356L20.0496 18.2548C19.9109 18.9156 19.52 19.4984 18.9604 19.8764L13.7697 23.436C13.3506 23.7296 12.8521 23.8876 12.3395 23.8892L12.3364 0.314026Z" fill="white"/>
</mask>
<g mask="url(#mask1_1782_3618)">
<mask id="mask2_1782_3618" style="mask-type:luminance" maskUnits="userSpaceOnUse" x="3" y="-4" width="29" height="32">
<path d="M3.57629 19.9608L14.0936 -3.62961L31.6451 4.24083L21.1276 27.8313L3.57629 19.9608Z" fill="white"/>
</mask>
<g mask="url(#mask2_1782_3618)">
<rect x="12.2179" width="10.7684" height="24.0003" fill="black"/>
</g>
</g>
</g>
<mask id="mask3_1782_3618" style="mask-type:luminance" maskUnits="userSpaceOnUse" x="2" y="0" width="21" height="22">
<path d="M2.64624 0.799957H22.1885V21.2H2.64624V0.799957Z" fill="white"/>
</mask>
<g mask="url(#mask3_1782_3618)">
<mask id="mask4_1782_3618" style="mask-type:luminance" maskUnits="userSpaceOnUse" x="2" y="1" width="20" height="20">
<path d="M13.0155 1.32641L20.769 4.79846C21.5544 5.17529 21.9671 6.05316 21.7585 6.90158L19.208 18.0624C19.1147 18.5124 18.8499 18.908 18.4699 19.1625L16.0737 20.8047C13.126 20.4687 12.0201 18.0705 13.4095 16.6688L13.7852 16.3565C13.5393 17.1764 13.7681 18.0656 14.3804 18.6624C14.2371 17.5328 14.8836 15.8921 15.7108 14.7781L17.7296 13.0969C18.889 12.0624 19.0354 11.0296 19.0354 9.89207L18.5696 10.0969L18.1938 9.52366L18.0228 10.3252L15.8539 11.3656L15.4551 11.1984L17.052 9.24361L17.6223 9.89675L17.9494 8.42355L18.1333 8.26241L18.5337 8.84355L18.761 7.942C19.6711 7.32516 19.5104 6.44355 19.1116 6.21244L17.9617 6.1688L18.0662 5.97961L18.9201 5.78761C18.917 4.74205 18.0491 5.09083 17.5195 5.43929C16.5379 6.02963 15.5114 6.5408 14.449 6.96563C12.0604 7.00475 11.4374 6.76085 9.52112 8.00168C7.86507 8.50007 6.15303 8.79197 4.42683 8.87207C5.61263 10.2409 7.49267 10.3736 8.47407 10.4048C6.66543 10.7876 5.16665 12.0516 4.48158 13.7737L5.45987 18.0624L2.91249 6.90158C2.70389 6.05005 3.12281 5.16875 3.91443 4.79846L11.6572 1.32641C12.0872 1.12366 12.5856 1.12366 13.0155 1.32641ZM5.64918 18.5685C5.63596 18.5506 5.62009 18.5322 5.62009 18.5109C5.62632 18.5251 5.63923 18.5502 5.64918 18.5685ZM5.66085 18.586C5.66614 18.5985 5.65914 18.5868 5.64918 18.5685C5.65375 18.5744 5.65763 18.5802 5.66085 18.586Z" fill="white"/>
</mask>
<g mask="url(#mask4_1782_3618)">
<mask id="mask5_1782_3618" style="mask-type:luminance" maskUnits="userSpaceOnUse" x="-7" y="-9" width="39" height="40">
<path d="M-6.92712 12.8048L10.5401 -8.35635L31.5984 9.12967L14.1311 30.2908L-6.92712 12.8048Z" fill="white"/>
</mask>
<g mask="url(#mask5_1782_3618)">
<rect x="2.64624" y="0.800018" width="19.5426" height="20.4003" fill="white"/>
</g>
</g>
</g>
<mask id="mask6_1782_3618" style="mask-type:luminance" maskUnits="userSpaceOnUse" x="9" y="9" width="5" height="2">
<path d="M9.42615 9.19995H13.8133V10.8H9.42615V9.19995Z" fill="white"/>
</mask>
<g mask="url(#mask6_1782_3618)">
<mask id="mask7_1782_3618" style="mask-type:luminance" maskUnits="userSpaceOnUse" x="9" y="9" width="5" height="2">
<path d="M13.586 9.26728L13.29 9.72515L9.77197 10.7252L11.6492 9.64084L11.1384 9.23923L13.586 9.26728Z" fill="white"/>
</mask>
<g mask="url(#mask7_1782_3618)">
<mask id="mask8_1782_3618" style="mask-type:luminance" maskUnits="userSpaceOnUse" x="9" y="8" width="5" height="4">
<path d="M9.38708 9.3452L13.3055 8.23279L13.9783 10.6139L10.0588 11.7263L9.38708 9.3452Z" fill="white"/>
</mask>
<g mask="url(#mask8_1782_3618)">
<rect x="9.42615" y="9.20001" width="4.38712" height="1.60002" fill="white"/>
</g>
</g>
</g>
</svg>
