<svg width="24" height="24" viewBox="0 0 24 24" fill="none" xmlns="http://www.w3.org/2000/svg">
<path fill-rule="evenodd" clip-rule="evenodd" d="M21.4151 6.1724C22.2928 5.49431 23.1534 4.77855 23.9439 4C23.3577 5.26357 22.6031 6.45964 21.7066 7.52387C20.1912 9.33053 18.23 10.7307 16.0785 11.6599C14.2357 12.4557 12.2697 12.9235 10.2835 13.1542C7.64402 13.4524 4.95933 13.3535 2.33701 12.9549C1.55125 12.8293 0.767052 12.6927 0 12.4871C2.6956 12.9046 5.45979 12.8293 8.14447 12.3191C11.5635 11.6772 14.8421 10.3508 17.8402 8.58338C19.0781 7.85506 20.2708 7.0514 21.4151 6.1724ZM24 7.09535C23.5853 9.42942 22.2679 11.5908 20.3955 13.0349C19.3681 13.8323 18.1879 14.4178 16.95 14.8039C15.1384 15.3705 13.2207 15.5322 11.3296 15.4694C8.31753 15.3643 5.34286 14.7097 2.46174 13.8323C2.35572 13.7883 2.23879 13.7821 2.13902 13.7271C3.20852 13.9563 4.30453 14.0756 5.39275 14.1619C7.81084 14.3361 10.2523 14.2435 12.6408 13.8072C14.4087 13.4775 16.1471 12.9486 17.7794 12.17C20.012 11.1168 22.0216 9.57383 23.5728 7.64316C23.7225 7.46265 23.8581 7.27586 24 7.09535ZM22.1323 12.6613C22.3116 12.4683 22.4597 12.2564 22.6343 12.0633C22.4784 13.3724 21.9717 14.6548 21.1251 15.6751C20.3269 16.653 19.22 17.3514 18.0257 17.7313C16.4121 18.2477 14.6925 18.2603 13.0227 18.0672C11.0131 17.8239 9.04716 17.2761 7.142 16.5964C5.83084 16.1303 4.55086 15.5887 3.28336 15.0221C4.37781 15.3768 5.49721 15.639 6.62284 15.8493C8.61998 16.2291 10.6483 16.4348 12.6766 16.3798C14.4836 16.3233 16.2952 16.0612 17.9899 15.4333C19.5598 14.8541 21.0253 13.9265 22.1323 12.6613ZM5.88073 17.0454C7.736 17.8365 9.65363 18.4957 11.6134 18.9698C13.2207 19.3496 14.878 19.6243 16.5353 19.5176C17.2899 19.4673 18.0382 19.3245 18.732 19.0074C19.2886 18.7516 19.7952 18.3592 20.1538 17.8553C20.0977 18.6087 19.789 19.3433 19.2698 19.8974C18.8489 20.3526 18.2861 20.6571 17.6921 20.8188C16.9375 21.0307 16.1471 21.0307 15.3738 20.9507C14.415 20.8439 13.4749 20.5943 12.5659 20.2898C10.9398 19.7357 9.38703 18.9949 7.87787 18.1849C7.20437 17.8176 6.53709 17.4441 5.88073 17.0454Z" fill="black"/>
</svg>
