<svg width="20" height="20" viewBox="0 0 20 20" fill="none" xmlns="http://www.w3.org/2000/svg">
<path d="M7.45667 7.33158V6.13991C7.57426 6.13118 7.69209 6.12618 7.81 6.12491C11.0783 6.02158 13.2208 8.93658 13.2208 8.93658C13.2208 8.93658 10.9092 12.1457 8.42917 12.1457C8.0975 12.1457 7.77333 12.0941 7.46417 11.9916V8.36991C8.7375 8.52408 8.995 9.08407 9.75333 10.3574L11.4533 8.92908C11.4533 8.92908 10.21 7.30241 8.12 7.30241C7.89849 7.29746 7.67689 7.30721 7.45667 7.33158ZM7.45667 3.38574V5.16741L7.81 5.14491C12.3517 4.99074 15.3183 8.86991 15.3183 8.86991C15.3183 8.86991 11.9183 13.0066 8.37667 13.0066C8.06833 13.0066 7.76583 12.9774 7.46417 12.9257V14.0299C7.71417 14.0591 7.9725 14.0816 8.2225 14.0816C11.52 14.0816 13.9058 12.3957 16.2167 10.4082C16.5992 10.7174 18.1667 11.4607 18.4917 11.7849C16.2975 13.6249 11.1817 15.1049 8.28083 15.1049C8.00167 15.1049 7.73667 15.0899 7.47167 15.0607V16.6141H20V3.38574H7.45667ZM7.45667 11.9907V12.9332C4.40917 12.3882 3.5625 9.21658 3.5625 9.21658C3.5625 9.21658 5.0275 7.59658 7.45667 7.33158V8.36241H7.45C6.17667 8.20741 5.175 9.39991 5.175 9.39991C5.175 9.39991 5.74167 11.4099 7.4575 11.9916M2.04667 9.08324C2.04667 9.08324 3.85 6.41908 7.46333 6.13908V5.16741C3.46083 5.49158 0 8.87741 0 8.87741C0 8.87741 1.95833 14.5457 7.45667 15.0607V14.0299C3.42333 13.5299 2.04667 9.08324 2.04667 9.08324Z" fill="white"/>
</svg>
