<svg width="24" height="24" viewBox="0 0 24 24" fill="none" xmlns="http://www.w3.org/2000/svg">
<path d="M22.458 24H22.1543V22.2158H20.0449V20.3477H21.9863V18.6201H20.0449V17.0332H22.0488V15.3057H18.4941V24H17.6318V0.313477L11.0967 21.8418V19.2549H8.99121V20.8057H9.5459V21.4814C9.5459 22.04 9.52752 22.5918 9 22.5918C8.59589 22.5916 8.42871 22.3042 8.42871 21.8213V17.5547C8.42871 16.9912 8.54308 16.6459 9.02637 16.6572C9.43959 16.669 9.50977 17.0373 9.50977 17.7734V18.2441H11.0615V17.6006C11.0615 15.8416 10.2766 15.1064 8.95605 15.1064C7.53852 15.1066 6.87793 15.9794 6.87793 17.8535V21.3955C6.87793 22.5781 7.11988 23.5996 7.80566 24H3.52148V20.582C4.10486 20.5476 4.73275 20.6514 5.27051 20.3066C5.97549 19.8813 6.14258 18.834 6.14258 17.8975C6.14255 17.1921 6.07221 16.5461 5.71094 16.0176C5.27895 15.3742 4.41438 15.3057 3.81348 15.3057H1.9707V24H1V0H22.458V24ZM14.6865 16.7197C16.4835 16.72 16.3328 18.7777 16.332 18.7881H15.0938C15.1406 18.1928 14.9368 17.9886 14.6553 17.9883C14.3733 17.9884 14.2012 18.2709 14.2012 18.5059C14.2012 18.741 14.2952 18.9292 14.4678 19.1953C14.6394 19.4608 15.5669 20.6819 15.5801 20.6992V19.8379H16.7705V24H14.0908C13.5892 23.9999 12.1486 23.6297 12.1484 22.0791C12.1484 20.5384 13.3686 19.8783 13.3857 19.8691C12.7119 19.07 12.8223 18.2705 12.8223 18.2705C12.8236 18.2411 12.9021 16.7197 14.6865 16.7197ZM14.1387 20.9971C14.1387 20.9971 13.5587 21.2324 13.5586 22C13.5586 22.7679 14.7023 23.3478 15.3604 22.6426L14.1387 20.9971ZM3.50391 16.7314C3.52264 16.7331 4.4912 16.8253 4.49121 17.9893C4.49101 19.1527 3.52272 19.2674 3.50391 19.2695V16.7314Z" fill="black"/>
</svg>
