<svg width="24" height="24" viewBox="0 0 24 24" fill="none" xmlns="http://www.w3.org/2000/svg">
<path d="M23.186 20.17C21.653 20.17 21.046 19.558 20.839 18.332L20.433 16.592C20.02 17.312 17.98 20.171 13.488 20.171H8.89C1.94 20.17 0 15.467 0 12C0 8.115 2.347 3.83 8.884 3.83H13.789C18.794 3.83 21.548 6.683 22.161 10.261C22.673 13.221 24 20.171 24 20.171L23.186 20.17ZM13.076 6.378H9.196C4.498 6.378 2.965 9.343 2.965 12.001C2.965 14.654 4.498 17.619 9.201 17.619H13.076C17.98 17.619 19.312 14.554 19.312 12.001C19.312 9.755 18.081 6.383 13.076 6.383V6.378Z" fill="black"/>
</svg>
