<svg width="24" height="24" viewBox="0 0 24 24" fill="none" xmlns="http://www.w3.org/2000/svg">
<path d="M5.00676 8.57044C6.3677 8.57045 7.47497 9.10064 8.39743 10.1906L8.42705 10.2265L7.31773 11.5681L7.27362 11.5261C6.58073 10.8174 5.77886 10.4423 4.95291 10.4423C3.22795 10.4423 1.97667 11.7385 1.97667 13.5207C1.97667 15.3056 3.22795 16.5997 4.95291 16.5997C5.77886 16.5997 6.58074 16.2268 7.27362 15.5208L7.31773 15.478L8.42705 16.8204L8.39743 16.8535C7.47497 17.9441 6.3677 18.475 5.00676 18.475C3.64235 18.475 2.39301 18.0185 1.49398 17.1857C0.515 16.2881 0 15.0195 0 13.5207C7.68719e-07 12.0218 0.514978 10.756 1.49398 9.85832C2.39301 9.0303 3.64235 8.57044 5.00676 8.57044ZM16.8166 8.73466H18.8139V10.5355H16.8166V15.6118C16.8166 16.3564 17.1034 16.6915 17.737 16.6915C18.1741 16.6915 18.6601 16.5309 19.1834 16.2123L19.2993 16.1413L18.8284 17.9862L18.8076 17.9994C18.485 18.1924 17.9528 18.4557 17.0696 18.4385C15.768 18.4123 14.8965 17.4057 14.8965 15.9351V10.5355H13.2391V8.73466H14.8965V6.78626L16.8166 5.75763V8.73466ZM11.5069 18.292H9.54745V8.72532H11.5069V18.292ZM22.7675 18.292H20.8054V8.72532H22.7675V18.292ZM16.1225 3C19.147 3.00001 22.1199 4.51267 23.9104 7.04843L24 7.17868H21.7469L21.722 7.15184C20.1846 5.56751 18.1825 4.7305 16.1225 4.7305C14.0624 4.7305 12.0589 5.56751 10.5249 7.15184L10.5001 7.17868H8.24557L8.33797 7.04843C10.125 4.51267 13.0986 3 16.1225 3Z" fill="black"/>
</svg>
