<svg width="40" height="40" viewBox="0 0 40 40" fill="none" xmlns="http://www.w3.org/2000/svg">
<g clip-path="url(#clip0_1767_704)">
<path d="M20 0C31.0457 0 40 8.9543 40 20C40 31.0457 31.0457 40 20 40C8.95431 40 7.90517e-06 31.0457 0 20C6.58765e-07 8.95431 8.95431 1.97595e-06 20 0Z" fill="#FFD6BF"/>
<path d="M26 6C30.4183 6 34 9.58172 34 14V26C34 30.4183 30.4183 34 26 34H14C9.58172 34 6 30.4183 6 26V14C6 9.58172 9.58172 6 14 6H26Z" fill="#964D22"/>
<g clip-path="url(#clip1_1767_704)">
<path d="M15.1655 10.0137C14.5129 10.6202 13.9024 11.2728 13.2657 11.8977C12.8069 11.899 12.3454 11.9016 11.8866 11.9016C11.8866 17.2807 11.8958 22.661 11.8813 28.0414C17.267 28.0638 22.6552 28.0453 28.0409 28.0506C28.0422 27.5839 28.0461 27.1198 28.0554 26.6531C28.6987 26.0414 29.3078 25.3941 29.9618 24.7916C30 26.5226 29.971 28.251 29.9789 29.9821C23.3184 29.9913 16.6605 29.9821 10 29.986V10.0137H15.1655Z" fill="white"/>
<path d="M30 10.0137C29.9169 13.8384 29.9934 17.667 29.9657 21.4916C29.9815 21.7171 29.8853 21.9214 29.7245 22.0743C29.1879 22.6465 28.6078 23.1765 28.0514 23.7329C28.0316 19.783 28.0554 15.8304 28.0395 11.8805C24.1226 11.8805 20.203 11.9161 16.2861 11.8634C16.8583 11.22 17.4608 10.6017 18.0896 10.0137H30Z" fill="white"/>
</g>
</g>
<defs>
<clipPath id="clip0_1767_704">
<rect width="40" height="40" fill="white"/>
</clipPath>
<clipPath id="clip1_1767_704">
<rect width="20" height="20" fill="white" transform="translate(10 10)"/>
</clipPath>
</defs>
</svg>
