<svg width="40" height="40" viewBox="0 0 40 40" fill="none" xmlns="http://www.w3.org/2000/svg">
<g clip-path="url(#clip0_1696_1018)">
<path d="M20 0C31.0457 0 40 8.9543 40 20C40 31.0457 31.0457 40 20 40C8.95431 40 7.90517e-06 31.0457 0 20C6.58765e-07 8.95431 8.95431 1.97595e-06 20 0Z" fill="#FFD6BF"/>
<path d="M26 6C30.4183 6 34 9.58172 34 14V26C34 30.4183 30.4183 34 26 34H14C9.58172 34 6 30.4183 6 26V14C6 9.58172 9.58172 6 14 6H26Z" fill="#964D22"/>
<path fill-rule="evenodd" clip-rule="evenodd" d="M12.9921 19.4471C13.7126 20.1388 14.4043 20.7191 14.4043 21.9361C14.4043 23.2632 13.7401 24.1763 12.2165 24.1763C11.1358 24.1763 10.1114 23.7335 10.0275 22.0187L10 21.3833L11.4685 21.2995L11.496 21.6872C11.5511 22.4615 11.8288 22.7104 12.2165 22.7104C12.548 22.7104 12.7144 22.5165 12.7144 22.1025C12.7144 21.5484 12.1052 21.0506 11.496 20.5528C10.6092 19.7785 10.1114 19.1144 10.1114 17.9537C10.1114 16.7642 10.803 15.8236 12.2441 15.8236C13.3523 15.8236 14.2104 16.3214 14.2942 17.9537L14.3217 18.3952L12.9082 18.479V18.0912C12.9082 17.5934 12.7419 17.2345 12.2991 17.2345C12.0502 17.2345 11.8013 17.3996 11.8013 17.8148C11.7725 18.424 12.1052 18.6441 12.9921 19.4471ZM28.1712 24.0662L27.4507 20.8017H27.3132V24.0662H25.4844V15.99H27.8385C29.1131 15.99 29.9437 16.7917 29.9437 18.3126C29.9437 19.2257 29.6122 19.9724 29.0581 20.3877L30 24.0662H28.1712ZM27.3118 19.751H27.4782C27.7835 19.751 28.1149 19.5847 28.1149 18.5615C28.1149 17.5109 27.8385 17.3445 27.5332 17.3445H27.3118V19.751ZM20.0819 15.99H22.4085C24.0434 15.99 24.8739 17.2895 24.8739 20.0274C24.8739 22.7654 24.0434 24.0662 22.4085 24.0662H20.0819V15.99ZM22.1871 17.3445H21.9107V22.7379H22.1871C22.7137 22.7379 23.0189 22.2676 23.0189 20.0274C23.0189 17.7873 22.7137 17.3445 22.1871 17.3445ZM16.8697 21.2995V24.0662H15.0409V15.99H17.4225C18.7247 15.99 19.5566 16.7642 19.5566 18.6454C19.5566 20.4702 18.7247 21.2995 17.285 21.2995H16.8697ZM17.1461 17.3445H16.8972V19.9724H17.1461C17.4239 19.9724 17.7278 19.7785 17.7278 18.6454C17.7278 17.5384 17.4239 17.3445 17.1461 17.3445Z" fill="white"/>
</g>
<defs>
<clipPath id="clip0_1696_1018">
<rect width="40" height="40" fill="white"/>
</clipPath>
</defs>
</svg>
