<svg width="40" height="40" viewBox="0 0 40 40" fill="none" xmlns="http://www.w3.org/2000/svg">
<g clip-path="url(#clip0_1779_560)">
<path d="M20 0C31.0457 0 40 8.9543 40 20C40 31.0457 31.0457 40 20 40C8.95431 40 7.90517e-06 31.0457 0 20C6.58765e-07 8.95431 8.95431 1.97595e-06 20 0Z" fill="#D5E5CF"/>
<path d="M26 6C30.4183 6 34 9.58172 34 14V26C34 30.4183 30.4183 34 26 34H14C9.58172 34 6 30.4183 6 26V14C6 9.58172 9.58172 6 14 6H26Z" fill="#004830"/>
<path d="M18.0795 13.3957C18.026 13.9245 18.026 15.3784 18.026 16.0867V22.2169C18.026 23.8235 17.6591 24.7057 16.9108 25.4327C16.7033 25.6308 16.4743 25.8075 16.2307 25.9601C15.987 26.1114 15.7273 26.2386 15.4582 26.339C15.1878 26.4394 14.908 26.5117 14.6241 26.5546C14.339 26.5987 14.0511 26.6135 13.7633 26.5987C11.8274 26.5987 10.4097 25.6268 10 23.9707L11.7645 23.4031C12.0416 24.5384 12.8395 24.9895 13.9896 24.9895C15.4314 24.9895 16.2333 24.126 16.2333 22.6922V17.8713C16.2333 16.7038 16.2026 14.3596 16.1088 13.4894C16.2731 13.4912 16.4377 13.4908 16.6029 13.4881C16.7671 13.4854 16.9313 13.4801 17.0955 13.472C17.2597 13.4649 17.424 13.4546 17.5882 13.4412C17.7524 13.4287 17.9162 13.4136 18.0795 13.3957Z" fill="white"/>
<path d="M30 13.3957C29.9679 13.9245 29.9491 15.3784 29.9183 16.0867V23.6521C29.9183 24.3282 29.9371 25.7633 29.9719 26.2721H28.024C28.1177 25.3898 28.1525 23.0577 28.1525 21.8916V20.3627H21.4291V23.6521C21.4291 24.3282 21.4479 25.7633 21.4827 26.2721H19.5348C19.6245 25.3898 19.6633 23.0577 19.6633 21.8916V17.8713C19.6633 16.7052 19.6245 14.3596 19.5348 13.4854C19.6972 13.4881 19.8601 13.4881 20.0234 13.4854C20.1859 13.4827 20.3483 13.4778 20.5107 13.4707C20.6732 13.4627 20.8352 13.4524 20.9967 13.4399C21.1592 13.4283 21.3212 13.4136 21.4827 13.3957C21.4291 13.9245 21.4291 15.3784 21.4291 16.0867V18.87H28.1806V17.8713C28.1806 16.7052 28.1445 14.3596 28.0521 13.4854C28.2145 13.4881 28.377 13.4881 28.5394 13.4854C28.7018 13.4827 28.8643 13.4778 29.0267 13.4707C29.1891 13.4627 29.3516 13.4524 29.514 13.4399C29.6756 13.4283 29.8376 13.4136 30 13.3957Z" fill="white"/>
</g>
<defs>
<clipPath id="clip0_1779_560">
<rect width="40" height="40" fill="white"/>
</clipPath>
</defs>
</svg>
