<svg width="40" height="40" viewBox="0 0 40 40" fill="none" xmlns="http://www.w3.org/2000/svg">
<g clip-path="url(#clip0_1716_1076)">
<path d="M20 0C31.0457 0 40 8.9543 40 20C40 31.0457 31.0457 40 20 40C8.95431 40 7.90517e-06 31.0457 0 20C6.58765e-07 8.95431 8.95431 1.97595e-06 20 0Z" fill="#FFD6BF"/>
<path d="M26 6C30.4183 6 34 9.58172 34 14V26C34 30.4183 30.4183 34 26 34H14C9.58172 34 6 30.4183 6 26V14C6 9.58172 9.58172 6 14 6H26Z" fill="#964D22"/>
<path fill-rule="evenodd" clip-rule="evenodd" d="M16.3575 18.2513C16.9169 18.2513 17.3294 18.4188 17.5949 18.7538C17.8604 19.0888 17.993 19.6578 17.993 20.4606C17.993 21.2633 17.8462 21.8212 17.5538 22.1341C17.2599 22.4469 16.7794 22.6034 16.1094 22.6034C15.9261 22.6033 15.7301 22.5876 15.52 22.5544L15.4205 22.5385V24.2484H14.3064V18.3508H15.4109V18.5752C15.7712 18.3587 16.0857 18.2513 16.3575 18.2513ZM16.141 19.2468C15.9356 19.2468 15.7286 19.2879 15.5184 19.3717L15.4188 19.4127V21.5873C15.6684 21.6205 15.8693 21.6378 16.0257 21.6378C16.3465 21.6377 16.5661 21.5429 16.6862 21.3549C16.8047 21.1668 16.8648 20.846 16.8648 20.3925C16.8632 19.6293 16.623 19.2468 16.141 19.2468Z" fill="white"/>
<path fill-rule="evenodd" clip-rule="evenodd" d="M22.775 18.2497C23.4609 18.2497 23.9507 18.4393 24.2447 18.8186C24.5386 19.1978 24.684 19.7304 24.684 20.4163C24.684 21.8717 24.0471 22.6001 22.775 22.6001C21.5014 22.6001 20.8661 21.8717 20.8661 20.4163C20.8661 19.7304 21.0131 19.1978 21.3054 18.8186C21.5994 18.4393 22.0892 18.2497 22.775 18.2497ZM22.775 19.1964C22.4811 19.1964 22.2788 19.2927 22.165 19.4871C22.0512 19.6815 21.9943 19.9912 21.9943 20.4163C21.9943 20.8429 22.0512 21.1558 22.165 21.3549C22.2788 21.554 22.4811 21.6536 22.775 21.6536C23.069 21.6536 23.2713 21.554 23.3851 21.3549C23.4988 21.1558 23.5556 20.8429 23.5556 20.4163C23.5556 19.9897 23.4988 19.6799 23.3851 19.4871C23.2713 19.2927 23.0674 19.1964 22.775 19.1964Z" fill="white"/>
<path d="M26.3623 18.3493H27.8588V17.1957H28.9713V18.3493H29.9921V19.2959H28.9697V20.9978C28.9697 21.1637 28.9745 21.2823 28.9824 21.3502C28.9903 21.4197 29.0202 21.4783 29.0739 21.5288C29.1261 21.5778 29.2084 21.603 29.319 21.603L29.9494 21.5873L30 22.4753C29.6286 22.5574 29.3473 22.6001 29.1529 22.6001C28.6552 22.6001 28.3138 22.4879 28.1321 22.2635C27.9488 22.0391 27.8588 21.6251 27.8588 21.0231V19.2959H26.3623V20.9978C26.3623 21.1637 26.367 21.2823 26.3749 21.3502C26.3829 21.4197 26.4129 21.4782 26.4666 21.5288C26.5188 21.5778 26.6009 21.603 26.7115 21.603L27.3421 21.5873L27.391 22.4753C27.0196 22.5574 26.7383 22.6001 26.5439 22.6001C26.0462 22.6001 25.7048 22.4879 25.5231 22.2635C25.3398 22.0391 25.2498 21.6251 25.2498 21.0231V19.2959H24.7599V18.3493H25.2498V17.1957H26.3623V18.3493Z" fill="white"/>
<path d="M11.9264 16.7516C12.3357 16.7516 12.8556 16.8068 13.4877 16.9175L13.7865 16.976L13.6948 17.8815C12.9126 17.7962 12.3609 17.7519 12.0402 17.7519C11.4365 17.7519 11.1347 17.9511 11.1347 18.3493C11.1347 18.5263 11.209 18.6622 11.3591 18.7555C11.5093 18.8503 11.8586 18.9845 12.4101 19.1615C12.96 19.3385 13.347 19.5393 13.5683 19.7636C13.7895 19.988 13.9002 20.3326 13.9002 20.7972C13.9002 21.3897 13.72 21.8385 13.3613 22.1419C13.001 22.4469 12.5317 22.5986 11.9502 22.5986C11.5188 22.5986 10.9893 22.5322 10.3651 22.3995L10.0665 22.341L10.1833 21.4529C10.9245 21.5524 11.4919 21.6015 11.8854 21.6015C12.4716 21.6015 12.7656 21.3581 12.7656 20.8714C12.7656 20.6944 12.6976 20.5553 12.5618 20.4558C12.4259 20.3562 12.1556 20.2488 11.7527 20.1319C11.1111 19.9486 10.6576 19.732 10.3952 19.4808C10.1329 19.2295 10 18.8786 10 18.4298C10 17.8657 10.1724 17.4453 10.5153 17.1672C10.8582 16.8906 11.3291 16.7516 11.9264 16.7516Z" fill="white"/>
<path d="M20.8423 19.3686C20.3935 19.4634 20.0095 19.5598 19.6887 19.6593L19.5228 19.7178V22.499H18.4088V18.3493H19.5133V18.7886C19.9779 18.5121 20.4204 18.3319 20.8423 18.2482V19.3686Z" fill="white"/>
</g>
<defs>
<clipPath id="clip0_1716_1076">
<rect width="40" height="40" fill="white"/>
</clipPath>
</defs>
</svg>
