<svg width="40" height="40" viewBox="0 0 40 40" fill="none" xmlns="http://www.w3.org/2000/svg">
<g clip-path="url(#clip0_1716_946)">
<path d="M20 0C31.0457 0 40 8.9543 40 20C40 31.0457 31.0457 40 20 40C8.95431 40 7.90517e-06 31.0457 0 20C6.58765e-07 8.95431 8.95431 1.97595e-06 20 0Z" fill="#FFD6BF"/>
<path d="M26 6C30.4183 6 34 9.58172 34 14V26C34 30.4183 30.4183 34 26 34H14C9.58172 34 6 30.4183 6 26V14C6 9.58172 9.58172 6 14 6H26Z" fill="#964D22"/>
<g clip-path="url(#clip1_1716_946)">
<path d="M14.3921 28.1499C14.678 28.1499 14.9002 28.3722 14.9003 28.6581C14.9003 28.9441 14.678 29.1666 14.3921 29.1667C14.1061 29.1667 13.8838 28.9441 13.8838 28.6581C13.8839 28.3722 14.1061 28.1499 14.3921 28.1499Z" fill="white"/>
<path d="M15.4086 28.1499C15.6945 28.1499 15.9171 28.3722 15.9171 28.6581C15.9171 28.9441 15.6945 29.1667 15.4086 29.1667C15.1227 29.1666 14.9003 28.944 14.9003 28.6581C14.9004 28.3722 15.1227 28.1499 15.4086 28.1499Z" fill="white"/>
<path d="M16.4254 28.1499C16.7113 28.1499 16.9339 28.3722 16.9339 28.6581C16.9339 28.9441 16.7113 29.1667 16.4254 29.1667C16.1395 29.1666 15.9171 28.944 15.9171 28.6581C15.9172 28.3722 16.1395 28.1499 16.4254 28.1499Z" fill="white"/>
<path d="M17.4422 28.1499C17.7281 28.1499 17.9507 28.3722 17.9507 28.6581C17.9507 28.9441 17.7281 29.1667 17.4422 29.1667C17.1563 29.1666 16.9339 28.944 16.9339 28.6581C16.934 28.3722 17.1563 28.1499 17.4422 28.1499Z" fill="white"/>
<path d="M18.4906 28.1499C18.7448 28.1499 18.9991 28.3722 18.9992 28.6581C18.9992 28.9441 18.7766 29.1667 18.4906 29.1667C18.2047 29.1666 17.9824 28.944 17.9824 28.6581C17.9825 28.3722 18.2048 28.1499 18.4906 28.1499Z" fill="white"/>
<path d="M19.5075 28.1499C19.7934 28.1499 20.016 28.3722 20.016 28.6581C20.016 28.9441 19.7934 29.1667 19.5075 29.1667C19.2216 29.1666 18.9992 28.944 18.9992 28.6581C18.9993 28.3722 19.2216 28.1499 19.5075 28.1499Z" fill="white"/>
<path d="M20.5243 28.1499C20.8102 28.1499 21.0325 28.3722 21.0325 28.6581C21.0325 28.9441 20.8102 29.1666 20.5243 29.1667C20.2383 29.1667 20.016 28.9441 20.016 28.6581C20.0161 28.3722 20.2384 28.1499 20.5243 28.1499Z" fill="white"/>
<path d="M21.5411 28.1499C21.827 28.1499 22.0493 28.3722 22.0493 28.6581C22.0493 28.9441 21.827 29.1666 21.5411 29.1667C21.2551 29.1667 21.0325 28.9441 21.0325 28.6581C21.0326 28.3722 21.2552 28.1499 21.5411 28.1499Z" fill="white"/>
<path d="M25.608 28.1499C25.8939 28.1499 26.1162 28.3722 26.1163 28.6581C26.1163 28.9441 25.894 29.1666 25.608 29.1667C25.3221 29.1667 25.0998 28.9441 25.0998 28.6581C25.0998 28.3722 25.3221 28.1499 25.608 28.1499Z" fill="white"/>
<path d="M26.6248 28.1499C26.9107 28.1499 27.133 28.3722 27.1331 28.6581C27.1331 28.9441 26.9108 29.1666 26.6248 29.1667C26.3389 29.1667 26.1163 28.9441 26.1163 28.6581C26.1163 28.3722 26.3389 28.1499 26.6248 28.1499Z" fill="white"/>
<path d="M27.6413 28.1499C27.9273 28.1499 28.1498 28.3722 28.1499 28.6581C28.1499 28.9441 27.9273 29.1667 27.6413 29.1667C27.3554 29.1666 27.1331 28.944 27.1331 28.6581C27.1331 28.3722 27.3555 28.1499 27.6413 28.1499Z" fill="white"/>
<path d="M28.6581 28.1499C28.9441 28.1499 29.1666 28.3722 29.1667 28.6581C29.1667 28.9441 28.9441 29.1667 28.6581 29.1667C28.3722 29.1666 28.1499 28.944 28.1499 28.6581C28.15 28.3722 28.3723 28.1499 28.6581 28.1499Z" fill="white"/>
<path d="M13.3752 27.133C13.6612 27.1331 13.8835 27.3556 13.8835 27.6416C13.8834 27.9275 13.6612 28.1498 13.3752 28.1499C13.0893 28.1499 12.8671 27.9275 12.867 27.6416C12.867 27.3556 13.0893 27.133 13.3752 27.133Z" fill="white"/>
<path d="M14.3921 27.133C14.678 27.1331 14.9003 27.3556 14.9003 27.6416C14.9003 27.9275 14.678 28.1498 14.3921 28.1499C14.1061 28.1499 13.8836 27.9275 13.8835 27.6416C13.8835 27.3556 14.1061 27.133 14.3921 27.133Z" fill="white"/>
<path d="M15.4086 27.133C15.6945 27.133 15.9171 27.3556 15.9171 27.6416C15.9171 27.9275 15.6945 28.1499 15.4086 28.1499C15.1227 28.1498 14.9004 27.9275 14.9003 27.6416C14.9003 27.3557 15.1227 27.1331 15.4086 27.133Z" fill="white"/>
<path d="M16.4254 27.133C16.7113 27.133 16.9339 27.3556 16.9339 27.6416C16.9339 27.9275 16.7113 28.1499 16.4254 28.1499C16.1395 28.1498 15.9172 27.9275 15.9171 27.6416C15.9171 27.3557 16.1395 27.1331 16.4254 27.133Z" fill="white"/>
<path d="M17.4422 27.133C17.7281 27.133 17.9507 27.3556 17.9507 27.6416C17.9507 27.9275 17.7281 28.1499 17.4422 28.1499C17.1563 28.1498 16.934 27.9275 16.9339 27.6416C16.9339 27.3557 17.1563 27.1331 17.4422 27.133Z" fill="white"/>
<path d="M18.4906 27.133C18.7448 27.133 18.9992 27.3556 18.9992 27.6416C18.9992 27.9275 18.7766 28.1499 18.4906 28.1499C18.2048 28.1498 17.9825 27.9275 17.9824 27.6416C17.9824 27.3557 18.2047 27.1331 18.4906 27.133Z" fill="white"/>
<path d="M19.5075 27.133C19.7934 27.133 20.016 27.3556 20.016 27.6416C20.016 27.9275 19.7934 28.1499 19.5075 28.1499C19.2216 28.1498 18.9993 27.9275 18.9992 27.6416C18.9992 27.3557 19.2216 27.1331 19.5075 27.133Z" fill="white"/>
<path d="M20.5243 27.133C20.8102 27.1331 21.0325 27.3556 21.0325 27.6416C21.0325 27.9275 20.8102 28.1498 20.5243 28.1499C20.2383 28.1499 20.0161 27.9275 20.016 27.6416C20.016 27.3556 20.2383 27.133 20.5243 27.133Z" fill="white"/>
<path d="M21.5411 27.133C21.827 27.1331 22.0493 27.3556 22.0493 27.6416C22.0493 27.9275 21.827 28.1498 21.5411 28.1499C21.2552 28.1499 21.0326 27.9275 21.0325 27.6416C21.0325 27.3556 21.2551 27.133 21.5411 27.133Z" fill="white"/>
<path d="M22.5576 27.133C22.8435 27.133 23.0661 27.3556 23.0661 27.6416C23.0661 27.9275 22.8435 28.1499 22.5576 28.1499C22.2717 28.1498 22.0494 27.9275 22.0493 27.6416C22.0493 27.3557 22.2717 27.1331 22.5576 27.133Z" fill="white"/>
<path d="M25.608 27.133C25.894 27.1331 26.1163 27.3556 26.1163 27.6416C26.1162 27.9275 25.8939 28.1498 25.608 28.1499C25.3221 28.1499 25.0998 27.9275 25.0998 27.6416C25.0998 27.3556 25.3221 27.133 25.608 27.133Z" fill="white"/>
<path d="M26.6248 27.133C26.9108 27.1331 27.1331 27.3556 27.1331 27.6416C27.133 27.9275 26.9107 28.1498 26.6248 28.1499C26.3389 28.1499 26.1163 27.9275 26.1163 27.6416C26.1163 27.3556 26.3389 27.133 26.6248 27.133Z" fill="white"/>
<path d="M27.6413 27.133C27.9273 27.133 28.1499 27.3556 28.1499 27.6416C28.1498 27.9275 27.9273 28.1499 27.6413 28.1499C27.3555 28.1498 27.1331 27.9275 27.1331 27.6416C27.1331 27.3557 27.3554 27.1331 27.6413 27.133Z" fill="white"/>
<path d="M28.6581 27.133C28.9441 27.133 29.1667 27.3556 29.1667 27.6416C29.1667 27.9275 28.9441 28.1499 28.6581 28.1499C28.3723 28.1498 28.15 27.9275 28.1499 27.6416C28.1499 27.3557 28.3722 27.1331 28.6581 27.133Z" fill="white"/>
<path d="M12.3584 26.1162C12.6444 26.1162 12.867 26.3388 12.867 26.6248C12.867 26.9107 12.6444 27.133 12.3584 27.133C12.0726 27.133 11.8502 26.9107 11.8502 26.6248C11.8502 26.3389 12.0725 26.1163 12.3584 26.1162Z" fill="white"/>
<path d="M13.3752 26.1162C13.6612 26.1162 13.8835 26.3388 13.8835 26.6248C13.8835 26.9107 13.6612 27.133 13.3752 27.133C13.0893 27.133 12.867 26.9107 12.867 26.6248C12.867 26.3388 13.0893 26.1162 13.3752 26.1162Z" fill="white"/>
<path d="M14.3921 26.1162C14.678 26.1162 14.9003 26.3388 14.9003 26.6248C14.9003 26.9107 14.678 27.133 14.3921 27.133C14.1061 27.133 13.8835 26.9107 13.8835 26.6248C13.8835 26.3388 14.1061 26.1162 14.3921 26.1162Z" fill="white"/>
<path d="M15.4086 26.1162C15.6945 26.1162 15.9171 26.3388 15.9171 26.6248C15.9171 26.9107 15.6945 27.133 15.4086 27.133C15.1227 27.133 14.9003 26.9107 14.9003 26.6248C14.9003 26.3389 15.1227 26.1163 15.4086 26.1162Z" fill="white"/>
<path d="M16.4254 26.1162C16.7113 26.1162 16.9339 26.3388 16.9339 26.6248C16.9339 26.9107 16.7113 27.133 16.4254 27.133C16.1395 27.133 15.9172 26.9107 15.9171 26.6248C15.9171 26.3389 16.1395 26.1163 16.4254 26.1162Z" fill="white"/>
<path d="M17.4422 26.1162C17.7281 26.1162 17.9507 26.3388 17.9507 26.6248C17.9507 26.9107 17.7281 27.133 17.4422 27.133C17.1563 27.133 16.934 26.9107 16.9339 26.6248C16.9339 26.3389 17.1563 26.1163 17.4422 26.1162Z" fill="white"/>
<path d="M18.4906 26.1162C18.7448 26.1162 18.9992 26.3388 18.9992 26.6248C18.9992 26.9107 18.7766 27.133 18.4906 27.133C18.2048 27.133 17.9824 26.9107 17.9824 26.6248C17.9824 26.3389 18.2047 26.1163 18.4906 26.1162Z" fill="white"/>
<path d="M19.5075 26.1162C19.7934 26.1162 20.016 26.3388 20.016 26.6248C20.016 26.9107 19.7934 27.133 19.5075 27.133C19.2216 27.133 18.9992 26.9107 18.9992 26.6248C18.9992 26.3389 19.2216 26.1163 19.5075 26.1162Z" fill="white"/>
<path d="M20.5243 26.1162C20.8102 26.1162 21.0325 26.3388 21.0325 26.6248C21.0325 26.9107 20.8102 27.133 20.5243 27.133C20.2383 27.133 20.0161 26.9107 20.016 26.6248C20.016 26.3388 20.2383 26.1162 20.5243 26.1162Z" fill="white"/>
<path d="M21.5411 26.1162C21.827 26.1162 22.0493 26.3388 22.0493 26.6248C22.0493 26.9107 21.827 27.133 21.5411 27.133C21.2551 27.133 21.0326 26.9107 21.0325 26.6248C21.0325 26.3388 21.2551 26.1162 21.5411 26.1162Z" fill="white"/>
<path d="M22.5576 26.1162C22.8435 26.1162 23.0661 26.3388 23.0661 26.6248C23.0661 26.9107 22.8435 27.133 22.5576 27.133C22.2717 27.133 22.0494 26.9107 22.0493 26.6248C22.0493 26.3389 22.2717 26.1163 22.5576 26.1162Z" fill="white"/>
<path d="M23.5744 26.1162C23.8604 26.1162 24.083 26.3388 24.083 26.6248C24.0829 26.9107 23.8603 27.133 23.5744 27.133C23.2885 27.133 23.0662 26.9107 23.0661 26.6248C23.0661 26.3389 23.2885 26.1163 23.5744 26.1162Z" fill="white"/>
<path d="M25.608 26.1162C25.894 26.1162 26.1163 26.3388 26.1163 26.6248C26.1162 26.9107 25.8939 27.133 25.608 27.133C25.3221 27.133 25.0998 26.9107 25.0998 26.6248C25.0998 26.3388 25.3221 26.1162 25.608 26.1162Z" fill="white"/>
<path d="M26.6248 26.1162C26.9108 26.1162 27.1331 26.3388 27.1331 26.6248C27.133 26.9107 26.9108 27.133 26.6248 27.133C26.3389 27.133 26.1163 26.9107 26.1163 26.6248C26.1163 26.3388 26.3389 26.1162 26.6248 26.1162Z" fill="white"/>
<path d="M27.6413 26.1162C27.9273 26.1162 28.1499 26.3388 28.1499 26.6248C28.1499 26.9107 27.9273 27.133 27.6413 27.133C27.3555 27.133 27.1331 26.9107 27.1331 26.6248C27.1331 26.3389 27.3554 26.1163 27.6413 26.1162Z" fill="white"/>
<path d="M28.6581 26.1162C28.9441 26.1162 29.1667 26.3388 29.1667 26.6248C29.1667 26.9107 28.9441 27.133 28.6581 27.133C28.3723 27.133 28.1499 26.9107 28.1499 26.6248C28.1499 26.3389 28.3722 26.1163 28.6581 26.1162Z" fill="white"/>
<path d="M11.3416 25.0997C11.6276 25.0997 11.8502 25.322 11.8502 25.608C11.8502 25.8939 11.6276 26.1162 11.3416 26.1162C11.0557 26.1162 10.8334 25.8939 10.8334 25.608C10.8334 25.3221 11.0557 25.0998 11.3416 25.0997Z" fill="white"/>
<path d="M12.3584 25.0997C12.6444 25.0997 12.867 25.322 12.867 25.608C12.867 25.8939 12.6444 26.1162 12.3584 26.1162C12.0725 26.1162 11.8502 25.8939 11.8502 25.608C11.8502 25.3221 12.0725 25.0998 12.3584 25.0997Z" fill="white"/>
<path d="M13.3752 25.0997C13.6612 25.0997 13.8835 25.322 13.8835 25.608C13.8835 25.8939 13.6612 26.1162 13.3752 26.1162C13.0893 26.1162 12.867 25.8939 12.867 25.608C12.867 25.322 13.0893 25.0997 13.3752 25.0997Z" fill="white"/>
<path d="M14.3921 25.0997C14.678 25.0997 14.9003 25.322 14.9003 25.608C14.9003 25.8939 14.678 26.1162 14.3921 26.1162C14.1061 26.1162 13.8835 25.8939 13.8835 25.608C13.8835 25.322 14.1061 25.0997 14.3921 25.0997Z" fill="white"/>
<path d="M15.4086 25.0997C15.6945 25.0997 15.9171 25.322 15.9171 25.608C15.9171 25.8939 15.6945 26.1162 15.4086 26.1162C15.1227 26.1162 14.9003 25.8939 14.9003 25.608C14.9003 25.3221 15.1227 25.0998 15.4086 25.0997Z" fill="white"/>
<path d="M16.4254 25.0997C16.7113 25.0997 16.9339 25.322 16.9339 25.608C16.9339 25.8939 16.7113 26.1162 16.4254 26.1162C16.1395 26.1162 15.9171 25.8939 15.9171 25.608C15.9171 25.3221 16.1395 25.0998 16.4254 25.0997Z" fill="white"/>
<path d="M17.4422 25.0997C17.7281 25.0997 17.9507 25.322 17.9507 25.608C17.9507 25.8939 17.7281 26.1162 17.4422 26.1162C17.1563 26.1162 16.9339 25.8939 16.9339 25.608C16.9339 25.3221 17.1563 25.0998 17.4422 25.0997Z" fill="white"/>
<path d="M18.4906 25.0997C18.7448 25.0997 18.9992 25.322 18.9992 25.608C18.9992 25.8939 18.7766 26.1162 18.4906 26.1162C18.2047 26.1162 17.9824 25.8939 17.9824 25.608C17.9824 25.3221 18.2047 25.0998 18.4906 25.0997Z" fill="white"/>
<path d="M19.5075 25.0997C19.7934 25.0997 20.016 25.322 20.016 25.608C20.016 25.8939 19.7934 26.1162 19.5075 26.1162C19.2216 26.1162 18.9992 25.8939 18.9992 25.608C18.9992 25.3221 19.2216 25.0998 19.5075 25.0997Z" fill="white"/>
<path d="M20.5243 25.0997C20.8102 25.0997 21.0325 25.322 21.0325 25.608C21.0325 25.8939 20.8102 26.1162 20.5243 26.1162C20.2383 26.1162 20.016 25.8939 20.016 25.608C20.016 25.322 20.2383 25.0997 20.5243 25.0997Z" fill="white"/>
<path d="M21.5411 25.0997C21.827 25.0997 22.0493 25.322 22.0493 25.608C22.0493 25.8939 21.827 26.1162 21.5411 26.1162C21.2551 26.1162 21.0325 25.8939 21.0325 25.608C21.0325 25.322 21.2551 25.0997 21.5411 25.0997Z" fill="white"/>
<path d="M22.5576 25.0997C22.8435 25.0997 23.0661 25.322 23.0661 25.608C23.0661 25.8939 22.8435 26.1162 22.5576 26.1162C22.2717 26.1162 22.0493 25.8939 22.0493 25.608C22.0493 25.3221 22.2717 25.0998 22.5576 25.0997Z" fill="white"/>
<path d="M23.5744 25.0997C23.8604 25.0997 24.083 25.322 24.083 25.608C24.083 25.8939 23.8604 26.1162 23.5744 26.1162C23.2885 26.1162 23.0661 25.8939 23.0661 25.608C23.0662 25.3221 23.2885 25.0998 23.5744 25.0997Z" fill="white"/>
<path d="M24.5912 25.0997C24.8772 25.0997 25.0998 25.322 25.0998 25.608C25.0998 25.8939 24.8772 26.1162 24.5912 26.1162C24.3053 26.1162 24.083 25.8939 24.083 25.608C24.083 25.3221 24.3053 25.0998 24.5912 25.0997Z" fill="white"/>
<path d="M25.608 25.0997C25.894 25.0997 26.1163 25.322 26.1163 25.608C26.1163 25.8939 25.894 26.1162 25.608 26.1162C25.3221 26.1162 25.0998 25.8939 25.0998 25.608C25.0998 25.322 25.3221 25.0997 25.608 25.0997Z" fill="white"/>
<path d="M26.6248 25.0997C26.9108 25.0997 27.1331 25.322 27.1331 25.608C27.1331 25.8939 26.9108 26.1162 26.6248 26.1162C26.3389 26.1162 26.1163 25.8939 26.1163 25.608C26.1163 25.322 26.3389 25.0997 26.6248 25.0997Z" fill="white"/>
<path d="M27.6413 25.0997C27.9273 25.0997 28.1499 25.322 28.1499 25.608C28.1499 25.8939 27.9273 26.1162 27.6413 26.1162C27.3554 26.1162 27.1331 25.8939 27.1331 25.608C27.1331 25.3221 27.3554 25.0998 27.6413 25.0997Z" fill="white"/>
<path d="M28.6581 25.0997C28.9441 25.0997 29.1667 25.322 29.1667 25.608C29.1667 25.8939 28.9441 26.1162 28.6581 26.1162C28.3722 26.1162 28.1499 25.8939 28.1499 25.608C28.1499 25.3221 28.3722 25.0998 28.6581 25.0997Z" fill="white"/>
<path d="M11.3416 24.0829C11.6276 24.0829 11.8502 24.3052 11.8502 24.5912C11.8502 24.8771 11.6276 25.0997 11.3416 25.0997C11.0557 25.0997 10.8334 24.8771 10.8334 24.5912C10.8334 24.3053 11.0557 24.083 11.3416 24.0829Z" fill="white"/>
<path d="M12.3584 24.0829C12.6444 24.0829 12.867 24.3052 12.867 24.5912C12.867 24.8771 12.6444 25.0997 12.3584 25.0997C12.0725 25.0997 11.8502 24.8771 11.8502 24.5912C11.8502 24.3053 12.0726 24.083 12.3584 24.0829Z" fill="white"/>
<path d="M13.3752 24.0829C13.6612 24.0829 13.8835 24.3052 13.8835 24.5912C13.8835 24.8771 13.6612 25.0997 13.3752 25.0997C13.0893 25.0997 12.867 24.8771 12.867 24.5912C12.867 24.3052 13.0893 24.0829 13.3752 24.0829Z" fill="white"/>
<path d="M14.3921 24.0829C14.678 24.0829 14.9003 24.3052 14.9003 24.5912C14.9003 24.8771 14.678 25.0997 14.3921 25.0997C14.1061 25.0997 13.8835 24.8771 13.8835 24.5912C13.8835 24.3052 14.1061 24.0829 14.3921 24.0829Z" fill="white"/>
<path d="M25.608 24.0829C25.894 24.0829 26.1162 24.3052 26.1163 24.5912C26.1163 24.8771 25.894 25.0997 25.608 25.0997C25.3221 25.0997 25.0998 24.8771 25.0998 24.5912C25.0998 24.3052 25.3221 24.0829 25.608 24.0829Z" fill="white"/>
<path d="M26.6248 24.0829C26.9108 24.0829 27.1331 24.3052 27.1331 24.5912C27.1331 24.8771 26.9108 25.0997 26.6248 25.0997C26.3389 25.0997 26.1163 24.8771 26.1163 24.5912C26.1163 24.3052 26.3389 24.0829 26.6248 24.0829Z" fill="white"/>
<path d="M27.6413 24.0829C27.9273 24.0829 28.1499 24.3052 28.1499 24.5912C28.1499 24.8771 27.9273 25.0997 27.6413 25.0997C27.3554 25.0997 27.1331 24.8771 27.1331 24.5912C27.1331 24.3053 27.3554 24.083 27.6413 24.0829Z" fill="white"/>
<path d="M28.6581 24.0829C28.9441 24.0829 29.1667 24.3052 29.1667 24.5912C29.1667 24.8771 28.9441 25.0997 28.6581 25.0997C28.3722 25.0997 28.1499 24.8771 28.1499 24.5912C28.1499 24.3053 28.3723 24.083 28.6581 24.0829Z" fill="white"/>
<path d="M11.3416 23.0661C11.6275 23.0661 11.8501 23.2885 11.8502 23.5744C11.8502 23.8603 11.6276 24.0829 11.3416 24.0829C11.0557 24.0828 10.8334 23.8603 10.8334 23.5744C10.8334 23.2885 11.0558 23.0662 11.3416 23.0661Z" fill="white"/>
<path d="M12.3584 23.0661C12.6444 23.0661 12.8669 23.2885 12.867 23.5744C12.867 23.8603 12.6444 24.0829 12.3584 24.0829C12.0725 24.0828 11.8502 23.8603 11.8502 23.5744C11.8503 23.2885 12.0726 23.0662 12.3584 23.0661Z" fill="white"/>
<path d="M13.3752 23.0661C13.6612 23.0661 13.8834 23.2885 13.8835 23.5744C13.8835 23.8603 13.6612 24.0829 13.3752 24.0829C13.0893 24.0829 12.867 23.8603 12.867 23.5744C12.8671 23.2885 13.0893 23.0661 13.3752 23.0661Z" fill="white"/>
<path d="M14.3921 23.0661C14.678 23.0661 14.9002 23.2885 14.9003 23.5744C14.9003 23.8603 14.678 24.0829 14.3921 24.0829C14.1061 24.0829 13.8835 23.8603 13.8835 23.5744C13.8836 23.2885 14.1061 23.0661 14.3921 23.0661Z" fill="white"/>
<path d="M25.608 23.0661C25.8939 23.0661 26.1162 23.2885 26.1163 23.5744C26.1163 23.8603 25.894 24.0829 25.608 24.0829C25.3221 24.0829 25.0998 23.8603 25.0998 23.5744C25.0998 23.2885 25.3221 23.0661 25.608 23.0661Z" fill="white"/>
<path d="M26.6248 23.0661C26.9107 23.0661 27.133 23.2885 27.1331 23.5744C27.1331 23.8603 26.9108 24.0829 26.6248 24.0829C26.3389 24.0829 26.1163 23.8603 26.1163 23.5744C26.1163 23.2885 26.3389 23.0661 26.6248 23.0661Z" fill="white"/>
<path d="M27.6413 23.0661C27.9273 23.0661 28.1498 23.2885 28.1499 23.5744C28.1499 23.8603 27.9273 24.0829 27.6413 24.0829C27.3554 24.0828 27.1331 23.8603 27.1331 23.5744C27.1331 23.2885 27.3555 23.0662 27.6413 23.0661Z" fill="white"/>
<path d="M28.6581 23.0661C28.9441 23.0661 29.1666 23.2885 29.1667 23.5744C29.1667 23.8603 28.9441 24.0829 28.6581 24.0829C28.3722 24.0828 28.1499 23.8603 28.1499 23.5744C28.15 23.2885 28.3723 23.0662 28.6581 23.0661Z" fill="white"/>
<path d="M11.3416 22.0493C11.6276 22.0493 11.8502 22.2719 11.8502 22.5578C11.8501 22.8438 11.6275 23.0661 11.3416 23.0661C11.0558 23.066 10.8334 22.8437 10.8334 22.5578C10.8334 22.2719 11.0557 22.0494 11.3416 22.0493Z" fill="white"/>
<path d="M12.3584 22.0493C12.6444 22.0493 12.867 22.2719 12.867 22.5578C12.8669 22.8438 12.6444 23.0661 12.3584 23.0661C12.0726 23.066 11.8502 22.8437 11.8502 22.5578C11.8502 22.2719 12.0725 22.0494 12.3584 22.0493Z" fill="white"/>
<path d="M13.3752 22.0493C13.6612 22.0493 13.8835 22.2719 13.8835 22.5578C13.8834 22.8437 13.6612 23.0661 13.3752 23.0661C13.0893 23.0661 12.8671 22.8438 12.867 22.5578C12.867 22.2719 13.0893 22.0493 13.3752 22.0493Z" fill="white"/>
<path d="M14.3921 22.0493C14.678 22.0493 14.9003 22.2719 14.9003 22.5578C14.9003 22.8437 14.678 23.0661 14.3921 23.0661C14.1061 23.0661 13.8836 22.8438 13.8835 22.5578C13.8835 22.2719 14.1061 22.0493 14.3921 22.0493Z" fill="white"/>
<path d="M25.608 22.0493C25.894 22.0493 26.1163 22.2719 26.1163 22.5578C26.1162 22.8437 25.8939 23.0661 25.608 23.0661C25.3221 23.0661 25.0998 22.8438 25.0998 22.5578C25.0998 22.2719 25.3221 22.0493 25.608 22.0493Z" fill="white"/>
<path d="M26.6248 22.0493C26.9108 22.0493 27.1331 22.2719 27.1331 22.5578C27.133 22.8437 26.9107 23.0661 26.6248 23.0661C26.3389 23.0661 26.1163 22.8438 26.1163 22.5578C26.1163 22.2719 26.3389 22.0493 26.6248 22.0493Z" fill="white"/>
<path d="M27.6413 22.0493C27.9273 22.0493 28.1499 22.2719 28.1499 22.5578C28.1498 22.8438 27.9273 23.0661 27.6413 23.0661C27.3555 23.066 27.1331 22.8437 27.1331 22.5578C27.1331 22.2719 27.3554 22.0494 27.6413 22.0493Z" fill="white"/>
<path d="M28.6581 22.0493C28.9441 22.0493 29.1667 22.2719 29.1667 22.5578C29.1667 22.8438 28.9441 23.0661 28.6581 23.0661C28.3723 23.066 28.15 22.8437 28.1499 22.5578C28.1499 22.2719 28.3722 22.0494 28.6581 22.0493Z" fill="white"/>
<path d="M11.3416 21.0325C11.6276 21.0325 11.8502 21.2551 11.8502 21.541C11.8502 21.827 11.6276 22.0493 11.3416 22.0493C11.0557 22.0492 10.8334 21.8269 10.8334 21.541C10.8334 21.2551 11.0557 21.0325 11.3416 21.0325Z" fill="white"/>
<path d="M12.3584 21.0325C12.6444 21.0325 12.867 21.2551 12.867 21.541C12.867 21.827 12.6444 22.0493 12.3584 22.0493C12.0726 22.0492 11.8502 21.8269 11.8502 21.541C11.8502 21.2551 12.0725 21.0325 12.3584 21.0325Z" fill="white"/>
<path d="M13.3752 21.0325C13.6612 21.0325 13.8835 21.2551 13.8835 21.541C13.8835 21.827 13.6612 22.0493 13.3752 22.0493C13.0893 22.0493 12.867 21.827 12.867 21.541C12.867 21.2551 13.0893 21.0325 13.3752 21.0325Z" fill="white"/>
<path d="M14.3921 21.0325C14.678 21.0325 14.9003 21.2551 14.9003 21.541C14.9003 21.827 14.678 22.0493 14.3921 22.0493C14.1061 22.0493 13.8835 21.827 13.8835 21.541C13.8835 21.2551 14.1061 21.0325 14.3921 21.0325Z" fill="white"/>
<path d="M25.608 21.0325C25.894 21.0325 26.1163 21.2551 26.1163 21.541C26.1162 21.827 25.8939 22.0493 25.608 22.0493C25.3221 22.0493 25.0998 21.827 25.0998 21.541C25.0998 21.2551 25.3221 21.0325 25.608 21.0325Z" fill="white"/>
<path d="M26.6248 21.0325C26.9108 21.0325 27.1331 21.2551 27.1331 21.541C27.133 21.827 26.9108 22.0493 26.6248 22.0493C26.3389 22.0493 26.1163 21.827 26.1163 21.541C26.1163 21.2551 26.3389 21.0325 26.6248 21.0325Z" fill="white"/>
<path d="M27.6413 21.0325C27.9273 21.0325 28.1499 21.2551 28.1499 21.541C28.1499 21.827 27.9273 22.0493 27.6413 22.0493C27.3555 22.0492 27.1331 21.8269 27.1331 21.541C27.1331 21.2551 27.3554 21.0325 27.6413 21.0325Z" fill="white"/>
<path d="M28.6581 21.0325C28.9441 21.0325 29.1667 21.2551 29.1667 21.541C29.1667 21.827 28.9441 22.0493 28.6581 22.0493C28.3723 22.0492 28.1499 21.8269 28.1499 21.541C28.1499 21.2551 28.3722 21.0325 28.6581 21.0325Z" fill="white"/>
<path d="M11.3416 19.984C11.6276 19.984 11.8502 20.2066 11.8502 20.4926C11.8501 20.7785 11.6275 21.0008 11.3416 21.0008C11.0558 21.0008 10.8334 20.7784 10.8334 20.4926C10.8334 20.2067 11.0557 19.9841 11.3416 19.984Z" fill="white"/>
<path d="M12.3584 19.984C12.6444 19.984 12.867 20.2066 12.867 20.4926C12.8669 20.7785 12.6444 21.0008 12.3584 21.0008C12.0726 21.0008 11.8502 20.7784 11.8502 20.4926C11.8502 20.2067 12.0725 19.9841 12.3584 19.984Z" fill="white"/>
<path d="M13.3752 19.984C13.6612 19.984 13.8835 20.2066 13.8835 20.4926C13.8834 20.7785 13.6612 21.0008 13.3752 21.0008C13.0893 21.0008 12.8671 20.7785 12.867 20.4926C12.867 20.2066 13.0893 19.984 13.3752 19.984Z" fill="white"/>
<path d="M14.3921 19.984C14.678 19.984 14.9003 20.2066 14.9003 20.4926C14.9003 20.7785 14.678 21.0008 14.3921 21.0008C14.1061 21.0008 13.8836 20.7785 13.8835 20.4926C13.8835 20.2066 14.1061 19.984 14.3921 19.984Z" fill="white"/>
<path d="M25.608 19.984C25.894 19.984 26.1163 20.2066 26.1163 20.4926C26.1162 20.7785 25.8939 21.0008 25.608 21.0008C25.3221 21.0008 25.0998 20.7785 25.0998 20.4926C25.0998 20.2066 25.3221 19.984 25.608 19.984Z" fill="white"/>
<path d="M26.6248 19.984C26.9108 19.984 27.1331 20.2066 27.1331 20.4926C27.133 20.7785 26.9107 21.0008 26.6248 21.0008C26.3389 21.0008 26.1163 20.7785 26.1163 20.4926C26.1163 20.2066 26.3389 19.984 26.6248 19.984Z" fill="white"/>
<path d="M27.6413 19.984C27.9273 19.984 28.1499 20.2066 28.1499 20.4926C28.1498 20.7785 27.9273 21.0008 27.6413 21.0008C27.3555 21.0008 27.1331 20.7784 27.1331 20.4926C27.1331 20.2067 27.3554 19.9841 27.6413 19.984Z" fill="white"/>
<path d="M28.6581 19.984C28.9441 19.984 29.1667 20.2066 29.1667 20.4926C29.1667 20.7785 28.9441 21.0008 28.6581 21.0008C28.3723 21.0008 28.15 20.7784 28.1499 20.4926C28.1499 20.2067 28.3722 19.9841 28.6581 19.984Z" fill="white"/>
<path d="M11.3416 18.9672C11.6276 18.9672 11.8502 19.1898 11.8502 19.4758C11.8501 19.7617 11.6276 19.984 11.3416 19.984C11.0557 19.984 10.8334 19.7617 10.8334 19.4758C10.8334 19.1898 11.0557 18.9673 11.3416 18.9672Z" fill="white"/>
<path d="M12.3584 18.9672C12.6444 18.9672 12.867 19.1898 12.867 19.4758C12.867 19.7617 12.6444 19.984 12.3584 19.984C12.0726 19.984 11.8502 19.7617 11.8502 19.4758C11.8502 19.1898 12.0725 18.9673 12.3584 18.9672Z" fill="white"/>
<path d="M13.3752 18.9672C13.6612 18.9672 13.8835 19.1898 13.8835 19.4758C13.8835 19.7617 13.6612 19.984 13.3752 19.984C13.0893 19.984 12.867 19.7617 12.867 19.4758C12.867 19.1898 13.0893 18.9672 13.3752 18.9672Z" fill="white"/>
<path d="M14.3921 18.9672C14.678 18.9672 14.9003 19.1898 14.9003 19.4758C14.9003 19.7617 14.678 19.984 14.3921 19.984C14.1061 19.984 13.8835 19.7617 13.8835 19.4758C13.8835 19.1898 14.1061 18.9672 14.3921 18.9672Z" fill="white"/>
<path d="M25.608 18.9672C25.894 18.9672 26.1163 19.1898 26.1163 19.4758C26.1162 19.7617 25.8939 19.984 25.608 19.984C25.3221 19.984 25.0998 19.7617 25.0998 19.4758C25.0998 19.1898 25.3221 18.9672 25.608 18.9672Z" fill="white"/>
<path d="M26.6248 18.9672C26.9108 18.9672 27.1331 19.1898 27.1331 19.4758C27.133 19.7617 26.9108 19.984 26.6248 19.984C26.3389 19.984 26.1163 19.7617 26.1163 19.4758C26.1163 19.1898 26.3389 18.9672 26.6248 18.9672Z" fill="white"/>
<path d="M27.6413 18.9672C27.9273 18.9672 28.1499 19.1898 28.1499 19.4758C28.1499 19.7617 27.9273 19.984 27.6413 19.984C27.3555 19.984 27.1331 19.7617 27.1331 19.4758C27.1331 19.1898 27.3554 18.9673 27.6413 18.9672Z" fill="white"/>
<path d="M28.6581 18.9672C28.9441 18.9672 29.1667 19.1898 29.1667 19.4758C29.1667 19.7617 28.9441 19.984 28.6581 19.984C28.3723 19.984 28.1499 19.7617 28.1499 19.4758C28.1499 19.1898 28.3722 18.9673 28.6581 18.9672Z" fill="white"/>
<path d="M11.3416 17.9507C11.6276 17.9507 11.8502 18.2048 11.8502 18.459C11.8502 18.7449 11.6276 18.9672 11.3416 18.9672C11.0557 18.9671 10.8334 18.7449 10.8334 18.459C10.8334 18.2048 11.0557 17.9508 11.3416 17.9507Z" fill="white"/>
<path d="M12.3584 17.9507C12.6444 17.9507 12.867 18.2048 12.867 18.459C12.867 18.7449 12.6444 18.9672 12.3584 18.9672C12.0725 18.9671 11.8502 18.7449 11.8502 18.459C11.8502 18.173 12.0725 17.9508 12.3584 17.9507Z" fill="white"/>
<path d="M13.3752 17.9507C13.6612 17.9507 13.8835 18.2048 13.8835 18.459C13.8835 18.7449 13.6612 18.9672 13.3752 18.9672C13.0893 18.9672 12.867 18.7449 12.867 18.459C12.867 18.173 13.0893 17.9507 13.3752 17.9507Z" fill="white"/>
<path d="M14.3921 17.9507C14.678 17.9507 14.9003 18.2048 14.9003 18.459C14.9003 18.7449 14.678 18.9672 14.3921 18.9672C14.1061 18.9672 13.8835 18.7449 13.8835 18.459C13.8835 18.173 14.1061 17.9507 14.3921 17.9507Z" fill="white"/>
<path d="M25.608 17.9507C25.894 17.9507 26.1163 18.2048 26.1163 18.459C26.1163 18.7449 25.894 18.9672 25.608 18.9672C25.3221 18.9672 25.0998 18.7449 25.0998 18.459C25.0998 18.173 25.3221 17.9507 25.608 17.9507Z" fill="white"/>
<path d="M26.6248 17.9507C26.9108 17.9507 27.1331 18.2048 27.1331 18.459C27.1331 18.7449 26.9108 18.9672 26.6248 18.9672C26.3389 18.9672 26.1163 18.7449 26.1163 18.459C26.1163 18.173 26.3389 17.9507 26.6248 17.9507Z" fill="white"/>
<path d="M27.6413 17.9507C27.9273 17.9507 28.1499 18.2048 28.1499 18.459C28.1499 18.7449 27.9273 18.9672 27.6413 18.9672C27.3554 18.9671 27.1331 18.7449 27.1331 18.459C27.1331 18.173 27.3554 17.9508 27.6413 17.9507Z" fill="white"/>
<path d="M28.6581 17.9507C28.9441 17.9507 29.1667 18.2048 29.1667 18.459C29.1667 18.7449 28.9441 18.9672 28.6581 18.9672C28.3722 18.9671 28.1499 18.7449 28.1499 18.459C28.1499 18.173 28.3722 17.9508 28.6581 17.9507Z" fill="white"/>
<path d="M11.3416 16.9339C11.6276 16.9339 11.8502 17.1562 11.8502 17.4421C11.8502 17.7281 11.6276 17.9507 11.3416 17.9507C11.0557 17.9506 10.8334 17.7281 10.8334 17.4421C10.8334 17.1563 11.0557 16.934 11.3416 16.9339Z" fill="white"/>
<path d="M12.3584 16.9339C12.6444 16.9339 12.867 17.1562 12.867 17.4421C12.867 17.7281 12.6444 17.9507 12.3584 17.9507C12.0725 17.9506 11.8502 17.7281 11.8502 17.4421C11.8502 17.1563 12.0726 16.934 12.3584 16.9339Z" fill="white"/>
<path d="M13.3752 16.9339C13.6612 16.9339 13.8835 17.1562 13.8835 17.4421C13.8835 17.7281 13.6612 17.9507 13.3752 17.9507C13.0893 17.9507 12.867 17.7281 12.867 17.4421C12.867 17.1562 13.0893 16.9339 13.3752 16.9339Z" fill="white"/>
<path d="M14.3921 16.9339C14.678 16.9339 14.9003 17.1562 14.9003 17.4421C14.9003 17.7281 14.678 17.9507 14.3921 17.9507C14.1061 17.9507 13.8835 17.7281 13.8835 17.4421C13.8835 17.1562 14.1061 16.9339 14.3921 16.9339Z" fill="white"/>
<path d="M25.608 16.9339C25.8939 16.9339 26.1162 17.1562 26.1163 17.4421C26.1163 17.7281 25.894 17.9507 25.608 17.9507C25.3221 17.9507 25.0998 17.7281 25.0998 17.4421C25.0998 17.1562 25.3221 16.9339 25.608 16.9339Z" fill="white"/>
<path d="M26.6248 16.9339C26.9108 16.9339 27.1331 17.1562 27.1331 17.4421C27.1331 17.7281 26.9108 17.9507 26.6248 17.9507C26.3389 17.9507 26.1163 17.7281 26.1163 17.4421C26.1163 17.1562 26.3389 16.9339 26.6248 16.9339Z" fill="white"/>
<path d="M27.6413 16.9339C27.9273 16.9339 28.1499 17.1562 28.1499 17.4421C28.1499 17.7281 27.9273 17.9507 27.6413 17.9507C27.3554 17.9506 27.1331 17.7281 27.1331 17.4421C27.1331 17.1563 27.3555 16.934 27.6413 16.9339Z" fill="white"/>
<path d="M28.6581 16.9339C28.9441 16.9339 29.1667 17.1562 29.1667 17.4421C29.1667 17.7281 28.9441 17.9507 28.6581 17.9507C28.3722 17.9506 28.1499 17.7281 28.1499 17.4421C28.1499 17.1563 28.3723 16.934 28.6581 16.9339Z" fill="white"/>
<path d="M12.3584 15.9171C12.6444 15.9171 12.8669 16.1394 12.867 16.4253C12.867 16.7113 12.6444 16.9339 12.3584 16.9339C12.0725 16.9338 11.8502 16.7112 11.8502 16.4253C11.8503 16.1395 12.0726 15.9171 12.3584 15.9171Z" fill="white"/>
<path d="M13.3752 15.9171C13.6612 15.9171 13.8834 16.1394 13.8835 16.4253C13.8835 16.7113 13.6612 16.9339 13.3752 16.9339C13.0893 16.9339 12.867 16.7113 12.867 16.4253C12.8671 16.1394 13.0893 15.9171 13.3752 15.9171Z" fill="white"/>
<path d="M14.3921 15.9171C14.678 15.9171 14.9002 16.1394 14.9003 16.4253C14.9003 16.7113 14.678 16.9339 14.3921 16.9339C14.1061 16.9339 13.8835 16.7113 13.8835 16.4253C13.8836 16.1394 14.1061 15.9171 14.3921 15.9171Z" fill="white"/>
<path d="M25.608 15.9171C25.8939 15.9171 26.1162 16.1394 26.1163 16.4253C26.1163 16.7113 25.894 16.9339 25.608 16.9339C25.3221 16.9339 25.0998 16.7113 25.0998 16.4253C25.0998 16.1394 25.3221 15.9171 25.608 15.9171Z" fill="white"/>
<path d="M26.6248 15.9171C26.9107 15.9171 27.133 16.1394 27.1331 16.4253C27.1331 16.7113 26.9108 16.9339 26.6248 16.9339C26.3389 16.9339 26.1163 16.7113 26.1163 16.4253C26.1163 16.1394 26.3389 15.9171 26.6248 15.9171Z" fill="white"/>
<path d="M27.6413 15.9171C27.9273 15.9171 28.1498 16.1394 28.1499 16.4253C28.1499 16.7113 27.9273 16.9339 27.6413 16.9339C27.3554 16.9338 27.1331 16.7112 27.1331 16.4253C27.1331 16.1395 27.3555 15.9171 27.6413 15.9171Z" fill="white"/>
<path d="M28.6581 15.9171C28.9441 15.9171 29.1666 16.1394 29.1667 16.4253C29.1667 16.7113 28.9441 16.9339 28.6581 16.9339C28.3722 16.9338 28.1499 16.7112 28.1499 16.4253C28.15 16.1395 28.3723 15.9171 28.6581 15.9171Z" fill="white"/>
<path d="M13.3752 14.9003C13.6612 14.9003 13.8835 15.1229 13.8835 15.4088C13.8834 15.6947 13.6612 15.9171 13.3752 15.9171C13.0893 15.9171 12.8671 15.6947 12.867 15.4088C12.867 15.1229 13.0893 14.9003 13.3752 14.9003Z" fill="white"/>
<path d="M14.3921 14.9003C14.678 14.9003 14.9003 15.1229 14.9003 15.4088C14.9002 15.6947 14.678 15.9171 14.3921 15.9171C14.1061 15.9171 13.8836 15.6947 13.8835 15.4088C13.8835 15.1229 14.1061 14.9003 14.3921 14.9003Z" fill="white"/>
<path d="M25.608 14.9003C25.894 14.9003 26.1163 15.1229 26.1163 15.4088C26.1162 15.6947 25.8939 15.9171 25.608 15.9171C25.3221 15.9171 25.0998 15.6947 25.0998 15.4088C25.0998 15.1229 25.3221 14.9003 25.608 14.9003Z" fill="white"/>
<path d="M26.6248 14.9003C26.9108 14.9003 27.1331 15.1229 27.1331 15.4088C27.133 15.6947 26.9107 15.9171 26.6248 15.9171C26.3389 15.9171 26.1163 15.6947 26.1163 15.4088C26.1163 15.1229 26.3389 14.9003 26.6248 14.9003Z" fill="white"/>
<path d="M27.6413 14.9003C27.9273 14.9003 28.1499 15.1229 28.1499 15.4088C28.1498 15.6947 27.9273 15.9171 27.6413 15.9171C27.3555 15.917 27.1332 15.6947 27.1331 15.4088C27.1331 15.1229 27.3554 14.9003 27.6413 14.9003Z" fill="white"/>
<path d="M28.6581 14.9003C28.9441 14.9003 29.1667 15.1229 29.1667 15.4088C29.1666 15.6947 28.9441 15.9171 28.6581 15.9171C28.3723 15.917 28.15 15.6947 28.1499 15.4088C28.1499 15.1229 28.3722 14.9003 28.6581 14.9003Z" fill="white"/>
<path d="M14.3921 13.8835C14.678 13.8835 14.9003 14.1061 14.9003 14.392C14.9003 14.6779 14.678 14.9002 14.3921 14.9003C14.1061 14.9003 13.8838 14.6779 13.8838 14.392C13.8838 14.1061 14.1061 13.8835 14.3921 13.8835Z" fill="white"/>
<path d="M15.4086 13.8835C15.6945 13.8835 15.9171 14.1061 15.9171 14.392C15.9171 14.6779 15.6945 14.9003 15.4086 14.9003C15.1227 14.9002 14.9003 14.6779 14.9003 14.392C14.9003 14.1061 15.1227 13.8835 15.4086 13.8835Z" fill="white"/>
<path d="M16.4254 13.8835C16.7113 13.8835 16.9339 14.1061 16.9339 14.392C16.9339 14.6779 16.7113 14.9003 16.4254 14.9003C16.1395 14.9002 15.9172 14.6779 15.9171 14.392C15.9171 14.1061 16.1395 13.8835 16.4254 13.8835Z" fill="white"/>
<path d="M17.4422 13.8835C17.7281 13.8835 17.9507 14.1061 17.9507 14.392C17.9507 14.6779 17.7281 14.9003 17.4422 14.9003C17.1563 14.9002 16.934 14.6779 16.9339 14.392C16.9339 14.1061 17.1563 13.8835 17.4422 13.8835Z" fill="white"/>
<path d="M18.4906 13.8835C18.7448 13.8835 18.9992 14.1061 18.9992 14.392C18.9992 14.6779 18.7766 14.9003 18.4906 14.9003C18.2048 14.9002 17.9824 14.6779 17.9824 14.392C17.9824 14.1061 18.2047 13.8835 18.4906 13.8835Z" fill="white"/>
<path d="M19.5075 13.8835C19.7934 13.8835 20.016 14.1061 20.016 14.392C20.016 14.6779 19.7934 14.9003 19.5075 14.9003C19.2216 14.9002 18.9992 14.6779 18.9992 14.392C18.9992 14.1061 19.2216 13.8835 19.5075 13.8835Z" fill="white"/>
<path d="M20.5243 13.8835C20.8102 13.8835 21.0325 14.1061 21.0325 14.392C21.0325 14.6779 20.8102 14.9002 20.5243 14.9003C20.2383 14.9003 20.0161 14.6779 20.016 14.392C20.016 14.1061 20.2383 13.8835 20.5243 13.8835Z" fill="white"/>
<path d="M21.5411 13.8835C21.827 13.8835 22.0493 14.1061 22.0493 14.392C22.0493 14.6779 21.827 14.9003 21.5411 14.9003C21.2551 14.9003 21.0326 14.6779 21.0325 14.392C21.0325 14.1061 21.2551 13.8835 21.5411 13.8835Z" fill="white"/>
<path d="M22.5576 13.8835C22.8435 13.8835 23.0661 14.1061 23.0661 14.392C23.0661 14.6779 22.8435 14.9003 22.5576 14.9003C22.2717 14.9002 22.0494 14.6779 22.0493 14.392C22.0493 14.1061 22.2717 13.8835 22.5576 13.8835Z" fill="white"/>
<path d="M23.5744 13.8835C23.8604 13.8835 24.083 14.1061 24.083 14.392C24.0829 14.6779 23.8603 14.9003 23.5744 14.9003C23.2885 14.9002 23.0662 14.6779 23.0661 14.392C23.0661 14.1061 23.2885 13.8835 23.5744 13.8835Z" fill="white"/>
<path d="M24.5912 13.8835C24.8772 13.8835 25.0998 14.1061 25.0998 14.392C25.0997 14.6779 24.8771 14.9003 24.5912 14.9003C24.3053 14.9002 24.083 14.6779 24.083 14.392C24.083 14.1061 24.3053 13.8835 24.5912 13.8835Z" fill="white"/>
<path d="M25.608 13.8835C25.894 13.8835 26.1163 14.1061 26.1163 14.392C26.1162 14.6779 25.8939 14.9002 25.608 14.9003C25.3221 14.9003 25.0998 14.6779 25.0998 14.392C25.0998 14.1061 25.3221 13.8835 25.608 13.8835Z" fill="white"/>
<path d="M26.6248 13.8835C26.9108 13.8835 27.1331 14.1061 27.1331 14.392C27.133 14.6779 26.9108 14.9003 26.6248 14.9003C26.3389 14.9003 26.1163 14.6779 26.1163 14.392C26.1163 14.1061 26.3389 13.8835 26.6248 13.8835Z" fill="white"/>
<path d="M27.6413 13.8835C27.9273 13.8835 28.1499 14.1061 28.1499 14.392C28.1499 14.6779 27.9273 14.9003 27.6413 14.9003C27.3555 14.9002 27.1331 14.6779 27.1331 14.392C27.1331 14.1061 27.3554 13.8835 27.6413 13.8835Z" fill="white"/>
<path d="M28.6581 13.8835C28.9441 13.8835 29.1667 14.1061 29.1667 14.392C29.1667 14.6779 28.9441 14.9003 28.6581 14.9003C28.3723 14.9002 28.1499 14.6779 28.1499 14.392C28.1499 14.1061 28.3722 13.8835 28.6581 13.8835Z" fill="white"/>
<path d="M15.4086 12.867C15.6945 12.867 15.9171 13.0892 15.9171 13.3752C15.9171 13.6612 15.6945 13.8835 15.4086 13.8835C15.1227 13.8834 14.9003 13.6611 14.9003 13.3752C14.9003 13.0893 15.1227 12.867 15.4086 12.867Z" fill="white"/>
<path d="M16.4254 12.867C16.7113 12.867 16.9339 13.0892 16.9339 13.3752C16.9339 13.6612 16.7113 13.8835 16.4254 13.8835C16.1395 13.8834 15.9171 13.6611 15.9171 13.3752C15.9171 13.0893 16.1395 12.867 16.4254 12.867Z" fill="white"/>
<path d="M17.4422 12.867C17.7281 12.867 17.9507 13.0892 17.9507 13.3752C17.9507 13.6612 17.7281 13.8835 17.4422 13.8835C17.1563 13.8834 16.9339 13.6611 16.9339 13.3752C16.9339 13.0893 17.1563 12.867 17.4422 12.867Z" fill="white"/>
<path d="M18.4906 12.867C18.7448 12.867 18.9992 13.0892 18.9992 13.3752C18.9992 13.6612 18.7766 13.8835 18.4906 13.8835C18.2047 13.8834 17.9824 13.6611 17.9824 13.3752C17.9824 13.0893 18.2047 12.867 18.4906 12.867Z" fill="white"/>
<path d="M19.5075 12.867C19.7934 12.867 20.016 13.0892 20.016 13.3752C20.016 13.6612 19.7934 13.8835 19.5075 13.8835C19.2216 13.8834 18.9992 13.6611 18.9992 13.3752C18.9992 13.0893 19.2216 12.867 19.5075 12.867Z" fill="white"/>
<path d="M20.5243 12.867C20.8102 12.867 21.0325 13.0893 21.0325 13.3752C21.0325 13.6612 20.8102 13.8834 20.5243 13.8835C20.2383 13.8835 20.016 13.6612 20.016 13.3752C20.016 13.0892 20.2383 12.867 20.5243 12.867Z" fill="white"/>
<path d="M21.5411 12.867C21.827 12.867 22.0493 13.0893 22.0493 13.3752C22.0493 13.6612 21.827 13.8834 21.5411 13.8835C21.2551 13.8835 21.0325 13.6612 21.0325 13.3752C21.0325 13.0892 21.2551 12.867 21.5411 12.867Z" fill="white"/>
<path d="M22.5576 12.867C22.8435 12.867 23.0661 13.0892 23.0661 13.3752C23.0661 13.6612 22.8435 13.8835 22.5576 13.8835C22.2717 13.8834 22.0493 13.6611 22.0493 13.3752C22.0493 13.0893 22.2717 12.867 22.5576 12.867Z" fill="white"/>
<path d="M23.5744 12.867C23.8604 12.867 24.083 13.0892 24.083 13.3752C24.083 13.6612 23.8604 13.8835 23.5744 13.8835C23.2885 13.8834 23.0661 13.6611 23.0661 13.3752C23.0662 13.0893 23.2885 12.867 23.5744 12.867Z" fill="white"/>
<path d="M24.5912 12.867C24.8772 12.867 25.0998 13.0892 25.0998 13.3752C25.0998 13.6612 24.8772 13.8835 24.5912 13.8835C24.3053 13.8834 24.083 13.6611 24.083 13.3752C24.083 13.0893 24.3053 12.867 24.5912 12.867Z" fill="white"/>
<path d="M25.608 12.867C25.894 12.867 26.1163 13.0893 26.1163 13.3752C26.1163 13.6612 25.894 13.8834 25.608 13.8835C25.3221 13.8835 25.0998 13.6612 25.0998 13.3752C25.0998 13.0892 25.3221 12.867 25.608 12.867Z" fill="white"/>
<path d="M26.6248 12.867C26.9108 12.867 27.1331 13.0893 27.1331 13.3752C27.1331 13.6612 26.9108 13.8834 26.6248 13.8835C26.3389 13.8835 26.1163 13.6612 26.1163 13.3752C26.1163 13.0892 26.3389 12.867 26.6248 12.867Z" fill="white"/>
<path d="M27.6413 12.867C27.9273 12.867 28.1499 13.0892 28.1499 13.3752C28.1499 13.6612 27.9273 13.8835 27.6413 13.8835C27.3554 13.8834 27.1331 13.6611 27.1331 13.3752C27.1331 13.0893 27.3554 12.867 27.6413 12.867Z" fill="white"/>
<path d="M28.6581 12.867C28.9441 12.867 29.1667 13.0892 29.1667 13.3752C29.1667 13.6612 28.9441 13.8835 28.6581 13.8835C28.3722 13.8834 28.1499 13.6611 28.1499 13.3752C28.1499 13.0893 28.3722 12.867 28.6581 12.867Z" fill="white"/>
<path d="M16.4254 11.8501C16.7113 11.8501 16.9339 12.0725 16.9339 12.3584C16.9339 12.6444 16.7113 12.867 16.4254 12.867C16.1395 12.8669 15.9171 12.6443 15.9171 12.3584C15.9172 12.0725 16.1395 11.8502 16.4254 11.8501Z" fill="white"/>
<path d="M17.4422 11.8501C17.7281 11.8501 17.9507 12.0725 17.9507 12.3584C17.9507 12.6444 17.7281 12.867 17.4422 12.867C17.1563 12.8669 16.9339 12.6443 16.9339 12.3584C16.934 12.0725 17.1563 11.8502 17.4422 11.8501Z" fill="white"/>
<path d="M18.4906 11.8501C18.7448 11.8501 18.9992 12.0725 18.9992 12.3584C18.9992 12.6444 18.7766 12.867 18.4906 12.867C18.2047 12.8669 17.9824 12.6443 17.9824 12.3584C17.9824 12.0725 18.2048 11.8502 18.4906 11.8501Z" fill="white"/>
<path d="M19.5075 11.8501C19.7934 11.8501 20.016 12.0725 20.016 12.3584C20.016 12.6444 19.7934 12.867 19.5075 12.867C19.2216 12.8669 18.9992 12.6443 18.9992 12.3584C18.9992 12.0725 19.2216 11.8502 19.5075 11.8501Z" fill="white"/>
<path d="M20.5243 11.8501C20.8102 11.8502 21.0325 12.0725 21.0325 12.3584C21.0325 12.6443 20.8102 12.8669 20.5243 12.867C20.2383 12.867 20.016 12.6444 20.016 12.3584C20.0161 12.0725 20.2383 11.8501 20.5243 11.8501Z" fill="white"/>
<path d="M21.5411 11.8501C21.827 11.8502 22.0493 12.0725 22.0493 12.3584C22.0493 12.6443 21.827 12.8669 21.5411 12.867C21.2551 12.867 21.0325 12.6444 21.0325 12.3584C21.0326 12.0725 21.2551 11.8501 21.5411 11.8501Z" fill="white"/>
<path d="M22.5576 11.8501C22.8435 11.8501 23.0661 12.0725 23.0661 12.3584C23.0661 12.6444 22.8435 12.867 22.5576 12.867C22.2717 12.8669 22.0493 12.6443 22.0493 12.3584C22.0494 12.0725 22.2717 11.8502 22.5576 11.8501Z" fill="white"/>
<path d="M23.5744 11.8501C23.8603 11.8501 24.0829 12.0725 24.083 12.3584C24.083 12.6444 23.8604 12.867 23.5744 12.867C23.2885 12.8669 23.0661 12.6443 23.0661 12.3584C23.0662 12.0725 23.2885 11.8502 23.5744 11.8501Z" fill="white"/>
<path d="M24.5912 11.8501C24.8771 11.8501 25.0997 12.0725 25.0998 12.3584C25.0998 12.6444 24.8772 12.867 24.5912 12.867C24.3053 12.8669 24.083 12.6443 24.083 12.3584C24.083 12.0725 24.3053 11.8502 24.5912 11.8501Z" fill="white"/>
<path d="M25.608 11.8501C25.8939 11.8502 26.1162 12.0725 26.1163 12.3584C26.1163 12.6443 25.894 12.8669 25.608 12.867C25.3221 12.867 25.0998 12.6444 25.0998 12.3584C25.0998 12.0725 25.3221 11.8501 25.608 11.8501Z" fill="white"/>
<path d="M26.6248 11.8501C26.9108 11.8502 27.1331 12.0725 27.1331 12.3584C27.1331 12.6443 26.9108 12.8669 26.6248 12.867C26.3389 12.867 26.1163 12.6444 26.1163 12.3584C26.1163 12.0725 26.3389 11.8501 26.6248 11.8501Z" fill="white"/>
<path d="M27.6413 11.8501C27.9273 11.8501 28.1499 12.0725 28.1499 12.3584C28.1499 12.6444 27.9273 12.867 27.6413 12.867C27.3554 12.8669 27.1331 12.6443 27.1331 12.3584C27.1331 12.0725 27.3555 11.8502 27.6413 11.8501Z" fill="white"/>
<path d="M28.6581 11.8501C28.9441 11.8501 29.1667 12.0725 29.1667 12.3584C29.1667 12.6444 28.9441 12.867 28.6581 12.867C28.3722 12.8669 28.1499 12.6443 28.1499 12.3584C28.1499 12.0725 28.3723 11.8502 28.6581 11.8501Z" fill="white"/>
<path d="M17.4422 10.8333C17.7281 10.8333 17.9507 11.0557 17.9507 11.3416C17.9507 11.6275 17.7281 11.8501 17.4422 11.8501C17.1563 11.8501 16.9339 11.6275 16.9339 11.3416C16.934 11.0557 17.1563 10.8334 17.4422 10.8333Z" fill="white"/>
<path d="M18.4906 10.8333C18.7448 10.8333 18.9991 11.0557 18.9992 11.3416C18.9992 11.6275 18.7766 11.8501 18.4906 11.8501C18.2047 11.8501 17.9824 11.6275 17.9824 11.3416C17.9825 11.0557 18.2048 10.8334 18.4906 10.8333Z" fill="white"/>
<path d="M19.5075 10.8333C19.7934 10.8333 20.016 11.0557 20.016 11.3416C20.016 11.6275 19.7934 11.8501 19.5075 11.8501C19.2216 11.8501 18.9992 11.6275 18.9992 11.3416C18.9993 11.0557 19.2216 10.8334 19.5075 10.8333Z" fill="white"/>
<path d="M20.5243 10.8333C20.8102 10.8333 21.0325 11.0557 21.0325 11.3416C21.0325 11.6275 20.8102 11.8501 20.5243 11.8501C20.2383 11.8501 20.016 11.6275 20.016 11.3416C20.0161 11.0557 20.2384 10.8333 20.5243 10.8333Z" fill="white"/>
<path d="M21.5411 10.8333C21.827 10.8333 22.0493 11.0557 22.0493 11.3416C22.0493 11.6275 21.827 11.8501 21.5411 11.8501C21.2551 11.8501 21.0325 11.6275 21.0325 11.3416C21.0326 11.0557 21.2552 10.8333 21.5411 10.8333Z" fill="white"/>
<path d="M22.5576 10.8333C22.8435 10.8333 23.0661 11.0557 23.0661 11.3416C23.0661 11.6275 22.8435 11.8501 22.5576 11.8501C22.2717 11.8501 22.0493 11.6275 22.0493 11.3416C22.0494 11.0557 22.2717 10.8334 22.5576 10.8333Z" fill="white"/>
<path d="M23.5744 10.8333C23.8603 10.8333 24.0829 11.0557 24.083 11.3416C24.083 11.6275 23.8604 11.8501 23.5744 11.8501C23.2885 11.8501 23.0661 11.6275 23.0661 11.3416C23.0662 11.0557 23.2885 10.8334 23.5744 10.8333Z" fill="white"/>
<path d="M24.5912 10.8333C24.8771 10.8333 25.0997 11.0557 25.0998 11.3416C25.0998 11.6275 24.8772 11.8501 24.5912 11.8501C24.3053 11.8501 24.083 11.6275 24.083 11.3416C24.083 11.0557 24.3053 10.8334 24.5912 10.8333Z" fill="white"/>
<path d="M25.608 10.8333C25.8939 10.8333 26.1162 11.0557 26.1163 11.3416C26.1163 11.6275 25.894 11.8501 25.608 11.8501C25.3221 11.8501 25.0998 11.6275 25.0998 11.3416C25.0998 11.0557 25.3221 10.8333 25.608 10.8333Z" fill="white"/>
<path d="M26.6248 10.8333C26.9107 10.8333 27.133 11.0557 27.1331 11.3416C27.1331 11.6275 26.9108 11.8501 26.6248 11.8501C26.3389 11.8501 26.1163 11.6275 26.1163 11.3416C26.1163 11.0557 26.3389 10.8333 26.6248 10.8333Z" fill="white"/>
<path d="M27.6413 10.8333C27.9273 10.8333 28.1498 11.0557 28.1499 11.3416C28.1499 11.6275 27.9273 11.8501 27.6413 11.8501C27.3554 11.8501 27.1331 11.6275 27.1331 11.3416C27.1331 11.0557 27.3555 10.8334 27.6413 10.8333Z" fill="white"/>
<path d="M28.6581 10.8333C28.9441 10.8333 29.1666 11.0557 29.1667 11.3416C29.1667 11.6275 28.9441 11.8501 28.6581 11.8501C28.3722 11.8501 28.1499 11.6275 28.1499 11.3416C28.15 11.0557 28.3723 10.8334 28.6581 10.8333Z" fill="white"/>
</g>
</g>
<defs>
<clipPath id="clip0_1716_946">
<rect width="40" height="40" fill="white"/>
</clipPath>
<clipPath id="clip1_1716_946">
<rect width="20" height="20" fill="white" transform="translate(10 10)"/>
</clipPath>
</defs>
</svg>
