<svg width="40" height="40" viewBox="0 0 40 40" fill="none" xmlns="http://www.w3.org/2000/svg">
<g clip-path="url(#clip0_1696_1361)">
<path d="M20 0C31.0457 0 40 8.9543 40 20C40 31.0457 31.0457 40 20 40C8.95431 40 7.90517e-06 31.0457 0 20C6.58765e-07 8.95431 8.95431 1.97595e-06 20 0Z" fill="#FFD6BF"/>
<path d="M26 6C30.4183 6 34 9.58172 34 14V26C34 30.4183 30.4183 34 26 34H14C9.58172 34 6 30.4183 6 26V14C6 9.58172 9.58172 6 14 6H26Z" fill="#964D22"/>
<g clip-path="url(#clip1_1696_1361)">
<path d="M23.1666 22.6626L22.4339 23.4004L21.7215 22.6677L21.3374 21.5277L20.246 21.1512L20.2439 20.4413L19.534 20.4434L19.1596 22.2447L19.5437 23.4101L17.8729 24.1504L17.3634 23.4173L17.7158 22.6804L17.7132 21.8944L16.623 21.8982L15.183 23.4241L14.092 23.0729L14.0865 21.5518L12.1842 21.2534L10.8176 21.9933L10.0051 21.6409L10 20.0948L10.734 19.7369L13.6449 18.2825L14.0768 18.6362L15.164 17.5426L15.1614 16.8323L16.6015 15.3825L17.3321 13.8335L18.4159 12.03L20.2151 11.6692L20.9504 11.6666L20.9525 12.3765L22.4027 13.817L22.4073 15.3635L24.6713 17.5113L26.8564 18.9742L27.9474 19.3258L28.3315 20.4147L29.7791 21.1203L29.046 21.8573L28.3365 21.8598L28.334 21.125L27.2426 20.773L25.4112 18.9793L23.9636 18.2487L22.4099 16.0738L21.6979 15.3656L22.049 14.1985L20.955 13.1117L20.2219 13.8237L20.227 15.3707L19.5196 16.0831L20.9694 17.5232L20.2367 18.2605L21.7118 19.701L21.7143 20.4362L22.4289 21.8788L23.1641 21.8767L23.9729 21.1389L23.5917 20.7852L23.1569 19.6963L23.9682 19.6938L24.6828 21.1368L25.4205 21.8695L23.1666 22.6626Z" fill="white"/>
<path d="M10.027 28.3849L10.0143 24.5312L10.8243 24.1737L10.8383 28.3827L10.027 28.3849Z" fill="white"/>
<path d="M14.1849 28.3713C13.3736 28.3739 13.3736 28.3739 13.3736 28.3739C13.3676 26.7001 13.3676 26.7001 13.3676 26.7001C13.366 26.1935 13.1631 26.0418 12.8589 26.0427C12.5039 26.0439 12.3523 26.1969 12.3539 26.7035C12.3594 28.3768 12.3594 28.3768 12.3594 28.3768C11.5739 28.3794 11.5739 28.3794 11.5739 28.3794C11.5634 25.3121 11.5634 25.3121 11.5634 25.3121C12.3493 25.3095 12.3493 25.3095 12.3493 25.3095C12.3501 25.5377 12.3501 25.5377 12.3501 25.5377C12.5014 25.3852 12.7038 25.2576 13.0841 25.2563C13.794 25.2538 14.176 25.7596 14.1789 26.6216" fill="white"/>
<path d="M17.4454 25.2926C16.3654 28.3645 16.3654 28.3645 16.3654 28.3645C15.5541 28.3671 15.5541 28.3671 15.5541 28.3671C14.4537 25.3027 14.4537 25.3027 14.4537 25.3027C15.3415 25.2998 15.3415 25.2998 15.3415 25.2998C15.7767 26.6925 15.7767 26.6925 15.7767 26.6925C15.8541 26.9714 15.9056 27.2756 15.9817 27.402C15.9813 27.2752 16.0569 26.9705 16.1313 26.6912C16.558 25.2956 16.558 25.2956 16.558 25.2956" fill="white"/>
<path d="M19.6294 26.4521C19.5525 26.1732 19.3995 25.9459 19.0446 25.9467C18.6643 25.948 18.4623 26.1766 18.3871 26.4563M19.1286 28.4055C18.2409 28.4085 17.58 27.7768 17.577 26.8134C17.5737 25.8749 18.2307 25.2389 19.042 25.2364C19.904 25.2339 20.4136 25.9421 20.4166 26.8041C20.417 26.9558 20.417 26.9558 20.4174 27.1083C18.3892 27.1151 18.3892 27.1151 18.3892 27.1151C18.4665 27.4696 18.8219 27.6208 19.1261 27.6196C19.2529 27.6192 19.5571 27.5418 19.7084 27.3897C20.2678 27.8444 20.2678 27.8444 20.2678 27.8444C19.9906 28.2762 19.4079 28.4047 19.1286 28.4055Z" fill="white"/>
<path d="M22.169 27.6859C22.4479 27.6851 22.6 27.6086 22.5995 27.4565C22.5987 27.2541 22.3198 27.1784 22.1677 27.1789C21.5842 27.0289 20.8485 26.9549 20.846 26.1694C20.8443 25.5863 21.4261 25.2288 22.0853 25.2271C22.5167 25.2258 22.9477 25.3513 23.2532 25.5787C22.8239 26.1631 22.8239 26.1631 22.8239 26.1631C22.5953 26.0118 22.316 25.9366 22.0878 25.9374C21.7329 25.9383 21.6568 26.0147 21.6573 26.1669C21.6577 26.2936 22.0887 26.368 22.3177 26.4436C22.9012 26.5936 23.4087 26.7441 23.4108 27.3779C23.4134 28.0371 22.755 28.3937 22.0959 28.3962C21.5888 28.3979 21.1574 28.1968 20.7762 27.9699C21.2309 27.4611 21.2309 27.4611 21.2309 27.4611C21.5094 27.612 21.814 27.6872 22.169 27.6859Z" fill="white"/>
<path d="M25.3579 26.0021C24.9269 26.0033 24.5732 26.3595 24.5745 26.7905C24.5758 27.2469 24.9324 27.6006 25.363 27.5993C25.6672 27.5985 25.8692 27.4455 26.0209 27.2423C26.6817 27.7468 26.6817 27.7468 26.6817 27.7468C26.3788 28.103 25.8726 28.3831 25.3655 28.3848C24.5035 28.3874 23.7662 27.6804 23.7632 26.7931C23.7602 25.9311 24.4934 25.2187 25.3554 25.2157C25.8624 25.214 26.3703 25.4912 26.6758 25.8453C26.0179 26.3545 26.0179 26.3545 26.0179 26.3545C25.8654 26.1529 25.6617 26.0012 25.3579 26.0021Z" fill="white"/>
<path d="M29.2141 26.7757C29.2128 26.3443 28.9073 25.9906 28.4763 25.9919C27.9692 25.9936 27.6921 26.3494 27.6929 26.7808C27.6946 27.2372 27.9743 27.5908 28.4814 27.5896C28.9128 27.5879 29.2158 27.2321 29.2141 26.7757ZM30 26.7728C30.003 27.6601 29.3717 28.3717 28.4839 28.3747C27.6219 28.3776 26.8846 27.6703 26.8816 26.7829C26.8786 25.9209 27.6118 25.2081 28.4738 25.2055C29.3611 25.203 29.9971 25.9108 30 26.7728Z" fill="white"/>
</g>
</g>
<defs>
<clipPath id="clip0_1696_1361">
<rect width="40" height="40" fill="white"/>
</clipPath>
<clipPath id="clip1_1696_1361">
<rect width="20" height="20" fill="white" transform="translate(10 10)"/>
</clipPath>
</defs>
</svg>
