<svg width="40" height="40" viewBox="0 0 40 40" fill="none" xmlns="http://www.w3.org/2000/svg">
<g clip-path="url(#clip0_1716_657)">
<path d="M20 0C31.0457 0 40 8.9543 40 20C40 31.0457 31.0457 40 20 40C8.95431 40 7.90517e-06 31.0457 0 20C6.58765e-07 8.95431 8.95431 1.97595e-06 20 0Z" fill="#FFD6BF"/>
<path d="M26 6C30.4183 6 34 9.58172 34 14V26C34 30.4183 30.4183 34 26 34H14C9.58172 34 6 30.4183 6 26V14C6 9.58172 9.58172 6 14 6H26Z" fill="#964D22"/>
<g clip-path="url(#clip1_1716_657)">
<path d="M17.2622 16.2874C17.3591 16.2874 17.4352 16.3094 17.4352 16.3726C17.4352 16.6541 16.649 16.33 16.0344 17.8393L13.6859 23.5808C13.6317 23.7112 13.589 23.7861 13.4806 23.7861C13.3734 23.7861 13.3295 23.7112 13.2766 23.5808L10.5718 17.0414C10.2916 16.3623 9.81775 16.6425 9.81775 16.4049C9.81775 16.3403 9.86036 16.2874 9.94686 16.2874C10.5175 16.2874 11.0895 16.3081 11.6601 16.3081C12.2102 16.3081 12.7589 16.2874 13.3089 16.2874C13.4703 16.2874 13.5452 16.3081 13.5452 16.3946C13.5451 16.5999 12.888 16.4811 12.888 16.9975C12.888 17.2028 13.061 17.6444 14.3973 21.0167H14.4179C15.3553 18.6359 15.7116 17.9245 15.7116 17.4287C15.7116 16.352 14.7846 16.6864 14.7846 16.4049C14.7846 16.3197 14.8272 16.2874 14.9679 16.2874C15.3449 16.2874 15.7865 16.3094 16.0667 16.3094C16.5624 16.3094 16.8968 16.2874 17.2622 16.2874Z" fill="white"/>
<path fill-rule="evenodd" clip-rule="evenodd" d="M18.9858 18.6346C20.1711 18.6346 20.5907 19.1188 20.5907 19.9916V22.8914C20.5907 23.0205 20.6565 23.0954 20.774 23.0954C21.0658 23.0954 21.1084 22.708 21.2698 22.708C21.324 22.708 21.3666 22.761 21.3666 22.8049C21.3666 22.9121 21.0012 23.6983 19.8483 23.6983C19.1472 23.6983 18.8348 23.4401 18.7057 23.0089C18.1247 23.4724 17.6173 23.6983 17.0789 23.6983C16.1738 23.6983 15.8072 23.1819 15.8072 22.7184C15.8072 21.8779 16.432 21.6196 18.6308 20.8437V19.3357C18.6308 18.9897 18.5223 18.8929 18.3067 18.8929C17.962 18.8929 17.7038 19.0762 17.7038 19.4003C17.7038 19.6481 17.7464 19.9167 17.7464 20.1749C17.7464 20.6604 17.4133 21.0051 16.831 21.0051C16.2384 21.0051 16.0008 20.7469 16.0008 20.3479C16.0008 19.4855 17.585 18.6346 18.9858 18.6346ZM18.6308 21.0696C17.962 21.3395 17.7683 21.6519 17.7683 22.1374C17.7683 22.8475 17.9297 23.0308 18.2099 23.0308C18.3932 23.0308 18.534 22.9017 18.6308 22.8049V21.0696Z" fill="white"/>
<path d="M25.6983 18.6346C26.7763 18.6346 27.0668 19.3034 27.0668 20.2408V22.9766C27.0668 23.2581 27.2437 23.3317 27.409 23.373C27.8647 23.404 28.4457 23.2529 28.8098 23.0721C29.2023 22.8785 29.4386 22.7597 29.6607 22.4911C29.8285 22.2871 29.9124 22.087 29.9641 21.9373C29.9873 21.8714 30.0828 21.8895 30.0828 21.9579L30.0764 23.595C30.0764 23.5963 30.0764 23.6028 30.0725 23.6105C30.0673 23.6221 30.0544 23.6312 30.0389 23.6312L24.8152 23.6338C24.717 23.6338 24.6964 23.5808 24.6964 23.5266C24.6964 23.3007 25.2348 23.5047 25.2348 22.9766V19.949C25.2348 19.4751 24.9869 19.3034 24.7287 19.3034C24.4485 19.3034 24.1464 19.5074 23.9204 19.723V22.9766C23.9204 23.5047 24.4588 23.3007 24.4588 23.5266C24.4588 23.5808 24.4382 23.6338 24.3413 23.6338C24.0173 23.6338 23.5538 23.6131 23.005 23.6131C22.455 23.6131 21.9915 23.6338 21.5822 23.6338C21.4854 23.6338 21.4635 23.5808 21.4635 23.5266C21.4635 23.3007 22.0884 23.5047 22.0884 22.9766V19.8947C22.0884 19.1627 21.3783 19.2918 21.3783 19.0878C21.3783 18.9148 22.0561 19.1085 23.9204 18.6346V19.3783C24.6744 18.796 25.1057 18.6346 25.6983 18.6346Z" fill="white"/>
<path d="M28.9557 18.3441C29.0138 18.3441 29.0525 18.3609 29.0525 18.4513V21.1368C29.0525 21.2272 29.0138 21.2439 28.9557 21.2439C28.8485 21.2439 28.8485 21.1213 28.8292 20.9896C28.7401 20.406 28.2753 19.9851 27.6595 19.8663C27.6414 19.8638 27.6285 19.8508 27.6272 19.8366C27.6181 19.7734 27.6143 19.7424 27.6065 19.6623C27.6052 19.6417 27.6168 19.6223 27.6401 19.6184C28.2805 19.5087 28.7543 19.0891 28.8292 18.5985C28.8485 18.4668 28.8486 18.3441 28.9557 18.3441Z" fill="white"/>
<path d="M30.1306 16.2861C30.1461 16.2861 30.1577 16.2939 30.1642 16.3068C30.1681 16.3132 30.1681 16.3197 30.1681 16.321L30.1823 17.9581C30.1823 18.0278 30.0867 18.0446 30.0635 17.98C30.0105 17.8303 29.9266 17.6302 29.7575 17.4275C29.5354 17.1589 29.2966 17.0427 28.9041 16.8503C28.4832 16.6438 27.7937 16.5637 27.2941 16.5469C27.2385 16.5456 27.1934 16.5895 27.1934 16.645V18.3842C27.1934 18.4707 27.0888 18.5158 27.0268 18.4539C26.7015 18.1234 26.2586 17.9194 25.7706 17.9194C25.5588 17.9194 25.3561 17.9581 25.1689 18.0278C25.1057 18.0511 25.0385 18.0033 25.0385 17.9361V17.1047C25.0385 16.3507 24.1335 16.76 24.1335 16.4152C24.1335 16.3184 24.1761 16.2861 24.2948 16.2861C24.7157 16.2861 25.329 16.3068 26.1166 16.3068C27.4929 16.3068 28.8176 16.2964 30.1306 16.2861Z" fill="white"/>
</g>
</g>
<defs>
<clipPath id="clip0_1716_657">
<rect width="40" height="40" fill="white"/>
</clipPath>
<clipPath id="clip1_1716_657">
<rect width="20" height="20" fill="white" transform="translate(10 10)"/>
</clipPath>
</defs>
</svg>
