<svg width="40" height="40" viewBox="0 0 40 40" fill="none" xmlns="http://www.w3.org/2000/svg">
<g clip-path="url(#clip0_1716_1285)">
<path d="M20 0C31.0457 0 40 8.9543 40 20C40 31.0457 31.0457 40 20 40C8.95431 40 7.90517e-06 31.0457 0 20C6.58765e-07 8.95431 8.95431 1.97595e-06 20 0Z" fill="#E9D4FC"/>
<path d="M26 6C30.4183 6 34 9.58172 34 14V26C34 30.4183 30.4183 34 26 34H14C9.58172 34 6 30.4183 6 26V14C6 9.58172 9.58172 6 14 6H26Z" fill="#450E78"/>
<path d="M22.1105 13.0833C22.8605 13.0833 24.2216 13.1833 26.1881 13.3611L26.3823 13.3888C26.465 13.4033 26.5498 13.4033 26.6324 13.3888C26.731 13.4677 26.8121 13.5663 26.8712 13.6779C26.8823 13.7001 26.8825 13.7221 26.8603 13.7333L26.4936 13.9779C26.488 13.9613 26.4767 13.9556 26.4545 13.9611C26.46 13.9223 26.4436 13.8944 26.3992 13.8944C25.6236 13.816 24.8451 13.7679 24.0658 13.7501C22.2825 13.7112 20.4548 13.7166 18.7327 14.2443C18.4161 14.3443 18.1327 14.4722 17.8772 14.6333C17.5272 14.9278 17.2272 15.1945 17.2494 15.6945C17.2717 16.1166 17.5659 16.2999 17.8603 16.4888C17.9807 16.5788 18.1225 16.6367 18.2716 16.6559C18.4533 16.7444 18.6458 16.8096 18.8439 16.8501C20.1605 17.0667 21.0381 17.2169 22.1213 17.7724L22.8603 18.2335C23.3891 18.6297 23.7985 19.1639 24.0435 19.7776L24.1325 20.128C24.2491 20.5446 24.277 20.9669 24.2215 21.4057C24.0992 22.7889 23.0325 23.789 21.9548 24.4612C21.3291 24.8707 20.658 25.2062 19.955 25.4611C19.0462 25.7168 18.2262 26.2209 17.588 26.9167C16.0992 26.2445 14.7383 25.2722 13.8494 23.8557C14.6161 23.1391 15.5274 22.7944 16.5273 22.6166C17.2995 22.4666 18.0662 22.3387 18.8439 22.2276C19.7216 22.0998 20.5827 21.9163 21.3271 21.3997L21.5495 21.1832C21.9549 20.761 22.0106 20.1553 21.6662 19.6832C21.444 19.3832 21.0993 19.1279 20.6326 18.9057C20.0049 18.6224 19.3826 18.4167 18.7604 18.2167L18.0936 17.9943C17.5103 17.7943 16.7215 17.3888 16.3993 16.8333C16.2549 16.6444 16.1824 16.3944 16.1769 16.0889C16.1695 15.6483 16.3022 15.2167 16.555 14.8558C17.0609 14.2217 17.7493 13.7579 18.5271 13.5277C19.0271 13.3666 19.4661 13.2609 19.8438 13.2054C20.5953 13.1093 21.353 13.0686 22.1105 13.0833Z" fill="white"/>
<path fill-rule="evenodd" clip-rule="evenodd" d="M25.9603 10.8335C26.2934 10.9057 26.5599 11.0835 26.7654 11.35L27.9546 12.8777C28.4046 13.461 28.3989 14.167 27.8656 14.6892C27.8211 14.7336 27.7154 14.8001 27.5547 14.8943C27.2215 15.0776 27.071 15.3947 27.1099 15.828C27.1154 15.9502 27.1379 16.2498 27.2211 16.422C27.2766 16.5442 27.2932 16.6892 27.3432 16.7947C28.3526 18.6704 28.6013 20.8625 28.0376 22.9166C26.9931 26.4609 23.4212 28.2943 20.2046 29.1665H19.827C16.4382 28.2554 12.7711 26.3107 11.8822 22.5108C11.849 22.3887 11.827 22.2332 11.7992 22.0502L11.7379 21.5891C11.6484 21.0823 11.6431 20.5639 11.7216 20.0553L11.7938 19.611C11.9216 18.6389 12.2216 17.7331 12.6494 16.8609C12.7604 16.6167 12.8271 16.4498 12.8382 16.3499C12.8715 16.1055 12.9491 15.8444 12.9157 15.6055C12.8768 15.2556 12.7493 15.0498 12.4438 14.8943C12.1106 14.7276 11.8937 14.4612 11.7992 14.1114C11.7215 13.8393 11.7272 13.578 11.816 13.3226C11.8716 13.1726 11.9993 12.9611 12.2159 12.6889L13.3601 11.2225C13.51 11.0281 13.7492 10.9001 14.0713 10.8335H25.9603ZM14.2243 11.9901C14.213 11.9949 14.2024 12.0023 14.1939 12.0113L12.8935 13.6779C12.8437 13.7444 12.8552 13.7948 12.9271 13.8336C14.1602 14.4725 14.2438 15.7945 13.8272 16.9722C13.7827 17.0999 13.6936 17.3113 13.5603 17.589C13.2607 18.2611 13.048 18.9687 12.9271 19.6945C12.7938 20.3278 12.8217 21.0446 12.8772 21.6835C12.8884 21.8277 12.9434 21.9721 12.9657 22.1164C13.5434 25.6163 17.1605 27.1943 19.9827 28.0777C19.9827 28.0501 19.9992 28.0334 20.0212 28.0223L20.3212 27.9334L20.4156 27.9057C21.8062 27.5271 23.1217 26.9123 24.3045 26.0888C25.0929 25.5499 25.7657 24.8584 26.2825 24.0554C26.7287 23.3582 27.0221 22.5744 27.1435 21.7556C27.3107 20.338 27.0759 18.9018 26.4659 17.6112C26.3326 17.3391 26.2491 17.1221 26.1935 16.9722C25.8103 15.8223 25.8715 14.5612 26.9379 13.9335C27.0081 13.8938 27.0768 13.8508 27.1435 13.8054C27.1563 13.794 27.1643 13.778 27.1657 13.7609C27.168 13.7515 27.1682 13.7417 27.1663 13.7322C27.1644 13.7226 27.1602 13.7135 27.1544 13.7056L25.8382 12.0221C25.8284 12.0095 25.8152 11.9996 25.8008 11.9928C25.7864 11.9862 25.7705 11.983 25.7546 11.9836H14.2601C14.2479 11.9834 14.2356 11.9855 14.2243 11.9901Z" fill="white"/>
</g>
<defs>
<clipPath id="clip0_1716_1285">
<rect width="40" height="40" fill="white"/>
</clipPath>
</defs>
</svg>
