<svg width="40" height="40" viewBox="0 0 40 40" fill="none" xmlns="http://www.w3.org/2000/svg">
<g clip-path="url(#clip0_1693_495)">
<path d="M20 0C31.0457 0 40 8.9543 40 20C40 31.0457 31.0457 40 20 40C8.95431 40 7.90517e-06 31.0457 0 20C6.58765e-07 8.95431 8.95431 1.97595e-06 20 0Z" fill="#E9D4FC"/>
<path d="M26 6C30.4183 6 34 9.58172 34 14V26C34 30.4183 30.4183 34 26 34H14C9.58172 34 6 30.4183 6 26V14C6 9.58172 9.58172 6 14 6H26Z" fill="#450E78"/>
<g clip-path="url(#clip1_1693_495)">
<path d="M21.5763 16.0686C22.0206 16.1321 22.4485 16.2743 22.8446 16.4965C25.2213 17.874 25.253 21.9303 22.9233 25.5423C20.5784 29.1556 16.7442 30.961 14.3675 29.5834C11.9908 28.2047 11.9591 24.1648 14.2888 20.5363C14.5414 20.1402 14.8271 19.7593 15.1128 19.3949C13.8292 21.7564 13.9714 24.2283 15.5089 25.1145C17.172 26.0819 19.8496 24.8136 21.4976 22.2947C23.0972 19.8393 23.1137 17.0983 21.5763 16.0686Z" fill="white"/>
<path d="M11.6899 13.9611C12.0543 11.2035 16.2529 9.46163 21.0697 10.0787C25.8865 10.6969 29.4351 13.438 29.1507 16.2108C29.0072 17.4626 28.0563 18.5392 27.7236 18.7462C28.3267 17.0665 26.2979 13.7706 23.0185 13.3593C19.6439 12.9149 16.7125 14.135 16.4585 16.0686C16.2376 17.8422 18.3756 19.6171 21.3554 20.2189C20.8323 20.2037 20.3092 20.1554 19.7709 20.0919C14.9541 19.4749 11.3408 16.7339 11.6899 13.9611Z" fill="white"/>
</g>
</g>
<defs>
<clipPath id="clip0_1693_495">
<rect width="40" height="40" fill="white"/>
</clipPath>
<clipPath id="clip1_1693_495">
<rect width="20" height="20" fill="white" transform="translate(10 10)"/>
</clipPath>
</defs>
</svg>
