<svg width="40" height="40" viewBox="0 0 40 40" fill="none" xmlns="http://www.w3.org/2000/svg">
<g clip-path="url(#clip0_1693_502)">
<path d="M20 0C31.0457 0 40 8.9543 40 20C40 31.0457 31.0457 40 20 40C8.95431 40 7.90517e-06 31.0457 0 20C6.58765e-07 8.95431 8.95431 1.97595e-06 20 0Z" fill="#E9D4FC"/>
<path d="M26 6C30.4183 6 34 9.58172 34 14V26C34 30.4183 30.4183 34 26 34H14C9.58172 34 6 30.4183 6 26V14C6 9.58172 9.58172 6 14 6H26Z" fill="#450E78"/>
<g clip-path="url(#clip1_1693_502)">
<path d="M29.5149 10.0762C29.6177 10.1575 29.7066 10.2527 29.7802 10.3593C29.8525 10.4672 29.9096 10.5852 29.9465 10.7096C29.9845 10.834 30.0023 10.9635 29.9998 11.0929C29.9921 11.7974 29.4235 12.3609 28.7305 12.3533C28.0375 12.3444 27.4828 11.7682 27.4904 11.0637V11.0586C24.8973 11.7479 22.1215 16.3806 21.0083 18.4115L22.883 22.1596C23.736 23.9378 24.1041 24.099 25.3898 24.0825L25.386 24.3478H21.8994L19.9307 20.2823C19.536 20.9995 16.0024 27.2912 12.7797 28.912C12.2111 29.1989 11.5701 29.3004 11.0409 29.1672C10.9774 29.1545 10.9177 29.1342 10.8593 29.1126C10.8555 29.1113 10.8517 29.11 10.8492 29.1088C10.7235 29.0618 10.6068 28.9958 10.5014 28.9133C10.3961 28.8295 10.3034 28.7318 10.2285 28.6201C10.1524 28.5097 10.094 28.3878 10.0559 28.2596C10.0178 28.1314 9.99879 27.9982 10.0001 27.8636C10.0089 27.1376 10.5953 26.555 11.3112 26.5639C12.0271 26.5715 12.5995 27.1681 12.5906 27.8941V27.8992C15.5924 27.1033 18.8569 21.2089 19.6502 19.7061L18.0433 16.387C17.1003 14.5301 16.6269 14.5707 15.4769 14.5491L15.4591 14.2851L18.8366 14.0668L20.7253 17.8441C21.5605 16.3908 24.528 11.4902 27.3394 10.0775C27.8903 9.79954 28.4868 9.70308 28.9958 9.83001C29.044 9.84016 29.0897 9.85793 29.1354 9.87316C29.1494 9.87697 29.1646 9.88078 29.1786 9.88585L29.1773 9.88712C29.2991 9.93282 29.4134 9.99628 29.5149 10.0762Z" fill="white"/>
</g>
</g>
<defs>
<clipPath id="clip0_1693_502">
<rect width="40" height="40" fill="white"/>
</clipPath>
<clipPath id="clip1_1693_502">
<rect width="20" height="20" fill="white" transform="translate(10 10)"/>
</clipPath>
</defs>
</svg>
