<svg width="40" height="40" viewBox="0 0 40 40" fill="none" xmlns="http://www.w3.org/2000/svg">
<g clip-path="url(#clip0_1696_1193)">
<path d="M20 0C31.0457 0 40 8.9543 40 20C40 31.0457 31.0457 40 20 40C8.95431 40 7.90517e-06 31.0457 0 20C6.58765e-07 8.95431 8.95431 1.97595e-06 20 0Z" fill="#FFD6BF"/>
<path d="M26 6C30.4183 6 34 9.58172 34 14V26C34 30.4183 30.4183 34 26 34H14C9.58172 34 6 30.4183 6 26V14C6 9.58172 9.58172 6 14 6H26Z" fill="#964D22"/>
<path d="M10.7681 21.2247C10.7681 22.1596 11.3914 22.551 12.3408 22.551C13.2902 22.551 13.9135 22.1596 13.9135 21.2247V17.9128H14.6817V21.1305C14.6817 22.5147 13.9135 23.2177 12.3408 23.2177C10.7682 23.2177 10 22.5147 10 21.1305V17.9128H10.7681V21.2247Z" fill="white"/>
<path d="M17.3919 17.7823C18.4282 17.7823 19.5225 18.1592 19.595 19.4057H18.8269C18.7616 18.9999 18.5297 18.449 17.2905 18.449C16.7252 18.449 16.0874 18.6882 16.0874 19.297C16.0874 19.6158 16.2976 19.8695 16.9353 19.9782L18.2036 20.1957C18.6094 20.2681 19.7617 20.4638 19.7617 21.5219C19.7617 22.8409 18.5805 23.2177 17.5369 23.2177C16.3701 23.2177 15.1598 22.8119 15.1598 21.3841H15.9279C15.9424 22.3118 16.8121 22.551 17.5948 22.551C18.4137 22.551 18.9936 22.2393 18.9936 21.674C18.9936 21.203 18.6239 21.0073 18.0296 20.9059L16.8556 20.7102C16.2396 20.6087 15.3192 20.3623 15.3192 19.355C15.3192 18.4128 16.0657 17.7823 17.3919 17.7823Z" fill="white"/>
<path d="M22.695 17.7823C23.7314 17.7823 25.1591 18.2244 25.2896 19.7753H24.5213C24.4054 19.0578 23.8402 18.449 22.753 18.449C21.5283 18.449 20.7529 19.152 20.7529 20.5652C20.7529 21.5436 21.2819 22.551 22.7096 22.551C23.6155 22.551 24.3039 22.1162 24.5213 21.1089H25.2896C25.1663 22.2539 24.1808 23.2177 22.7024 23.2177C21.3979 23.2177 19.9846 22.5003 19.9846 20.4855C19.9846 18.9781 20.9267 17.7823 22.695 17.7823Z" fill="white"/>
<path d="M30 18.5795H26.7605V20.1086H29.8478V20.7754H26.7605V23.0872H25.9923V17.9128H30V18.5795Z" fill="white"/>
</g>
<defs>
<clipPath id="clip0_1696_1193">
<rect width="40" height="40" fill="white"/>
</clipPath>
</defs>
</svg>
