<svg width="40" height="40" viewBox="0 0 40 40" fill="none" xmlns="http://www.w3.org/2000/svg">
<g clip-path="url(#clip0_1694_755)">
<path d="M20 0C31.0457 0 40 8.9543 40 20C40 31.0457 31.0457 40 20 40C8.95431 40 7.90517e-06 31.0457 0 20C6.58765e-07 8.95431 8.95431 1.97595e-06 20 0Z" fill="#D5E5CF"/>
<path d="M26 6C30.4183 6 34 9.58172 34 14V26C34 30.4183 30.4183 34 26 34H14C9.58172 34 6 30.4183 6 26V14C6 9.58172 9.58172 6 14 6H26Z" fill="#004830"/>
<path d="M10.5713 22.0273C10.7008 22.0214 10.8303 22.0273 10.9538 22.0332C11.0833 22.045 11.2246 22.0097 11.3188 22.0509C11.2835 22.098 11.1716 22.0627 11.1422 22.1097C11.1422 22.2628 11.1716 22.4158 11.2305 22.5629C11.3482 22.9926 11.4718 23.4046 11.5954 23.8342C11.7248 23.5459 11.8367 23.2339 11.9544 22.9337C12.0721 22.6336 12.1781 22.3275 12.3193 22.045C12.39 22.0862 12.4017 22.1803 12.4311 22.251C12.6195 22.7689 12.8196 23.3104 13.0138 23.8283C13.161 23.4163 13.2846 22.9985 13.4199 22.5688C13.4788 22.4276 13.5141 22.2804 13.5141 22.1274C13.4847 22.0685 13.3729 22.092 13.3199 22.0626C13.3494 22.0097 13.42 22.0391 13.4729 22.0391C13.6318 22.045 13.832 22.0273 13.9732 22.045C13.9497 22.0979 13.8908 22.0685 13.8437 22.0862C13.6848 22.145 13.6083 22.4923 13.5436 22.6806C13.3905 23.1338 13.2434 23.5694 13.0786 24.0285C13.0491 24.105 13.0079 24.2639 12.9609 24.2698C12.8902 24.2756 12.7843 23.905 12.7666 23.846C12.6018 23.3869 12.437 22.9455 12.2722 22.4982C12.0603 23.0102 11.8661 23.5282 11.6542 24.0697C11.6307 24.1344 11.5836 24.2639 11.5365 24.2639C11.4835 24.2638 11.4423 24.105 11.4188 24.0226C11.2481 23.4811 11.0833 22.9749 10.9185 22.4275C10.8596 22.2274 10.8479 22.1038 10.6301 22.0626C10.6125 22.0567 10.5536 22.0803 10.5595 22.0332C10.5654 22.0332 10.5654 22.0273 10.5713 22.0273Z" fill="white"/>
<path fill-rule="evenodd" clip-rule="evenodd" d="M19.3999 22.4746C19.959 22.4628 20.4004 22.7866 20.3592 23.4046C20.3298 23.899 19.9119 24.2815 19.4116 24.2639C18.8996 24.2639 18.4699 23.9284 18.4816 23.3457C18.4875 23.1103 18.5876 22.8925 18.7524 22.7277C18.9231 22.5629 19.1585 22.4687 19.3999 22.4746ZM20.1356 23.381C20.1356 22.9043 19.8413 22.51 19.341 22.5512C18.9172 22.5924 18.7053 22.8749 18.7112 23.3045C18.7112 23.7754 18.9996 24.1874 19.4822 24.1756C19.8942 24.1697 20.1414 23.8284 20.1356 23.381Z" fill="white"/>
<path d="M15.0268 22.8749C15.0385 22.4982 15.4623 22.4099 15.8508 22.51C15.8508 22.61 15.8449 22.716 15.8272 22.816C15.7919 22.7807 15.7978 22.7218 15.7742 22.6806C15.6624 22.4629 15.1268 22.5041 15.1856 22.8749C15.2092 23.0279 15.4035 23.1456 15.5271 23.2398C15.6977 23.3634 15.8919 23.5047 15.8919 23.7754C15.8919 24.205 15.3976 24.3698 14.9856 24.1815C14.962 24.0697 14.9679 23.9461 15.0091 23.8342C15.0267 23.899 15.0267 23.9637 15.0503 24.0108C15.1974 24.311 15.8802 24.1815 15.6977 23.7342C15.5741 23.4399 15.015 23.3222 15.0268 22.8749Z" fill="white"/>
<path fill-rule="evenodd" clip-rule="evenodd" d="M16.2922 22.504C16.922 22.4982 17.5635 22.4452 17.8696 22.763C18.0344 22.9396 18.1168 23.1809 18.0873 23.4222C18.052 23.9402 17.6635 24.2404 17.1221 24.2462C16.8749 24.2521 16.5688 24.2168 16.3157 24.2109C16.3275 24.1874 16.4216 24.1932 16.4511 24.158C16.4982 24.105 16.4864 23.9049 16.4864 23.7813V22.9514C16.4864 22.8278 16.5041 22.6277 16.457 22.5747C16.4217 22.5335 16.3275 22.5394 16.2804 22.5217V22.51C16.2863 22.51 16.2863 22.504 16.2922 22.504ZM17.8813 23.4046C17.8755 22.8572 17.4222 22.5041 16.7689 22.5806C16.7454 22.5865 16.7219 22.5923 16.7042 22.6041C16.6865 22.8513 16.6807 23.0985 16.6924 23.3457C16.6924 23.6047 16.6748 23.8696 16.7218 24.0815C16.8572 24.1815 17.0397 24.1874 17.2221 24.1697C17.64 24.1285 17.8813 23.8284 17.8813 23.4046Z" fill="white"/>
<path d="M29.1936 22.4805C29.2054 22.5865 29.1937 22.6865 29.1466 22.7807C29.1172 22.7336 29.1348 22.6806 29.1054 22.6453C29.023 22.5453 28.7758 22.61 28.6169 22.5865C28.5992 22.7984 28.6169 23.0397 28.611 23.2633C28.7522 23.2516 28.9288 23.2869 29.0465 23.2575C29.0995 23.2457 29.1171 23.1986 29.1642 23.2045C29.1348 23.2986 29.1525 23.4399 29.1231 23.534C29.0819 23.4987 29.1054 23.4399 29.0819 23.4046C29.0053 23.3046 28.764 23.381 28.6228 23.3457C28.6169 23.434 28.6169 23.5458 28.611 23.6518C28.6051 23.7989 28.5816 24.0343 28.6522 24.105C28.717 24.1756 29.1171 24.1697 29.1878 24.0697C29.2172 24.0226 29.2113 23.9637 29.2408 23.9225C29.2761 23.952 29.2525 24.0285 29.2466 24.0815C29.2466 24.1344 29.229 24.1815 29.2054 24.2286C28.8876 24.2521 28.5521 24.2168 28.2461 24.2227C28.2343 24.1815 28.3343 24.205 28.3696 24.1697C28.405 24.1344 28.405 23.999 28.4109 23.9166C28.4226 23.6282 28.4109 23.2221 28.4109 22.8749C28.4109 22.7572 28.4168 22.61 28.3756 22.5688C28.3403 22.5276 28.2284 22.5453 28.2108 22.5158C28.4344 22.4864 28.7699 22.5217 29.0348 22.51C29.0877 22.51 29.1407 22.4982 29.1936 22.4805Z" fill="white"/>
<path d="M27.7399 22.4805C27.7458 22.4805 27.7458 22.4864 27.7516 22.4864C27.734 22.5806 27.7399 22.7042 27.7105 22.7866C27.6693 22.7454 27.6869 22.6924 27.6575 22.6571C27.5751 22.5512 27.3338 22.6159 27.169 22.5923C27.1513 22.8042 27.169 23.0455 27.1631 23.2692C27.3573 23.2574 27.6045 23.3045 27.7105 23.2045C27.7046 23.3163 27.6928 23.4281 27.6751 23.54C27.6339 23.5046 27.6575 23.4458 27.6339 23.4105C27.5574 23.3104 27.3161 23.3869 27.1749 23.3516C27.169 23.4634 27.1631 23.5811 27.169 23.693C27.1631 23.8224 27.1337 24.0402 27.2043 24.105C27.2749 24.1756 27.6104 24.1638 27.6987 24.105C27.7576 24.0638 27.7634 23.9932 27.7929 23.9225C27.8341 23.952 27.8105 24.0285 27.7988 24.0815C27.7988 24.1344 27.7811 24.1815 27.7576 24.2286C27.4397 24.2463 27.1043 24.2168 26.7982 24.2227C26.7864 24.1815 26.8865 24.2109 26.9218 24.1697C26.9512 24.0932 26.9689 24.0108 26.963 23.9284C26.9807 23.5929 26.9865 23.0397 26.963 22.7042C26.9512 22.5629 26.8924 22.5335 26.757 22.5217C26.8041 22.4805 26.9571 22.5041 27.0395 22.51C27.2278 22.5158 27.634 22.5217 27.7399 22.4805Z" fill="white"/>
<path d="M14.0262 22.5158C14.2087 22.5158 14.4029 22.4864 14.5618 22.5158C14.55 22.5453 14.4617 22.5335 14.4323 22.557C14.3793 22.6041 14.3911 22.8337 14.3911 22.9514C14.3793 23.2457 14.397 23.5164 14.397 23.8048C14.397 23.9461 14.3911 24.1344 14.4558 24.1756C14.4971 24.1991 14.5912 24.1815 14.6206 24.205C14.5853 24.2462 14.5147 24.2286 14.4617 24.2286C14.3205 24.2286 14.1557 24.2286 14.0203 24.2227C14.0203 24.1874 14.1203 24.1992 14.1498 24.1697C14.2027 24.1168 14.191 23.9049 14.191 23.7872V22.9455C14.191 22.8101 14.2027 22.6159 14.1498 22.5688C14.1086 22.5335 14.0262 22.557 14.0203 22.5276C14.0203 22.5217 14.0203 22.5158 14.0262 22.5158Z" fill="white"/>
<path fill-rule="evenodd" clip-rule="evenodd" d="M24.9736 22.51C25.468 22.5217 26.0919 22.4158 26.1449 22.8749C26.1802 23.1397 25.9977 23.2928 25.8624 23.4399C25.9565 23.5694 26.0684 23.6989 26.1802 23.8342C26.3273 24.0049 26.4568 24.1874 26.757 24.205C26.7276 24.2462 26.6569 24.2286 26.6039 24.2286C26.4038 24.2286 26.2744 24.2168 26.1684 24.1109C25.9919 23.9402 25.8329 23.6577 25.6799 23.4988C25.5681 23.4988 25.4739 23.487 25.3621 23.4929C25.3503 23.6106 25.3503 23.7283 25.3562 23.8519C25.3621 23.9637 25.3503 24.1167 25.3974 24.1638C25.4444 24.2109 25.5151 24.1815 25.5857 24.205C25.5504 24.2462 25.4857 24.2286 25.4327 24.2286C25.2973 24.2286 25.1325 24.2286 24.9971 24.2227C24.9854 24.1874 25.0854 24.1991 25.1149 24.1815C25.1855 24.0049 25.1679 23.7106 25.1679 23.3987V22.969C25.1679 22.8396 25.1914 22.6512 25.1384 22.5865C25.0972 22.5335 24.9854 22.557 24.9619 22.5158C24.9677 22.5158 24.9678 22.51 24.9736 22.51ZM25.9448 22.9455C25.9153 22.6689 25.6681 22.5041 25.3621 22.5982C25.3444 22.8454 25.3621 23.1221 25.3562 23.3752C25.4916 23.4399 25.6446 23.4458 25.7859 23.3987C25.9212 23.328 25.9624 23.1044 25.9448 22.9455Z" fill="white"/>
<path d="M22.5016 22.4688C22.5605 22.51 22.5487 22.5923 22.5546 22.663C22.5958 23.022 22.6311 23.381 22.6782 23.7695C22.69 23.8872 22.6958 24.0873 22.7782 24.152C22.8371 24.1991 22.9313 24.1874 23.0019 24.205C22.9372 24.2462 22.8194 24.2227 22.7253 24.2168C22.6429 24.2227 22.5604 24.2168 22.4839 24.1933C22.4839 24.1638 22.5192 24.1697 22.5134 24.1344C22.4722 23.7224 22.431 23.3222 22.3956 22.9102C22.1543 23.3281 21.9719 23.8048 21.7247 24.2168C21.5893 24.0167 21.4775 23.8048 21.3774 23.587C21.2656 23.3693 21.1538 23.1515 21.0479 22.9337C21.0184 23.1927 20.989 23.54 20.9596 23.8519C20.9537 23.9461 20.9184 24.0932 20.9596 24.152C20.989 24.1991 21.0773 24.1874 21.1185 24.205C21.0596 24.2462 20.9478 24.2168 20.8595 24.2168C20.7712 24.2168 20.6711 24.2521 20.6123 24.205C20.6417 24.1874 20.7065 24.1991 20.7418 24.1756C20.8124 24.1285 20.8183 23.8931 20.8301 23.7754C20.8477 23.6165 20.8713 23.4693 20.8831 23.3457C20.9184 23.0103 20.9478 22.7218 20.9831 22.4805C20.9831 22.4746 20.9949 22.4805 20.9949 22.4688C21.0007 22.4688 21.0008 22.4687 21.0008 22.4746H21.0125C21.2656 22.9572 21.5128 23.4458 21.7659 23.9402C22.0249 23.4576 22.2427 22.9455 22.5016 22.4688Z" fill="white"/>
<path d="M22.9725 21.992C23.1961 22.0627 23.4904 22.045 23.7847 22.045C24.1261 22.0567 24.4616 22.045 24.7971 22.0155C24.8029 22.1391 24.7912 22.2686 24.7735 22.3981C24.7264 22.404 24.7441 22.304 24.7323 22.2745C24.6499 22.0921 24.232 22.1862 23.9907 22.1568C23.9966 22.6041 23.9612 23.175 23.9848 23.693C23.9907 23.8283 23.9789 24.0814 24.0436 24.1462C24.1143 24.2109 24.2379 24.1521 24.285 24.2109C24.026 24.2344 23.7729 24.2344 23.5139 24.2109C23.5316 24.1697 23.6199 24.1991 23.6611 24.1697C23.7376 24.1168 23.7317 23.8519 23.7317 23.7165V22.1686C23.5022 22.1804 23.1961 22.1097 23.0313 22.2039C22.949 22.251 22.9548 22.3275 22.8842 22.3805C22.8783 22.2451 22.9078 22.1156 22.9725 21.992Z" fill="white"/>
<path fill-rule="evenodd" clip-rule="evenodd" d="M29.7057 22.457C29.7881 22.457 29.8293 22.4982 29.8293 22.5629C29.8352 22.61 29.7999 22.6571 29.7469 22.6571H29.7411L29.8352 22.8042H29.7646L29.6763 22.6571H29.6292V22.8042H29.5645V22.457H29.7057ZM29.6351 22.61H29.6822C29.7234 22.61 29.7646 22.61 29.7646 22.5629C29.7646 22.5158 29.7234 22.5158 29.6822 22.5158H29.6351V22.61Z" fill="white"/>
<path fill-rule="evenodd" clip-rule="evenodd" d="M29.6881 22.3275C29.8588 22.3275 30 22.4688 30 22.6395C30 22.8101 29.8587 22.9514 29.6881 22.9514C29.5174 22.9514 29.3762 22.8101 29.3761 22.6395C29.382 22.4629 29.5174 22.3275 29.6881 22.3275ZM29.6881 22.3863C29.5468 22.3863 29.435 22.4982 29.435 22.6395C29.435 22.7748 29.5468 22.8925 29.6881 22.8925C29.8293 22.8925 29.9411 22.7807 29.9411 22.6395C29.9411 22.4982 29.8293 22.3863 29.6881 22.3863Z" fill="white"/>
<path fill-rule="evenodd" clip-rule="evenodd" d="M17.1162 16.7302C17.1633 16.7478 17.2104 16.7714 17.2516 16.8008C17.3399 16.7949 17.487 16.742 17.5576 16.8008C17.5105 16.8832 17.3987 16.9068 17.3045 16.948C17.3045 16.9891 17.334 17.0068 17.3399 17.0421H17.5635C17.6165 17.0009 17.64 16.9303 17.693 16.8891C17.7636 16.895 17.8166 16.9126 17.8813 16.9185V17.0539C17.9755 17.0833 18.0638 17.1539 17.9931 17.2658C18.0755 17.3482 18.1697 17.2717 18.2404 17.2305C18.311 17.1775 18.3934 17.1422 18.4816 17.1363C18.5111 17.1657 18.4817 17.2128 18.4876 17.2658C18.5641 17.2834 18.6641 17.2187 18.6053 17.1363C18.7406 17.101 18.8348 16.9891 19.0055 17.0127C19.0349 17.0715 19.0114 17.1422 18.9525 17.1716C18.9468 17.1716 18.9412 17.1771 18.9408 17.1775C18.9525 17.201 18.9643 17.2246 18.9702 17.2481C19.0703 17.2893 19.1409 17.2069 19.2115 17.1952C19.3174 17.1834 19.4175 17.254 19.5176 17.2775C19.5058 17.3423 19.441 17.3482 19.3881 17.3717C19.3998 17.3953 19.4351 17.3953 19.4469 17.4129C19.5529 17.3423 19.6941 17.3305 19.8119 17.3835C19.7471 17.4541 19.647 17.4894 19.5529 17.4718C19.5293 17.5188 19.4646 17.5542 19.4881 17.6248C19.5411 17.6307 19.6059 17.5542 19.6941 17.5365C19.8295 17.5071 20.0061 17.5071 20.0591 17.5954C20.0532 17.6248 20.0296 17.6366 20.0237 17.6601C19.9825 17.6425 19.9413 17.6307 19.9001 17.6072C19.8413 17.6307 19.7883 17.6542 19.7353 17.6778C19.6824 17.7484 19.6353 17.8249 19.5882 17.9015C19.6353 17.9485 19.7883 17.9956 19.8413 17.925C19.8236 17.8249 19.8884 17.7308 19.9884 17.7131C20.0237 17.7013 20.0414 17.7661 20.0767 17.7778C20.0708 17.819 20.0119 17.8132 19.9943 17.8485C20.1179 17.8955 20.1355 17.7661 20.2179 17.7308C20.2474 17.7543 20.2886 17.7661 20.3121 17.7896C20.3121 17.8955 20.1944 17.8779 20.1885 17.978C20.3298 18.0721 20.5063 17.9427 20.5358 17.8132C20.6594 17.8132 20.6888 17.925 20.6594 18.0368C20.6299 18.0427 20.6005 18.0545 20.5711 18.0662C20.5887 18.1957 20.677 18.2663 20.8301 18.231V18.1428C20.936 18.1016 21.0773 18.0309 21.2009 18.1075C21.1714 18.184 21.0773 18.2546 21.0243 18.3252C21.1361 18.3546 21.248 18.39 21.3598 18.437V18.5077C21.2892 18.5194 21.1656 18.5312 21.1538 18.4547C21.1126 18.4547 21.0714 18.4547 21.0302 18.4606C20.989 18.5195 21.0243 18.5489 21.0361 18.6136C20.9654 18.6371 20.9066 18.6725 20.8419 18.7019C20.8419 18.7313 20.8595 18.7608 20.8477 18.7725C20.7948 18.7961 20.7359 18.8078 20.73 18.8843C20.8183 18.902 20.9125 18.8785 20.9772 18.8196C21.042 18.7784 21.1008 18.7431 21.1067 18.6607C21.1714 18.6725 21.2538 18.6666 21.3186 18.6842C21.3833 18.6489 21.4481 18.6136 21.5069 18.5724C21.5364 18.5901 21.5716 18.6077 21.6011 18.6254C21.5658 18.6607 21.5069 18.6725 21.4775 18.7137C21.5481 18.8255 21.8483 18.6372 21.8483 18.8432C21.7835 18.8549 21.7188 18.8667 21.6541 18.8726C21.6776 18.955 21.7777 18.9608 21.8424 19.002C22.0072 18.9432 22.1956 18.9844 22.3133 19.1139C22.2721 19.1374 22.225 19.1551 22.1779 19.1669C22.2544 19.1845 22.3486 19.1904 22.4251 19.2022C22.4486 19.2552 22.484 19.2905 22.5075 19.3493C22.4604 19.3846 22.3957 19.3964 22.4133 19.4965C22.378 19.4788 22.3486 19.4671 22.3133 19.4612C22.2897 19.4906 22.2779 19.5377 22.2426 19.5553C22.119 19.5671 22.0955 19.4847 22.0366 19.4258C22.0543 19.3905 22.0837 19.3611 22.1014 19.3317C22.0543 19.314 22.0072 19.3022 21.9542 19.2963C21.9248 19.3258 21.9189 19.3787 21.8954 19.414C21.9189 19.4611 21.9189 19.5082 21.9366 19.5435C21.9837 19.6259 22.1014 19.6554 22.0719 19.779C22.019 19.7907 21.966 19.8025 21.9131 19.8084C21.8954 19.7849 21.866 19.7672 21.8777 19.7142C21.8424 19.7084 21.8247 19.6848 21.7776 19.6907C21.7364 19.7613 21.7423 19.8261 21.6541 19.8143C21.5599 19.8025 21.5481 19.6672 21.5069 19.5965C21.4657 19.6201 21.4304 19.6554 21.3951 19.6907C21.401 19.7201 21.4128 19.7495 21.4304 19.779C21.2951 19.7966 21.1538 19.7496 21.0596 19.8143C21.0302 19.8437 21.0184 19.8967 20.989 19.9261C20.9066 19.932 20.8242 19.9085 20.7536 19.8614C20.7771 19.8379 20.8065 19.8202 20.8359 19.8084C20.8359 19.7613 20.8418 19.7142 20.8477 19.673C20.8242 19.6201 20.7712 19.6024 20.7476 19.5553C20.677 19.6554 20.4711 19.8025 20.4416 19.5612C20.3769 19.5376 20.3239 19.6083 20.2591 19.62C20.1355 19.6377 20.0237 19.573 19.9178 19.62C19.8295 19.6612 19.8177 19.7496 19.7294 19.7849C19.7176 19.8673 19.647 19.932 19.5646 19.9379C19.5117 19.9438 19.4587 19.9026 19.3999 19.9261C19.3233 19.9497 19.2644 20.0321 19.1879 20.085C19.1055 20.1615 18.9996 20.2145 18.8878 20.238C18.776 20.2498 18.67 20.2204 18.5288 20.238C18.4228 20.2498 18.3639 20.344 18.258 20.4029C18.0697 20.5088 17.8166 20.5088 17.6518 20.5795C17.5929 20.6972 17.5694 20.8326 17.5871 20.962C17.593 20.9914 17.6106 21.0209 17.6165 21.0562C17.64 21.1798 17.6224 21.2386 17.7519 21.2504C18.0461 21.2857 18.3934 21.2563 18.6994 21.2798C18.9937 21.3034 19.3292 21.3034 19.6235 21.321C20.5358 21.3917 21.4481 21.4505 22.3074 21.5623C22.5899 21.5859 22.8665 21.633 23.1431 21.6918C22.9842 21.6977 22.8253 21.6918 22.6723 21.6624C21.8306 21.5859 20.9478 21.5388 20.0591 21.5035C16.9396 21.3799 13.52 21.4387 10.5948 21.7095C10.6066 21.6742 10.6536 21.6801 10.6831 21.6742C11.1775 21.5859 11.7072 21.5388 12.2369 21.4858C12.9844 21.4152 13.7437 21.3505 14.5206 21.3093C14.6736 21.3034 14.8502 21.2975 15.0091 21.2857C15.3622 21.2563 15.7742 21.2504 16.1215 21.2033C16.1921 21.1916 16.298 21.1621 16.3039 21.0915C16.3098 21.0562 16.2922 21.0032 16.2922 20.9443C16.2922 20.8561 16.3216 20.7678 16.2981 20.703C16.2628 20.6089 16.0568 20.5736 15.9861 20.5088C15.8625 20.5029 15.7566 20.55 15.6271 20.5441C15.5388 20.5382 15.4505 20.4912 15.3681 20.4912C15.2622 20.4912 15.1621 20.55 15.0562 20.55C14.9208 20.55 14.7854 20.5324 14.6501 20.5265C14.5265 20.5206 14.4087 20.5147 14.2851 20.497C14.1615 20.4794 14.0321 20.4147 13.9026 20.4029C13.7731 20.3911 13.6436 20.4382 13.5082 20.4146C13.4258 20.4028 13.3493 20.3146 13.2611 20.2969C13.1375 20.2851 13.0138 20.291 12.8902 20.3087C12.7902 20.3381 12.7254 20.4676 12.5901 20.4853C12.4312 20.5088 12.3252 20.4441 12.1839 20.3911C12.1427 20.4146 12.1251 20.45 12.0898 20.4794C11.9014 20.4558 11.9191 20.2145 11.6836 20.2322C11.5836 20.2381 11.5247 20.3146 11.4306 20.344L11.2776 20.244C11.3364 19.9673 11.0127 20.0438 10.9421 20.1557V20.291C10.8891 20.2969 10.8185 20.2557 10.7655 20.2616C10.7361 20.2675 10.7007 20.3087 10.6536 20.3205C10.5418 20.344 10.3064 20.3146 10.2888 20.2322C10.2652 20.1204 10.4124 20.1145 10.4124 20.0144C10.4123 19.9438 10.33 19.9614 10.3711 19.879C10.2829 19.8908 10.1946 19.8731 10.1239 19.8202C10.171 19.7437 10.2299 19.673 10.3005 19.6142C10.2593 19.5612 10.1299 19.5965 10.0533 19.5789C10.0063 19.4906 10.0651 19.4317 10.1063 19.3729C10.0721 19.333 9.99916 19.3207 10 19.2557L10.0007 19.2428C10.008 19.1775 10.1261 19.1597 10.1946 19.1198C10.2593 19.0727 10.3123 19.0138 10.3535 18.9432C10.4182 18.9667 10.483 18.9373 10.5124 18.8785C10.5772 18.8902 10.6243 18.9079 10.689 18.9197C10.7008 18.8961 10.6654 18.8667 10.6596 18.8373C10.6831 18.7902 10.7184 18.749 10.7596 18.7195C10.8008 18.7548 10.8597 18.7784 10.895 18.8137C10.9656 18.7784 11.048 18.7843 11.1069 18.8373C11.1657 18.8078 11.2128 18.7725 11.2716 18.7431C11.2304 18.7019 11.1716 18.6666 11.1893 18.5842C11.2187 18.4429 11.5483 18.5077 11.7131 18.4312C11.766 18.4076 11.7778 18.3605 11.8131 18.3311C11.8955 18.3193 11.9838 18.3193 12.0662 18.337C12.131 18.2958 12.1898 18.2487 12.2487 18.2016C12.2193 18.1604 12.178 18.1663 12.1251 18.178C12.1427 18.1486 12.1545 18.1192 12.1663 18.0898C12.2781 18.0898 12.39 18.0603 12.4841 18.0015C12.437 18.0721 12.4253 18.1604 12.4547 18.2428C12.5371 18.2134 12.6136 18.1722 12.696 18.1428C12.696 18.1074 12.643 18.0721 12.6077 18.0486V17.9309C12.6725 17.8897 12.7843 17.8897 12.8549 17.8014C12.902 17.7425 12.9138 17.6543 13.0021 17.666C13.0727 17.6719 13.0962 17.7425 13.0904 17.8485H13.2434C13.2316 18.0662 12.8726 17.8073 12.8844 18.0427C13.0197 18.1192 13.1963 18.1015 13.314 18.0015C13.3964 18.0132 13.4906 18.0074 13.5671 18.025C13.5965 18.0074 13.6201 17.9897 13.6377 17.9603C13.52 17.9132 13.3729 17.8897 13.3258 17.772C13.3729 17.7661 13.42 17.7602 13.4376 17.719C13.4435 17.6719 13.3729 17.7013 13.367 17.666C13.3788 17.6131 13.4317 17.6013 13.4671 17.5777C13.4729 17.4541 13.2963 17.4895 13.2257 17.5189C13.0668 17.46 13.2198 17.1951 13.3552 17.2363C13.4082 17.2481 13.4082 17.3246 13.4258 17.3835C13.4788 17.354 13.52 17.307 13.573 17.2717C13.7319 17.3011 13.6201 17.4424 13.5848 17.5248C13.6436 17.5189 13.7084 17.5071 13.7672 17.4953C13.7437 17.4541 13.7319 17.407 13.7378 17.36C13.7907 17.3247 13.8555 17.307 13.9202 17.307C13.9614 17.2893 13.985 17.2481 14.0026 17.201C14.1027 17.2658 14.1851 17.3482 14.2851 17.4129C14.291 17.4482 14.2793 17.4953 14.2911 17.513C14.3264 17.5188 14.3617 17.513 14.3911 17.5012C14.4323 17.5306 14.4735 17.5659 14.5147 17.6013C14.5559 17.5777 14.5912 17.5542 14.6324 17.5365C14.5971 17.4659 14.5559 17.4012 14.5147 17.3423C14.45 17.3305 14.4029 17.307 14.3381 17.2893C14.2969 17.2246 14.2498 17.1598 14.191 17.101H14.0438C14.0615 17.048 14.085 17.0009 14.1086 16.948C14.2027 16.995 14.4146 16.9244 14.4441 17.0362C14.5382 17.0304 14.6677 17.0539 14.7207 17.0068C14.7207 16.9303 14.6559 16.9126 14.6677 16.8243C14.7266 16.7949 14.7972 16.7891 14.8619 16.8008C14.8914 16.8361 14.8679 16.8655 14.8678 16.9126C14.9444 16.942 15.1444 16.8773 15.1268 16.9715C15.1209 17.0244 15.0562 16.995 15.0032 17.0127C14.9973 17.0657 15.0444 17.0598 15.0444 17.1069C14.9856 17.1775 15.0032 17.307 15.015 17.4188C15.0503 17.4188 15.1092 17.3776 15.1621 17.3658C15.0856 17.2599 15.1445 17.1598 15.1739 17.0362H15.3269C15.3681 16.9656 15.3681 16.8479 15.4564 16.8243C15.5212 16.8479 15.5683 16.895 15.633 16.9185C15.5859 17.0068 15.5035 17.0657 15.4505 17.154C15.5623 17.2893 15.786 17.1245 15.8449 17.0421C15.8213 17.0068 15.7683 17.0009 15.7448 16.9715C15.7978 16.8479 16.0038 16.9362 16.1038 16.9656C16.1627 16.9362 16.198 16.8832 16.2569 16.8538C16.3216 16.9008 16.3981 16.9303 16.4746 16.9362C16.4805 16.9833 16.4746 17.0303 16.4629 17.0715C16.5747 17.0833 16.5688 16.9833 16.6394 16.9538C16.7277 17.0068 16.8278 17.0245 16.9219 17.0068C16.9572 16.9303 16.8925 16.8891 16.8396 16.8773C16.9278 16.8244 17.022 16.7773 17.1162 16.7302ZM15.2269 20.2734C15.115 20.2498 15.0209 20.1557 14.8561 20.191C14.8208 20.2381 14.8031 20.2969 14.7678 20.3381C14.6736 20.3499 14.5853 20.3675 14.4971 20.397C14.6913 20.3911 14.8855 20.4441 15.0738 20.4264C15.1857 20.4146 15.2681 20.3617 15.3799 20.3675C15.5388 20.3793 15.6919 20.4499 15.8213 20.3675C15.7095 20.2439 15.4152 20.3146 15.2269 20.2734ZM13.0727 20.0144C12.9432 19.9379 12.849 20.1262 12.7078 20.1439C12.5783 20.1616 12.5371 20.1027 12.4194 20.0792C12.3546 20.1439 12.3193 20.244 12.2605 20.3146C12.3664 20.3381 12.4547 20.397 12.5606 20.3793C12.6666 20.3617 12.7196 20.2381 12.8431 20.2145C12.9491 20.191 13.0256 20.2145 13.1551 20.191C13.1257 20.1262 13.1257 20.0497 13.0727 20.0144ZM13.932 19.7849C13.8555 19.7672 13.7849 19.7731 13.7201 19.7849C13.6907 19.8849 13.832 19.9438 13.7496 20.0497C13.6436 20.0792 13.5494 19.9909 13.4906 19.932C13.5023 19.9026 13.5318 19.8555 13.5141 19.8143C13.4435 19.7967 13.3729 19.8437 13.3552 19.9143C13.3493 19.932 13.3493 19.9438 13.3552 19.9615C13.3611 20.0085 13.4258 20.0556 13.4258 20.0968C13.4258 20.1439 13.3846 20.1674 13.3611 20.191C13.4611 20.3087 13.6318 20.2734 13.8025 20.2734C13.9438 20.2734 14.0674 20.3381 14.1969 20.344C14.3675 20.3558 14.55 20.2675 14.7148 20.2734C14.7442 20.2263 14.7619 20.1556 14.8031 20.1203C14.8502 20.1203 14.8855 20.1086 14.9385 20.1145C14.8679 19.9438 14.4029 20.2027 14.4323 19.9497C14.3028 19.9261 14.2145 19.8673 14.0556 19.879C14.0674 19.9202 14.1498 19.9497 14.1792 19.9968C14.1027 20.038 14.0144 20.0556 13.932 20.038C13.8555 19.9732 13.9732 19.8791 13.932 19.7849ZM19.2351 19.2728C19.2115 19.3317 19.0879 19.367 19.0702 19.4553C19.0526 19.5435 19.1232 19.6436 19.1056 19.726C19.082 19.8378 18.823 19.8614 18.7289 19.7966C18.7406 19.7613 18.7406 19.726 18.7406 19.6848C18.67 19.6789 18.5935 19.6554 18.5582 19.7083C18.5641 19.7319 18.57 19.7554 18.5641 19.779C18.5111 19.8202 18.4287 19.8143 18.3875 19.7555C18.3698 19.7378 18.3639 19.7142 18.3639 19.6907C18.3934 19.6848 18.4228 19.6672 18.4464 19.6377V19.52H18.3875C18.3699 19.5436 18.3816 19.5906 18.3522 19.6024C18.2992 19.6024 18.2639 19.6142 18.2168 19.6142V19.5259C18.1226 19.5082 18.0932 19.5612 18.0638 19.6142C18.1403 19.6789 18.2168 19.7495 18.2816 19.826C18.2463 19.8437 18.2286 19.879 18.1933 19.8908C17.9461 19.7319 17.8695 20.0968 17.6106 19.9909C17.587 20.0909 17.5635 20.191 17.5399 20.2969C17.6459 20.2792 17.7224 20.2204 17.8284 20.2028C17.9343 20.1851 18.052 20.2086 18.1579 20.1792C18.2227 20.1615 18.2875 20.0968 18.3699 20.0674C18.4169 20.0556 18.464 20.0438 18.5052 20.038C18.6347 20.0262 18.8289 20.085 18.9408 20.0262C18.9878 20.0026 19.0231 19.9085 19.0702 19.879C19.0938 19.8673 19.135 19.8673 19.1703 19.8496C19.1997 19.8378 19.2291 19.8025 19.2586 19.7908C19.3527 19.7496 19.4469 19.7201 19.547 19.7083C19.5764 19.6318 19.5587 19.5494 19.5999 19.4965C19.6235 19.4612 19.6941 19.467 19.6882 19.4082C19.6058 19.3611 19.5058 19.3729 19.4351 19.4317C19.4293 19.4553 19.4234 19.4847 19.4234 19.5141C19.3881 19.52 19.3645 19.5377 19.3292 19.5435C19.2939 19.5082 19.2763 19.4553 19.2939 19.4082C19.3351 19.3846 19.3822 19.3729 19.3645 19.2905C19.3174 19.3022 19.2704 19.2905 19.2351 19.2728ZM14.6206 19.6318C14.5677 19.5671 14.2969 19.5671 14.2734 19.6554C14.3852 19.7496 14.4794 19.8614 14.6854 19.8614C14.703 19.8908 14.7148 19.9261 14.7266 19.9555C14.7913 19.9555 14.8384 19.9673 14.9091 19.9615C15.0032 20.0497 15.1209 20.1144 15.2445 20.1498C15.4211 20.1792 15.6212 20.1204 15.7801 20.1557C15.8684 20.1733 15.9214 20.2381 15.9979 20.2557C15.9508 20.1027 15.8507 19.9791 15.7154 19.8967C15.7095 19.9673 15.6506 20.0203 15.58 19.9791C15.58 19.9497 15.5859 19.9085 15.5741 19.8908C15.4623 19.8614 15.2857 19.9026 15.3211 19.7319C15.274 19.673 15.1327 19.5965 15.0503 19.6613C15.0444 19.8084 15.2033 19.7907 15.221 19.9143C15.2092 19.9496 15.1562 19.9438 15.1091 19.9438C15.0562 19.9143 15.0444 19.8496 15.0268 19.7849C15.0091 19.7849 14.9973 19.7966 14.9738 19.7908C15.0091 19.9673 14.8737 19.9555 14.8325 19.8378C14.7619 19.8261 14.703 19.7908 14.6501 19.7437C14.6501 19.7025 14.6383 19.6671 14.6206 19.6318ZM17.0279 19.6377C16.9749 19.6319 16.9102 19.6259 16.8454 19.6318C16.8219 19.6966 16.7984 19.7555 16.7631 19.8143C16.7807 19.8437 16.7925 19.879 16.7984 19.9143C16.6689 19.9791 16.5217 19.9967 16.3746 19.9732C16.3981 20.0262 16.4864 20.0733 16.5217 20.138C16.6453 20.1733 16.7748 20.2381 16.9514 20.2028C17.0279 20.085 17.128 19.9908 17.1751 19.8555C17.1339 19.8496 17.0927 19.8378 17.0573 19.8202C17.0573 19.7496 17.0691 19.6672 17.0279 19.6377ZM12.2369 19.5141C11.9662 19.5023 11.8249 19.6495 11.8956 19.9379C11.8191 19.9085 11.7425 19.8732 11.6601 19.8437V19.9673C11.772 20.0085 11.8897 20.0144 12.0015 19.9968C12.0191 20.0262 12.0309 20.0556 12.0368 20.0909C12.1251 20.0615 12.184 20.0909 12.2605 20.0615C12.3252 20.0379 12.3605 19.9615 12.4194 19.9497C12.4841 19.9379 12.5312 19.985 12.6077 19.985C12.6018 19.7495 12.2134 19.7966 12.078 19.8908C12.0898 19.8261 12.0898 19.7613 12.0898 19.6966C12.1428 19.6789 12.1781 19.6495 12.2369 19.6318V19.5141ZM11.4953 19.8378C11.46 19.7495 11.3599 19.7967 11.3129 19.8732C11.3364 19.8908 11.3717 19.8967 11.3776 19.9261C11.3659 19.9967 11.2776 19.9909 11.2481 20.0438C11.3423 20.1027 11.46 20.1027 11.5601 20.0497C11.566 20.0144 11.5071 19.9909 11.4953 19.9497C11.4836 19.9085 11.5071 19.8731 11.4953 19.8378ZM11.1951 19.626C11.101 19.6319 11.0421 19.7142 10.9538 19.7201C10.8832 19.726 10.7949 19.6436 10.7302 19.7142C10.7479 19.879 10.9244 19.9261 11.0774 19.932C11.0833 19.8967 11.0716 19.8437 11.0833 19.8143C11.1893 19.8261 11.2952 19.7966 11.3835 19.7437C11.3246 19.7025 11.2599 19.6672 11.1951 19.626ZM13.1904 19.7555C13.214 19.6613 12.8667 19.5612 12.8902 19.7025C12.902 19.7907 13.0904 19.7555 13.1904 19.7555ZM11.7543 19.5435C11.6542 19.52 11.5601 19.4141 11.4659 19.4847V19.6436C11.5365 19.6789 11.6071 19.7142 11.6836 19.7378C11.7072 19.673 11.7307 19.6083 11.7543 19.5435ZM20.3062 19.3199C20.2179 19.3081 20.1297 19.3846 20.0649 19.3905C19.9649 19.4023 19.9413 19.3258 19.8531 19.3493C19.8413 19.4729 19.753 19.5671 19.7294 19.6554C19.8001 19.6201 19.8589 19.4965 19.9413 19.4788C20.0414 19.4553 20.2827 19.5435 20.3651 19.467C20.4004 19.4317 20.4004 19.3788 20.3651 19.3435C20.3474 19.3258 20.3298 19.3199 20.3062 19.3199ZM13.5671 19.161C13.5141 19.0844 13.5553 18.8903 13.4082 18.9726C13.3552 19.1198 13.261 19.2198 13.0256 19.1845C13.0609 19.2199 13.0904 19.3081 13.1492 19.3317C13.1845 19.3434 13.2257 19.3258 13.2611 19.3375C13.3081 19.3611 13.2964 19.42 13.3552 19.4612C13.4965 19.5612 13.7789 19.4259 13.8614 19.3611C13.8908 19.3376 13.9438 19.2964 13.932 19.2728C13.7731 19.2316 13.6377 19.2669 13.5671 19.161ZM20.7948 19.2022C20.6771 19.2728 20.5711 19.3729 20.4946 19.4847C20.6182 19.4729 20.73 19.4612 20.7948 19.3905C20.8477 19.4023 20.9066 19.4141 20.9596 19.42C20.989 19.3905 21.0596 19.3317 21.0479 19.3081C20.9596 19.2905 20.8713 19.2551 20.7948 19.2022ZM11.0716 18.9726C11.0362 19.055 10.9891 19.1316 10.9597 19.2257C10.995 19.3023 11.0539 19.3788 11.1422 19.3729C11.2187 19.367 11.3599 19.2375 11.4188 19.214C11.2775 19.161 11.1363 19.1021 11.0716 18.9726ZM10.842 19.055C10.8067 18.9197 10.6008 19.0726 10.6007 19.1198C10.6007 19.1433 10.6713 19.1786 10.6949 19.2022C10.7655 19.1669 10.8655 19.1492 10.842 19.055ZM12.8726 18.8078C12.8373 18.9079 12.6431 18.8549 12.543 18.902C12.5136 18.9903 12.596 19.0197 12.6901 19.002C12.7431 19.0374 12.749 19.1139 12.8373 19.1139V19.0197C12.955 19.0139 13.0785 19.0079 13.0962 18.902C13.0315 18.8491 12.955 18.8196 12.8726 18.8078ZM18.9231 18.6489C18.929 18.7548 18.9113 18.8608 18.8701 18.9609C18.8937 18.9962 18.9113 19.0374 18.9525 19.055C18.9996 19.0374 19.0408 19.0197 19.0879 19.002C19.0762 18.8667 19.1997 18.8667 19.2351 18.7784C19.1997 18.7019 19.0879 18.7313 19.0231 18.7666C18.982 18.7372 18.9643 18.6783 18.9231 18.6489ZM16.5276 18.3958C16.5217 18.337 16.4629 18.3311 16.404 18.3605C16.3922 18.4135 16.3451 18.4312 16.2863 18.4312C16.2922 18.4017 16.2745 18.3958 16.2804 18.3664C16.2157 18.3311 16.1568 18.3782 16.0921 18.39C16.1627 18.4782 16.198 18.5901 16.1921 18.7019C16.3746 18.7196 16.4687 18.8196 16.6276 18.8549C16.6983 18.8196 16.7689 18.7784 16.8396 18.7372C16.922 18.7548 17.0632 18.7843 17.0868 18.7078C17.1103 18.6254 17.0044 18.6018 16.9749 18.543C16.9985 18.5194 17.0632 18.5312 17.1044 18.5312C17.1221 18.4841 17.1456 18.437 17.1633 18.3958C17.0691 18.3899 16.9808 18.4488 16.9043 18.437C16.8395 18.4253 16.8101 18.3664 16.7454 18.3546C16.7042 18.3899 16.6983 18.4606 16.6865 18.5312C16.7159 18.5606 16.7571 18.5783 16.7866 18.6018C16.7277 18.643 16.6747 18.696 16.61 18.7313C16.5335 18.7019 16.4158 18.7137 16.3922 18.6313C16.4099 18.6195 16.4393 18.6136 16.457 18.6018C16.457 18.5665 16.4335 18.5547 16.4276 18.5195C16.4688 18.4841 16.4982 18.4429 16.5276 18.3958ZM15.7801 18.0603C15.5918 18.0721 15.5447 18.2251 15.4741 18.3546C15.4388 18.3193 15.4034 18.2781 15.374 18.2369C15.3387 18.2428 15.3269 18.2722 15.2916 18.2781C15.3446 18.3252 15.4211 18.4841 15.3211 18.5018C15.2269 18.5253 15.1798 18.4017 15.1033 18.3782C15.0797 18.4194 15.0267 18.4371 15.0091 18.49C15.0444 18.5077 15.0856 18.5253 15.1209 18.5489C15.1033 18.5842 15.0621 18.596 15.0503 18.6372C15.1386 18.6784 15.2386 18.6843 15.3328 18.6666C15.3269 18.7078 15.3211 18.7549 15.3211 18.796C15.3387 18.8196 15.3681 18.8255 15.3858 18.849C15.5153 18.7196 15.8272 18.7725 15.9449 18.6313C15.8978 18.6136 15.8567 18.5783 15.8213 18.543C15.8861 18.5018 15.9685 18.4841 15.9979 18.4076C15.9332 18.3782 15.8036 18.4017 15.7154 18.3958C15.7036 18.3605 15.6977 18.3311 15.6919 18.2958C15.7801 18.284 15.7919 18.1545 15.7801 18.0603ZM14.8443 18.4017C14.8031 18.3488 14.6324 18.3429 14.55 18.3605C14.4146 18.3841 14.3499 18.5194 14.3558 18.6607C14.4499 18.6666 14.5382 18.6372 14.6089 18.5783C14.6324 18.6431 14.6677 18.7078 14.7089 18.7608C14.7795 18.749 14.8443 18.7254 14.9208 18.7195C14.9384 18.6489 14.9444 18.5783 14.9444 18.5077C14.909 18.5312 14.8678 18.5489 14.8266 18.5665C14.8031 18.5489 14.7737 18.543 14.7619 18.5135C14.7913 18.4782 14.8207 18.4429 14.8443 18.4017ZM13.5671 18.384C13.5671 18.4076 13.5612 18.437 13.5376 18.4488C13.4611 18.4841 13.3729 18.4488 13.2905 18.4606C13.2081 18.4783 13.1374 18.543 13.0668 18.5548C13.0962 18.6018 13.1257 18.6489 13.161 18.6901C13.2964 18.6548 13.3964 18.5842 13.5906 18.6018C13.6377 18.6312 13.7083 18.7313 13.7436 18.7255C13.7495 18.6843 13.7319 18.6254 13.7496 18.596C13.832 18.6195 14.0262 18.6548 14.0497 18.5724C14.0791 18.4429 13.7083 18.3899 13.5671 18.384ZM12.6548 18.3782C12.5665 18.49 12.1898 18.4076 12.2428 18.6254C12.2663 18.7313 12.6136 18.7078 12.6784 18.6254C12.6489 18.596 12.6195 18.5606 12.5901 18.5253C12.6313 18.4959 12.6725 18.4547 12.7078 18.4135C12.6842 18.4076 12.6724 18.39 12.6548 18.3782ZM19.9825 18.1898C19.9707 18.3134 19.8825 18.3664 19.8001 18.4253C19.8471 18.4782 19.8942 18.5371 19.9354 18.59C19.9943 18.5606 20.0002 18.4959 20.0708 18.49C20.1414 18.4841 20.2238 18.5547 20.2886 18.4959C20.2827 18.4429 20.2768 18.3899 20.2591 18.337C20.1885 18.3487 20.1179 18.3547 20.0473 18.3429C20.012 18.3076 20.0119 18.2369 19.9825 18.1898ZM17.7459 18.3782C17.7636 18.1722 17.5105 18.2428 17.3928 18.2781V18.3605C17.4399 18.3605 17.5047 18.337 17.5459 18.3546C17.54 18.3782 17.5399 18.4076 17.5399 18.437C17.6223 18.4253 17.7048 18.4488 17.7636 18.5018C17.8166 18.4841 17.8637 18.4606 17.9108 18.4312C17.8519 18.4194 17.7989 18.4017 17.7459 18.3782ZM14.1556 18.2722C14.1498 18.3134 14.1439 18.3664 14.1262 18.4194C14.1674 18.437 14.191 18.4665 14.2381 18.4841C14.2675 18.4606 14.3028 18.4429 14.3322 18.4194C14.3204 18.3488 14.3617 18.337 14.3676 18.284C14.291 18.284 14.2322 18.2722 14.1556 18.2722ZM18.1521 17.9191C18.0932 17.8897 18.0284 17.819 17.9519 17.8779C17.9637 17.9309 17.9814 17.9721 17.9873 18.0309C17.9343 18.0721 17.8754 18.1133 17.8107 18.1486C17.8637 18.2428 17.9343 18.3193 17.9931 18.4135C18.0402 18.4194 18.0932 18.4312 18.1403 18.4488C18.2462 18.3958 18.3463 18.3311 18.3522 18.1722C18.311 18.1074 18.2286 18.078 18.1521 18.1133V17.9191ZM13.7849 18.2781C13.7966 18.1781 13.5494 18.1428 13.4553 18.1957C13.4788 18.2428 13.5083 18.2899 13.5436 18.3311C13.6377 18.3311 13.7731 18.3487 13.7849 18.2781ZM16.2804 17.5954C16.2157 17.6307 16.1509 17.666 16.0862 17.6895C16.0685 17.7425 16.0391 17.7778 16.0214 17.8367C16.0685 17.9014 16.1274 17.9544 16.1745 18.0192C16.1509 18.1074 16.1156 18.1898 16.0744 18.2663C16.1627 18.2604 16.198 18.3017 16.2628 18.3193C16.304 18.2546 16.404 18.2251 16.3805 18.1251C16.4335 18.1074 16.4982 18.0662 16.4923 18.0074C16.4452 17.978 16.3805 18.0544 16.3393 18.0074C16.3393 17.925 16.404 17.9073 16.4276 17.8485C16.4158 17.7896 16.4099 17.7307 16.404 17.6719C16.3569 17.6484 16.3216 17.6189 16.2804 17.5954ZM18.6524 18.0603C18.6641 17.9367 18.4581 17.9309 18.4287 18.025C18.4464 18.0368 18.4699 18.0427 18.4816 18.0603C18.4522 18.0839 18.4287 18.1074 18.4111 18.131C18.4228 18.1545 18.4405 18.1722 18.4464 18.1957C18.6053 18.2369 18.8054 18.2428 18.876 18.1133C18.7936 18.1074 18.723 18.0898 18.6524 18.0603ZM14.7972 17.5248C14.7678 17.5777 14.7266 17.6248 14.7031 17.6837C14.7148 17.7013 14.7266 17.7249 14.7384 17.7425C14.7148 17.7543 14.6854 17.7602 14.6795 17.7955C14.656 17.9603 14.4558 17.9367 14.3028 17.9132V17.978C14.3911 18.0133 14.4853 18.0427 14.5736 18.078C14.603 18.0251 14.6442 17.978 14.6854 17.9309C14.7266 17.9427 14.7678 17.9544 14.809 17.9603C14.8031 17.925 14.809 17.8897 14.8149 17.8602C15.0032 17.8485 15.1915 17.8308 15.2151 17.6542C15.1856 17.5601 14.9973 17.4894 14.9973 17.6542C14.9267 17.613 14.8678 17.5601 14.7972 17.5248ZM13.8731 17.5365C13.879 17.5895 13.879 17.6483 13.8614 17.7072C13.8908 17.7248 13.9202 17.7366 13.9496 17.7602C14.0026 17.7425 14.0438 17.7072 14.0791 17.666C14.0674 17.5719 13.9379 17.5542 13.8731 17.5365ZM17.5753 17.0951C17.5341 17.1716 17.487 17.2481 17.3634 17.2187C17.3575 17.3011 17.2927 17.3128 17.2456 17.354C17.3634 17.4423 17.6224 17.4012 17.6753 17.2893C17.6459 17.2187 17.6518 17.1128 17.5753 17.0951ZM16.198 17.1186C16.1686 17.1539 16.1274 17.1834 16.0862 17.2069C16.0391 17.1834 15.992 17.154 15.9508 17.1245C15.9096 17.1775 15.8214 17.2128 15.8802 17.307C15.9744 17.3129 16.0568 17.3305 16.1509 17.3364C16.2098 17.2893 16.2922 17.2599 16.3099 17.1775C16.2687 17.1598 16.251 17.1186 16.198 17.1186Z" fill="white"/>
</g>
<defs>
<clipPath id="clip0_1694_755">
<rect width="40" height="40" fill="white"/>
</clipPath>
</defs>
</svg>
