<svg width="40" height="40" viewBox="0 0 40 40" fill="none" xmlns="http://www.w3.org/2000/svg">
<g clip-path="url(#clip0_1696_874)">
<path d="M20 0C31.0457 0 40 8.9543 40 20C40 31.0457 31.0457 40 20 40C8.95431 40 7.90517e-06 31.0457 0 20C6.58765e-07 8.95431 8.95431 1.97595e-06 20 0Z" fill="#E9D4FC"/>
<path d="M26 6C30.4183 6 34 9.58172 34 14V26C34 30.4183 30.4183 34 26 34H14C9.58172 34 6 30.4183 6 26V14C6 9.58172 9.58172 6 14 6H26Z" fill="#450E78"/>
<path fill-rule="evenodd" clip-rule="evenodd" d="M20.9079 20.7227C20.9079 20.7227 20.9009 21.0243 21.176 21.0216C21.179 21.0175 21.4669 21.0627 21.4775 20.6506C21.478 20.651 21.4781 20.6516 21.4786 20.6516L21.4789 20.3987V19.7251C21.479 19.7155 21.4959 19.4135 21.2939 19.3999V19.372L22.2731 19.3339V21.1255C22.2726 21.1331 22.2552 21.4701 22.4674 21.4799V21.5052H21.4775L21.4778 21.2509C21.4375 21.2922 21.2168 21.5017 20.8836 21.508C20.8784 21.5082 20.1076 21.5327 20.1092 20.7877C20.1063 20.781 20.1079 19.9915 20.1087 19.7217H19.5119C19.5345 19.7404 19.5639 19.7797 19.564 19.7797C19.8991 20.2087 19.5735 20.5657 19.5705 20.569C19.3556 20.8698 18.6616 20.9542 18.6616 20.9542L18.6186 20.9591C18.3843 20.9673 18.4578 21.0858 18.4591 21.0871C18.493 21.1666 18.6623 21.1542 18.6623 21.1542H19.0596C19.864 21.1515 19.9498 21.6784 19.9531 21.6784C20.0853 22.4176 19.3412 22.6381 18.5982 22.6186C17.862 22.6234 17.5886 22.3032 17.5907 22.305C17.4036 22.0881 17.5025 21.7856 17.8339 21.6938C18.079 21.6262 18.3686 21.6938 18.3686 21.6938C18.1484 21.7246 18.1874 21.9487 18.1878 21.9503C18.2615 22.2148 18.6376 22.2177 18.661 22.218C19.1419 22.1932 19.1558 21.9591 19.1558 21.8446C19.1558 21.6935 19.0301 21.6027 19.0301 21.6027C18.8558 21.4746 18.526 21.515 18.2964 21.5051C17.9746 21.4867 17.891 21.1843 17.8757 21.0918C17.8607 20.9983 17.8781 20.9607 17.9318 20.9263C18.029 20.8691 18.2496 20.8441 18.2245 20.8446L18.2293 20.8435C18.2254 20.8426 18.2228 20.8426 18.2224 20.8426C17.9456 20.7546 17.7811 20.5215 17.7781 20.5215C17.4281 20.0209 17.8325 19.6257 17.8365 19.6218C18.072 19.3947 18.3711 19.3437 18.6383 19.3308H20.9079V20.7227ZM18.6711 19.7447C18.387 19.7447 18.3984 20.1016 18.3951 20.098C18.364 20.4939 18.6492 20.5193 18.6705 20.5144C18.9701 20.5144 18.9353 20.098 18.9353 20.0917C18.929 19.7357 18.6734 19.7446 18.6711 19.7447Z" fill="white"/>
<path d="M28.9422 21.126C28.9372 21.4964 29.1326 21.4801 29.1361 21.4798V21.5061L28.1362 21.5055V21.5052L28.1359 21.5055V20.1622L28.1356 20.1344C28.1352 20.1236 28.1252 19.7911 27.8237 19.7874C27.8199 19.7912 27.4577 19.7527 27.4576 20.4296C27.454 20.4332 27.4541 21.2214 28.0665 21.1201C28.0665 21.1233 27.8516 21.5041 27.8516 21.5041C27.8475 21.5055 27.3534 21.6734 26.9435 21.2355C26.9423 21.2345 26.6303 20.9622 26.6303 20.4296C26.6339 20.4332 26.6199 19.9271 26.9435 19.6062C26.9402 19.6166 27.443 19.0487 28.1356 19.4869V18.7765C28.1356 18.7679 28.1528 18.465 27.9505 18.4515V18.424L28.9415 18.3856L28.9422 21.126Z" fill="white"/>
<path d="M11.9719 21.5294L11.5243 21.3567C11.5243 21.3567 11.1616 21.2496 10.9686 20.7058L10.2688 18.7735C10.2688 18.7735 10.1806 18.4613 10 18.4174V18.3853H11.0628L11.8254 20.6123L12.3895 18.8256C12.3895 18.8256 12.5048 18.5249 12.1963 18.4058V18.3802H13.0476L11.9719 21.5294Z" fill="white"/>
<path d="M25.9665 19.6156C26.1837 19.2069 26.6004 19.3336 26.6004 19.3336V19.8679C25.9418 19.7587 25.967 20.2525 25.9665 20.253H25.9662L25.9659 21.1251C25.9617 21.4947 26.151 21.4804 26.1605 21.4799V21.5055H25.172V21.5052H24.6C24.5794 21.5077 23.8958 21.53 23.8689 20.8938V20.5499C23.8689 20.5499 23.5973 20.61 23.5128 20.6749C23.5128 20.6749 23.2969 20.8122 23.4397 21.048C23.4397 21.048 23.5455 21.2343 23.8891 21.1655L23.7215 21.5064H23.3899C23.389 21.5065 22.618 21.5216 22.5276 20.9542C22.5273 20.9485 22.4592 20.5083 22.9856 20.3306C22.99 20.329 23.1701 20.2662 23.5088 20.2063C23.5128 20.2063 23.8021 20.1648 23.8291 20.0079C23.8362 19.9762 23.8328 19.943 23.8196 19.9133C23.8237 19.9259 23.6881 19.5677 22.8545 19.9295C22.8592 19.9334 23.0266 19.4065 23.0266 19.4065C23.0321 19.4049 23.8136 19.177 24.3593 19.512C24.3562 19.5166 24.6447 19.6707 24.6412 20.1521L24.6497 20.8207C24.6483 20.8311 24.6489 21.1629 24.9766 21.1812C24.9777 21.1843 25.108 21.1837 25.1716 21.1834L25.1719 19.7251C25.172 19.7155 25.1887 19.413 24.987 19.3996V19.3724L25.9665 19.334V19.6156Z" fill="white"/>
<path d="M13.0692 19.4065C13.0692 19.4065 13.8541 19.1758 14.4017 19.512C14.3981 19.5156 14.6879 19.6696 14.6839 20.1526L14.6926 20.8207C14.6915 20.8305 14.6922 21.1629 15.0195 21.1815C15.0206 21.1846 15.1361 21.1837 15.2024 21.1834V19.7251C15.2025 19.7155 15.2197 19.4135 15.0177 19.3999V19.372L15.9969 19.3339L15.9966 19.5819C16.0498 19.5293 16.2661 19.3366 16.5857 19.3306C16.59 19.3305 17.348 19.3062 17.3467 20.0508C17.3471 20.0561 17.348 21.1183 17.348 21.1255C17.342 21.4742 17.5394 21.4793 17.5394 21.4793L17.5392 21.5055H16.5674V21.1271L16.5743 21.126H16.567C16.5674 21.1181 16.567 20.1324 16.567 20.1324C16.565 20.0743 16.5862 19.8157 16.2919 19.8186C16.2876 19.8194 15.9897 19.8264 15.9966 20.1878L15.9957 21.1712C16.0043 21.4725 16.1836 21.48 16.1857 21.4801V21.5054L14.6435 21.5052C14.6219 21.5077 13.9386 21.53 13.9112 20.8938V20.5499C13.9061 20.551 13.6397 20.6106 13.5559 20.6749C13.5516 20.6777 13.3408 20.8146 13.4821 21.048C13.4821 21.048 13.5885 21.2343 13.932 21.1655L13.7644 21.5061H13.4334C13.4334 21.5061 12.6609 21.5219 12.5704 20.9544C12.5701 20.9485 12.502 20.5086 13.0283 20.3303C13.0283 20.3303 13.2089 20.2669 13.552 20.2063C13.5568 20.2061 13.8454 20.1645 13.8723 20.0078C13.8791 19.9761 13.8756 19.943 13.8626 19.9133C13.8673 19.9256 13.731 19.5677 12.8977 19.9295C12.9011 19.9334 13.0679 19.4106 13.0692 19.4065Z" fill="white"/>
<path fill-rule="evenodd" clip-rule="evenodd" d="M29.62 18.5514C29.6985 18.5514 29.7789 18.5759 29.7789 18.6674C29.7797 18.6932 29.7715 18.7186 29.7556 18.7389C29.7396 18.7593 29.717 18.7735 29.6917 18.7789V18.7802C29.7474 18.7934 29.7548 18.8232 29.762 18.8748C29.7692 18.9209 29.7746 18.9702 29.7915 19.0137H29.722C29.7163 18.9864 29.7088 18.9562 29.7055 18.9284C29.7004 18.8871 29.7004 18.8494 29.6791 18.8259C29.6604 18.8051 29.6343 18.807 29.6086 18.8051H29.5184V19.0137H29.4533V18.5514H29.62ZM29.5168 18.75H29.6236C29.6953 18.7467 29.7115 18.7145 29.7115 18.6782C29.7115 18.6415 29.6952 18.6093 29.6236 18.6063H29.5167L29.5168 18.75Z" fill="white"/>
<path fill-rule="evenodd" clip-rule="evenodd" d="M29.6043 18.3876C29.8223 18.3877 30 18.5641 30 18.7802C30 18.9966 29.8223 19.1727 29.6043 19.1727C29.4997 19.1731 29.3992 19.1321 29.325 19.0585C29.2508 18.9848 29.2088 18.8848 29.2083 18.7802C29.2083 18.5641 29.3856 18.3876 29.6043 18.3876ZM29.6043 18.4417C29.4161 18.4417 29.263 18.5938 29.263 18.7802C29.263 18.9666 29.4161 19.1184 29.6043 19.1184C29.7922 19.1184 29.9448 18.9666 29.9448 18.7802C29.9448 18.5939 29.7923 18.4418 29.6043 18.4417Z" fill="white"/>
</g>
<defs>
<clipPath id="clip0_1696_874">
<rect width="40" height="40" fill="white"/>
</clipPath>
</defs>
</svg>
